<svg width="30" height="30" viewBox="0 0 30 30" fill="none" xmlns="http://www.w3.org/2000/svg">
<path d="M9.375 14.0625H20.625C20.8736 14.0625 21.1121 13.9637 21.2879 13.7879C21.4637 13.6121 21.5625 13.3736 21.5625 13.125V7.5C21.5625 7.25136 21.4637 7.0129 21.2879 6.83709C21.1121 6.66127 20.8736 6.5625 20.625 6.5625H9.375C9.12636 6.5625 8.8879 6.66127 8.71209 6.83709C8.53627 7.0129 8.4375 7.25136 8.4375 7.5V13.125C8.4375 13.3736 8.53627 13.6121 8.71209 13.7879C8.8879 13.9637 9.12636 14.0625 9.375 14.0625ZM10.3125 8.4375H19.6875V12.1875H10.3125V8.4375ZM23.4375 2.8125H6.5625C6.06522 2.8125 5.58831 3.01004 5.23667 3.36167C4.88504 3.71331 4.6875 4.19022 4.6875 4.6875V25.3125C4.6875 25.8098 4.88504 26.2867 5.23667 26.6383C5.58831 26.99 6.06522 27.1875 6.5625 27.1875H23.4375C23.9348 27.1875 24.4117 26.99 24.7633 26.6383C25.115 26.2867 25.3125 25.8098 25.3125 25.3125V4.6875C25.3125 4.19022 25.115 3.71331 24.7633 3.36167C24.4117 3.01004 23.9348 2.8125 23.4375 2.8125ZM23.4375 25.3125H6.5625V4.6875H23.4375V25.3125ZM11.7188 17.3438C11.7188 17.6219 11.6363 17.8938 11.4818 18.125C11.3272 18.3563 11.1076 18.5365 10.8506 18.643C10.5937 18.7494 10.3109 18.7772 10.0382 18.723C9.76537 18.6687 9.5148 18.5348 9.31813 18.3381C9.12146 18.1415 8.98753 17.8909 8.93327 17.6181C8.87901 17.3453 8.90686 17.0626 9.01329 16.8056C9.11973 16.5486 9.29997 16.329 9.53123 16.1745C9.76249 16.02 10.0344 15.9375 10.3125 15.9375C10.6855 15.9375 11.0431 16.0857 11.3069 16.3494C11.5706 16.6131 11.7188 16.9708 11.7188 17.3438ZM16.4062 17.3438C16.4062 17.6219 16.3238 17.8938 16.1693 18.125C16.0147 18.3563 15.7951 18.5365 15.5381 18.643C15.2812 18.7494 14.9984 18.7772 14.7257 18.723C14.4529 18.6687 14.2023 18.5348 14.0056 18.3381C13.809 18.1415 13.675 17.8909 13.6208 17.6181C13.5665 17.3453 13.5944 17.0626 13.7008 16.8056C13.8072 16.5486 13.9875 16.329 14.2187 16.1745C14.45 16.02 14.7219 15.9375 15 15.9375C15.373 15.9375 15.7306 16.0857 15.9944 16.3494C16.2581 16.6131 16.4062 16.9708 16.4062 17.3438ZM21.0938 17.3438C21.0938 17.6219 21.0113 17.8938 20.8568 18.125C20.7022 18.3563 20.4826 18.5365 20.2256 18.643C19.9687 18.7494 19.6859 18.7772 19.4132 18.723C19.1404 18.6687 18.8898 18.5348 18.6931 18.3381C18.4965 18.1415 18.3625 17.8909 18.3083 17.6181C18.254 17.3453 18.2819 17.0626 18.3883 16.8056C18.4947 16.5486 18.675 16.329 18.9062 16.1745C19.1375 16.02 19.4094 15.9375 19.6875 15.9375C20.0605 15.9375 20.4181 16.0857 20.6819 16.3494C20.9456 16.6131 21.0938 16.9708 21.0938 17.3438ZM11.7188 22.0312C11.7188 22.3094 11.6363 22.5813 11.4818 22.8125C11.3272 23.0438 11.1076 23.224 10.8506 23.3305C10.5937 23.4369 10.3109 23.4647 10.0382 23.4105C9.76537 23.3562 9.5148 23.2223 9.31813 23.0256C9.12146 22.829 8.98753 22.5784 8.93327 22.3056C8.87901 22.0328 8.90686 21.7501 9.01329 21.4931C9.11973 21.2361 9.29997 21.0165 9.53123 20.862C9.76249 20.7075 10.0344 20.625 10.3125 20.625C10.6855 20.625 11.0431 20.7732 11.3069 21.0369C11.5706 21.3006 11.7188 21.6583 11.7188 22.0312ZM16.4062 22.0312C16.4062 22.3094 16.3238 22.5813 16.1693 22.8125C16.0147 23.0438 15.7951 23.224 15.5381 23.3305C15.2812 23.4369 14.9984 23.4647 14.7257 23.4105C14.4529 23.3562 14.2023 23.2223 14.0056 23.0256C13.809 22.829 13.675 22.5784 13.6208 22.3056C13.5665 22.0328 13.5944 21.7501 13.7008 21.4931C13.8072 21.2361 13.9875 21.0165 14.2187 20.862C14.45 20.7075 14.7219 20.625 15 20.625C15.373 20.625 15.7306 20.7732 15.9944 21.0369C16.2581 21.3006 16.4062 21.6583 16.4062 22.0312ZM21.0938 22.0312C21.0938 22.3094 21.0113 22.5813 20.8568 22.8125C20.7022 23.0438 20.4826 23.224 20.2256 23.3305C19.9687 23.4369 19.6859 23.4647 19.4132 23.4105C19.1404 23.3562 18.8898 23.2223 18.6931 23.0256C18.4965 22.829 18.3625 22.5784 18.3083 22.3056C18.254 22.0328 18.2819 21.7501 18.3883 21.4931C18.4947 21.2361 18.675 21.0165 18.9062 20.862C19.1375 20.7075 19.4094 20.625 19.6875 20.625C20.0605 20.625 20.4181 20.7732 20.6819 21.0369C20.9456 21.3006 21.0938 21.6583 21.0938 22.0312Z" fill="white"/>
</svg>
