<svg width="25" height="25" viewBox="0 0 25 25" fill="none" xmlns="http://www.w3.org/2000/svg">
<g clip-path="url(#clip0_7731_9841)">
<path d="M23.5259 5.57217C23.3639 5.471 23.1788 5.41276 22.9881 5.40292C22.7973 5.39307 22.6072 5.43196 22.4356 5.51592C18.5469 7.4181 15.7419 6.51998 12.7728 5.56842C9.66219 4.57279 6.13719 3.44404 1.43563 5.74279C1.24625 5.83536 1.0867 5.97927 0.975143 6.15812C0.86359 6.33697 0.804527 6.54357 0.804688 6.75435V18.0137C0.804542 18.2047 0.853019 18.3926 0.94555 18.5597C1.03808 18.7267 1.17162 18.8675 1.33359 18.9687C1.49556 19.0699 1.68062 19.1282 1.87134 19.1381C2.06207 19.148 2.25217 19.1092 2.42375 19.0253C6.3125 17.1231 9.1175 18.0212 12.0866 18.9728C13.8519 19.5353 15.7503 20.1456 17.9216 20.1456C19.5772 20.1456 21.3903 19.7922 23.4238 18.7984C23.6131 18.7058 23.7727 18.5619 23.8842 18.3831C23.9958 18.2042 24.0548 17.9976 24.0547 17.7869V6.52748C24.0549 6.33645 24.0065 6.14851 23.914 5.98137C23.8215 5.81424 23.6879 5.67341 23.5259 5.57217ZM21.8047 17.0631C18.2422 18.5781 15.5788 17.7259 12.7728 16.8278C11.0075 16.2653 9.10906 15.654 6.93781 15.654C5.61486 15.6564 4.30188 15.8831 3.05469 16.3244V7.4781C6.61719 5.9631 9.28062 6.81435 12.0866 7.71342C14.8297 8.59185 17.8944 9.57342 21.8047 8.21685V17.0631ZM12.4297 9.2706C11.8363 9.2706 11.2563 9.44655 10.763 9.7762C10.2696 10.1058 9.88511 10.5744 9.65805 11.1226C9.43099 11.6707 9.37158 12.2739 9.48733 12.8559C9.60309 13.4378 9.88881 13.9724 10.3084 14.3919C10.7279 14.8115 11.2625 15.0972 11.8444 15.213C12.4264 15.3287 13.0296 15.2693 13.5777 15.0422C14.1259 14.8152 14.5945 14.4307 14.9241 13.9373C15.2537 13.444 15.4297 12.8639 15.4297 12.2706C15.4282 11.4754 15.1117 10.7132 14.5494 10.1509C13.9871 9.58864 13.2249 9.27209 12.4297 9.2706ZM12.4297 13.0206C12.2814 13.0206 12.1363 12.9766 12.013 12.8942C11.8897 12.8118 11.7935 12.6947 11.7368 12.5576C11.68 12.4206 11.6652 12.2698 11.6941 12.1243C11.723 11.9788 11.7945 11.8452 11.8994 11.7403C12.0042 11.6354 12.1379 11.564 12.2834 11.535C12.4289 11.5061 12.5797 11.5209 12.7167 11.5777C12.8537 11.6345 12.9709 11.7306 13.0533 11.8539C13.1357 11.9773 13.1797 12.1223 13.1797 12.2706C13.1797 12.4695 13.1007 12.6603 12.96 12.8009C12.8194 12.9416 12.6286 13.0206 12.4297 13.0206ZM6.42969 9.6456V13.3956C6.42969 13.694 6.31116 13.9801 6.10018 14.1911C5.8892 14.4021 5.60306 14.5206 5.30469 14.5206C5.00632 14.5206 4.72017 14.4021 4.50919 14.1911C4.29821 13.9801 4.17969 13.694 4.17969 13.3956V9.6456C4.17969 9.34724 4.29821 9.06109 4.50919 8.85011C4.72017 8.63913 5.00632 8.5206 5.30469 8.5206C5.60306 8.5206 5.8892 8.63913 6.10018 8.85011C6.31116 9.06109 6.42969 9.34724 6.42969 9.6456ZM18.4297 14.8956V11.1456C18.4297 10.8472 18.5482 10.5611 18.7592 10.3501C18.9702 10.1391 19.2563 10.0206 19.5547 10.0206C19.8531 10.0206 20.1392 10.1391 20.3502 10.3501C20.5612 10.5611 20.6797 10.8472 20.6797 11.1456V14.8956C20.6797 15.194 20.5612 15.4801 20.3502 15.6911C20.1392 15.9021 19.8531 16.0206 19.5547 16.0206C19.2563 16.0206 18.9702 15.9021 18.7592 15.6911C18.5482 15.4801 18.4297 15.194 18.4297 14.8956Z" fill="#041e42"/>
</g>
<defs>
<clipPath id="clip0_7731_9841">
<rect width="24" height="24" fill="white" transform="translate(0.429688 0.270508)"/>
</clipPath>
</defs>
</svg>
