<svg width="30" height="30" viewBox="0 0 30 30" fill="none" xmlns="http://www.w3.org/2000/svg">
<path d="M15 2.8125C12.5895 2.8125 10.2332 3.52728 8.22899 4.86646C6.22477 6.20564 4.66267 8.10907 3.74022 10.336C2.81778 12.563 2.57643 15.0135 3.04668 17.3777C3.51694 19.7418 4.67769 21.9134 6.38214 23.6179C8.08659 25.3223 10.2582 26.4831 12.6223 26.9533C14.9865 27.4236 17.437 27.1822 19.664 26.2598C21.8909 25.3373 23.7944 23.7752 25.1335 21.771C26.4727 19.7668 27.1875 17.4105 27.1875 15C27.1838 11.7688 25.8986 8.67104 23.6138 6.38625C21.329 4.10145 18.2312 2.81622 15 2.8125ZM25.268 14.0625H20.6004C20.3906 9.78398 18.743 6.7582 17.3918 4.96875C19.4898 5.47256 21.3775 6.62035 22.7902 8.25119C24.2029 9.88203 25.0697 11.9141 25.2691 14.0625H25.268ZM11.277 15.9375H18.7231C18.4523 20.8137 16.118 23.802 15 24.9609C13.8809 23.8008 11.5477 20.8125 11.277 15.9375ZM11.277 14.0625C11.5477 9.18633 13.882 6.19805 15 5.03906C16.1191 6.20273 18.4523 9.19102 18.7231 14.0625H11.277ZM12.6082 4.96875C11.257 6.7582 9.60938 9.78398 9.39961 14.0625H4.73086C4.93031 11.9141 5.79716 9.88203 7.20985 8.25119C8.62254 6.62035 10.5102 5.47256 12.6082 4.96875ZM4.73086 15.9375H9.39961C9.6129 20.216 11.257 23.2418 12.6082 25.0312C10.5102 24.5274 8.62254 23.3796 7.20985 21.7488C5.79716 20.118 4.93031 18.0859 4.73086 15.9375ZM17.3871 25.0312C18.7383 23.2418 20.3824 20.216 20.5957 15.9375H25.2645C25.0653 18.0853 24.1991 20.1169 22.7874 21.7477C21.3756 23.3784 19.4889 24.5266 17.3918 25.0312H17.3871Z" fill="#041E42"/>
</svg>
