<svg width="178" height="58" viewBox="0 0 178 58" fill="none" xmlns="http://www.w3.org/2000/svg">
<g clip-path="url(#clip0_2331_7820)">
<path d="M171.407 0H6.59259C2.9516 0 0 3.24594 0 7.25V50.75C0 54.7541 2.9516 58 6.59259 58H171.407C175.048 58 178 54.7541 178 50.75V7.25C178 3.24594 175.048 0 171.407 0Z" fill="white"/>
<path d="M171.407 1.16C172.876 1.16 174.285 1.80162 175.323 2.94372C176.362 4.08582 176.945 5.63483 176.945 7.25V50.75C176.945 52.3652 176.362 53.9142 175.323 55.0563C174.285 56.1984 172.876 56.84 171.407 56.84H6.59259C5.12388 56.84 3.71533 56.1984 2.67679 55.0563C1.63826 53.9142 1.05482 52.3652 1.05482 50.75V7.25C1.05482 5.63483 1.63826 4.08582 2.67679 2.94372C3.71533 1.80162 5.12388 1.16 6.59259 1.16H171.407ZM171.407 0H6.59259C4.84413 0 3.16728 0.763837 1.93093 2.12348C0.694575 3.48311 0 5.32718 0 7.25V50.75C0 52.6728 0.694575 54.5169 1.93093 55.8765C3.16728 57.2362 4.84413 58 6.59259 58H171.407C173.156 58 174.833 57.2362 176.069 55.8765C177.305 54.5169 178 52.6728 178 50.75V7.25C178 5.32718 177.305 3.48311 176.069 2.12348C174.833 0.763837 173.156 0 171.407 0Z" fill="black"/>
<path d="M62.524 14.8461C62.5456 15.3779 62.4692 15.9089 62.2992 16.4073C62.1293 16.9057 61.8694 17.3611 61.5351 17.7461C61.1605 18.1714 60.7085 18.5049 60.2086 18.7248C59.7088 18.9447 59.1723 19.046 58.6344 19.0221C58.0933 19.0354 57.5556 18.9264 57.0543 18.7019C56.5531 18.4775 56.0991 18.1423 55.7204 17.7171C54.9521 16.8529 54.522 15.6922 54.522 14.4836C54.522 13.275 54.9521 12.1144 55.7204 11.2501C56.3078 10.6189 57.0518 10.1927 57.8588 10.025C58.6657 9.85729 59.4998 9.95562 60.2561 10.3076C60.7316 10.5225 61.1557 10.855 61.4955 11.2791L60.7967 12.0476C60.5349 11.7007 60.2031 11.4258 59.8278 11.2445C59.4524 11.0633 59.0438 10.9808 58.6344 11.0036C58.1175 11.0075 57.6094 11.1506 57.1545 11.4204C56.6996 11.6901 56.3116 12.0783 56.0246 12.5509C55.7376 13.0236 55.5602 13.5664 55.508 14.1319C55.4558 14.6974 55.5303 15.2683 55.725 15.7948C55.9198 16.3213 56.2288 16.7873 56.6252 17.1521C57.0215 17.5169 57.493 17.7694 57.9986 17.8875C58.5042 18.0057 59.0283 17.9858 59.5253 17.8297C60.0223 17.6736 60.4769 17.386 60.8495 16.9921C61.2522 16.5065 61.4858 15.8799 61.5087 15.2231H58.6344V14.1791H62.4713C62.5013 14.4 62.5189 14.6228 62.524 14.8461Z" fill="black" stroke="black" stroke-width="0.411304" stroke-miterlimit="10"/>
<path d="M68.5631 11.2234H65.0031V13.9784H68.2466V15.0224H65.0031V17.7774H68.5631V18.8504H63.9746V10.1504H68.5631V11.2234Z" fill="black" stroke="black" stroke-width="0.411304" stroke-miterlimit="10"/>
<path d="M72.8876 18.8504H71.8723V11.2234H69.6572V10.1504H75.1554V11.2234H72.8876V18.8504Z" fill="black" stroke="black" stroke-width="0.411304" stroke-miterlimit="10"/>
<path d="M79.032 18.8504V10.1504H80.0472V18.8504H79.032Z" fill="black" stroke="black" stroke-width="0.411304" stroke-miterlimit="10"/>
<path d="M84.5563 18.8504H83.541V11.2234H81.3259V10.1504H86.7582V11.2234H84.5563V18.8504Z" fill="black" stroke="black" stroke-width="0.411304" stroke-miterlimit="10"/>
<path d="M97.0561 17.7199C96.6753 18.139 96.2231 18.4715 95.7254 18.6984C95.2277 18.9252 94.6942 19.042 94.1554 19.042C93.6166 19.042 93.0831 18.9252 92.5854 18.6984C92.0877 18.4715 91.6355 18.139 91.2546 17.7199C90.5093 16.8485 90.0942 15.6972 90.0942 14.5009C90.0942 13.3045 90.5093 12.1533 91.2546 11.2819C91.6273 10.851 92.078 10.5108 92.5777 10.2835C93.0773 10.0562 93.6148 9.94683 94.1554 9.96239C94.6952 9.953 95.231 10.0652 95.7299 10.2922C96.2287 10.5191 96.6801 10.8559 97.0561 11.2819C97.4353 11.706 97.7333 12.2094 97.9326 12.7622C98.1318 13.3151 98.2284 13.9063 98.2164 14.5009C98.2337 15.0962 98.1397 15.6891 97.9401 16.2428C97.7405 16.7965 97.4396 17.2993 97.0561 17.7199ZM92.0062 16.9949C92.2871 17.3079 92.6217 17.5565 92.9906 17.7261C93.3596 17.8957 93.7555 17.9831 94.1554 17.9831C94.5553 17.9831 94.9512 17.8957 95.3201 17.7261C95.6891 17.5565 96.0237 17.3079 96.3046 16.9949C96.8735 16.315 97.1893 15.4248 97.1893 14.5009C97.1893 13.5769 96.8735 12.6868 96.3046 12.0069C96.0237 11.6939 95.6891 11.4453 95.3201 11.2757C94.9512 11.106 94.5553 11.0187 94.1554 11.0187C93.7555 11.0187 93.3596 11.106 92.9906 11.2757C92.6217 11.4453 92.2871 11.6939 92.0062 12.0069C91.4373 12.6868 91.1215 13.5769 91.1215 14.5009C91.1215 15.4248 91.4373 16.315 92.0062 16.9949Z" fill="black" stroke="black" stroke-width="0.411304" stroke-miterlimit="10"/>
<path d="M99.6533 18.8504V10.1504H100.88L104.73 16.9219V15.2399V10.1504H105.745V18.8504H104.69L100.669 11.7599V13.4274V18.8504H99.6533Z" fill="black" stroke="black" stroke-width="0.411304" stroke-miterlimit="10"/>
<path d="M89.844 31.5371C88.733 31.54 87.6479 31.905 86.7256 32.5862C85.8034 33.2673 85.0855 34.2339 84.6628 35.3637C84.2401 36.4934 84.1315 37.7357 84.3508 38.9334C84.5701 40.131 85.1074 41.2303 85.8947 42.0921C86.6821 42.954 87.6842 43.5397 88.7743 43.7752C89.8644 44.0107 90.9935 43.8855 92.0188 43.4153C93.0442 42.9452 93.9197 42.1512 94.5347 41.1338C95.1498 40.1164 95.4766 38.9213 95.474 37.6996C95.4848 36.8846 95.3463 36.0756 95.0668 35.3206C94.7874 34.5657 94.3726 33.8804 93.8473 33.3054C93.322 32.7304 92.6969 32.2775 92.0091 31.9737C91.3213 31.6699 90.585 31.5214 89.844 31.5371ZM89.844 41.4406C89.163 41.493 88.4836 41.3189 87.8938 40.9409C87.3041 40.563 86.8314 39.9986 86.5371 39.3213C86.2429 38.644 86.1408 37.885 86.244 37.143C86.3472 36.401 86.651 35.7103 87.1159 35.1607C87.5808 34.6111 88.1853 34.228 88.8508 34.0612C89.5163 33.8944 90.2121 33.9517 90.8476 34.2255C91.4831 34.4993 92.0291 34.9771 92.4144 35.5967C92.7998 36.2162 93.0067 36.949 93.0084 37.6996C93.0296 38.1752 92.9641 38.6507 92.8155 39.098C92.667 39.5453 92.4386 39.9554 92.1436 40.3041C91.8487 40.6527 91.4933 40.9329 91.0983 41.1281C90.7034 41.3233 90.2769 41.4296 89.844 41.4406ZM77.5554 31.5371C76.4445 31.54 75.3593 31.905 74.437 32.5862C73.5148 33.2673 72.7969 34.2339 72.3742 35.3637C71.9515 36.4934 71.8429 37.7357 72.0622 38.9334C72.2815 40.131 72.8188 41.2303 73.6062 42.0921C74.3935 42.954 75.3956 43.5397 76.4857 43.7752C77.5758 44.0107 78.7049 43.8855 79.7302 43.4153C80.7556 42.9452 81.6311 42.1512 82.2462 41.1338C82.8612 40.1164 83.188 38.9213 83.1854 37.6996C83.1962 36.8846 83.0577 36.0756 82.7782 35.3206C82.4988 34.5657 82.084 33.8804 81.5587 33.3054C81.0334 32.7304 80.4083 32.2775 79.7205 31.9737C79.0327 31.6699 78.2964 31.5214 77.5554 31.5371ZM77.5554 41.4406C76.8745 41.493 76.195 41.3189 75.6052 40.9409C75.0155 40.563 74.5428 39.9986 74.2485 39.3213C73.9543 38.644 73.8522 37.885 73.9554 37.143C74.0586 36.401 74.3624 35.7103 74.8273 35.1607C75.2922 34.6111 75.8967 34.228 76.5622 34.0612C77.2277 33.8944 77.9235 33.9517 78.559 34.2255C79.1945 34.4993 79.7405 34.9771 80.1258 35.5967C80.5112 36.2162 80.7181 36.949 80.7198 37.6996C80.7411 38.1752 80.6755 38.6507 80.527 39.098C80.3784 39.5453 80.15 39.9554 79.855 40.3041C79.5601 40.6527 79.2047 40.9329 78.8097 41.1281C78.4148 41.3233 77.9883 41.4296 77.5554 41.4406ZM62.9462 33.4366V36.0466H68.6422C68.5529 37.2759 68.0882 38.4359 67.3237 39.3381C66.7523 39.9783 66.0651 40.4794 65.3065 40.8091C64.5479 41.1389 63.7348 41.2898 62.9198 41.2521C61.2413 41.2521 59.6315 40.5188 58.4446 39.2136C57.2577 37.9083 56.5909 36.138 56.5909 34.2921C56.5909 32.4462 57.2577 30.6759 58.4446 29.3706C59.6315 28.0654 61.2413 27.3321 62.9198 27.3321C64.529 27.3058 66.0828 27.9778 67.2446 29.2026L68.9191 27.3611C68.1332 26.5063 67.2001 25.8326 66.1745 25.3795C65.1489 24.9263 64.0513 24.7028 62.9462 24.7221C61.774 24.6719 60.6047 24.8825 59.5083 25.3412C58.4119 25.7999 57.411 26.4973 56.5655 27.3916C55.7201 28.2858 55.0475 29.3586 54.5881 30.5456C54.1287 31.7326 53.8918 33.0093 53.8918 34.2993C53.8918 35.5894 54.1287 36.8661 54.5881 38.0531C55.0475 39.2401 55.7201 40.3129 56.5655 41.2071C57.411 42.1014 58.4119 42.7988 59.5083 43.2575C60.6047 43.7162 61.774 43.9268 62.9462 43.8766C64.0741 43.9261 65.1987 43.7127 66.2463 43.2504C67.2939 42.7881 68.2407 42.0873 69.0245 41.1941C70.4092 39.5214 71.1469 37.3214 71.0814 35.0606C71.0862 34.5164 71.0464 33.9729 70.9628 33.4366H62.9462ZM122.688 35.4666C122.344 34.3541 121.701 33.3826 120.844 32.6809C119.987 31.9792 118.957 31.5803 117.889 31.5371C117.168 31.5355 116.454 31.6967 115.791 32.0106C115.129 32.3244 114.532 32.7844 114.038 33.362C113.544 33.9395 113.162 34.6225 112.918 35.3686C112.673 36.1146 112.57 36.908 112.615 37.6996C112.604 39.0232 112.982 40.3154 113.693 41.383C114.405 42.4506 115.412 43.2364 116.563 43.6231C117.714 44.0097 118.948 43.9764 120.081 43.5282C121.213 43.0799 122.183 42.2408 122.846 41.1361L120.935 39.6861C120.65 40.2085 120.245 40.6399 119.762 40.9375C119.279 41.2351 118.733 41.3885 118.179 41.3826C117.607 41.4085 117.042 41.2438 116.557 40.9099C116.073 40.5761 115.691 40.0888 115.463 39.5121L122.965 36.1046L122.688 35.4666ZM115.041 37.5256C115.014 37.0752 115.069 36.6235 115.203 36.1968C115.337 35.7702 115.547 35.3773 115.821 35.0411C116.095 34.7048 116.427 34.4321 116.798 34.2387C117.169 34.0454 117.571 33.9354 117.981 33.9151C118.406 33.8866 118.829 33.9966 119.197 34.2313C119.565 34.466 119.863 34.815 120.051 35.2346L115.041 37.5256ZM108.949 43.4996H111.415V25.3746H108.949V43.4996ZM104.915 32.9146H104.822C104.454 32.4533 103.999 32.0849 103.49 31.8347C102.98 31.5844 102.427 31.4582 101.869 31.4646C100.428 31.5414 99.0692 32.225 98.0741 33.3736C97.0791 34.5223 96.524 36.0479 96.524 37.6343C96.524 39.2208 97.0791 40.7464 98.0741 41.8951C99.0692 43.0437 100.428 43.7273 101.869 43.8041C102.428 43.8164 102.982 43.6929 103.493 43.4422C104.004 43.1915 104.457 42.82 104.822 42.3541H104.915V43.2386C104.915 45.6021 103.768 46.8636 101.922 46.8636C101.305 46.8487 100.706 46.6326 100.202 46.2428C99.6968 45.8529 99.3088 45.3069 99.0868 44.6741L96.9508 45.6456C97.3457 46.7364 98.0323 47.6696 98.9198 48.3221C99.8074 48.9745 100.854 49.3154 101.922 49.2996C104.809 49.2996 107.196 47.4291 107.196 42.8761V31.8996H104.915V32.9146ZM102.08 41.4406C101.216 41.3814 100.405 40.9622 99.8124 40.2685C99.2197 39.5748 98.8897 38.6587 98.8897 37.7068C98.8897 36.755 99.2197 35.8389 99.8124 35.1452C100.405 34.4515 101.216 34.0323 102.08 33.9731C102.502 33.9931 102.916 34.1064 103.298 34.3061C103.68 34.5058 104.021 34.7878 104.301 35.1355C104.582 35.4832 104.796 35.8894 104.931 36.3299C105.065 36.7704 105.118 37.2362 105.086 37.6996C105.122 38.1646 105.072 38.6328 104.939 39.0759C104.805 39.5189 104.592 39.9277 104.311 40.2774C104.03 40.6271 103.687 40.9105 103.304 41.1104C102.92 41.3103 102.504 41.4227 102.08 41.4406ZM134.238 25.3746H128.332V43.4996H130.797V36.6266H134.238C134.941 36.6821 135.647 36.5778 136.311 36.3203C136.976 36.0627 137.585 35.6573 138.1 35.1295C138.616 34.6016 139.027 33.9626 139.309 33.2522C139.59 32.5418 139.735 31.7754 139.735 31.0006C139.735 30.2258 139.59 29.4594 139.309 28.749C139.027 28.0386 138.616 27.3996 138.1 26.8717C137.585 26.3439 136.976 25.9385 136.311 25.6809C135.647 25.4234 134.941 25.3191 134.238 25.3746ZM134.238 34.0746H130.797V27.8976H134.291C134.662 27.8976 135.029 27.9779 135.371 28.1338C135.713 28.2897 136.024 28.5183 136.286 28.8064C136.548 29.0946 136.756 29.4367 136.898 29.8131C137.04 30.1896 137.113 30.5931 137.113 31.0006C137.113 31.4081 137.04 31.8116 136.898 32.1881C136.756 32.5645 136.548 32.9066 136.286 33.1947C136.024 33.4829 135.713 33.7115 135.371 33.8674C135.029 34.0233 134.662 34.1036 134.291 34.1036L134.238 34.0746ZM149.454 31.4791C148.556 31.4182 147.662 31.6481 146.881 32.1403C146.101 32.6325 145.469 33.3655 145.064 34.2486L147.239 35.2491C147.459 34.8132 147.789 34.4567 148.189 34.2225C148.589 33.9884 149.042 33.8866 149.494 33.9296C149.807 33.8894 150.124 33.9181 150.427 34.0142C150.729 34.1102 151.012 34.2716 151.257 34.4889C151.503 34.7062 151.706 34.9751 151.856 35.2799C152.006 35.5847 152.1 35.9192 152.131 36.2641V36.4381C151.338 35.9798 150.455 35.7409 149.56 35.7421C147.213 35.7421 144.813 37.1921 144.813 39.8311C144.836 40.392 144.962 40.9421 145.182 41.4486C145.402 41.9552 145.713 42.4079 146.095 42.7798C146.478 43.1518 146.924 43.4354 147.409 43.6138C147.893 43.7923 148.405 43.8619 148.914 43.8186C149.532 43.8562 150.149 43.7122 150.7 43.4014C151.252 43.0905 151.718 42.624 152.052 42.0496H152.131V43.4996H154.504V36.5251C154.504 33.3496 152.315 31.5081 149.507 31.5081L149.454 31.4791ZM149.151 41.4116C148.347 41.4116 147.226 40.9621 147.226 39.8746C147.226 38.4246 148.624 37.9316 149.863 37.9316C150.646 37.9103 151.42 38.1207 152.104 38.5406C152.022 39.328 151.682 40.0558 151.149 40.589C150.615 41.1223 149.924 41.4248 149.204 41.4406L149.151 41.4116ZM163.154 31.8996L160.332 39.7586H160.253L157.326 31.8996H154.689L159.079 42.8906L156.574 48.9951H159.145L165.896 31.8996H163.154ZM141.002 43.4996H143.455V25.3746H141.002V43.4996Z" fill="black"/>
<path d="M13.7653 10.9335C13.3308 11.4985 13.1091 12.2247 13.1456 12.9635V45.0375C13.1007 45.7776 13.3234 46.5072 13.7653 47.0675L13.8576 47.1835L30.194 29.218V28.783L13.8576 10.832L13.7653 10.9335Z" fill="url(#paint0_linear_2331_7820)"/>
<path d="M35.6 35.2069L30.1941 29.2184V28.7834L35.6 22.7949L35.7187 22.8819L42.1926 26.9129C44.0385 28.0584 44.0385 29.9434 42.1926 31.1034L35.7451 35.1344L35.6 35.2069Z" fill="url(#paint1_linear_2331_7820)"/>
<path d="M35.7585 35.119L30.1944 29L13.7656 47.067C14.1382 47.4317 14.6151 47.6415 15.1136 47.6601C15.6121 47.6786 16.1008 47.5047 16.495 47.1685L35.7585 35.119Z" fill="url(#paint2_linear_2331_7820)"/>
<path d="M35.7585 22.8828L16.495 10.8478C16.1034 10.507 15.6151 10.3288 15.1159 10.3447C14.6167 10.3606 14.1386 10.5696 13.7656 10.9348L30.1944 29.0018L35.7585 22.8828Z" fill="url(#paint3_linear_2331_7820)"/>
<path opacity="0.2" d="M35.6003 34.9883L16.495 46.9508C16.1152 47.266 15.6523 47.4365 15.1764 47.4365C14.7006 47.4365 14.2377 47.266 13.8579 46.9508L13.7656 47.0523L13.8579 47.1683C14.2377 47.4835 14.7006 47.654 15.1764 47.654C15.6523 47.654 16.1152 47.4835 16.495 47.1683L35.7585 35.1188L35.6003 34.9883Z" fill="black"/>
<path opacity="0.12" d="M13.7652 46.8629C13.3417 46.2877 13.1341 45.5563 13.1851 44.8184V45.0359C13.1402 45.7759 13.3629 46.5055 13.8048 47.0659L13.8971 46.9644L13.7652 46.8629Z" fill="black"/>
<path opacity="0.12" d="M42.1927 30.885L35.6001 34.9885L35.7188 35.119L42.1927 31.088C42.5748 30.9103 42.9063 30.6226 43.1523 30.2551C43.3983 29.8877 43.5496 29.4541 43.5903 29C43.5079 29.4126 43.3385 29.7982 43.0957 30.1256C42.8529 30.453 42.5436 30.7131 42.1927 30.885Z" fill="black"/>
<path opacity="0.25" d="M16.4945 11.048L42.1925 27.114C42.5434 27.2859 42.8527 27.546 43.0955 27.8734C43.3382 28.2009 43.5077 28.5864 43.5901 28.999C43.5494 28.545 43.398 28.1114 43.1521 27.7439C42.9061 27.3765 42.5746 27.0887 42.1925 26.911L16.4945 10.845C14.6618 9.68504 13.1455 10.642 13.1455 12.962V13.1795C13.1851 10.8595 14.6618 9.90254 16.4945 11.048Z" fill="white"/>
</g>
<defs>
<linearGradient id="paint0_linear_2331_7820" x1="28.7436" y1="12.63" x2="4.52214" y2="34.6552" gradientUnits="userSpaceOnUse">
<stop stop-color="#00A0FF"/>
<stop offset="0.01" stop-color="#00A1FF"/>
<stop offset="0.26" stop-color="#00BEFF"/>
<stop offset="0.51" stop-color="#00D2FF"/>
<stop offset="0.76" stop-color="#00DFFF"/>
<stop offset="1" stop-color="#00E3FF"/>
</linearGradient>
<linearGradient id="paint1_linear_2331_7820" x1="44.6055" y1="29.0009" x2="12.7105" y2="29.0009" gradientUnits="userSpaceOnUse">
<stop stop-color="#FFE000"/>
<stop offset="0.41" stop-color="#FFBD00"/>
<stop offset="0.78" stop-color="#FFA500"/>
<stop offset="1" stop-color="#FF9C00"/>
</linearGradient>
<linearGradient id="paint2_linear_2331_7820" x1="32.7391" y1="32.335" x2="-0.112996" y2="62.195" gradientUnits="userSpaceOnUse">
<stop stop-color="#FF3A44"/>
<stop offset="1" stop-color="#C31162"/>
</linearGradient>
<linearGradient id="paint3_linear_2331_7820" x1="9.62548" y1="0.262837" x2="24.2912" y2="13.5987" gradientUnits="userSpaceOnUse">
<stop stop-color="#32A071"/>
<stop offset="0.07" stop-color="#2DA771"/>
<stop offset="0.48" stop-color="#15CF74"/>
<stop offset="0.8" stop-color="#06E775"/>
<stop offset="1" stop-color="#00F076"/>
</linearGradient>
<clipPath id="clip0_2331_7820">
<rect width="178" height="58" fill="white"/>
</clipPath>
</defs>
</svg>
