<svg width="178" height="58" viewBox="0 0 178 58" fill="none" xmlns="http://www.w3.org/2000/svg">
<g clip-path="url(#clip0_2331_7821)">
<path d="M163.825 0.0001885H14.1828C13.6373 0.0001885 13.0984 0.0001885 12.5544 0.0030885C12.099 0.0059885 11.6472 0.014413 11.1875 0.0215035C10.1886 0.0329611 9.19215 0.118619 8.20667 0.277733C7.22258 0.440311 6.26931 0.746816 5.37912 1.18688C4.49001 1.63067 3.67761 2.20733 2.97138 2.89594C2.26145 3.58261 1.66966 4.37631 1.21878 5.24652C0.766657 6.115 0.453152 7.04565 0.289095 8.00633C0.123479 8.96581 0.0343588 9.93634 0.0225356 10.9092C0.00873161 11.3538 0.00727386 11.7999 0 12.2445V45.7602C0.00727386 46.2104 0.00873161 46.6465 0.0225356 47.0969C0.0343624 48.0698 0.123482 49.0402 0.289095 49.9997C0.452699 50.9609 0.766222 51.8921 1.21878 52.7609C1.66946 53.6283 2.26132 54.4188 2.97138 55.1016C3.67493 55.7933 4.48786 56.3704 5.37912 56.8107C6.26931 57.252 7.22247 57.5603 8.20667 57.7254C9.19232 57.8833 10.1887 57.9689 11.1875 57.9818C11.6472 57.9916 12.099 57.9973 12.5544 57.9973C13.0984 58.0002 13.6374 58.0002 14.1828 58.0002H163.825C164.36 58.0002 164.903 58.0002 165.438 57.9973C165.891 57.9973 166.356 57.9916 166.809 57.9818C167.806 57.9696 168.8 57.8839 169.784 57.7254C170.771 57.5592 171.728 57.2509 172.622 56.8107C173.513 56.3701 174.325 55.7931 175.028 55.1016C175.736 54.4161 176.329 53.6262 176.786 52.7609C177.235 51.8915 177.545 50.9604 177.707 49.9997C177.872 49.0401 177.965 48.0698 177.983 47.0969C177.988 46.6465 177.988 46.2104 177.988 45.7602C178 45.2334 178 44.7095 178 44.1741V13.8276C178 13.2966 178 12.7698 177.988 12.2445C177.988 11.7999 177.988 11.3538 177.983 10.9092C177.965 9.9362 177.872 8.96588 177.707 8.00628C177.545 7.04615 177.234 6.11557 176.786 5.24646C175.867 3.50222 174.411 2.08243 172.622 1.18675C171.728 0.747761 170.771 0.441337 169.784 0.277602C168.801 0.117788 167.806 0.0320998 166.809 0.0213005C166.356 0.0142245 165.891 0.0057275 165.438 0.0029C164.903 0 164.36 0 163.825 0V0.0001885Z" fill="black"/>
<path d="M12.5614 56.732C12.1082 56.732 11.6659 56.7264 11.2163 56.7165C10.2848 56.7047 9.35545 56.6256 8.43593 56.48C7.57852 56.3361 6.74793 56.0683 5.97154 55.6856C5.20226 55.306 4.50063 54.8083 3.8935 54.2115C3.27759 53.6217 2.76481 52.9377 2.3755 52.1866C1.98189 51.4305 1.70949 50.6201 1.56779 49.7836C1.41476 48.8848 1.33196 47.9759 1.32012 47.0649C1.31069 46.7591 1.29834 45.7409 1.29834 45.7409V12.2451C1.29834 12.2451 1.31149 11.2425 1.32019 10.948C1.33153 10.0384 1.41385 9.13093 1.56642 8.23349C1.70838 7.39469 1.98099 6.58197 2.37481 5.82344C2.7627 5.0728 3.27263 4.38828 3.88483 3.79642C4.49634 3.19893 5.20023 2.69866 5.97081 2.31384C6.74541 1.93232 7.57444 1.66644 8.43012 1.52512C9.35266 1.37804 10.2852 1.29853 11.2199 1.28724L12.5621 1.26953H165.43L166.788 1.28795C167.715 1.29868 168.639 1.37748 169.553 1.5237C170.417 1.6668 171.255 1.93452 172.038 2.31808C173.582 3.09361 174.838 4.32057 175.63 5.82698C176.018 6.58027 176.286 7.38637 176.427 8.21792C176.581 9.12272 176.667 10.0373 176.685 10.9544C176.689 11.365 176.689 11.8061 176.689 12.2451C176.701 12.7888 176.701 13.3064 176.701 13.8282V44.1747C176.701 44.7015 176.701 45.2156 176.689 45.7338C176.689 46.2053 176.689 46.6373 176.684 47.0818C176.666 47.9826 176.581 48.8808 176.429 49.7694C176.291 50.612 176.02 51.4287 175.626 52.1909C175.234 52.9339 174.724 53.612 174.115 54.2002C173.508 54.8002 172.805 55.3008 172.034 55.6828C171.253 56.0685 170.416 56.3373 169.553 56.48C168.633 56.6264 167.704 56.7055 166.772 56.7165C166.337 56.7264 165.88 56.732 165.437 56.732L163.825 56.7349L12.5614 56.732Z" fill="white"/>
<path d="M37.1823 28.842C37.1989 27.5834 37.5419 26.3494 38.1792 25.2548C38.8166 24.1602 39.7276 23.2405 40.8275 22.5813C40.1288 21.6085 39.2069 20.8079 38.1353 20.2431C37.0636 19.6784 35.8715 19.365 34.6539 19.3278C32.0563 19.062 29.5382 20.843 28.2145 20.843C26.8652 20.843 24.8272 19.3542 22.6327 19.3982C21.2132 19.4429 19.8298 19.8453 18.6172 20.5661C17.4047 21.287 16.4044 22.3017 15.7138 23.5114C12.7223 28.5603 14.9537 35.9806 17.8194 40.0617C19.2531 42.0602 20.9288 44.2925 23.1214 44.2133C25.2669 44.1266 26.0683 42.8796 28.6581 42.8796C31.224 42.8796 31.9758 44.2133 34.2128 44.163C36.5151 44.1266 37.9657 42.1557 39.3492 40.1383C40.3793 38.7144 41.172 37.1406 41.6979 35.4753C40.3604 34.9238 39.2189 34.0007 38.4159 32.8211C37.6129 31.6415 37.1839 30.2576 37.1823 28.842Z" fill="black"/>
<path d="M32.9572 16.6442C34.2125 15.1752 34.831 13.2871 34.6812 11.3809C32.7634 11.5772 30.9918 12.4707 29.7196 13.8833C29.0975 14.5734 28.6211 15.3762 28.3175 16.2459C28.014 17.1156 27.8892 18.0351 27.9504 18.9518C28.9097 18.9614 29.8587 18.7587 30.7259 18.359C31.5932 17.9593 32.3561 17.373 32.9572 16.6442Z" fill="black"/>
<path d="M62.9238 39.356H55.8828L54.192 44.2229H51.2097L57.8788 26.2168H60.9772L67.6463 44.2229H64.6132L62.9238 39.356ZM56.6121 37.1102H62.1932L59.4419 29.2117H59.3648L56.6121 37.1102Z" fill="black"/>
<path d="M82.0494 37.6576C82.0494 41.7371 79.8095 44.3581 76.4292 44.3581C75.5729 44.4018 74.7213 44.2095 73.9719 43.8033C73.2225 43.3971 72.6056 42.7934 72.1918 42.0613H72.1279V48.5637H69.3635V31.0929H72.0393V33.2764H72.0901C72.5229 32.5478 73.1502 31.9472 73.9053 31.5386C74.6604 31.1299 75.5151 30.9284 76.3783 30.9555C79.7964 30.9556 82.0494 33.5893 82.0494 37.6576ZM79.2081 37.6576C79.2081 34.9997 77.799 33.2523 75.6491 33.2523C73.537 33.2523 72.1163 35.0365 72.1163 37.6576C72.1163 40.3027 73.537 42.0741 75.6491 42.0741C77.799 42.0741 79.208 40.3395 79.208 37.6576H79.2081Z" fill="black"/>
<path d="M96.8724 37.6576C96.8724 41.7371 94.6317 44.3581 91.2514 44.3581C90.3952 44.4018 89.5436 44.2095 88.7942 43.8033C88.0448 43.3971 87.4279 42.7934 87.0141 42.0613H86.9502V48.5637H84.1858V31.0929H86.8615V33.2764H86.9124C87.3452 32.5478 87.9725 31.9472 88.7276 31.5386C89.4827 31.1299 90.3373 30.9284 91.2006 30.9555C94.6187 30.9556 96.8724 33.5893 96.8724 37.6576ZM94.0303 37.6576C94.0303 34.9997 92.6213 33.2523 90.4714 33.2523C88.3593 33.2523 86.9386 35.0365 86.9386 37.6576C86.9386 40.3027 88.3593 42.0741 90.4714 42.0741C92.6213 42.0741 94.0303 40.3395 94.0303 37.6576Z" fill="black"/>
<path d="M106.668 39.2054C106.873 40.991 108.652 42.1634 111.084 42.1634C113.414 42.1634 115.09 40.9909 115.09 39.3809C115.09 37.9833 114.079 37.1465 111.685 36.573L109.291 36.0108C105.899 35.2122 104.325 33.6659 104.325 31.1567C104.325 28.05 107.102 25.916 111.044 25.916C114.949 25.916 117.625 28.05 117.715 31.1567H114.924C114.757 29.3598 113.234 28.2751 111.007 28.2751C108.78 28.2751 107.256 29.3725 107.256 30.9698C107.256 32.2428 108.229 32.9919 110.61 33.5653L112.645 34.0524C116.435 34.9261 118.008 36.4101 118.008 39.0439C118.008 42.4125 115.257 44.5224 110.879 44.5224C106.782 44.5224 104.017 42.4621 103.838 39.2053L106.668 39.2054Z" fill="black"/>
<path d="M123.977 27.9883V31.095H126.538V33.229H123.977V40.4662C123.977 41.5905 124.49 42.1145 125.616 42.1145C125.92 42.1093 126.223 42.0885 126.525 42.0521V44.1733C126.019 44.2655 125.505 44.3072 124.99 44.2979C122.263 44.2979 121.2 43.2996 121.2 40.7536V33.229H119.242V31.095H121.2V27.9883H123.977Z" fill="black"/>
<path d="M128.02 37.6597C128.02 33.5292 130.516 30.9336 134.407 30.9336C138.312 30.9336 140.796 33.5291 140.796 37.6597C140.796 41.8015 138.325 44.3857 134.407 44.3857C130.491 44.3857 128.02 41.8015 128.02 37.6597ZM137.979 37.6597C137.979 34.8262 136.647 33.1539 134.407 33.1539C132.167 33.1539 130.835 34.839 130.835 37.6597C130.835 40.5044 132.167 42.164 134.407 42.164C136.647 42.164 137.979 40.5044 137.979 37.6597H137.979Z" fill="black"/>
<path d="M143.075 31.0928H145.712V33.3272H145.775C145.954 32.6294 146.373 32.0126 146.963 31.5807C147.553 31.1488 148.278 30.928 149.015 30.9554C149.333 30.9543 149.651 30.988 149.962 31.056V33.5765C149.56 33.4567 149.14 33.4017 148.72 33.4136C148.318 33.3977 147.918 33.4668 147.546 33.6159C147.175 33.7651 146.841 33.9909 146.567 34.2779C146.293 34.5648 146.086 34.9061 145.961 35.2783C145.835 35.6504 145.794 36.0447 145.839 36.434V44.2206H143.075L143.075 31.0928Z" fill="black"/>
<path d="M162.707 40.3671C162.335 42.7502 159.954 44.3857 156.908 44.3857C152.991 44.3857 150.559 41.827 150.559 37.722C150.559 33.6042 153.004 30.9336 156.792 30.9336C160.518 30.9336 162.861 33.4286 162.861 37.409V38.3323H153.349V38.4951C153.305 38.9783 153.368 39.465 153.531 39.9229C153.695 40.3809 153.957 40.7996 154.3 41.1513C154.643 41.503 155.058 41.7796 155.519 41.9628C155.98 42.1459 156.475 42.2314 156.972 42.2136C157.625 42.2732 158.281 42.1257 158.841 41.7931C159.402 41.4604 159.837 40.9602 160.082 40.3671L162.707 40.3671ZM153.362 36.449H160.095C160.12 36.0146 160.053 35.5798 159.897 35.1721C159.741 34.7643 159.501 34.3923 159.191 34.0795C158.88 33.7666 158.507 33.5196 158.094 33.354C157.682 33.1884 157.238 33.1077 156.792 33.1171C156.342 33.1145 155.896 33.1988 155.479 33.3652C155.063 33.5315 154.684 33.7767 154.365 34.0864C154.046 34.3962 153.793 34.7645 153.621 35.17C153.449 35.5755 153.361 36.0102 153.362 36.449V36.449Z" fill="black"/>
<path d="M56.2665 12.6622C56.8461 12.6216 57.4276 12.707 57.9692 12.912C58.5108 13.1171 58.999 13.4368 59.3985 13.8481C59.7981 14.2593 60.099 14.7519 60.2796 15.2902C60.4601 15.8286 60.5159 16.3993 60.4428 16.9612C60.4428 19.7252 58.9103 21.3141 56.2665 21.3141H53.0605V12.6622H56.2665ZM54.4391 20.0905H56.1125C56.5267 20.1146 56.9411 20.0485 57.3257 19.8968C57.7102 19.7451 58.0553 19.5117 58.3357 19.2136C58.616 18.9156 58.8247 18.5603 58.9465 18.1737C59.0683 17.7871 59.1001 17.3789 59.0396 16.9788C59.0957 16.5803 59.0606 16.1746 58.937 15.7909C58.8134 15.4071 58.6042 15.0548 58.3244 14.7591C58.0447 14.4634 57.7013 14.2316 57.3189 14.0805C56.9365 13.9293 56.5245 13.8625 56.1125 13.8848H54.4391V20.0905Z" fill="black"/>
<path d="M62 18.044C61.9579 17.6149 62.0083 17.182 62.1479 16.773C62.2875 16.364 62.5132 15.9879 62.8106 15.669C63.108 15.35 63.4706 15.0951 63.8749 14.9207C64.2793 14.7463 64.7166 14.6563 65.1588 14.6562C65.601 14.6563 66.0383 14.7463 66.4427 14.9207C66.8471 15.0951 67.2096 15.35 67.507 15.669C67.8044 15.9879 68.0301 16.364 68.1697 16.773C68.3093 17.182 68.3597 17.6149 68.3176 18.044C68.3605 18.4735 68.3107 18.907 68.1715 19.3167C68.0323 19.7264 67.8067 20.1031 67.5092 20.4227C67.2117 20.7423 66.8489 20.9977 66.4441 21.1725C66.0393 21.3472 65.6015 21.4375 65.1588 21.4375C64.7161 21.4375 64.2783 21.3472 63.8735 21.1725C63.4687 20.9977 63.1059 20.7423 62.8084 20.4227C62.5109 20.1031 62.2853 19.7264 62.1461 19.3167C62.0069 18.907 61.9571 18.4735 62 18.044ZM66.9579 18.044C66.9579 16.6287 66.3056 15.801 65.161 15.801C64.012 15.801 63.3656 16.6287 63.3656 18.044C63.3656 19.4707 64.012 20.2919 65.161 20.2919C66.3057 20.2919 66.9579 19.465 66.9579 18.044H66.9579Z" fill="black"/>
<path d="M76.715 21.3144H75.3437L73.9594 16.5056H73.8548L72.4762 21.3144H71.118L69.2717 14.7852H70.6125L71.8124 19.7674H71.9112L73.2883 14.7852H74.5564L75.9335 19.7674H76.0381L77.2322 14.7852H78.5541L76.715 21.3144Z" fill="black"/>
<path d="M80.1072 14.7848H81.3797V15.822H81.4785C81.646 15.4495 81.9287 15.1372 82.287 14.9287C82.6453 14.7202 83.0614 14.6258 83.4773 14.6588C83.8032 14.6349 84.1305 14.6828 84.4348 14.7989C84.7391 14.9151 85.0128 15.0965 85.2354 15.3297C85.4581 15.5629 85.624 15.842 85.721 16.1462C85.818 16.4505 85.8435 16.7721 85.7957 17.0872V21.314H84.4738V17.4108C84.4738 16.3616 84.0061 15.8397 83.0284 15.8397C82.8072 15.8297 82.5863 15.8664 82.3809 15.9474C82.1755 16.0283 81.9906 16.1516 81.8387 16.3088C81.6868 16.4659 81.5715 16.6532 81.5008 16.8579C81.4301 17.0625 81.4056 17.2796 81.4291 17.4943V21.3141H80.1072L80.1072 14.7848Z" fill="black"/>
<path d="M87.9019 12.2344H89.2238V21.3124H87.9019V12.2344Z" fill="black"/>
<path d="M91.0613 18.0441C91.0192 17.615 91.0696 17.1821 91.2092 16.773C91.3488 16.364 91.5746 15.988 91.8721 15.669C92.1695 15.35 92.5321 15.0951 92.9365 14.9207C93.3409 14.7463 93.7782 14.6562 94.2204 14.6562C94.6626 14.6562 95.1 14.7463 95.5044 14.9207C95.9088 15.0951 96.2713 15.35 96.5688 15.669C96.8662 15.988 97.092 16.364 97.2316 16.773C97.3712 17.1821 97.4216 17.615 97.3795 18.0441C97.4224 18.4737 97.3726 18.9072 97.2333 19.3168C97.0941 19.7265 96.8684 20.1032 96.5709 20.4228C96.2734 20.7424 95.9106 20.9978 95.5058 21.1726C95.101 21.3473 94.6631 21.4376 94.2204 21.4376C93.7777 21.4376 93.3399 21.3473 92.9351 21.1726C92.5303 20.9978 92.1674 20.7424 91.8699 20.4228C91.5724 20.1032 91.3468 19.7265 91.2075 19.3168C91.0682 18.9072 91.0184 18.4737 91.0613 18.0441ZM96.0191 18.0441C96.0191 16.6288 95.3669 15.8012 94.2222 15.8012C93.0732 15.8012 92.4268 16.6288 92.4268 18.0441C92.4268 19.4708 93.0732 20.2921 94.2222 20.2921C95.3669 20.292 96.0191 19.4651 96.0191 18.0441H96.0191Z" fill="black"/>
<path d="M98.7715 19.465C98.7715 18.2897 99.6692 17.6122 101.263 17.5159L103.077 17.4139V16.8504C103.077 16.1608 102.609 15.7714 101.706 15.7714C100.968 15.7714 100.457 16.0354 100.31 16.4971H99.0301C99.1651 15.3756 100.247 14.6562 101.767 14.6562C103.446 14.6562 104.393 15.4712 104.393 16.8504V21.3115H103.121V20.3939H103.016C102.804 20.7231 102.506 20.9914 102.152 21.1715C101.799 21.3516 101.403 21.4371 101.004 21.4191C100.723 21.4476 100.439 21.4184 100.17 21.3332C99.901 21.2481 99.6534 21.109 99.4431 20.9249C99.2327 20.7408 99.0643 20.5158 98.9486 20.2643C98.8329 20.0129 98.7726 19.7406 98.7715 19.465ZM103.077 18.9071V18.3612L101.441 18.4632C100.519 18.5234 100.101 18.8292 100.101 19.4048C100.101 19.9925 100.624 20.3344 101.343 20.3344C101.553 20.3552 101.766 20.3345 101.969 20.2735C102.171 20.2124 102.358 20.1124 102.52 19.9792C102.682 19.846 102.815 19.6825 102.91 19.4983C103.006 19.3141 103.063 19.1131 103.077 18.9071Z" fill="black"/>
<path d="M106.13 18.045C106.13 15.9819 107.218 14.6749 108.911 14.6749C109.329 14.6561 109.745 14.7538 110.108 14.9567C110.472 15.1595 110.769 15.4591 110.965 15.8204H111.064V12.2344H112.385V21.3124H111.119V20.2809H111.014C110.803 20.6397 110.496 20.9356 110.125 21.1364C109.755 21.3372 109.335 21.4353 108.911 21.4201C107.207 21.4201 106.13 20.1131 106.13 18.045ZM107.496 18.045C107.496 19.4299 108.166 20.2632 109.286 20.2632C110.4 20.2632 111.088 19.4179 111.088 18.0507C111.088 16.6899 110.392 15.8325 109.286 15.8325C108.173 15.8325 107.496 16.6715 107.496 18.045H107.496Z" fill="black"/>
<path d="M117.854 18.044C117.812 17.6149 117.863 17.182 118.002 16.773C118.142 16.364 118.367 15.9879 118.665 15.669C118.962 15.35 119.325 15.0951 119.729 14.9207C120.134 14.7463 120.571 14.6562 121.013 14.6562C121.455 14.6563 121.893 14.7463 122.297 14.9207C122.701 15.0951 123.064 15.35 123.361 15.669C123.659 15.9879 123.884 16.364 124.024 16.773C124.164 17.182 124.214 17.6149 124.172 18.044C124.215 18.4735 124.165 18.907 124.026 19.3167C123.887 19.7264 123.661 20.1031 123.363 20.4227C123.066 20.7423 122.703 20.9977 122.298 21.1725C121.894 21.3472 121.456 21.4375 121.013 21.4375C120.57 21.4375 120.133 21.3472 119.728 21.1725C119.323 20.9977 118.96 20.7423 118.663 20.4227C118.365 20.1031 118.14 19.7264 118 19.3167C117.861 18.907 117.811 18.4735 117.854 18.044ZM122.812 18.044C122.812 16.6287 122.16 15.801 121.015 15.801C119.866 15.801 119.22 16.6287 119.22 18.044C119.22 19.4707 119.866 20.2919 121.015 20.2919C122.16 20.2919 122.812 19.465 122.812 18.044Z" fill="black"/>
<path d="M125.946 14.7848H127.218V15.822H127.317C127.484 15.4495 127.767 15.1372 128.125 14.9287C128.484 14.7202 128.9 14.6258 129.316 14.6588C129.642 14.6349 129.969 14.6828 130.273 14.7989C130.578 14.9151 130.851 15.0965 131.074 15.3297C131.296 15.5629 131.462 15.842 131.559 16.1462C131.656 16.4505 131.682 16.7721 131.634 17.0872V21.314H130.312V17.4108C130.312 16.3616 129.844 15.8397 128.867 15.8397C128.646 15.8297 128.425 15.8664 128.219 15.9474C128.014 16.0283 127.829 16.1516 127.677 16.3088C127.525 16.4659 127.41 16.6532 127.339 16.8579C127.268 17.0625 127.244 17.2796 127.267 17.4943V21.3141H125.946V14.7848Z" fill="black"/>
<path d="M139.104 13.1582V14.8135H140.555V15.8989H139.104V19.2563C139.104 19.9402 139.393 20.2397 140.051 20.2397C140.22 20.2392 140.388 20.2292 140.555 20.21V21.2833C140.318 21.3247 140.077 21.3467 139.836 21.3491C138.366 21.3491 137.781 20.845 137.781 19.5862V15.8988H136.717V14.8135H137.781V13.1582H139.104Z" fill="black"/>
<path d="M142.361 12.2344H143.671V15.8325H143.775C143.951 15.4565 144.242 15.1424 144.607 14.9331C144.973 14.7238 145.395 14.6294 145.818 14.6628C146.142 14.6457 146.466 14.6984 146.767 14.8174C147.068 14.9363 147.338 15.1186 147.558 15.3511C147.779 15.5835 147.944 15.8606 148.042 16.1624C148.139 16.4642 148.168 16.7833 148.125 17.097V21.3125H146.801V17.4149C146.801 16.372 146.303 15.8438 145.369 15.8438C145.142 15.8256 144.913 15.8561 144.699 15.933C144.486 16.0099 144.292 16.1315 144.131 16.2891C143.97 16.4468 143.847 16.6368 143.769 16.8458C143.692 17.0548 143.662 17.2778 143.683 17.4991V21.3124H142.361L142.361 12.2344Z" fill="black"/>
<path d="M155.832 19.5487C155.653 20.1454 155.264 20.6616 154.733 21.0069C154.203 21.3522 153.564 21.5047 152.93 21.4376C152.489 21.449 152.05 21.3666 151.645 21.1962C151.24 21.0258 150.877 20.7714 150.583 20.4508C150.288 20.1301 150.069 19.7509 149.94 19.3393C149.811 18.9278 149.776 18.4938 149.836 18.0675C149.777 17.64 149.813 17.2051 149.942 16.7923C150.071 16.3795 150.289 15.9985 150.582 15.675C150.874 15.3516 151.235 15.0932 151.639 14.9175C152.044 14.7417 152.482 14.6527 152.924 14.6564C154.788 14.6564 155.912 15.8976 155.912 17.9479V18.3975H151.183V18.4697C151.162 18.7093 151.193 18.9505 151.273 19.1778C151.354 19.4051 151.482 19.6134 151.65 19.7895C151.818 19.9657 152.022 20.1056 152.249 20.2004C152.475 20.2953 152.72 20.3429 152.966 20.3402C153.283 20.3772 153.603 20.3217 153.887 20.1807C154.17 20.0398 154.405 19.8198 154.56 19.5486L155.832 19.5487ZM151.182 17.4445H154.566C154.582 17.2254 154.552 17.0052 154.476 16.7983C154.4 16.5914 154.281 16.4022 154.126 16.2429C153.97 16.0836 153.783 15.9577 153.574 15.8734C153.366 15.789 153.142 15.748 152.917 15.7531C152.688 15.7503 152.461 15.7921 152.25 15.8761C152.038 15.9601 151.845 16.0846 151.684 16.2423C151.522 16.3999 151.395 16.5875 151.308 16.794C151.222 17.0004 151.18 17.2216 151.183 17.4445H151.182Z" fill="black"/>
</g>
<defs>
<clipPath id="clip0_2331_7821">
<rect width="178" height="58" fill="white"/>
</clipPath>
</defs>
</svg>
