<svg width="116" height="133" viewBox="0 0 116 133" fill="none" xmlns="http://www.w3.org/2000/svg">
<path d="M91.1509 4.56787H25.1641V84.7777H91.1509V4.56787Z" fill="#54C0E8"/>
<path d="M20.8418 101.804H95.3624V0.246094H20.8418V101.804ZM90.0425 81.6731H26.1618V5.56607H90.0425V81.6731Z" fill="#041E42"/>
<path d="M71.4579 42.368C71.0887 42.1629 70.61 41.9851 70.7058 41.4244L70.7741 40.6585C71.581 40.6038 72.3469 41.2056 72.8119 41.9167C73.0854 42.3407 73.2085 42.9151 73.564 43.1749C73.8786 41.9851 73.3179 40.2756 74.5214 39.5645C74.8359 39.6602 75.1505 39.8243 75.3282 40.1525C75.3282 40.1525 75.3966 40.6859 75.2325 41.0004C74.918 41.0415 74.0837 40.2346 73.947 41.1235C73.8239 42.1629 73.9743 43.3527 73.5777 44.31C72.9349 43.5715 72.7982 42.368 71.6084 42.1766C71.6084 42.1766 71.4443 42.1766 71.4579 42.3544" fill="#041E42"/>
<path d="M83.8348 36.6652C83.7937 36.9661 83.657 37.5405 83.3014 37.4721C83.1099 37.1576 82.7133 36.9935 82.4261 37.2396C82.18 37.4037 81.8654 37.5678 81.7834 37.8824C82.2894 38.2927 82.9732 38.4294 83.657 38.2927C84.0673 37.9918 84.4092 37.5542 84.8741 37.3627C84.7511 38.8807 83.0963 39.3868 82.1116 40.3304C82.0842 40.1253 82.1389 39.6876 82.2757 39.4278C81.9201 39.2363 81.3731 39.1679 81.2363 38.6619C81.2774 37.5678 81.8928 36.4601 82.9869 36.0498C83.3561 36.0498 83.8621 36.1866 83.8211 36.6652" fill="#041E42"/>
<path d="M82.5903 42.6692C83.028 44.5428 83.6571 46.3754 84.2998 48.1533V48.8371C83.7665 48.673 83.4793 47.8934 82.9322 47.5378V48.3447L84.4639 60.407C84.8058 63.4978 85.7358 67.1082 84.2862 69.9528C84.2178 69.0092 84.1631 67.8878 84.122 66.8621C82.8775 59.3813 82.1664 51.709 81.0039 44.2009C81.2501 43.3667 81.633 42.464 82.2484 41.876L82.5903 42.6555V42.6692Z" fill="#041E42"/>
<path d="M77.3655 48.0848C77.4202 47.6061 77.7758 46.4163 77.2014 45.8009C76.9826 45.6094 76.8322 45.6094 76.545 45.6778C75.5466 46.1018 75.2731 47.1275 75.2594 48.0848C75.4509 48.8233 76.3262 48.6592 76.7912 49.1242C75.15 51.8594 72.1687 53.4185 69.9121 55.634C70.6506 55.7297 71.184 55.2647 71.8541 54.8271C73.7277 53.3364 76.2988 51.5312 77.0783 49.2199C77.4202 49.2883 77.6664 49.5481 77.9536 49.6986C78.063 49.5208 78.2271 49.0832 78.1998 48.7276C78.0357 48.372 77.6664 48.2763 77.3655 48.0848ZM77.0647 47.9207L75.7107 47.3053C75.9296 46.7172 76.9826 46.5668 77.0647 47.3463V47.9207Z" fill="#041E42"/>
<path d="M76.804 57.2199C77.1733 57.2062 77.269 56.837 77.4331 56.6455C77.5288 57.2336 77.3784 57.9037 76.804 58.2319C76.2707 58.355 75.8467 57.9447 75.6826 57.4934C75.245 56.2079 75.874 54.6761 76.3664 53.4727C76.4621 54.7582 75.3954 56.919 76.804 57.2062" fill="#041E42"/>
<path d="M80.5935 64.1955C79.5268 62.486 77.6669 60.8996 75.7112 60.3525C74.8359 60.4209 74.453 60.7491 73.9607 61.9663C73.3726 63.3202 73.6872 65.0297 74.6308 66.1375C70.3365 67.7513 66.138 69.6386 63.0472 73.5773C61.8164 74.9996 60.3394 76.9279 58.4521 77.1604C57.5494 76.9963 57.0024 75.1363 56.9887 73.8097C56.9887 73.8097 56.9887 73.6046 56.9067 73.6183C56.7562 73.6456 56.6332 74.0286 56.6332 74.0286C56.4143 75.2321 56.6332 76.3672 57.1528 77.4065C57.7136 78.2545 58.5888 78.8288 59.5735 78.8972C60.2436 78.8972 60.736 78.7605 61.2146 78.2955L65.0439 73.9055C67.8065 70.5822 71.7315 69.8027 75.2189 68.0658C75.4924 67.9564 75.7112 67.8607 75.848 67.9154C76.0258 68.3393 76.1215 68.3257 76.313 68.5445C76.6549 68.2983 76.9557 67.7239 76.86 67.5051C77.6806 67.1769 78.1455 67.2042 79.3217 66.7666C80.0739 66.0828 80.5115 65.1802 80.6072 64.2092M75.9984 65.5905C75.9027 65.5357 75.6702 65.3443 75.4924 65.0571C75.1095 64.4143 74.4257 63.7032 74.4257 62.992C74.8359 62.7595 75.3146 63.0467 75.7112 63.2792C76.4907 63.6621 77.2703 64.3186 77.79 64.9477C77.2292 65.2075 76.2035 65.6178 75.9984 65.6041" fill="#041E42"/>
<path d="M75.3693 74.1378C75.6291 74.4386 75.4103 74.9583 75.2462 75.2319C75.0958 75.4917 74.7265 75.6832 74.412 75.5191C74.1384 75.4507 73.8786 75.1635 73.8239 74.8763C73.5367 73.4677 74.412 71.977 75 70.6504C74.918 71.8129 74.0701 73.0437 74.2889 74.3019C74.3983 74.6164 74.6992 74.6848 75 74.5481C75 74.5481 75.2189 74.466 75.3693 74.1378Z" fill="#041E42"/>
<path d="M36.4195 24.1929C36.0366 24.2476 35.681 23.7416 35.2434 24.0015C34.8878 25.0819 35.4622 26.4221 34.9289 27.5709C34.2451 27.0239 33.9305 26.1349 33.2467 25.5058C33.2467 26.0118 32.7954 25.6973 32.645 25.6289C32.3304 25.3964 31.8244 25.3417 31.7834 24.6306C31.7834 24.275 31.7697 23.9741 31.9885 23.6869C33.2604 23.9331 34.122 25.3417 34.7647 26.4495C34.7647 25.328 34.7511 24.0562 35.1203 23.0031C35.5033 22.4971 36.146 22.9074 36.4059 23.2903C36.4059 23.2903 36.5563 23.6732 36.4059 24.2066" fill="#041E42"/>
<path d="M39.8385 11.9937C40.0027 11.7202 40.071 11.1048 39.7838 10.8859C39.4693 10.7629 39.3325 10.6945 39.2368 10.6124C39.2368 10.5167 39.6334 9.69612 39.2915 8.72512C39.1 8.24646 38.7308 8.15073 38.3615 8.17808C37.3632 8.57469 37.2675 9.50466 37.1444 10.4073C37.076 11.2142 38.0743 11.1731 38.5393 11.5424C38.512 11.8159 38.4983 12.0484 38.3205 12.2399C36.1734 14.4964 33.3698 15.905 31.2227 18.0795C33.3288 17.8334 37.3905 14.6879 39.0043 11.6928C39.0453 11.6928 39.6744 11.9937 39.8522 11.9937M37.6094 9.84656C37.7598 9.24481 38.6761 9.05335 38.8265 9.79185C38.8812 9.99699 38.8812 10.1474 38.8539 10.3662C38.3889 10.2705 37.9786 10.1064 37.6094 9.84656Z" fill="#041E42"/>
<path d="M83.6162 78.7736C84.3684 77.5838 83.8213 76.2299 83.794 74.7529C83.9581 74.1785 84.5188 74.8486 84.9154 74.6298L85.0111 73.8913C84.9975 73.7272 84.9291 73.6178 84.7239 73.481C84.4094 73.3579 84.0675 73.1938 83.8487 73.5494C83.2333 74.7529 83.6982 76.2983 83.6025 77.6112C82.9597 76.5171 82.0708 74.958 80.6348 74.7392L80.5117 75.9564C80.5117 76.7633 81.4964 76.7359 82.0981 76.859C82.7546 77.3787 82.9187 78.0625 83.3427 78.6916C83.3427 78.6916 83.411 78.7873 83.6299 78.76" fill="#041E42"/>
<path d="M58.0958 9.08084C56.3589 10.0245 54.4306 10.4758 52.6938 11.3921C49.2064 13.2247 45.2677 14.0316 42.0812 16.6437C42.3273 17.1497 43.1616 16.9582 43.3804 17.4506C43.3941 17.7651 43.353 18.0386 43.2026 18.3121C42.6966 18.2711 41.9034 18.0523 41.5752 17.5736C41.1786 15.6727 42.8334 14.7427 44.4608 14.0179L55.9213 9.09451C56.906 8.67056 57.5624 8.52012 58.342 8.19189C58.5198 8.47909 58.3009 8.83467 58.0958 9.09451" fill="#041E42"/>
<path d="M79.1024 8.39688C79.3486 9.49097 78.7058 10.9406 78.3365 11.5834C77.3792 13.8126 75.3005 15.5494 74.179 17.7103C74.3978 15.2896 76.2715 13.1561 77.8852 11.0774C77.981 10.7628 77.7895 10.4756 77.4749 10.4346C74.7261 10.4346 72.155 11.5971 69.6659 12.5544C66.2469 14.1682 62.5134 15.0298 59.2722 17.0265C59.4226 17.5051 59.9286 17.5735 60.3115 17.7103C61.98 18.1342 63.457 19.1599 65.317 18.9684C64.5648 18.0111 62.8279 18.4214 62.5407 17.0265C63.4434 16.329 64.8109 15.905 65.905 16.5341C65.9734 16.917 65.5631 17.0128 65.0708 17.1495C64.7836 16.7666 64.1955 16.835 63.7305 16.7393C63.922 17.8333 65.3853 17.7376 66.2059 18.2846C66.3563 18.4488 66.3974 18.6402 66.37 18.859C64.8793 20.3771 62.6091 19.2146 61.0227 18.736L60.9543 18.8043C64.5921 21.8267 68.5171 24.8765 71.3071 28.6784C73.0302 30.5794 74.3568 33.0958 76.8458 34.0668C79.3622 34.354 80.8939 31.906 82.8906 30.7435C83.4924 30.3742 84.1215 29.964 84.819 30.3469C85.2839 30.7025 85.0651 31.0991 84.9421 31.7282C84.819 32.1795 84.6822 32.7539 84.2309 32.9317C84.0394 32.5487 83.4514 32.6718 83.1778 32.8086C80.4153 33.6428 78.5143 38.361 75.1774 36.1866C73.0029 34.4497 71.4712 32.2205 69.707 30.1281C69.9531 31.6735 70.4318 34.0941 68.8317 35.2156C67.7786 35.9814 66.6299 36.7062 65.2349 36.4738C64.0451 36.1455 62.992 34.9831 62.8143 33.7933V33.1505H62.2262C56.8105 35.407 50.2323 39.9885 44.2969 36.0772C43.2849 35.2156 42.9703 33.9847 42.2455 32.9864C38.7855 33.5061 37.7735 37.2396 36.2417 39.6056C35.7631 40.3167 34.9699 40.5492 34.122 40.5766C31.3868 40.0979 31.0585 36.7883 31.0175 34.354C31.0175 33.5744 30.9218 32.453 31.3321 31.7145C31.2773 33.9437 31.3047 36.3233 32.3578 38.1696C32.8501 38.826 33.4518 39.0722 34.1083 38.9765C35.7631 38.0055 36.6247 36.2002 37.5683 34.6822C38.4709 32.8496 40.3719 30.4016 42.6968 30.5247C43.2849 31.0033 43.2302 31.7418 43.6268 32.2752C45.3089 34.6822 48.0715 35.5575 50.9845 35.0378C55.5249 34.3676 59.4226 32.1932 63.5254 30.5247C63.7716 31.2358 63.2245 32.2752 64.0177 32.918C64.6058 33.5608 65.3033 33.9574 66.1922 33.9437C67.3 33.7112 68.312 33.2325 69.242 32.5214C68.2163 29.4169 65.2623 27.0647 63.0194 24.4389C61.2689 22.6883 59.532 20.76 58.014 18.9137C57.7815 16.917 58.3285 15.6041 59.6004 14.5648C64.5785 12.021 69.8574 10.0654 75.2321 8.47894C76.2851 8.16439 77.2014 7.80882 78.4049 7.90455C78.4049 7.90455 78.993 8.04131 79.0887 8.38321" fill="#041E42"/>
<path d="M71.375 15.3719C71.5664 15.919 71.3476 16.6575 70.8826 16.7532C70.4723 16.8079 70.2535 16.5207 70.0894 16.1788C69.5697 14.8249 70.4723 13.7308 71.0057 12.6367C71.1972 13.6077 69.5697 15.0574 71.0741 15.7275C71.3066 15.7001 71.3613 15.3719 71.3613 15.3719" fill="#041E42"/>
<path d="M42.3273 21.2388C42.1768 22.0867 41.4657 22.8253 40.7819 23.3723L38.6484 21.7038C38.7442 20.979 39.3733 20.3636 39.8656 19.7208L40.0981 19.4199C40.8776 19.8986 41.6435 20.6508 42.341 21.2388" fill="#041E42"/>
<path d="M54.4305 20.0626C54.157 20.3224 53.651 20.4455 53.3091 20.2267L52.721 19.707C52.4065 20.1173 52.133 20.678 51.5449 20.8011C50.9021 20.8968 50.4235 20.5002 50.2457 19.9395C49.9174 18.9548 49.5619 18.2163 50.2183 17.3411C50.3961 18.1479 50.4235 19.0779 51.1209 19.707C51.668 19.8574 52.0783 19.5702 52.3654 19.2147C52.3381 18.3668 51.8731 17.6693 52.2834 16.8624C52.9125 17.0265 52.5843 19.4061 54.1707 19.2557C54.2664 18.3804 53.2407 17.5052 53.9519 16.5752C54.2664 17.6146 55.3195 18.9001 54.4169 20.0626" fill="#041E42"/>
<path d="M42.8058 25.943C42.5596 26.6815 41.8895 27.3926 41.3015 28.0627L39.0859 26.1207C39.4962 25.4096 39.7697 24.6437 40.4946 24.0557C41.3562 24.4659 42.081 25.2865 42.7921 25.9566" fill="#041E42"/>
<path d="M72.9625 19.2147L72.8395 20.0763C72.4839 20.131 72.2514 19.7891 71.8821 20.008C71.3761 21.1431 71.8685 22.7158 71.5402 23.974C71.0479 23.7689 70.8701 23.1671 70.5829 22.6885L69.5435 21.6217C69.27 21.7585 68.805 21.6217 68.4905 21.4986C68.0802 21.2114 68.1623 20.514 68.299 20.0763C68.6683 19.8849 69.1196 20.1447 69.4888 20.3635C70.4325 21.0063 70.9248 21.95 71.3624 22.8799C71.5266 21.7175 71.1847 20.2268 71.6496 19.1053C72.0189 18.7771 72.6206 18.7224 72.9352 19.2284" fill="#041E42"/>
<path d="M83.0538 23.8511C82.9581 24.6854 82.0828 25.4649 81.5221 26.0803C80.7152 25.4786 80.0314 24.9589 79.3887 24.1383C79.8537 23.4272 80.2639 22.634 80.9204 22.0732L83.0402 23.8511H83.0538Z" fill="#041E42"/>
<path d="M78.9386 24.2471C78.7882 25.0814 78.1591 25.7925 77.5163 26.4079C76.7915 25.8336 76.0529 25.1224 75.3418 24.5343C75.7384 23.7685 76.1487 23.03 76.8325 22.4146C77.5847 22.8932 78.2685 23.5497 78.9386 24.2471Z" fill="#041E42"/>
<path d="M59.3269 25.6698C59.5594 25.8613 59.3269 26.4767 59.1491 26.8049C58.8756 27.3246 58.1918 27.4203 57.8499 27.0374C56.9473 25.6835 58.0824 24.1381 58.3833 22.8525C58.3149 23.8099 57.7815 24.8219 58.0277 25.8749C58.2465 26.3399 58.5884 26.2305 58.9029 26.1758C58.9029 26.1758 59.3406 26.0117 59.3269 25.6561" fill="#041E42"/>
<path d="M51.1203 29.6628C50.4638 28.9106 49.7253 27.1737 48.4124 27.502C48.2483 27.4473 48.0979 27.3515 47.9475 27.2148C47.8244 26.7635 47.7423 26.0523 48.2347 25.7925C49.5339 26.107 50.5185 27.2558 51.0109 28.4046C51.1613 27.119 50.9288 25.601 51.7767 24.6573C52.2144 24.5616 52.652 24.7531 52.8298 25.1087L52.652 26.0113C52.3375 25.8882 52.0366 25.7241 51.6537 25.7925C51.0929 26.8318 51.5032 28.3772 51.2844 29.4987C51.2844 29.4987 51.2844 29.6354 51.1203 29.6628Z" fill="#041E42"/>
<path d="M79.0057 30.3057C78.9373 30.8254 78.7185 31.3451 78.2261 31.687C77.6381 31.8374 77.4466 31.3314 77.3509 30.9348C77.05 29.4851 77.7475 28.1586 78.5133 26.9961C78.3903 28.0628 76.7765 29.827 78.4723 30.7296C78.7595 30.7296 79.0057 30.333 79.0057 30.333" fill="#041E42"/>
<path d="M81.1682 18.7224C81.4828 18.8181 81.6332 18.4762 81.7563 18.3121C81.729 18.7634 81.4965 19.7071 81.0041 19.7344C80.4844 19.6387 80.3066 19.3105 80.293 18.7634C80.3887 17.9155 80.4844 16.9855 81.1272 16.3701C81.0451 17.0676 80.1972 18.107 81.1819 18.7224" fill="#041E42"/>
<path d="M42.6959 42.1357C43.0925 42.2314 43.4481 41.6433 43.6259 41.3698C43.6259 41.9852 43.4618 42.5049 43.1062 42.9836C42.7643 43.2161 42.3814 43.2161 42.0395 42.9836C40.6035 41.6023 41.8207 39.0723 42.6959 37.4995C42.5318 38.8261 40.6719 40.9869 42.6959 42.1357Z" fill="#041E42"/>
<path d="M51.9423 38.5254C52.1338 39.6195 50.52 40.6862 51.6415 41.6572C52.0791 41.876 52.2022 41.3016 52.3526 41.1375C52.4757 41.6846 52.2842 42.2316 52.0654 42.6829C51.6688 43.0111 50.6431 42.5872 50.6705 41.8897C50.6978 40.5905 51.1081 39.4964 51.9423 38.5254Z" fill="#041E42"/>
<path d="M68.3124 41.7529C68.4902 42.1359 68.285 42.5325 68.0252 42.8197C64.3874 44.1736 60.8726 45.7874 57.3716 47.5242C56.7151 47.8798 56.0587 48.3584 55.5663 49.0012C55.9082 49.6166 57.3716 49.3841 56.9886 50.3278L56.7835 50.7381C56.2228 50.6013 55.539 50.615 55.1971 50.0543C55.1424 49.2474 55.2381 48.3858 55.7851 47.7567C58.3289 45.76 61.2829 44.748 64.0865 43.4077C65.5088 42.8607 66.9037 42.3 68.3124 41.7666" fill="#041E42"/>
<path d="M38.8541 44.0365C38.5669 43.9134 38.225 43.7766 37.9241 43.9134C37.8831 43.9681 37.8694 43.9954 37.8694 44.0775C37.9925 45.2263 38.225 46.2383 38.0746 47.4828C38.0062 47.6332 37.8011 47.5512 37.6096 47.3597C36.9258 46.8811 36.5429 45.4451 35.5582 45.9101C35.1342 45.9511 34.6419 45.8143 34.5598 45.3494C34.4231 44.6245 34.7376 44.1595 34.7376 44.1595C35.9685 44.2142 36.9805 45.4451 37.7874 46.4434C37.8831 45.3357 37.0489 43.7356 38.0336 42.833C38.3481 42.7099 39.0319 42.7783 38.9498 43.2296C38.9498 43.2296 38.9362 43.7493 38.8541 44.0365Z" fill="#041E42"/>
<path d="M67.0268 47.4557L66.808 48.4267C66.5071 48.3583 66.2472 48.0985 65.9327 48.2626C65.331 49.1379 65.96 50.4644 65.7959 51.4628L65.6455 52.4885C65.0164 51.9414 64.7429 50.8747 63.936 50.2183C63.7445 50.7106 63.1701 50.396 62.8556 50.1636C62.4727 49.7533 62.6094 49.0148 62.7599 48.5498C63.8813 48.5908 64.7566 49.8353 65.2215 50.779C65.3173 49.4524 65.0985 47.9344 66.0968 47.0044C66.4661 47.0044 66.8216 47.1685 67.0268 47.4557Z" fill="#041E42"/>
<path d="M34.5737 50.0537C34.3002 51.435 33.589 52.6522 33.0967 53.9514C32.536 55.9207 31.6333 58.2457 32.577 60.3381C32.8505 60.7484 33.3155 60.9809 33.7942 61.0219C34.5737 60.9809 34.7788 60.5022 35.1618 60.0509C35.3942 61.7194 35.066 63.6477 33.083 63.7024C32.4949 63.7024 31.9752 63.2237 31.688 62.7314C30.9359 61.2407 31.3188 59.3808 31.565 57.767C32.1804 55.0591 33.042 52.3923 34.56 50.04" fill="#041E42"/>
<path d="M42.7652 52.8578C41.2335 53.0493 41.7122 51.203 41.1105 50.3961C40.4266 51.3945 41.7669 52.5569 40.6455 53.3638C38.936 53.6784 39.7976 51.5859 39.2368 50.7243C38.4847 51.627 39.0454 53.1313 39.3052 53.8151C39.5514 54.198 39.8386 54.6904 40.3993 54.581C40.7959 54.4579 41.0557 54.1707 41.2335 53.8151C41.425 53.3638 41.7532 53.7467 41.9447 53.9382C42.2866 54.2117 42.9157 54.1023 43.1892 53.61C43.6132 52.3518 42.9704 51.0526 42.4917 49.9995C41.931 50.9979 42.7516 51.8321 42.902 52.7484C42.902 52.7484 42.8747 52.8578 42.7789 52.8715" fill="#041E42"/>
<path d="M46.499 56.29C46.6768 56.7139 46.8956 56.8097 47.2512 56.6456C47.429 56.5225 47.4427 56.3857 47.5521 56.2489C47.7025 56.6729 47.4974 57.4798 47.0324 57.7396C46.5674 57.9174 46.1298 57.5208 46.0751 57.0558C45.9246 55.7293 46.2392 54.4164 46.7042 53.2812C46.7999 54.2249 46.2939 55.2779 46.4853 56.29" fill="#041E42"/>
<path d="M41.7667 58.3554L41.6573 59.217C41.4111 59.0255 41.1239 58.7383 40.782 58.9298C40.1529 59.8324 40.6042 61.159 40.317 62.212C40.8094 62.6086 41.5342 62.8001 41.8214 63.4702C41.8624 63.8805 41.9718 64.4139 41.0692 64.4139C40.0572 64.5096 39.2366 64.5369 38.5939 65.2207C38.7853 68.0517 40.1392 70.8553 39.7153 73.6999C39.811 70.3766 37.8006 68.0517 38.4297 64.3728C38.9084 63.8258 39.5238 63.5933 40.1803 63.4702C39.9888 63.3061 39.8657 63.1557 39.5238 63.1557C39.4281 63.224 39.4281 63.3745 39.3597 63.4702C38.9631 62.5402 40.2213 62.2941 39.264 61.0906C38.252 59.5452 37.6912 61.1316 37.4314 59.9828C37.3493 59.6546 37.1852 58.8887 37.7186 58.6563C38.9084 59.1486 39.4965 60.3794 40.0162 61.4051C40.3581 60.735 40.1119 59.8871 40.194 58.9982C40.2076 58.5879 40.194 58.2049 40.6863 57.822C41.1239 57.5211 41.6846 57.9861 41.7804 58.3691" fill="#041E42"/>
<path d="M49.5074 60.735C48.974 62.9505 46.6901 64.7831 44.5703 65.4395C43.6677 65.8635 43.8318 67.2584 43.9275 68.12C46.1978 68.8996 49.4116 68.1884 51.2305 69.9526C50.1775 70.9783 49.0014 71.9493 47.7568 72.5921C43.4762 74.5341 38.4298 78.4317 33.5201 75.1085C31.2499 73.399 31.3183 70.527 31.6055 68.0106C31.879 66.9439 32.1798 66.1233 32.5354 64.8788C31.7832 66.055 31.5781 67.0123 31.2362 68.1337C30.5798 71.5254 30.5524 75.7102 33.7663 77.9668C35.5441 79.1976 38.2383 79.0335 40.235 78.5412C43.2164 77.5838 46.02 76.2162 48.6458 74.4247L49.2338 74.0281C51.5588 72.6468 52.7486 70.1988 52.2836 67.7371C51.422 66.0003 49.1791 66.5746 47.6338 65.9592C49.0834 64.6053 49.5757 62.8001 50.3963 61.241C50.5741 61.5419 50.5741 61.9248 50.6425 62.253C51.0391 63.8668 52.4204 65.8361 54.2803 66.0823C58.725 66.561 62.1714 63.8805 65.2758 60.9948C65.5357 60.4751 65.6587 59.6683 65.604 58.9981C63.2654 60.9401 60.7901 63.1283 57.4668 62.7727C55.2239 62.1026 54.3487 59.7777 53.87 57.8493C54.2393 57.5074 54.6769 57.1655 55.1145 56.9194C56.8924 56.0578 59.9148 54.3893 62.1714 56.0031C60.8995 54.5261 59.3678 53.8423 57.3437 54.0474C55.6753 54.0884 54.1846 55.3877 53.405 56.7963C52.2289 58.6699 52.9674 61.3641 53.8153 63.0873C51.5861 61.9522 51.2169 59.7777 50.9844 57.1929C50.8339 52.7072 50.41 48.2351 49.7672 43.8177C49.6852 43.3664 49.6441 42.7373 49.3022 42.6143C49.0561 43.3254 48.7689 43.9955 48.7689 44.8024L49.6988 57.316C49.6988 57.316 49.7672 59.764 49.521 60.735" fill="#041E42"/>
<path d="M60.1063 70.4314C60.0653 70.9785 59.9833 72.0178 59.1764 72.1409C58.7114 72.1409 58.3695 71.7443 58.2738 71.3614C58.0823 69.8434 58.9986 68.9681 59.7508 67.915C59.8328 68.9134 57.8088 70.4861 59.6277 71.1289C59.8602 71.1289 60.0927 70.4451 60.0927 70.4451" fill="#041E42"/>
<path d="M62.007 39.4278C61.8566 40.262 61.0223 40.8911 60.5574 41.5749C59.6547 40.9595 58.8752 40.5903 58.1914 39.8244C58.5607 39.0449 59.0256 38.2517 59.7094 37.6362L62.007 39.4141V39.4278Z" fill="#041E42"/>
<path d="M57.7668 39.9888C57.507 40.9324 56.8915 41.5068 56.3308 42.1769C55.4829 41.7667 54.6213 41.0829 53.8828 40.4401C54.3204 39.7289 54.6213 38.8673 55.4009 38.334C56.2488 38.7579 56.9599 39.4554 57.7668 39.9888Z" fill="#041E42"/>
<path d="M45.6231 92.7786C45.8009 92.2863 45.8829 91.9034 45.8829 91.5888C45.8829 91.0828 45.6915 90.5905 45.3085 90.1392L44.6521 91.0281C44.9666 91.4521 45.1171 91.9034 45.1171 92.3547H31.6052V91.0828C31.6052 90.7683 31.5505 90.5631 31.4547 90.4537C31.359 90.3443 31.1539 90.2896 30.853 90.2896C30.5521 90.2896 30.1282 90.3443 29.6495 90.4537C28.5417 90.7272 27.7622 90.9871 27.3519 91.2743C26.969 91.5204 26.6681 91.917 26.4493 92.4641C26.2578 92.9291 26.1758 93.2299 26.1758 93.3804L26.504 96.772L26.6818 96.4712L26.9416 95.9515L27.0647 95.6779C27.1194 95.3634 27.1468 95.1993 27.1468 95.1719L26.9553 92.6692L27.4203 92.3137C27.5707 92.1906 27.7622 92.0812 28.0084 91.9718L27.94 92.7376L30.9897 94.4608L31.4 93.5582H45.3085C45.4179 93.3393 45.4726 93.2026 45.4726 93.1889C45.5274 93.0248 45.5684 92.888 45.6094 92.7923L45.6231 92.7786ZM30.9077 93.0522L28.6101 91.7529C29.1982 91.4657 29.7999 91.329 30.4153 91.329C31.0308 91.329 30.7436 91.3563 30.812 91.4247C30.8803 91.4931 30.9077 91.6162 30.9077 91.8076V93.0522Z" fill="white"/>
<path d="M43.2152 94.9938L42.7365 94.5562L42.0938 95.1032L42.887 95.828L43.393 95.4041L43.8716 95.828L44.5007 95.281L43.7349 94.5562L43.2152 94.9938Z" fill="white"/>
<path d="M51.6953 89.0861L51.6406 89.2229C51.5859 89.3323 51.5585 89.428 51.5585 89.4828C51.5585 89.5375 51.5995 89.6605 51.6816 89.7289L51.8184 89.852L52.256 90.2896L52.4475 90.0845L54.4989 92.3684H48.6592C48.5498 91.8897 48.331 91.4521 48.0164 91.0145L47.3463 91.794C47.5378 92.0538 47.7019 92.2863 47.8386 92.5188C47.9754 92.7513 48.0711 92.9975 48.1669 93.271C47.9754 93.736 47.7156 94.1189 47.4284 94.4198C47.0591 94.8027 46.6488 94.9805 46.2249 94.9805C45.8009 94.9805 45.6505 94.9258 45.377 94.789L45.459 94.9121L45.6778 95.1857C46.1018 95.7327 46.471 96.0062 46.7856 96.0062C47.1001 96.0062 47.6198 95.6917 48.0301 95.0626C48.3446 94.5566 48.5635 94.0505 48.6729 93.5445H55.0322L55.4288 92.7924L55.5519 92.5462C55.6066 92.4368 55.634 92.341 55.634 92.2863C55.634 92.1633 55.5246 91.9855 55.2921 91.7256L52.6799 88.8673L55.9895 87.8963L56.4956 86.8022L52.1876 88.0057L51.7089 89.0725L51.6953 89.0861Z" fill="white"/>
<path d="M65.7407 87.3352L64.9611 86.583L64.3457 87.1574L65.1252 87.8686L65.7407 87.3352Z" fill="white"/>
<path d="M65.3168 88.8806L65.7955 89.3046L66.4109 88.7712L65.6313 88.0464L65.1253 88.4703L64.6467 88.0464L64.0312 88.5934L64.7971 89.3183L65.3168 88.8806Z" fill="white"/>
<path d="M78.596 94.9938L78.1174 94.5562L77.4609 95.1032L78.2541 95.828L78.7738 95.4041L79.2525 95.828L79.8679 95.281L79.1021 94.5562L78.596 94.9938Z" fill="white"/>
<path d="M90.0699 87.7044L89.304 87.3625C89.1262 87.2941 89.0168 87.2257 88.9758 87.171C88.8801 87.0753 88.839 86.9385 88.839 86.7744L88.3877 87.5266L88.292 87.6634C88.2373 87.7591 88.21 87.8275 88.21 87.8958C88.21 88.0326 88.3194 88.1283 88.5245 88.1967L88.8527 92.3816H84.5585L84.6679 92.2311C84.9551 91.8482 85.1192 91.6294 85.1465 91.561C85.3927 91.2054 85.5158 90.8635 85.5158 90.508C85.5158 89.8242 85.0918 89.4959 84.2166 89.4959C83.3413 89.4959 83.2045 89.578 82.5754 89.7558L82.0147 90.9729C82.7532 90.9729 83.2182 91.4379 83.437 92.3816H79.3205L78.8692 90.8088L78.1444 91.5337L78.3906 92.3953H68.2703C68.3524 92.0807 68.3934 91.8209 68.3934 91.6294C68.3934 91.1097 68.2019 90.6174 67.8053 90.1661L67.1489 91.055C67.395 91.4106 67.5318 91.7388 67.5728 92.0534L67.6139 92.3405V92.3816H66.4924L65.4667 90.1934L64.865 90.9729L65.4941 92.3816H63.7846C63.7435 92.1901 63.7025 92.0397 63.6752 91.9439C63.4837 91.4379 63.3059 91.0413 63.1008 90.7541L62.4307 91.5337C62.7042 91.9987 62.8956 92.3679 62.9914 92.6551C63.1281 93.0654 63.1965 93.4893 63.1965 93.9406C62.9503 94.1868 62.6221 94.392 62.2118 94.5561C61.8152 94.7339 61.4323 94.8159 61.0904 94.8159C60.2151 94.8159 59.7638 94.2689 59.7638 93.1748C59.7638 92.0807 59.8322 92.2585 59.9553 91.7525L60.01 91.5473C59.8869 91.7935 59.7502 92.0807 59.6271 92.4363C59.3809 93.1338 59.2578 93.7218 59.2578 94.1595C59.2578 94.5971 59.4219 95.1168 59.7501 95.4587C60.0784 95.8006 60.5023 95.9784 61.0083 95.9784C61.5144 95.9784 62.499 95.7048 63.3059 95.1441L63.388 94.98L63.8256 93.5714H65.4941L65.8497 93.1201L66.0411 93.5714H67.7643L67.9694 93.1201L68.243 93.5714H78.2812L78.6094 93.1885L78.7325 93.5714H83.4233L83.7652 93.1748L83.9567 93.5714H89.1126L89.1809 93.3799L89.3724 92.8329V92.7919C89.5502 92.2859 89.6459 91.9166 89.6459 91.6567L89.4271 88.5523L89.6596 88.648L90.0699 87.7044ZM83.8199 90.6994L84.2439 90.6447C84.5038 90.6447 84.6268 90.7268 84.6268 90.9046C84.6268 91.0824 84.5448 91.1781 84.367 91.3969C84.2849 91.096 84.1071 90.8635 83.8199 90.6994Z" fill="white"/>
<path d="M64.7151 98.1391C64.469 98.2759 64.1407 98.4673 63.7305 98.6998C64.1818 98.6451 64.5921 98.5767 64.9476 98.481C65.8229 98.2485 66.4383 97.7562 66.8076 96.9903L66.958 96.6895C66.3699 97.0997 65.8229 97.469 65.3032 97.7835L64.7151 98.1391Z" fill="white"/>
<path d="M63.7305 97.5514C64.0587 97.5104 64.3049 97.483 64.4553 97.4557C64.9887 97.3463 65.44 97.1821 65.7682 96.977C66.2332 96.6898 66.5751 96.3069 66.8076 95.8419L66.958 95.541C66.6161 95.7872 66.3426 95.9786 66.1374 96.1154C65.0707 96.7582 64.2775 97.2368 63.7305 97.5514Z" fill="white"/>
<path d="M5.94907 119.583H3.73355C3.46003 119.583 3.22754 119.365 3.22754 119.077V111.337H0.506012C0.232492 111.337 0 111.118 0 110.831V108.985C0 108.711 0.218816 108.479 0.506012 108.479H9.16293C9.43645 108.479 9.66895 108.697 9.66895 108.985V110.831C9.66895 111.104 9.45013 111.337 9.16293 111.337H6.44141V119.077C6.44141 119.351 6.22259 119.583 5.93539 119.583H5.94907ZM4.22589 118.585H5.44306V110.844C5.44306 110.571 5.66187 110.338 5.94907 110.338H8.6706V109.491H1.01203V110.338H3.73355C4.00707 110.338 4.23957 110.557 4.23957 110.844V118.585H4.22589Z" fill="white"/>
<path d="M20.323 119.583H17.5468C17.3827 119.583 17.2459 119.515 17.1502 119.378L14.5244 115.864V119.077C14.5244 119.351 14.3056 119.583 14.0184 119.583H11.8029C11.5294 119.583 11.2969 119.365 11.2969 119.077V108.985C11.2969 108.711 11.5157 108.479 11.8029 108.479H14.0184C14.2919 108.479 14.5244 108.697 14.5244 108.985V111.829L16.4254 108.725C16.5211 108.574 16.6716 108.492 16.8493 108.492H19.2837C19.4615 108.492 19.6256 108.588 19.7213 108.752C19.817 108.902 19.8034 109.108 19.7213 109.258L16.9998 113.703L20.7197 118.79C20.8291 118.941 20.8427 119.146 20.7607 119.31C20.6786 119.474 20.5008 119.583 20.3094 119.583H20.323ZM17.793 118.585H19.3247L15.9878 114.031C15.8647 113.867 15.8647 113.648 15.9604 113.47L18.3811 109.491H17.1229L14.4697 113.826C14.4424 113.881 14.3877 113.935 14.3466 113.963C14.374 113.99 14.4013 114.017 14.415 114.045L17.793 118.571V118.585ZM12.3089 118.585H13.5124V114.346C13.5124 114.181 13.5808 114.045 13.7039 113.949C13.5808 113.853 13.5124 113.716 13.5124 113.566V109.491H12.3089V118.585Z" fill="white"/>
<path d="M24.7938 119.583H22.5783C22.3048 119.583 22.0723 119.365 22.0723 119.077V108.985C22.0723 108.711 22.2911 108.479 22.5783 108.479H24.7938C25.0673 108.479 25.2998 108.697 25.2998 108.985V119.077C25.2998 119.351 25.081 119.583 24.7938 119.583ZM23.0706 118.585H24.2878V109.491H23.0706V118.585Z" fill="white"/>
<path d="M32.878 119.583H30.6625C30.389 119.583 30.1565 119.365 30.1565 119.077V114.51L26.7238 109.258C26.6281 109.108 26.6144 108.902 26.6965 108.738C26.7785 108.574 26.9563 108.479 27.1341 108.479H29.8283C30.0061 108.479 30.1702 108.574 30.2522 108.725L31.7566 111.186L33.2746 108.725C33.3704 108.574 33.5208 108.492 33.6986 108.492H36.3791C36.5569 108.492 36.7347 108.588 36.8167 108.752C36.8988 108.916 36.8988 109.108 36.7894 109.272L33.3567 114.523V119.091C33.3567 119.365 33.1379 119.597 32.8507 119.597L32.878 119.583ZM31.1685 118.585H32.372V114.359C32.372 114.263 32.3994 114.168 32.4541 114.086L35.4628 109.491H33.9995L32.2079 112.417C32.1122 112.568 31.9617 112.65 31.7839 112.65C31.6061 112.65 31.442 112.554 31.36 112.404L29.5821 109.477H28.1051L31.1138 114.072C31.1685 114.154 31.1959 114.25 31.1959 114.346V118.571L31.1685 118.585Z" fill="white"/>
<path d="M45.2678 119.583H38.7033C38.4298 119.583 38.1973 119.365 38.1973 119.077V108.985C38.1973 108.711 38.4161 108.479 38.7033 108.479H45.172C45.4456 108.479 45.678 108.697 45.678 108.985V110.831C45.678 111.104 45.4592 111.337 45.172 111.337H41.4248V112.445H44.9806C45.2541 112.445 45.4866 112.663 45.4866 112.951V114.811C45.4866 115.084 45.2678 115.317 44.9806 115.317H41.4248V116.739H45.2678C45.5413 116.739 45.7738 116.958 45.7738 117.245V119.091C45.7738 119.365 45.555 119.597 45.2678 119.597V119.583ZM39.2093 118.585H44.7618V117.737H40.9188C40.6453 117.737 40.4128 117.518 40.4128 117.231V114.797C40.4128 114.523 40.6316 114.291 40.9188 114.291H44.4746V113.443H40.9188C40.6453 113.443 40.4128 113.224 40.4128 112.937V110.817C40.4128 110.544 40.6316 110.311 40.9188 110.311H44.666V109.463H39.1956V118.558L39.2093 118.585Z" fill="white"/>
<path d="M53.0897 119.583H50.8742C50.6007 119.583 50.3682 119.365 50.3682 119.077V111.337H47.633C47.3594 111.337 47.127 111.118 47.127 110.831V108.985C47.127 108.711 47.3458 108.479 47.633 108.479H56.3036C56.5771 108.479 56.8096 108.697 56.8096 108.985V110.831C56.8096 111.104 56.5908 111.337 56.3036 111.337H53.582V119.077C53.582 119.351 53.3632 119.583 53.076 119.583H53.0897ZM51.3665 118.585H52.5837V110.844C52.5837 110.571 52.8025 110.338 53.0897 110.338H55.8112V109.491H48.139V110.338H50.8742C51.1477 110.338 51.3802 110.557 51.3802 110.844V118.585H51.3665Z" fill="white"/>
<path d="M68.271 119.72C65.1255 119.72 63.3203 117.901 63.3203 114.728V108.985C63.3203 108.711 63.5391 108.479 63.8263 108.479H66.0418C66.3154 108.479 66.5478 108.697 66.5478 108.985V114.783C66.5478 115.905 67.2043 116.616 68.2574 116.616C69.3104 116.616 70.0079 116.356 70.0079 114.619V108.985C70.0079 108.711 70.2267 108.479 70.5139 108.479H72.7294C73.0029 108.479 73.2354 108.697 73.2354 108.985V114.715C73.2354 117.888 71.4302 119.72 68.2984 119.72H68.271ZM64.3187 109.491V114.728C64.3187 118.024 66.4658 118.708 68.271 118.708C70.8831 118.708 72.2097 117.368 72.2097 114.715V109.491H71.0062V114.619C71.0062 116.835 69.5292 117.628 68.2574 117.628C66.9855 117.628 65.5495 116.465 65.5495 114.797V109.491H64.3323H64.3187Z" fill="white"/>
<path d="M85.4894 119.583H83.2739C83.0003 119.583 82.7679 119.365 82.7679 119.077V114.263L81.2635 116.246C81.1678 116.37 81.0173 116.438 80.8669 116.438H80.525C80.3746 116.438 80.2241 116.37 80.1284 116.246L78.6377 114.277V119.091C78.6377 119.365 78.4189 119.597 78.1317 119.597H75.9162C75.6427 119.597 75.4102 119.378 75.4102 119.091V108.998C75.4102 108.725 75.629 108.492 75.9162 108.492H77.8445C77.9949 108.492 78.1454 108.561 78.2411 108.684L80.6891 111.898L83.1371 108.684C83.2328 108.561 83.3833 108.492 83.5337 108.492H85.462C85.7356 108.492 85.968 108.711 85.968 108.998V119.091C85.968 119.365 85.7492 119.597 85.462 119.597L85.4894 119.583ZM83.7799 118.585H84.9971V109.491H83.8209L81.1267 113.033C80.9353 113.279 80.525 113.279 80.3335 113.033L77.6257 109.491H76.4359V118.585H77.653V112.786C77.653 112.568 77.7898 112.376 77.9949 112.308C78.2001 112.239 78.4326 112.308 78.5556 112.486L80.7165 115.344L82.8909 112.486C83.0277 112.321 83.2465 112.239 83.4517 112.308C83.6568 112.376 83.7936 112.568 83.7936 112.786V118.585H83.7799Z" fill="white"/>
<path d="M101.545 119.583H99.1651C98.96 119.583 98.7685 119.447 98.7001 119.255L98.0847 117.587H94.8162L94.2691 119.242C94.2007 119.447 94.0093 119.583 93.7905 119.583H91.4382C91.2741 119.583 91.1236 119.501 91.0279 119.378C90.9322 119.242 90.9048 119.077 90.9595 118.913L94.5426 108.82C94.611 108.615 94.8025 108.492 95.0213 108.492H97.5787C97.7839 108.492 97.9753 108.615 98.0437 108.807L101.996 118.9C102.051 119.05 102.037 119.228 101.941 119.365C101.846 119.501 101.695 119.583 101.531 119.583H101.545ZM99.507 118.585H100.806L97.2505 109.491H95.3906L92.163 118.585H93.4349L93.9819 116.93C94.0503 116.725 94.2418 116.588 94.4606 116.588H98.4403C98.6454 116.588 98.8369 116.725 98.9053 116.917L99.5207 118.585H99.507ZM97.7702 115.823H95.035C94.8709 115.823 94.7204 115.74 94.6247 115.617C94.529 115.481 94.5016 115.317 94.5563 115.166L95.8555 111.241C95.9239 111.036 96.1154 110.899 96.3205 110.899C96.5257 110.899 96.7171 111.036 96.7992 111.227L98.2352 115.152C98.2899 115.303 98.2625 115.481 98.1805 115.617C98.0847 115.754 97.9343 115.836 97.7702 115.836V115.823ZM95.7325 114.824H97.059L96.3615 112.923L95.7325 114.824Z" fill="white"/>
<path d="M110.666 119.583H103.883C103.609 119.583 103.377 119.365 103.377 119.077V108.985C103.377 108.711 103.596 108.479 103.883 108.479H106.098C106.372 108.479 106.604 108.697 106.604 108.985V116.739H110.666C110.94 116.739 111.172 116.958 111.172 117.245V119.091C111.172 119.365 110.953 119.597 110.666 119.597V119.583ZM104.389 118.585H110.16V117.737H106.098C105.825 117.737 105.592 117.518 105.592 117.231V109.477H104.375V118.571L104.389 118.585Z" fill="white"/>
<path d="M115.495 119.583H113.279C113.006 119.583 112.773 119.365 112.773 119.077V108.985C112.773 108.711 112.992 108.479 113.279 108.479H115.495C115.768 108.479 116.001 108.697 116.001 108.985V119.077C116.001 119.351 115.782 119.583 115.495 119.583ZM113.785 118.585H115.003V109.491H113.785V118.585Z" fill="white"/>
<path d="M24.0981 132.671H23.2502C22.9766 132.671 22.7441 132.452 22.7441 132.165V126.243C22.7441 125.969 22.963 125.737 23.2502 125.737H26.4093C26.6828 125.737 26.9153 125.956 26.9153 126.243V127.009C26.9153 127.282 26.6965 127.515 26.4093 127.515H24.6041V128.157H26.4093C26.6828 128.157 26.9153 128.376 26.9153 128.663V129.429C26.9153 129.703 26.6965 129.935 26.4093 129.935H24.6041V132.192C24.6041 132.465 24.3853 132.698 24.0981 132.698V132.671ZM23.7425 129.005V129.06C23.7425 129.06 23.7562 129.046 23.7698 129.033C23.7698 129.033 23.7562 129.019 23.7425 129.005Z" fill="white"/>
<path d="M31.0871 132.753C28.9946 132.753 27.4219 131.235 27.4219 129.211C27.4219 127.186 29.0083 125.668 31.1007 125.668C33.1932 125.668 34.7932 127.186 34.7932 129.211C34.7932 131.235 33.494 132.753 31.0871 132.753ZM31.1007 127.446C30.0613 127.446 29.2955 128.185 29.2955 129.211C29.2955 130.236 30.0477 130.961 31.1007 130.961C32.1538 130.961 32.9196 130.223 32.9196 129.211C32.9196 128.199 32.1538 127.446 31.1007 127.446Z" fill="white"/>
<path d="M39.1144 132.753C37.022 132.753 35.4492 131.235 35.4492 129.211C35.4492 127.186 37.0356 125.668 39.1281 125.668C41.2205 125.668 42.8206 127.159 42.8206 129.211C42.8206 131.262 41.5214 132.753 39.1144 132.753ZM39.1281 127.446C38.0887 127.446 37.3228 128.185 37.3228 129.211C37.3228 130.236 38.075 130.961 39.1281 130.961C40.1811 130.961 40.9333 130.223 40.9333 129.211C40.9333 128.199 40.1674 127.446 39.1281 127.446Z" fill="white"/>
<path d="M46.5536 132.671H44.2423C43.9688 132.671 43.7363 132.452 43.7363 132.165V126.243C43.7363 125.97 43.9551 125.737 44.2423 125.737H46.5536C48.9469 125.737 50.2051 127.474 50.2051 129.211C50.2051 130.948 48.9195 132.671 46.5536 132.671ZM45.5963 130.907H46.4442C48.2631 130.907 48.3178 129.389 48.3178 129.211C48.3178 128.131 47.6203 127.515 46.4032 127.515H45.5963V130.907Z" fill="white"/>
<path d="M55.7719 132.671H54.924C54.6505 132.671 54.418 132.452 54.418 132.165V126.243C54.418 125.969 54.6368 125.737 54.924 125.737H58.0968C58.3703 125.737 58.6028 125.956 58.6028 126.243V127.009C58.6028 127.282 58.384 127.515 58.0968 127.515H56.2779V128.157H58.0968C58.3703 128.157 58.6028 128.376 58.6028 128.663V129.429C58.6028 129.703 58.384 129.935 58.0968 129.935H56.2779V132.192C56.2779 132.465 56.0591 132.698 55.7719 132.698V132.671ZM55.4163 129.005V129.06C55.4163 129.06 55.43 129.046 55.4437 129.033C55.4437 129.033 55.43 129.019 55.4163 129.005Z" fill="white"/>
<path d="M62.7746 132.753C60.6821 132.753 59.1094 131.235 59.1094 129.211C59.1094 127.186 60.6958 125.668 62.8019 125.668C64.908 125.668 66.4944 127.159 66.4944 129.211C66.4944 131.262 65.1952 132.753 62.7882 132.753H62.7746ZM62.7882 127.446C61.7352 127.446 60.983 128.185 60.983 129.211C60.983 130.236 61.7489 130.961 62.7882 130.961C63.8276 130.961 64.5935 130.223 64.5935 129.211C64.5935 128.199 63.8413 127.446 62.7882 127.446Z" fill="white"/>
<path d="M72.484 132.671H71.4719C71.3078 132.671 71.1437 132.589 71.048 132.438L70.2684 131.221C69.7214 130.359 69.4479 130.154 69.2701 130.113V132.165C69.2701 132.438 69.0513 132.671 68.7641 132.671H67.9162C67.6427 132.671 67.4102 132.452 67.4102 132.165V126.243C67.4102 125.969 67.629 125.737 67.9162 125.737H69.4069C70.8975 125.737 71.8549 126.585 71.8549 127.898C71.8549 129.211 71.6224 129.046 71.1984 129.416C71.5266 129.785 71.8002 130.223 72.1147 130.729C72.3472 131.098 72.484 131.289 72.8259 131.768C72.9353 131.918 72.99 132.178 72.8942 132.342C72.8122 132.506 72.6754 132.657 72.484 132.657V132.671ZM68.4085 129.183V129.224C68.4085 129.224 68.4222 129.211 68.4359 129.197C68.4359 129.197 68.4222 129.183 68.4085 129.17V129.183ZM69.2564 128.335H69.2974C69.571 128.335 69.7761 128.281 69.8718 128.185C69.9402 128.116 69.9676 128.021 69.9676 127.87C69.9676 127.692 69.9676 127.474 69.2974 127.474H69.2564V128.335Z" fill="white"/>
<path d="M80.7981 132.671H77.2697C76.9962 132.671 76.7637 132.452 76.7637 132.165V126.243C76.7637 125.97 76.9825 125.737 77.2697 125.737H78.1176C78.3911 125.737 78.6236 125.956 78.6236 126.243V130.907H80.7981C81.0716 130.907 81.3041 131.126 81.3041 131.413V132.179C81.3041 132.452 81.0853 132.685 80.7981 132.685V132.671Z" fill="white"/>
<path d="M83.2602 125.737H82.4259C82.1465 125.737 81.9199 125.964 81.9199 126.243V132.165C81.9199 132.444 82.1465 132.671 82.4259 132.671H83.2602C83.5396 132.671 83.7662 132.444 83.7662 132.165V126.243C83.7662 125.964 83.5396 125.737 83.2602 125.737Z" fill="white"/>
<path d="M86.311 132.671H85.463C85.1895 132.671 84.957 132.452 84.957 132.165V126.243C84.957 125.97 85.1758 125.737 85.463 125.737H88.6359C88.9094 125.737 89.1419 125.956 89.1419 126.243V127.009C89.1419 127.283 88.9231 127.515 88.6359 127.515H86.817V128.158H88.6359C88.9094 128.158 89.1419 128.377 89.1419 128.664V129.43C89.1419 129.703 88.9231 129.936 88.6359 129.936H86.817V132.192C86.817 132.466 86.5982 132.698 86.311 132.698V132.671ZM85.9691 129.006V129.061C85.9691 129.061 85.9827 129.047 85.9964 129.033C85.9964 129.033 85.9827 129.02 85.9691 129.006Z" fill="white"/>
<path d="M93.8449 132.671H90.3986C90.1251 132.671 89.8926 132.452 89.8926 132.165V126.243C89.8926 125.97 90.1114 125.737 90.3986 125.737H93.7629C94.0364 125.737 94.2689 125.956 94.2689 126.243V127.009C94.2689 127.283 94.0501 127.515 93.7629 127.515H91.7525V128.308H93.6672C93.9407 128.308 94.1732 128.527 94.1732 128.814V129.58C94.1732 129.854 93.9544 130.086 93.6672 130.086H91.7525V130.921H93.8449C94.1185 130.921 94.351 131.139 94.351 131.427V132.192C94.351 132.466 94.1321 132.698 93.8449 132.698V132.671ZM90.9046 129.156V129.211C90.9046 129.211 90.9183 129.197 90.932 129.184C90.932 129.184 90.9183 129.17 90.9046 129.156Z" fill="white"/>
<path d="M9.16278 110.831H5.94891V119.077H3.7334V110.831H0.505859V108.984H9.16278V110.831Z" fill="#041E42"/>
<path d="M16.3979 113.73L20.3229 119.077H17.5467L14.0182 114.345V119.077H11.8027V108.984H14.0182V113.566H14.0456L16.8492 108.984H19.2835L16.3979 113.73Z" fill="#041E42"/>
<path d="M24.7936 108.984H22.5781V119.077H24.7936V108.984Z" fill="#041E42"/>
<path d="M30.6612 114.359L27.1465 108.984H29.8407L31.769 112.157L33.711 108.984H36.3915L32.8767 114.359V119.077H30.6612V114.359Z" fill="#041E42"/>
<path d="M45.2676 119.077H38.7031V108.984H45.1719V110.831H40.9186V112.95H44.9804V114.81H40.9186V117.231H45.2676V119.077Z" fill="#041E42"/>
<path d="M56.3171 110.831H53.0895V119.077H50.874V110.831H47.6328V108.984H56.3171V110.831Z" fill="#041E42"/>
<path d="M72.7019 108.984V114.715C72.7019 118.052 70.6915 119.214 68.2572 119.214C65.8229 119.214 63.8125 117.846 63.8125 114.728V108.984H66.028V114.783C66.028 116.233 66.958 117.108 68.2299 117.108C69.5017 117.108 70.4864 116.41 70.4864 114.605V108.984H72.7019Z" fill="#041E42"/>
<path d="M83.5609 108.984H85.4892V119.077H83.2737V112.773L80.8804 115.945H80.5385L78.1452 112.773V119.077H75.916V108.984H77.858L80.7163 112.732L83.5609 108.984Z" fill="#041E42"/>
<path d="M101.544 119.077H99.1645L98.4396 117.081H94.4599L93.8034 119.077H91.4512L95.0343 108.984H97.5917L101.544 119.077ZM96.3472 111.405L95.048 115.33H97.7832L96.3472 111.405Z" fill="#041E42"/>
<path d="M110.666 119.077H103.883V108.984H106.098V117.231H110.666V119.077Z" fill="#041E42"/>
<path d="M115.495 108.984H113.279V119.077H115.495V108.984Z" fill="#041E42"/>
<path d="M26.4092 127.009H24.0979V128.65H26.4092V129.416H24.0979V132.165H23.25V126.243H26.4092V127.009Z" fill="#041E42"/>
<path d="M31.1006 126.161C33.0562 126.161 34.2871 127.542 34.2871 129.197C34.2871 130.852 33.0836 132.247 31.0732 132.247C29.0628 132.247 27.9141 130.811 27.9141 129.197C27.9141 127.583 29.1723 126.161 31.0869 126.161M31.1006 131.467C32.4271 131.467 33.4118 130.51 33.4118 129.211C33.4118 127.912 32.4271 126.954 31.1006 126.954C29.774 126.954 28.803 127.912 28.803 129.211C28.803 130.51 29.7877 131.467 31.1006 131.467Z" fill="#041E42"/>
<path d="M39.1279 126.161C41.0836 126.161 42.3144 127.542 42.3144 129.197C42.3144 130.852 41.1109 132.247 39.1142 132.247C37.1175 132.247 35.9414 130.811 35.9414 129.197C35.9414 127.583 37.1996 126.161 39.1279 126.161ZM39.1279 131.467C40.4545 131.467 41.4392 130.51 41.4392 129.211C41.4392 127.912 40.4545 126.954 39.1279 126.954C37.8013 126.954 36.8167 127.912 36.8167 129.211C36.8167 130.51 37.8013 131.467 39.1279 131.467Z" fill="#041E42"/>
<path d="M44.2285 126.243H46.5398C48.7279 126.243 49.6989 127.802 49.6989 129.211C49.6989 130.619 48.5091 132.179 46.5534 132.179H44.2422V126.257L44.2285 126.243ZM45.0901 131.399H46.444C48.3724 131.399 48.8237 129.922 48.8237 129.197C48.8237 128.007 48.0715 126.995 46.403 126.995H45.0901V131.399Z" fill="#041E42"/>
<path d="M58.0967 127.009H55.7717V128.65H58.0967V129.416H55.7717V132.165H54.9238V126.243H58.0967V127.009Z" fill="#041E42"/>
<path d="M62.7881 126.161C64.7437 126.161 65.9746 127.542 65.9746 129.197C65.9746 130.852 64.7711 132.247 62.7744 132.247C60.7777 132.247 59.6016 130.811 59.6016 129.197C59.6016 127.583 60.8734 126.161 62.7881 126.161ZM62.7881 131.467C64.1146 131.467 65.0993 130.51 65.0993 129.211C65.0993 127.912 64.1146 126.954 62.7881 126.954C61.4615 126.954 60.4768 127.912 60.4768 129.211C60.4768 130.51 61.4615 131.467 62.7881 131.467Z" fill="#041E42"/>
<path d="M69.393 126.243C70.5965 126.243 71.335 126.886 71.335 127.898C71.335 128.91 70.9794 129.101 70.3503 129.348C70.8837 129.703 71.2256 130.25 71.6769 130.989C71.9231 131.399 72.0735 131.604 72.4838 132.165H71.4718L70.6922 130.948C69.9127 129.731 69.5571 129.594 69.1195 129.594H68.7639V132.165H67.916V126.243H69.4067H69.393ZM68.7639 128.828H69.311C70.2273 128.828 70.4871 128.363 70.4734 127.857C70.4734 127.296 70.1315 126.968 69.311 126.968H68.7639V128.828Z" fill="#041E42"/>
<path d="M78.1311 131.399H80.7979V132.165H77.2695V126.243H78.1311V131.399Z" fill="#041E42"/>
<path d="M83.2737 126.243H82.4258V132.165H83.2737V126.243Z" fill="#041E42"/>
<path d="M88.6357 127.009H86.3108V128.65H88.6357V129.416H86.3108V132.165H85.4629V126.243H88.6357V127.009Z" fill="#041E42"/>
<path d="M93.7627 127.009H91.2463V128.801H93.667V129.566H91.2463V131.399H93.8448V132.165H90.3984V126.243H93.7627V127.009Z" fill="#041E42"/>
<path d="M95.6223 102.064H20.582V0H95.6087V102.064H95.6223ZM21.088 101.558H95.1163V0.492337H21.088V101.558Z" fill="white"/>
</svg>
