<svg width="28" height="28" viewBox="0 0 28 28" fill="none" xmlns="http://www.w3.org/2000/svg">
<g clip-path="url(#clip0_1732_29135)">
<path d="M16.6265 8.75009C16.6265 8.51802 16.7187 8.29546 16.8828 8.13137C17.0469 7.96727 17.2695 7.87509 17.5015 7.87509H27.1265C27.3586 7.87509 27.5811 7.96727 27.7452 8.13137C27.9093 8.29546 28.0015 8.51802 28.0015 8.75009C28.0015 8.98215 27.9093 9.20471 27.7452 9.3688C27.5811 9.5329 27.3586 9.62509 27.1265 9.62509H17.5015C17.2695 9.62509 17.0469 9.5329 16.8828 9.3688C16.7187 9.20471 16.6265 8.98215 16.6265 8.75009ZM27.1265 13.1251H17.5015C17.2695 13.1251 17.0469 13.2173 16.8828 13.3814C16.7187 13.5455 16.6265 13.768 16.6265 14.0001C16.6265 14.2322 16.7187 14.4547 16.8828 14.6188C17.0469 14.7829 17.2695 14.8751 17.5015 14.8751H27.1265C27.3586 14.8751 27.5811 14.7829 27.7452 14.6188C27.9093 14.4547 28.0015 14.2322 28.0015 14.0001C28.0015 13.768 27.9093 13.5455 27.7452 13.3814C27.5811 13.2173 27.3586 13.1251 27.1265 13.1251ZM27.1265 18.3751H20.1265C19.8945 18.3751 19.6719 18.4673 19.5078 18.6314C19.3437 18.7955 19.2515 19.018 19.2515 19.2501C19.2515 19.4822 19.3437 19.7047 19.5078 19.8688C19.6719 20.0329 19.8945 20.1251 20.1265 20.1251H27.1265C27.3586 20.1251 27.5811 20.0329 27.7452 19.8688C27.9093 19.7047 28.0015 19.4822 28.0015 19.2501C28.0015 19.018 27.9093 18.7955 27.7452 18.6314C27.5811 18.4673 27.3586 18.3751 27.1265 18.3751ZM16.5992 20.7813C16.6278 20.8927 16.6342 21.0085 16.618 21.1223C16.6018 21.2361 16.5634 21.3456 16.5049 21.4445C16.4464 21.5434 16.3689 21.6299 16.277 21.6989C16.1851 21.7679 16.0805 21.8181 15.9692 21.8466C15.8979 21.8659 15.8243 21.8754 15.7504 21.8751C15.5564 21.8752 15.3678 21.8108 15.2143 21.692C15.0609 21.5732 14.9513 21.4067 14.9028 21.2188C14.229 18.6004 11.5843 16.6251 8.75043 16.6251C5.91652 16.6251 3.27184 18.5993 2.59809 21.2188C2.54007 21.4436 2.39512 21.6362 2.19513 21.7541C1.99514 21.8721 1.75649 21.9058 1.53168 21.8477C1.30687 21.7897 1.11431 21.6448 0.996367 21.4448C0.878424 21.2448 0.844757 21.0061 0.902773 20.7813C1.51418 18.4068 3.29152 16.484 5.54684 15.5313C4.67843 14.8625 4.04117 13.9386 3.72441 12.8892C3.40766 11.8398 3.4273 10.7176 3.78059 9.67998C4.13388 8.64234 4.80309 7.7413 5.69437 7.10323C6.58565 6.46516 7.65429 6.12207 8.75043 6.12207C9.84656 6.12207 10.9152 6.46516 11.8065 7.10323C12.6978 7.7413 13.367 8.64234 13.7203 9.67998C14.0736 10.7176 14.0932 11.8398 13.7764 12.8892C13.4597 13.9386 12.8224 14.8625 11.954 15.5313C14.2104 16.484 15.9878 18.4068 16.5992 20.7813ZM8.75152 14.8751C9.44376 14.8751 10.1204 14.6698 10.696 14.2852C11.2716 13.9006 11.7202 13.354 11.9851 12.7145C12.25 12.0749 12.3193 11.3712 12.1843 10.6923C12.0492 10.0133 11.7159 9.3897 11.2264 8.90021C10.7369 8.41073 10.1133 8.07739 9.43434 7.94234C8.75541 7.80729 8.05167 7.8766 7.41213 8.14151C6.77259 8.40641 6.22596 8.85502 5.84138 9.43059C5.45679 10.0062 5.25152 10.6829 5.25152 11.3751C5.25152 12.3033 5.62027 13.1936 6.27665 13.85C6.93303 14.5063 7.82327 14.8751 8.75152 14.8751Z" fill="#FAFAFA"/>
</g>
<defs>
<clipPath id="clip0_1732_29135">
<rect width="28" height="28" fill="white"/>
</clipPath>
</defs>
</svg>
