<svg width="28" height="28" viewBox="0 0 28 28" fill="none" xmlns="http://www.w3.org/2000/svg">
<g clip-path="url(#clip0_1439_5404)">
<path d="M19.0821 0.799805C19.1435 0.799805 19.205 0.799805 19.2699 0.799805C19.4206 2.66159 18.71 4.05271 17.8463 5.06011C16.9989 6.06056 15.8385 7.03087 13.9616 6.88364C13.8364 5.04852 14.5482 3.76057 15.4107 2.75549C16.2106 1.8188 17.6771 0.985287 19.0821 0.799805Z" fill="#FAFAFA"/>
<path d="M24.7632 19.9106C24.7632 19.9292 24.7632 19.9454 24.7632 19.9628C24.2357 21.5603 23.4834 22.9294 22.5652 24.1999C21.7271 25.3534 20.7 26.9057 18.866 26.9057C17.2813 26.9057 16.2287 25.8867 14.6045 25.8588C12.8865 25.831 11.9417 26.7109 10.3709 26.9323C10.1912 26.9323 10.0115 26.9323 9.83531 26.9323C8.68184 26.7654 7.75094 25.8519 7.07277 25.0288C5.07304 22.5967 3.52773 19.455 3.24023 15.4347C3.24023 15.0406 3.24023 14.6476 3.24023 14.2534C3.36196 11.3761 4.76003 9.03671 6.61834 7.90295C7.59908 7.30013 8.94731 6.78657 10.4486 7.01611C11.092 7.1158 11.7493 7.33606 12.3254 7.55401C12.8714 7.76383 13.5542 8.13596 14.2011 8.11625C14.6393 8.1035 15.0752 7.87512 15.5169 7.71399C16.8106 7.2468 18.0789 6.71122 19.7505 6.96278C21.7595 7.26651 23.1854 8.15914 24.0665 9.53635C22.367 10.6179 21.0234 12.2479 21.2529 15.0313C21.457 17.5596 22.9269 19.0389 24.7632 19.9106Z" fill="#FAFAFA"/>
</g>
<defs>
<clipPath id="clip0_1439_5404">
<rect width="26.4" height="26.4" fill="white" transform="translate(0.800781 0.799805)"/>
</clipPath>
</defs>
</svg>
