<svg width="72" height="72" viewBox="0 0 72 72" fill="none" xmlns="http://www.w3.org/2000/svg">
<path d="M65.5672 0V59.095L12.8899 64.8435L6.4375 65.5476V6.45244C6.4375 4.67058 7.15891 3.05677 8.32666 1.88902C9.49441 0.721266 11.1081 0 12.8899 0L65.5672 0Z" fill="#041E42"/>
<path d="M12.8899 0V64.8435L6.4375 65.5476V6.45244C6.4375 4.67058 7.15891 3.05677 8.32666 1.88902C9.49441 0.721266 11.1081 0 12.8899 0Z" fill="#040F1D"/>
<path d="M65.5676 59.0957H12.8897C9.32622 59.0957 6.4375 61.9844 6.4375 65.5479C6.4375 69.1113 9.32622 72 12.8897 72H65.5676V68.3782L62.9425 65.5477L65.5676 62.7172V59.0957Z" fill="#040F1D"/>
<path d="M12.893 68.3778C11.3322 68.3778 10.0625 67.1081 10.0625 65.5473C10.0625 63.9865 11.3322 62.7168 12.893 62.7168H65.571V68.3778H12.893Z" fill="#FAFAFA"/>
<path d="M29.6702 13.9895L24.9796 9.17536L20.2891 13.9895V0H29.6702V13.9895Z" fill="#5BC2E7"/>
<path d="M50.1248 18.0342H25.1112C22.6033 18.0342 20.5703 20.0672 20.5703 22.5751V36.431C20.5703 38.9389 22.6033 40.9719 25.1112 40.9719H50.1248C52.6327 40.9719 54.6657 38.9389 54.6657 36.431V22.5751C54.6657 20.0672 52.6327 18.0342 50.1248 18.0342Z" fill="#FAFAFA"/>
<path d="M50.1254 42.0581H25.1119C22.0089 42.0581 19.4844 39.5336 19.4844 36.4306V22.5747C19.4844 19.4718 22.0089 16.9473 25.1119 16.9473H50.1254C53.2285 16.9473 55.753 19.4718 55.753 22.5747V36.4306C55.753 39.5336 53.2285 42.0581 50.1254 42.0581ZM25.1119 19.1203C23.2071 19.1203 21.6575 20.67 21.6575 22.5747V36.4306C21.6575 38.3353 23.2071 39.885 25.1119 39.885H50.1254C52.0302 39.885 53.5799 38.3353 53.5799 36.4306V22.5747C53.5799 20.6699 52.0302 19.1203 50.1254 19.1203H25.1119Z" fill="#040F1D"/>
<path d="M47.8252 27.711H27.4146C26.8145 27.711 26.3281 27.2246 26.3281 26.6246C26.3281 26.0245 26.8145 25.5381 27.4146 25.5381H47.825C48.4251 25.5381 48.9115 26.0245 48.9115 26.6246C48.9117 27.2246 48.4252 27.711 47.8252 27.711Z" fill="#5BC2E7"/>
<path d="M47.8252 33.4679H27.4146C26.8145 33.4679 26.3281 32.9814 26.3281 32.3814C26.3281 31.7813 26.8145 31.2949 27.4146 31.2949H47.825C48.4251 31.2949 48.9115 31.7813 48.9115 32.3814C48.9115 32.9814 48.4252 33.4679 47.8252 33.4679Z" fill="#5BC2E7"/>
</svg>
