<svg width="18" height="19" viewBox="0 0 18 19" fill="none" xmlns="http://www.w3.org/2000/svg">
<path d="M5.74945 4.3672C6.12562 3.89891 6.21844 3.58251 6.17977 3.44329C6.15023 3.33852 6.01031 3.28438 6.00891 3.28438C5.88158 3.24254 5.77338 3.15661 5.70379 3.04206C5.6342 2.92752 5.6078 2.79189 5.62933 2.6596C5.65087 2.52732 5.71894 2.40707 5.82127 2.32052C5.9236 2.23397 6.05348 2.1868 6.1875 2.18751C6.24423 2.18757 6.30063 2.19611 6.35484 2.21282C6.42516 2.23462 7.05164 2.44696 7.25414 3.11001C7.42711 3.67743 7.21547 4.33696 6.62555 5.07102C6.24938 5.5393 6.15656 5.85571 6.19523 5.99493C6.22477 6.0997 6.36188 6.15243 6.36328 6.15313C6.49037 6.19491 6.59842 6.28061 6.66802 6.39486C6.73762 6.50911 6.76422 6.64442 6.74305 6.77652C6.72188 6.90861 6.65433 7.02884 6.55251 7.11562C6.45069 7.20239 6.32128 7.25004 6.1875 7.25001C6.13077 7.24994 6.07437 7.24141 6.02016 7.2247C5.94984 7.2029 5.32336 6.99055 5.12086 6.32751C4.94789 5.76009 5.15953 5.10055 5.74945 4.3672ZM7.93336 6.32821C8.13586 6.99126 8.76234 7.2036 8.83266 7.2254C8.8869 7.24188 8.94331 7.25017 9 7.25001C9.13378 7.25004 9.26319 7.20239 9.36501 7.11562C9.46683 7.02884 9.53439 6.90861 9.55555 6.77652C9.57672 6.64442 9.55012 6.50911 9.48052 6.39486C9.41092 6.28061 9.30287 6.19491 9.17578 6.15313C9.17578 6.15313 9.03516 6.0997 9.00773 5.99493C8.96906 5.8543 9.06187 5.5393 9.43805 5.07102C10.028 4.33696 10.2396 3.67743 10.0666 3.11001C9.86414 2.44696 9.23836 2.23462 9.16734 2.21282C9.11313 2.19611 9.05673 2.18757 9 2.18751C8.86635 2.18731 8.737 2.23471 8.63512 2.3212C8.53324 2.4077 8.46548 2.52765 8.44399 2.65955C8.4225 2.79146 8.44868 2.92671 8.51783 3.04108C8.58699 3.15544 8.69461 3.24144 8.82141 3.28368C8.82141 3.28368 8.96203 3.33782 8.99227 3.44259C9.03094 3.58321 8.93812 3.89821 8.56195 4.36649C7.97203 5.10055 7.76039 5.76009 7.93336 6.32751V6.32821ZM10.7459 6.32821C10.9484 6.99126 11.5748 7.2036 11.6452 7.2254C11.6994 7.24188 11.7558 7.25017 11.8125 7.25001C11.9463 7.25004 12.0757 7.20239 12.1775 7.11562C12.2793 7.02884 12.3469 6.90861 12.3681 6.77652C12.3892 6.64442 12.3626 6.50911 12.293 6.39486C12.2234 6.28061 12.1154 6.19491 11.9883 6.15313C11.9883 6.15313 11.8477 6.0997 11.8202 5.99493C11.7816 5.8543 11.8744 5.5393 12.2505 5.07102C12.8405 4.33696 13.0521 3.67743 12.8791 3.11001C12.6766 2.44696 12.0509 2.23462 11.9798 2.21282C11.9256 2.19611 11.8692 2.18757 11.8125 2.18751C11.6789 2.18731 11.5495 2.23471 11.4476 2.3212C11.3457 2.4077 11.278 2.52765 11.2565 2.65955C11.235 2.79146 11.2612 2.92671 11.3303 3.04108C11.3995 3.15544 11.5071 3.24144 11.6339 3.28368C11.6339 3.28368 11.7745 3.33782 11.8048 3.44259C11.8434 3.58321 11.7506 3.89821 11.3745 4.36649C10.7845 5.10055 10.5729 5.76009 10.7459 6.32751V6.32821ZM15.75 8.37501H2.25C2.10082 8.37501 1.95774 8.43427 1.85225 8.53976C1.74676 8.64525 1.6875 8.78832 1.6875 8.93751C1.68997 10.2752 2.05811 11.5868 2.75211 12.7304C3.44611 13.874 4.43955 14.8061 5.625 15.4259V15.6875C5.625 15.9859 5.74353 16.272 5.9545 16.483C6.16548 16.694 6.45163 16.8125 6.75 16.8125H11.25C11.5484 16.8125 11.8345 16.694 12.0455 16.483C12.2565 16.272 12.375 15.9859 12.375 15.6875V15.4259C13.5605 14.8061 14.5539 13.874 15.2479 12.7304C15.9419 11.5868 16.31 10.2752 16.3125 8.93751C16.3125 8.78832 16.2532 8.64525 16.1477 8.53976C16.0423 8.43427 15.8992 8.37501 15.75 8.37501Z" fill="#FAFAFA"/>
</svg>
