<svg width="26" height="28" viewBox="0 0 26 28" fill="none" xmlns="http://www.w3.org/2000/svg">
<path d="M23.625 2.25H20.4375V1.1875C20.4375 0.905707 20.3256 0.635456 20.1263 0.436199C19.927 0.236942 19.6568 0.125 19.375 0.125C19.0932 0.125 18.823 0.236942 18.6237 0.436199C18.4244 0.635456 18.3125 0.905707 18.3125 1.1875V2.25H7.6875V1.1875C7.6875 0.905707 7.57556 0.635456 7.3763 0.436199C7.17704 0.236942 6.90679 0.125 6.625 0.125C6.34321 0.125 6.07296 0.236942 5.8737 0.436199C5.67444 0.635456 5.5625 0.905707 5.5625 1.1875V2.25H2.375C1.81141 2.25 1.27091 2.47388 0.872398 2.8724C0.473883 3.27091 0.25 3.81141 0.25 4.375V25.625C0.25 26.1886 0.473883 26.7291 0.872398 27.1276C1.27091 27.5261 1.81141 27.75 2.375 27.75H23.625C24.1886 27.75 24.7291 27.5261 25.1276 27.1276C25.5261 26.7291 25.75 26.1886 25.75 25.625V4.375C25.75 3.81141 25.5261 3.27091 25.1276 2.8724C24.7291 2.47388 24.1886 2.25 23.625 2.25ZM5.5625 4.375V5.4375C5.5625 5.71929 5.67444 5.98954 5.8737 6.1888C6.07296 6.38806 6.34321 6.5 6.625 6.5C6.90679 6.5 7.17704 6.38806 7.3763 6.1888C7.57556 5.98954 7.6875 5.71929 7.6875 5.4375V4.375H18.3125V5.4375C18.3125 5.71929 18.4244 5.98954 18.6237 6.1888C18.823 6.38806 19.0932 6.5 19.375 6.5C19.6568 6.5 19.927 6.38806 20.1263 6.1888C20.3256 5.98954 20.4375 5.71929 20.4375 5.4375V4.375H23.625V8.625H2.375V4.375H5.5625ZM23.625 25.625H2.375V10.75H23.625V25.625Z" fill="rgba(4, 30, 66, 1)"/>
</svg>
