<svg width="24" height="24" viewBox="0 0 24 24" fill="none" xmlns="http://www.w3.org/2000/svg">
<path d="M20.2949 9.79586L12.7949 17.2959C12.6904 17.4007 12.5662 17.484 12.4295 17.5407C12.2927 17.5975 12.1461 17.6267 11.998 17.6267C11.85 17.6267 11.7034 17.5975 11.5666 17.5407C11.4299 17.484 11.3057 17.4007 11.2012 17.2959L3.70117 9.79586C3.48983 9.58451 3.37109 9.29787 3.37109 8.99898C3.37109 8.7001 3.48983 8.41345 3.70117 8.20211C3.91251 7.99076 4.19916 7.87203 4.49805 7.87203C4.79693 7.87203 5.08358 7.99076 5.29492 8.20211L11.999 14.9062L18.703 8.20117C18.9144 7.98983 19.201 7.87109 19.4999 7.87109C19.7988 7.87109 20.0854 7.98983 20.2968 8.20117C20.5081 8.41252 20.6269 8.69916 20.6269 8.99805C20.6269 9.29693 20.5081 9.58358 20.2968 9.79492L20.2949 9.79586Z" fill="#041E42"/>
</svg>
