<svg width="28" height="28" viewBox="0 0 28 28" fill="none" xmlns="http://www.w3.org/2000/svg">
<path d="M26.2183 8.10906L23.4139 18.2022C23.2597 18.7535 22.9299 19.2396 22.4746 19.5866C22.0192 19.9336 21.4631 20.1226 20.8906 20.125H10.08C9.50582 20.1247 8.94747 19.9367 8.49012 19.5895C8.03277 19.2424 7.70152 18.7552 7.54688 18.2022L3.71 4.375H1.75C1.51794 4.375 1.29538 4.28281 1.13128 4.11872C0.967187 3.95462 0.875 3.73206 0.875 3.5C0.875 3.26794 0.967187 3.04538 1.13128 2.88128C1.29538 2.71719 1.51794 2.625 1.75 2.625H4.375C4.5663 2.62496 4.75234 2.68762 4.90464 2.80338C5.05694 2.91913 5.16711 3.08161 5.21828 3.26594L6.25516 7H25.375C25.5099 6.99997 25.643 7.03114 25.7638 7.09105C25.8847 7.15097 25.99 7.23802 26.0717 7.3454C26.1533 7.45277 26.2091 7.57758 26.2345 7.71005C26.2599 7.84253 26.2544 7.97908 26.2183 8.10906ZM9.625 21.875C9.27888 21.875 8.94054 21.9776 8.65275 22.1699C8.36497 22.3622 8.14066 22.6355 8.00821 22.9553C7.87576 23.2751 7.8411 23.6269 7.90863 23.9664C7.97615 24.3059 8.14282 24.6177 8.38756 24.8624C8.63231 25.1072 8.94413 25.2738 9.28359 25.3414C9.62306 25.4089 9.97493 25.3742 10.2947 25.2418C10.6145 25.1093 10.8878 24.885 11.0801 24.5972C11.2724 24.3095 11.375 23.9711 11.375 23.625C11.375 23.1609 11.1906 22.7158 10.8624 22.3876C10.5342 22.0594 10.0891 21.875 9.625 21.875ZM21 21.875C20.6539 21.875 20.3155 21.9776 20.0278 22.1699C19.74 22.3622 19.5157 22.6355 19.3832 22.9553C19.2508 23.2751 19.2161 23.6269 19.2836 23.9664C19.3512 24.3059 19.5178 24.6177 19.7626 24.8624C20.0073 25.1072 20.3191 25.2738 20.6586 25.3414C20.9981 25.4089 21.3499 25.3742 21.6697 25.2418C21.9895 25.1093 22.2628 24.885 22.4551 24.5972C22.6474 24.3095 22.75 23.9711 22.75 23.625C22.75 23.1609 22.5656 22.7158 22.2374 22.3876C21.9093 22.0594 21.4641 21.875 21 21.875Z" fill="#041E42"/>
<g clip-path="url(#clip0_938_64136)">
<path d="M18.8124 13.9974C18.8124 14.1134 18.7663 14.2247 18.6843 14.3068C18.6022 14.3888 18.491 14.4349 18.3749 14.4349H15.6041V17.2057C15.6041 17.3218 15.558 17.433 15.4759 17.5151C15.3939 17.5971 15.2826 17.6432 15.1666 17.6432C15.0506 17.6432 14.9393 17.5971 14.8572 17.5151C14.7752 17.433 14.7291 17.3218 14.7291 17.2057V14.4349H11.9583C11.8422 14.4349 11.7309 14.3888 11.6489 14.3068C11.5668 14.2247 11.5208 14.1134 11.5208 13.9974C11.5208 13.8814 11.5668 13.7701 11.6489 13.688C11.7309 13.606 11.8422 13.5599 11.9583 13.5599H14.7291V10.7891C14.7291 10.673 14.7752 10.5618 14.8572 10.4797C14.9393 10.3977 15.0506 10.3516 15.1666 10.3516C15.2826 10.3516 15.3939 10.3977 15.4759 10.4797C15.558 10.5618 15.6041 10.673 15.6041 10.7891V13.5599H18.3749C18.491 13.5599 18.6022 13.606 18.6843 13.688C18.7663 13.7701 18.8124 13.8814 18.8124 13.9974Z" fill="#041E42" stroke="#041E42" stroke-width="0.5"/>
</g>
<defs>
<clipPath id="clip0_938_64136">
<rect width="9.33333" height="9.33333" fill="#041E42" transform="translate(10.5 9.33203)"/>
</clipPath>
</defs>
</svg>
