<svg width="34" height="22" viewBox="0 0 34 22" fill="none" xmlns="http://www.w3.org/2000/svg">
<path d="M22.625 11C22.625 12.1125 22.2951 13.2001 21.677 14.1251C21.0589 15.0501 20.1804 15.7711 19.1526 16.1968C18.1248 16.6226 16.9938 16.734 15.9026 16.5169C14.8115 16.2999 13.8092 15.7641 13.0225 14.9775C12.2359 14.1908 11.7001 13.1885 11.4831 12.0974C11.266 11.0062 11.3774 9.87524 11.8032 8.84741C12.2289 7.81957 12.9499 6.94107 13.8749 6.32298C14.7999 5.7049 15.8875 5.375 17 5.375C18.4918 5.375 19.9226 5.96763 20.9775 7.02252C22.0324 8.07742 22.625 9.50816 22.625 11ZM33.875 2V20C33.875 20.2984 33.7565 20.5845 33.5455 20.7955C33.3345 21.0065 33.0484 21.125 32.75 21.125H1.25C0.951631 21.125 0.665483 21.0065 0.454505 20.7955C0.243526 20.5845 0.125 20.2984 0.125 20V2C0.125 1.70163 0.243526 1.41548 0.454505 1.20451C0.665483 0.993527 0.951631 0.875 1.25 0.875H32.75C33.0484 0.875 33.3345 0.993527 33.5455 1.20451C33.7565 1.41548 33.875 1.70163 33.875 2ZM31.625 8.51797C30.3476 8.14026 29.1849 7.44895 28.243 6.50701C27.3011 5.56507 26.6097 4.40243 26.232 3.125H7.76797C7.39026 4.40243 6.69895 5.56507 5.75701 6.50701C4.81507 7.44895 3.65243 8.14026 2.375 8.51797V13.482C3.65243 13.8597 4.81507 14.5511 5.75701 15.493C6.69895 16.4349 7.39026 17.5976 7.76797 18.875H26.232C26.6097 17.5976 27.3011 16.4349 28.243 15.493C29.1849 14.5511 30.3476 13.8597 31.625 13.482V8.51797Z" fill="#FAFAFA"/>
</svg>
