<svg width="54" height="54" viewBox="0 0 54 54" fill="none" xmlns="http://www.w3.org/2000/svg">
<path d="M48.3027 41.7085C47.7777 41.1835 47.3694 40.5252 47.1361 39.8169C46.8444 38.9335 46.3527 38.1252 45.7194 37.4419C47.5361 34.2085 48.5111 30.5502 48.5111 26.8169C48.5111 24.4419 48.1111 22.1085 47.3611 19.8835C47.8277 19.4919 48.1277 18.9169 48.1277 18.2835L48.5027 11.6002C48.5194 11.2502 48.6694 10.9252 48.9361 10.6585L50.7944 8.64186C51.1027 8.3002 51.0861 7.7752 50.7444 7.46686C50.4111 7.15853 49.8777 7.1752 49.5694 7.51686L47.7361 9.50853C47.2027 10.0419 46.8777 10.7585 46.8361 11.5169L46.4611 18.2502C46.4611 18.5252 46.2361 18.7585 45.9527 18.7585C45.7111 18.7585 45.5027 18.5919 45.4611 18.3585L45.5861 15.4002C45.6027 15.0585 45.4027 14.7419 45.0861 14.6002C44.7694 14.4585 44.4027 14.5335 44.1611 14.7752L39.5111 19.4252C39.3694 19.5669 39.1444 19.5669 38.9944 19.4252C38.8527 19.2835 38.8527 19.0502 38.9944 18.9085L40.6861 17.2169C41.0111 16.8919 41.0111 16.3669 40.6861 16.0419C40.3611 15.7169 39.8361 15.7169 39.5111 16.0419L38.2444 17.3085L36.9694 18.5585C36.8277 18.6919 36.6027 18.6919 36.4694 18.5585C36.3277 18.4169 36.3277 18.1919 36.4694 18.0585L38.5694 15.9585V15.9502L38.9777 15.5419C39.3027 15.2169 39.3027 14.6919 38.9777 14.3669C38.6527 14.0419 38.1277 14.0419 37.8027 14.3669L35.5277 16.6252C35.4111 16.5919 35.2777 16.5419 35.1944 16.4585C35.1027 16.3669 35.0944 16.2585 35.0944 16.2085C35.0944 16.1585 35.1111 16.0502 35.1944 15.9585L37.7111 13.4419C37.7111 13.4419 37.7611 13.3585 37.7944 13.3169C37.8277 13.2669 37.8694 13.2169 37.8944 13.1669C37.9111 13.1169 37.9111 13.0669 37.9194 13.0252C37.9277 12.9669 37.9527 12.9169 37.9527 12.8585C37.9527 12.8002 37.9361 12.7502 37.9194 12.6919C37.9111 12.6419 37.9111 12.5919 37.8944 12.5419C37.8694 12.4919 37.8277 12.4419 37.7944 12.3919C37.7694 12.3502 37.7444 12.3002 37.7111 12.2669C37.6694 12.2252 37.6194 12.2085 37.5777 12.1752C37.5277 12.1419 37.4861 12.1002 37.4361 12.0835C37.3861 12.0585 37.3277 12.0585 37.2777 12.0502C37.2277 12.0419 37.1777 12.0169 37.1277 12.0169C37.0777 12.0169 37.0361 12.0335 36.9861 12.0419C36.9277 12.0502 36.8694 12.0502 36.8194 12.0752C36.7694 12.0919 36.7277 12.1335 36.6861 12.1585C36.6361 12.1919 36.5861 12.2085 36.5444 12.2502L34.8527 13.9252C34.7111 14.0585 34.4944 14.0585 34.3527 13.9252C34.2111 13.7919 34.2111 13.5585 34.3527 13.4252L38.4611 9.31686C38.9861 8.79186 39.6444 8.38353 40.3527 8.1502C41.3027 7.83353 42.1861 7.29186 42.8944 6.58353L45.3277 4.1502C45.6527 3.8252 45.6527 3.3002 45.3277 2.9752C45.0027 2.6502 44.4777 2.6502 44.1527 2.9752L41.7194 5.40853C41.1944 5.93353 40.5361 6.34186 39.8277 6.5752C38.9444 6.86686 38.1361 7.35853 37.4611 7.99186C34.2277 6.1752 30.5694 5.2002 26.8361 5.2002C24.1861 5.2002 21.6027 5.6752 19.1444 6.60853C18.8861 6.49186 18.5944 6.4252 18.2944 6.4252L11.6111 6.0502C11.2611 6.03353 10.9361 5.88353 10.6694 5.61686L8.65272 3.75853C8.31939 3.4502 7.78606 3.46686 7.47773 3.80853C7.16939 4.1502 7.18606 4.6752 7.52772 4.98353L9.51939 6.81686C10.0527 7.3502 10.7694 7.6752 11.5277 7.71686L18.2611 8.09186C18.5361 8.09186 18.7694 8.31686 18.7694 8.6002C18.7694 8.84186 18.6027 9.0502 18.3694 9.09186L15.4111 8.96686C15.0694 8.93353 14.7527 9.15019 14.6111 9.46686C14.4694 9.78353 14.5444 10.1502 14.7861 10.3919L19.4361 15.0419C19.5777 15.1835 19.5777 15.4169 19.4361 15.5585C19.2944 15.7002 19.0611 15.7002 18.9194 15.5585L17.2277 13.8669C16.9027 13.5419 16.3777 13.5419 16.0527 13.8669C15.7277 14.1919 15.7277 14.7169 16.0527 15.0419L17.3194 16.3085L18.5694 17.5835C18.7027 17.7252 18.7027 17.9419 18.5694 18.0835C18.4361 18.2252 18.2027 18.2252 18.0694 18.0835L15.9694 15.9835H15.9611L15.5527 15.5752C15.2277 15.2502 14.7027 15.2502 14.3777 15.5752C14.0527 15.9002 14.0527 16.4252 14.3777 16.7502L16.6361 19.0252C16.6027 19.1419 16.5527 19.2752 16.4694 19.3585C16.3777 19.4502 16.2694 19.4585 16.2194 19.4585C16.1694 19.4585 16.0611 19.4419 15.9694 19.3585L13.4527 16.8419C13.4527 16.8419 13.3611 16.7835 13.3194 16.7502C13.2694 16.7169 13.2277 16.6752 13.1777 16.6585C13.1277 16.6335 13.0694 16.6335 13.0194 16.6252C12.9694 16.6169 12.9194 16.5919 12.8694 16.5919C12.8194 16.5919 12.7777 16.6085 12.7277 16.6169C12.6694 16.6252 12.6111 16.6252 12.5611 16.6502C12.5111 16.6669 12.4694 16.7085 12.4277 16.7335C12.3777 16.7669 12.3277 16.7835 12.2861 16.8252C12.2527 16.8585 12.2361 16.9085 12.2027 16.9502C12.1694 17.0002 12.1277 17.0502 12.1027 17.1002C12.0861 17.1502 12.0861 17.2002 12.0777 17.2419C12.0694 17.3002 12.0444 17.3502 12.0444 17.4085C12.0444 17.4669 12.0611 17.5169 12.0777 17.5752C12.0861 17.6252 12.0861 17.6752 12.1027 17.7252C12.1277 17.7752 12.1694 17.8252 12.2027 17.8752C12.2277 17.9169 12.2527 17.9669 12.2861 18.0002L13.9611 19.6919C14.0944 19.8335 14.0944 20.0502 13.9611 20.1919C13.8277 20.3335 13.5944 20.3335 13.4611 20.1919L9.35273 16.0835C8.82772 15.5585 8.41939 14.9002 8.18606 14.1919C7.86939 13.2419 7.32772 12.3585 6.61939 11.6502L4.18606 9.21686C3.86106 8.89186 3.33606 8.89186 3.01106 9.21686C2.68606 9.54186 2.68606 10.0669 3.01106 10.3919L5.44439 12.8252C5.96939 13.3502 6.37772 14.0085 6.61106 14.7169C6.86106 15.4669 7.25273 16.1585 7.75273 16.7752C6.11939 19.8752 5.24439 23.3502 5.24439 26.8835C5.24439 29.2669 5.64439 31.5919 6.40272 33.8169C5.93606 34.2085 5.63606 34.7835 5.63606 35.4169L5.26106 42.1002C5.24439 42.4502 5.09439 42.7752 4.82772 43.0419L2.96939 45.0585C2.66106 45.4002 2.67772 45.9252 3.01939 46.2335C3.17772 46.3835 3.37772 46.4502 3.58606 46.4502C3.81106 46.4502 4.03606 46.3585 4.20272 46.1835L6.03606 44.1919C6.56939 43.6585 6.89439 42.9419 6.93606 42.1835L7.31106 35.4502C7.31106 35.1752 7.53606 34.9419 7.81939 34.9419C8.06106 34.9419 8.26939 35.1085 8.31106 35.3419L8.18606 38.3002C8.16939 38.6419 8.36939 38.9585 8.68606 39.1002C9.00273 39.2419 9.36939 39.1669 9.61106 38.9252L14.2611 34.2752C14.4027 34.1335 14.6361 34.1335 14.7777 34.2752C14.9194 34.4169 14.9194 34.6502 14.7777 34.7919L13.0861 36.4835C12.7611 36.8085 12.7611 37.3335 13.0861 37.6585C13.4111 37.9835 13.9361 37.9835 14.2611 37.6585L15.5277 36.3919L16.8027 35.1419C16.9444 35.0085 17.1611 35.0085 17.3027 35.1419C17.4444 35.2835 17.4444 35.5085 17.3027 35.6419L15.2027 37.7419V37.7502L14.7944 38.1585C14.4694 38.4835 14.4694 39.0085 14.7944 39.3335C15.1194 39.6585 15.6444 39.6585 15.9694 39.3335L18.2444 37.0752C18.3611 37.1085 18.4944 37.1585 18.5777 37.2419C18.6694 37.3335 18.6777 37.4419 18.6777 37.4919C18.6777 37.5419 18.6611 37.6502 18.5777 37.7419L16.0611 40.2585C16.0611 40.2585 16.0111 40.3419 15.9777 40.3835C15.9444 40.4335 15.9027 40.4835 15.8777 40.5335C15.8611 40.5835 15.8611 40.6335 15.8527 40.6752C15.8444 40.7335 15.8194 40.7835 15.8194 40.8419C15.8194 40.9002 15.8361 40.9502 15.8527 41.0085C15.8611 41.0585 15.8611 41.1085 15.8777 41.1585C15.9027 41.2085 15.9444 41.2585 15.9777 41.3085C16.0027 41.3502 16.0277 41.4002 16.0611 41.4335C16.1027 41.4752 16.1527 41.4919 16.1944 41.5252C16.2361 41.5585 16.2777 41.5919 16.3277 41.6169C16.3777 41.6419 16.4361 41.6419 16.4944 41.6502C16.5444 41.6585 16.5944 41.6752 16.6444 41.6752C16.6944 41.6752 16.7444 41.6585 16.7861 41.6502C16.8444 41.6419 16.9027 41.6419 16.9527 41.6169C17.0027 41.6002 17.0444 41.5585 17.0861 41.5252C17.1361 41.4919 17.1861 41.4752 17.2277 41.4335L18.9194 39.7585C19.0611 39.6252 19.2861 39.6252 19.4194 39.7585C19.5611 39.9002 19.5611 40.1252 19.4194 40.2585L19.3444 40.3335C19.3444 40.3335 19.2861 40.3919 19.2611 40.4169L15.3027 44.3669C14.7777 44.8919 14.1194 45.3002 13.4111 45.5335C12.4611 45.8502 11.5777 46.3919 10.8694 47.1002L8.43606 49.5335C8.11106 49.8585 8.11106 50.3835 8.43606 50.7085C8.60272 50.8752 8.81106 50.9502 9.02772 50.9502C9.24439 50.9502 9.45272 50.8669 9.61939 50.7085L12.0527 48.2752C12.5777 47.7502 13.2361 47.3419 13.9444 47.1085C14.8277 46.8169 15.6361 46.3252 16.3194 45.6919C19.5527 47.5085 23.2111 48.4835 26.9444 48.4835C29.3277 48.4835 31.6527 48.0835 33.8777 47.3252C34.2694 47.7919 34.8444 48.0919 35.4777 48.0919L42.1611 48.4669C42.5111 48.4835 42.8361 48.6335 43.1027 48.9002L45.1194 50.7585C45.2777 50.9085 45.4777 50.9752 45.6861 50.9752C45.9111 50.9752 46.1361 50.8835 46.3027 50.7085C46.6111 50.3669 46.5944 49.8419 46.2527 49.5335L44.2611 47.7002C43.7277 47.1669 43.0111 46.8419 42.2527 46.8002L35.5194 46.4252C35.2444 46.4252 35.0111 46.2002 35.0111 45.9169C35.0111 45.6752 35.1777 45.4669 35.4111 45.4252L38.3694 45.5502C38.7027 45.5669 39.0277 45.3669 39.1694 45.0502C39.3111 44.7335 39.2361 44.3669 38.9944 44.1252L34.3444 39.4752C34.2027 39.3335 34.2027 39.1002 34.3444 38.9585C34.4861 38.8169 34.7194 38.8169 34.8611 38.9585L36.5527 40.6502C36.8777 40.9752 37.4027 40.9752 37.7277 40.6502C38.0527 40.3252 38.0527 39.8002 37.7277 39.4752L36.4611 38.2085L35.2111 36.9335C35.0777 36.7919 35.0777 36.5752 35.2111 36.4335C35.3444 36.2919 35.5777 36.2919 35.7111 36.4335L37.8111 38.5335H37.8194L38.2277 38.9419C38.3944 39.1085 38.6027 39.1919 38.8194 39.1919C39.0361 39.1919 39.2444 39.1085 39.4027 38.9502C39.7277 38.6252 39.7277 38.1002 39.4027 37.7752L37.1444 35.5002C37.1777 35.3835 37.2277 35.2502 37.3111 35.1669C37.4944 34.9835 37.6361 34.9835 37.8111 35.1669L40.3277 37.6835C40.3277 37.6835 40.4194 37.7419 40.4611 37.7752C40.5027 37.8085 40.5444 37.8419 40.5944 37.8669C40.6444 37.8919 40.7027 37.8919 40.7611 37.9002C40.8111 37.9085 40.8611 37.9252 40.9111 37.9252C40.9611 37.9252 41.0111 37.9085 41.0611 37.9002C41.1194 37.8919 41.1777 37.8919 41.2277 37.8669C41.2777 37.8502 41.3194 37.8085 41.3611 37.7752C41.4111 37.7419 41.4611 37.7252 41.5027 37.6835C41.5361 37.6502 41.5527 37.6002 41.5861 37.5585C41.6194 37.5085 41.6611 37.4585 41.6861 37.4085C41.7027 37.3585 41.7027 37.3085 41.7111 37.2669C41.7194 37.2085 41.7444 37.1585 41.7444 37.1002C41.7444 37.0419 41.7277 36.9919 41.7111 36.9335C41.7027 36.8835 41.7027 36.8335 41.6861 36.7835C41.6611 36.7335 41.6194 36.6835 41.5861 36.6335C41.5611 36.5919 41.5361 36.5419 41.5027 36.5085L39.8277 34.8169C39.6944 34.6752 39.6944 34.4585 39.8277 34.3169C39.9611 34.1752 40.1944 34.1752 40.3277 34.3169L44.4361 38.4252C44.9611 38.9502 45.3694 39.6085 45.6027 40.3169C45.9194 41.2669 46.4611 42.1502 47.1694 42.8585L49.6027 45.2919C49.7694 45.4585 49.9777 45.5335 50.1944 45.5335C50.4111 45.5335 50.6194 45.4502 50.7861 45.2919C51.1111 44.9669 51.1111 44.4419 50.7861 44.1169L48.3527 41.6835L48.3027 41.7085ZM43.7861 18.4835C43.9027 19.5252 44.7361 20.3169 45.7611 20.4002C46.4611 22.4669 46.8361 24.6252 46.8361 26.8252C46.8361 30.1085 46.0194 33.3335 44.4944 36.2085L42.0111 33.7252C43.0027 31.5585 43.5111 29.2419 43.5111 26.8335C43.5111 24.2502 42.9361 21.7835 41.8027 19.4835L43.8277 17.4585L43.7861 18.3585V18.4835ZM18.3611 10.7085C18.3611 10.7085 18.4444 10.7085 18.4861 10.7085C19.5861 10.5835 20.4194 9.65853 20.4194 8.5502C20.4194 8.3252 20.3777 8.11686 20.3111 7.91686C25.4861 6.1502 31.3694 6.6002 36.2111 9.16686L33.7277 11.6502C31.5611 10.6585 29.2444 10.1502 26.8277 10.1502C24.0694 10.1502 21.3527 10.8419 18.9361 12.1419L17.4611 10.6669L18.3611 10.7085ZM9.88606 35.1669C9.76939 34.1252 8.93606 33.3335 7.91106 33.2502C7.21106 31.1835 6.83606 29.0252 6.83606 26.8252C6.83606 23.7585 7.55272 20.7252 8.89439 17.9919L11.4194 20.5169C10.6027 22.5169 10.1694 24.6335 10.1694 26.8252C10.1694 29.4085 10.7444 31.8752 11.8777 34.1669L9.85272 36.1919L9.89439 35.2919C9.89439 35.2502 9.89439 35.2085 9.89439 35.1669H9.88606ZM35.3027 43.7669C35.3027 43.7669 35.2194 43.7669 35.1777 43.7669C34.1361 43.8835 33.3444 44.7169 33.2611 45.7419C31.1944 46.4419 29.0361 46.8169 26.8361 46.8169C23.5527 46.8169 20.3277 46.0002 17.4527 44.4752L19.9361 41.9919C22.1027 42.9835 24.4194 43.4919 26.8277 43.4919C29.4111 43.4919 31.8777 42.9169 34.1777 41.7835L36.2027 43.8085L35.3027 43.7669ZM38.5861 33.1669C38.4527 33.3002 38.3527 33.4419 38.2694 33.5919C37.5361 33.2919 36.6277 33.4335 36.0527 34.0085C35.8611 34.2002 35.7111 34.4502 35.5944 34.7085C35.0027 34.6419 34.3861 34.8252 33.9361 35.2752C33.3444 35.8669 33.2027 36.7335 33.5027 37.4752C33.3444 37.5669 33.1944 37.6669 33.0611 37.8002C32.3194 38.5419 32.2777 39.7252 32.9361 40.5252C31.0111 41.3835 28.9611 41.8252 26.8277 41.8252C24.6944 41.8252 22.8194 41.4252 20.9694 40.6335C21.1944 39.9335 21.0444 39.1335 20.4861 38.5835C20.3611 38.4585 20.2194 38.3585 20.0694 38.2752C20.1777 38.0252 20.2361 37.7585 20.2361 37.4752C20.2361 36.9335 20.0277 36.4252 19.6444 36.0502C19.4527 35.8585 19.2027 35.7085 18.9444 35.5919C19.0111 35.0002 18.8277 34.3835 18.3777 33.9335C17.7944 33.3502 16.9194 33.2002 16.1777 33.5002C16.0861 33.3419 15.9861 33.1919 15.8527 33.0585C15.1111 32.3169 13.9277 32.2752 13.1277 32.9419C12.2694 31.0169 11.8277 28.9669 11.8277 26.8252C11.8277 25.0502 12.1527 23.3335 12.7527 21.6919C13.0361 21.8335 13.3361 21.9085 13.6444 21.9085C14.1611 21.9085 14.6777 21.7085 15.0777 21.3169C15.2027 21.1919 15.3027 21.0502 15.3861 20.9002C15.6361 21.0085 15.9027 21.0669 16.1861 21.0669C16.7277 21.0669 17.2361 20.8585 17.6111 20.4752C17.8027 20.2835 17.9527 20.0335 18.0694 19.7752C18.1444 19.7835 18.2194 19.8002 18.2944 19.8002C18.8111 19.8002 19.3277 19.6002 19.7277 19.2085C20.3194 18.6169 20.4611 17.7502 20.1611 17.0085C20.3194 16.9169 20.4694 16.8169 20.6027 16.6835C21.3944 15.8919 21.3944 14.6002 20.6027 13.8169L20.1777 13.3919C22.2361 12.3669 24.5194 11.8335 26.8361 11.8335C28.8777 11.8335 30.8444 12.2335 32.6944 13.0169C32.4694 13.7169 32.6194 14.5169 33.1777 15.0752C33.3027 15.2002 33.4444 15.3002 33.5944 15.3835C33.4861 15.6335 33.4277 15.9002 33.4277 16.1835C33.4277 16.7252 33.6361 17.2335 34.0194 17.6085C34.2111 17.8002 34.4611 17.9502 34.7194 18.0669C34.6527 18.6585 34.8361 19.2752 35.2861 19.7252C35.6777 20.1169 36.1944 20.3169 36.7111 20.3169C36.9694 20.3169 37.2361 20.2669 37.4777 20.1669C37.5694 20.3252 37.6694 20.4752 37.8027 20.6085C38.1944 21.0002 38.7194 21.2002 39.2361 21.2002C39.6944 21.2002 40.1527 21.0335 40.5194 20.7252C41.3777 22.6502 41.8194 24.7002 41.8194 26.8335C41.8194 28.9669 41.4194 30.8419 40.6277 32.6919C39.9277 32.4669 39.1277 32.6252 38.5777 33.1752L38.5861 33.1669ZM32.8277 20.7835C31.8361 20.6835 30.8527 21.0252 30.1444 21.7252L24.9361 26.8419L23.5444 25.4252C22.8444 24.7169 21.8777 24.3585 20.8777 24.4419C19.8777 24.5252 18.9777 25.0585 18.4027 25.8919C17.5027 27.1919 17.6944 28.9919 18.8527 30.1669L22.5111 33.8919C23.1444 34.5335 23.9861 34.8919 24.8861 34.8919C25.7861 34.8919 26.5944 34.5502 27.2194 33.9335L34.7277 26.5419C35.9027 25.3835 36.1277 23.5919 35.2444 22.2669C34.6861 21.4252 33.7944 20.8835 32.8027 20.7752L32.8277 20.7835ZM33.5861 25.3585L26.0694 32.7502C25.4361 33.3752 24.3361 33.3669 23.7111 32.7335L20.0444 29.0085C19.4527 28.4085 19.3444 27.4835 19.7777 26.8502C20.0777 26.4169 20.5111 26.1585 21.0194 26.1169H21.1694C21.6111 26.1169 22.0444 26.2919 22.3527 26.6169L23.7444 28.0335C24.3861 28.6919 25.4444 28.7002 26.1027 28.0502L31.3111 22.9335C31.6694 22.5835 32.1611 22.4169 32.6527 22.4669C33.1527 22.5169 33.5944 22.7835 33.8777 23.2169C34.3027 23.8585 34.1777 24.7919 33.5777 25.3752L33.5861 25.3585Z" fill="#FAFAFA"/>
</svg>
