<svg width="53" height="53" viewBox="0 0 53 53" fill="none" xmlns="http://www.w3.org/2000/svg">
<path d="M44.0537 10.2979H38.6846V5.32422C38.6846 3.90527 37.5293 2.75 36.1104 2.75H21.4033C21.3851 2.75 21.3698 2.75903 21.3519 2.76038C21.2856 2.76514 21.2219 2.77759 21.1592 2.79932C21.1306 2.80933 21.1036 2.81921 21.0765 2.83252C21.0188 2.8606 20.9666 2.89734 20.9169 2.94019C20.8995 2.9552 20.8801 2.96631 20.8642 2.98291C20.8589 2.9884 20.8519 2.99146 20.8467 2.99707L14.5117 10.002C14.4576 10.0619 14.417 10.1296 14.3853 10.2012C14.3779 10.2178 14.3755 10.2358 14.3693 10.2529C14.364 10.2678 14.3597 10.2827 14.3553 10.2979H8.94824C6.33203 10.2979 4.20312 12.4268 4.20312 15.043V39.3027C4.20312 41.9189 6.33203 44.0479 8.94824 44.0479H19.5851C19.3325 45.4617 18.8162 47.1252 17.5677 48.75H16.5742C16.1602 48.75 15.8242 49.0859 15.8242 49.5C15.8242 49.9141 16.1602 50.25 16.5742 50.25H17.9424H35.0596H36.4277C36.8418 50.25 37.1777 49.9141 37.1777 49.5C37.1777 49.0859 36.8418 48.75 36.4277 48.75H35.4342C34.1858 47.1252 33.6695 45.4617 33.4168 44.0479H44.0537C46.6699 44.0479 48.7988 41.9189 48.7988 39.3027V15.043C48.7988 12.4268 46.6699 10.2979 44.0537 10.2979ZM16.8926 32.2236H36.1104C37.5293 32.2236 38.6846 31.0684 38.6846 29.6494V15.5449H42.4277C43.0479 15.5449 43.5518 16.0488 43.5518 16.6689V37.6768C43.5518 38.2959 43.0479 38.7998 42.4277 38.7998H10.5742C9.9541 38.7998 9.4502 38.2959 9.4502 37.6768V16.6689C9.4502 16.0488 9.9541 15.5449 10.5742 15.5449H14.3184V29.6494C14.3184 31.0684 15.4736 32.2236 16.8926 32.2236ZM37.1846 5.32422V29.6494C37.1846 30.2422 36.7031 30.7236 36.1104 30.7236H16.8926C16.2998 30.7236 15.8184 30.2422 15.8184 29.6494V11.2549H21.4033C21.8174 11.2549 22.1533 10.9189 22.1533 10.5049V4.25H36.1104C36.7031 4.25 37.1846 4.73145 37.1846 5.32422ZM20.6533 5.44727V9.75488H16.7578L20.6533 5.44727ZM33.5947 48.75H19.4072C20.4521 47.084 20.8857 45.4404 21.1113 44.0479H31.8906C32.1162 45.4404 32.5498 47.084 33.5947 48.75ZM47.2988 39.3027C47.2988 41.0918 45.8428 42.5479 44.0537 42.5479H32.54H20.4619H8.94824C7.15918 42.5479 5.70312 41.0918 5.70312 39.3027V15.043C5.70312 13.2539 7.15918 11.7979 8.94824 11.7979H14.3184V14.0449H10.5742C9.12695 14.0449 7.9502 15.2217 7.9502 16.6689V37.6768C7.9502 39.123 9.12695 40.2998 10.5742 40.2998H42.4277C43.875 40.2998 45.0518 39.123 45.0518 37.6768V16.6689C45.0518 15.2217 43.875 14.0449 42.4277 14.0449H38.6846V11.7979H44.0537C45.8428 11.7979 47.2988 13.2539 47.2988 15.043V39.3027Z" fill="#FAFAFA"/>
<path d="M31.5439 18.9893H19.125C18.7109 18.9893 18.375 19.3252 18.375 19.7393C18.375 20.1533 18.7109 20.4893 19.125 20.4893H31.5439C31.958 20.4893 32.2939 20.1533 32.2939 19.7393C32.2939 19.3252 31.958 18.9893 31.5439 18.9893Z" fill="#FAFAFA"/>
<path d="M31.5439 24.3223H19.125C18.7109 24.3223 18.375 24.6582 18.375 25.0723C18.375 25.4863 18.7109 25.8223 19.125 25.8223H31.5439C31.958 25.8223 32.2939 25.4863 32.2939 25.0723C32.2939 24.6582 31.958 24.3223 31.5439 24.3223Z" fill="#FAFAFA"/>
<path d="M26.0156 9.82422H31.541C31.9551 9.82422 32.291 9.48828 32.291 9.07422C32.291 8.66016 31.9551 8.32422 31.541 8.32422H26.0156C25.6016 8.32422 25.2656 8.66016 25.2656 9.07422C25.2656 9.48828 25.6016 9.82422 26.0156 9.82422Z" fill="#FAFAFA"/>
<path d="M31.5439 13.6562H19.125C18.7109 13.6562 18.375 13.9922 18.375 14.4062C18.375 14.8203 18.7109 15.1562 19.125 15.1562H31.5439C31.958 15.1562 32.2939 14.8203 32.2939 14.4062C32.2939 13.9922 31.958 13.6562 31.5439 13.6562Z" fill="#FAFAFA"/>
<path d="M34.8486 9.83301C35.2627 9.83301 35.6025 9.49219 35.6025 9.07812C35.6025 8.66406 35.2627 8.32422 34.8486 8.32422C34.4346 8.32422 34.0938 8.66406 34.0938 9.07812C34.0938 9.49219 34.4346 9.83301 34.8486 9.83301Z" fill="#FAFAFA"/>
<path d="M34.8486 15.4385C35.2627 15.4385 35.6025 15.0977 35.6025 14.6836C35.6025 14.2695 35.2627 13.9297 34.8486 13.9297C34.4346 13.9297 34.0938 14.2695 34.0938 14.6836C34.0938 15.0977 34.4346 15.4385 34.8486 15.4385Z" fill="#FAFAFA"/>
<path d="M34.8486 21.0439C35.2627 21.0439 35.6025 20.7031 35.6025 20.2891C35.6025 19.875 35.2627 19.5352 34.8486 19.5352C34.4346 19.5352 34.0938 19.875 34.0938 20.2891C34.0938 20.7031 34.4346 21.0439 34.8486 21.0439Z" fill="#FAFAFA"/>
<path d="M34.8486 26.6494C35.2627 26.6494 35.6025 26.3086 35.6025 25.8945C35.6025 25.4805 35.2627 25.1406 34.8486 25.1406C34.4346 25.1406 34.0938 25.4805 34.0938 25.8945C34.0938 26.3086 34.4346 26.6494 34.8486 26.6494Z" fill="#FAFAFA"/>
</svg>
