<svg width="26" height="26" viewBox="0 0 26 26" fill="none" xmlns="http://www.w3.org/2000/svg">
<g opacity="0.5">
<path d="M22.75 4.46875H3.25C2.71128 4.46875 2.19462 4.68276 1.81369 5.06369C1.43276 5.44462 1.21875 5.96128 1.21875 6.5V19.5C1.21875 20.0387 1.43276 20.5554 1.81369 20.9363C2.19462 21.3172 2.71128 21.5312 3.25 21.5312H22.75C23.2887 21.5312 23.8054 21.3172 24.1863 20.9363C24.5672 20.5554 24.7812 20.0387 24.7812 19.5V6.5C24.7812 5.96128 24.5672 5.44462 24.1863 5.06369C23.8054 4.68276 23.2887 4.46875 22.75 4.46875ZM22.3438 6.90625V8.9375H3.65625V6.90625H22.3438ZM3.65625 19.0938V11.375H22.3438V19.0938H3.65625ZM21.125 16.6562C21.125 16.9795 20.9966 17.2895 20.768 17.518C20.5395 17.7466 20.2295 17.875 19.9062 17.875H16.6562C16.333 17.875 16.023 17.7466 15.7945 17.518C15.5659 17.2895 15.4375 16.9795 15.4375 16.6562C15.4375 16.333 15.5659 16.023 15.7945 15.7945C16.023 15.5659 16.333 15.4375 16.6562 15.4375H19.9062C20.2295 15.4375 20.5395 15.5659 20.768 15.7945C20.9966 16.023 21.125 16.333 21.125 16.6562ZM14.2188 16.6562C14.2188 16.9795 14.0903 17.2895 13.8618 17.518C13.6332 17.7466 13.3232 17.875 13 17.875H11.7812C11.458 17.875 11.148 17.7466 10.9195 17.518C10.6909 17.2895 10.5625 16.9795 10.5625 16.6562C10.5625 16.333 10.6909 16.023 10.9195 15.7945C11.148 15.5659 11.458 15.4375 11.7812 15.4375H13C13.3232 15.4375 13.6332 15.5659 13.8618 15.7945C14.0903 16.023 14.2188 16.333 14.2188 16.6562Z" fill="#041E42"/>
</g>
</svg>
