<svg width="48" height="48" viewBox="0 0 48 48" fill="none" xmlns="http://www.w3.org/2000/svg">
<g clip-path="url(#clip0_1352_12536)">
<path d="M4.70312 19.7637L8.46841 47.0622H39.5323L43.2976 19.7637C40.0815 19.7637 40.0815 21.6464 36.8654 21.6464C33.6494 21.6464 33.6494 19.7637 30.4335 19.7637C27.2173 19.7637 27.2173 21.6464 24.0013 21.6464C20.785 21.6464 20.785 19.7637 17.5688 19.7637C14.3523 19.7637 14.3523 21.6464 11.1361 21.6464C7.91978 21.6464 7.91959 19.7637 4.70312 19.7637Z" stroke="#FAFAFA" stroke-width="2" stroke-miterlimit="10" stroke-linecap="round" stroke-linejoin="round"/>
<path d="M20.1236 20.3383C19.9287 19.6089 19.7141 18.8689 19.4815 18.1243C16.4533 8.45036 11.3842 1.4252 8.15923 2.43433C5.0877 3.39639 4.79782 11.2997 7.39395 20.4089" stroke="#FAFAFA" stroke-width="2" stroke-miterlimit="10" stroke-linecap="round" stroke-linejoin="round"/>
<path d="M12.32 10.9961L9.625 11.8397" stroke="#FAFAFA" stroke-width="2" stroke-miterlimit="10" stroke-linecap="round" stroke-linejoin="round"/>
<path d="M13.7263 15.4883L11.0312 16.3318" stroke="#FAFAFA" stroke-width="2" stroke-miterlimit="10" stroke-linecap="round" stroke-linejoin="round"/>
<path d="M24.1251 7.39453L23.7289 8.75006C23.3149 10.1647 22.2603 11.3101 20.8644 11.8347C19.6464 12.2913 18.6787 13.2289 18.1797 14.414" stroke="#FAFAFA" stroke-width="2" stroke-miterlimit="10" stroke-linecap="round" stroke-linejoin="round"/>
<path d="M29.5391 8.98145L29.1428 10.337C28.7267 11.7584 29.0035 13.2936 29.892 14.4789C30.7823 15.6679 31.0559 17.2058 30.6413 18.6216L30.3062 19.7652" stroke="#FAFAFA" stroke-width="2" stroke-miterlimit="10" stroke-linecap="round" stroke-linejoin="round"/>
<path d="M24.12 7.39504L29.5406 8.98139C30.5385 9.27332 31.5842 8.70117 31.8762 7.70329C32.1682 6.70532 31.596 5.65964 30.5981 5.36761L25.1775 3.78136C24.1795 3.48932 23.1339 4.06148 22.8419 5.05945C22.5499 6.05732 23.122 7.1031 24.12 7.39504Z" stroke="#FAFAFA" stroke-width="2" stroke-miterlimit="10" stroke-linecap="round" stroke-linejoin="round"/>
<path d="M41.2551 20.1062C41.3596 19.5066 41.3813 18.9277 41.3285 18.3751C41.0932 15.9088 38.61 14.3735 36.2453 15.1134C35.2466 15.4245 34.1547 15.1576 33.4139 14.4187C32.2842 13.2928 30.6755 12.9794 29.3125 13.4539" stroke="#FAFAFA" stroke-width="2" stroke-miterlimit="10" stroke-linecap="round" stroke-linejoin="round"/>
<path d="M35.7613 10.4639L34.7344 15.16" stroke="#FAFAFA" stroke-width="2" stroke-miterlimit="10" stroke-linecap="round" stroke-linejoin="round"/>
<path d="M22.9268 4.83928C22.4099 4.18228 21.608 3.76153 20.7081 3.76153C20.7081 2.20163 19.4439 0.9375 17.8841 0.9375C16.3243 0.9375 15.0601 2.20163 15.0601 3.76153C14.1386 3.76153 13.3197 4.203 12.8047 4.88634" stroke="#FAFAFA" stroke-width="2" stroke-miterlimit="10" stroke-linecap="round" stroke-linejoin="round"/>
<path d="M40.1832 42.3555H7.82031" stroke="#FAFAFA" stroke-width="2" stroke-miterlimit="10" stroke-linecap="round" stroke-linejoin="round"/>
<path d="M24.0577 27.483C24.0577 27.483 25.8415 24.8901 29.2724 24.9525C32.3313 25.0081 34.3904 27.7408 34.3333 30.8787C34.2673 34.5109 31.3155 38.7561 23.7872 42.3557C16.3947 38.4849 13.5992 34.1351 13.6652 30.503C13.7223 27.3651 15.8795 24.7089 18.9383 24.7645C22.3692 24.8269 24.0577 27.483 24.0577 27.483Z" stroke="#FAFAFA" stroke-width="2" stroke-miterlimit="10" stroke-linecap="round" stroke-linejoin="round"/>
</g>
<defs>
<clipPath id="clip0_1352_12536">
<rect width="48" height="48" fill="white"/>
</clipPath>
</defs>
</svg>
