<svg width="45" height="45" viewBox="0 0 45 45" fill="none" xmlns="http://www.w3.org/2000/svg">
<g clip-path="url(#clip0_938_64337)">
<path d="M34.118 8.67277C34.4757 8.1667 34.8611 7.73943 35.299 7.38918C36.2029 6.66626 37.2607 6.3047 38.645 6.3047C40.1866 6.3047 41.5835 6.93035 42.5946 7.94154C43.6058 8.95274 44.2315 10.3496 44.2315 11.8912C44.2315 15.3851 42.1147 16.8992 39.262 18.94C38.012 19.8342 36.6018 20.843 35.1835 22.2062C34.6747 22.6955 34.0629 23.2203 33.3673 22.5247C32.0685 21.1848 30.4801 20.0246 28.9641 18.94C26.1114 16.8993 23.9946 15.3851 23.9946 11.8912C23.9946 10.3494 24.6205 8.95262 25.6315 7.94153C26.6427 6.93034 28.0395 6.30469 29.5812 6.30469C31.7269 6.30469 33.0266 7.09426 34.118 8.67277ZM36.6091 9.02893C36.0535 9.47344 35.5809 10.1838 35.0941 11.1451C34.4613 12.4939 33.4169 11.8001 32.9305 10.7624C32.1729 9.14613 31.1784 8.41408 29.5811 8.41408C28.6214 8.41408 27.752 8.80357 27.1227 9.43285C26.4936 10.0621 26.104 10.9316 26.104 11.8912C26.104 14.3077 27.8416 15.5508 30.1836 17.2262C31.3915 18.0903 32.7405 19.0553 34.113 20.3183C35.4854 19.0553 36.8345 18.0903 38.0424 17.2262C40.3845 15.5508 42.1221 14.3077 42.1221 11.8912C42.1221 10.9315 41.7326 10.0621 41.1033 9.43285C40.474 8.80357 39.6046 8.41408 38.6449 8.41408C37.7635 8.41408 37.1215 8.6191 36.6091 9.02893Z" fill="#FAFAFA"/>
<path d="M10.7165 33.7863C13.8794 34.4293 17.0975 35.0118 20.2399 35.7604C22.1405 36.2132 22.5005 36.299 25.3967 35.3371C27.9165 34.5002 31.6615 33.1429 35.3624 31.4431C37.9061 30.2747 40.4196 28.9482 42.4747 27.527C42.7346 27.2561 43.0644 26.8353 42.785 26.4713C42.3594 25.9169 41.3805 25.9442 40.7987 26.1787C40.5692 26.2712 40.1111 26.469 39.5585 26.7074C35.0234 28.6643 24.0652 33.3927 21.1135 28.6088C20.846 28.1753 20.6903 27.7646 20.6283 27.3788C20.5051 26.6137 20.727 25.9857 21.1791 25.483C21.5537 25.0663 22.08 24.7687 22.6761 24.5748C23.4104 24.3358 24.2831 24.2473 25.0829 24.2835C25.4621 24.3006 25.7911 24.1318 25.9949 23.8941C26.2935 23.5458 26.213 23.3605 25.7853 23.2091C24.7142 22.8298 22.3222 22.6039 19.4638 22.7543C17.1778 22.8745 14.6287 23.2406 12.2602 23.9679C11.8407 24.0967 11.449 24.231 11.084 24.3688C10.9567 24.4169 10.8342 24.4646 10.7165 24.5121L10.7165 33.7863ZM9.54654 35.6922C9.01826 35.6348 8.60708 35.1873 8.60708 34.6438V23.839C8.59275 22.9198 9.6516 22.6602 10.3423 22.3996C10.7385 22.25 11.1708 22.1021 11.6421 21.9573C14.1912 21.1746 16.9187 20.7814 19.3566 20.6532C22.4887 20.4884 25.1999 20.7679 26.4856 21.2232C27.4013 21.5474 27.9322 22.1224 28.1581 22.7862C28.3086 23.2286 28.3121 23.6923 28.1945 24.137C28.0879 24.5405 27.8797 24.9278 27.5933 25.2619C27.0062 25.9468 26.0671 26.4334 24.9922 26.3846C24.4241 26.3588 23.8183 26.4172 23.327 26.577C22.6863 26.7855 22.5469 26.9297 22.9015 27.5047C24.8967 30.7384 34.6783 26.5176 38.7264 24.771C39.211 24.5619 39.6129 24.3883 40.016 24.2259C41.1421 23.7718 42.3165 23.8394 43.2232 24.2429C43.7215 24.4646 44.1482 24.791 44.4578 25.194C44.793 25.6305 44.9893 26.1542 44.9958 26.736C45.0074 27.7681 44.4074 28.7502 43.5728 29.3214C41.4216 30.7966 38.8375 32.1598 36.2358 33.3548C32.4648 35.0868 28.6353 36.4743 26.0559 37.331C22.58 38.4855 22.1298 38.3782 19.7537 37.8121C16.3847 37.0089 12.9383 36.3817 9.54654 35.6922Z" fill="#FAFAFA"/>
<path d="M1.05469 20.2461H9.66184C10.2443 20.2461 10.7165 20.7183 10.7165 21.3008V37.6368C10.7165 38.2192 10.2443 38.6915 9.66184 38.6915H1.05469C0.472222 38.6915 0 38.2192 0 37.6368V21.3008C0 20.7183 0.472222 20.2461 1.05469 20.2461ZM8.60715 22.3555H2.10938V36.5821H8.60715V22.3555Z" fill="#FAFAFA"/>
</g>
<defs>
<clipPath id="clip0_938_64337">
<rect width="45" height="45" fill="white"/>
</clipPath>
</defs>
</svg>
