<svg width="50" height="50" viewBox="0 0 50 50" fill="none" xmlns="http://www.w3.org/2000/svg">
<g clip-path="url(#clip0_1912_10370)">
<path d="M49.7278 10.7808C49.7233 10.708 49.7091 10.6356 49.6851 10.5668C49.6761 10.54 49.6692 10.5143 49.6578 10.4883C49.6171 10.3975 49.5606 10.3149 49.491 10.2441L39.491 0.244141C39.4202 0.174154 39.3372 0.117594 39.246 0.0773112C39.2212 0.0659179 39.196 0.0590006 39.1703 0.0500489C39.0995 0.0256348 39.0263 0.0109864 38.9518 0.00651042C38.9376 0.00935873 38.9225 0 38.905 0H13.905C11.6052 0.00284831 9.74121 1.86646 9.73836 4.16667V10.2999C4.0096 12.8263 0.3125 18.4969 0.3125 24.7583C0.3125 31.0197 4.0096 36.6903 9.73836 39.2167V45.8333C9.74121 48.1335 11.6052 49.9972 13.905 50H45.5717C47.8719 49.9972 49.7359 48.1335 49.7384 45.8333V10.8333C49.7384 10.815 49.7294 10.7992 49.7278 10.7808ZM46.8933 10H40.5717C40.1115 10 39.7384 9.62687 39.7384 9.16667V2.84505L46.8933 10ZM1.99666 24.7583C1.99178 20.9993 3.48267 17.3934 6.14054 14.7355C8.79842 12.0776 12.4048 10.5868 16.1633 10.5916C16.637 10.5916 17.1069 10.6148 17.5708 10.66C24.0145 11.2968 29.2004 16.2325 30.155 22.6367C30.2657 23.3386 30.3239 24.0479 30.3292 24.7583C30.3353 27.4272 29.5809 30.0423 28.1551 32.2982C27.0243 34.1007 25.5005 35.6242 23.6975 36.7542C19.3319 39.4958 13.8216 39.6497 9.3099 37.1554C4.79818 34.6615 1.99748 29.9133 1.99666 24.7583ZM25.8419 37.2766C25.9558 37.1883 26.0685 37.1008 26.18 37.0101C26.5914 36.6789 26.9853 36.3269 27.3608 35.9558C27.7319 35.5802 28.0839 35.1868 28.4151 34.7758C28.5059 34.6643 28.5933 34.5508 28.6816 34.4368C28.7826 34.305 28.892 34.1801 28.9884 34.0458L36.0925 41.1584C36.5629 41.6243 36.8278 42.2591 36.8278 42.9211C36.8278 43.5836 36.5629 44.2179 36.0925 44.6842C35.1086 45.6352 33.5482 45.6352 32.5643 44.6842L25.4508 37.5834C25.5851 37.4858 25.7109 37.3775 25.8419 37.2766ZM45.5717 48.3333H13.905C12.5244 48.3333 11.405 47.2139 11.405 45.8333V39.8673C11.4567 39.884 11.5108 39.895 11.5633 39.9109C11.6968 39.9516 11.8319 39.9841 11.967 40.0216C12.2786 40.105 12.5928 40.1884 12.9102 40.2506C13.066 40.2832 13.2218 40.3133 13.3793 40.341C13.6967 40.3967 14.0169 40.4407 14.3384 40.4777C14.482 40.494 14.6236 40.5143 14.7677 40.5265C15.2295 40.566 15.6942 40.5916 16.1633 40.5916C18.9181 40.5937 21.6248 39.8726 24.0129 38.5002L31.381 45.861C32.415 46.9926 33.9872 47.4654 35.4736 47.0911C36.9604 46.7171 38.1217 45.557 38.4969 44.0706C38.8725 42.5842 38.4013 41.0116 37.2701 39.9768L29.9052 32.6074C31.2777 30.2193 31.9991 27.5126 31.9967 24.7583C31.9967 24.2305 31.9714 23.7069 31.9202 23.1877C31.5645 19.5467 29.9528 16.1434 27.3617 13.5616C24.3982 10.5823 20.3658 8.91276 16.1633 8.92497C15.6942 8.92497 15.2295 8.95101 14.7677 8.99007C14.6236 9.00269 14.4808 9.02262 14.3376 9.03931C14.0169 9.07511 13.6983 9.12069 13.3809 9.17603C13.2227 9.20369 13.0648 9.2338 12.9077 9.26676C12.5944 9.33187 12.2835 9.40837 11.9751 9.49341C11.8368 9.53084 11.6984 9.56421 11.5584 9.60571C11.5068 9.62158 11.4543 9.63257 11.4026 9.64925V4.16667C11.4026 2.78605 12.522 1.66667 13.9026 1.66667H38.0717V9.16667C38.0717 10.5473 39.1911 11.6667 40.5717 11.6667H48.0717V45.8333C48.0717 47.2139 46.9527 48.3333 45.5717 48.3333Z" fill="#FAFAFA"/>
<path d="M34.7422 5.83333C34.7422 5.37313 34.3691 5 33.9089 5H15.5755C15.1153 5 14.7422 5.37313 14.7422 5.83333C14.7422 6.29354 15.1153 6.66667 15.5755 6.66667H33.9089C34.3691 6.66667 34.7422 6.29354 34.7422 5.83333Z" fill="#FAFAFA"/>
<path d="M43.9036 20H33.9036C33.4434 20 33.0703 20.3731 33.0703 20.8333C33.0703 21.2935 33.4434 21.6667 33.9036 21.6667H43.9036C44.3639 21.6667 44.737 21.2935 44.737 20.8333C44.737 20.3731 44.3639 20 43.9036 20Z" fill="#FAFAFA"/>
<path d="M43.9036 25H33.9036C33.4434 25 33.0703 25.3731 33.0703 25.8333C33.0703 26.2935 33.4434 26.6667 33.9036 26.6667H43.9036C44.3639 26.6667 44.737 26.2935 44.737 25.8333C44.737 25.3731 44.3639 25 43.9036 25Z" fill="#FAFAFA"/>
<path d="M44.7422 30.8333C44.7422 30.3731 44.3691 30 43.9089 30H33.0755C32.6153 30 32.2422 30.3731 32.2422 30.8333C32.2422 31.2935 32.6153 31.6667 33.0755 31.6667H43.9089C44.3691 31.6667 44.7422 31.2935 44.7422 30.8333Z" fill="#FAFAFA"/>
<path d="M44.737 35.8333C44.737 35.3731 44.3639 35 43.9036 35H36.4036C35.9434 35 35.5703 35.3731 35.5703 35.8333C35.5703 36.2935 35.9434 36.6667 36.4036 36.6667H43.9036C44.3639 36.6667 44.737 36.2935 44.737 35.8333Z" fill="#FAFAFA"/>
<path d="M34.7396 10.8333C34.7396 10.3731 34.3665 10 33.9062 10H27.2396C26.7794 10 26.4062 10.3731 26.4062 10.8333C26.4062 11.2935 26.7794 11.6667 27.2396 11.6667H33.9062C34.3665 11.6667 34.7396 11.2935 34.7396 10.8333Z" fill="#FAFAFA"/>
<path d="M44.737 15.8333C44.737 15.3731 44.3639 15 43.9036 15H31.4036C30.9434 15 30.5703 15.3731 30.5703 15.8333C30.5703 16.2935 30.9434 16.6667 31.4036 16.6667H43.9036C44.3639 16.6667 44.737 16.2935 44.737 15.8333Z" fill="#FAFAFA"/>
<path d="M13.0755 20.8337H18.9089C19.3691 20.8337 19.7422 20.4605 19.7422 20.0003C19.7422 19.5401 19.3691 19.167 18.9089 19.167H13.0755C12.6153 19.167 12.2422 19.5401 12.2422 20.0003C12.2422 20.4605 12.6153 20.8337 13.0755 20.8337Z" fill="#FAFAFA"/>
<path d="M23.0729 25.0003C23.0729 24.5401 22.6998 24.167 22.2396 24.167H9.73958C9.27938 24.167 8.90625 24.5401 8.90625 25.0003C8.90625 25.4605 9.27938 25.8337 9.73958 25.8337H22.2396C22.6998 25.8337 23.0729 25.4605 23.0729 25.0003Z" fill="#FAFAFA"/>
<path d="M18.9089 29.167H13.0755C12.6153 29.167 12.2422 29.5401 12.2422 30.0003C12.2422 30.4605 12.6153 30.8337 13.0755 30.8337H18.9089C19.3691 30.8337 19.7422 30.4605 19.7422 30.0003C19.7422 29.5401 19.3691 29.167 18.9089 29.167Z" fill="#FAFAFA"/>
<path d="M22.0975 35.7495C24.13 34.6672 25.8154 33.0322 26.9592 31.0339C27.0251 30.9188 27.0967 30.8073 27.1586 30.6905C27.1907 30.6303 27.2159 30.568 27.2469 30.5078C27.3734 30.2645 27.4967 30.0212 27.6057 29.7721C27.7152 29.5231 27.8011 29.2863 27.8902 29.0413C27.9158 28.9705 27.9484 28.9014 27.9736 28.8298C30.0927 22.6672 27.1224 15.9102 21.149 13.3057C15.1753 10.7011 8.20308 13.123 5.13016 18.8696C4.16296 20.6799 3.65921 22.7018 3.6641 24.7546C3.65637 29.1589 5.9696 33.2414 9.75174 35.4981C13.5339 37.7551 18.2251 37.8524 22.0975 35.7544V35.7495ZM10.9724 34.2647C10.0655 33.7703 9.23457 33.1478 8.505 32.4162C7.99881 31.9104 7.54349 31.3566 7.14514 30.7621C6.9482 30.4675 6.76713 30.1652 6.6007 29.8547C4.09256 25.1188 5.4215 19.2607 9.72774 16.071C14.034 12.8813 20.0252 13.3175 23.8244 17.0972C27.1891 20.4936 27.9459 25.6873 25.6909 29.9028V29.9097C24.6972 31.7688 23.1738 33.291 21.3142 34.2839C18.0883 36.0364 14.1931 36.0303 10.9724 34.268V34.2647Z" fill="#FAFAFA"/>
<path d="M45.5755 40C45.1153 40 44.7422 40.3731 44.7422 40.8333V44.1667C44.7422 44.6269 44.3691 45 43.9089 45H40.5755C40.1153 45 39.7422 45.3731 39.7422 45.8333C39.7422 46.2935 40.1153 46.6667 40.5755 46.6667H43.9089C45.2899 46.6667 46.4089 45.5473 46.4089 44.1667V40.8333C46.4089 40.3731 46.0357 40 45.5755 40Z" fill="#FAFAFA"/>
</g>
<defs>
<clipPath id="clip0_1912_10370">
<rect width="50" height="50" fill="white"/>
</clipPath>
</defs>
</svg>
