<svg width="24" height="25" viewBox="0 0 24 25" fill="none" xmlns="http://www.w3.org/2000/svg">
<g clip-path="url(#clip0_1439_5411)">
<path d="M0 12.2002C0 5.5834 5.3832 0.200195 12 0.200195C14.6723 0.200195 17.2017 1.05997 19.3147 2.6866L16.5262 6.309C15.2197 5.30328 13.6545 4.77162 12 4.77162C7.90389 4.77162 4.57143 8.10408 4.57143 12.2002C4.57143 16.2963 7.90389 19.6288 12 19.6288C15.2991 19.6288 18.1026 17.4673 19.0688 14.4859H12V9.91448H24V12.2002C24 18.817 18.6168 24.2002 12 24.2002C5.3832 24.2002 0 18.817 0 12.2002Z" fill="#FAFAFA"/>
</g>
<defs>
<clipPath id="clip0_1439_5411">
<rect width="24" height="24" fill="white" transform="translate(0 0.200195)"/>
</clipPath>
</defs>
</svg>
