<svg width="25" height="25" viewBox="0 0 25 25" fill="none" xmlns="http://www.w3.org/2000/svg">
<g clip-path="url(#clip0_1352_7056)">
<path d="M5.20833 0H1.04167C0.466667 0 0 0.466667 0 1.04167V5.20833C0 5.78333 0.466667 6.25 1.04167 6.25H5.20833C5.78333 6.25 6.25 5.78333 6.25 5.20833V1.04167C6.25 0.466667 5.78333 0 5.20833 0Z" fill="#FAFAFA"/>
<path d="M5.20833 9.375H1.04167C0.466667 9.375 0 9.84167 0 10.4167V14.5833C0 15.1583 0.466667 15.625 1.04167 15.625H5.20833C5.78333 15.625 6.25 15.1583 6.25 14.5833V10.4167C6.25 9.84167 5.78333 9.375 5.20833 9.375Z" fill="#FAFAFA"/>
<path d="M5.20833 18.75H1.04167C0.466667 18.75 0 19.2167 0 19.7917V23.9583C0 24.5333 0.466667 25 1.04167 25H5.20833C5.78333 25 6.25 24.5333 6.25 23.9583V19.7917C6.25 19.2167 5.78333 18.75 5.20833 18.75Z" fill="#FAFAFA"/>
<path d="M14.5833 0H10.4167C9.84167 0 9.375 0.466667 9.375 1.04167V5.20833C9.375 5.78333 9.84167 6.25 10.4167 6.25H14.5833C15.1583 6.25 15.625 5.78333 15.625 5.20833V1.04167C15.625 0.466667 15.1583 0 14.5833 0Z" fill="#FAFAFA"/>
<path d="M14.5833 9.375H10.4167C9.84167 9.375 9.375 9.84167 9.375 10.4167V14.5833C9.375 15.1583 9.84167 15.625 10.4167 15.625H14.5833C15.1583 15.625 15.625 15.1583 15.625 14.5833V10.4167C15.625 9.84167 15.1583 9.375 14.5833 9.375Z" fill="#FAFAFA"/>
<path d="M14.5833 18.75H10.4167C9.84167 18.75 9.375 19.2167 9.375 19.7917V23.9583C9.375 24.5333 9.84167 25 10.4167 25H14.5833C15.1583 25 15.625 24.5333 15.625 23.9583V19.7917C15.625 19.2167 15.1583 18.75 14.5833 18.75Z" fill="#FAFAFA"/>
<path d="M23.9583 0H19.7917C19.2167 0 18.75 0.466667 18.75 1.04167V5.20833C18.75 5.78333 19.2167 6.25 19.7917 6.25H23.9583C24.5333 6.25 25 5.78333 25 5.20833V1.04167C25 0.466667 24.5333 0 23.9583 0Z" fill="#FAFAFA"/>
<path d="M23.9583 9.375H19.7917C19.2167 9.375 18.75 9.84167 18.75 10.4167V14.5833C18.75 15.1583 19.2167 15.625 19.7917 15.625H23.9583C24.5333 15.625 25 15.1583 25 14.5833V10.4167C25 9.84167 24.5333 9.375 23.9583 9.375Z" fill="#FAFAFA"/>
<path d="M23.9583 18.75H19.7917C19.2167 18.75 18.75 19.2167 18.75 19.7917V23.9583C18.75 24.5333 19.2167 25 19.7917 25H23.9583C24.5333 25 25 24.5333 25 23.9583V19.7917C25 19.2167 24.5333 18.75 23.9583 18.75Z" fill="#FAFAFA"/>
</g>
<defs>
<clipPath id="clip0_1352_7056">
<rect width="25" height="25" fill="white"/>
</clipPath>
</defs>
</svg>
