<svg width="29" height="29" viewBox="0 0 29 29" fill="none" xmlns="http://www.w3.org/2000/svg">
<path fill-rule="evenodd" clip-rule="evenodd" d="M15.7096 24.7778H3.56589C3.50184 24.7778 3.44022 24.7524 3.39551 24.7077C3.34959 24.6618 3.32422 24.6001 3.32422 24.5361V22.784C3.32422 21.7811 4.04076 20.8966 5.14518 20.1438C7.11718 18.7989 10.3084 17.9507 13.8971 17.9507C14.3974 17.9507 14.8034 17.5447 14.8034 17.0444C14.8034 16.5442 14.3974 16.1382 13.8971 16.1382C9.88305 16.1382 6.32934 17.1423 4.12293 18.6467C2.43972 19.7946 1.51172 21.2531 1.51172 22.784V24.5361C1.51172 25.0811 1.72801 25.6043 2.11347 25.9885C2.49893 26.374 3.02093 26.5903 3.56589 26.5903H15.7096C16.2099 26.5903 16.6159 26.1843 16.6159 25.684C16.6159 25.1838 16.2099 24.7778 15.7096 24.7778Z" fill="#FAFAFA"/>
<path fill-rule="evenodd" clip-rule="evenodd" d="M13.8958 1.80518C10.2273 1.80518 7.25 4.78251 7.25 8.45101C7.25 12.1183 10.2273 15.0968 13.8958 15.0968C17.5643 15.0968 20.5417 12.1183 20.5417 8.45101C20.5417 4.78251 17.5643 1.80518 13.8958 1.80518ZM13.8958 3.61768C16.5638 3.61768 18.7292 5.78301 18.7292 8.45101C18.7292 11.1178 16.5638 13.2843 13.8958 13.2843C11.2278 13.2843 9.0625 11.1178 9.0625 8.45101C9.0625 5.78301 11.2278 3.61768 13.8958 3.61768Z" fill="#FAFAFA"/>
<path fill-rule="evenodd" clip-rule="evenodd" d="M20.5077 26.93C20.6769 27.0991 20.9077 27.1946 21.1482 27.1946C21.3886 27.1946 21.6194 27.0991 21.7886 26.93L26.2944 22.4241C27.8907 20.8279 27.8907 18.2348 26.2944 16.6374C24.8964 15.2405 22.7359 15.0653 21.1482 16.1142C19.5604 15.0653 17.3999 15.2405 16.0019 16.6374C14.4117 18.2287 14.4057 20.8073 15.9837 22.406L20.5077 26.93ZM21.1482 25.0075L17.2718 21.1312C16.3946 20.2406 16.3982 18.8051 17.2839 17.9194C18.1732 17.0301 19.6184 17.0301 20.5077 17.9194C20.8618 18.2735 21.4345 18.2735 21.7886 17.9194C22.6791 17.0301 24.1231 17.0301 25.0124 17.9194C25.9017 18.8087 25.9017 20.2527 25.0124 21.1432L21.1482 25.0075Z" fill="#FAFAFA"/>
</svg>
