<svg width="66" height="66" viewBox="0 0 66 66" fill="none" xmlns="http://www.w3.org/2000/svg">
<g clip-path="url(#clip0_921_29443)">
<path d="M59.3819 36.3673C58.7075 35.8475 57.9343 35.4704 57.1095 35.259C56.2846 35.0476 55.4254 35.0062 54.5841 35.1375C59.4258 30.2494 61.875 25.3896 61.875 20.6252C61.875 13.8009 56.3862 8.25024 49.6392 8.25024C47.849 8.239 46.078 8.61975 44.4506 9.36577C42.8231 10.1118 41.3787 11.205 40.2187 12.5686C39.0588 11.205 37.6143 10.1118 35.9869 9.36577C34.3595 8.61975 32.5885 8.239 30.7983 8.25024C24.0513 8.25024 18.5625 13.8009 18.5625 20.6252C18.5625 23.4612 19.3978 26.2172 21.1561 29.1331C19.716 29.4979 18.4019 30.2463 17.3534 31.2987L11.5216 37.1252H4.125C3.03098 37.1252 1.98177 37.5598 1.20818 38.3334C0.434597 39.107 0 40.1562 0 41.2502L0 51.5627C0 52.6568 0.434597 53.706 1.20818 54.4796C1.98177 55.2531 3.03098 55.6877 4.125 55.6877H30.9375C31.1061 55.6878 31.2741 55.667 31.4377 55.6259L47.9377 51.5009C48.0428 51.4758 48.1455 51.4413 48.2444 51.3977L58.2656 47.1335L58.3791 47.082C59.3422 46.6007 60.1669 45.8822 60.7756 44.9941C61.3842 44.106 61.7568 43.0776 61.8582 42.0057C61.9595 40.9338 61.7863 39.8538 61.3549 38.8674C60.9235 37.8809 60.2481 37.0205 59.3923 36.3673H59.3819ZM30.7983 12.3752C32.3957 12.3519 33.9638 12.8055 35.3021 13.678C36.6404 14.5506 37.688 15.8025 38.3109 17.2737C38.4663 17.652 38.7307 17.9755 39.0704 18.2032C39.4101 18.4309 39.8098 18.5525 40.2187 18.5525C40.6277 18.5525 41.0274 18.4309 41.3671 18.2032C41.7068 17.9755 41.9712 17.652 42.1266 17.2737C42.7495 15.8025 43.7971 14.5506 45.1354 13.678C46.4737 12.8055 48.0418 12.3519 49.6392 12.3752C54.0349 12.3752 57.75 16.1522 57.75 20.6252C57.75 25.6552 53.6791 31.3451 45.9783 37.0995L43.1191 37.7569C43.3701 36.6967 43.3778 35.5935 43.1418 34.53C42.9058 33.4664 42.4321 32.4701 41.7562 31.6156C41.0803 30.7612 40.2198 30.0708 39.2392 29.5962C38.2585 29.1216 37.1832 28.8751 36.0937 28.8752H25.9566C23.7316 25.8743 22.6875 23.2343 22.6875 20.6252C22.6875 16.1522 26.4026 12.3752 30.7983 12.3752ZM4.125 41.2502H10.3125V51.5627H4.125V41.2502ZM56.5718 43.3669L46.7749 47.5383L30.6797 51.5627H14.4375V40.0411L20.2718 34.2094C20.6534 33.8247 21.1078 33.5197 21.6083 33.3121C22.1089 33.1045 22.6458 32.9985 23.1877 33.0002H36.0937C36.9143 33.0002 37.7012 33.3262 38.2814 33.9064C38.8615 34.4866 39.1875 35.2735 39.1875 36.094C39.1875 36.9145 38.8615 37.7014 38.2814 38.2816C37.7012 38.8618 36.9143 39.1877 36.0937 39.1877H28.875C28.328 39.1877 27.8034 39.405 27.4166 39.7918C27.0298 40.1786 26.8125 40.7032 26.8125 41.2502C26.8125 41.7972 27.0298 42.3219 27.4166 42.7086C27.8034 43.0954 28.328 43.3127 28.875 43.3127H37.125C37.2802 43.3123 37.435 43.295 37.5865 43.2612L54.8599 39.2883L54.9398 39.2677C55.4671 39.1213 56.03 39.1751 56.52 39.4187C57.01 39.6623 57.3926 40.0786 57.5942 40.5873C57.7958 41.0961 57.8021 41.6614 57.6119 42.1746C57.4217 42.6877 57.0485 43.1124 56.5641 43.3669H56.5718Z" fill="#041E42"/>
</g>
<defs>
<clipPath id="clip0_921_29443">
<rect width="66" height="66" fill="white"/>
</clipPath>
</defs>
</svg>
