<svg width="39" height="39" viewBox="0 0 39 39" fill="none" xmlns="http://www.w3.org/2000/svg">
<g clip-path="url(#clip0_1923_58314)">
<path d="M35.0893 21.4898C34.6908 21.1826 34.2339 20.9598 33.7465 20.8349C33.2591 20.7099 32.7514 20.6855 32.2542 20.7631C35.1152 17.8746 36.5625 15.003 36.5625 12.1876C36.5625 8.1551 33.3191 4.87514 29.3323 4.87514C28.2744 4.8685 27.2279 5.09349 26.2662 5.53432C25.3046 5.97514 24.4511 6.62112 23.7656 7.4269C23.0802 6.62112 22.2267 5.97514 21.265 5.53432C20.3033 5.09349 19.2568 4.8685 18.199 4.87514C14.2121 4.87514 10.9688 8.1551 10.9688 12.1876C10.9688 13.8634 11.4623 15.492 12.5013 17.215C11.6504 17.4306 10.8738 17.8728 10.2543 18.4947L6.80824 21.9376H2.4375C1.79103 21.9376 1.17105 22.1945 0.713927 22.6516C0.256807 23.1087 0 23.7287 0 24.3751L0 30.4689C0 31.1154 0.256807 31.7353 0.713927 32.1925C1.17105 32.6496 1.79103 32.9064 2.4375 32.9064H18.2812C18.3809 32.9064 18.4802 32.8942 18.5768 32.8698L28.3268 30.4323C28.3889 30.4175 28.4496 30.3971 28.5081 30.3714L34.4297 27.8516L34.4967 27.8212C35.0658 27.5368 35.5532 27.1122 35.9128 26.5874C36.2725 26.0626 36.4927 25.4549 36.5526 24.8216C36.6124 24.1882 36.5101 23.55 36.2552 22.9671C36.0003 22.3842 35.6011 21.8758 35.0954 21.4898H35.0893ZM33.4288 25.6259L27.6397 28.0908L18.1289 30.4689H8.53125V23.6607L11.9788 20.2146C12.2043 19.9873 12.4728 19.8071 12.7686 19.6844C13.0644 19.5618 13.3816 19.4991 13.7018 19.5001H21.3281C21.813 19.5001 22.278 19.6927 22.6208 20.0356C22.9636 20.3784 23.1562 20.8434 23.1562 21.3283C23.1562 21.8131 22.9636 22.2781 22.6208 22.6209C22.278 22.9638 21.813 23.1564 21.3281 23.1564H17.0625C16.7393 23.1564 16.4293 23.2848 16.2007 23.5134C15.9722 23.7419 15.8438 24.0519 15.8438 24.3751C15.8438 24.6984 15.9722 25.0084 16.2007 25.2369C16.4293 25.4655 16.7393 25.5939 17.0625 25.5939H21.9375C22.0292 25.5936 22.1207 25.5834 22.2102 25.5634L32.4172 23.2158L32.4645 23.2036C32.776 23.1171 33.1086 23.1489 33.3982 23.2929C33.6877 23.4368 33.9138 23.6828 34.0329 23.9834C34.1521 24.284 34.1558 24.6181 34.0434 24.9213C33.931 25.2246 33.7105 25.4755 33.4242 25.6259H33.4288Z" fill="#FAFAFA"/>
</g>
<defs>
<clipPath id="clip0_1923_58314">
<rect width="39" height="39" fill="white"/>
</clipPath>
</defs>
</svg>
