<svg width="38" height="38" viewBox="0 0 38 38" fill="none" xmlns="http://www.w3.org/2000/svg">
<path d="M35.625 15.1406C35.625 25.5313 20.2187 33.9417 19.5626 34.2891C19.3897 34.3821 19.1964 34.4308 19 34.4308C18.8036 34.4308 18.6103 34.3821 18.4374 34.2891C17.7813 33.9417 2.375 25.5313 2.375 15.1406C2.37775 12.7006 3.34825 10.3614 5.07357 8.63607C6.7989 6.91075 9.13815 5.94025 11.5781 5.9375C14.6434 5.9375 17.3271 7.25563 19 9.48367C20.6729 7.25563 23.3566 5.9375 26.4219 5.9375C28.8619 5.94025 31.2011 6.91075 32.9264 8.63607C34.6518 10.3614 35.6222 12.7006 35.625 15.1406Z" fill="#FAFAFA"/>
</svg>
