<svg width="26" height="26" viewBox="0 0 26 26" fill="none" xmlns="http://www.w3.org/2000/svg">
<g opacity="0.3">
<path d="M13 2.4375C10.9109 2.4375 8.86879 3.05698 7.13179 4.2176C5.3948 5.37822 4.04098 7.02786 3.24153 8.95791C2.44208 10.8879 2.2329 13.0117 2.64046 15.0606C3.04802 17.1096 4.054 18.9916 5.53119 20.4688C7.00838 21.946 8.89044 22.952 10.9394 23.3595C12.9883 23.7671 15.1121 23.5579 17.0421 22.7585C18.9721 21.959 20.6218 20.6052 21.7824 18.8682C22.943 17.1312 23.5625 15.0891 23.5625 13C23.5595 10.1996 22.4458 7.51466 20.4656 5.53445C18.4853 3.55424 15.8004 2.44046 13 2.4375ZM12.5938 7.3125C12.8348 7.3125 13.0704 7.38398 13.2709 7.5179C13.4713 7.65181 13.6275 7.84216 13.7197 8.06485C13.812 8.28755 13.8361 8.5326 13.7891 8.76902C13.7421 9.00543 13.626 9.22259 13.4555 9.39304C13.2851 9.56348 13.0679 9.67956 12.8315 9.72658C12.5951 9.77361 12.3501 9.74947 12.1274 9.65723C11.9047 9.56498 11.7143 9.40877 11.5804 9.20835C11.4465 9.00793 11.375 8.7723 11.375 8.53125C11.375 8.20802 11.5034 7.89802 11.732 7.66946C11.9605 7.4409 12.2705 7.3125 12.5938 7.3125ZM13.8125 18.6875C13.3815 18.6875 12.9682 18.5163 12.6635 18.2115C12.3587 17.9068 12.1875 17.4935 12.1875 17.0625V13C11.972 13 11.7654 12.9144 11.613 12.762C11.4606 12.6096 11.375 12.403 11.375 12.1875C11.375 11.972 11.4606 11.7653 11.613 11.613C11.7654 11.4606 11.972 11.375 12.1875 11.375C12.6185 11.375 13.0318 11.5462 13.3366 11.851C13.6413 12.1557 13.8125 12.569 13.8125 13V17.0625C14.028 17.0625 14.2347 17.1481 14.387 17.3005C14.5394 17.4528 14.625 17.6595 14.625 17.875C14.625 18.0905 14.5394 18.2972 14.387 18.4495C14.2347 18.6019 14.028 18.6875 13.8125 18.6875Z" fill="#041E42"/>
</g>
</svg>
