<svg width="26" height="25" viewBox="0 0 26 25" fill="none" xmlns="http://www.w3.org/2000/svg">
<g clip-path="url(#clip0_2331_7721)">
<path d="M20.5531 4.625C20.2051 4.625 19.9219 4.89731 19.9219 5.23193C19.9219 5.56655 20.2051 5.83887 20.5531 5.83887C20.9011 5.83887 21.1843 5.5666 21.1843 5.23193C21.1843 4.89727 20.9011 4.625 20.5531 4.625Z" fill="white"/>
<path d="M13.0021 7.12109C9.91657 7.12109 7.40625 9.53486 7.40625 12.5018C7.40625 15.4687 9.91657 17.8825 13.0021 17.8825C16.0878 17.8825 18.5981 15.4687 18.5981 12.5018C18.5981 9.53491 16.0878 7.12109 13.0021 7.12109Z" fill="white"/>
<path d="M18.8725 0H7.1275C3.19739 0 0 3.07441 0 6.85342V18.1466C0 21.9256 3.19739 25 7.1275 25H18.8725C22.8027 25 26 21.9256 26 18.1466V6.85342C26 3.07441 22.8027 0 18.8725 0ZM13 19.357C9.06775 19.357 5.86874 16.281 5.86874 12.5C5.86874 8.71899 9.0678 5.64307 13 5.64307C16.9322 5.64307 20.1313 8.71904 20.1313 12.5C20.1313 16.281 16.9322 19.357 13 19.357ZM20.5578 7.31621C19.3631 7.31621 18.3912 6.38164 18.3912 5.23291C18.3912 4.08418 19.3631 3.14956 20.5578 3.14956C21.7525 3.14956 22.7245 4.08413 22.7245 5.23286C22.7245 6.38159 21.7525 7.31621 20.5578 7.31621Z" fill="white"/>
</g>
<defs>
<clipPath id="clip0_2331_7721">
<rect width="26" height="25" fill="white"/>
</clipPath>
</defs>
</svg>
