<svg width="30" height="30" viewBox="0 0 30 30" fill="none" xmlns="http://www.w3.org/2000/svg">
<g clip-path="url(#clip0_1812_34675)">
<path d="M26.073 28.8655H3.7418C2.89805 28.8655 2.20898 28.1765 2.20898 27.3327V12.5108C2.20898 11.6671 2.89805 10.978 3.7418 10.978H26.0777C26.9215 10.978 27.6105 11.6624 27.6105 12.5108V27.3327C27.6059 28.1765 26.9168 28.8655 26.073 28.8655ZM3.7418 11.8921C3.39961 11.8921 3.11836 12.1733 3.11836 12.5155V27.3374C3.11836 27.6796 3.39961 27.9608 3.7418 27.9608H26.0777C26.4199 27.9608 26.7012 27.6796 26.7012 27.3374V12.5108C26.7012 12.1687 26.4246 11.8874 26.0777 11.8874H3.7418V11.8921Z" fill="#FAFAFA" stroke="#FAFAFA" stroke-width="0.3"/>
<path d="M20.0445 26.4563C18.7227 26.4563 17.6445 25.3782 17.6445 24.047C17.6445 22.7251 18.7227 21.647 20.0445 21.647C20.8086 21.647 21.5305 22.0126 21.9758 22.6267C22.1211 22.8282 22.0789 23.1142 21.8727 23.2595C21.6664 23.4048 21.3852 23.3626 21.2398 23.1563C20.9633 22.7767 20.518 22.5517 20.0445 22.5517C19.2195 22.5517 18.5539 23.222 18.5539 24.0423C18.5539 24.8673 19.2242 25.5423 20.0445 25.5423C20.518 25.5423 20.968 25.3173 21.2398 24.9376C21.3852 24.736 21.6711 24.6892 21.8727 24.8345C22.0742 24.9798 22.1211 25.2657 21.9758 25.4673C21.5305 26.0907 20.8086 26.4563 20.0445 26.4563Z" fill="#FAFAFA" stroke="#FAFAFA" stroke-width="0.3"/>
<path d="M23.1714 26.4562C22.4074 26.4562 21.6855 26.0906 21.2402 25.4766C21.0949 25.275 21.137 24.9891 21.3433 24.8437C21.5449 24.6984 21.8308 24.7406 21.9761 24.9469C22.2527 25.3266 22.698 25.5516 23.1714 25.5516C23.9964 25.5516 24.6621 24.8813 24.6621 24.0516C24.6621 23.2266 23.9917 22.5609 23.1714 22.5609C22.698 22.5609 22.248 22.7859 21.9761 23.1656C21.8308 23.3672 21.5449 23.4141 21.3433 23.2687C21.1417 23.1234 21.0949 22.8375 21.2402 22.6359C21.6855 22.0219 22.4074 21.6562 23.1714 21.6562C24.4933 21.6562 25.5714 22.7344 25.5714 24.0562C25.5714 25.3781 24.498 26.4562 23.1714 26.4562Z" fill="#FAFAFA" stroke="#FAFAFA" stroke-width="0.3"/>
<path d="M24.0285 16.0686H19.0504C18.7973 16.0686 18.5957 15.867 18.5957 15.6139C18.5957 15.3607 18.7973 15.1592 19.0504 15.1592H24.0238C24.277 15.1592 24.4785 15.3607 24.4785 15.6139C24.4832 15.867 24.277 16.0686 24.0285 16.0686Z" fill="#FAFAFA" stroke="#FAFAFA" stroke-width="0.3"/>
<path d="M12.9988 22.7341H4.94102C4.68789 22.7341 4.48633 22.5325 4.48633 22.2794C4.48633 22.0263 4.68789 21.8247 4.94102 21.8247H12.9988C13.252 21.8247 13.4535 22.0263 13.4535 22.2794C13.4535 22.5325 13.2473 22.7341 12.9988 22.7341Z" fill="#FAFAFA" stroke="#FAFAFA" stroke-width="0.3"/>
<path d="M14.9066 26.236H4.94102C4.68789 26.236 4.48633 26.0345 4.48633 25.7813C4.48633 25.5282 4.68789 25.3267 4.94102 25.3267H14.9066C15.1598 25.3267 15.3613 25.5282 15.3613 25.7813C15.3613 26.0345 15.1598 26.236 14.9066 26.236Z" fill="#FAFAFA" stroke="#FAFAFA" stroke-width="0.3"/>
<path d="M23.9738 18.2858H18.9957C18.7426 18.2858 18.541 18.0843 18.541 17.8312C18.541 17.578 18.7426 17.3765 18.9957 17.3765H23.9691C24.2223 17.3765 24.4238 17.578 24.4238 17.8312C24.4285 18.0843 24.2223 18.2858 23.9738 18.2858Z" fill="#FAFAFA" stroke="#FAFAFA" stroke-width="0.3"/>
<path d="M27.1504 18.675C26.9629 18.675 26.7848 18.5578 26.7192 18.3703C26.6348 18.1313 26.7614 17.8735 27.0005 17.7938L28.5145 17.2688C28.7348 17.1938 28.9083 17.0391 29.0067 16.8328C29.1051 16.6266 29.1192 16.3969 29.0442 16.1766L24.3379 2.62034C24.1833 2.17034 23.6864 1.93597 23.2411 2.09065L1.48639 9.65159C1.26608 9.72659 1.09264 9.88128 0.994201 10.0875C0.895764 10.2938 0.881701 10.5235 0.956701 10.7391L3.0942 16.8891C3.17858 17.1282 3.05201 17.386 2.81295 17.4657C2.57389 17.55 2.31608 17.4235 2.23639 17.1844L0.0988888 11.0438C-0.0557987 10.5985 -0.0276737 10.1203 0.173889 9.69847C0.380139 9.2719 0.741076 8.95315 1.18639 8.79847L22.9458 1.23284C23.8692 0.914092 24.877 1.40159 25.2004 2.32503L29.902 15.8766C30.0567 16.3219 30.0286 16.8047 29.8223 17.2266C29.6161 17.6485 29.2551 17.9672 28.8098 18.1219L27.2958 18.6469C27.2489 18.6657 27.1973 18.675 27.1504 18.675Z" fill="#FAFAFA" stroke="#FAFAFA" stroke-width="0.3"/>
<path d="M5.65858 11.8923C5.47108 11.8923 5.29296 11.7751 5.22733 11.5876C5.14296 11.3485 5.26952 11.0907 5.50858 11.011L25.3367 4.1204C25.5758 4.03602 25.8336 4.16259 25.9133 4.40165C25.9976 4.64071 25.8711 4.89852 25.632 4.97821L5.8039 11.8688C5.75702 11.8829 5.71015 11.8923 5.65858 11.8923Z" fill="#FAFAFA" stroke="#FAFAFA" stroke-width="0.3"/>
<path d="M14.696 11.8922C14.5132 11.8922 14.3351 11.7797 14.2694 11.5969C14.1804 11.3625 14.3023 11.1 14.5366 11.0109L26.2226 6.69376C26.4569 6.60469 26.7194 6.72657 26.8085 6.96094C26.8976 7.19532 26.7757 7.45782 26.5413 7.54688L14.8554 11.8641C14.8038 11.8828 14.7523 11.8922 14.696 11.8922Z" fill="#FAFAFA" stroke="#FAFAFA" stroke-width="0.3"/>
<path d="M8.84063 20.8313C8.72344 20.8313 8.60625 20.7892 8.51719 20.7001L4.97344 17.161C3.975 16.1626 3.975 14.536 4.97344 13.5376C5.97188 12.5392 7.59844 12.5392 8.59688 13.5376L8.83594 13.7767L9.075 13.5376C9.55781 13.0548 10.2 12.7876 10.8891 12.7876C11.5734 12.7876 12.2156 13.0548 12.6984 13.5376C13.6969 14.536 13.6969 16.1626 12.6984 17.161L9.15938 20.7001C9.07031 20.7845 8.95313 20.8313 8.84063 20.8313ZM6.7875 13.6923C6.36562 13.6923 5.93906 13.8517 5.62031 14.1751C4.97344 14.822 4.97344 15.8673 5.62031 16.5142L8.84063 19.7345L12.0609 16.5142C12.7078 15.8673 12.7078 14.822 12.0609 14.1751C11.4328 13.5517 10.3453 13.5517 9.72188 14.1751L9.15938 14.7376C8.98125 14.9157 8.69531 14.9157 8.51719 14.7376L7.95938 14.1751C7.63594 13.8517 7.20938 13.6923 6.7875 13.6923Z" fill="#FAFAFA" stroke="#FAFAFA" stroke-width="0.3"/>
</g>
<defs>
<clipPath id="clip0_1812_34675">
<rect width="30" height="30" fill="white"/>
</clipPath>
</defs>
</svg>
