<svg width="28" height="28" viewBox="0 0 28 28" fill="none" xmlns="http://www.w3.org/2000/svg">
<path d="M25.4292 23.5715L20.235 18.3751C21.7924 16.3456 22.5195 13.7997 22.2688 11.2538C22.0181 8.70797 20.8084 6.35278 18.8851 4.66602C16.9618 2.97926 14.4689 2.08725 11.9121 2.17092C9.35526 2.2546 6.92601 3.30771 5.1171 5.11661C3.3082 6.92552 2.25509 9.35477 2.17141 11.9116C2.08773 14.4684 2.97975 16.9613 4.66651 18.8846C6.35327 20.8079 8.70846 22.0176 11.2543 22.2683C13.8002 22.519 16.3461 21.7919 18.3756 20.2345L23.5742 25.4342C23.6963 25.5562 23.8412 25.6531 24.0007 25.7192C24.1602 25.7852 24.3312 25.8192 24.5039 25.8192C24.6765 25.8192 24.8475 25.7852 25.007 25.7192C25.1665 25.6531 25.3115 25.5562 25.4336 25.4342C25.5556 25.3121 25.6525 25.1671 25.7186 25.0076C25.7846 24.8481 25.8186 24.6771 25.8186 24.5045C25.8186 24.3318 25.7846 24.1608 25.7186 24.0013C25.6525 23.8418 25.5556 23.6969 25.4336 23.5748L25.4292 23.5715ZM4.81308 12.2501C4.81308 10.7791 5.24928 9.34113 6.06653 8.11804C6.88377 6.89495 8.04535 5.94167 9.40437 5.37874C10.7634 4.81581 12.2588 4.66853 13.7016 4.9555C15.1443 5.24248 16.4695 5.95083 17.5097 6.99099C18.5498 8.03114 19.2582 9.35638 19.5452 10.7991C19.8322 12.2418 19.6849 13.7373 19.1219 15.0963C18.559 16.4553 17.6057 17.6169 16.3826 18.4341C15.1595 19.2514 13.7216 19.6876 12.2506 19.6876C10.2787 19.6856 8.38808 18.9013 6.99371 17.507C5.59935 16.1126 4.81511 14.222 4.81308 12.2501Z" fill="#041E42"/>
</svg>
