<svg width="50" height="50" viewBox="0 0 50 50" fill="none" xmlns="http://www.w3.org/2000/svg">
<g clip-path="url(#clip0_1912_10358)">
<path d="M45.7031 45.3125H13.3594C13.1522 45.3125 12.9535 45.2302 12.8069 45.0837C12.6604 44.9372 12.5781 44.7384 12.5781 44.5312V28.9062C12.6205 28.7373 12.718 28.5874 12.8553 28.4802C12.9926 28.3731 13.1618 28.3149 13.3359 28.3149C13.5101 28.3149 13.6792 28.3731 13.8165 28.4802C13.9538 28.5874 14.0514 28.7373 14.0938 28.9062V43.75H44.9453V2.50781H22.0781L14.1172 10.7656V21.4531C14.1461 21.5683 14.1483 21.6886 14.1237 21.8048C14.0991 21.921 14.0484 22.03 13.9753 22.1237C13.9022 22.2173 13.8088 22.293 13.7021 22.3451C13.5953 22.3972 13.4781 22.4243 13.3594 22.4243C13.2406 22.4243 13.1234 22.3972 13.0167 22.3451C12.91 22.293 12.8165 22.2173 12.7434 22.1237C12.6704 22.03 12.6196 21.921 12.595 21.8048C12.5705 21.6886 12.5727 21.5683 12.6016 21.4531V10.4609C12.6063 10.2652 12.6844 10.0784 12.8203 9.9375L21.2109 1.22656C21.3552 1.07936 21.5517 0.995123 21.7578 0.992188H45.7031C45.9103 0.992188 46.109 1.0745 46.2556 1.22101C46.4021 1.36752 46.4844 1.56624 46.4844 1.77344V44.5312C46.4844 44.7384 46.4021 44.9372 46.2556 45.0837C46.109 45.2302 45.9103 45.3125 45.7031 45.3125Z" fill="#FAFAFA"/>
<path d="M21.7602 11.2186H13.3618C13.2466 11.2474 13.1263 11.2497 13.0101 11.2251C12.894 11.2005 12.7849 11.1497 12.6913 11.0767C12.5976 11.0036 12.5219 10.9102 12.4698 10.8034C12.4177 10.6967 12.3906 10.5795 12.3906 10.4607C12.3906 10.342 12.4177 10.2248 12.4698 10.1181C12.5219 10.0113 12.5976 9.91788 12.6913 9.84482C12.7849 9.77176 12.894 9.721 13.0101 9.69642C13.1263 9.67183 13.2466 9.67406 13.3618 9.70293H21.0024V1.7498C20.9709 1.63394 20.9666 1.51237 20.9897 1.39455C21.0128 1.27673 21.0628 1.16582 21.1357 1.07043C21.2086 0.975043 21.3025 0.897748 21.4102 0.844547C21.5178 0.791347 21.6363 0.763672 21.7563 0.763672C21.8764 0.763672 21.9949 0.791347 22.1025 0.844547C22.2101 0.897748 22.3041 0.975043 22.377 1.07043C22.4499 1.16582 22.4999 1.27673 22.523 1.39455C22.5461 1.51237 22.5417 1.63394 22.5102 1.7498V10.4607C22.5045 10.6586 22.4238 10.8468 22.2846 10.9875C22.1454 11.1281 21.958 11.2107 21.7602 11.2186Z" fill="#FAFAFA"/>
<path d="M38.9236 14.8438H19.0643C18.9484 14.8752 18.8268 14.8796 18.709 14.8565C18.5912 14.8334 18.4803 14.7834 18.3849 14.7105C18.2895 14.6376 18.2122 14.5436 18.159 14.436C18.1058 14.3284 18.0781 14.2099 18.0781 14.0898C18.0781 13.9698 18.1058 13.8513 18.159 13.7437C18.2122 13.636 18.2895 13.5421 18.3849 13.4692C18.4803 13.3963 18.5912 13.3463 18.709 13.3232C18.8268 13.3001 18.9484 13.3044 19.0643 13.3359H38.9236C39.0395 13.3044 39.1611 13.3001 39.2789 13.3232C39.3967 13.3463 39.5076 13.3963 39.603 13.4692C39.6984 13.5421 39.7757 13.636 39.8289 13.7437C39.8821 13.8513 39.9098 13.9698 39.9098 14.0898C39.9098 14.2099 39.8821 14.3284 39.8289 14.436C39.7757 14.5436 39.6984 14.6376 39.603 14.7105C39.5076 14.7834 39.3967 14.8334 39.2789 14.8565C39.1611 14.8796 39.0395 14.8752 38.9236 14.8438Z" fill="#FAFAFA"/>
<path d="M38.9194 23.0625H19.0601C18.8911 23.0202 18.7412 22.9226 18.6341 22.7853C18.5269 22.648 18.4688 22.4788 18.4688 22.3047C18.4688 22.1305 18.5269 21.9614 18.6341 21.8241C18.7412 21.6868 18.8911 21.5892 19.0601 21.5469H38.9194C39.0884 21.5892 39.2383 21.6868 39.3454 21.8241C39.4526 21.9614 39.5108 22.1305 39.5108 22.3047C39.5108 22.4788 39.4526 22.648 39.3454 22.7853C39.2383 22.9226 39.0884 23.0202 38.9194 23.0625Z" fill="#FAFAFA"/>
<path d="M38.9194 31.3047H19.146C18.9771 31.2623 18.8271 31.1648 18.72 31.0275C18.6129 30.8902 18.5547 30.721 18.5547 30.5469C18.5547 30.3727 18.6129 30.2036 18.72 30.0663C18.8271 29.929 18.9771 29.8314 19.146 29.7891H38.9194C39.0884 29.8314 39.2383 29.929 39.3454 30.0663C39.4526 30.2036 39.5108 30.3727 39.5108 30.5469C39.5108 30.721 39.4526 30.8902 39.3454 31.0275C39.2383 31.1648 39.0884 31.2623 38.9194 31.3047Z" fill="#FAFAFA"/>
<path d="M38.9243 39.5391H19.0649C18.9497 39.5679 18.8295 39.5702 18.7133 39.5456C18.5971 39.521 18.488 39.4702 18.3944 39.3972C18.3008 39.3241 18.225 39.2307 18.1729 39.1239C18.1208 39.0172 18.0938 38.9 18.0938 38.7812C18.0938 38.6625 18.1208 38.5453 18.1729 38.4386C18.225 38.3318 18.3008 38.2384 18.3944 38.1653C18.488 38.0923 18.5971 38.0415 18.7133 38.0169C18.8295 37.9923 18.9497 37.9946 19.0649 38.0234H38.9243C39.0395 37.9946 39.1598 37.9923 39.276 38.0169C39.3921 38.0415 39.5012 38.0923 39.5948 38.1653C39.6885 38.2384 39.7642 38.3318 39.8163 38.4386C39.8684 38.5453 39.8955 38.6625 39.8955 38.7812C39.8955 38.9 39.8684 39.0172 39.8163 39.1239C39.7642 39.2307 39.6885 39.3241 39.5948 39.3972C39.5012 39.4702 39.3921 39.521 39.276 39.5456C39.1598 39.5702 39.0395 39.5679 38.9243 39.5391Z" fill="#FAFAFA"/>
<path d="M49.2188 49.0078H16.8984C16.6912 49.0078 16.4925 48.9255 16.346 48.779C16.1995 48.6325 16.1172 48.4338 16.1172 48.2266V44.5312C16.1595 44.3623 16.2571 44.2124 16.3944 44.1052C16.5317 43.9981 16.7008 43.9399 16.875 43.9399C17.0492 43.9399 17.2183 43.9981 17.3556 44.1052C17.4929 44.2124 17.5905 44.3623 17.6328 44.5312V47.4687H48.4844V6.20313H45.7031C45.5879 6.232 45.4677 6.23422 45.3515 6.20964C45.2353 6.18505 45.1262 6.1343 45.0326 6.06124C44.939 5.98818 44.8632 5.89473 44.8111 5.788C44.759 5.68128 44.732 5.56408 44.732 5.44531C44.732 5.32655 44.759 5.20935 44.8111 5.10262C44.8632 4.99589 44.939 4.90245 45.0326 4.82939C45.1262 4.75633 45.2353 4.70557 45.3515 4.68099C45.4677 4.6564 45.5879 4.65863 45.7031 4.6875H49.2188C49.426 4.6875 49.6247 4.76981 49.7712 4.91632C49.9177 5.06284 50 5.26155 50 5.46875V48.25C49.9939 48.4531 49.9089 48.6459 49.7631 48.7873C49.6172 48.9288 49.422 49.0079 49.2188 49.0078Z" fill="#FAFAFA"/>
<path d="M20.85 37.7114C20.6969 37.7102 20.5474 37.664 20.4203 37.5786L16.1 34.5551C16.0189 34.4959 15.9499 34.4217 15.8969 34.3364L0.435947 10.0786C0.238471 9.77157 0.104273 9.42825 0.0412206 9.06871C-0.0218317 8.70918 -0.0124692 8.34068 0.0687594 7.98481C0.144986 7.62868 0.292192 7.29155 0.501588 6.99356C0.710984 6.69558 0.978277 6.44284 1.28751 6.25044C1.90867 5.8579 2.65994 5.72713 3.3772 5.88668C4.09447 6.04624 4.71945 6.48315 5.11563 7.102L20.5766 31.3598C20.6273 31.4438 20.6617 31.5365 20.6781 31.6333L21.6 36.8208C21.6247 36.9703 21.6053 37.1238 21.5443 37.2625C21.4832 37.4012 21.3832 37.5192 21.2563 37.602C21.1334 37.6749 20.9929 37.7128 20.85 37.7114ZM17.0922 33.3989L19.7875 35.2895L19.2172 32.0317L3.83438 7.90669C3.74618 7.76706 3.63118 7.6463 3.49604 7.55138C3.36089 7.45646 3.20828 7.38927 3.04701 7.35367C2.88574 7.31808 2.71902 7.31479 2.55648 7.344C2.39393 7.37322 2.23879 7.43435 2.10001 7.52387C1.95986 7.61021 1.83852 7.72388 1.74323 7.8581C1.64793 7.99232 1.58063 8.14434 1.54532 8.30512C1.47296 8.62953 1.53195 8.96939 1.70938 9.25044L17.0922 33.3989Z" fill="#FAFAFA"/>
<path d="M16.5398 34.6875C16.3824 34.675 16.2324 34.6151 16.1097 34.5157C15.987 34.4162 15.8973 34.282 15.8525 34.1305C15.8076 33.9791 15.8097 33.8176 15.8585 33.6674C15.9073 33.5172 16.0005 33.3853 16.1257 33.2891L19.532 31.125C19.6138 31.0356 19.7153 30.9664 19.8284 30.923C19.9415 30.8796 20.0632 30.863 20.1838 30.8747C20.3045 30.8864 20.4207 30.926 20.5234 30.9904C20.6261 31.0548 20.7124 31.1422 20.7755 31.2456C20.8385 31.3491 20.8767 31.4658 20.8869 31.5866C20.8971 31.7073 20.8791 31.8288 20.8342 31.9414C20.7894 32.054 20.719 32.1546 20.6286 32.2353C20.5381 32.316 20.4302 32.3745 20.3132 32.4063L16.9148 34.5703C16.8018 34.6407 16.6727 34.681 16.5398 34.6875Z" fill="#FAFAFA"/>
<path d="M11.8044 16.0935C11.6771 16.0915 11.5521 16.0585 11.4405 15.9972C11.3288 15.9359 11.2338 15.8483 11.1638 15.7419L6.70284 8.71067L2.27316 11.5544C2.1923 11.646 2.09108 11.7174 1.97765 11.7627C1.86422 11.8081 1.74172 11.8262 1.62001 11.8157C1.49829 11.8051 1.38075 11.7662 1.27682 11.702C1.17289 11.6377 1.08547 11.55 1.02158 11.4459C0.957694 11.3418 0.91912 11.2241 0.908958 11.1023C0.898795 10.9806 0.917328 10.8582 0.963067 10.7449C1.00881 10.6316 1.08048 10.5306 1.17232 10.45C1.26417 10.3695 1.37362 10.3116 1.49191 10.281L6.52316 7.03099C6.69367 6.92827 6.89697 6.89452 7.09153 6.93662C7.28609 6.97873 7.45724 7.09352 7.57003 7.25755L12.445 14.8982C12.547 15.0696 12.5795 15.2736 12.5359 15.4682C12.4924 15.6628 12.376 15.8335 12.2107 15.945C12.0939 16.0355 11.952 16.0874 11.8044 16.0935Z" fill="#FAFAFA"/>
</g>
<defs>
<clipPath id="clip0_1912_10358">
<rect width="50" height="50" fill="white"/>
</clipPath>
</defs>
</svg>
