<svg width="36" height="36" viewBox="0 0 36 36" fill="none" xmlns="http://www.w3.org/2000/svg">
<path d="M23.625 18C23.625 19.1125 23.2951 20.2001 22.677 21.1251C22.0589 22.0501 21.1804 22.7711 20.1526 23.1968C19.1248 23.6226 17.9938 23.734 16.9026 23.5169C15.8115 23.2999 14.8092 22.7641 14.0225 21.9775C13.2359 21.1908 12.7001 20.1885 12.4831 19.0974C12.266 18.0062 12.3774 16.8752 12.8032 15.8474C13.2289 14.8196 13.9499 13.9411 14.8749 13.323C15.7999 12.7049 16.8875 12.375 18 12.375C19.4918 12.375 20.9226 12.9676 21.9775 14.0225C23.0324 15.0774 23.625 16.5082 23.625 18ZM34.875 9V27C34.875 27.2984 34.7565 27.5845 34.5455 27.7955C34.3345 28.0065 34.0484 28.125 33.75 28.125H2.25C1.95163 28.125 1.66548 28.0065 1.4545 27.7955C1.24353 27.5845 1.125 27.2984 1.125 27V9C1.125 8.70163 1.24353 8.41548 1.4545 8.20451C1.66548 7.99353 1.95163 7.875 2.25 7.875H33.75C34.0484 7.875 34.3345 7.99353 34.5455 8.20451C34.7565 8.41548 34.875 8.70163 34.875 9ZM32.625 15.518C31.3476 15.1403 30.1849 14.4489 29.243 13.507C28.3011 12.5651 27.6097 11.4024 27.232 10.125H8.76797C8.39026 11.4024 7.69895 12.5651 6.75701 13.507C5.81507 14.4489 4.65243 15.1403 3.375 15.518V20.482C4.65243 20.8597 5.81507 21.5511 6.75701 22.493C7.69895 23.4349 8.39026 24.5976 8.76797 25.875H27.232C27.6097 24.5976 28.3011 23.4349 29.243 22.493C30.1849 21.5511 31.3476 20.8597 32.625 20.482V15.518Z" fill="#FAFAFA"/>
</svg>
