<svg width="52" height="52" viewBox="0 0 52 52" fill="none" xmlns="http://www.w3.org/2000/svg">
<path d="M51.927 28.9435C51.9269 28.9432 51.9269 28.9431 51.9268 28.9428L42.109 4.29114C41.9006 3.76736 41.3069 3.51165 40.7831 3.72002C40.7827 3.72015 40.7823 3.72027 40.782 3.72053L0.952382 19.5803C0.789951 19.6505 0.649085 19.7625 0.544072 19.9049C0.212831 20.077 0.00357271 20.4177 0 20.7909V47.331C0 47.8948 0.457051 48.3518 1.02077 48.3518H43.8933C44.457 48.3518 44.914 47.8948 44.914 47.331V32.8361L51.3572 30.2698C51.8808 30.061 52.1359 29.4671 51.927 28.9435ZM42.8725 46.3103H2.04155V21.8117H42.8725V46.3103ZM17.0316 19.7753L34.1234 12.9647C35.6489 14.568 37.7625 15.4793 39.9755 15.488L41.6802 19.7753H17.0316ZM44.914 30.6434V20.7909C44.914 20.2272 44.457 19.7702 43.8933 19.7702H43.8769L41.7139 14.3376C41.6899 14.2923 41.662 14.2492 41.6302 14.209C41.5207 13.7174 41.0655 13.3819 40.5635 13.423C38.5044 13.6107 36.49 12.7433 35.2116 11.1181C34.8935 10.7255 34.3344 10.6279 33.9019 10.8894C33.8535 10.8952 33.8053 10.9041 33.758 10.916L12.8914 19.2251C12.6388 19.3241 12.4369 19.5205 12.3309 19.7702H5.99398L40.59 5.99481L49.6535 28.753L44.914 30.6434Z" fill="#FAFAFA"/>
<path d="M4.81477 39.4193C6.7966 40.0051 8.34741 41.554 8.93563 43.5351C9.06463 43.9675 9.46235 44.2638 9.91353 44.2639C9.96649 44.2606 10.0191 44.2527 10.0707 44.2404C10.1165 44.2534 10.1634 44.263 10.2106 44.269H34.7091C34.7513 44.2635 34.7929 44.255 34.8337 44.2435C35.3437 44.3675 35.8576 44.0548 35.9818 43.5448C35.9822 43.5428 35.9827 43.5411 35.9831 43.5391C36.5698 41.556 38.1208 40.005 40.1039 39.4183C40.5848 39.2713 40.8837 38.792 40.8042 38.2954C40.8178 38.2459 40.8277 38.1954 40.8338 38.1443V29.9782C40.8278 29.927 40.8176 29.8765 40.8032 29.8271C40.8832 29.3303 40.5842 28.8508 40.1029 28.7042C38.1198 28.1177 36.5691 26.566 35.9841 24.5823C35.8363 24.0981 35.3524 23.7985 34.8531 23.8821C34.8059 23.869 34.7578 23.8594 34.7091 23.8535H10.2106C10.1592 23.8596 10.1082 23.8698 10.0585 23.8841C9.56201 23.805 9.08301 24.1037 8.93563 24.5844C8.34856 26.5671 6.79762 28.1177 4.81477 28.7042C4.33386 28.8512 4.03503 29.3305 4.11452 29.8271C4.10125 29.8767 4.09168 29.9271 4.08594 29.9782V38.1443C4.09181 38.1923 4.10138 38.2398 4.11452 38.2862C4.03082 38.786 4.33029 39.2706 4.81477 39.4193ZM6.12748 30.3926C8.1772 29.5693 9.80176 27.9448 10.625 25.8951H34.2937C35.1173 27.9448 36.7423 29.5693 38.7922 30.3926V37.7299C36.7432 38.5541 35.1189 40.1784 34.2947 42.2274H10.625C9.80087 40.1784 8.17656 38.5541 6.12748 37.7299V30.3926Z" fill="#FAFAFA"/>
<path d="M22.4606 40.1858C25.8432 40.1858 28.5852 37.4438 28.5852 34.0612C28.5852 30.6786 25.8432 27.9365 22.4606 27.9365C19.078 27.9365 16.3359 30.6786 16.3359 34.0612C16.3393 37.4424 19.0794 40.1825 22.4606 40.1858ZM22.4606 29.9781C24.7156 29.9781 26.5437 31.8061 26.5437 34.0612C26.5437 36.3162 24.7156 38.1443 22.4606 38.1443C20.2056 38.1443 18.3775 36.3162 18.3775 34.0612C18.3775 31.8061 20.2056 29.9781 22.4606 29.9781Z" fill="#FAFAFA"/>
<path d="M11.2265 35.5926C12.0721 35.5926 12.7576 34.907 12.7576 34.0614C12.7576 33.2159 12.0721 32.5303 11.2265 32.5303C10.3809 32.5303 9.69531 33.2159 9.69531 34.0614C9.69531 34.9071 10.3809 35.5926 11.2265 35.5926ZM11.2265 33.551C11.5083 33.551 11.7369 33.7796 11.7369 34.0614C11.7369 34.3433 11.5083 34.5718 11.2265 34.5718C10.9446 34.5718 10.7161 34.3433 10.7161 34.0614C10.7161 33.7796 10.9446 33.551 11.2265 33.551Z" fill="#FAFAFA"/>
<path d="M33.6874 35.5926C34.533 35.5926 35.2186 34.907 35.2186 34.0614C35.2186 33.2159 34.533 32.5303 33.6874 32.5303C32.8418 32.5303 32.1562 33.2159 32.1562 34.0614C32.1562 34.9071 32.8418 35.5926 33.6874 35.5926ZM33.6874 33.551C33.9693 33.551 34.1978 33.7796 34.1978 34.0614C34.1978 34.3433 33.9693 34.5718 33.6874 34.5718C33.4055 34.5718 33.177 34.3433 33.177 34.0614C33.177 33.7796 33.4055 33.551 33.6874 33.551Z" fill="#FAFAFA"/>
</svg>
