<svg width="58" height="58" viewBox="0 0 58 58" fill="none" xmlns="http://www.w3.org/2000/svg">
<path d="M14.4981 32.645C5.36547 32.5666 0.265914 43.5679 6.13087 50.4581C7.15669 51.679 8.43727 52.6606 9.88275 53.3341C11.3282 54.0075 12.9036 54.3565 14.4983 54.3565C16.0929 54.3565 17.6683 54.0074 19.1137 53.3339C20.5592 52.6604 21.8397 51.6787 22.8655 50.4578C28.7293 43.5693 23.6311 32.5647 14.4981 32.645ZM14.4981 52.5834C13.2155 52.5826 11.9477 52.3088 10.7792 51.7801C9.61061 51.2514 8.56802 50.4799 7.72076 49.517C7.74705 49.025 7.92043 48.5523 8.21844 48.1601C8.51646 47.7678 8.92537 47.4741 9.39224 47.3169C10.4573 47.0313 13.4134 45.7793 14.505 45.869C15.5716 45.7776 18.5676 47.0366 19.6027 47.3164C20.0698 47.4735 20.479 47.7672 20.7772 48.1596C21.0755 48.5519 21.249 49.0248 21.2754 49.517C20.4282 50.4799 19.3856 51.2514 18.217 51.7801C17.0485 52.3088 15.7807 52.5826 14.4981 52.5834ZM14.4982 37.8561C15.3145 37.8653 16.0942 38.1961 16.6681 38.7767C17.242 39.3572 17.5638 40.1407 17.5637 40.957C17.5635 41.7734 17.2414 42.5567 16.6672 43.137C16.0931 43.7174 15.3132 44.0478 14.4969 44.0567C13.6806 44.0475 12.9009 43.7167 12.327 43.1362C11.7531 42.5556 11.4313 41.7721 11.4314 40.9558C11.4316 40.1394 11.7537 39.3561 12.3279 38.7758C12.902 38.1955 13.6819 37.865 14.4982 37.8561ZM22.5728 47.6144C21.7771 45.8258 19.3 45.3173 17.6222 44.7455C18.4029 44.102 18.9658 43.2332 19.234 42.2578C19.5023 41.2824 19.4628 40.2479 19.121 39.2957C18.7792 38.3436 18.1517 37.5202 17.3243 36.9381C16.4969 36.356 15.5099 36.0437 14.4983 36.0436C13.4867 36.0436 12.4997 36.356 11.6722 36.938C10.8448 37.5201 10.2173 38.3434 9.87545 39.2956C9.53359 40.2477 9.49408 41.2822 9.76231 42.2576C10.0305 43.233 10.5934 44.1019 11.374 44.7453C9.70035 45.3159 7.21778 45.8257 6.42328 47.6144C3.30781 41.7907 7.86469 34.3356 14.4981 34.4575C21.1304 34.3356 25.6898 41.7915 22.5728 47.6144Z" fill="#FAFAFA" stroke="#FAFAFA" stroke-width="0.5"/>
<path d="M43.5005 32.1918C43.6288 32.1918 43.7556 32.1646 43.8725 32.112C43.9895 32.0594 44.0939 31.9825 44.1789 31.8864C44.5953 31.4161 54.376 20.302 54.376 14.5191C54.376 11.6347 53.2302 8.86847 51.1907 6.82892C49.1511 4.78936 46.3849 3.64355 43.5005 3.64355C40.6162 3.64355 37.8499 4.78936 35.8104 6.82892C33.7708 8.86847 32.625 11.6347 32.625 14.5191C32.625 20.302 42.4057 31.416 42.8221 31.8864C42.9071 31.9825 43.0116 32.0594 43.1285 32.112C43.2455 32.1646 43.3723 32.1918 43.5005 32.1918ZM43.5005 5.45616C45.9033 5.45884 48.207 6.41454 49.906 8.11358C51.6051 9.81263 52.5608 12.1163 52.5634 14.5191C52.5634 18.4337 46.5478 26.3173 43.5005 29.9013C40.4533 26.3173 34.4376 18.4337 34.4376 14.5191C34.4403 12.1163 35.396 9.81264 37.095 8.11359C38.7941 6.41455 41.0977 5.45885 43.5005 5.45616Z" fill="#FAFAFA" stroke="#FAFAFA" stroke-width="0.5"/>
<path d="M43.5014 35.8436C43.261 35.8436 43.0305 35.9391 42.8606 36.1091C42.6906 36.279 42.5951 36.5095 42.5951 36.7499V43.5201C42.3457 51.8964 30.1743 51.912 29.907 43.5199V14.5187C29.9081 13.4468 29.698 12.3852 29.2886 11.3946C28.8792 10.404 28.2785 9.50385 27.521 8.74553C26.7635 7.98722 25.8639 7.38564 24.8737 6.9752C23.8836 6.56476 22.8222 6.35351 21.7504 6.35352C20.6785 6.35352 19.6171 6.56479 18.627 6.97524C17.6368 7.3857 16.7373 7.98728 15.9797 8.74561C15.2222 9.50394 14.6216 10.4041 14.2122 11.3947C13.8028 12.3853 13.5927 13.4469 13.5938 14.5188L13.5938 29.0194C13.5982 29.2568 13.6956 29.483 13.8651 29.6493C14.0346 29.8157 14.2626 29.9088 14.5001 29.9088C14.7375 29.9088 14.9655 29.8156 15.135 29.6493C15.3045 29.4829 15.4019 29.2567 15.4063 29.0193V14.5187C15.7251 6.10177 27.7917 6.12755 28.0944 14.5188L28.0944 43.52C28.4994 54.3225 44.0159 54.328 44.4077 43.5199V36.7499C44.4077 36.5095 44.3122 36.279 44.1422 36.109C43.9723 35.9391 43.7418 35.8436 43.5014 35.8436Z" fill="#FAFAFA" stroke="#FAFAFA" stroke-width="0.5"/>
<path d="M48.938 14.519C48.7098 7.33262 38.2897 7.33434 38.0625 14.5191C38.2907 21.7054 48.7108 21.7038 48.938 14.519ZM39.8751 14.519C39.8836 13.5632 40.2694 12.6494 40.9483 11.9765C41.6272 11.3037 42.5444 10.9262 43.5003 10.9262C44.4562 10.9262 45.3734 11.3037 46.0523 11.9766C46.7312 12.6495 47.1169 13.5632 47.1254 14.5191C47.1169 15.4749 46.7312 16.3887 46.0522 17.0616C45.3733 17.7344 44.4561 18.112 43.5002 18.1119C42.5444 18.1119 41.6272 17.7344 40.9482 17.0615C40.2693 16.3887 39.8836 15.4749 39.8751 14.519Z" fill="#FAFAFA" stroke="#FAFAFA" stroke-width="0.5"/>
</svg>
