<svg width="28" height="28" viewBox="0 0 28 28" fill="none" xmlns="http://www.w3.org/2000/svg">
<path d="M26.25 13.9996C26.2507 14.2967 26.1745 14.5889 26.0289 14.8478C25.8832 15.1068 25.673 15.3236 25.4187 15.4772L9.66 25.1175C9.39431 25.2802 9.09001 25.369 8.77852 25.3748C8.46703 25.3806 8.15965 25.3031 7.88813 25.1503C7.61918 25 7.39515 24.7807 7.23905 24.515C7.08296 24.2494 7.00045 23.9469 7 23.6388V4.36035C7.00045 4.05222 7.08296 3.74978 7.23905 3.48412C7.39515 3.21845 7.61918 2.99916 7.88813 2.84879C8.15965 2.69604 8.46703 2.61856 8.77852 2.62432C9.09001 2.63009 9.39431 2.71891 9.66 2.8816L25.4187 12.5219C25.673 12.6756 25.8832 12.8924 26.0289 13.1513C26.1745 13.4103 26.2507 13.7025 26.25 13.9996Z" fill="#FAFAFA"/>
</svg>
