<svg width="22" height="22" viewBox="0 0 22 22" fill="none" xmlns="http://www.w3.org/2000/svg">
<g clip-path="url(#clip0_1790_6738)">
<path d="M13.291 16.9668L14.4952 16.2044L15.3002 17.4758L14.096 18.2382L13.291 16.9668Z" fill="#D75050"/>
<path d="M14.5483 12.3443C14.3551 11.468 13.6651 10.8189 12.8201 10.7934C12.8154 10.7933 12.8106 10.7932 12.8059 10.7931L9.69438 10.7583C8.27983 10.2295 7.01275 10.245 5.92639 10.805C5.18665 11.1862 4.6537 11.7651 4.27882 12.3281C4.08196 11.9702 3.61924 11.8339 3.2599 12.03L0.404311 13.5878C0.0702066 13.7701 -0.0751442 14.1732 0.0658059 14.5267L2.85659 21.5285C3.02097 21.9408 3.52493 22.1235 3.9156 21.9104L6.77123 20.3525C7.1738 20.1329 7.25267 19.8082 7.05291 19.2753H12.1933C12.335 19.2753 12.4738 19.2331 12.5938 19.1578L13.1365 18.8154L12.3357 17.5434L11.9765 17.7709H6.45322L5.02499 14.1854C5.187 13.7228 5.65722 12.6329 6.62337 12.1395C7.33943 11.7738 8.23134 11.7969 9.2742 12.2092C9.35963 12.2429 9.45053 12.2605 9.54234 12.2616L12.7788 12.2976C12.9134 12.3057 13.098 12.5143 13.098 12.8432C13.1126 13.1256 13.0035 13.3107 12.7704 13.3985H9.60348V14.903H12.7704C13.1819 14.903 13.5807 14.7442 13.9004 14.4643L17.4962 12.3666C18.3902 11.8881 19.4491 11.8102 20.4031 12.1533C20.5325 12.1998 20.5474 12.3777 20.4327 12.4499L15.5486 15.5365L16.3524 16.8084L21.2349 13.7227C22.389 12.997 22.1653 11.1883 20.9123 10.7376C19.5525 10.2486 18.0431 10.3619 16.7711 11.0483C16.7638 11.0521 14.5483 12.3443 14.5483 12.3443ZM5.46527 19.3511L3.93993 20.1832L1.71027 14.5892L3.23561 13.7571L5.46527 19.3511Z" fill="#D75050"/>
<path d="M6.91926 9.68025C6.77762 9.68025 6.63585 9.64034 6.51155 9.56018C4.64559 8.3566 3.30236 7.08965 2.51922 5.7946C1.62839 4.32147 1.65773 3.1392 1.83915 2.40684C2.16574 1.08837 3.26534 0.125665 4.57531 0.011162C5.4705 -0.0670573 6.30645 0.268902 6.93281 0.922139C7.50679 0.32322 8.2939 0.00637306 9.16437 0.0579297C10.5675 0.14124 11.787 1.15274 12.1298 2.51763C12.3129 3.24646 12.3374 4.41884 11.4147 5.86514C10.6293 7.0962 9.29712 8.30427 7.45338 9.45771C7.3132 9.59927 7.11837 9.68025 6.91926 9.68025ZM4.83072 1.50453C4.09314 1.50453 3.47334 2.06704 3.29951 2.76864C3.15761 3.34146 3.01856 5.36934 6.9105 8.01987C9.63873 6.2521 11.0389 4.35003 10.6706 2.88427C10.4552 2.02662 9.69257 1.59652 9.07519 1.55989C8.69496 1.53732 8.00458 1.63729 7.65201 2.56065C7.41727 3.17562 6.52821 3.19878 6.26154 2.5971C5.95112 1.89654 5.4343 1.50453 4.83072 1.50453Z" fill="#D75050"/>
<path d="M16.1824 9.68025C16.0408 9.68025 15.899 9.64034 15.7747 9.56018C13.9088 8.3566 12.5655 7.08965 11.7824 5.7946C10.8916 4.32147 10.9209 3.1392 11.1023 2.40684C11.4289 1.08837 12.5285 0.125665 13.8385 0.011162C14.7337 -0.0670573 15.5696 0.268902 16.196 0.922139C16.77 0.32322 17.5571 0.00637306 18.4276 0.0579297C19.8307 0.14124 21.0502 1.15274 21.393 2.51763C21.5761 3.24646 21.6006 4.41884 20.6779 5.86514C19.8925 7.0962 18.5603 8.30427 16.7166 9.45771C16.5764 9.59927 16.3816 9.68025 16.1824 9.68025ZM14.0939 1.50453C13.3563 1.50453 12.7365 2.06704 12.5627 2.76864C12.4208 3.34146 12.2817 5.36934 16.1737 8.01987C18.9019 6.2521 20.3021 4.35003 19.9338 2.88427C19.7184 2.02662 18.9558 1.59652 18.3384 1.55989C17.9581 1.53732 17.2678 1.63729 16.9152 2.56065C16.6805 3.17562 15.7914 3.19878 15.5247 2.5971C15.2143 1.89654 14.6975 1.50453 14.0939 1.50453Z" fill="#D75050"/>
</g>
<defs>
<clipPath id="clip0_1790_6738">
<rect width="22" height="22" fill="white"/>
</clipPath>
</defs>
</svg>
