<svg width="22" height="22" viewBox="0 0 22 22" fill="none" xmlns="http://www.w3.org/2000/svg">
<g clip-path="url(#clip0_1790_6719)">
<path d="M13.291 16.9668L14.4952 16.2044L15.3002 17.4758L14.096 18.2382L13.291 16.9668Z" fill="#FAFAFA"/>
<path d="M14.5483 12.3443C14.3551 11.468 13.6651 10.8189 12.8201 10.7934C12.8154 10.7933 12.8106 10.7932 12.8059 10.7931L9.69438 10.7583C8.27983 10.2295 7.01275 10.245 5.92639 10.805C5.18665 11.1862 4.6537 11.7651 4.27882 12.3281C4.08196 11.9702 3.61924 11.8339 3.2599 12.03L0.404311 13.5878C0.0702066 13.7701 -0.0751442 14.1732 0.0658059 14.5267L2.85659 21.5285C3.02097 21.9408 3.52493 22.1235 3.9156 21.9104L6.77123 20.3525C7.1738 20.1329 7.25267 19.8082 7.05291 19.2753H12.1933C12.335 19.2753 12.4738 19.2331 12.5938 19.1578L13.1365 18.8154L12.3357 17.5434L11.9765 17.7709H6.45322L5.02499 14.1854C5.187 13.7228 5.65722 12.6329 6.62337 12.1395C7.33943 11.7738 8.23134 11.7969 9.2742 12.2092C9.35963 12.2429 9.45053 12.2605 9.54234 12.2616L12.7788 12.2976C12.9134 12.3057 13.098 12.5143 13.098 12.8432C13.1126 13.1256 13.0035 13.3107 12.7704 13.3985H9.60348V14.903H12.7704C13.1819 14.903 13.5807 14.7442 13.9004 14.4643L17.4962 12.3666C18.3902 11.8881 19.4491 11.8102 20.4031 12.1533C20.5325 12.1998 20.5474 12.3777 20.4327 12.4499L15.5486 15.5365L16.3524 16.8084L21.2349 13.7227C22.389 12.997 22.1653 11.1883 20.9123 10.7376C19.5525 10.2486 18.0431 10.3619 16.7711 11.0483C16.7638 11.0521 14.5483 12.3443 14.5483 12.3443ZM5.46527 19.3511L3.93993 20.1832L1.71027 14.5892L3.23561 13.7571L5.46527 19.3511Z" fill="#FAFAFA"/>
<path d="M14.4456 9.68025C14.304 9.68025 14.1622 9.64034 14.0379 9.56018C12.172 8.3566 10.8287 7.08965 10.0456 5.7946C9.15476 4.32147 9.18409 3.1392 9.36551 2.40684C9.69211 1.08837 10.7917 0.125665 12.1017 0.011162C12.9969 -0.0670573 13.8328 0.268902 14.4592 0.922139C15.0332 0.32322 15.8203 0.00637306 16.6907 0.0579297C18.0939 0.14124 19.3133 1.15274 19.6562 2.51763C19.8393 3.24646 19.8638 4.41884 18.9411 5.86514C18.1557 7.0962 16.8235 8.30427 14.9797 9.45771C14.8396 9.59927 14.6447 9.68025 14.4456 9.68025ZM12.3571 1.50453C11.6195 1.50453 10.9997 2.06704 10.8259 2.76864C10.684 3.34146 10.5449 5.36934 14.4369 8.01987C17.1651 6.2521 18.5652 4.35003 18.197 2.88427C17.9816 2.02662 17.2189 1.59652 16.6016 1.55989C16.2213 1.53732 15.5309 1.63729 15.1784 2.56065C14.9436 3.17562 14.0546 3.19878 13.7879 2.5971C13.4775 1.89654 12.9607 1.50453 12.3571 1.50453Z" fill="#FAFAFA"/>
</g>
<defs>
<clipPath id="clip0_1790_6719">
<rect width="22" height="22" fill="white"/>
</clipPath>
</defs>
</svg>
