<svg width="58" height="58" viewBox="0 0 58 58" fill="none" xmlns="http://www.w3.org/2000/svg">
<path d="M11.3589 42.7747C8.94219 40.1164 7.49219 37.2164 7.49219 32.3831C7.49219 23.9247 13.5339 16.4331 21.9922 12.5664L24.1672 15.7081C16.1922 20.0581 14.5005 25.6164 14.0172 29.2414C15.2255 28.5164 16.9172 28.2747 18.6089 28.5164C22.9589 28.9997 26.3422 32.3831 26.3422 36.9747C26.3422 39.1497 25.3755 41.3247 23.9255 43.0164C22.2339 44.7081 20.3005 45.4331 17.8839 45.4331C15.2255 45.4331 12.8089 44.2247 11.3589 42.7747ZM35.5255 42.7747C33.1089 40.1164 31.6589 37.2164 31.6589 32.3831C31.6589 23.9247 37.7005 16.4331 46.1589 12.5664L48.3339 15.7081C40.3589 20.0581 38.6672 25.6164 38.1839 29.2414C39.3922 28.5164 41.0839 28.2747 42.7755 28.5164C47.1255 28.9997 50.5089 32.3831 50.5089 36.9747C50.5089 39.1497 49.5422 41.3247 48.0922 43.0164C46.6422 44.7081 44.4672 45.4331 42.0505 45.4331C39.3922 45.4331 36.9755 44.2247 35.5255 42.7747Z" fill="#041E42"/>
</svg>
