<svg width="36" height="36" viewBox="0 0 36 36" fill="none" xmlns="http://www.w3.org/2000/svg">
<mask id="mask0_1707_5478" style="mask-type:luminance" maskUnits="userSpaceOnUse" x="0" y="0" width="36" height="36">
<path d="M0 3.8147e-06H36V36H0V3.8147e-06Z" fill="white"/>
</mask>
<g mask="url(#mask0_1707_5478)">
<path d="M14.1581 13.8916C14.0491 13.8213 13.9197 13.7812 13.7812 13.7812C13.3931 13.7812 13.0781 14.0963 13.0781 14.4844C13.0781 14.6686 13.1491 14.8366 13.2652 14.9618C13.3938 15.101 13.5773 15.1875 13.7812 15.1875C14.1693 15.1875 14.4844 14.8725 14.4844 14.4844C14.4844 14.2348 14.3543 14.0161 14.1581 13.8916Z" fill="#5BC2E7"/>
<path d="M18 0.703125V5.34375" stroke="#5BC2E7" stroke-width="2.4" stroke-linecap="round" stroke-linejoin="round"/>
<path d="M18 30.6562V35.2969" stroke="#5BC2E7" stroke-width="2.4" stroke-linecap="round" stroke-linejoin="round"/>
<path d="M4.66016 6.06742L7.64352 9.05078" stroke="#5BC2E7" stroke-width="2.4" stroke-linecap="round" stroke-linejoin="round"/>
<path d="M28.3555 27.6524L31.3388 30.6357" stroke="#5BC2E7" stroke-width="2.4" stroke-linecap="round" stroke-linejoin="round"/>
<path d="M31.3388 6.06742L28.3555 9.05078" stroke="#5BC2E7" stroke-width="2.4" stroke-linecap="round" stroke-linejoin="round"/>
<path d="M7.64352 27.6524L4.66016 30.6357" stroke="#5BC2E7" stroke-width="2.4" stroke-linecap="round" stroke-linejoin="round"/>
<path d="M33.4687 18C33.4687 18 27.3199 27.1406 18 27.1406C8.68008 27.1406 2.53125 18 2.53125 18C2.53125 18 8.68008 8.85938 18 8.85938C27.3199 8.85938 33.4687 18 33.4687 18Z" stroke="#5BC2E7" stroke-width="2.4" stroke-linecap="round" stroke-linejoin="round"/>
<path d="M15.9898 12.7448C16.015 12.735 16.0404 12.7259 16.0657 12.7167C16.0938 12.7062 16.122 12.6963 16.1501 12.6865C16.1754 12.6773 16.2007 12.6689 16.2267 12.6605C16.2598 12.6492 16.2942 12.638 16.328 12.6274C16.3716 12.6141 16.4152 12.6007 16.4595 12.5887C16.5023 12.5761 16.5459 12.5641 16.5902 12.5529C16.6366 12.5409 16.683 12.5297 16.7295 12.5191C16.773 12.5093 16.8159 12.4995 16.8595 12.491C16.8947 12.4833 16.9298 12.4762 16.9657 12.4699C16.9966 12.4643 17.0276 12.4587 17.0585 12.4537C17.0753 12.4502 17.0929 12.4474 17.1105 12.4453C17.1422 12.4397 17.1738 12.4355 17.2055 12.4312C17.2139 12.4298 17.2216 12.4284 17.2301 12.4277C17.2568 12.4235 17.2842 12.42 17.3116 12.4165C17.3412 12.413 17.3707 12.4095 17.4002 12.4066L17.4424 12.4024C17.4727 12.3989 17.5036 12.3961 17.5338 12.394C17.5499 12.3926 17.5662 12.3912 17.5823 12.3905C17.6027 12.3884 17.6238 12.387 17.6442 12.3862C17.6745 12.3841 17.7053 12.3827 17.7356 12.3813C17.775 12.3792 17.8144 12.3778 17.8545 12.3771C17.9023 12.3757 17.9514 12.375 18 12.375C21.1064 12.375 23.625 14.8936 23.625 18C23.625 18.971 23.3789 19.8844 22.9458 20.681C22.9029 20.7598 22.8585 20.8378 22.8122 20.9137C22.7882 20.9538 22.7637 20.9925 22.7383 21.0319C22.6934 21.1022 22.647 21.1711 22.5991 21.2393C22.5942 21.2463 22.5892 21.2527 22.5844 21.2597C22.4817 21.4045 22.372 21.5445 22.2552 21.678C22.1674 21.78 22.0753 21.8791 21.9796 21.9748C21.8932 22.0612 21.8038 22.1456 21.7118 22.2258C21.3258 22.5654 20.8934 22.853 20.4244 23.0766C20.347 23.1138 20.2689 23.149 20.1895 23.1827C20.0215 23.2537 19.8485 23.317 19.6727 23.3719C19.4963 23.4267 19.317 23.4731 19.1334 23.5104C18.7671 23.5856 18.3881 23.625 18 23.625C14.8936 23.625 12.375 21.1064 12.375 18C12.375 17.9515 12.3757 17.903 12.3771 17.8552C12.3778 17.8158 12.3791 17.7771 12.3813 17.7377C12.3827 17.7012 12.3848 17.6646 12.387 17.6287C12.3877 17.6182 12.3884 17.6077 12.3891 17.5971C12.3919 17.5634 12.3939 17.5296 12.3975 17.4959C12.3982 17.4874 12.3989 17.4797 12.3995 17.4712C12.4031 17.4312 12.4073 17.3911 12.4123 17.3517V17.3503C12.4171 17.3081 12.4221 17.2659 12.4284 17.2237C12.4327 17.1921 12.4369 17.1605 12.4425 17.1288C12.4481 17.0866 12.4551 17.0459 12.4629 17.0044C12.4642 16.9931 12.4664 16.9826 12.4685 16.9713" stroke="#5BC2E7" stroke-width="2.4" stroke-linecap="round" stroke-linejoin="round"/>
<path d="M18 20.1094C16.837 20.1094 15.8906 19.163 15.8906 18C15.8906 16.837 16.837 15.8906 18 15.8906C19.163 15.8906 20.1094 16.837 20.1094 18C20.1094 19.163 19.163 20.1094 18 20.1094Z" stroke="#5BC2E7" stroke-width="2.4" stroke-linecap="round" stroke-linejoin="round"/>
</g>
</svg>
