<svg width="24" height="24" viewBox="0 0 24 24" fill="none" xmlns="http://www.w3.org/2000/svg">
<path d="M12.083 11.5497C12.083 11.8016 11.9864 12.0432 11.8145 12.2214C11.6426 12.3995 11.4095 12.4996 11.1664 12.4996H2.91664C2.67353 12.4996 2.44038 12.3995 2.26848 12.2214C2.09657 12.0432 2 11.8016 2 11.5497C2 11.2977 2.09657 11.0561 2.26848 10.8779C2.44038 10.6998 2.67353 10.5997 2.91664 10.5997H11.1664C11.4095 10.5997 11.6426 10.6998 11.8145 10.8779C11.9864 11.0561 12.083 11.2977 12.083 11.5497ZM2.91664 4.89993H18.4995C18.7426 4.89993 18.9757 4.79984 19.1476 4.62169C19.3195 4.44353 19.4161 4.20191 19.4161 3.94996C19.4161 3.69802 19.3195 3.45639 19.1476 3.27824C18.9757 3.10009 18.7426 3 18.4995 3H2.91664C2.67353 3 2.44038 3.10009 2.26848 3.27824C2.09657 3.45639 2 3.69802 2 3.94996C2 4.20191 2.09657 4.44353 2.26848 4.62169C2.44038 4.79984 2.67353 4.89993 2.91664 4.89993ZM9.33309 18.1994H2.91664C2.67353 18.1994 2.44038 18.2995 2.26848 18.4776C2.09657 18.6558 2 18.8974 2 19.1494C2 19.4013 2.09657 19.6429 2.26848 19.8211C2.44038 19.9992 2.67353 20.0993 2.91664 20.0993H9.33309C9.5762 20.0993 9.80935 19.9992 9.98125 19.8211C10.1532 19.6429 10.2497 19.4013 10.2497 19.1494C10.2497 18.8974 10.1532 18.6558 9.98125 18.4776C9.80935 18.2995 9.5762 18.1994 9.33309 18.1994ZM23.7312 15.6274C23.646 15.5391 23.5449 15.469 23.4337 15.4212C23.3224 15.3734 23.2031 15.3488 23.0826 15.3488C22.9622 15.3488 22.8429 15.3734 22.7316 15.4212C22.6203 15.469 22.5193 15.5391 22.4341 15.6274L19.4161 18.7563V9.64974C19.4161 9.39779 19.3195 9.15617 19.1476 8.97801C18.9757 8.79986 18.7426 8.69978 18.4995 8.69978C18.2564 8.69978 18.0232 8.79986 17.8513 8.97801C17.6794 9.15617 17.5828 9.39779 17.5828 9.64974V18.7563L14.5648 15.6274C14.3928 15.4491 14.1595 15.349 13.9163 15.349C13.673 15.349 13.4398 15.4491 13.2678 15.6274C13.0958 15.8056 12.9991 16.0474 12.9991 16.2995C12.9991 16.5516 13.0958 16.7933 13.2678 16.9716L17.8509 21.7214C17.9361 21.8097 18.0372 21.8798 18.1484 21.9276C18.2597 21.9754 18.379 22 18.4995 22C18.6199 22 18.7392 21.9754 18.8505 21.9276C18.9618 21.8798 19.0628 21.8097 19.148 21.7214L23.7312 16.9716C23.8164 16.8834 23.884 16.7786 23.9301 16.6633C23.9763 16.5479 24 16.4243 24 16.2995C24 16.1746 23.9763 16.051 23.9301 15.9357C23.884 15.8204 23.8164 15.7156 23.7312 15.6274Z" fill="#041E42"/>
</svg>
