<svg width="75" height="75" viewBox="0 0 75 75" fill="none" xmlns="http://www.w3.org/2000/svg">
<g clip-path="url(#clip0_1746_31316)">
<path d="M37.5 0C16.7864 0 0 16.7864 0 37.5C0 58.2136 16.7864 75 37.5 75C51.6289 75 63.9272 67.19 70.3199 55.6447C72.7116 51.3337 74.2766 46.4911 74.8081 41.3386C74.9262 40.0837 75 38.7992 75 37.5C75 16.7864 58.2136 0 37.5 0Z" fill="#D75050"/>
<path d="M37.4989 65.1081C52.7465 65.1081 65.1072 52.7475 65.1072 37.4999C65.1072 22.2522 52.7465 9.8916 37.4989 9.8916C22.2513 9.8916 9.89062 22.2522 9.89062 37.4999C9.89062 52.7475 22.2513 65.1081 37.4989 65.1081Z" fill="#FAFAFA"/>
<path d="M37.4986 55.2014C47.2751 55.2014 55.2004 47.276 55.2004 37.4996C55.2004 27.7232 47.2751 19.7979 37.4986 19.7979C27.7222 19.7979 19.7969 27.7232 19.7969 37.4996C19.7969 47.276 27.7222 55.2014 37.4986 55.2014Z" fill="#D75050"/>
<path d="M37.4975 45.3105C41.8109 45.3105 45.3076 41.8138 45.3076 37.5005C45.3076 33.1871 41.8109 29.6904 37.4975 29.6904C33.1842 29.6904 29.6875 33.1871 29.6875 37.5005C29.6875 41.8138 33.1842 45.3105 37.4975 45.3105Z" fill="#FAFAFA"/>
<path opacity="0.2" d="M74.8058 41.3387C74.2743 46.4913 72.7093 51.3338 70.3176 55.6448L60.4111 52.5739L59.3481 46.1812L37.2467 39.3161C36.3461 39.0355 35.8442 38.0759 36.1247 37.1901C36.4052 36.2895 37.3648 35.7875 38.2507 36.068L60.352 42.9479L64.855 38.2678L74.8058 41.3387Z" fill="#041E42"/>
<path d="M66.1593 8.69587L55.0127 20.123L52.0156 11.4419L63.1623 0L66.1593 8.69587Z" fill="#5BC2E7"/>
<path d="M63.7853 22.899L74.932 11.4571L66.1623 8.69629L55.0156 20.1235L63.7853 22.899Z" fill="#5BC2E7"/>
<path d="M71.3386 6.05314L39.3307 38.9025C38.6073 39.6407 37.4262 39.6555 36.688 38.9321C35.9498 38.2087 35.935 37.0275 36.6585 36.2894L68.6663 3.43995C69.3898 2.70176 70.5709 2.687 71.3091 3.41042C72.0325 4.13385 72.0472 5.31495 71.3386 6.05314Z" fill="#041E42"/>
</g>
<defs>
<clipPath id="clip0_1746_31316">
<rect width="75" height="75" fill="white"/>
</clipPath>
</defs>
</svg>
