<svg width="38" height="38" viewBox="0 0 38 38" fill="none" xmlns="http://www.w3.org/2000/svg">
<path d="M33.8438 21.3754V30.8754C33.8438 31.3478 33.6561 31.8009 33.322 32.135C32.988 32.469 32.5349 32.6567 32.0625 32.6567H5.9375C5.46508 32.6567 5.01202 32.469 4.67797 32.135C4.34392 31.8009 4.15625 31.3478 4.15625 30.8754V21.3754C4.15625 20.903 4.34392 20.4499 4.67797 20.1159C5.01202 19.7818 5.46508 19.5942 5.9375 19.5942C6.40992 19.5942 6.86298 19.7818 7.19703 20.1159C7.53108 20.4499 7.71875 20.903 7.71875 21.3754V29.0942H30.2812V21.3754C30.2812 20.903 30.4689 20.4499 30.803 20.1159C31.137 19.7818 31.5901 19.5942 32.0625 19.5942C32.5349 19.5942 32.988 19.7818 33.322 20.1159C33.6561 20.4499 33.8438 20.903 33.8438 21.3754ZM14.3227 11.9482L17.2188 9.05512V21.3754C17.2188 21.8478 17.4064 22.3009 17.7405 22.635C18.0745 22.969 18.5276 23.1567 19 23.1567C19.4724 23.1567 19.9255 22.969 20.2595 22.635C20.5936 22.3009 20.7812 21.8478 20.7812 21.3754V9.05512L23.6773 11.9526C23.843 12.1183 24.0397 12.2497 24.2561 12.3394C24.4726 12.4291 24.7047 12.4752 24.939 12.4752C25.1733 12.4752 25.4053 12.4291 25.6218 12.3394C25.8383 12.2497 26.035 12.1183 26.2007 11.9526C26.3664 11.7869 26.4978 11.5902 26.5875 11.3737C26.6772 11.1572 26.7233 10.9252 26.7233 10.6909C26.7233 10.4566 26.6772 10.2245 26.5875 10.0081C26.4978 9.79157 26.3664 9.59487 26.2007 9.42918L20.2632 3.49168C20.0977 3.32562 19.9011 3.19386 19.6846 3.10396C19.4681 3.01405 19.2359 2.96777 19.0015 2.96777C18.767 2.96777 18.5349 3.01405 18.3184 3.10396C18.1019 3.19386 17.9053 3.32562 17.7398 3.49168L11.8023 9.42918C11.6366 9.59487 11.5051 9.79157 11.4155 10.0081C11.3258 10.2245 11.2796 10.4566 11.2796 10.6909C11.2796 11.1641 11.4676 11.618 11.8023 11.9526C12.1369 12.2872 12.5907 12.4752 13.064 12.4752C13.5372 12.4752 13.9911 12.2872 14.3257 11.9526L14.3227 11.9482Z" fill="#5BC2E7"/>
</svg>
