<svg width="40" height="40" viewBox="0 0 40 40" fill="none" xmlns="http://www.w3.org/2000/svg">
<path d="M25.6853 28.2973C26.8388 27.1679 27.6296 25.7206 27.9571 24.1399C28.2845 22.5592 28.1336 20.9167 27.5238 19.4221C26.9139 17.9275 25.8726 16.6484 24.5327 15.748C23.1929 14.8477 21.6152 14.3668 20.0009 14.3668C18.3867 14.3668 16.809 14.8477 15.4692 15.748C14.1293 16.6484 13.088 17.9275 12.4781 19.4221C11.8683 20.9167 11.7174 22.5592 12.0448 24.1399C12.3723 25.7206 13.1631 27.1679 14.3166 28.2973C12.3637 29.3354 10.74 30.899 9.62907 32.8114C9.39115 33.2413 9.3315 33.7474 9.46295 34.2208C9.5944 34.6943 9.90645 35.0972 10.332 35.3429C10.7575 35.5887 11.2624 35.6575 11.7382 35.5347C12.214 35.4119 12.6225 35.1073 12.8759 34.6864C13.6086 33.4484 14.6511 32.4227 15.9007 31.7102C17.1504 30.9978 18.564 30.6231 20.0025 30.6231C21.441 30.6231 22.8547 30.9978 24.1043 31.7102C25.3539 32.4227 26.3964 33.4484 27.1291 34.6864C27.2497 34.9043 27.4125 35.096 27.6081 35.2504C27.8036 35.4047 28.028 35.5185 28.268 35.5851C28.508 35.6518 28.7589 35.6699 29.0061 35.6385C29.2532 35.6071 29.4915 35.5267 29.7073 35.4022C29.923 35.2776 30.1117 35.1113 30.2624 34.913C30.4132 34.7146 30.5229 34.4882 30.5851 34.247C30.6474 34.0058 30.6609 33.7546 30.625 33.5081C30.5891 33.2616 30.5044 33.0248 30.3759 32.8114C29.2641 30.8985 27.6394 29.3349 25.6853 28.2973ZM15.6259 22.5004C15.6259 21.6351 15.8825 20.7893 16.3633 20.0698C16.844 19.3503 17.5273 18.7896 18.3267 18.4584C19.1261 18.1273 20.0058 18.0407 20.8545 18.2095C21.7031 18.3783 22.4827 18.795 23.0945 19.4068C23.7064 20.0187 24.1231 20.7982 24.2919 21.6469C24.4607 22.4956 24.3741 23.3752 24.0429 24.1747C23.7118 24.9741 23.151 25.6574 22.4316 26.1381C21.7121 26.6188 20.8662 26.8754 20.0009 26.8754C18.8406 26.8754 17.7278 26.4145 16.9074 25.594C16.0869 24.7735 15.6259 23.6607 15.6259 22.5004ZM38.6275 23.9988C38.4306 24.1469 38.2064 24.2547 37.9678 24.3161C37.7291 24.3774 37.4808 24.3912 37.2368 24.3565C36.9929 24.3218 36.7582 24.2394 36.5461 24.114C36.3341 23.9885 36.1488 23.8225 36.0009 23.6254C34.6994 21.8926 32.8994 20.5645 31.4181 20.2442C31.0243 20.159 30.6683 19.9492 30.4031 19.6458C30.1378 19.3425 29.9773 18.9617 29.9454 18.56C29.9135 18.1583 30.0118 17.757 30.2259 17.4156C30.4399 17.0742 30.7583 16.8108 31.1338 16.6645C31.6012 16.482 32.0179 16.1896 32.3485 15.8121C32.6791 15.4345 32.9139 14.9829 33.033 14.4954C33.1522 14.0079 33.1522 13.4989 33.033 13.0114C32.9139 12.5239 32.6791 12.0723 32.3485 11.6948C32.0179 11.3172 31.6012 11.0248 31.1338 10.8423C30.6663 10.6598 30.1617 10.5926 29.6628 10.6464C29.1638 10.7001 28.6852 10.8732 28.2673 11.1511C27.8493 11.4289 27.5045 11.8033 27.2619 12.2426C27.1468 12.4652 26.9883 12.6625 26.7957 12.8228C26.6031 12.9831 26.3803 13.1032 26.1405 13.176C25.9007 13.2487 25.6488 13.2727 25.3996 13.2464C25.1504 13.2201 24.909 13.1441 24.6896 13.023C24.4703 12.9018 24.2774 12.7379 24.1225 12.5409C23.9676 12.344 23.8537 12.118 23.7876 11.8762C23.7215 11.6345 23.7045 11.382 23.7377 11.1336C23.7708 10.8852 23.8535 10.646 23.9806 10.4301C24.4446 9.60971 25.0723 8.89347 25.8247 8.32589C26.5772 7.7583 27.4383 7.35149 28.3545 7.13072C29.2708 6.90995 30.2227 6.87994 31.1511 7.04255C32.0795 7.20516 32.9645 7.55692 33.7512 8.07598C34.5379 8.59504 35.2094 9.27031 35.7241 10.0598C36.2389 10.8494 36.5858 11.7363 36.7433 12.6656C36.9008 13.5948 36.8655 14.5465 36.6397 15.4616C36.4139 16.3766 36.0024 17.2355 35.4306 17.9848C36.8064 18.9012 38.0141 20.0476 39.0009 21.3738C39.2995 21.7715 39.4279 22.2714 39.3578 22.7637C39.2878 23.256 39.0251 23.7002 38.6275 23.9988ZM8.58376 20.2488C7.10251 20.5692 5.30251 21.8973 4.00095 23.6317C3.70154 24.0293 3.25645 24.2917 2.76358 24.3611C2.27071 24.4306 1.77044 24.3014 1.37282 24.002C0.975206 23.7026 0.712812 23.2575 0.643365 22.7646C0.573918 22.2717 0.703107 21.7715 1.00251 21.3738C1.98976 20.048 3.19742 18.9017 4.57282 17.9848C4.00111 17.2355 3.58956 16.3766 3.36376 15.4616C3.13795 14.5465 3.1027 13.5948 3.2602 12.6656C3.41771 11.7363 3.76459 10.8494 4.27931 10.0598C4.79404 9.27031 5.4656 8.59504 6.2523 8.07598C7.03899 7.55692 7.92401 7.20516 8.85238 7.04255C9.78074 6.87994 10.7326 6.90995 11.6489 7.13072C12.5652 7.35149 13.4263 7.7583 14.1787 8.32589C14.9312 8.89347 15.5589 9.60971 16.0228 10.4301C16.15 10.646 16.2326 10.8852 16.2658 11.1336C16.2989 11.382 16.282 11.6345 16.2159 11.8762C16.1498 12.118 16.0359 12.344 15.881 12.5409C15.726 12.7379 15.5332 12.9018 15.3139 13.023C15.0945 13.1441 14.8531 13.2201 14.6039 13.2464C14.3547 13.2727 14.1027 13.2487 13.8629 13.176C13.6231 13.1032 13.4003 12.9831 13.2077 12.8228C13.0151 12.6625 12.8566 12.4652 12.7416 12.2426C12.499 11.8033 12.1541 11.4289 11.7362 11.1511C11.3183 10.8732 10.8396 10.7001 10.3407 10.6464C9.84174 10.5926 9.33718 10.6598 8.8697 10.8423C8.40222 11.0248 7.98556 11.3172 7.65497 11.6948C7.32437 12.0723 7.08957 12.5239 6.97041 13.0114C6.85126 13.4989 6.85126 14.0079 6.97041 14.4954C7.08957 14.9829 7.32437 15.4345 7.65497 15.8121C7.98556 16.1896 8.40222 16.482 8.8697 16.6645C9.24518 16.8108 9.56353 17.0742 9.77758 17.4156C9.99163 17.757 10.09 18.1583 10.0581 18.56C10.0262 18.9617 9.86568 19.3425 9.60041 19.6458C9.33513 19.9492 8.97919 20.159 8.58532 20.2442L8.58376 20.2488Z" fill="#041E42"/>
</svg>
