<svg width="419" height="419" viewBox="0 0 419 419" fill="none" xmlns="http://www.w3.org/2000/svg">
<path opacity="0.5" d="M275.606 168.726L274.83 186.883L257.178 189.715L88.918 182.538L89.8879 159.415C90.1207 154.178 94.5434 150.143 99.7809 150.337L204.298 154.798V159.997C204.298 164.808 208.217 168.726 213.027 168.726H227.188V176.951C227.188 180.753 231.65 182.732 234.482 180.249L247.44 168.726H275.567H275.606Z" fill="#B1BEC6"/>
<path opacity="0.5" d="M133.536 271.924L94.7011 270.255C89.4636 270.023 85.39 265.6 85.6228 260.362L87.873 207.561L133.342 209.5C129.657 210.509 126.863 213.341 125.816 216.833C125.35 218.346 125.234 219.975 125.505 221.644L133.536 271.885V271.924Z" fill="#B1BEC6"/>
<path opacity="0.8" d="M257.178 189.675L134.465 209.268C134.077 209.345 133.69 209.423 133.34 209.5L87.8711 207.56L88.9574 182.498L257.217 189.675H257.178Z" fill="#B1BEC6"/>
<path d="M257.216 190.258H257.177L88.3359 183.081L89.3446 159.377C89.5774 153.829 94.2718 149.522 99.8196 149.755L204.88 154.217V159.959C204.88 164.459 208.527 168.106 213.027 168.106H227.77V176.913C227.77 178.426 228.623 179.783 230.02 180.404C231.417 181.025 232.969 180.792 234.132 179.783L247.284 168.106H276.226L275.412 187.31L257.216 190.22V190.258ZM89.5386 181.956L257.139 189.095L274.287 186.34L275.024 169.27H247.711L234.908 180.637C233.434 181.956 231.378 182.266 229.554 181.452C227.731 180.637 226.645 178.891 226.645 176.913V169.27H213.066C207.945 169.27 203.755 165.08 203.755 159.959V155.303L99.7809 150.88C94.8925 150.686 90.7025 154.488 90.5085 159.415L89.5386 181.956Z" fill="#B1BEC6"/>
<path d="M134.195 272.505L94.6617 270.837C89.1139 270.604 84.8075 265.91 85.0403 260.362L87.3292 206.979L137.105 209.112L133.497 210.082C130.122 211.013 127.367 213.651 126.358 217.027C125.932 218.501 125.815 220.014 126.048 221.566L134.195 272.505ZM88.4155 208.181L86.2041 260.401C86.0102 265.328 89.8122 269.479 94.7393 269.673L132.876 271.303L124.962 221.721C124.69 220.014 124.806 218.307 125.311 216.678C126.164 213.807 128.143 211.401 130.742 209.966L88.4543 208.181H88.4155Z" fill="#B1BEC6"/>
<path d="M133.418 210.082H133.34L87.2891 208.104L88.4142 181.916H88.9961L262.92 189.365L134.582 209.849C134.233 209.888 133.883 209.966 133.534 210.082H133.457H133.418ZM88.453 207.017L133.263 208.918C133.612 208.841 134 208.763 134.349 208.685L251.436 189.986L89.4617 183.08L88.453 206.978V207.017Z" fill="#B1BEC6"/>
<path opacity="0.5" d="M307.07 287.87L292.25 195.069C291.319 189.172 285.771 185.137 279.874 186.107L134.466 209.307C130.237 209.967 126.939 213.031 125.814 216.911C125.348 218.424 125.232 220.054 125.504 221.722L140.324 314.523C141.255 320.42 146.803 324.454 152.7 323.485L298.108 300.284C299.777 300.013 301.328 299.353 302.648 298.461C305.906 296.172 307.769 292.137 307.109 287.908L307.07 287.87ZM164.416 219.239L165.735 227.464C165.697 227.464 165.658 227.464 165.619 227.464L163.252 227.852C162.127 228.046 161.002 227.735 160.149 227.115C160.032 227.037 159.955 226.959 159.838 226.843C159.722 226.765 159.644 226.649 159.567 226.571C159.412 226.416 159.295 226.261 159.179 226.106C159.101 225.989 159.024 225.873 158.985 225.757C158.752 225.33 158.597 224.864 158.519 224.36C158.442 223.856 158.442 223.351 158.519 222.886C158.519 222.769 158.558 222.614 158.636 222.498C158.674 222.304 158.752 222.11 158.868 221.916C158.907 221.799 158.985 221.683 159.062 221.567C159.14 221.45 159.218 221.334 159.295 221.218C159.916 220.364 160.886 219.743 162.011 219.549L164.378 219.161C164.416 219.161 164.455 219.161 164.494 219.161L164.416 219.239ZM135.552 222.187V222.071C135.242 220.248 136.483 218.541 138.306 218.269L160.382 214.739C162.205 214.467 163.912 215.67 164.184 217.493V217.609C164.184 217.609 164.106 217.609 164.067 217.609L161.701 217.997C159.606 218.347 157.976 219.743 157.239 221.567C157.161 221.722 157.123 221.877 157.045 222.032C157.045 222.11 157.006 222.187 156.967 222.265C156.89 222.614 156.812 222.925 156.773 223.312C156.773 223.468 156.773 223.662 156.773 223.856L144.514 225.795C143.66 223.08 140.945 221.295 138.035 221.761L135.668 222.149C135.629 222.149 135.591 222.149 135.552 222.149V222.187ZM137.104 232.042L135.785 223.817C135.823 223.817 135.862 223.817 135.901 223.817L138.268 223.429C140.557 223.08 142.69 224.632 143.04 226.882C143.389 229.171 141.837 231.305 139.587 231.654L137.22 232.042C137.181 232.042 137.143 232.042 137.104 232.042ZM141.216 236.542C139.393 236.814 137.686 235.611 137.414 233.787V233.671L139.897 233.283C140.518 233.167 141.1 232.973 141.643 232.701C141.953 232.546 142.264 232.352 142.535 232.119C142.69 232.003 142.807 231.886 142.923 231.77C143.04 231.654 143.156 231.537 143.272 231.421C144.242 230.335 144.824 228.938 144.785 227.425L157.045 225.485C157.084 225.64 157.161 225.834 157.239 225.989C157.355 226.3 157.549 226.61 157.743 226.921C157.782 226.998 157.821 227.076 157.899 227.115C158.015 227.27 158.093 227.386 158.209 227.541C158.636 228.046 159.179 228.511 159.761 228.86C159.916 228.938 160.071 229.016 160.226 229.093C160.382 229.171 160.537 229.21 160.692 229.287C161.041 229.404 161.351 229.481 161.739 229.559C162.321 229.636 162.942 229.636 163.563 229.559L166.046 229.171V229.287C166.356 231.111 165.115 232.818 163.291 233.089L141.216 236.62V236.542ZM188.47 302.457C187.811 303.349 186.841 304.009 185.677 304.164L157.123 308.703C154.795 309.091 152.583 307.5 152.196 305.134C152.002 303.97 152.312 302.845 152.971 301.953C153.631 301.06 154.601 300.401 155.765 300.246L184.319 295.706C186.647 295.318 188.858 296.948 189.246 299.276C189.44 300.44 189.13 301.565 188.47 302.457ZM232.349 295.474C231.689 296.366 230.719 297.025 229.555 297.181L201.001 301.759C198.673 302.147 196.462 300.517 196.074 298.189C195.88 297.025 196.191 295.9 196.85 295.008C197.51 294.116 198.479 293.456 199.643 293.301L228.197 288.762C230.525 288.374 232.737 290.003 233.125 292.331C233.319 293.495 233.008 294.62 232.349 295.512V295.474ZM254.075 217.066C249.807 217.765 245.772 214.816 245.113 210.549C244.414 206.281 247.324 202.246 251.63 201.587C255.898 200.888 259.933 203.798 260.592 208.104C261.291 212.372 258.381 216.407 254.075 217.066ZM274.753 213.73C270.485 214.428 266.451 211.518 265.791 207.212C265.093 202.944 268.002 198.91 272.309 198.25C276.576 197.552 280.611 200.461 281.271 204.768C281.969 209.035 279.059 213.07 274.753 213.73Z" fill="#B1BEC6"/>
<path d="M150.956 324.144C148.589 324.144 146.262 323.407 144.283 321.972C141.839 320.187 140.209 317.549 139.705 314.562L124.885 221.761C124.613 220.054 124.73 218.347 125.234 216.717C126.475 212.566 130.045 209.424 134.351 208.725L279.76 185.525C285.967 184.555 291.825 188.784 292.795 194.991L307.615 287.792C308.314 292.137 306.529 296.366 302.921 298.888C301.486 299.897 299.895 300.556 298.149 300.828L152.741 324.028C152.12 324.144 151.538 324.183 150.917 324.183L150.956 324.144ZM281.583 186.495C281.04 186.495 280.497 186.534 279.954 186.611L134.545 209.812C130.665 210.432 127.445 213.265 126.359 216.989C125.932 218.463 125.816 219.976 126.049 221.528L140.869 314.329C141.296 317.045 142.77 319.411 144.981 321.002C147.193 322.592 149.908 323.252 152.585 322.825L297.994 299.625C299.546 299.354 300.981 298.772 302.261 297.879C305.482 295.59 307.111 291.788 306.49 287.909L291.67 195.108C290.855 190.064 286.51 186.495 281.544 186.495H281.583Z" fill="#B1BEC6"/>
<path d="M162.592 228.51C161.584 228.51 160.653 228.2 159.799 227.618C159.683 227.54 159.566 227.424 159.45 227.346C159.334 227.23 159.217 227.152 159.101 226.997C158.946 226.842 158.79 226.648 158.674 226.454C158.596 226.337 158.519 226.221 158.441 226.066C158.17 225.561 157.976 225.057 157.898 224.514C157.82 223.971 157.82 223.389 157.898 222.846C157.898 222.691 157.976 222.535 158.014 222.38C158.092 222.186 158.17 221.953 158.247 221.721C158.286 221.604 158.364 221.449 158.441 221.333C158.519 221.177 158.596 221.061 158.674 220.945C159.411 219.897 160.536 219.238 161.778 219.044L164.144 218.656C164.144 218.656 164.222 218.656 164.261 218.656L164.804 218.578L164.92 219.121L166.317 227.928L165.735 228.006C165.696 228.006 165.657 228.006 165.618 228.006L163.252 228.394C162.98 228.432 162.748 228.471 162.515 228.471L162.592 228.51ZM159.489 221.915C159.45 222.031 159.372 222.109 159.334 222.225C159.256 222.38 159.178 222.535 159.14 222.691C159.14 222.807 159.062 222.923 159.062 223.04C158.984 223.466 158.984 223.893 159.062 224.281C159.14 224.708 159.256 225.096 159.489 225.484C159.566 225.6 159.605 225.678 159.683 225.755C159.76 225.911 159.877 226.027 159.993 226.143C160.071 226.26 160.187 226.337 160.265 226.376C160.342 226.454 160.459 226.531 160.536 226.609C161.312 227.152 162.243 227.385 163.213 227.23L165.153 226.919L164.028 219.82L162.088 220.13C161.157 220.285 160.303 220.789 159.76 221.565C159.683 221.643 159.644 221.759 159.566 221.837L159.489 221.915Z" fill="#B1BEC6"/>
<path d="M144.125 226.455L143.97 225.989C143.194 223.506 140.711 221.954 138.111 222.342L135.706 222.73C135.706 222.73 135.667 222.73 135.628 222.73L135.047 222.808L134.93 222.11C134.581 219.976 136.055 217.997 138.189 217.648L160.264 214.118C162.398 213.768 164.377 215.243 164.726 217.376L164.842 218.075L164.26 218.152C164.26 218.152 164.221 218.152 164.183 218.152H164.144L161.777 218.54C159.954 218.851 158.441 220.015 157.742 221.76C157.704 221.916 157.626 222.032 157.587 222.187C157.587 222.265 157.548 222.342 157.548 222.381C157.471 222.73 157.393 223.002 157.393 223.312C157.393 223.468 157.393 223.623 157.393 223.778V224.282L144.164 226.416L144.125 226.455ZM138.926 221.14C141.526 221.14 143.931 222.73 144.901 225.175L156.229 223.351C156.229 223.351 156.229 223.312 156.229 223.274C156.229 222.886 156.307 222.536 156.423 222.148C156.423 222.071 156.462 221.993 156.501 221.877C156.54 221.683 156.617 221.528 156.695 221.334C157.548 219.239 159.411 217.764 161.622 217.415L163.523 217.105C163.096 215.863 161.816 215.049 160.458 215.282L138.383 218.812C137.646 218.928 137.025 219.316 136.598 219.898C136.249 220.364 136.094 220.907 136.055 221.489L137.956 221.179C138.305 221.14 138.616 221.101 138.965 221.101L138.926 221.14Z" fill="#B1BEC6"/>
<path d="M136.638 232.701L136.522 232.119L135.125 223.312L135.707 223.234C135.746 223.234 135.785 223.234 135.823 223.234L138.19 222.846C140.789 222.42 143.195 224.204 143.621 226.803C144.048 229.403 142.264 231.808 139.664 232.235L137.298 232.623C137.259 232.623 137.22 232.623 137.181 232.623L136.599 232.701H136.638ZM136.444 224.282L137.569 231.381L139.509 231.071C141.488 230.761 142.807 228.898 142.496 226.959C142.186 225.019 140.324 223.661 138.384 223.971L136.444 224.282Z" fill="#B1BEC6"/>
<path d="M140.672 237.163C138.771 237.163 137.103 235.805 136.831 233.865L136.715 233.167L139.78 232.663C140.323 232.585 140.866 232.391 141.332 232.158C141.642 232.003 141.914 231.848 142.146 231.654C142.263 231.576 142.379 231.46 142.534 231.344C142.651 231.227 142.767 231.15 142.845 231.033C143.737 230.025 144.241 228.744 144.203 227.425V226.921L157.432 224.787L157.587 225.291C157.626 225.447 157.704 225.563 157.742 225.718C157.859 225.99 158.014 226.261 158.169 226.533C158.169 226.611 158.247 226.649 158.286 226.727C158.402 226.882 158.48 226.998 158.596 227.115C158.984 227.58 159.449 227.968 159.993 228.279C160.109 228.356 160.264 228.434 160.419 228.473C160.536 228.55 160.691 228.589 160.846 228.628C161.157 228.744 161.467 228.822 161.777 228.861C162.32 228.938 162.864 228.938 163.407 228.861L166.472 228.356L166.588 229.055C166.743 230.102 166.51 231.111 165.89 231.964C165.269 232.818 164.377 233.361 163.329 233.516L141.254 237.047C141.06 237.047 140.827 237.086 140.633 237.086L140.672 237.163ZM138.073 234.137C138.499 235.378 139.78 236.193 141.138 235.96L163.213 232.43C163.95 232.314 164.571 231.926 164.997 231.344C165.347 230.878 165.502 230.335 165.541 229.753L163.639 230.063C162.98 230.18 162.32 230.18 161.622 230.063C161.234 229.986 160.846 229.908 160.458 229.753C160.264 229.675 160.109 229.637 159.954 229.559C159.76 229.481 159.605 229.404 159.449 229.287C158.79 228.9 158.208 228.434 157.742 227.852C157.626 227.697 157.51 227.58 157.393 227.386C157.354 227.309 157.277 227.231 157.238 227.154C157.044 226.805 156.85 226.494 156.695 226.145C156.695 226.145 156.695 226.106 156.695 226.067L145.366 227.891C145.289 229.326 144.707 230.723 143.698 231.809C143.582 231.926 143.465 232.081 143.31 232.197C143.155 232.352 143 232.469 142.883 232.546C142.612 232.779 142.263 232.973 141.914 233.167C141.332 233.477 140.672 233.671 140.013 233.788L138.112 234.098L138.073 234.137Z" fill="#B1BEC6"/>
<path d="M156.387 309.363C155.378 309.363 154.37 309.053 153.555 308.432C152.507 307.656 151.809 306.531 151.615 305.251C151.421 303.97 151.732 302.69 152.469 301.643C153.245 300.595 154.37 299.897 155.65 299.703L184.204 295.164C186.842 294.737 189.364 296.56 189.791 299.198C189.985 300.479 189.674 301.759 188.937 302.806C188.161 303.854 187.036 304.552 185.756 304.746L157.202 309.285C156.93 309.324 156.697 309.363 156.426 309.363H156.387ZM184.98 296.25C184.786 296.25 184.592 296.25 184.398 296.289L155.844 300.828C154.874 300.983 154.02 301.526 153.4 302.302C152.818 303.117 152.585 304.087 152.74 305.057C152.895 306.027 153.439 306.88 154.214 307.462C155.029 308.044 155.999 308.277 156.969 308.122L185.523 303.582C186.493 303.427 187.385 302.884 187.967 302.108C188.549 301.293 188.782 300.323 188.627 299.354C188.316 297.53 186.765 296.211 184.941 296.211L184.98 296.25Z" fill="#B1BEC6"/>
<path d="M200.305 302.379C197.938 302.379 195.882 300.672 195.494 298.267C195.3 296.986 195.61 295.706 196.348 294.659C197.123 293.611 198.249 292.913 199.529 292.719L228.083 288.18C229.363 287.986 230.643 288.296 231.691 289.033C232.738 289.77 233.437 290.934 233.631 292.214C233.825 293.495 233.514 294.775 232.777 295.822C232.001 296.87 230.876 297.568 229.596 297.762L201.042 302.34C200.77 302.379 200.538 302.418 200.266 302.418L200.305 302.379ZM228.898 289.227C228.704 289.227 228.51 289.227 228.316 289.266L199.762 293.805C198.792 293.96 197.938 294.503 197.356 295.279C196.774 296.055 196.542 297.064 196.697 298.034C197.007 300.051 198.908 301.448 200.964 301.099L229.518 296.521C230.488 296.366 231.342 295.822 231.924 295.047C232.506 294.232 232.738 293.262 232.583 292.292C232.428 291.322 231.885 290.469 231.109 289.848C230.488 289.382 229.712 289.149 228.936 289.149L228.898 289.227Z" fill="#B1BEC6"/>
<path d="M252.835 217.725C248.762 217.725 245.193 214.776 244.533 210.625C243.796 206.047 246.938 201.702 251.516 201.004C256.094 200.267 260.439 203.409 261.138 207.987C261.875 212.565 258.732 216.871 254.154 217.609C253.689 217.686 253.262 217.725 252.835 217.725ZM252.835 202.051C252.447 202.051 252.06 202.051 251.672 202.129C247.714 202.75 244.999 206.513 245.658 210.431C246.318 214.35 250.003 217.104 253.961 216.445C257.918 215.824 260.633 212.061 259.974 208.103C259.392 204.534 256.327 201.974 252.797 201.974L252.835 202.051Z" fill="#B1BEC6"/>
<path d="M273.511 214.428C271.765 214.428 270.058 213.885 268.584 212.838C266.761 211.519 265.558 209.579 265.209 207.367C264.472 202.789 267.614 198.444 272.192 197.746C274.404 197.397 276.654 197.94 278.477 199.259C280.301 200.578 281.503 202.518 281.852 204.729C282.59 209.307 279.447 213.614 274.869 214.351C274.404 214.428 273.977 214.467 273.511 214.467V214.428ZM273.55 198.755C273.162 198.755 272.774 198.755 272.386 198.832C268.429 199.453 265.713 203.216 266.373 207.135C266.683 209.036 267.731 210.743 269.282 211.868C270.873 212.993 272.774 213.458 274.675 213.148C278.632 212.527 281.348 208.803 280.689 204.846C280.378 202.945 279.331 201.238 277.779 200.113C276.537 199.22 275.063 198.716 273.511 198.716L273.55 198.755Z" fill="#B1BEC6"/>
<g opacity="0.2">
<path d="M166.007 229.092V229.209C166.317 231.032 165.076 232.739 163.252 233.011L141.177 236.541C139.354 236.813 137.647 235.61 137.375 233.787V233.67L139.858 233.282C140.479 233.166 141.061 232.972 141.604 232.7C141.914 232.545 142.225 232.351 142.496 232.119C142.651 232.002 142.768 231.886 142.884 231.769C143 231.653 143.117 231.537 143.233 231.42C144.203 230.334 144.785 228.937 144.746 227.424L157.006 225.484C157.045 225.64 157.122 225.834 157.2 225.989C157.316 226.299 157.51 226.609 157.704 226.92C157.743 226.997 157.782 227.075 157.859 227.114C157.976 227.269 158.053 227.385 158.17 227.541C158.597 228.045 159.14 228.51 159.722 228.821C159.877 228.898 160.032 228.976 160.187 229.054C160.342 229.131 160.498 229.17 160.653 229.248C161.002 229.364 161.312 229.442 161.7 229.519C162.282 229.597 162.903 229.597 163.524 229.519L166.007 229.131V229.092Z" fill="#B1BEC6"/>
<path d="M143.079 226.881C143.428 229.17 141.876 231.304 139.626 231.653L137.26 232.041C137.221 232.041 137.182 232.041 137.143 232.041L135.824 223.816C135.863 223.816 135.902 223.816 135.941 223.816L138.307 223.428C140.596 223.079 142.73 224.631 143.079 226.881Z" fill="#B1BEC6"/>
<path d="M164.455 219.238L165.774 227.463C165.735 227.463 165.697 227.463 165.658 227.463L163.291 227.851C162.166 228.045 161.041 227.734 160.188 227.114C160.071 227.036 159.994 226.958 159.877 226.881C159.761 226.803 159.683 226.687 159.606 226.609C159.451 226.454 159.334 226.299 159.218 226.144C159.14 226.027 159.063 225.911 159.024 225.795C158.791 225.368 158.636 224.902 158.558 224.398C158.481 223.894 158.481 223.428 158.558 222.924C158.558 222.807 158.597 222.652 158.636 222.536C158.675 222.342 158.752 222.148 158.869 221.954C158.985 221.76 158.985 221.721 159.063 221.605C159.14 221.488 159.218 221.372 159.295 221.255C159.916 220.402 160.886 219.781 162.011 219.587L164.378 219.199C164.416 219.199 164.455 219.199 164.494 219.199L164.455 219.238Z" fill="#B1BEC6"/>
<path d="M164.144 217.492V217.608C164.144 217.608 164.067 217.608 164.028 217.608L161.661 217.996C159.566 218.345 157.937 219.742 157.2 221.565C157.122 221.72 157.083 221.876 157.006 222.031C157.006 222.108 156.967 222.186 156.928 222.264C156.851 222.613 156.773 222.923 156.773 223.311C156.773 223.466 156.773 223.66 156.773 223.854L144.513 225.794C143.66 223.078 140.944 221.294 138.034 221.759L135.668 222.147C135.629 222.147 135.59 222.147 135.551 222.147V222.031C135.241 220.207 136.483 218.5 138.306 218.229L160.381 214.698C162.205 214.427 163.912 215.629 164.183 217.453L164.144 217.492Z" fill="#B1BEC6"/>
</g>
<g opacity="0.2">
<path d="M189.209 299.275C189.403 300.439 189.093 301.564 188.433 302.456C187.774 303.348 186.804 304.008 185.64 304.163L157.086 308.702C154.758 309.09 152.547 307.5 152.159 305.133C151.965 303.969 152.275 302.844 152.935 301.952C153.594 301.06 154.564 300.4 155.728 300.245L184.282 295.706C186.61 295.318 188.821 296.947 189.209 299.275Z" fill="#B1BEC6"/>
<path d="M233.127 292.253C233.321 293.417 233.011 294.542 232.351 295.435C231.692 296.327 230.722 296.987 229.558 297.142L201.004 301.681C198.676 302.069 196.465 300.478 196.077 298.112C195.883 296.948 196.193 295.823 196.853 294.93C197.512 294.038 198.482 293.378 199.646 293.223L228.2 288.684C230.528 288.296 232.739 289.926 233.127 292.253Z" fill="#B1BEC6"/>
</g>
<g opacity="0.2">
<path d="M260.591 208.065C261.289 212.332 258.38 216.367 254.073 217.027C249.806 217.725 245.771 214.815 245.111 210.509C244.413 206.241 247.323 202.206 251.629 201.547C255.897 200.848 259.931 203.758 260.591 208.065Z" fill="#B1BEC6"/>
<path d="M281.271 204.768C281.969 209.035 279.059 213.07 274.753 213.73C270.447 214.389 266.451 211.518 265.791 207.212C265.093 202.944 268.002 198.909 272.309 198.25C276.576 197.552 280.611 200.461 281.271 204.768Z" fill="#B1BEC6"/>
</g>
<g opacity="0.8">
<path d="M221.407 256.288C219.778 255.9 217.954 255.629 215.859 255.59C213.764 255.551 211.941 255.706 210.273 256.017C200.38 257.879 197.509 265.173 197.392 265.522C196.927 266.802 197.548 268.199 198.828 268.664C200.069 269.13 201.505 268.509 202.009 267.268C202.126 266.996 204.919 260.245 215.743 260.517C226.412 260.789 228.391 267.539 228.468 267.772C228.74 268.858 229.71 269.595 230.796 269.634C231.029 269.634 231.223 269.634 231.456 269.557C232.775 269.246 233.589 267.888 233.24 266.569C233.124 266.181 231.145 258.655 221.407 256.249V256.288Z" fill="#B1BEC6"/>
<path d="M231.727 232.972C227.808 232.856 224.55 235.959 224.472 239.878C224.356 243.796 227.459 247.055 231.378 247.133C235.296 247.249 238.555 244.145 238.633 240.227C238.749 236.308 235.645 233.05 231.727 232.972Z" fill="#B1BEC6"/>
<path d="M200.225 246.318C204.144 246.435 207.403 243.331 207.48 239.412C207.597 235.494 204.493 232.235 200.574 232.157C196.656 232.041 193.397 235.145 193.32 239.063C193.203 242.982 196.307 246.241 200.225 246.318Z" fill="#B1BEC6"/>
</g>
<path d="M230.835 270.217H230.757C229.399 270.217 228.235 269.248 227.886 267.928C227.886 267.851 226.063 261.372 215.704 261.1C215.471 261.1 215.277 261.1 215.045 261.1C205.462 261.1 202.785 266.842 202.475 267.502C201.854 269.054 200.108 269.83 198.556 269.209C197.004 268.627 196.228 266.881 196.81 265.329C196.927 265.019 199.914 257.376 210.118 255.475C211.863 255.126 213.803 255.009 215.821 255.048C217.799 255.087 219.739 255.359 221.485 255.785C231.262 258.191 233.512 265.64 233.744 266.493C234.132 268.122 233.163 269.791 231.533 270.179C231.3 270.256 231.068 270.256 230.796 270.256L230.835 270.217ZM215.083 259.936C215.316 259.936 215.51 259.936 215.743 259.936C226.994 260.247 228.973 267.579 229.011 267.657C229.205 268.472 229.942 269.054 230.796 269.092C230.951 269.092 231.145 269.092 231.3 269.054C231.805 268.937 232.193 268.627 232.464 268.2C232.736 267.773 232.813 267.269 232.697 266.765C232.503 265.989 230.408 259.122 221.291 256.872C219.623 256.445 217.799 256.251 215.859 256.173C213.92 256.134 212.096 256.251 210.389 256.6C200.768 258.385 198.052 265.446 197.936 265.756C197.586 266.726 198.052 267.812 199.022 268.161C199.992 268.549 201.078 268.045 201.466 267.075C201.776 266.338 204.725 259.975 215.083 259.975V259.936Z" fill="#B1BEC6"/>
<path d="M231.535 247.715H231.341C229.285 247.676 227.384 246.823 225.987 245.348C224.59 243.874 223.853 241.934 223.892 239.878C223.931 237.822 224.784 235.921 226.259 234.524C227.733 233.127 229.673 232.352 231.729 232.429C233.785 232.468 235.686 233.321 237.083 234.796C238.479 236.27 239.217 238.21 239.178 240.266C239.139 242.322 238.286 244.223 236.811 245.62C235.376 246.978 233.514 247.715 231.535 247.715ZM231.535 233.554C229.867 233.554 228.276 234.175 227.073 235.339C225.832 236.542 225.095 238.171 225.056 239.878C225.017 241.624 225.638 243.253 226.841 244.534C228.043 245.775 229.673 246.512 231.38 246.551C233.126 246.59 234.755 245.969 236.035 244.766C237.277 243.564 238.014 241.973 238.053 240.227C238.092 238.481 237.471 236.852 236.268 235.572C235.065 234.33 233.475 233.593 231.729 233.554H231.535Z" fill="#B1BEC6"/>
<path d="M200.419 246.901H200.225C195.996 246.785 192.66 243.254 192.776 239.064C192.893 234.913 196.307 231.615 200.419 231.615H200.613C202.669 231.654 204.57 232.508 205.967 233.982C207.364 235.456 208.14 237.396 208.062 239.452C207.946 243.603 204.532 246.901 200.419 246.901ZM200.225 245.737H200.38C203.911 245.737 206.782 242.944 206.898 239.413C206.976 235.844 204.144 232.818 200.574 232.74C197.005 232.663 194.018 235.495 193.901 239.064C193.824 242.633 196.656 245.621 200.225 245.737Z" fill="#B1BEC6"/>
<g opacity="0.2">
<path d="M310.06 133.771C307.965 134.392 305.715 134.741 303.426 134.741C301.137 134.741 300.244 134.586 298.731 134.237C298.731 134.237 298.654 134.237 298.615 134.237C287.868 131.948 279.799 122.249 279.799 110.571C279.799 98.8932 280.109 106.148 280.652 104.092C280.924 103.122 281.234 102.191 281.583 101.299C281.7 100.988 281.816 100.717 281.971 100.406H213.069C208.491 100.406 204.689 103.937 204.34 108.476C204.34 108.709 204.34 108.941 204.34 109.174V159.997C204.34 164.808 208.258 168.727 213.069 168.727H227.23V176.951C227.23 180.753 231.691 182.732 234.523 180.249L247.481 168.727H301.874C306.684 168.727 310.603 164.808 310.603 159.997V133.616C310.409 133.655 310.254 133.732 310.06 133.771ZM224.592 129.503L236.696 115.692C237.161 115.149 238.054 115.498 238.054 116.196L237.976 122.675C237.976 123.102 238.325 123.451 238.752 123.451H274.406C274.833 123.451 275.182 123.8 275.182 124.227V130.008C275.182 130.435 274.833 130.784 274.406 130.784H225.173C224.514 130.784 224.165 130.008 224.592 129.503ZM224.398 139.164C224.398 138.737 224.747 138.388 225.173 138.388H274.445C275.104 138.388 275.453 139.164 275.027 139.668L262.922 153.48C262.457 154.023 261.564 153.674 261.564 152.975L261.642 146.496C261.642 146.069 261.293 145.72 260.866 145.72H225.212C224.785 145.72 224.436 145.371 224.436 144.944V139.164H224.398Z" fill="#B1BEC6"/>
</g>
<path d="M231.614 181.917C230.915 181.917 230.217 181.762 229.557 181.452C227.734 180.637 226.648 178.891 226.648 176.912V169.27H213.069C207.948 169.27 203.758 165.08 203.758 159.958V109.135C203.758 108.864 203.758 108.631 203.758 108.398C204.146 103.587 208.219 99.8242 213.03 99.8242H282.863L282.475 100.639C282.359 100.911 282.243 101.182 282.126 101.492C281.777 102.385 281.467 103.316 281.195 104.208C280.652 106.264 280.342 108.398 280.342 110.532C280.342 121.667 288.062 131.366 298.692 133.616C298.692 133.616 298.692 133.616 298.731 133.616H298.809C300.322 133.926 301.874 134.12 303.387 134.12C305.598 134.12 307.771 133.81 309.866 133.189C310.021 133.15 310.215 133.073 310.37 133.034L311.107 132.801V159.997C311.107 165.118 306.917 169.308 301.796 169.308H247.636L234.834 180.676C233.903 181.49 232.739 181.956 231.536 181.956L231.614 181.917ZM213.03 100.988C208.801 100.988 205.232 104.286 204.883 108.515C204.883 108.709 204.883 108.903 204.883 109.135V159.958C204.883 164.459 208.53 168.106 213.03 168.106H227.773V176.912C227.773 178.426 228.626 179.783 230.023 180.404C231.42 181.025 232.971 180.792 234.135 179.783L247.287 168.106H301.874C306.374 168.106 310.021 164.459 310.021 159.958V134.353C306.335 135.4 302.378 135.556 298.615 134.78C298.615 134.78 298.576 134.78 298.537 134.78C287.325 132.413 279.255 122.21 279.255 110.532C279.255 98.8543 279.566 106.032 280.148 103.898C280.419 102.928 280.73 101.997 281.118 101.066V100.988H213.108H213.03Z" fill="#B1BEC6"/>
<path d="M274.406 131.365H225.173C224.63 131.365 224.164 131.054 223.932 130.589C223.699 130.084 223.777 129.541 224.164 129.153L236.269 115.342C236.657 114.915 237.239 114.76 237.743 114.954C238.248 115.148 238.636 115.652 238.597 116.234L238.519 122.713C238.519 122.791 238.519 122.829 238.558 122.868C238.597 122.907 238.636 122.946 238.713 122.946H274.367C275.104 122.946 275.725 123.566 275.725 124.304V130.084C275.725 130.821 275.104 131.442 274.367 131.442L274.406 131.365ZM237.239 116.04C237.2 116.04 237.122 116.04 237.084 116.118L224.979 129.929C224.902 130.007 224.94 130.084 224.979 130.162C225.018 130.239 225.057 130.278 225.173 130.278H274.406C274.522 130.278 274.6 130.201 274.6 130.084V124.304C274.6 124.187 274.522 124.11 274.406 124.11H238.752C238.403 124.11 238.054 123.954 237.782 123.722C237.51 123.489 237.394 123.101 237.394 122.752L237.472 116.312C237.472 116.195 237.394 116.156 237.355 116.118C237.355 116.118 237.316 116.118 237.278 116.118L237.239 116.04Z" fill="#B1BEC6"/>
<path d="M262.302 154.332C262.147 154.332 261.991 154.332 261.797 154.254C261.254 154.06 260.944 153.556 260.944 152.974L261.022 146.495C261.022 146.417 261.022 146.378 260.944 146.34C260.944 146.34 260.866 146.262 260.789 146.262H225.096C224.359 146.262 223.738 145.641 223.738 144.904V139.123C223.738 138.386 224.359 137.766 225.096 137.766H274.367C274.911 137.766 275.376 138.076 275.609 138.542C275.842 139.007 275.764 139.589 275.376 139.977L263.272 153.788C263 154.099 262.651 154.254 262.263 154.254L262.302 154.332ZM225.135 138.968C225.019 138.968 224.941 139.046 224.941 139.162V144.943C224.941 145.059 225.019 145.137 225.135 145.137H260.828C261.177 145.137 261.526 145.292 261.797 145.525C262.069 145.758 262.185 146.107 262.185 146.495L262.108 152.974C262.108 153.09 262.185 153.129 262.224 153.168C262.263 153.207 262.379 153.168 262.457 153.129L274.561 139.317C274.639 139.24 274.6 139.162 274.561 139.085C274.523 139.007 274.484 138.968 274.367 138.968H225.096H225.135Z" fill="#B1BEC6"/>
<g opacity="0.5">
<path d="M275.18 124.266V130.047C275.18 130.473 274.831 130.823 274.404 130.823H225.171C224.512 130.823 224.163 130.047 224.59 129.542L236.694 115.731C237.159 115.188 238.052 115.537 238.052 116.235L237.974 122.714C237.974 123.141 238.323 123.49 238.75 123.49H274.404C274.831 123.49 275.18 123.839 275.18 124.266Z" fill="#B1BEC6"/>
<path d="M274.985 139.669L262.88 153.48C262.415 154.024 261.523 153.674 261.523 152.976L261.6 146.497C261.6 146.07 261.251 145.721 260.824 145.721H225.17C224.744 145.721 224.395 145.372 224.395 144.945V139.165C224.395 138.738 224.744 138.389 225.17 138.389H274.442C275.101 138.389 275.45 139.165 275.024 139.669H274.985Z" fill="#B1BEC6"/>
</g>
<path d="M182.263 179.666L100.48 175.941C100.17 175.941 99.8985 175.67 99.9373 175.359C99.9761 175.049 100.209 174.777 100.519 174.816L182.302 178.541C182.612 178.541 182.884 178.812 182.845 179.123C182.845 179.433 182.573 179.666 182.263 179.666Z" fill="#B1BEC6"/>
<path d="M114.097 215.941L96.3672 215.281C96.0568 215.281 95.7852 215.01 95.824 214.699C95.824 214.389 96.0956 214.117 96.406 214.156L114.136 214.816C114.446 214.816 114.718 215.087 114.679 215.398C114.679 215.708 114.407 215.941 114.097 215.941Z" fill="#B1BEC6"/>
<path d="M249.77 291.321C249.499 291.321 249.266 291.127 249.189 290.856C249.15 290.545 249.344 290.235 249.654 290.196L296.21 282.786C296.52 282.747 296.83 282.941 296.869 283.252C296.908 283.562 296.714 283.872 296.404 283.911L249.848 291.321H249.77Z" fill="#B1BEC6"/>
<path opacity="0.5" d="M306.529 107.506V114.062C306.529 115.963 306.257 117.36 305.791 118.291C305.326 119.222 304.511 119.649 303.502 119.649C302.455 119.649 301.679 119.183 301.175 118.252C300.67 117.321 300.438 115.886 300.438 113.907V107.118C300.438 105.333 300.709 104.014 301.213 103.122C301.679 102.229 302.455 101.803 303.502 101.803C304.589 101.803 305.365 102.268 305.869 103.199C306.373 104.131 306.606 105.566 306.606 107.467L306.529 107.506Z" fill="#B1BEC6"/>
<g opacity="0.5">
<path d="M326.895 107.35C326.701 105.915 326.352 104.479 325.886 103.16C325.848 103.005 325.809 102.889 325.731 102.733C323.947 97.7287 320.571 93.4999 316.226 90.7066C312.812 88.4952 308.777 87.1373 304.432 86.9434C304.083 86.9434 303.734 86.9434 303.423 86.9434C301.134 86.9434 298.884 87.2925 296.789 87.9133C296.712 87.9133 296.634 87.9521 296.556 87.9909C292.793 89.116 289.457 91.1722 286.741 93.8879C286.198 94.431 285.693 94.9742 285.228 95.5561C281.775 99.7073 279.719 105.022 279.719 110.881C279.719 116.661 281.775 121.976 285.189 126.089C286.663 127.873 288.409 129.464 290.349 130.744C292.289 132.025 295.664 133.615 298.69 134.236C300.203 134.546 301.794 134.702 303.423 134.702C303.772 134.702 304.122 134.702 304.432 134.702C304.626 134.702 304.82 134.702 305.014 134.702C306.76 134.585 308.428 134.275 310.057 133.809C312.308 133.15 314.441 132.141 316.381 130.861C317.506 130.124 318.554 129.27 319.563 128.339C320.455 127.485 321.27 126.593 322.046 125.623C324.567 122.403 326.274 118.524 326.856 114.256C327.011 113.131 327.089 112.006 327.089 110.881C327.089 109.756 327.011 108.592 326.856 107.505L326.895 107.35ZM312.657 113.17C312.657 116.778 311.881 119.532 310.251 121.472C308.855 123.179 306.915 124.149 304.471 124.343C304.16 124.343 303.811 124.382 303.462 124.382H303.268C300.436 124.343 298.225 123.373 296.634 121.433C295.043 119.493 294.229 116.7 294.229 113.131V108.243C294.229 106.342 294.461 104.634 294.927 103.199C294.966 103.044 295.043 102.85 295.082 102.695C295.47 101.686 295.936 100.794 296.556 100.018C296.556 100.018 296.595 99.9789 296.634 99.9401C297.216 99.2418 297.875 98.6598 298.651 98.1943C299.97 97.4184 301.561 97.0304 303.423 96.9916C303.772 96.9916 304.122 96.9916 304.432 97.0304C306.876 97.2244 308.777 98.1943 310.213 99.9401C310.872 100.716 311.377 101.647 311.764 102.656C311.803 102.772 311.881 102.927 311.92 103.083C312.424 104.557 312.657 106.264 312.657 108.243V113.092V113.17Z" fill="#B1BEC6"/>
</g>
<path d="M303.502 120.231C302.222 120.231 301.252 119.649 300.67 118.563C300.127 117.554 299.855 116.041 299.855 113.946V107.157C299.855 105.256 300.166 103.859 300.67 102.889C301.252 101.842 302.222 101.26 303.464 101.26C304.744 101.26 305.752 101.842 306.334 102.967C306.878 104.014 307.149 105.489 307.149 107.506V114.063C307.149 116.08 306.878 117.554 306.334 118.563C305.752 119.649 304.783 120.192 303.541 120.192L303.502 120.231ZM303.425 102.385C302.571 102.385 301.989 102.695 301.64 103.394C301.213 104.169 300.981 105.45 300.942 107.118V113.907C300.942 115.77 301.175 117.166 301.64 117.981C302.028 118.718 302.61 119.067 303.464 119.067C304.317 119.067 304.899 118.718 305.287 118.02C305.714 117.205 305.946 115.886 305.985 114.101V107.545C305.985 105.721 305.753 104.402 305.287 103.51C304.899 102.773 304.317 102.424 303.464 102.424L303.425 102.385Z" fill="#B1BEC6"/>
<path d="M303.462 135.167C301.833 135.167 300.203 135.012 298.652 134.701C295.587 134.081 292.716 132.878 290.078 131.132C288.099 129.813 286.314 128.183 284.762 126.36C281.154 122.015 279.176 116.467 279.176 110.803C279.176 105.1 281.154 99.513 284.801 95.129C285.267 94.5471 285.81 93.9651 286.353 93.422C289.146 90.6287 292.638 88.5337 296.401 87.3698H296.479C296.518 87.331 296.557 87.331 296.595 87.2922C298.768 86.6326 301.057 86.3223 303.385 86.3223C303.734 86.3223 304.083 86.3223 304.432 86.3223C308.739 86.5162 312.929 87.8353 316.537 90.1631C321.037 93.0728 324.49 97.4568 326.274 102.5C326.313 102.656 326.391 102.772 326.43 102.927C326.895 104.324 327.244 105.759 327.438 107.233C327.594 108.359 327.671 109.522 327.671 110.686C327.671 111.85 327.594 113.014 327.438 114.139C326.856 118.368 325.149 122.403 322.511 125.778C321.735 126.748 320.882 127.679 319.989 128.571C318.981 129.503 317.895 130.395 316.731 131.132C314.713 132.451 312.541 133.499 310.252 134.158C308.583 134.662 306.838 134.973 305.092 135.089C304.859 135.089 304.665 135.089 304.471 135.089C304.083 135.089 303.734 135.089 303.423 135.089L303.462 135.167ZM303.423 87.4474C301.212 87.4474 299.04 87.7577 296.945 88.3785C296.906 88.3785 296.867 88.3785 296.828 88.3785C296.828 88.3785 296.751 88.3785 296.712 88.3785C293.142 89.4648 289.806 91.4434 287.168 94.1203C286.663 94.6247 286.159 95.1678 285.694 95.7498C282.241 99.9398 280.301 105.255 280.34 110.686C280.34 116.118 282.241 121.355 285.655 125.507C287.129 127.252 288.797 128.804 290.698 130.084C293.181 131.753 295.936 132.878 298.846 133.499C300.32 133.809 301.872 133.964 303.423 133.964C303.734 133.964 304.044 133.964 304.432 133.964C304.626 133.964 304.82 133.964 304.975 133.964C306.644 133.848 308.312 133.537 309.902 133.072C312.075 132.412 314.17 131.442 316.071 130.201C317.157 129.464 318.205 128.649 319.175 127.757C320.067 126.942 320.882 126.05 321.58 125.119C324.102 121.898 325.693 118.058 326.274 114.023C326.43 112.937 326.507 111.811 326.507 110.725C326.507 109.639 326.43 108.514 326.274 107.427C326.081 106.031 325.77 104.634 325.305 103.315C325.266 103.16 325.227 103.043 325.149 102.927C323.442 98.1163 320.145 93.9651 315.877 91.1718C312.424 88.9604 308.467 87.6801 304.355 87.525C304.005 87.525 303.695 87.525 303.385 87.525L303.423 87.4474Z" fill="#B1BEC6"/>
<path d="M303.309 124.963C300.283 124.924 297.916 123.876 296.248 121.82C294.541 119.764 293.688 116.854 293.688 113.168V108.28C293.688 106.302 293.92 104.556 294.386 103.043C294.425 102.887 294.502 102.693 294.541 102.538C294.929 101.452 295.472 100.521 296.093 99.7062V99.6286C296.791 98.8526 297.49 98.2319 298.343 97.7275C299.74 96.874 301.447 96.4473 303.425 96.4473C303.775 96.4473 304.124 96.4473 304.512 96.4861C307.111 96.7188 309.167 97.7663 310.68 99.5898C311.34 100.404 311.922 101.374 312.31 102.461C312.349 102.616 312.426 102.732 312.465 102.887C312.969 104.401 313.241 106.224 313.241 108.241V113.091C313.241 116.815 312.387 119.725 310.719 121.781C309.206 123.605 307.111 124.652 304.55 124.885C304.24 124.885 303.891 124.924 303.503 124.924H303.309V124.963ZM303.464 97.6499C301.718 97.6499 300.205 98.0379 298.964 98.7362C298.265 99.163 297.645 99.7062 297.102 100.366V100.443C296.481 101.18 296.015 102.034 295.666 102.965C295.627 103.12 295.55 103.275 295.511 103.431C295.084 104.827 294.851 106.457 294.851 108.319V113.207C294.851 116.621 295.627 119.298 297.14 121.122C298.615 122.906 300.632 123.799 303.348 123.837H303.542C303.891 123.837 304.201 123.837 304.473 123.799C306.723 123.605 308.546 122.712 309.866 121.122C311.379 119.298 312.116 116.621 312.116 113.168V108.319C312.116 106.418 311.883 104.75 311.417 103.353C311.379 103.237 311.34 103.081 311.262 102.965C310.913 101.995 310.409 101.142 309.827 100.404C308.508 98.8138 306.723 97.9215 304.434 97.7275C304.124 97.7275 303.775 97.6887 303.464 97.6887V97.6499Z" fill="#B1BEC6"/>
<path opacity="0.2" d="M133.537 209.461C133.498 209.461 133.42 209.461 133.343 209.5C133.304 209.5 133.226 209.5 133.188 209.539C133.304 209.539 133.42 209.461 133.537 209.461Z" fill="#B1BEC6"/>
<path opacity="0.2" d="M125.506 221.643C125.39 221.023 125.351 220.402 125.39 219.781C125.39 220.402 125.39 221.023 125.506 221.643Z" fill="#B1BEC6"/>
<path opacity="0.2" d="M86.98 228.277L87.8723 207.599L88.9586 182.536L89.0362 180.713C86.0489 182.032 83.3331 183.933 81.0441 186.222C76.2334 191.033 73.2461 197.667 73.2461 204.999C73.2461 212.332 78.794 223.777 87.0188 228.277H86.98Z" fill="#B1BEC6"/>
<path opacity="0.2" d="M312.891 178.424H291.01C285.191 178.424 279.798 176.523 275.414 173.342L274.832 186.882L279.876 186.067C285.773 185.136 291.32 189.132 292.252 195.029L298.071 231.536H312.852C320.185 231.536 326.819 228.549 331.63 223.738C336.441 218.927 339.428 212.293 339.428 204.961C339.428 190.296 327.517 178.385 312.852 178.385L312.891 178.424Z" fill="#B1BEC6"/>
<path opacity="0.2" d="M312.89 284.687H306.566L307.071 287.868C307.73 292.097 305.868 296.132 302.609 298.421C301.29 299.352 299.777 299.973 298.07 300.244L152.662 323.444C146.765 324.375 141.217 320.379 140.286 314.482L133.496 271.923L123.06 271.496C121.896 273.475 120.499 275.298 118.87 276.928C114.059 281.738 107.425 284.726 100.093 284.726H99.7434C92.4109 284.726 85.7768 287.713 80.966 292.524C76.1553 297.334 73.168 303.969 73.168 311.301C73.168 325.966 85.0784 337.877 99.7434 337.877H312.852C320.184 337.877 326.818 334.889 331.629 330.078C336.44 325.268 339.427 318.634 339.427 311.301C339.427 296.636 327.517 284.726 312.852 284.726L312.89 284.687Z" fill="#B1BEC6"/>
</svg>
