<svg width="33" height="33" viewBox="0 0 33 33" fill="none" xmlns="http://www.w3.org/2000/svg">
<path d="M31.3156 8.76836C30.9591 7.44298 29.9142 6.3982 28.589 6.04131C26.168 5.37891 16.484 5.37891 16.484 5.37891C16.484 5.37891 6.80036 5.37891 4.3794 6.0162C3.0797 6.37271 2.00924 7.44317 1.65273 8.76836C1.01562 11.1891 1.01562 16.2095 1.01562 16.2095C1.01562 16.2095 1.01562 21.2551 1.65273 23.6506C2.00961 24.9758 3.05421 26.0206 4.37959 26.3775C6.82585 27.0401 16.4844 27.0401 16.4844 27.0401C16.4844 27.0401 26.168 27.0401 28.589 26.4028C29.9144 26.0461 30.9591 25.0013 31.316 23.6761C31.9529 21.2551 31.9529 16.235 31.9529 16.235C31.9529 16.235 31.9784 11.1891 31.3156 8.76836ZM13.4008 20.8475V11.5715L21.4536 16.2095L13.4008 20.8475Z" fill="white"/>
</svg>
