<svg width="30" height="30" viewBox="0 0 30 30" fill="none" xmlns="http://www.w3.org/2000/svg">
<path d="M24.375 3.75H21.5625V2.8125C21.5625 2.56386 21.4637 2.3254 21.2879 2.14959C21.1121 1.97377 20.8736 1.875 20.625 1.875C20.3764 1.875 20.1379 1.97377 19.9621 2.14959C19.7863 2.3254 19.6875 2.56386 19.6875 2.8125V3.75H10.3125V2.8125C10.3125 2.56386 10.2137 2.3254 10.0379 2.14959C9.8621 1.97377 9.62364 1.875 9.375 1.875C9.12636 1.875 8.8879 1.97377 8.71209 2.14959C8.53627 2.3254 8.4375 2.56386 8.4375 2.8125V3.75H5.625C5.12772 3.75 4.65081 3.94754 4.29917 4.29917C3.94754 4.65081 3.75 5.12772 3.75 5.625V24.375C3.75 24.8723 3.94754 25.3492 4.29917 25.7008C4.65081 26.0525 5.12772 26.25 5.625 26.25H24.375C24.8723 26.25 25.3492 26.0525 25.7008 25.7008C26.0525 25.3492 26.25 24.8723 26.25 24.375V5.625C26.25 5.12772 26.0525 4.65081 25.7008 4.29917C25.3492 3.94754 24.8723 3.75 24.375 3.75ZM24.375 24.375H5.625V5.625H8.4375V6.5625C8.4375 6.81114 8.53627 7.0496 8.71209 7.22541C8.8879 7.40123 9.12636 7.5 9.375 7.5C9.62364 7.5 9.8621 7.40123 10.0379 7.22541C10.2137 7.0496 10.3125 6.81114 10.3125 6.5625V5.625H19.6875V6.5625C19.6875 6.81114 19.7863 7.0496 19.9621 7.22541C20.1379 7.40123 20.3764 7.5 20.625 7.5C20.8736 7.5 21.1121 7.40123 21.2879 7.22541C21.4637 7.0496 21.5625 6.81114 21.5625 6.5625V5.625H24.375V24.375ZM17.8125 10.3125C17.2801 10.3122 16.7538 10.4256 16.2688 10.6451C15.7838 10.8645 15.3512 11.185 15 11.5852C14.4964 11.0141 13.8308 10.6098 13.0918 10.4262C12.3528 10.2426 11.5755 10.2883 10.8631 10.5572C10.1507 10.8261 9.53709 11.3055 9.10381 11.9317C8.67052 12.5578 8.43812 13.3011 8.4375 14.0625C8.4375 18.3422 14.3297 21.3375 14.5805 21.4641C14.7107 21.5292 14.8544 21.5632 15 21.5632C15.1456 21.5632 15.2893 21.5292 15.4195 21.4641C15.6703 21.3375 21.5625 18.3422 21.5625 14.0625C21.5625 13.0679 21.1674 12.1141 20.4641 11.4108C19.7609 10.7076 18.8071 10.3125 17.8125 10.3125ZM15 19.5621C13.384 18.6492 10.3125 16.4273 10.3125 14.0625C10.3125 13.5652 10.51 13.0883 10.8617 12.7367C11.2133 12.385 11.6902 12.1875 12.1875 12.1875C12.6848 12.1875 13.1617 12.385 13.5133 12.7367C13.865 13.0883 14.0625 13.5652 14.0625 14.0625C14.0625 14.3111 14.1613 14.5496 14.3371 14.7254C14.5129 14.9012 14.7514 15 15 15C15.2486 15 15.4871 14.9012 15.6629 14.7254C15.8387 14.5496 15.9375 14.3111 15.9375 14.0625C15.9375 13.5652 16.135 13.0883 16.4867 12.7367C16.8383 12.385 17.3152 12.1875 17.8125 12.1875C18.3098 12.1875 18.7867 12.385 19.1383 12.7367C19.49 13.0883 19.6875 13.5652 19.6875 14.0625C19.6875 16.4285 16.616 18.6504 15 19.5621Z" />
</svg>
