<svg width="28" height="28" viewBox="0 0 28 28" fill="none" xmlns="http://www.w3.org/2000/svg">
<g clip-path="url(#clip0_1812_46673)">
<path d="M25.1923 15.4285C24.9062 15.208 24.5782 15.0481 24.2283 14.9584C23.8783 14.8687 23.5138 14.8511 23.1569 14.9068C25.2109 12.8331 26.25 10.7714 26.25 8.7501C26.25 5.85495 23.9214 3.5001 21.0591 3.5001C20.2996 3.49533 19.5482 3.65686 18.8578 3.97335C18.1674 4.28985 17.5546 4.75363 17.0625 5.33213C16.5704 4.75363 15.9576 4.28985 15.2672 3.97335C14.5768 3.65686 13.8254 3.49533 13.0659 3.5001C10.2036 3.5001 7.875 5.85495 7.875 8.7501C7.875 9.95323 8.22937 11.1224 8.97531 12.3595C8.36438 12.5143 7.80685 12.8318 7.36203 13.2782L4.88797 15.7501H1.75C1.28587 15.7501 0.840752 15.9345 0.512563 16.2627C0.184374 16.5909 0 17.036 0 17.5001L0 21.8751C0 22.3392 0.184374 22.7843 0.512563 23.1125C0.840752 23.4407 1.28587 23.6251 1.75 23.6251H13.125C13.1965 23.6251 13.2678 23.6163 13.3372 23.5989L20.3372 21.8489C20.3818 21.8382 20.4254 21.8236 20.4673 21.8051L24.7187 19.996L24.7669 19.9742C25.1755 19.77 25.5254 19.4652 25.7836 19.0884C26.0418 18.7116 26.1999 18.2753 26.2429 17.8206C26.2859 17.3659 26.2124 16.9077 26.0294 16.4892C25.8463 16.0707 25.5598 15.7057 25.1967 15.4285H25.1923ZM13.0659 5.2501C13.7436 5.24018 14.4089 5.43262 14.9766 5.80281C15.5444 6.173 15.9888 6.70411 16.2531 7.32823C16.319 7.48871 16.4312 7.62598 16.5753 7.72258C16.7194 7.81918 16.889 7.87076 17.0625 7.87076C17.236 7.87076 17.4056 7.81918 17.5497 7.72258C17.6938 7.62598 17.806 7.48871 17.8719 7.32823C18.1362 6.70411 18.5806 6.173 19.1484 5.80281C19.7161 5.43262 20.3814 5.24018 21.0591 5.2501C22.9239 5.2501 24.5 6.85245 24.5 8.7501C24.5 10.884 22.773 13.2979 19.5059 15.7392L18.293 16.0181C18.3994 15.5683 18.4027 15.1003 18.3026 14.6491C18.2024 14.1979 18.0015 13.7752 17.7147 13.4127C17.428 13.0502 17.063 12.7573 16.6469 12.556C16.2309 12.3546 15.7747 12.2501 15.3125 12.2501H11.0119C10.068 10.977 9.625 9.85698 9.625 8.7501C9.625 6.85245 11.2011 5.2501 13.0659 5.2501ZM1.75 17.5001H4.375V21.8751H1.75V17.5001ZM24.0002 18.3981L19.8439 20.1678L13.0156 21.8751H6.125V16.9871L8.60016 14.5131C8.76207 14.3499 8.95481 14.2205 9.16717 14.1324C9.37954 14.0443 9.60729 13.9994 9.83719 14.0001H15.3125C15.6606 14.0001 15.9944 14.1384 16.2406 14.3845C16.4867 14.6307 16.625 14.9645 16.625 15.3126C16.625 15.6607 16.4867 15.9945 16.2406 16.2407C15.9944 16.4868 15.6606 16.6251 15.3125 16.6251H12.25C12.0179 16.6251 11.7954 16.7173 11.6313 16.8814C11.4672 17.0455 11.375 17.268 11.375 17.5001C11.375 17.7322 11.4672 17.9547 11.6313 18.1188C11.7954 18.2829 12.0179 18.3751 12.25 18.3751H15.75C15.8159 18.3749 15.8815 18.3676 15.9458 18.3532L23.2739 16.6678L23.3078 16.659C23.5315 16.5969 23.7703 16.6197 23.9782 16.7231C24.1861 16.8264 24.3484 17.003 24.4339 17.2189C24.5194 17.4347 24.5221 17.6745 24.4414 17.8922C24.3607 18.1099 24.2024 18.2901 23.9969 18.3981H24.0002Z" />
</g>
<defs>
<clipPath id="clip0_1812_46673">
<rect width="28" height="28" />
</clipPath>
</defs>
</svg>
