<svg width="29" height="29" viewBox="0 0 29 29" fill="none" xmlns="http://www.w3.org/2000/svg">
<path fill-rule="evenodd" clip-rule="evenodd" d="M15.7096 24.7773H3.56589C3.50184 24.7773 3.44022 24.7519 3.39551 24.7072C3.34959 24.6613 3.32422 24.5997 3.32422 24.5356V22.7835C3.32422 21.7806 4.04076 20.8961 5.14518 20.1433C7.11718 18.7984 10.3084 17.9502 13.8971 17.9502C14.3974 17.9502 14.8034 17.5442 14.8034 17.0439C14.8034 16.5437 14.3974 16.1377 13.8971 16.1377C9.88305 16.1377 6.32934 17.1418 4.12293 18.6462C2.43972 19.7941 1.51172 21.2526 1.51172 22.7835V24.5356C1.51172 25.0806 1.72801 25.6038 2.11347 25.988C2.49893 26.3735 3.02093 26.5898 3.56589 26.5898H15.7096C16.2099 26.5898 16.6159 26.1838 16.6159 25.6835C16.6159 25.1833 16.2099 24.7773 15.7096 24.7773Z" />
<path fill-rule="evenodd" clip-rule="evenodd" d="M13.8958 1.80469C10.2273 1.80469 7.25 4.78202 7.25 8.45052C7.25 12.1178 10.2273 15.0964 13.8958 15.0964C17.5643 15.0964 20.5417 12.1178 20.5417 8.45052C20.5417 4.78202 17.5643 1.80469 13.8958 1.80469ZM13.8958 3.61719C16.5638 3.61719 18.7292 5.78252 18.7292 8.45052C18.7292 11.1173 16.5638 13.2839 13.8958 13.2839C11.2278 13.2839 9.0625 11.1173 9.0625 8.45052C9.0625 5.78252 11.2278 3.61719 13.8958 3.61719Z" />
<path fill-rule="evenodd" clip-rule="evenodd" d="M20.5077 26.9295C20.6769 27.0986 20.9077 27.1941 21.1482 27.1941C21.3886 27.1941 21.6194 27.0986 21.7886 26.9295L26.2944 22.4236C27.8907 20.8274 27.8907 18.2343 26.2944 16.6369C24.8964 15.24 22.7359 15.0648 21.1482 16.1137C19.5604 15.0648 17.3999 15.24 16.0019 16.6369C14.4117 18.2283 14.4057 20.8068 15.9837 22.4055L20.5077 26.9295ZM21.1482 25.007L17.2718 21.1307C16.3946 20.2401 16.3982 18.8046 17.2839 17.9189C18.1732 17.0296 19.6184 17.0296 20.5077 17.9189C20.8618 18.273 21.4345 18.273 21.7886 17.9189C22.6791 17.0296 24.1231 17.0296 25.0124 17.9189C25.9017 18.8083 25.9017 20.2522 25.0124 21.1428L21.1482 25.007Z" />
</svg>
