<svg width="520" height="520" viewBox="0 0 520 520" fill="none" xmlns="http://www.w3.org/2000/svg">
<g style="mix-blend-mode:multiply" opacity="0.05">
<path d="M259.62 507.484C322.509 507.484 373.491 493.796 373.491 476.91C373.491 460.024 322.509 446.336 259.62 446.336C196.731 446.336 145.75 460.024 145.75 476.91C145.75 493.796 196.731 507.484 259.62 507.484Z" fill="#041E42"/>
</g>
<path d="M272.723 222.445H246.578V234.964H272.723V222.445Z" fill="#FAB78D"/>
<path d="M272.723 226.153V222.445H246.578V230.053C256.834 230.871 265.597 229.138 272.723 226.153Z" fill="#E59C81"/>
<path d="M246.19 464.822H227.845L223.656 392.07H250.378L246.19 464.822Z" fill="#F1B092"/>
<path d="M246.19 464.822H227.845L223.656 392.07H250.378L246.19 464.822Z" fill="#F7B68D"/>
<g style="mix-blend-mode:multiply" opacity="0.5">
<path d="M223.656 392.07V397.415H243.204L239.016 464.822H246.19L250.378 392.07H223.656Z" fill="#F1B092"/>
</g>
<path d="M246.962 466.17L247.877 439.93H226.451V466.17C226.451 466.17 222.936 476.233 233.769 477.293C233.769 477.293 247.395 479.893 246.914 466.17H246.962Z" fill="white"/>
<path d="M238.63 456.877H234.393C229.915 456.781 228.278 460.199 228.278 460.199C225.919 460.633 225.1 462.944 225.1 462.944L218.504 477.34C218.504 477.34 214.219 490.918 237.185 489.762C237.185 489.762 249.271 489.81 248.837 476.377L247.682 462.944C247.489 461.307 247.682 461.066 245.322 460.44C244.215 456.877 238.678 456.877 238.678 456.877H238.63Z" fill="#0F4767"/>
<path d="M237.287 485.573C224.239 486.247 219.713 482.299 218.269 478.591C217.884 481.962 218.606 490.677 237.191 489.762C237.191 489.762 248.891 489.762 248.843 476.906C246.484 485.573 237.335 485.573 237.335 485.573H237.287Z" fill="white"/>
<g style="mix-blend-mode:multiply">
<path d="M225.157 472.815C223.376 477.63 233.006 477.967 233.006 477.967C241.817 478.448 242.346 474.597 242.346 474.597L245.283 460.489C244.176 456.926 238.639 456.926 238.639 456.926H234.402C229.924 456.782 228.287 460.249 228.287 460.249L225.157 472.863V472.815Z" fill="#BBBDBF"/>
</g>
<path d="M237.287 485.573C224.239 486.247 219.713 482.299 218.269 478.591C217.884 481.962 218.606 490.677 237.191 489.762C237.191 489.762 248.891 489.762 248.843 476.906C246.484 485.621 237.335 485.573 237.335 485.573H237.287Z" fill="white"/>
<g style="mix-blend-mode:multiply">
<path d="M228.712 463.809C228.712 464.387 228.231 464.869 227.653 464.869C227.075 464.869 226.594 464.387 226.594 463.809C226.594 463.231 227.075 462.75 227.653 462.75C228.231 462.75 228.712 463.231 228.712 463.809Z" fill="#BBBDBF"/>
</g>
<g style="mix-blend-mode:multiply">
<path d="M227.65 467.419C227.65 467.996 227.168 468.478 226.591 468.478C226.013 468.478 225.531 467.996 225.531 467.419C225.531 466.841 226.013 466.359 226.591 466.359C227.168 466.359 227.65 466.841 227.65 467.419Z" fill="#BBBDBF"/>
</g>
<g style="mix-blend-mode:multiply">
<path d="M226.689 471.559C226.689 472.137 226.207 472.619 225.63 472.619C225.052 472.619 224.57 472.137 224.57 471.559C224.57 470.981 225.052 470.5 225.63 470.5C226.207 470.5 226.689 470.981 226.689 471.559Z" fill="#BBBDBF"/>
</g>
<g style="mix-blend-mode:multiply">
<path d="M245.517 463.809C245.517 464.387 245.035 464.869 244.458 464.869C243.88 464.869 243.398 464.387 243.398 463.809C243.398 463.231 243.88 462.75 244.458 462.75C245.035 462.75 245.517 463.231 245.517 463.809Z" fill="#BBBDBF"/>
</g>
<g style="mix-blend-mode:multiply">
<path d="M244.986 467.419C244.986 467.996 244.504 468.478 243.926 468.478C243.349 468.478 242.867 467.996 242.867 467.419C242.867 466.841 243.349 466.359 243.926 466.359C244.504 466.359 244.986 466.841 244.986 467.419Z" fill="#BBBDBF"/>
</g>
<g style="mix-blend-mode:multiply">
<path d="M243.931 472.188C243.931 472.766 243.45 473.247 242.872 473.247C242.294 473.247 241.812 472.766 241.812 472.188C241.812 471.61 242.294 471.129 242.872 471.129C243.45 471.129 243.931 471.61 243.931 472.188Z" fill="#BBBDBF"/>
</g>
<path d="M226.692 468.093C226.5 468.093 226.307 467.997 226.163 467.804C225.97 467.516 226.066 467.13 226.355 466.938C231.507 463.471 243.4 463.086 243.929 463.086C244.266 463.086 244.555 463.375 244.555 463.712C244.555 464.049 244.315 464.338 243.929 464.338C243.833 464.338 231.892 464.723 227.029 467.997C226.933 468.045 226.789 468.093 226.692 468.093Z" fill="#BDBFC1"/>
<path d="M225.63 472.189C225.437 472.189 225.245 472.093 225.1 471.901C224.908 471.612 225.004 471.226 225.293 471.034C230.445 467.567 242.722 466.845 243.252 466.797C243.589 466.797 243.878 467.038 243.926 467.423C243.926 467.76 243.685 468.049 243.348 468.097C243.204 468.097 230.878 468.867 226.015 472.093C225.919 472.141 225.774 472.189 225.678 472.189H225.63Z" fill="#BDBFC1"/>
<path d="M227.651 464.438C227.362 464.438 227.121 464.245 227.025 464.004C226.928 463.667 227.121 463.33 227.458 463.234C235.884 460.682 244.262 463.138 244.599 463.234C244.936 463.33 245.128 463.667 245.032 464.004C244.936 464.341 244.599 464.534 244.262 464.438C244.166 464.438 235.884 462.03 227.843 464.438C227.795 464.438 227.699 464.438 227.651 464.438Z" fill="white"/>
<path d="M243.248 468.098C243.104 468.098 243.008 468.098 242.911 468.002C238.048 464.728 228.082 464.342 227.985 464.342C227.648 464.342 227.359 464.054 227.359 463.716C227.359 463.379 227.648 463.042 228.033 463.091C228.467 463.091 238.482 463.476 243.633 466.942C243.922 467.135 244.019 467.52 243.826 467.809C243.73 468.002 243.489 468.098 243.296 468.098H243.248Z" fill="#DDDFE0"/>
<path d="M242.143 472.186C241.998 472.186 241.902 472.186 241.806 472.089C236.943 468.815 226.976 468.093 226.88 468.093C226.543 468.093 226.254 467.756 226.302 467.419C226.35 467.082 226.591 466.793 226.976 466.841C227.41 466.841 237.376 467.612 242.528 471.078C242.817 471.271 242.913 471.656 242.721 471.945C242.624 472.138 242.384 472.234 242.191 472.234L242.143 472.186Z" fill="#DDDFE0"/>
<path d="M226.69 468.141C226.401 468.141 226.16 467.948 226.064 467.707C225.968 467.37 226.16 467.033 226.497 466.937C234.923 464.385 243.301 466.841 243.638 466.937C243.975 467.033 244.168 467.37 244.071 467.707C243.975 468.045 243.638 468.237 243.301 468.141C243.205 468.141 234.923 465.733 226.882 468.141C226.834 468.141 226.738 468.141 226.69 468.141Z" fill="white"/>
<path d="M242.391 472.475C242.342 472.475 242.246 472.475 242.198 472.475C242.102 472.475 233.868 469.875 225.78 472.186C225.442 472.282 225.105 472.09 225.009 471.753C224.913 471.416 225.105 471.079 225.443 470.982C233.917 468.623 242.246 471.175 242.583 471.271C242.92 471.367 243.113 471.753 243.017 472.041C242.92 472.33 242.68 472.475 242.391 472.475Z" fill="white"/>
<path d="M235.55 463.283C235.406 463.283 235.213 463.235 235.117 463.09L234.924 462.849C233.384 461.212 232.035 459.527 232.372 458.275C232.469 457.938 232.758 457.505 233.48 457.312C234.25 457.12 234.78 457.312 235.261 457.842C235.647 458.275 235.935 458.853 236.08 459.479C236.802 458.179 237.91 457.023 238.921 457.023C239.932 457.023 239.739 457.12 240.124 457.649C240.269 457.746 240.51 458.179 240.461 458.757C240.365 460.057 238.872 461.501 235.887 463.186C235.791 463.235 235.695 463.283 235.598 463.283H235.55ZM238.872 458.227C238.15 458.227 236.85 460.105 236.417 461.453C238.728 459.96 239.113 459.094 239.209 458.757C239.209 458.564 239.209 458.516 239.209 458.516C239.017 458.275 238.921 458.275 238.921 458.275L238.872 458.227ZM233.913 458.42C233.865 458.42 233.817 458.42 233.721 458.42C233.624 458.42 233.528 458.516 233.48 458.564C233.432 458.757 233.48 459.383 235.069 461.212C235.021 460.249 234.78 459.094 234.298 458.564C234.106 458.372 233.961 458.372 233.865 458.372L233.913 458.42Z" fill="white"/>
<g style="mix-blend-mode:soft-light">
<path d="M223.656 470.742C223.656 470.742 223.463 472.427 222.837 474.931C222.741 475.22 222.693 475.557 222.597 475.894C222.5 476.231 222.404 476.616 222.404 476.809C222.404 477.387 222.5 477.964 222.837 478.446C222.934 478.735 223.223 478.879 223.415 479.12L224.234 479.65C224.908 479.987 225.63 480.276 226.4 480.564C227.171 480.805 227.941 481.094 228.711 481.287C229.482 481.431 230.252 481.72 230.974 481.816C231.745 481.913 232.467 482.105 233.141 482.201C233.863 482.25 234.489 482.346 235.115 482.394C236.367 482.587 237.378 482.49 238.148 482.538C238.919 482.538 239.304 482.635 239.304 482.635C239.304 482.635 238.919 482.779 238.197 482.972C237.86 483.068 237.378 483.213 236.897 483.309C236.367 483.453 235.789 483.55 235.163 483.598C234.537 483.646 233.815 483.742 233.045 483.79C232.274 483.79 231.504 483.742 230.686 483.646C229.048 483.501 227.363 483.068 225.678 482.538C224.86 482.201 224.041 481.864 223.271 481.431C222.837 481.19 222.452 480.853 222.067 480.564C221.778 480.131 221.345 479.842 221.2 479.313C220.719 478.398 220.671 477.387 220.863 476.52C220.96 475.99 221.152 475.75 221.297 475.413C221.441 475.124 221.586 474.787 221.73 474.498C222.789 472.187 223.656 470.742 223.656 470.742Z" fill="white"/>
</g>
<path d="M273.298 464.822H291.643L295.832 392.07H269.109L273.298 464.822Z" fill="#F1B092"/>
<path d="M273.298 464.822H291.643L295.832 392.07H269.109L273.298 464.822Z" fill="#F7B68D"/>
<g style="mix-blend-mode:multiply" opacity="0.5">
<path d="M295.832 392.07V397.415H276.283L280.472 464.822H273.298L269.109 392.07H295.832Z" fill="#F1B092"/>
</g>
<path d="M272.626 466.17L271.711 439.93H293.137V466.17C293.137 466.17 296.652 476.233 285.77 477.293C285.77 477.293 272.144 479.893 272.578 466.17H272.626Z" fill="white"/>
<path d="M274.745 460.487C272.386 461.113 272.578 461.353 272.386 462.991L271.23 476.424C270.797 489.857 282.882 489.809 282.882 489.809C305.801 490.965 301.563 477.387 301.563 477.387L294.967 462.991C294.967 462.991 294.149 460.728 291.789 460.246C291.789 460.246 290.201 456.828 285.675 456.924H281.438C281.438 456.924 275.901 456.924 274.793 460.487H274.745Z" fill="#0F4767"/>
<path d="M282.735 485.573C295.784 486.247 300.309 482.299 301.754 478.591C302.139 481.962 301.417 490.677 282.832 489.762C282.832 489.762 271.132 489.762 271.18 476.906C273.539 485.573 282.687 485.573 282.687 485.573H282.735Z" fill="white"/>
<g style="mix-blend-mode:multiply">
<path d="M291.739 460.199C291.739 460.199 290.15 456.781 285.624 456.877H281.387C281.387 456.877 275.85 456.877 274.742 460.44L277.679 474.547C277.679 474.547 278.209 478.351 287.02 477.918C287.02 477.918 296.65 477.581 294.868 472.766L291.739 460.151V460.199Z" fill="#BBBDBF"/>
</g>
<path d="M282.735 485.573C295.784 486.247 300.309 482.299 301.754 478.591C302.139 481.962 301.417 490.677 282.832 489.762C282.832 489.762 271.132 489.762 271.18 476.906C273.539 485.621 282.687 485.573 282.687 485.573H282.735Z" fill="white"/>
<g style="mix-blend-mode:multiply">
<path d="M292.364 464.869C292.949 464.869 293.423 464.394 293.423 463.809C293.423 463.224 292.949 462.75 292.364 462.75C291.779 462.75 291.305 463.224 291.305 463.809C291.305 464.394 291.779 464.869 292.364 464.869Z" fill="#BBBDBF"/>
</g>
<g style="mix-blend-mode:multiply">
<path d="M292.359 467.419C292.359 467.996 292.841 468.478 293.419 468.478C293.996 468.478 294.478 467.996 294.478 467.419C294.478 466.841 293.996 466.359 293.419 466.359C292.841 466.359 292.359 466.841 292.359 467.419Z" fill="#BBBDBF"/>
</g>
<g style="mix-blend-mode:multiply">
<path d="M293.328 471.559C293.328 472.137 293.81 472.619 294.387 472.619C294.965 472.619 295.447 472.137 295.447 471.559C295.447 470.981 294.965 470.5 294.387 470.5C293.81 470.5 293.328 470.981 293.328 471.559Z" fill="#BBBDBF"/>
</g>
<g style="mix-blend-mode:multiply">
<path d="M274.5 463.809C274.5 464.387 274.981 464.869 275.559 464.869C276.137 464.869 276.619 464.387 276.619 463.809C276.619 463.231 276.137 462.75 275.559 462.75C274.981 462.75 274.5 463.231 274.5 463.809Z" fill="#BBBDBF"/>
</g>
<g style="mix-blend-mode:multiply">
<path d="M275.031 467.419C275.031 467.996 275.513 468.478 276.091 468.478C276.668 468.478 277.15 467.996 277.15 467.419C277.15 466.841 276.668 466.359 276.091 466.359C275.513 466.359 275.031 466.841 275.031 467.419Z" fill="#BBBDBF"/>
</g>
<g style="mix-blend-mode:multiply">
<path d="M276.094 472.188C276.094 472.766 276.575 473.247 277.153 473.247C277.731 473.247 278.212 472.766 278.212 472.188C278.212 471.61 277.731 471.129 277.153 471.129C276.575 471.129 276.094 471.61 276.094 472.188Z" fill="#BBBDBF"/>
</g>
<path d="M293.332 468.097C293.524 468.097 293.717 468.001 293.861 467.808C294.054 467.519 293.958 467.134 293.669 466.942C288.517 463.475 276.624 463.09 276.095 463.09C275.758 463.09 275.469 463.379 275.469 463.716C275.469 464.053 275.758 464.342 276.095 464.342C276.239 464.342 288.132 464.727 292.995 468.001C293.091 468.049 293.235 468.097 293.332 468.097Z" fill="#BDBFC1"/>
<path d="M294.39 472.189C294.583 472.189 294.775 472.093 294.92 471.901C295.112 471.612 295.016 471.226 294.727 471.034C289.575 467.567 277.297 466.845 276.768 466.797C276.431 466.797 276.142 467.038 276.094 467.423C276.094 467.76 276.334 468.049 276.672 468.097C276.816 468.097 289.142 468.867 294.005 472.093C294.101 472.141 294.246 472.189 294.342 472.189H294.39Z" fill="#BDBFC1"/>
<path d="M292.359 464.438C292.648 464.438 292.889 464.245 292.985 464.004C293.082 463.667 292.889 463.33 292.552 463.234C284.126 460.682 275.748 463.138 275.411 463.234C275.074 463.33 274.882 463.667 274.978 464.004C275.074 464.341 275.411 464.534 275.748 464.438C275.845 464.438 284.126 462.03 292.167 464.438C292.215 464.438 292.263 464.438 292.359 464.438Z" fill="white"/>
<path d="M276.764 468.098C276.908 468.098 277.005 468.098 277.101 468.002C281.964 464.728 291.931 464.342 292.027 464.342C292.364 464.342 292.653 464.054 292.653 463.716C292.653 463.379 292.364 463.042 291.979 463.091C291.545 463.091 281.531 463.476 276.379 466.942C276.09 467.135 275.994 467.52 276.186 467.809C276.331 468.002 276.523 468.098 276.716 468.098H276.764Z" fill="#DDDFE0"/>
<path d="M277.819 472.186C277.963 472.186 278.059 472.186 278.156 472.089C283.019 468.815 292.985 468.093 293.082 468.093C293.419 468.093 293.708 467.756 293.659 467.419C293.659 467.082 293.37 466.793 292.985 466.841C292.552 466.841 282.585 467.612 277.433 471.078C277.145 471.271 277.048 471.656 277.241 471.945C277.385 472.138 277.578 472.234 277.77 472.234L277.819 472.186Z" fill="#DDDFE0"/>
<path d="M293.328 468.141C293.617 468.141 293.858 467.948 293.954 467.707C294.05 467.37 293.858 467.033 293.521 466.937C285.095 464.385 276.717 466.841 276.38 466.937C276.043 467.033 275.85 467.37 275.947 467.707C276.043 468.045 276.38 468.237 276.717 468.141C276.813 468.141 285.095 465.733 293.136 468.141C293.184 468.141 293.28 468.141 293.328 468.141Z" fill="white"/>
<path d="M277.588 472.475C277.636 472.475 277.733 472.475 277.781 472.475C277.877 472.475 286.11 469.875 294.199 472.186C294.536 472.282 294.873 472.09 294.97 471.753C295.066 471.416 294.873 471.079 294.536 470.982C286.062 468.623 277.733 471.175 277.396 471.271C277.059 471.367 276.866 471.753 276.962 472.041C277.059 472.33 277.299 472.475 277.588 472.475Z" fill="white"/>
<path d="M284.174 463.186C281.189 461.501 279.696 460.057 279.6 458.757C279.552 458.179 279.793 457.746 279.937 457.649C280.322 457.12 280.804 457.023 281.141 457.023C282.152 457.023 283.259 458.179 283.981 459.479C284.126 458.853 284.415 458.275 284.8 457.842C285.281 457.36 285.811 457.12 286.581 457.312C287.304 457.505 287.593 457.938 287.689 458.275C288.026 459.527 286.678 461.212 285.137 462.849L284.944 463.09C284.848 463.235 284.656 463.283 284.511 463.283C284.367 463.283 284.319 463.283 284.222 463.186H284.174ZM280.852 458.468C280.852 458.468 280.804 458.564 280.852 458.709C280.9 459.046 281.333 459.96 283.644 461.405C283.211 460.105 281.911 458.179 281.189 458.179C280.467 458.179 281.093 458.179 280.9 458.42L280.852 458.468ZM285.667 458.66C285.185 459.142 284.944 460.346 284.896 461.309C286.485 459.479 286.533 458.853 286.485 458.66C286.485 458.564 286.341 458.516 286.244 458.516C286.196 458.516 286.1 458.516 286.052 458.516C285.956 458.516 285.811 458.516 285.619 458.709L285.667 458.66Z" fill="white"/>
<g style="mix-blend-mode:soft-light">
<path d="M296.319 470.742C296.319 470.742 296.511 472.427 297.137 474.931C297.234 475.22 297.282 475.557 297.378 475.894C297.474 476.231 297.571 476.616 297.571 476.809C297.571 477.387 297.474 477.964 297.137 478.446C297.041 478.735 296.752 478.879 296.56 479.12L295.741 479.65C295.067 479.987 294.345 480.276 293.574 480.564C292.804 480.805 292.082 481.094 291.311 481.287C290.541 481.431 289.771 481.72 289.048 481.816C288.278 481.913 287.556 482.105 286.882 482.201C286.159 482.25 285.534 482.346 284.908 482.394C283.656 482.587 282.645 482.49 281.874 482.538C281.104 482.538 280.719 482.635 280.719 482.635C280.719 482.635 281.104 482.779 281.826 482.972C282.211 483.068 282.645 483.213 283.126 483.309C283.656 483.453 284.234 483.55 284.859 483.598C285.485 483.646 286.208 483.742 286.93 483.79C287.7 483.79 288.471 483.742 289.289 483.646C290.926 483.501 292.611 483.068 294.297 482.538C295.115 482.201 295.934 481.864 296.704 481.431C297.137 481.19 297.522 480.853 297.908 480.564C298.197 480.131 298.63 479.842 298.774 479.313C299.256 478.398 299.304 477.387 299.111 476.52C299.015 475.99 298.822 475.75 298.678 475.413C298.534 475.124 298.389 474.787 298.245 474.498C297.185 472.187 296.319 470.742 296.319 470.742Z" fill="white"/>
</g>
<path d="M263.618 379.265V404.109C281.385 412.535 302.088 404.109 302.088 404.109V332.754H217.203V404.109C217.203 404.109 237.907 412.535 255.673 404.109V379.265H263.618Z" fill="#5BC2E7"/>
<g style="mix-blend-mode:multiply">
<path d="M279.123 371.273C272.094 380.807 266.509 381.625 267.183 405.603C265.401 405.073 265.401 404.977 263.668 404.159V379.314H255.723V404.159C254.52 404.736 253.316 405.218 252.112 405.651C253.22 393.662 250.427 378.159 241.664 371.322C241.664 371.322 257.986 379.218 279.171 371.322" fill="#7CD4F3"/>
</g>
<g style="mix-blend-mode:multiply">
<path d="M290.195 332.805C294.962 349.175 297.369 364.39 296.936 381.868C296.743 389.523 298.188 398.912 293.181 405.412C292.747 405.942 292.314 406.423 291.88 406.953C297.995 405.845 302.088 404.208 302.088 404.208V332.853H290.195V332.805Z" fill="#7CD4F3"/>
</g>
<g style="mix-blend-mode:multiply">
<path d="M225.581 404.016C220.959 399.634 222.885 387.068 222.885 381.675C222.74 365.353 222.066 346.575 232.081 332.805H217.203V404.16C217.203 404.16 222.548 406.327 230.107 407.338C228.422 406.375 226.881 405.268 225.581 404.016Z" fill="#7CD4F3"/>
</g>
<path d="M208.92 346.524C208.92 346.524 199.531 306.705 225.916 265.298C225.916 265.298 223.124 258.461 217.202 260.146C217.202 260.146 181.524 300.831 199.194 348.739C199.194 348.739 205.068 356.683 208.872 346.524H208.92Z" fill="#F7B68D"/>
<path d="M200.158 368.671C195.633 362.219 195.151 355.864 195.151 355.864C195.151 355.864 194.236 349.123 197.462 345.945C197.462 345.945 202.277 339.734 208.777 343.634C210.414 344.645 211.184 346.716 212.099 348.304C212.147 348.401 212.244 348.545 212.292 348.642C213.351 350.471 214.555 352.253 216.144 353.649C218.888 356.008 217.01 358.03 217.01 358.03C216.144 359.042 214.651 358.945 213.736 358.03C212.581 356.971 211.521 355.816 210.366 354.756C208.392 353.456 208.392 355.238 208.392 355.238C210.029 359.956 213.158 365.349 213.158 365.349C213.881 367.467 212.292 368.286 212.292 368.286C212.292 368.286 210.992 369.682 207.958 365.156C207.958 365.156 205.31 360.967 204.203 356.49C204.444 359.427 207.814 365.927 207.814 365.927C210.029 368.575 207.525 369.682 207.525 369.682C204.492 370.453 202.421 364.434 202.421 364.434C200.447 359.186 199.436 357.067 199.436 357.067L202.614 365.59C202.614 365.59 204.203 368.382 202.758 369.201C202.758 369.201 201.651 370.164 200.158 368.623V368.671Z" fill="#F7B68D"/>
<path d="M309.215 346.525C309.215 346.525 318.604 306.707 292.219 265.299C292.219 265.299 295.011 258.462 300.934 260.196C300.934 260.196 336.611 300.833 318.941 348.788C318.941 348.788 313.019 356.733 309.263 346.573L309.215 346.525Z" fill="#F7B68D"/>
<path d="M317.974 368.675C322.5 362.223 322.981 355.868 322.981 355.868C322.981 355.868 323.896 349.127 320.67 345.949C320.67 345.949 315.855 339.738 309.355 343.638C307.718 344.649 306.948 346.72 306.033 348.308C305.985 348.405 305.937 348.501 305.841 348.645C304.781 350.475 303.578 352.257 301.989 353.653C299.293 356.012 301.122 358.034 301.122 358.034C301.989 359.045 303.481 358.949 304.444 358.034C305.552 356.975 306.659 355.82 307.767 354.712C309.741 353.412 309.741 355.194 309.741 355.194C308.104 359.912 304.974 365.305 304.974 365.305C304.252 367.423 305.841 368.242 305.841 368.242C305.841 368.242 307.141 369.638 310.174 365.112C310.174 365.112 312.822 360.923 313.93 356.445C313.689 359.382 310.318 365.882 310.318 365.882C308.104 368.531 310.607 369.638 310.607 369.638C313.641 370.408 315.711 364.39 315.711 364.39C317.685 359.142 318.648 357.023 318.648 357.023L315.47 365.545C315.47 365.545 313.881 368.338 315.326 369.157C315.326 369.157 316.433 370.119 317.926 368.579L317.974 368.675Z" fill="#F7B68D"/>
<path d="M195.679 36.8841C195.679 36.8841 185.472 44.2508 202.324 52.2915L193.898 59.3211C193.898 59.3211 187.302 46.1767 177.672 51.2804C177.672 51.2804 179.502 43.9619 187.302 46.1767C187.302 46.1767 184.557 36.9804 195.679 36.8359V36.8841Z" fill="#212121"/>
<path d="M346.432 149.407C346.432 191.922 307.48 226.396 259.38 226.396C211.28 226.396 172.328 191.922 172.328 149.407C172.328 106.892 211.28 72.418 259.38 72.418C307.48 72.418 346.432 106.892 346.432 149.407Z" fill="#F7B68D"/>
<path d="M161.453 164.811C161.886 171.792 166.749 177.136 172.335 176.799C177.92 176.462 182.109 170.54 181.675 163.559C181.242 156.577 176.379 151.233 170.794 151.57C165.209 151.907 161.068 157.829 161.501 164.811H161.453Z" fill="#F7B68D"/>
<path d="M166.407 155.471C166.985 155.086 168.141 154.893 168.863 154.845C172.57 154.749 175.218 161.056 171.511 161.971C170.067 163.367 171.415 165.149 171.415 165.149C172.618 166.689 174.207 168.904 173.726 170.974C173.437 172.226 172.137 172.852 170.981 173.093C170.067 173.286 169.922 172.515 170.644 172.178C171.222 171.937 171.704 171.504 172.089 171.023C172.089 170.926 172.185 170.878 172.233 170.83C172.233 170.782 172.281 170.734 172.33 170.686C172.474 170.397 172.474 170.06 172.426 169.771C171.559 170.349 170.163 170.445 169.585 169.578C168.959 168.663 169.537 167.219 169.344 166.208C169.2 165.486 168.911 164.763 168.574 164.089C167.033 160.96 170.115 160.574 170.115 160.574C170.596 160.574 170.933 160.671 171.222 160.719C172.811 159.9 171.222 157.349 170.259 156.915C169.2 156.386 167.852 156.482 167.033 157.349C166.215 158.215 165.83 159.66 165.83 160.815C165.83 162.26 166.118 163.752 166.648 165.1C166.937 165.871 167.322 166.786 167.611 167.556C167.948 168.423 167.033 168.76 166.648 167.893C165.926 166.063 164.578 163.319 164.385 160.815C164.241 158.745 164.674 156.771 166.455 155.519L166.407 155.471Z" fill="#E59C81"/>
<path d="M357.364 164.811C356.931 171.792 352.068 177.136 346.483 176.799C340.898 176.462 336.757 170.54 337.142 163.559C337.575 156.577 342.438 151.233 348.023 151.57C353.609 151.907 357.749 157.829 357.364 164.811Z" fill="#F7B68D"/>
<path d="M352.407 155.471C351.829 155.086 350.673 154.893 349.951 154.845C346.244 154.749 343.596 161.056 347.303 161.971C348.748 163.367 347.399 165.149 347.399 165.149C346.196 166.689 344.607 168.904 345.088 170.974C345.377 172.226 346.677 172.852 347.833 173.093C348.748 173.286 348.892 172.515 348.17 172.178C347.592 171.937 347.111 171.504 346.725 171.023C346.725 170.926 346.629 170.878 346.629 170.83C346.629 170.782 346.581 170.734 346.533 170.686C346.388 170.397 346.388 170.06 346.436 169.771C347.303 170.349 348.699 170.445 349.277 169.578C349.951 168.663 349.325 167.219 349.518 166.208C349.662 165.486 349.951 164.763 350.288 164.089C351.829 160.96 348.748 160.574 348.748 160.574C348.266 160.574 347.929 160.671 347.64 160.719C346.051 159.9 347.64 157.349 348.555 156.915C349.614 156.386 350.962 156.482 351.781 157.349C352.599 158.215 352.985 159.66 352.985 160.815C352.985 162.26 352.696 163.752 352.166 165.1C351.877 165.871 351.492 166.786 351.203 167.556C350.866 168.423 351.781 168.76 352.166 167.893C352.888 166.063 354.236 163.319 354.429 160.815C354.573 158.745 354.14 156.771 352.359 155.519L352.407 155.471Z" fill="#E59C81"/>
<path d="M265.635 176.992C264.816 176.992 264.19 176.318 264.19 175.547C264.19 172.899 262.024 170.733 259.376 170.733C256.727 170.733 254.561 172.899 254.561 175.547C254.561 178.196 253.887 176.992 253.116 176.992C252.346 176.992 251.672 176.318 251.672 175.547C251.672 171.31 255.139 167.844 259.376 167.844C263.613 167.844 267.079 171.31 267.079 175.547C267.079 179.784 266.405 176.992 265.635 176.992Z" fill="#E89C80"/>
<path opacity="0.3" d="M199.578 174.973C199.578 179.306 205.163 182.821 212.048 182.821C218.934 182.821 224.519 179.306 224.519 174.973C224.519 170.64 218.934 167.125 212.048 167.125C205.163 167.125 199.578 170.64 199.578 174.973Z" fill="#F17382"/>
<path opacity="0.3" d="M294.234 174.973C294.234 179.306 299.82 182.821 306.705 182.821C313.59 182.821 319.175 179.306 319.175 174.973C319.175 170.64 313.59 167.125 306.705 167.125C299.82 167.125 294.234 170.64 294.234 174.973Z" fill="#F17382"/>
<path d="M353.27 153.836C349.37 151.043 346.433 151.573 346.433 151.573C345.855 151.669 340.655 140.21 339.885 138.91C331.651 125.573 321.54 113.006 308.829 103.617C294.144 92.7837 275.077 91.6281 257.503 91.0022C247.633 90.6652 235.74 93.0726 224.618 90.4244C222.403 89.8948 215.807 85.4652 215.374 83.0578C215.374 83.0578 224.618 91.2429 199.677 108.817C199.677 108.817 179.84 117.676 175.507 141.124C175.411 141.75 172.377 151.669 172.522 151.669C166.888 151.765 166.166 153.402 166.166 153.402C159.185 126.536 159.329 117.628 161.496 94.18C161.496 94.18 164.288 54.5059 194.814 48.4874C194.814 48.4874 199.677 11.0763 256.781 14.2541C256.781 14.2541 242.962 17.0467 242.577 27.6874C242.577 27.6874 283.84 2.8911 342.87 40.0615C342.87 40.0615 329.148 36.8837 329.148 45.0689C329.148 45.0689 375.418 76.0281 353.366 153.787L353.27 153.836Z" fill="#2A2A2A"/>
<path d="M214.023 155.281C214.023 160.866 217.201 165.344 221.005 165.344C224.857 165.344 227.89 160.77 227.89 155.184C227.89 149.599 224.712 145.073 220.909 145.121C217.105 145.121 214.023 149.696 214.023 155.281Z" fill="#2F1806"/>
<path d="M218.213 152.055C218.213 153.741 216.864 155.041 215.227 155.041C213.59 155.041 212.242 153.693 212.242 152.055C212.242 150.418 213.59 149.07 215.227 149.07C216.864 149.07 218.213 150.418 218.213 152.055Z" fill="white"/>
<path d="M304.789 155.281C304.789 160.866 301.611 165.344 297.807 165.344C294.003 165.344 290.922 160.77 290.922 155.184C290.922 149.599 294.1 145.073 297.903 145.121C301.707 145.121 304.789 149.696 304.789 155.281Z" fill="#2F1806"/>
<path d="M300.602 152.055C300.602 153.741 301.95 155.041 303.587 155.041C305.224 155.041 306.62 153.693 306.62 152.055C306.62 150.418 305.272 149.07 303.587 149.07C301.902 149.07 300.602 150.418 300.602 152.055Z" fill="white"/>
<path d="M212.003 140.787C214.652 138.284 217.926 137.128 221.44 136.647C223.029 136.406 223.848 134.432 223.511 133.036C223.029 131.35 221.489 130.773 219.9 130.965C215.374 131.591 211.185 133.421 207.863 136.599C205.118 139.199 209.259 143.339 212.003 140.739V140.787Z" fill="#2A2A2A"/>
<path d="M306.757 140.787C304.109 138.284 300.834 137.128 297.32 136.647C295.731 136.406 294.912 134.432 295.297 133.036C295.779 131.35 297.32 130.773 298.909 130.965C303.434 131.591 307.623 133.421 310.946 136.599C313.69 139.199 309.549 143.339 306.805 140.739L306.757 140.787Z" fill="#2A2A2A"/>
<path d="M221.391 168.281C219.995 168.281 219.995 170.448 221.391 170.448C222.787 170.448 222.787 168.281 221.391 168.281Z" fill="#C88973"/>
<path d="M211.235 169.242C209.838 169.242 209.838 171.409 211.235 171.409C212.631 171.409 212.631 169.242 211.235 169.242Z" fill="#C88973"/>
<path d="M217.539 173.867C216.143 173.867 216.143 176.034 217.539 176.034C218.936 176.034 218.936 173.867 217.539 173.867Z" fill="#C88973"/>
<path d="M226.977 172.664C225.581 172.664 225.581 174.831 226.977 174.831C228.373 174.831 228.373 172.664 226.977 172.664Z" fill="#C88973"/>
<path d="M209.258 175.312C207.862 175.312 207.862 177.479 209.258 177.479C210.654 177.479 210.654 175.312 209.258 175.312Z" fill="#C88973"/>
<path d="M220.188 179.934C218.792 179.934 218.792 182.1 220.188 182.1C221.584 182.1 221.584 179.934 220.188 179.934Z" fill="#C88973"/>
<path d="M303.922 168.281C302.526 168.281 302.526 170.448 303.922 170.448C305.319 170.448 305.319 168.281 303.922 168.281Z" fill="#C88973"/>
<path d="M293.758 169.246C292.362 169.246 292.362 171.413 293.758 171.413C295.154 171.413 295.154 169.246 293.758 169.246Z" fill="#C88973"/>
<path d="M300.063 173.867C298.667 173.867 298.667 176.034 300.063 176.034C301.459 176.034 301.459 173.867 300.063 173.867Z" fill="#C88973"/>
<path d="M309.5 172.664C308.104 172.664 308.104 174.831 309.5 174.831C310.897 174.831 310.897 172.664 309.5 172.664Z" fill="#C88973"/>
<path d="M291.782 175.312C290.385 175.312 290.385 177.479 291.782 177.479C293.178 177.479 293.178 175.312 291.782 175.312Z" fill="#C88973"/>
<path d="M302.719 179.934C301.323 179.934 301.323 182.1 302.719 182.1C304.115 182.1 304.115 179.934 302.719 179.934Z" fill="#C88973"/>
<path d="M259.38 201.116C251.676 200.586 245.706 195.194 245.61 195.146C245.225 194.857 245.08 194.231 245.321 193.749C245.562 193.268 246.091 193.123 246.476 193.412C246.621 193.509 259.38 191.101 272.236 193.412C272.717 193.509 273.15 193.268 273.391 193.749C273.632 194.231 273.536 194.857 273.102 195.146C268.528 198.564 263.425 201.116 259.332 201.116H259.38Z" fill="#F2907E"/>
<path d="M258.952 207.713C255.534 207.713 253.608 206.606 253.512 206.51C252.838 206.076 252.597 205.21 253.03 204.488C253.464 203.813 254.33 203.573 255.004 203.958C255.149 204.054 258.327 205.739 264.056 203.813C264.827 203.573 265.645 203.958 265.934 204.728C266.175 205.499 265.789 206.317 265.019 206.606C262.66 207.376 260.638 207.665 258.952 207.665V207.713Z" fill="#F4A485"/>
<path d="M301.218 245.411C298.762 237.515 292.551 236.215 292.551 236.215L269.488 231.641H249.795L226.732 236.215C226.732 236.215 220.569 237.515 218.066 245.411C216.525 289.996 215.225 314.841 212.625 350.663C212.625 350.663 231.884 358.463 259.618 357.741C287.399 358.463 306.658 350.663 306.658 350.663C305.599 331.933 303.432 291.055 301.218 245.411Z" fill="#FAB78D"/>
<path d="M274.351 232.605L292.551 236.217C292.551 236.217 298.714 237.517 301.218 245.413C302.951 280.754 303.818 302.131 306.658 350.665C306.658 350.665 287.399 358.465 259.618 357.742C231.836 358.465 212.625 350.665 212.625 350.665C214.792 312.628 216.092 291.298 218.066 245.413C220.521 237.517 226.732 236.217 226.732 236.217L244.162 232.798C244.162 232.798 244.403 244.017 258.944 243.728C258.944 243.728 272.762 245.461 274.399 232.654L274.351 232.605Z" fill="#041E42"/>
<g style="mix-blend-mode:multiply">
<path d="M306.177 342.189C292.984 348.208 282.247 349.941 269.247 350.76C252.01 351.867 224.71 352.156 222.592 332.56C220.906 316.912 221.099 297.46 222.399 280.367H216.477C215.273 305.163 214.166 323.749 212.625 350.663C212.625 350.663 231.884 358.463 259.618 357.741C287.399 358.463 306.658 350.663 306.658 350.663C306.418 346.282 306.369 346.186 306.177 342.238V342.189Z" fill="#BBBDBF"/>
</g>
<path d="M226.304 236.312C226.304 236.312 209.981 236.938 203.385 257.738L198.57 270.209C198.57 270.209 205.793 283.546 221.633 283.113C221.633 283.113 231.504 253.213 226.304 236.361V236.312Z" fill="white"/>
<path d="M226.304 236.312C226.304 236.312 209.981 236.938 203.385 257.738L198.57 270.209C198.57 270.209 205.793 283.546 221.633 283.113C221.633 283.113 231.504 253.213 226.304 236.361V236.312Z" fill="#041E42"/>
<g style="mix-blend-mode:multiply">
<path d="M210.609 272.136C207.19 266.118 209.742 257.258 212.005 251.384C214.605 244.595 219.949 239.925 226.305 236.747C226.305 236.747 226.305 236.747 226.353 236.747C226.353 236.651 226.305 236.506 226.257 236.41C226.257 236.41 209.935 237.036 203.338 257.836L198.523 270.306C198.523 270.306 205.746 283.643 221.586 283.21C221.586 283.21 222.02 281.958 222.598 279.84C217.638 279.069 213.209 276.903 210.56 272.232L210.609 272.136Z" fill="#BBBDBF"/>
</g>
<path d="M292.123 236.312C292.123 236.312 308.445 236.938 315.041 257.738L319.856 270.209C319.856 270.209 312.634 283.546 296.793 283.113C296.793 283.113 286.923 253.213 292.123 236.361V236.312Z" fill="#041E42"/>
<g style="mix-blend-mode:multiply">
<path d="M307.823 272.136C311.241 266.118 308.689 257.258 306.426 251.384C303.826 244.595 298.482 239.925 292.126 236.747C292.126 236.747 292.126 236.747 292.078 236.747C292.078 236.651 292.126 236.506 292.174 236.41C292.174 236.41 308.497 237.036 315.093 257.836L319.908 270.306C319.908 270.306 312.686 283.643 296.845 283.21C296.845 283.21 296.411 281.958 295.834 279.84C300.793 279.069 305.223 276.903 307.871 272.232L307.823 272.136Z" fill="#BBBDBF"/>
</g>
<path d="M286.53 256.934H273.109V273.247H286.53V256.934Z" fill="#54C0E8"/>
<path d="M272.234 276.71H287.39V256.055H272.234V276.71ZM286.308 272.615H273.316V257.137H286.308V272.615Z" fill="#041E42"/>
<path d="M282.531 264.625C282.455 264.583 282.358 264.547 282.378 264.433L282.391 264.277C282.556 264.266 282.711 264.388 282.806 264.533C282.861 264.619 282.887 264.736 282.959 264.789C283.023 264.547 282.909 264.199 283.154 264.055C283.218 264.074 283.281 264.108 283.318 264.174C283.318 264.174 283.332 264.283 283.298 264.347C283.234 264.355 283.065 264.191 283.037 264.372C283.012 264.583 283.042 264.825 282.962 265.02C282.831 264.87 282.803 264.625 282.561 264.586C282.561 264.586 282.528 264.586 282.531 264.622" fill="#041E42"/>
<path d="M285.044 263.461C285.036 263.522 285.008 263.639 284.936 263.625C284.897 263.561 284.816 263.528 284.758 263.578C284.708 263.611 284.644 263.645 284.627 263.709C284.73 263.792 284.869 263.82 285.008 263.792C285.091 263.731 285.161 263.642 285.255 263.603C285.23 263.912 284.894 264.015 284.694 264.207C284.688 264.165 284.699 264.076 284.727 264.023C284.655 263.984 284.543 263.97 284.516 263.867C284.524 263.645 284.649 263.419 284.872 263.336C284.947 263.336 285.05 263.364 285.041 263.461" fill="#041E42"/>
<path d="M284.791 264.685C284.88 265.066 285.008 265.439 285.139 265.8V265.939C285.031 265.906 284.972 265.747 284.861 265.675V265.839L285.172 268.292C285.242 268.921 285.431 269.655 285.136 270.234C285.122 270.042 285.111 269.814 285.103 269.605C284.85 268.084 284.705 266.523 284.469 264.996C284.519 264.827 284.597 264.643 284.722 264.523L284.791 264.682V264.685Z" fill="#041E42"/>
<path d="M283.735 265.787C283.746 265.69 283.818 265.448 283.701 265.323C283.657 265.284 283.626 265.284 283.568 265.298C283.365 265.384 283.309 265.592 283.306 265.787C283.345 265.937 283.523 265.904 283.618 265.998C283.284 266.555 282.678 266.872 282.219 267.322C282.369 267.342 282.477 267.247 282.614 267.158C282.995 266.855 283.518 266.488 283.676 266.018C283.746 266.032 283.796 266.085 283.854 266.115C283.876 266.079 283.91 265.99 283.904 265.918C283.871 265.845 283.796 265.826 283.735 265.787ZM283.673 265.754L283.398 265.629C283.443 265.509 283.657 265.478 283.673 265.637V265.754Z" fill="#041E42"/>
<path d="M283.617 267.641C283.693 267.638 283.712 267.563 283.745 267.524C283.765 267.644 283.734 267.78 283.617 267.847C283.509 267.872 283.423 267.788 283.389 267.697C283.3 267.435 283.428 267.124 283.528 266.879C283.548 267.14 283.331 267.58 283.617 267.638" fill="#041E42"/>
<path d="M284.39 269.063C284.173 268.715 283.795 268.393 283.397 268.281C283.219 268.295 283.141 268.362 283.041 268.609C282.922 268.885 282.986 269.233 283.178 269.458C282.304 269.786 281.45 270.17 280.822 270.971C280.571 271.26 280.271 271.652 279.887 271.7C279.704 271.666 279.592 271.288 279.589 271.018C279.589 271.018 279.589 270.976 279.573 270.979C279.542 270.985 279.517 271.063 279.517 271.063C279.473 271.307 279.517 271.538 279.623 271.75C279.737 271.922 279.915 272.039 280.115 272.053C280.251 272.053 280.352 272.025 280.449 271.931L281.228 271.038C281.79 270.362 282.588 270.203 283.297 269.85C283.353 269.828 283.397 269.808 283.425 269.819C283.461 269.906 283.481 269.903 283.52 269.947C283.589 269.897 283.65 269.78 283.631 269.736C283.798 269.669 283.892 269.675 284.132 269.586C284.285 269.447 284.374 269.263 284.393 269.066M283.456 269.347C283.436 269.335 283.389 269.296 283.353 269.238C283.275 269.107 283.136 268.963 283.136 268.818C283.219 268.771 283.317 268.829 283.397 268.876C283.556 268.954 283.714 269.088 283.82 269.216C283.706 269.269 283.497 269.352 283.456 269.349" fill="#041E42"/>
<path d="M283.326 271.084C283.379 271.145 283.334 271.251 283.301 271.307C283.27 271.36 283.195 271.399 283.131 271.365C283.075 271.351 283.023 271.293 283.011 271.234C282.953 270.948 283.131 270.645 283.251 270.375C283.234 270.611 283.062 270.862 283.106 271.118C283.128 271.182 283.189 271.196 283.251 271.168C283.251 271.168 283.295 271.151 283.326 271.084Z" fill="#041E42"/>
<path d="M275.412 260.923C275.334 260.934 275.261 260.831 275.172 260.884C275.1 261.103 275.217 261.376 275.109 261.61C274.969 261.498 274.905 261.318 274.766 261.19C274.766 261.293 274.675 261.229 274.644 261.215C274.58 261.167 274.477 261.156 274.469 261.012C274.469 260.939 274.466 260.878 274.511 260.82C274.769 260.87 274.944 261.156 275.075 261.382C275.075 261.154 275.072 260.895 275.147 260.681C275.225 260.578 275.356 260.661 275.409 260.739C275.409 260.739 275.44 260.817 275.409 260.925" fill="#041E42"/>
<path d="M276.096 258.441C276.129 258.385 276.143 258.26 276.085 258.216C276.021 258.191 275.993 258.177 275.974 258.16C275.974 258.141 276.054 257.974 275.985 257.776C275.946 257.679 275.871 257.659 275.796 257.665C275.593 257.746 275.573 257.935 275.548 258.118C275.534 258.282 275.737 258.274 275.832 258.349C275.826 258.405 275.823 258.452 275.787 258.491C275.351 258.95 274.78 259.236 274.344 259.679C274.772 259.629 275.598 258.989 275.926 258.38C275.935 258.38 276.063 258.441 276.099 258.441M275.643 258.004C275.673 257.882 275.86 257.843 275.89 257.993C275.901 258.035 275.901 258.065 275.896 258.11C275.801 258.09 275.718 258.057 275.643 258.004Z" fill="#041E42"/>
<path d="M285.006 272.024C285.159 271.782 285.048 271.507 285.043 271.207C285.076 271.09 285.19 271.226 285.271 271.182L285.29 271.031C285.287 270.998 285.273 270.976 285.232 270.948C285.168 270.923 285.098 270.889 285.054 270.962C284.929 271.207 285.023 271.521 285.004 271.788C284.873 271.565 284.692 271.248 284.4 271.204L284.375 271.451C284.375 271.615 284.575 271.61 284.698 271.635C284.831 271.741 284.865 271.88 284.951 272.008C284.951 272.008 284.965 272.027 285.009 272.022" fill="#041E42"/>
<path d="M279.81 257.853C279.456 258.045 279.064 258.136 278.711 258.323C278.002 258.695 277.201 258.86 276.553 259.391C276.603 259.494 276.772 259.455 276.817 259.555C276.82 259.619 276.811 259.675 276.781 259.73C276.678 259.722 276.516 259.677 276.45 259.58C276.369 259.193 276.706 259.004 277.036 258.857L279.367 257.855C279.568 257.769 279.701 257.739 279.86 257.672C279.896 257.73 279.851 257.803 279.81 257.855" fill="#041E42"/>
<path d="M284.086 257.713C284.136 257.935 284.006 258.23 283.93 258.361C283.736 258.814 283.313 259.167 283.085 259.607C283.129 259.115 283.51 258.681 283.839 258.258C283.858 258.194 283.819 258.136 283.755 258.127C283.196 258.127 282.673 258.364 282.167 258.558C281.472 258.887 280.712 259.062 280.053 259.468C280.084 259.565 280.187 259.579 280.265 259.607C280.604 259.693 280.904 259.902 281.283 259.863C281.13 259.668 280.776 259.752 280.718 259.468C280.901 259.326 281.18 259.24 281.402 259.368C281.416 259.446 281.333 259.465 281.232 259.493C281.174 259.415 281.054 259.429 280.96 259.409C280.999 259.632 281.296 259.612 281.463 259.724C281.494 259.757 281.502 259.796 281.497 259.841C281.194 260.149 280.732 259.913 280.409 259.816L280.395 259.829C281.135 260.444 281.933 261.064 282.501 261.838C282.851 262.224 283.121 262.736 283.627 262.934C284.139 262.992 284.451 262.494 284.857 262.258C284.979 262.183 285.107 262.099 285.249 262.177C285.343 262.249 285.299 262.33 285.274 262.458C285.249 262.55 285.221 262.666 285.129 262.703C285.09 262.625 284.971 262.65 284.915 262.678C284.353 262.847 283.967 263.807 283.288 263.365C282.846 263.011 282.534 262.558 282.175 262.132C282.225 262.447 282.323 262.939 281.997 263.167C281.783 263.323 281.55 263.47 281.266 263.423C281.024 263.356 280.81 263.12 280.774 262.878V262.747H280.654C279.552 263.206 278.215 264.138 277.007 263.342C276.802 263.167 276.738 262.917 276.59 262.714C275.887 262.819 275.681 263.579 275.369 264.06C275.272 264.205 275.11 264.252 274.938 264.257C274.382 264.16 274.315 263.487 274.307 262.992C274.307 262.833 274.287 262.605 274.371 262.455C274.36 262.908 274.365 263.392 274.579 263.768C274.679 263.901 274.802 263.952 274.935 263.932C275.272 263.735 275.447 263.367 275.639 263.059C275.823 262.686 276.209 262.188 276.682 262.213C276.802 262.31 276.79 262.461 276.871 262.569C277.213 263.059 277.775 263.237 278.368 263.131C279.291 262.995 280.084 262.552 280.918 262.213C280.968 262.358 280.857 262.569 281.018 262.7C281.138 262.831 281.28 262.911 281.461 262.908C281.686 262.861 281.892 262.764 282.081 262.619C281.872 261.988 281.271 261.509 280.815 260.975C280.459 260.619 280.106 260.227 279.797 259.852C279.75 259.446 279.861 259.179 280.12 258.967C281.132 258.45 282.206 258.052 283.299 257.729C283.513 257.665 283.7 257.593 283.944 257.613C283.944 257.613 284.064 257.64 284.083 257.71" fill="#041E42"/>
<path d="M282.512 259.134C282.551 259.246 282.506 259.396 282.412 259.415C282.328 259.426 282.284 259.368 282.25 259.299C282.145 259.023 282.328 258.801 282.437 258.578C282.476 258.776 282.145 259.07 282.451 259.207C282.498 259.201 282.509 259.134 282.509 259.134" fill="#041E42"/>
<path d="M276.608 260.323C276.577 260.496 276.432 260.646 276.293 260.757L275.859 260.418C275.879 260.27 276.007 260.145 276.107 260.014L276.154 259.953C276.313 260.05 276.469 260.203 276.61 260.323" fill="#041E42"/>
<path d="M279.072 260.084C279.017 260.137 278.914 260.162 278.844 260.118L278.725 260.012C278.661 260.095 278.605 260.209 278.485 260.234C278.355 260.254 278.257 260.173 278.221 260.059C278.154 259.859 278.082 259.709 278.216 259.531C278.252 259.695 278.257 259.884 278.399 260.012C278.51 260.043 278.594 259.984 278.652 259.912C278.647 259.739 278.552 259.598 278.636 259.433C278.764 259.467 278.697 259.951 279.019 259.92C279.039 259.742 278.83 259.564 278.975 259.375C279.039 259.586 279.253 259.848 279.07 260.084" fill="#041E42"/>
<path d="M276.71 261.282C276.66 261.432 276.523 261.577 276.404 261.713L275.953 261.318C276.037 261.174 276.092 261.018 276.24 260.898C276.415 260.982 276.562 261.149 276.707 261.285" fill="#041E42"/>
<path d="M282.838 259.913L282.813 260.089C282.741 260.1 282.694 260.03 282.619 260.075C282.516 260.305 282.616 260.625 282.549 260.881C282.449 260.84 282.413 260.717 282.354 260.62L282.143 260.403C282.087 260.431 281.993 260.403 281.929 260.378C281.845 260.319 281.862 260.178 281.89 260.089C281.965 260.05 282.057 260.102 282.132 260.147C282.324 260.278 282.424 260.47 282.513 260.659C282.546 260.422 282.477 260.119 282.571 259.891C282.646 259.824 282.769 259.813 282.833 259.916" fill="#041E42"/>
<path d="M284.886 260.854C284.867 261.023 284.689 261.182 284.575 261.307C284.41 261.185 284.271 261.079 284.141 260.912C284.235 260.768 284.319 260.606 284.452 260.492L284.883 260.854H284.886Z" fill="#041E42"/>
<path d="M284.06 260.935C284.029 261.105 283.901 261.25 283.77 261.375C283.623 261.258 283.473 261.113 283.328 260.994C283.409 260.838 283.492 260.688 283.631 260.562C283.784 260.66 283.923 260.793 284.06 260.935Z" fill="#041E42"/>
<path d="M280.065 261.225C280.113 261.264 280.065 261.389 280.029 261.456C279.973 261.562 279.834 261.581 279.765 261.503C279.581 261.228 279.812 260.914 279.873 260.652C279.859 260.847 279.751 261.053 279.801 261.267C279.846 261.362 279.915 261.339 279.979 261.328C279.979 261.328 280.068 261.295 280.065 261.223" fill="#041E42"/>
<path d="M278.399 262.039C278.265 261.886 278.115 261.532 277.848 261.599C277.815 261.588 277.784 261.569 277.753 261.541C277.728 261.449 277.712 261.304 277.812 261.251C278.076 261.315 278.276 261.549 278.377 261.783C278.407 261.521 278.36 261.213 278.532 261.021C278.621 261.001 278.71 261.04 278.746 261.112L278.71 261.296C278.646 261.271 278.585 261.238 278.507 261.251C278.393 261.463 278.477 261.777 278.432 262.005C278.432 262.005 278.432 262.033 278.399 262.039Z" fill="#041E42"/>
<path d="M284.07 262.169C284.056 262.275 284.011 262.381 283.911 262.45C283.792 262.481 283.753 262.378 283.733 262.297C283.672 262.002 283.814 261.733 283.97 261.496C283.945 261.713 283.616 262.072 283.961 262.255C284.02 262.255 284.07 262.175 284.07 262.175" fill="#041E42"/>
<path d="M284.506 259.814C284.57 259.834 284.601 259.764 284.626 259.731C284.62 259.823 284.573 260.015 284.473 260.02C284.367 260.001 284.331 259.934 284.328 259.823C284.348 259.65 284.367 259.461 284.498 259.336C284.481 259.478 284.309 259.689 284.509 259.814" fill="#041E42"/>
<path d="M276.682 264.576C276.763 264.595 276.835 264.476 276.871 264.42C276.871 264.545 276.838 264.651 276.766 264.748C276.696 264.795 276.618 264.795 276.549 264.748C276.257 264.467 276.504 263.953 276.682 263.633C276.649 263.903 276.271 264.342 276.682 264.576Z" fill="#041E42"/>
<path d="M278.563 263.84C278.602 264.062 278.274 264.279 278.502 264.477C278.591 264.521 278.616 264.404 278.647 264.371C278.672 264.482 278.633 264.594 278.589 264.685C278.508 264.752 278.299 264.666 278.305 264.524C278.31 264.26 278.394 264.037 278.563 263.84Z" fill="#041E42"/>
<path d="M281.889 264.5C281.925 264.578 281.883 264.659 281.83 264.717C281.091 264.992 280.376 265.321 279.664 265.674C279.53 265.746 279.397 265.843 279.297 265.974C279.366 266.099 279.664 266.052 279.586 266.244L279.544 266.327C279.43 266.3 279.291 266.302 279.221 266.188C279.21 266.024 279.23 265.849 279.341 265.721C279.858 265.315 280.459 265.109 281.029 264.837C281.319 264.725 281.602 264.611 281.889 264.503" fill="#041E42"/>
<path d="M275.904 264.959C275.845 264.934 275.776 264.906 275.715 264.934C275.706 264.945 275.704 264.951 275.704 264.967C275.729 265.201 275.776 265.407 275.745 265.66C275.731 265.69 275.69 265.674 275.651 265.635C275.512 265.537 275.434 265.245 275.233 265.34C275.147 265.348 275.047 265.32 275.03 265.226C275.003 265.079 275.067 264.984 275.067 264.984C275.317 264.995 275.523 265.245 275.687 265.448C275.706 265.223 275.537 264.898 275.737 264.714C275.801 264.689 275.94 264.703 275.923 264.795C275.923 264.795 275.921 264.9 275.904 264.959Z" fill="#041E42"/>
<path d="M281.633 265.654L281.589 265.852C281.527 265.838 281.475 265.785 281.411 265.818C281.288 265.996 281.416 266.266 281.383 266.469L281.352 266.678C281.224 266.567 281.169 266.35 281.005 266.216C280.966 266.316 280.849 266.252 280.785 266.205C280.707 266.122 280.735 265.971 280.765 265.877C280.993 265.885 281.171 266.138 281.266 266.33C281.286 266.06 281.241 265.752 281.444 265.562C281.519 265.562 281.591 265.596 281.633 265.654Z" fill="#041E42"/>
<path d="M275.036 266.182C274.981 266.463 274.836 266.711 274.736 266.975C274.622 267.376 274.438 267.849 274.63 268.274C274.686 268.358 274.78 268.405 274.878 268.413C275.036 268.405 275.078 268.307 275.156 268.216C275.203 268.555 275.136 268.947 274.733 268.958C274.613 268.958 274.508 268.861 274.449 268.761C274.296 268.458 274.374 268.079 274.424 267.751C274.549 267.2 274.725 266.658 275.033 266.18" fill="#041E42"/>
<path d="M276.701 266.753C276.389 266.792 276.486 266.417 276.364 266.253C276.225 266.456 276.498 266.692 276.27 266.856C275.922 266.92 276.097 266.495 275.983 266.319C275.83 266.503 275.944 266.809 275.997 266.948C276.047 267.026 276.105 267.126 276.219 267.104C276.3 267.079 276.353 267.02 276.389 266.948C276.428 266.856 276.495 266.934 276.534 266.973C276.603 267.029 276.731 267.006 276.787 266.906C276.873 266.65 276.742 266.386 276.645 266.172C276.531 266.375 276.698 266.545 276.728 266.731C276.728 266.731 276.723 266.753 276.703 266.756" fill="#041E42"/>
<path d="M277.453 267.452C277.489 267.538 277.534 267.557 277.606 267.524C277.642 267.499 277.645 267.471 277.667 267.443C277.698 267.53 277.656 267.694 277.562 267.747C277.467 267.783 277.378 267.702 277.367 267.608C277.336 267.338 277.4 267.071 277.495 266.84C277.515 267.032 277.412 267.246 277.451 267.452" fill="#041E42"/>
<path d="M276.494 267.87L276.471 268.046C276.421 268.007 276.363 267.948 276.293 267.987C276.165 268.171 276.257 268.44 276.199 268.655C276.299 268.735 276.446 268.774 276.505 268.911C276.513 268.994 276.535 269.102 276.352 269.102C276.146 269.122 275.979 269.127 275.848 269.267C275.887 269.842 276.163 270.413 276.076 270.991C276.096 270.315 275.687 269.842 275.815 269.094C275.912 268.983 276.038 268.936 276.171 268.911C276.132 268.877 276.107 268.847 276.038 268.847C276.018 268.86 276.018 268.891 276.004 268.911C275.923 268.721 276.179 268.671 275.985 268.427C275.779 268.112 275.665 268.435 275.612 268.201C275.595 268.135 275.562 267.979 275.67 267.931C275.912 268.032 276.032 268.282 276.138 268.491C276.207 268.354 276.157 268.182 276.174 268.001C276.177 267.918 276.174 267.84 276.274 267.762C276.363 267.701 276.477 267.795 276.496 267.873" fill="#041E42"/>
<path d="M278.069 268.357C277.96 268.808 277.496 269.181 277.065 269.314C276.881 269.4 276.914 269.684 276.934 269.859C277.396 270.018 278.049 269.873 278.419 270.232C278.205 270.441 277.966 270.638 277.713 270.769C276.842 271.164 275.816 271.956 274.817 271.281C274.356 270.933 274.369 270.349 274.428 269.837C274.483 269.62 274.545 269.453 274.617 269.2C274.464 269.439 274.422 269.634 274.353 269.862C274.219 270.552 274.214 271.403 274.867 271.862C275.229 272.112 275.777 272.079 276.183 271.979C276.789 271.784 277.359 271.506 277.893 271.142L278.013 271.061C278.486 270.78 278.728 270.282 278.633 269.781C278.458 269.428 278.002 269.545 277.688 269.42C277.983 269.144 278.083 268.777 278.25 268.46C278.286 268.521 278.286 268.599 278.3 268.666C278.38 268.994 278.661 269.395 279.039 269.445C279.943 269.542 280.644 268.997 281.276 268.41C281.329 268.304 281.354 268.14 281.342 268.004C280.867 268.399 280.363 268.844 279.688 268.772C279.231 268.635 279.053 268.163 278.956 267.77C279.031 267.701 279.12 267.631 279.209 267.581C279.571 267.406 280.185 267.067 280.644 267.395C280.386 267.095 280.074 266.955 279.662 266.997C279.323 267.006 279.02 267.27 278.861 267.556C278.622 267.937 278.772 268.485 278.945 268.836C278.492 268.605 278.416 268.163 278.369 267.637C278.339 266.725 278.252 265.815 278.122 264.917C278.105 264.825 278.097 264.697 278.027 264.672C277.977 264.817 277.919 264.953 277.919 265.117L278.108 267.662C278.108 267.662 278.122 268.16 278.072 268.357" fill="#041E42"/>
<path d="M280.222 270.328C280.213 270.439 280.197 270.651 280.033 270.676C279.938 270.676 279.868 270.595 279.849 270.517C279.81 270.209 279.996 270.031 280.149 269.816C280.166 270.019 279.754 270.339 280.124 270.47C280.172 270.47 280.219 270.331 280.219 270.331" fill="#041E42"/>
<path d="M280.604 264.025C280.574 264.194 280.404 264.322 280.309 264.461C280.126 264.336 279.967 264.261 279.828 264.105C279.903 263.947 279.998 263.785 280.137 263.66L280.604 264.022V264.025Z" fill="#041E42"/>
<path d="M279.751 264.137C279.698 264.329 279.573 264.446 279.459 264.582C279.286 264.499 279.111 264.36 278.961 264.229C279.05 264.084 279.111 263.909 279.27 263.801C279.442 263.887 279.587 264.029 279.751 264.137Z" fill="#041E42"/>
<path d="M277.276 274.873C277.312 274.773 277.328 274.695 277.328 274.631C277.328 274.528 277.289 274.428 277.212 274.336L277.078 274.517C277.142 274.603 277.173 274.695 277.173 274.787H274.425V274.528C274.425 274.464 274.413 274.422 274.394 274.4C274.374 274.378 274.333 274.367 274.272 274.367C274.21 274.367 274.124 274.378 274.027 274.4C273.802 274.456 273.643 274.508 273.56 274.567C273.482 274.617 273.42 274.698 273.376 274.809C273.337 274.903 273.32 274.965 273.32 274.995L273.387 275.685L273.423 275.624L273.476 275.518L273.501 275.462C273.512 275.398 273.518 275.365 273.518 275.36L273.479 274.851L273.573 274.778C273.604 274.753 273.643 274.731 273.693 274.709L273.679 274.864L274.299 275.215L274.383 275.031H277.212C277.234 274.987 277.245 274.959 277.245 274.956C277.256 274.923 277.264 274.895 277.273 274.876L277.276 274.873ZM274.283 274.928L273.815 274.664C273.935 274.606 274.057 274.578 274.183 274.578C274.308 274.578 274.249 274.583 274.263 274.597C274.277 274.611 274.283 274.636 274.283 274.675V274.928Z" fill="white"/>
<path d="M276.791 275.323L276.693 275.234L276.562 275.346L276.724 275.493L276.827 275.407L276.924 275.493L277.052 275.382L276.896 275.234L276.791 275.323Z" fill="white"/>
<path d="M278.512 274.121L278.5 274.149C278.489 274.171 278.484 274.19 278.484 274.201C278.484 274.213 278.492 274.238 278.509 274.251L278.537 274.277L278.626 274.366L278.665 274.324L279.082 274.788H277.894C277.872 274.691 277.827 274.602 277.763 274.513L277.627 274.671C277.666 274.724 277.699 274.772 277.727 274.819C277.755 274.866 277.775 274.916 277.794 274.972C277.755 275.066 277.702 275.144 277.644 275.206C277.569 275.283 277.485 275.32 277.399 275.32C277.313 275.32 277.282 275.308 277.227 275.281L277.243 275.306L277.288 275.361C277.374 275.473 277.449 275.528 277.513 275.528C277.577 275.528 277.683 275.464 277.766 275.336C277.83 275.233 277.875 275.13 277.897 275.028H279.19L279.271 274.875L279.296 274.824C279.307 274.802 279.313 274.783 279.313 274.772C279.313 274.747 279.29 274.71 279.243 274.658L278.712 274.076L279.385 273.879L279.488 273.656L278.612 273.901L278.514 274.118L278.512 274.121Z" fill="white"/>
<path d="M281.362 273.766L281.203 273.613L281.078 273.73L281.237 273.875L281.362 273.766Z" fill="white"/>
<path d="M281.277 274.08L281.374 274.166L281.5 274.058L281.341 273.91L281.238 273.996L281.141 273.91L281.016 274.021L281.171 274.169L281.277 274.08Z" fill="white"/>
<path d="M283.981 275.323L283.884 275.234L283.75 275.346L283.911 275.493L284.017 275.407L284.114 275.493L284.24 275.382L284.084 275.234L283.981 275.323Z" fill="white"/>
<path d="M286.313 273.841L286.158 273.772C286.122 273.758 286.099 273.744 286.091 273.733C286.071 273.714 286.063 273.686 286.063 273.652L285.971 273.805L285.952 273.833C285.941 273.853 285.935 273.867 285.935 273.88C285.935 273.908 285.957 273.928 285.999 273.942L286.066 274.793H285.193L285.215 274.762C285.273 274.684 285.307 274.64 285.312 274.626C285.362 274.554 285.387 274.484 285.387 274.412C285.387 274.273 285.301 274.206 285.123 274.206C284.945 274.206 284.917 274.223 284.789 274.259L284.675 274.506C284.825 274.506 284.92 274.601 284.964 274.793H284.127L284.035 274.473L283.888 274.62L283.938 274.796H281.88C281.897 274.732 281.905 274.679 281.905 274.64C281.905 274.534 281.866 274.434 281.785 274.342L281.652 274.523C281.702 274.595 281.73 274.662 281.738 274.726L281.746 274.784V274.793H281.518L281.31 274.348L281.187 274.506L281.315 274.793H280.968C280.959 274.754 280.951 274.723 280.945 274.704C280.906 274.601 280.87 274.52 280.828 274.462L280.692 274.62C280.748 274.715 280.787 274.79 280.806 274.848C280.834 274.932 280.848 275.018 280.848 275.11C280.798 275.16 280.731 275.202 280.648 275.235C280.567 275.271 280.489 275.288 280.42 275.288C280.242 275.288 280.15 275.177 280.15 274.954C280.15 274.732 280.164 274.768 280.189 274.665L280.2 274.623C280.175 274.673 280.147 274.732 280.122 274.804C280.072 274.946 280.047 275.065 280.047 275.154C280.047 275.243 280.08 275.349 280.147 275.419C280.214 275.488 280.3 275.524 280.403 275.524C280.506 275.524 280.706 275.469 280.87 275.355L280.887 275.321L280.976 275.035H281.315L281.388 274.943L281.426 275.035H281.777L281.819 274.943L281.874 275.035H283.916L283.983 274.957L284.008 275.035H284.962L285.031 274.954L285.07 275.035H286.119L286.133 274.996L286.172 274.885V274.876C286.208 274.773 286.227 274.698 286.227 274.645L286.183 274.014L286.23 274.033L286.313 273.841ZM285.042 274.451L285.129 274.439C285.181 274.439 285.206 274.456 285.206 274.492C285.206 274.528 285.19 274.548 285.154 274.592C285.137 274.531 285.101 274.484 285.042 274.451Z" fill="white"/>
<path d="M281.153 275.963C281.103 275.991 281.037 276.03 280.953 276.077C281.045 276.066 281.128 276.052 281.201 276.032C281.379 275.985 281.504 275.885 281.579 275.729L281.61 275.668C281.49 275.751 281.379 275.827 281.273 275.89L281.153 275.963Z" fill="white"/>
<path d="M280.953 275.846C281.02 275.838 281.07 275.832 281.101 275.827C281.209 275.805 281.301 275.771 281.368 275.73C281.462 275.671 281.532 275.593 281.579 275.499L281.61 275.438C281.54 275.488 281.484 275.527 281.443 275.554C281.226 275.685 281.064 275.782 280.953 275.846Z" fill="white"/>
<path d="M269.21 280.325H268.759C268.704 280.325 268.656 280.28 268.656 280.222V278.648H268.103C268.047 278.648 268 278.603 268 278.545V278.169C268 278.114 268.045 278.066 268.103 278.066H269.864C269.919 278.066 269.966 278.111 269.966 278.169V278.545C269.966 278.6 269.922 278.648 269.864 278.648H269.31V280.222C269.31 280.278 269.266 280.325 269.207 280.325H269.21ZM268.859 280.122H269.107V278.548C269.107 278.492 269.152 278.445 269.21 278.445H269.763V278.272H268.206V278.445H268.759C268.815 278.445 268.862 278.489 268.862 278.548V280.122H268.859Z" fill="white"/>
<path d="M272.133 280.325H271.568C271.535 280.325 271.507 280.311 271.487 280.283L270.953 279.568V280.222C270.953 280.278 270.909 280.325 270.85 280.325H270.4C270.344 280.325 270.297 280.28 270.297 280.222V278.169C270.297 278.114 270.341 278.066 270.4 278.066H270.85C270.906 278.066 270.953 278.111 270.953 278.169V278.748L271.34 278.116C271.359 278.086 271.39 278.069 271.426 278.069H271.921C271.957 278.069 271.991 278.089 272.01 278.122C272.03 278.153 272.027 278.194 272.01 278.225L271.457 279.129L272.213 280.164C272.236 280.194 272.238 280.236 272.222 280.269C272.205 280.303 272.169 280.325 272.13 280.325H272.133ZM271.618 280.122H271.93L271.251 279.196C271.226 279.162 271.226 279.118 271.245 279.082L271.738 278.272H271.482L270.942 279.154C270.937 279.165 270.925 279.176 270.917 279.182C270.923 279.187 270.928 279.193 270.931 279.198L271.618 280.119V280.122ZM270.503 280.122H270.747V279.26C270.747 279.226 270.761 279.198 270.786 279.179C270.761 279.16 270.747 279.132 270.747 279.101V278.272H270.503V280.122Z" fill="white"/>
<path d="M273.038 280.325H272.587C272.532 280.325 272.484 280.28 272.484 280.222V278.169C272.484 278.114 272.529 278.066 272.587 278.066H273.038C273.094 278.066 273.141 278.111 273.141 278.169V280.222C273.141 280.278 273.096 280.325 273.038 280.325ZM272.687 280.122H272.935V278.272H272.687V280.122Z" fill="white"/>
<path d="M274.69 280.325H274.239C274.184 280.325 274.137 280.28 274.137 280.222V279.293L273.438 278.225C273.419 278.194 273.416 278.153 273.433 278.119C273.45 278.086 273.486 278.066 273.522 278.066H274.07C274.106 278.066 274.139 278.086 274.156 278.116L274.462 278.617L274.771 278.116C274.79 278.086 274.821 278.069 274.857 278.069H275.402C275.438 278.069 275.474 278.089 275.491 278.122C275.508 278.155 275.508 278.194 275.486 278.228L274.787 279.296V280.225C274.787 280.28 274.743 280.328 274.684 280.328L274.69 280.325ZM274.342 280.122H274.587V279.262C274.587 279.243 274.593 279.223 274.604 279.207L275.216 278.272H274.918L274.554 278.867C274.534 278.898 274.504 278.915 274.468 278.915C274.431 278.915 274.398 278.895 274.381 278.865L274.02 278.269H273.719L274.331 279.204C274.342 279.221 274.348 279.24 274.348 279.26V280.119L274.342 280.122Z" fill="white"/>
<path d="M277.204 280.325H275.869C275.813 280.325 275.766 280.28 275.766 280.222V278.169C275.766 278.114 275.81 278.066 275.869 278.066H277.184C277.24 278.066 277.287 278.111 277.287 278.169V278.545C277.287 278.6 277.243 278.648 277.184 278.648H276.422V278.873H277.145C277.201 278.873 277.248 278.918 277.248 278.976V279.354C277.248 279.41 277.204 279.457 277.145 279.457H276.422V279.746H277.204C277.259 279.746 277.307 279.791 277.307 279.849V280.225C277.307 280.28 277.262 280.328 277.204 280.328V280.325ZM275.971 280.122H277.101V279.949H276.319C276.264 279.949 276.216 279.905 276.216 279.847V279.351C276.216 279.296 276.261 279.249 276.319 279.249H277.042V279.076H276.319C276.264 279.076 276.216 279.032 276.216 278.973V278.542C276.216 278.486 276.261 278.439 276.319 278.439H277.081V278.267H275.969V280.116L275.971 280.122Z" fill="white"/>
<path d="M278.799 280.325H278.348C278.292 280.325 278.245 280.28 278.245 280.222V278.648H277.689C277.633 278.648 277.586 278.603 277.586 278.545V278.169C277.586 278.114 277.63 278.066 277.689 278.066H279.452C279.508 278.066 279.555 278.111 279.555 278.169V278.545C279.555 278.6 279.511 278.648 279.452 278.648H278.899V280.222C278.899 280.278 278.854 280.325 278.796 280.325H278.799ZM278.448 280.122H278.696V278.548C278.696 278.492 278.74 278.445 278.799 278.445H279.352V278.272H277.792V278.445H278.348C278.404 278.445 278.451 278.489 278.451 278.548V280.122H278.448Z" fill="white"/>
<path d="M281.882 280.353C281.242 280.353 280.875 279.983 280.875 279.338V278.169C280.875 278.114 280.92 278.066 280.978 278.066H281.429C281.484 278.066 281.531 278.111 281.531 278.169V279.349C281.531 279.577 281.665 279.721 281.879 279.721C282.093 279.721 282.235 279.669 282.235 279.315V278.169C282.235 278.114 282.28 278.066 282.338 278.066H282.789C282.844 278.066 282.892 278.111 282.892 278.169V279.335C282.892 279.98 282.524 280.353 281.887 280.353H281.882ZM281.078 278.272V279.338C281.078 280.008 281.515 280.147 281.882 280.147C282.413 280.147 282.683 279.874 282.683 279.335V278.272H282.438V279.315C282.438 279.766 282.138 279.927 281.879 279.927C281.62 279.927 281.328 279.691 281.328 279.351V278.272H281.081H281.078Z" fill="white"/>
<path d="M285.386 280.326H284.935C284.88 280.326 284.832 280.282 284.832 280.223V279.244L284.526 279.647C284.507 279.672 284.476 279.686 284.446 279.686H284.376C284.346 279.686 284.315 279.672 284.296 279.647L283.992 279.247V280.226C283.992 280.282 283.948 280.329 283.889 280.329H283.439C283.383 280.329 283.336 280.284 283.336 280.226V278.173C283.336 278.118 283.38 278.07 283.439 278.07H283.831C283.862 278.07 283.892 278.084 283.912 278.109L284.41 278.763L284.907 278.109C284.927 278.084 284.958 278.07 284.988 278.07H285.38C285.436 278.07 285.483 278.115 285.483 278.173V280.226C285.483 280.282 285.439 280.329 285.38 280.329L285.386 280.326ZM285.038 280.123H285.286V278.273H285.047L284.499 278.994C284.46 279.044 284.376 279.044 284.337 278.994L283.787 278.273H283.545V280.123H283.792V278.944C283.792 278.899 283.82 278.86 283.862 278.846C283.903 278.832 283.951 278.846 283.976 278.882L284.415 279.464L284.857 278.882C284.885 278.849 284.93 278.832 284.971 278.846C285.013 278.86 285.041 278.899 285.041 278.944V280.123H285.038Z" fill="white"/>
<path d="M288.651 280.326H288.167C288.125 280.326 288.086 280.298 288.072 280.259L287.947 279.92H287.282L287.171 280.257C287.157 280.298 287.118 280.326 287.074 280.326H286.595C286.562 280.326 286.531 280.309 286.512 280.284C286.492 280.257 286.487 280.223 286.498 280.19L287.227 278.137C287.241 278.095 287.279 278.07 287.324 278.07H287.844C287.886 278.07 287.925 278.095 287.939 278.134L288.742 280.187C288.754 280.218 288.751 280.254 288.731 280.282C288.712 280.309 288.681 280.326 288.648 280.326H288.651ZM288.236 280.123H288.5L287.777 278.273H287.399L286.743 280.123H287.001L287.113 279.786C287.126 279.745 287.165 279.717 287.21 279.717H288.019C288.061 279.717 288.1 279.745 288.114 279.784L288.239 280.123H288.236ZM287.883 279.561H287.327C287.293 279.561 287.263 279.544 287.243 279.519C287.224 279.492 287.218 279.458 287.229 279.428L287.494 278.629C287.508 278.588 287.546 278.56 287.588 278.56C287.63 278.56 287.669 278.588 287.686 278.627L287.978 279.425C287.989 279.455 287.983 279.492 287.966 279.519C287.947 279.547 287.916 279.564 287.883 279.564V279.561ZM287.469 279.358H287.738L287.597 278.971L287.469 279.358Z" fill="white"/>
<path d="M290.506 280.325H289.126C289.071 280.325 289.023 280.28 289.023 280.222V278.169C289.023 278.114 289.068 278.066 289.126 278.066H289.577C289.633 278.066 289.68 278.111 289.68 278.169V279.746H290.506C290.562 279.746 290.609 279.791 290.609 279.849V280.225C290.609 280.28 290.564 280.328 290.506 280.328V280.325ZM289.229 280.122H290.403V279.949H289.577C289.521 279.949 289.474 279.905 289.474 279.847V278.269H289.226V280.119L289.229 280.122Z" fill="white"/>
<path d="M291.491 280.325H291.04C290.985 280.325 290.938 280.28 290.938 280.222V278.169C290.938 278.114 290.982 278.066 291.04 278.066H291.491C291.547 278.066 291.594 278.111 291.594 278.169V280.222C291.594 280.278 291.549 280.325 291.491 280.325ZM291.143 280.122H291.391V278.272H291.143V280.122Z" fill="white"/>
<path d="M272.9 282.988H272.728C272.672 282.988 272.625 282.944 272.625 282.885V281.681C272.625 281.625 272.67 281.578 272.728 281.578H273.37C273.426 281.578 273.473 281.623 273.473 281.681V281.837C273.473 281.892 273.429 281.94 273.37 281.94H273.003V282.07H273.37C273.426 282.07 273.473 282.115 273.473 282.173V282.329C273.473 282.385 273.429 282.432 273.37 282.432H273.003V282.891C273.003 282.947 272.959 282.994 272.9 282.994V282.988ZM272.828 282.243V282.254C272.828 282.254 272.831 282.251 272.834 282.248C272.834 282.248 272.831 282.246 272.828 282.243Z" fill="white"/>
<path d="M274.324 283.003C273.898 283.003 273.578 282.695 273.578 282.283C273.578 281.871 273.901 281.562 274.326 281.562C274.752 281.562 275.077 281.871 275.077 282.283C275.077 282.695 274.813 283.003 274.324 283.003ZM274.326 281.924C274.115 281.924 273.959 282.074 273.959 282.283C273.959 282.492 274.112 282.639 274.326 282.639C274.541 282.639 274.696 282.489 274.696 282.283C274.696 282.077 274.541 281.924 274.326 281.924Z" fill="white"/>
<path d="M275.949 283.003C275.523 283.003 275.203 282.695 275.203 282.283C275.203 281.871 275.526 281.562 275.951 281.562C276.377 281.562 276.702 281.866 276.702 282.283C276.702 282.7 276.438 283.003 275.949 283.003ZM275.951 281.924C275.74 281.924 275.584 282.074 275.584 282.283C275.584 282.492 275.737 282.639 275.951 282.639C276.166 282.639 276.318 282.489 276.318 282.283C276.318 282.077 276.163 281.924 275.951 281.924Z" fill="white"/>
<path d="M277.464 282.988H276.994C276.938 282.988 276.891 282.944 276.891 282.885V281.681C276.891 281.625 276.935 281.578 276.994 281.578H277.464C277.95 281.578 278.206 281.931 278.206 282.285C278.206 282.638 277.945 282.988 277.464 282.988ZM277.269 282.63H277.441C277.811 282.63 277.822 282.321 277.822 282.285C277.822 282.065 277.681 281.94 277.433 281.94H277.269V282.63Z" fill="white"/>
<path d="M279.338 282.988H279.165C279.11 282.988 279.062 282.944 279.062 282.885V281.681C279.062 281.625 279.107 281.578 279.165 281.578H279.811C279.866 281.578 279.914 281.623 279.914 281.681V281.837C279.914 281.892 279.869 281.94 279.811 281.94H279.441V282.07H279.811C279.866 282.07 279.914 282.115 279.914 282.173V282.329C279.914 282.385 279.869 282.432 279.811 282.432H279.441V282.891C279.441 282.947 279.396 282.994 279.338 282.994V282.988ZM279.266 282.243V282.254C279.266 282.254 279.268 282.251 279.271 282.248C279.271 282.248 279.268 282.246 279.266 282.243Z" fill="white"/>
<path d="M280.761 283.003C280.335 283.003 280.016 282.695 280.016 282.283C280.016 281.871 280.338 281.562 280.767 281.562C281.195 281.562 281.518 281.866 281.518 282.283C281.518 282.7 281.253 283.003 280.764 283.003H280.761ZM280.764 281.924C280.55 281.924 280.397 282.074 280.397 282.283C280.397 282.492 280.552 282.639 280.764 282.639C280.975 282.639 281.131 282.489 281.131 282.283C281.131 282.077 280.978 281.924 280.764 281.924Z" fill="white"/>
<path d="M282.735 282.988H282.529C282.496 282.988 282.462 282.972 282.443 282.941L282.284 282.693C282.173 282.518 282.118 282.477 282.081 282.468V282.885C282.081 282.941 282.037 282.988 281.978 282.988H281.806C281.75 282.988 281.703 282.944 281.703 282.885V281.681C281.703 281.625 281.748 281.578 281.806 281.578H282.109C282.412 281.578 282.607 281.751 282.607 282.018C282.607 282.285 282.56 282.251 282.474 282.326C282.54 282.401 282.596 282.49 282.66 282.593C282.707 282.668 282.735 282.707 282.805 282.805C282.827 282.835 282.838 282.888 282.818 282.922C282.802 282.955 282.774 282.986 282.735 282.986V282.988ZM281.906 282.279V282.287C281.906 282.287 281.909 282.285 281.912 282.282C281.912 282.282 281.909 282.279 281.906 282.276V282.279ZM282.079 282.107H282.087C282.143 282.107 282.184 282.095 282.204 282.076C282.218 282.062 282.223 282.043 282.223 282.012C282.223 281.976 282.223 281.931 282.087 281.931H282.079V282.107Z" fill="white"/>
<path d="M284.43 282.988H283.712C283.657 282.988 283.609 282.944 283.609 282.885V281.681C283.609 281.625 283.654 281.578 283.712 281.578H283.885C283.94 281.578 283.988 281.623 283.988 281.681V282.63H284.43C284.486 282.63 284.533 282.674 284.533 282.732V282.888C284.533 282.944 284.488 282.991 284.43 282.991V282.988Z" fill="white"/>
<path d="M284.929 281.578H284.759C284.702 281.578 284.656 281.624 284.656 281.681V282.885C284.656 282.942 284.702 282.988 284.759 282.988H284.929C284.986 282.988 285.032 282.942 285.032 282.885V281.681C285.032 281.624 284.986 281.578 284.929 281.578Z" fill="white"/>
<path d="M285.557 282.988H285.384C285.329 282.988 285.281 282.944 285.281 282.885V281.681C285.281 281.625 285.326 281.578 285.384 281.578H286.029C286.085 281.578 286.132 281.623 286.132 281.681V281.837C286.132 281.892 286.088 281.94 286.029 281.94H285.66V282.07H286.029C286.085 282.07 286.132 282.115 286.132 282.173V282.329C286.132 282.385 286.088 282.432 286.029 282.432H285.66V282.891C285.66 282.947 285.615 282.994 285.557 282.994V282.988ZM285.487 282.243V282.254C285.487 282.254 285.49 282.251 285.493 282.248C285.493 282.248 285.49 282.246 285.487 282.243Z" fill="white"/>
<path d="M287.085 282.988H286.384C286.329 282.988 286.281 282.944 286.281 282.885V281.681C286.281 281.625 286.326 281.578 286.384 281.578H287.068C287.124 281.578 287.171 281.623 287.171 281.681V281.837C287.171 281.892 287.127 281.94 287.068 281.94H286.66V282.101H287.049C287.105 282.101 287.152 282.146 287.152 282.204V282.36C287.152 282.415 287.107 282.463 287.049 282.463H286.66V282.632H287.085C287.141 282.632 287.188 282.677 287.188 282.735V282.891C287.188 282.947 287.143 282.994 287.085 282.994V282.988ZM286.487 282.273V282.285C286.487 282.285 286.49 282.282 286.493 282.279C286.493 282.279 286.49 282.276 286.487 282.273Z" fill="white"/>
<path d="M269.862 278.547H269.209V280.225H268.758V278.547H268.102V278.172H269.862V278.547Z" fill="#FAFAFA"/>
<path d="M271.333 279.137L272.131 280.225H271.567L270.849 279.262V280.225H270.398V278.172H270.849V279.104H270.855L271.425 278.172H271.92L271.333 279.137Z" fill="#FAFAFA"/>
<path d="M273.044 278.172H272.594V280.225H273.044V278.172Z" fill="#FAFAFA"/>
<path d="M274.23 279.265L273.516 278.172H274.064L274.456 278.817L274.851 278.172H275.396L274.681 279.265V280.225H274.23V279.265Z" fill="#FAFAFA"/>
<path d="M277.202 280.225H275.867V278.172H277.183V278.547H276.318V278.978H277.144V279.357H276.318V279.849H277.202V280.225Z" fill="#FAFAFA"/>
<path d="M279.454 278.547H278.797V280.225H278.347V278.547H277.688V278.172H279.454V278.547Z" fill="#FAFAFA"/>
<path d="M282.784 278.172V279.337C282.784 280.016 282.376 280.252 281.881 280.252C281.385 280.252 280.977 279.974 280.977 279.34V278.172H281.427V279.351C281.427 279.646 281.616 279.824 281.875 279.824C282.134 279.824 282.334 279.682 282.334 279.315V278.172H282.784Z" fill="#FAFAFA"/>
<path d="M284.992 278.172H285.385V280.225H284.934V278.942L284.447 279.588H284.378L283.891 278.942V280.225H283.438V278.172H283.832L284.414 278.934L284.992 278.172Z" fill="#FAFAFA"/>
<path d="M288.646 280.225H288.162L288.015 279.818H287.206L287.072 280.225H286.594L287.322 278.172H287.843L288.646 280.225ZM287.59 278.664L287.325 279.462H287.882L287.59 278.664Z" fill="#FAFAFA"/>
<path d="M290.505 280.225H289.125V278.172H289.576V279.849H290.505V280.225Z" fill="#FAFAFA"/>
<path d="M291.49 278.172H291.039V280.225H291.49V278.172Z" fill="#FAFAFA"/>
<path d="M273.369 281.835H272.899V282.169H273.369V282.325H272.899V282.884H272.727V281.68H273.369V281.835Z" fill="#FAFAFA"/>
<path d="M274.32 281.664C274.718 281.664 274.968 281.945 274.968 282.282C274.968 282.618 274.723 282.902 274.314 282.902C273.906 282.902 273.672 282.61 273.672 282.282C273.672 281.953 273.928 281.664 274.317 281.664M274.32 282.743C274.59 282.743 274.79 282.549 274.79 282.284C274.79 282.02 274.59 281.825 274.32 281.825C274.05 281.825 273.853 282.02 273.853 282.284C273.853 282.549 274.053 282.743 274.32 282.743Z" fill="#FAFAFA"/>
<path d="M275.961 281.664C276.358 281.664 276.609 281.945 276.609 282.282C276.609 282.618 276.364 282.902 275.958 282.902C275.552 282.902 275.312 282.61 275.312 282.282C275.312 281.953 275.568 281.664 275.961 281.664ZM275.961 282.743C276.23 282.743 276.431 282.549 276.431 282.284C276.431 282.02 276.23 281.825 275.961 281.825C275.691 281.825 275.491 282.02 275.491 282.284C275.491 282.549 275.691 282.743 275.961 282.743Z" fill="#FAFAFA"/>
<path d="M276.992 281.68H277.462C277.907 281.68 278.105 281.997 278.105 282.283C278.105 282.57 277.863 282.887 277.465 282.887H276.995V281.682L276.992 281.68ZM277.167 282.728H277.443C277.835 282.728 277.927 282.428 277.927 282.28C277.927 282.038 277.774 281.833 277.434 281.833H277.167V282.728Z" fill="#FAFAFA"/>
<path d="M279.817 281.835H279.344V282.169H279.817V282.325H279.344V282.884H279.172V281.68H279.817V281.835Z" fill="#FAFAFA"/>
<path d="M280.765 281.664C281.163 281.664 281.413 281.945 281.413 282.282C281.413 282.618 281.169 282.902 280.762 282.902C280.356 282.902 280.117 282.61 280.117 282.282C280.117 281.953 280.376 281.664 280.765 281.664ZM280.765 282.743C281.035 282.743 281.235 282.549 281.235 282.284C281.235 282.02 281.035 281.825 280.765 281.825C280.495 281.825 280.295 282.02 280.295 282.284C280.295 282.549 280.495 282.743 280.765 282.743Z" fill="#FAFAFA"/>
<path d="M282.113 281.68C282.358 281.68 282.508 281.81 282.508 282.016C282.508 282.222 282.436 282.261 282.308 282.311C282.416 282.383 282.486 282.495 282.577 282.645C282.627 282.728 282.658 282.77 282.742 282.884H282.536L282.377 282.637C282.219 282.389 282.146 282.361 282.057 282.361H281.985V282.884H281.812V281.68H282.116H282.113ZM281.985 282.205H282.096C282.283 282.205 282.335 282.111 282.333 282.008C282.333 281.894 282.263 281.827 282.096 281.827H281.985V282.205Z" fill="#FAFAFA"/>
<path d="M283.894 282.728H284.436V282.884H283.719V281.68H283.894V282.728Z" fill="#FAFAFA"/>
<path d="M284.938 281.68H284.766V282.884H284.938V281.68Z" fill="#FAFAFA"/>
<path d="M286.02 281.835H285.547V282.169H286.02V282.325H285.547V282.884H285.375V281.68H286.02V281.835Z" fill="#FAFAFA"/>
<path d="M287.067 281.835H286.555V282.2H287.048V282.356H286.555V282.728H287.084V282.884H286.383V281.68H287.067V281.835Z" fill="#FAFAFA"/>
<path d="M287.449 276.758H272.188V256H287.446V276.758H287.449ZM272.29 276.655H287.346V256.1H272.29V276.655Z" fill="white"/>
</svg>
