<svg width="161" height="161" viewBox="0 0 161 161" fill="none" xmlns="http://www.w3.org/2000/svg">
<path d="M81.3443 27.7279C81.3443 27.7279 71.9377 28.19 62.5758 45.3186C53.214 62.4472 53.8699 67.8586 55.0178 77.4143C56.1657 86.9699 64.6331 99.4474 64.6331 99.4474L60.7422 108.526L52.6475 101.609L46.1181 85.6581L45 68.1717L49.1592 51.4456L57.2688 36.3295L68.4344 24.7166L80.0771 23.2109L81.3443 27.713V27.7279Z" fill="#9E5E15"/>
<path d="M69.8438 21.8377C69.8438 21.8377 75.5086 17.5593 84.8406 17.9916C94.1577 18.4239 98.8685 26.2652 98.8685 26.2652L89.0743 29.7983L69.8438 21.8377Z" fill="#4AB1D8"/>
<path d="M88.8555 27.1614C88.8555 27.1614 78.0775 16.756 67.6274 22.9128C57.1773 29.0696 41.3605 50.7598 42.9556 75.521C44.5507 100.282 56.1487 108.496 60.7998 113.326C65.4509 118.156 62.6334 107.796 62.6334 107.796C62.6334 107.796 54.2704 101.892 50.9013 91.0098C47.5322 80.1125 45.0129 66.3232 51.4976 51.7139C57.9823 37.1047 67.3143 26.3266 74.932 26.8633C80.7906 27.2807 86.6194 32.1852 86.6194 32.1852L88.8705 27.1614H88.8555Z" fill="#46ADD3"/>
<path d="M45.1821 33.2468C45.1821 33.2468 35.865 34.5735 28.143 52.5071C20.4209 70.4408 21.5688 75.7627 23.6111 85.1693C25.6534 94.5758 35.2389 106.204 35.2389 106.204L32.2276 115.61L23.5217 109.483L15.5313 94.2181L12.7734 76.9106L15.3524 59.8714L22.016 44.0696L32.0487 31.4579L43.4976 28.8789L45.1821 33.2319V33.2468Z" fill="#46ADD3"/>
<path d="M33.1953 28.4474C33.1953 28.4474 38.4427 23.6472 47.7598 23.2149C57.077 22.7677 62.5033 30.1319 62.5033 30.1319L53.0818 34.5743L33.1953 28.4474Z" fill="#4AB1D8"/>
<path d="M52.605 31.9657C52.605 31.9657 40.9027 22.6188 31.0638 29.7147C21.2398 36.8106 7.51009 59.8873 11.4158 84.3951C15.3216 108.888 27.6351 115.999 32.7185 120.367C37.8019 124.749 34.0155 114.687 34.0155 114.687C34.0155 114.687 25.1455 109.603 20.7628 99.064C16.38 88.5244 12.5935 75.0332 17.6918 59.8873C22.7753 44.7414 31.0638 33.1434 38.6964 32.9645C44.5699 32.8303 50.831 37.1684 50.831 37.1684L52.605 31.9657Z" fill="#5BC2E7"/>
<path d="M98.9638 31.8881C98.9638 31.8881 105.419 9.54192 83.9073 10.0637C67.375 10.4662 73.6808 26.8345 73.6808 26.8345L78.1232 27.3414C78.1232 27.3414 73.979 12.5234 85.3384 13.239C100.171 14.1632 95.8183 31.5453 95.8183 31.5453L98.9489 31.903L98.9638 31.8881Z" fill="#041E42"/>
<path d="M85.968 13.9866C85.968 13.9866 95.7324 17.2215 91.5136 27.12C87.3097 37.0037 98.5648 27.9101 98.5648 27.9101C98.5648 27.9101 103.753 12.5406 85.9531 13.9866H85.968Z" fill="#041E42"/>
<path d="M100.574 28.1333C100.574 28.1333 103.436 12.1376 88.618 11.5413C73.8 10.9451 76.5728 25.4351 76.5728 25.4351L80.568 25.8823C80.568 25.8823 79.4052 13.8371 89.6168 14.7464C99.8284 15.6558 96.8022 27.701 96.8022 27.701L100.574 28.1184V28.1333Z" fill="#041E42"/>
<path d="M133.906 76.2823C133.906 76.2823 138.17 106.455 145.624 118.709C153.077 130.963 149.35 139.296 133.906 142.68C118.462 146.049 104.822 144.454 93.4476 146.586C82.0733 148.717 71.0865 149.597 63.1707 145.348C55.2698 141.085 56.5369 46.2886 72.5027 43.9779C88.4685 41.6673 133.906 76.2823 133.906 76.2823Z" fill="#04152D"/>
<path d="M67.2621 89.0439C68.1267 103.176 67.0087 122.928 105.544 129.026C144.065 135.123 142.619 119.231 142.619 119.231C142.619 119.231 134.271 90.8328 134.167 77.908C134.107 70.1115 92.8879 37.2555 74.4773 43.8595C68.082 46.1553 66.9639 84.0797 67.2621 89.0439Z" fill="#041E42"/>
<path d="M87.2812 83.4976C87.2812 83.4976 108.957 114.714 131.899 90.4743C140.307 81.6043 87.2812 83.4976 87.2812 83.4976Z" fill="#041E42"/>
<path d="M74.0852 50.09C74.0852 50.09 73.0566 72.8983 72.5051 79.2936C71.9535 85.6889 79.4817 88.2529 88.8585 86.7026C98.2352 85.1522 112.785 83.7509 119.001 84.0938C125.218 84.4367 137.248 83.2888 133.625 76.0587C130.003 68.8137 73.7275 48.2266 73.7275 48.2266L74.0852 50.09Z" fill="#070E19"/>
<path d="M47.6264 32.6349C49.6687 30.8013 63.786 25.852 71.7764 36.1531C79.7668 46.4541 65.7389 84.2593 66.4545 98.6449C67.17 113.031 76.0101 138.239 74.251 145.335C72.492 152.431 59.4033 144.44 49.5346 143.561C39.6509 142.666 27.5909 146.751 30.9599 129.891C34.329 113.031 33.0917 91.9068 33.0917 85.8693C33.0917 79.8318 27.2927 50.8816 47.6562 32.6349H47.6264Z" fill="#041E42"/>
<path d="M59.9384 34.7344C59.9384 34.7344 54.1543 37.9246 52.7381 48.0765C51.3219 58.2434 51.5455 75.4614 50.2635 81.9163C49.9057 83.7499 49.533 86.4333 49.2796 87.283C49.1156 87.8644 52.276 87.9538 52.276 87.9538C52.276 87.9538 53.9456 74.7608 54.1245 63.6995C54.3034 52.6531 56.0327 37.9395 62.3087 36.6723C68.5847 35.4052 59.9384 34.7344 59.9384 34.7344Z" fill="#4F5F66"/>
<path d="M50.2799 81.6405L50.2031 82.0508L52.8407 82.5444L52.9175 82.1341L50.2799 81.6405Z" fill="#191614"/>
<path d="M50.6563 78.8103L50.625 79.2266L53.1521 79.4166L53.1834 79.0003L50.6563 78.8103Z" fill="#191614"/>
<path d="M50.9503 75.7053L50.8828 76.1172L53.3838 76.5267L53.4512 76.1148L50.9503 75.7053Z" fill="#191614"/>
<path d="M51.0782 73.1385L51.0469 73.5547L53.6037 73.7469L53.635 73.3307L51.0782 73.1385Z" fill="#191614"/>
<path d="M53.889 70.5287L51.2812 70.6016L51.2929 71.0188L53.9007 70.946L53.889 70.5287Z" fill="#191614"/>
<path d="M53.9923 67.8482L51.375 68.0312L51.4041 68.4476L54.0214 68.2646L53.9923 67.8482Z" fill="#191614"/>
<path d="M54.1095 65.4434L51.5156 65.457L51.5178 65.8744L54.1117 65.8608L54.1095 65.4434Z" fill="#191614"/>
<path d="M54.2031 62.7372L51.625 62.8047L51.6359 63.222L54.214 63.1544L54.2031 62.7372Z" fill="#191614"/>
<path d="M51.7344 59.99L51.7031 60.4062L54.1857 60.5929L54.217 60.1767L51.7344 59.99Z" fill="#191614"/>
<path d="M51.936 57.1574L51.875 57.5703L54.3526 57.9362L54.4136 57.5232L51.936 57.1574Z" fill="#191614"/>
<path d="M52.1066 54.7848L52.0312 55.1953L54.4945 55.6474L54.5699 55.2369L52.1066 54.7848Z" fill="#191614"/>
<path d="M52.2562 52.1993L52.2031 52.6133L54.7908 52.9448L54.8438 52.5307L52.2562 52.1993Z" fill="#191614"/>
<path d="M52.5796 49.7543L52.5 50.1641L55.1633 50.6818L55.2429 50.272L52.5796 49.7543Z" fill="#191614"/>
<path d="M52.9746 46.8411L52.7969 47.2188L55.4002 48.4438L55.5779 48.0661L52.9746 46.8411Z" fill="#191614"/>
<path d="M53.5774 44.3381L53.375 44.7031L55.9696 46.1413L56.172 45.7763L53.5774 44.3381Z" fill="#191614"/>
<path d="M54.6036 41.4311L54.3438 41.7578L56.6537 43.5953L56.9136 43.2686L54.6036 41.4311Z" fill="#191614"/>
<path d="M55.844 39.2792L55.5 39.5156L57.2309 42.0342L57.5749 41.7977L55.844 39.2792Z" fill="#191614"/>
<path d="M57.2086 37.2363L56.8594 37.4648L58.3613 39.7601L58.7106 39.5315L57.2086 37.2363Z" fill="#191614"/>
<path d="M58.5532 35.7287L58.1719 35.8984L59.3664 38.5813L59.7477 38.4115L58.5532 35.7287Z" fill="#191614"/>
<path d="M48.4453 32.0802C51.3672 30.3807 68.7045 23.1805 86.1014 23.8662C103.498 24.5519 118.167 24.8203 125.278 32.0802C132.374 39.3401 137.934 51.6536 138.412 64.4293C138.889 77.2049 134.506 80.9914 123.266 81.8262C112.025 82.661 98.5342 82.7803 91.0805 83.6002C83.6268 84.435 75.3383 85.6127 75.3383 73.6569C75.3383 61.7012 76.8737 45.4968 67.4075 38.9823C57.9413 32.4678 48.4602 32.0653 48.4602 32.0653L48.4453 32.0802Z" fill="#5BC2E7"/>
<path d="M116.153 28.8759C123.98 31.5741 130.479 38.7595 130.718 53.965C130.748 56.1713 130.211 57.6919 129.227 58.6609C122.891 64.8474 100.277 58.3925 86.6664 47.0927C83.1333 44.1709 80.4947 41.1447 74.3827 37.4476C67.8532 33.4972 62.74 32.0064 62.9934 30.3815C63.1872 29.1144 66.5115 28.6373 71.3117 28.1156C101.395 24.836 108.804 26.3267 116.168 28.861L116.153 28.8759Z" fill="#4AB1D8"/>
<path d="M106.449 143.039C112.964 142.815 127.633 142.92 134.505 140.311C141.362 137.702 143.971 134.989 144.568 133.453C145.164 131.918 135.101 136.644 126.112 137.359C117.123 138.075 92.5109 143.516 106.464 143.039H106.449Z" fill="#070E19"/>
<path d="M87.1661 36.1656C81.7398 37.075 76.8502 39.7136 99.2858 39.5943C121.721 39.475 128.236 40.6527 125.746 38.7595C123.257 36.8663 97.81 34.3767 87.1661 36.1507V36.1656Z" fill="#54C0E8"/>
<path d="M77.4538 102.031C77.4538 102.031 72.7282 105.848 74.4724 114.106C76.2165 122.365 75.9333 129.819 88.858 129.729C101.783 129.64 107.462 128.045 108.789 123.871C110.116 119.697 77.4538 102.031 77.4538 102.031Z" fill="#070E19"/>
<path d="M83.02 97.5868C80.0832 96.4986 72.9873 101.627 78.5179 121.483C79.9341 126.552 85.1517 127.059 89.5196 127.297C93.9024 127.536 87.2686 112.852 87.6263 109.185C87.9841 105.518 87.5071 99.2416 83.005 97.5868H83.02Z" fill="#041E42"/>
<path d="M87.7267 107.652C87.7267 107.652 84.447 124.333 89.4112 126.584C94.3754 128.835 106.331 126.584 108.821 124.81C111.31 123.036 112.011 117.357 108.821 109.664C105.63 101.972 87.7267 107.652 87.7267 107.652Z" fill="#04152D"/>
<path d="M79.8672 98.3746C79.8672 98.3746 87.4551 106.633 87.2762 112.939C87.0973 119.245 110.04 113.103 110.04 113.103C110.04 113.103 109.175 109.451 108.281 108.527C107.371 107.602 80.6424 97.5547 80.6424 97.5547L79.8821 98.3746H79.8672Z" fill="#070E19"/>
<path d="M79.8743 98.3773C79.8743 98.3773 87.1789 99.0631 88.3417 110.601C88.8485 115.61 111.776 113.449 110.956 108.529C110.956 108.529 111.418 95.4406 104.561 94.3821C97.7035 93.3237 95.8401 96.6331 91.025 96.0965C86.2099 95.5598 81.7377 95.7536 79.8594 98.3624L79.8743 98.3773Z" fill="#041E42"/>
<path d="M102.753 94.7428C104.661 94.6981 108.567 97.0684 108.254 104.328C107.941 111.588 105.153 100.78 102.753 99.1852C100.353 97.5901 98.6681 94.8323 102.753 94.7428Z" fill="#0F305E"/>
<path d="M86.162 96.8711C84.403 97.0649 84.5669 97.8401 90.1572 98.2873C95.7475 98.7345 91.5883 96.2599 86.162 96.8711Z" fill="#0F305E"/>
<path d="M78.1695 105.625C77.9906 107.533 77.9012 120.13 80.659 122.709C83.4169 125.288 78.4229 102.927 78.1695 105.625Z" fill="#04152D"/>
<path d="M107.103 119.427C106.119 120.411 102.839 124.302 97.0699 124.928C91.3007 125.554 101.781 127.507 105.85 123.78C109.935 120.053 109.205 117.325 107.088 119.427H107.103Z" fill="#041E42"/>
<path d="M103.466 106.815C103.466 108.574 102.035 110.005 100.276 110.005C98.5171 110.005 97.0859 108.574 97.0859 106.815C97.0859 105.056 98.5171 103.625 100.276 103.625C102.035 103.625 103.466 105.056 103.466 106.815Z" fill="#5BC2E7"/>
<path d="M100.084 107.697C99.1894 107.295 98.7869 106.236 99.2043 105.342C99.6068 104.447 100.665 104.045 101.56 104.462C102.454 104.865 102.857 105.923 102.439 106.817C102.037 107.712 100.978 108.114 100.084 107.697Z" fill="#4AB1D8"/>
<path d="M100.664 105.968C100.172 105.55 99.9779 104.954 100.246 104.656C100.515 104.343 101.126 104.432 101.618 104.85C102.11 105.267 102.303 105.864 102.035 106.162C101.782 106.475 101.156 106.385 100.664 105.968Z" fill="#54C0E8"/>
<path d="M116.861 98.5234C116.861 98.5234 112.224 102.444 114.133 110.658C116.041 118.872 115.921 126.341 128.831 125.968C141.756 125.61 146.422 124.134 147.659 119.945C148.897 115.741 116.846 98.5234 116.846 98.5234H116.861Z" fill="#070E19"/>
<path d="M122.337 93.9782C119.385 92.9645 112.393 98.2268 118.341 117.964C119.862 123.003 125.08 123.39 129.462 123.54C133.845 123.689 126.913 109.154 127.182 105.472C127.465 101.79 126.854 95.5285 122.322 93.9782H122.337Z" fill="#041E42"/>
<path d="M127.252 103.937C127.252 103.937 124.315 120.693 129.339 122.839C134.362 124.986 146.259 122.482 148.703 120.663C151.148 118.829 151.744 113.135 148.39 105.517C145.036 97.8994 127.252 103.952 127.252 103.952V103.937Z" fill="#04152D"/>
<path d="M119.203 94.8426C119.203 94.8426 126.955 102.937 126.91 109.243C126.866 115.549 149.674 108.93 149.674 108.93C149.674 108.93 148.735 105.293 147.81 104.398C146.886 103.489 119.948 94.0078 119.948 94.0078L119.203 94.8426Z" fill="#070E19"/>
<path d="M119.203 94.843C119.203 94.843 126.508 95.3648 127.939 106.888C128.55 111.882 151.433 109.244 150.509 104.354C150.509 104.354 150.702 91.2652 143.815 90.341C136.928 89.4167 135.154 92.7858 130.324 92.3386C125.494 91.9063 121.007 91.9212 119.218 94.843H119.203Z" fill="#041E42"/>
<path d="M141.993 90.7258C143.901 90.6513 147.851 92.9321 147.702 100.192C147.538 107.452 144.527 96.7037 142.097 95.1533C139.667 93.603 137.923 90.8898 142.007 90.7109L141.993 90.7258Z" fill="#0F305E"/>
<path d="M125.446 93.205C123.687 93.4435 123.866 94.2187 129.471 94.5466C135.077 94.8746 130.858 92.4894 125.446 93.205Z" fill="#0F305E"/>
<path d="M117.649 102.12C117.515 104.029 117.694 116.625 120.496 119.145C123.299 121.664 117.857 99.4073 117.649 102.12Z" fill="#04152D"/>
<path d="M146.864 115.295C145.91 116.294 142.705 120.259 136.95 121.005C131.196 121.75 141.706 123.479 145.716 119.663C149.726 115.847 148.936 113.149 146.864 115.295Z" fill="#041E42"/>
<path d="M142.96 102.772C142.99 104.531 141.603 105.977 139.844 106.022C138.085 106.052 136.639 104.666 136.594 102.907C136.564 101.147 137.951 99.7014 139.71 99.6567C141.469 99.6269 142.915 101.013 142.96 102.772Z" fill="#5BC2E7"/>
<path d="M139.615 103.729C138.706 103.341 138.288 102.298 138.676 101.389C139.064 100.479 140.107 100.062 141.016 100.449C141.926 100.837 142.343 101.88 141.956 102.79C141.568 103.699 140.524 104.117 139.615 103.729Z" fill="#4AB1D8"/>
<path d="M140.144 101.982C139.637 101.58 139.443 100.983 139.697 100.67C139.95 100.357 140.562 100.432 141.068 100.834C141.575 101.237 141.769 101.833 141.516 102.146C141.262 102.459 140.651 102.385 140.144 101.982Z" fill="#54C0E8"/>
<path d="M53.3489 87.6696C53.0656 88.3851 49.9202 94.6015 49.9202 94.6015C49.9202 94.6015 48.7723 94.1543 48.1313 93.9158C47.4903 93.6623 46.4766 93.2747 46.4766 93.2747C46.4766 93.2747 48.1909 86.477 48.4593 85.7763C48.981 84.4197 50.5016 83.7489 51.8432 84.2707C53.1998 84.7924 53.8706 86.313 53.3489 87.6546V87.6696Z" fill="#041E42"/>
<path d="M50.8316 88.5617C51.6879 88.5617 52.382 87.8676 52.382 87.0113C52.382 86.1551 51.6879 85.4609 50.8316 85.4609C49.9754 85.4609 49.2812 86.1551 49.2812 87.0113C49.2812 87.8676 49.9754 88.5617 50.8316 88.5617Z" fill="#041E42"/>
<path d="M36.5074 94.7357C36.1943 99.9384 37.3422 116.56 34.2563 127.279C32.5271 133.316 33.8986 138.161 40.7709 139.473C47.6283 140.77 52.1303 138.772 58.4362 142.425C64.742 146.092 74.1933 143.185 59.7033 130.409C54.8435 126.131 46.7935 122.329 44.0803 115.591C38.6988 102.234 37.1633 83.7042 36.5074 94.7208V94.7357Z" fill="#070E19"/>
<path d="M46.4676 39.684C44.5893 41.7412 35.3765 51.4608 35.9132 67.6801C36.4498 83.8993 39.8189 61.9854 42.8302 55.456C45.8415 48.9266 50.3137 35.4652 46.4527 39.6691L46.4676 39.684Z" fill="#070E19"/>
<path d="M78.095 63.7007C77.1856 65.7132 76.157 80.1883 83.1486 80.6653C90.1253 81.1423 95.9093 79.4876 100.292 79.9498C104.69 80.4268 100.471 76.4018 91.0346 77.1024C81.5982 77.818 80.033 59.4073 78.095 63.7007Z" fill="#4AB1D8"/>
<path d="M134.847 63.7019C135.548 66.7878 136.129 73.7048 130.703 76.3732C125.292 79.0417 118.553 79.8318 124.457 76.9993C130.345 74.152 131.642 72.6464 132.104 70.2463C132.566 67.8462 133.923 59.6471 134.847 63.7019Z" fill="#46ADD3"/>
<path d="M119.648 70.9332C119.648 74.9284 116.413 78.1633 112.418 78.1633C108.422 78.1633 105.188 74.9284 105.188 70.9332C105.188 66.938 108.422 63.7031 112.418 63.7031C116.413 63.7031 119.648 66.938 119.648 70.9332Z" fill="#041E42"/>
<path d="M111.355 74.3015C108.806 73.1387 107.688 70.1423 108.85 67.5931C110.013 65.044 113.01 63.9259 115.559 65.0887C118.108 66.2515 119.226 69.2478 118.063 71.797C116.9 74.3462 113.904 75.4642 111.355 74.3015Z" fill="#041E42"/>
<path d="M112.971 69.3986C111.57 68.206 111.033 66.5364 111.764 65.6568C112.509 64.7773 114.238 65.0307 115.655 66.2233C117.056 67.4159 117.592 69.0856 116.862 69.9651C116.117 70.8446 114.387 70.5912 112.971 69.4135V69.3986Z" fill="#0F305E"/>
</svg>
