<svg width="164" height="164" viewBox="0 0 164 164" fill="none" xmlns="http://www.w3.org/2000/svg">
<path d="M17.9949 111.446L18.2379 112.069L18.3594 112.388C18.162 111.872 17.9646 111.34 17.7823 110.809L17.9949 111.446Z" fill="#041E42"/>
<path d="M67.5625 159.671C67.5169 159.656 67.4866 159.656 67.4258 159.641C67.2892 159.762 67.1677 159.853 67.0614 159.929L67.5625 159.671Z" fill="#041E42"/>
<path d="M117.461 151.488C117.385 151.564 117.294 151.655 117.172 151.731C117.339 151.64 117.415 151.564 117.461 151.488Z" fill="#041E42"/>
<path d="M85.7167 29.7027C85.7774 29.7027 85.8381 29.6875 85.9141 29.6875C85.823 29.6875 85.7622 29.6875 85.7167 29.7027Z" fill="#041E42"/>
<path d="M23.3047 121.498L23.0769 121.301C23.168 121.392 23.2439 121.453 23.3047 121.498Z" fill="#041E42"/>
<path d="M81.8791 159.685C82.2891 159.715 82.6688 159.746 82.9876 159.806L82.9421 160.049C83.8532 160.247 84.7491 160.368 85.6299 160.338C86.5106 160.323 87.361 160.232 88.2417 160.11C89.988 159.806 91.7951 159.381 93.9058 159.032L93.4199 159.609C94.9536 159.897 93.7084 158.804 95.4699 158.759L95.6673 159.366C97.0339 158.257 97.6717 159.199 98.7954 159.26L98.1273 158.576L100.117 158.288C101.225 158.182 101.62 158.333 101.711 158.592C101.802 158.85 101.605 159.229 101.498 159.472C101.939 159.138 102.364 158.774 102.789 158.425L103.275 159.032C104.095 157.893 104.414 158.88 106.13 157.802C106.373 158.014 105.948 158.318 106.631 158.212L107.982 157.194L109.288 156.116C108.742 156.496 108.21 156.891 107.648 157.24L107.497 156.162C108.286 155.418 108.909 155.205 109.501 155.069C110.093 154.932 110.655 154.886 111.247 154.446C110.989 154.674 110.746 154.917 110.473 155.129C112.492 153.945 112.781 154.294 114.102 153.96C113.647 153.96 112.948 153.96 113.738 153.429C114.33 153.064 114.239 153.596 114.877 153.398C114.785 153.049 115.059 152.593 115.545 152.183C116.031 151.773 116.729 151.409 117.443 151.166C117.473 151.257 117.504 151.363 117.443 151.47C117.716 151.181 117.792 150.923 118.46 150.726L118.521 151.606L119.25 150.316C120.115 150.073 120.829 148.873 121.027 149.389L120.708 149.784C122.575 148.66 124.382 147.446 126.144 146.14L126.615 146.58C126.599 146.033 127.344 145.547 127.981 145.092C128.634 144.636 129.135 144.181 128.695 143.862C129.348 143.665 130.198 142.799 130.882 142.1C131.55 141.402 132.112 140.931 132.294 141.615C132.689 141.235 133.038 140.87 133.372 140.521C133.691 140.142 133.979 139.777 134.253 139.413C134.693 138.805 135.118 138.213 135.528 137.606C135.665 137.469 135.817 137.332 135.954 137.196C136.257 136.907 136.561 136.603 136.865 136.315C137.168 136.026 137.472 135.723 137.776 135.434C138.064 135.13 138.353 134.812 138.641 134.508C138.93 134.204 139.218 133.885 139.507 133.582C139.795 133.278 140.099 132.959 140.357 132.64C140.904 132.002 141.466 131.349 142.028 130.696C142.164 130.529 142.301 130.377 142.438 130.195L142.832 129.694L143.622 128.677C143.88 128.343 144.154 128.009 144.412 127.659L145.156 126.612L145.9 125.564C146.021 125.382 146.158 125.215 146.264 125.032L146.614 124.486C147.084 123.757 147.54 123.043 148.011 122.314C148.876 120.826 149.772 119.338 150.547 117.789L151.139 116.635L151.291 116.346L151.427 116.058L151.701 115.466C152.065 114.676 152.429 113.886 152.779 113.097C153.098 112.292 153.432 111.487 153.751 110.667C153.827 110.47 153.918 110.257 153.994 110.06L154.206 109.437L154.631 108.192C155.755 104.882 156.681 101.495 157.274 98.0178C157.532 96.5752 157.744 95.1175 157.911 93.6445C157.972 93.5534 158.033 93.4775 158.063 93.3864C158.337 92.6878 158.655 91.9893 158.944 91.2756C159.217 90.5619 159.445 89.8482 159.597 89.1193C159.597 89.1193 159.597 89.1041 159.597 89.089C159.642 89.0434 159.718 88.9978 159.764 88.9523C160.144 88.4967 160.28 87.859 159.977 86.8567C159.87 86.4771 159.794 86.0975 159.749 85.7027C159.703 85.3078 159.673 84.8978 159.673 84.4878C159.673 83.6678 159.749 82.8327 159.84 82.0582C159.901 81.2686 159.977 80.4941 160.068 79.7045C160.113 79.3097 160.159 78.9149 160.189 78.5353L160.28 77.366C160.341 76.5764 160.402 75.8019 160.447 75.0123C160.462 74.2227 160.478 73.433 160.462 72.6434C160.371 68.8623 159.855 65.0812 159.065 61.3608C158.989 62.196 158.959 63.2134 158.974 64.3523C158.989 64.9293 158.974 65.5367 158.974 66.1593C158.974 66.5086 158.974 66.873 158.974 67.2375C158.792 67.1008 158.61 66.9793 158.443 66.8427C158.61 67.1616 158.777 67.4804 158.929 67.7993C158.944 67.7841 158.974 67.769 158.989 67.7538C158.989 67.8753 158.989 67.9967 158.989 68.1334C158.989 68.8167 158.974 69.5153 158.989 70.2138C158.989 70.563 158.989 70.9275 158.989 71.2919C158.989 71.4741 158.989 71.6564 158.989 71.8386C158.989 72.0208 158.989 72.203 158.974 72.3853C158.944 73.1141 158.929 73.843 158.914 74.5871L158.914 75.1338C158.898 75.316 158.883 75.4982 158.868 75.6804C158.853 76.0449 158.822 76.4093 158.807 76.7738C158.792 77.1382 158.777 77.5027 158.747 77.8671C158.731 78.2315 158.716 78.5808 158.686 78.9453C158.625 79.659 158.564 80.3575 158.519 81.0408C158.488 81.3749 158.473 81.7241 158.443 82.043C158.412 82.3771 158.367 82.696 158.337 83.0149C158.337 83.0756 158.337 83.1212 158.321 83.1819C158.321 82.8782 158.321 82.5745 158.291 82.2556L158.261 81.8608C158.261 81.8456 158.261 81.8304 158.291 81.8153C158.564 81.3597 158.549 80.6612 158.382 80.1297C158.215 79.5527 158.094 78.9908 158.002 78.429C157.957 78.1708 157.927 77.9127 157.896 77.6697L157.866 77.4571C157.835 77.2293 157.82 77.0015 157.79 76.7586C157.744 76.1967 157.714 75.6501 157.714 75.1034C157.714 74.8301 157.714 74.5567 157.714 74.2834C157.714 74.0101 157.714 73.7367 157.729 73.4634C157.744 72.9167 157.775 72.3701 157.835 71.8082C157.866 71.5349 157.881 71.2615 157.927 70.973C157.957 70.6997 157.972 70.4264 158.002 70.1378C158.048 69.576 158.109 69.0293 158.169 68.4675L158.261 67.6323C158.291 67.359 158.306 67.0704 158.321 66.7819C158.352 66.8123 158.397 66.8275 158.428 66.8578C158.397 66.7971 158.367 66.7364 158.337 66.6756L158.276 66.7516C158.018 66.053 158.048 65.2482 157.835 64.4586C157.608 63.6538 157.122 62.8641 155.892 62.2567C155.892 62.7275 155.907 63.1527 155.907 63.5627C155.907 63.7601 155.907 63.9575 155.907 64.1549C155.907 64.3523 155.907 64.5345 155.907 64.7167C155.877 65.4456 155.877 66.0986 155.922 66.7364C155.952 67.0553 155.983 67.3893 156.028 67.7082C156.028 67.8145 156.044 67.9208 156.059 68.0271C155.937 67.5867 155.831 67.1312 155.694 66.6908C155.573 66.2656 155.467 65.8404 155.33 65.4304L154.92 64.1853L154.51 62.9401L154.297 62.3175L154.054 61.7101C154.009 61.6038 153.978 61.4975 153.933 61.3912C153.827 60.8749 153.705 60.3738 153.599 59.8575L153.492 59.3716L153.371 58.9008L153.143 57.9441L152.9 56.9267L152.779 56.4104C152.733 56.2434 152.688 56.0764 152.642 55.9093L152.08 53.8745L151.944 53.3734C151.898 53.2064 151.837 53.0393 151.777 52.8723L151.442 51.8701L151.108 50.8678L150.941 50.3667C150.881 50.1997 150.82 50.0327 150.759 49.8656L150 47.8764L149.802 47.3753L149.59 46.8893L149.165 45.9175L148.739 44.9456C148.664 44.7786 148.603 44.6115 148.527 44.4597L148.284 43.9738L147.327 42.0453C145.991 39.5245 144.533 37.019 142.832 34.6653L142.21 33.7693C141.997 33.4656 141.769 33.1923 141.542 32.9038L140.19 31.1727C139.719 30.6108 139.234 30.0641 138.763 29.5023L138.034 28.6671C137.791 28.3938 137.533 28.1356 137.275 27.8623C136.728 27.3004 136.197 26.7386 135.635 26.1767L133.919 24.5671C133.357 24.0204 132.734 23.5193 132.142 23.003C131.535 22.5019 130.942 21.9704 130.32 21.4997L128.437 20.0419C127.799 19.5712 127.146 19.1156 126.493 18.6601C126.159 18.4323 125.84 18.2045 125.506 17.9767L124.504 17.3238L123.487 16.6708C123.152 16.4582 122.818 16.2304 122.469 16.033L120.389 14.803L119.872 14.4993L119.341 14.2108L118.278 13.6338C116.866 12.8441 115.393 12.1608 113.92 11.4167C113.176 11.0675 112.432 10.7486 111.672 10.3993L110.549 9.89821L109.41 9.42747C108.651 9.12377 107.876 8.7897 107.102 8.48599C106.327 8.19747 105.538 7.90896 104.763 7.62044C103.943 7.30155 103.032 7.27118 102.151 7.11933C103.032 7.46859 103.898 7.80266 104.763 8.19747C104.961 8.28859 105.143 8.36451 105.34 8.45562L103.184 7.80266C102.425 7.5597 101.635 7.37747 100.861 7.18007C100.086 6.99784 99.3117 6.77007 98.5221 6.6334L96.1532 6.14747C95.3636 5.99562 94.5588 5.88933 93.7691 5.75266C93.3743 5.69192 92.9643 5.61599 92.5695 5.57044L91.3699 5.43377L90.1551 5.2971C89.7451 5.25155 89.3502 5.19081 88.9402 5.16044L86.5106 4.96303L85.9032 4.91747L85.2958 4.8871L84.0658 4.84155C82.4258 4.75044 80.7858 4.78081 79.1306 4.76562C78.3106 4.76562 77.4754 4.81118 76.6554 4.84155L75.4102 4.87192L74.1651 4.94784C73.3299 5.00858 72.4947 5.03895 71.6747 5.11488C70.8395 5.19081 70.0043 5.28192 69.1691 5.35784C68.2884 5.41858 67.4532 5.79821 66.6028 6.04118C67.5443 5.98044 68.4858 5.88932 69.4273 5.87414C70.3688 5.84377 71.2951 5.79821 72.2366 5.76784C73.1628 5.76784 74.0891 5.75266 75.0306 5.73747C75.2584 5.73747 75.4862 5.73747 75.7291 5.73747L76.4277 5.73747C76.4277 5.75266 77.8095 5.78303 77.8095 5.78303L79.1762 5.8134L80.5428 5.88933L81.9095 5.96525L82.5928 6.01081L83.2762 6.07155L85.9639 6.3297L88.6365 6.67896C92.1747 7.19525 95.6369 7.89377 99.008 8.82007C102.379 9.76155 105.644 10.9308 108.772 12.3127C108.423 12.2519 108.074 12.176 107.724 12.1153C107.375 12.0545 107.026 11.9786 106.692 11.8875C106.008 11.7204 105.34 11.5078 104.657 11.3104C103.974 11.113 103.305 10.9004 102.637 10.6878C102.303 10.5815 101.969 10.4601 101.62 10.369L100.587 10.0956C99.9039 9.9134 99.2054 9.74636 98.5069 9.62488C97.8084 9.51859 97.0947 9.42747 96.3962 9.38192C96.0469 9.36673 95.6825 9.33636 95.3332 9.36673C94.9688 9.38192 94.6195 9.41229 94.2551 9.45784C93.5414 9.54896 92.8277 9.68562 92.114 9.92858C92.858 10.1564 93.6173 10.3841 94.3462 10.5967L95.4547 10.9156C95.8191 11.0371 96.1836 11.1434 96.5632 11.2497C96.9277 11.356 97.2921 11.4623 97.6717 11.5686C98.0362 11.6749 98.4006 11.766 98.7651 11.8875C99.4939 12.1153 100.223 12.3278 100.952 12.5101C101.331 12.6012 101.696 12.7227 102.06 12.8441L103.169 13.1934L104.262 13.5427L105.34 13.9375L106.418 14.3323L106.965 14.5297C107.147 14.5904 107.314 14.6664 107.497 14.7423L109.622 15.6078C112.417 16.8378 115.119 18.2197 117.655 19.8141C120.191 21.4238 122.575 23.2156 124.762 25.2049C125.309 25.706 125.825 26.2223 126.341 26.7386C126.584 26.9967 126.842 27.2397 127.085 27.4978C126.098 26.8145 125.096 26.1464 124.079 25.5238L122.818 24.5975L122.044 24.0356C121.786 23.8382 121.512 23.6712 121.254 23.489L119.66 22.4108C119.402 22.2286 119.113 22.0615 118.84 21.8945L118.02 21.3934L117.2 20.8923L116.79 20.6341L116.365 20.3912C115.241 19.7686 114.117 19.1004 112.933 18.5386C109.015 16.5341 104.915 14.7119 100.572 13.2997C96.2291 11.8875 91.6584 10.9004 86.9814 10.5664C85.9032 10.4601 84.8099 10.4297 83.7165 10.3993L82.8965 10.3993C82.8965 10.3841 82.4865 10.3841 82.4865 10.3841L82.0765 10.3841C81.5299 10.4297 80.9832 10.4753 80.4214 10.5208C80.148 10.5512 79.8747 10.5815 79.6014 10.6271C79.328 10.6727 79.0547 10.703 78.7814 10.7638C78.2499 10.8853 77.7032 11.0219 77.1869 11.2041C76.8528 11.3104 76.5188 11.4319 76.1999 11.5686C73.9525 11.6445 71.7051 11.7964 69.4425 12.0697C69.2451 12.0241 69.0628 12.009 68.8654 11.9938C68.6377 11.9938 68.4099 11.9938 68.2125 12.0545C67.514 12.2064 66.8154 12.3734 66.1169 12.5404C62.2447 13.1934 58.3877 14.2108 54.6825 15.699C53.6803 16.0786 52.6932 16.519 51.691 16.9593L50.9469 17.3086L50.5825 17.4908L50.218 17.6882C49.7473 17.9464 49.2614 18.2197 48.8058 18.5082C48.578 18.6601 48.3503 18.7967 48.1225 18.9486C47.8947 19.1004 47.6669 19.2523 47.4695 19.4345C47.0443 19.7686 46.6343 20.133 46.2547 20.5127C45.8751 20.8923 45.4954 21.2871 45.1614 21.7275C45.0703 21.8641 44.9791 22.0008 44.888 22.1375C43.7491 22.8967 42.6406 23.6864 41.5321 24.5064C41.4562 24.5064 41.3803 24.5064 41.2891 24.5064C40.8488 24.476 40.3477 24.5064 39.8769 24.6127C39.6491 24.6734 39.4062 24.7341 39.1936 24.8252C38.981 24.9164 38.7988 25.0378 38.6317 25.1593C37.8573 25.7819 37.0828 26.4197 36.3388 27.0727C35.6099 27.7408 34.881 28.4241 34.1521 29.1227C33.4536 29.8364 32.7703 30.5653 32.0869 31.2941C31.7377 31.6586 31.434 32.0382 31.0999 32.4178L30.128 33.5567C29.9306 33.7997 29.7636 34.073 29.6269 34.3919C29.4751 34.7108 29.3384 35.0904 29.1258 35.5156C29.5966 35.4093 29.9762 35.1815 30.3103 34.9234C29.7636 35.5612 29.2169 36.199 28.6854 36.8519C28.7006 36.8519 28.731 36.8367 28.7462 36.8215C28.7462 36.8215 28.7462 36.8064 28.7614 36.7912C28.7614 36.7912 28.7614 36.8064 28.7614 36.8215C29.6117 36.5027 30.5229 36.2293 31.6162 35.8801C31.7377 36.2293 31.8743 36.5482 32.011 36.8367C31.358 37.5352 30.7051 38.2338 30.0673 38.9627C29.8243 38.7956 29.5966 38.6134 29.4295 38.4312C29.0499 38.0364 28.974 37.3834 28.7766 36.8215C28.7766 36.8215 28.7614 36.8215 28.7462 36.8215C28.3666 37.6567 27.8351 38.4615 27.5314 39.2967C27.4251 39.3119 27.3188 39.3271 27.2277 39.3575C26.7114 39.4941 26.2254 39.6915 25.8154 39.9649C24.9954 40.5115 24.3273 41.3012 23.7351 42.2578C21.761 45.5378 20.0451 48.9849 18.6177 52.5686C18.5721 52.6749 18.5114 52.766 18.4658 52.8571C18.2988 53.176 18.1317 53.5101 17.9495 53.8593C17.7825 54.1934 17.6306 54.5578 17.4636 54.9071C17.1447 55.6208 16.8106 56.3649 16.4766 57.1241C16.1729 57.8986 15.8691 58.6882 15.5654 59.5082C15.4136 59.9182 15.2617 60.3282 15.1099 60.7534C14.9732 61.1786 14.8366 61.6038 14.6999 62.029C14.5632 62.4541 14.4266 62.8945 14.2899 63.3349C14.1532 63.7752 14.0166 64.2156 13.9103 64.6712C13.6825 65.5671 13.4395 66.4934 13.2269 67.4197L13.1358 67.7689L13.0599 68.1182C13.0143 68.346 12.9688 68.5889 12.9232 68.8319C12.8321 69.3027 12.741 69.7886 12.6499 70.2593C12.5588 70.7301 12.4677 71.216 12.3917 71.7019C12.331 72.1878 12.2551 72.6738 12.1943 73.1597C12.1336 73.6456 12.0728 74.1315 12.0121 74.6175C11.9817 74.8604 11.9514 75.1034 11.921 75.3464L11.8603 76.0752C11.7843 77.0623 11.7236 78.0341 11.6628 79.0212C11.6628 79.2793 11.6628 79.5375 11.6628 79.7956C11.4654 81.6786 11.344 83.5615 11.2984 85.4445C11.2073 89.7115 11.4806 93.9938 12.1336 98.2152C13.0295 103.894 14.624 109.467 16.8562 114.797C16.5373 114.22 16.2184 113.628 15.8843 113.051C15.5199 112.429 15.1554 111.791 14.791 111.168C14.4266 110.546 14.0317 109.953 13.6065 109.376C13.3636 109.042 13.1206 108.723 12.908 108.374C12.6954 108.04 12.4828 107.691 12.2703 107.342C11.8603 106.658 11.4654 105.96 11.1162 105.246C10.934 104.897 10.7821 104.532 10.6151 104.168C10.4632 103.803 10.3114 103.439 10.1747 103.074C9.90137 102.346 9.62803 101.617 9.43062 100.873C9.23322 100.129 9.06619 99.3693 8.94471 98.6101C8.82322 97.8508 8.70173 97.0915 8.67136 96.3171C8.62581 95.5426 8.62581 94.7682 8.67136 94.0089C8.68655 93.6293 8.71692 93.2345 8.74729 92.8549C8.79285 92.4601 8.85359 92.0804 8.91433 91.7008C9.02063 91.063 9.09656 90.3797 9.02063 89.7419C8.92952 89.013 8.89914 88.2841 8.85359 87.5704C8.80803 86.8415 8.77766 86.1127 8.74729 85.3989C8.71692 84.6701 8.74729 83.9563 8.73211 83.2275C8.73211 82.4986 8.73211 81.7849 8.73211 81.0712L8.82322 78.9301L8.86878 77.8671C8.86878 77.5178 8.91434 77.1534 8.94471 76.8041C9.051 75.3767 9.11174 73.9645 9.26359 72.5675C9.68878 67.4349 10.5695 62.3782 11.9514 57.4734C12.6043 55.1349 13.3788 52.8419 14.2595 50.5945C14.548 50.0478 14.8366 49.486 15.1554 48.9393L16.2488 47.0564L16.7954 46.1149C16.9777 45.796 17.1751 45.5075 17.3573 45.1886C18.1317 43.9738 18.8454 42.7286 19.6351 41.5441C22.4291 37.1404 25.618 33.0252 29.1562 29.2593C32.6943 25.4934 36.5969 22.0767 40.8184 19.1308C41.5473 18.6145 42.3977 18.0982 42.8228 17.3845C43.0354 17.0201 43.2784 16.686 43.5214 16.3671C43.7795 16.0482 44.0528 15.7597 44.3414 15.4864C44.9184 14.9245 45.541 14.4234 46.2091 13.9678C46.8773 13.5275 47.591 13.1327 48.3199 12.753C48.6843 12.5708 49.0488 12.3886 49.4132 12.2064C49.7777 12.0393 50.1573 11.8723 50.5369 11.7052C51.3417 11.356 52.1162 10.9308 52.9817 10.4601C53.8473 10.0197 54.804 9.5034 55.9429 8.95673C54.8191 8.94155 54.4243 8.83525 54.1358 8.95673C52.3743 9.64006 50.6432 10.3841 48.9121 11.1738C48.8665 11.0371 48.821 10.9004 48.7603 10.779C48.3047 10.9915 47.8643 11.2041 47.4088 11.4167L46.7406 11.7356L46.0877 12.0849C46.1484 12.2064 46.2243 12.3278 46.3003 12.4645C44.068 13.6034 41.8966 14.879 39.8162 16.276C39.7858 16.1241 39.6947 15.9115 39.6643 15.7293C39.3758 15.9115 39.0569 16.0634 38.814 16.2912C38.738 16.3671 38.8595 16.6252 38.9203 16.8834C38.6925 17.0352 38.4647 17.1871 38.2521 17.3541C33.818 20.5127 29.7029 24.1267 25.9673 28.1204C26.0584 27.999 26.1495 27.8623 26.2558 27.7408C25.2384 28.2115 24.8436 28.2875 24.631 28.5152C20.6829 32.8582 17.1143 37.6264 14.4114 42.9108C13.1966 45.2493 12.1184 47.6486 11.1466 50.1086C8.99026 54.7097 7.21359 59.5386 5.86211 64.5193C4.46507 69.6215 3.721 74.906 3.6147 80.2664C3.5084 85.6267 4.03989 91.063 5.20915 96.4082C6.37841 101.753 8.17025 107.007 10.524 112.019C12.8777 117.03 15.778 121.828 19.134 126.293C23.0821 131.532 27.744 136.269 32.9221 140.415C33.241 140.688 33.5751 140.931 33.9091 141.174L34.8962 141.918L35.8984 142.662C36.2325 142.905 36.5665 143.163 36.9158 143.391L38.981 144.803L40.0136 145.502L41.0765 146.155L41.5321 146.428C41.7903 146.793 42.0788 147.066 42.4584 146.99L43.2025 147.446C43.5062 147.643 43.8251 147.81 44.144 147.992C45.1917 148.706 46.2395 149.404 47.3328 150.073C47.3025 150.133 47.2873 150.164 47.4391 150.133C47.6517 150.255 47.8491 150.392 48.0617 150.528C49.9143 151.637 51.8277 152.669 53.7714 153.641L53.8169 153.717C54.971 154.583 55.7758 154.841 56.7477 155.084C56.8236 155.099 56.9147 155.129 57.0058 155.145C58.1295 155.63 59.2684 156.116 60.4225 156.557C60.8477 156.724 61.288 156.906 61.7436 157.043C61.8347 157.073 61.9258 157.088 62.0017 157.119C62.7002 157.817 62.7306 158.425 61.6677 158.607C62.6851 158.485 62.928 158.394 63.2317 158.394C63.5354 158.394 63.8847 158.47 65.0995 158.607C65.3425 159.077 65.0843 159.077 64.4769 159.244C65.4488 159.776 65.798 159.776 66.0865 159.7C66.3751 159.639 66.618 159.503 67.4077 159.7C67.8328 159.32 68.3188 158.774 68.744 158.485C68.7895 158.485 68.8502 158.485 68.8958 158.485C69.1388 158.485 69.3514 158.485 69.5032 158.44C69.8221 158.394 69.9436 158.288 69.8069 158.136C69.7614 158.075 69.6551 157.999 69.5184 157.923C70.141 157.939 70.7636 157.969 71.4014 158.075C72.2973 158.227 73.2084 158.409 74.1347 158.728L74.0132 159.062C74.7117 159.093 75.3951 159.169 76.0784 159.169L76.1543 159.624C77.1414 159.67 78.1284 159.761 79.1154 159.776L78.7206 159.624C79.0699 159.624 79.8139 159.609 80.6339 159.624C81.0439 159.624 81.4691 159.67 81.8791 159.7L81.8791 159.685ZM116.608 16.3367L116.38 16.2153L116.152 16.0938L115.697 15.866C115.074 15.5623 114.467 15.2434 113.844 14.9397C113.981 14.6815 114.117 14.4386 114.254 14.1804C115.484 14.8486 116.714 15.4864 117.898 16.2304C117.762 16.443 117.64 16.6404 117.504 16.853C117.2 16.686 116.911 16.519 116.608 16.3519L116.608 16.3367ZM5.90767 71.459C5.90767 71.0641 5.93804 70.6693 5.96841 70.2897C5.99878 69.8949 6.04433 69.5152 6.08988 69.1204C6.181 68.346 6.30248 67.5867 6.46951 66.8275C6.591 66.3415 6.71248 65.8708 6.84914 65.4001C6.591 66.873 6.36323 68.3612 6.19619 69.8645C6.07471 70.8364 5.9836 71.8082 5.90767 72.7801C5.90767 72.3397 5.89248 71.8993 5.90767 71.4741L5.90767 71.459ZM65.2362 22.8512C65.2362 22.8512 65.2666 22.8208 65.2817 22.8056C65.5854 22.5323 65.9347 22.259 66.2991 22.0464C66.4814 21.9401 66.6484 21.849 66.8458 21.773C66.9825 21.7427 67.104 21.7123 67.2406 21.6971C67.514 21.6364 67.7721 21.5756 68.0454 21.5149C68.334 21.4693 68.6225 21.439 68.8958 21.3934L69.6095 21.3023L69.974 21.2567C70.0954 21.2567 70.2169 21.2415 70.3384 21.2264L71.2343 21.1656C69.3969 21.6212 67.5747 22.1527 65.7677 22.7601C65.6006 22.7752 65.4184 22.8056 65.2514 22.836L65.2362 22.8512ZM17.7369 73.0838C17.7825 72.856 17.828 72.6434 17.8736 72.4156C18.071 72.279 18.2228 72.1119 18.314 71.9449C18.3595 71.8538 18.3899 71.7627 18.4203 71.6715C18.4203 71.8082 18.4203 71.9449 18.4354 72.0664L18.4051 72.2182L18.3443 72.5371L18.2228 73.1749C18.1773 73.4178 18.1317 73.676 18.0862 73.9189C18.0406 73.9189 18.0103 73.8886 17.9647 73.8734C17.8432 73.8278 17.7217 73.7975 17.6003 73.7671C17.6458 73.5393 17.6914 73.2964 17.7369 73.0686L17.7369 73.0838ZM39.2088 36.3508C38.9962 36.5634 38.7684 36.7912 38.5558 37.019L38.4951 37.0797C38.404 37.1556 38.3129 37.2467 38.2217 37.3227C37.8877 37.6112 37.5536 37.9452 37.2195 38.249C37.0525 38.4008 36.8854 38.5527 36.7032 38.6893C36.5362 38.826 36.354 38.9627 36.1717 39.0841C36.1262 39.1145 36.0806 39.1449 36.0351 39.1601C36.3236 38.8715 36.6273 38.5678 36.9158 38.2945C37.918 37.353 38.9354 36.4419 39.968 35.5764C39.7099 35.8345 39.4669 36.0927 39.2088 36.3508ZM42.8988 34.4527L42.7621 34.5741C42.7621 34.5741 42.7469 34.5741 42.7317 34.5741C42.7925 34.5286 42.838 34.483 42.8988 34.4527ZM18.9821 85.8697C18.9821 85.7634 18.9821 85.6723 18.9821 85.566C18.9821 85.0193 18.9821 84.4423 18.9821 83.8652C18.9821 83.5767 18.9821 83.2882 18.9821 82.9845C18.9821 82.8327 18.9821 82.696 18.9821 82.5441C18.9821 82.3923 18.9821 82.2404 18.9973 82.1038C19.0125 81.5115 19.0277 80.9041 19.0429 80.3119L19.0429 79.8564C19.0429 79.7045 19.0732 79.5527 19.0732 79.4008C19.0884 79.0971 19.1036 78.8086 19.1188 78.5049C19.1188 78.4441 19.1188 78.3834 19.1188 78.3378C19.3769 78.0949 19.5591 77.8367 19.7262 77.5938L19.5288 79.0515C19.468 79.4464 19.4528 79.8564 19.4073 80.2512L19.301 81.4508L19.1947 82.6504C19.1643 83.0604 19.1643 83.4552 19.1491 83.8652L19.0884 86.0064C19.058 85.9456 19.0277 85.9001 18.9973 85.8393C18.9821 85.8393 18.9669 85.8697 18.9366 85.8849L18.9821 85.8697ZM19.954 78.5352C19.9995 78.9908 20.0147 79.4312 20.0147 79.8867C20.0147 80.1145 20.0147 80.3423 20.0147 80.5549C20.0147 80.7827 20.0147 81.0104 20.0147 81.223C20.0147 81.5267 19.9843 81.8304 19.954 82.1341C19.8477 82.4682 19.7414 82.8023 19.6503 83.106C19.6806 81.466 19.7717 79.8108 19.9388 78.1708C19.9388 78.2923 19.9691 78.4138 19.9843 78.5352L19.954 78.5352ZM19.7869 73.1445C19.878 73.5241 19.8325 73.9341 19.5591 74.4049C19.4984 74.496 19.468 74.6023 19.4377 74.7086C19.4377 74.7086 19.4073 74.6934 19.3921 74.6782C19.3921 74.5264 19.4073 74.3745 19.4225 74.2227C19.4529 73.9493 19.4832 73.6912 19.5136 73.433C19.544 73.1749 19.5591 72.9167 19.5895 72.6586C19.6806 72.8256 19.7414 72.9775 19.7869 73.1445ZM19.9084 88.5878C19.954 88.7701 20.0299 88.9371 20.121 89.1193C20.121 89.3167 20.1362 89.5293 20.1514 89.7267C20.1514 90.3645 20.1514 91.0327 20.0906 91.7464C19.9084 90.243 19.7717 88.7245 19.6958 87.206C19.7717 87.6464 19.8021 88.1171 19.9236 88.5878L19.9084 88.5878ZM21.7762 70.1075C21.6851 69.8038 21.5788 69.4849 21.4573 69.1812C21.4877 69.0597 21.5332 68.9382 21.5636 68.8167C21.761 68.8167 21.928 68.8167 22.0951 68.8167C21.9888 69.2419 21.8825 69.6823 21.7762 70.1075ZM54.2117 39.4638C53.9688 39.5852 53.7258 39.7067 53.4828 39.813C53.3917 39.6612 53.3158 39.4941 53.2247 39.3423C53.5284 39.2967 53.8169 39.236 54.1206 39.1904C54.151 39.2815 54.1814 39.3727 54.2117 39.4638ZM27.9414 53.6619C28.0021 53.6315 28.078 53.6012 28.1388 53.5708C27.7136 54.3452 27.3036 55.1349 26.9088 55.9397C26.7721 56.046 26.6506 56.1523 26.5291 56.2738C26.9847 55.393 27.4554 54.5275 27.9414 53.6771L27.9414 53.6619ZM21.5484 68.8167C21.518 68.9382 21.4877 69.0445 21.4573 69.166C21.4117 69.0445 21.3662 68.923 21.3206 68.8015C21.3966 68.8015 21.4725 68.8015 21.5484 68.8167ZM19.5288 97.1978L19.7717 96.9397C19.7717 96.8789 19.7717 96.8334 19.7717 96.7726L19.5136 97.1675C19.3617 96.9397 19.2403 96.7119 19.134 96.4689C18.9517 96.0438 18.8303 95.573 18.7543 95.0871C18.7088 94.8441 18.6936 94.6012 18.6784 94.343C18.6632 94.0849 18.648 93.8267 18.6784 93.5534C18.6784 93.0067 18.5721 92.4449 18.3595 91.883C18.2532 91.6097 18.1317 91.3364 17.9799 91.0782C17.8432 90.8201 17.6762 90.5619 17.5243 90.3341C17.5243 90.3341 17.5243 90.3189 17.5091 90.3038C17.4332 89.0434 17.3877 87.783 17.3877 86.5226C17.4484 86.4164 17.5243 86.3252 17.5851 86.2189C17.7217 85.976 17.8432 85.7178 17.9495 85.4597C17.9951 85.3686 18.0103 85.2775 18.0558 85.1864C18.2532 87.1604 18.5569 89.1345 18.9669 91.0934C19.0277 90.4101 19.058 89.5901 19.0429 88.6486C19.0277 88.1778 19.0429 87.6919 19.0429 87.1756C19.0429 86.8871 19.0429 86.5986 19.0429 86.2949C19.0884 86.3252 19.1188 86.3556 19.1643 86.386L19.2099 88.7093C19.2099 89.1193 19.2099 89.5141 19.2403 89.9241L19.3314 91.1389L19.4225 92.3538C19.4529 92.7486 19.468 93.1586 19.5288 93.5534L19.7414 95.2997C19.6806 95.3149 19.6351 95.3301 19.5743 95.3452L19.7414 96.1501L19.8325 96.5449C19.8325 96.6208 19.8325 96.6967 19.8325 96.7726C19.8325 96.7575 19.8629 96.7271 19.878 96.7119L19.9388 96.9397C19.9843 97.0915 20.0147 97.2282 20.0603 97.3801L20.1362 97.8052C19.9388 97.6078 19.7565 97.4104 19.6047 97.1978L19.5288 97.1978ZM16.9473 89.3775C16.8106 89.1041 16.7195 88.8156 16.6588 88.5423C16.598 88.2386 16.598 87.9501 16.6588 87.6464C16.6891 87.5249 16.7195 87.4186 16.7651 87.2971C16.8106 87.2515 16.841 87.206 16.8714 87.1604C16.8714 87.6615 16.9017 88.1778 16.9169 88.6789C16.9169 88.9067 16.9321 89.1497 16.9473 89.3775ZM20.9866 96.9245C20.8803 96.4386 20.774 95.9527 20.6828 95.4667C20.6828 95.4515 20.7132 95.4212 20.7284 95.406L20.7588 95.3604C20.8347 95.8615 20.9258 96.3778 21.0017 96.8789C21.0017 96.8941 21.0017 96.9093 20.9866 96.9245ZM98.1425 29.396C97.9299 29.4567 97.7173 29.5175 97.5047 29.5782C97.2921 29.639 97.0795 29.7149 96.8821 29.7756C96.4721 29.8971 96.0621 30.0186 95.6521 30.0945C95.4547 30.1249 95.2573 30.1553 95.0447 30.1704C94.8473 30.2008 94.6499 30.2008 94.4373 30.2008C94.331 30.2008 94.2247 30.1856 94.1184 30.1704C93.9665 30.1249 93.8147 30.0793 93.6932 30.0186C93.3895 29.8819 93.0706 29.806 92.7517 29.7756C92.5847 29.7149 92.4177 29.6693 92.2506 29.6086C91.9165 29.5023 91.5825 29.4112 91.2332 29.3049C91.0662 29.2593 90.8991 29.2138 90.7169 29.1682L90.2006 29.0771C89.8514 29.0164 89.5173 28.9556 89.168 28.9253C88.9706 28.8949 88.7732 28.8949 88.5758 28.9253C88.3784 28.9556 88.181 28.986 87.9684 29.0467C87.5584 29.1378 87.118 29.2745 86.6321 29.3656C86.7232 29.6997 86.8295 30.0186 86.9206 30.3071C86.6777 30.2615 86.4651 30.2008 86.2828 30.1249C85.8273 29.973 85.5691 29.7908 85.6906 29.7301C83.5647 29.8819 81.621 30.869 78.7206 30.6715C78.4473 30.4438 77.8095 30.4438 76.9895 30.5349C76.1847 30.6564 75.2128 30.9145 74.2865 31.1575C73.4817 31.3853 72.6921 31.613 72.0543 31.7649C72.1606 31.5675 72.2517 31.3549 72.3732 31.1423C71.3254 30.7019 70.3384 29.8819 69.564 30.1097C69.1995 30.2008 68.8503 30.2767 68.4858 30.3223C68.1365 30.3678 67.7873 30.383 67.438 30.4134C69.3514 29.7149 71.3102 29.1075 73.2843 28.6064C74.0436 28.4241 74.818 28.2419 75.5773 28.0597C76.3517 27.923 77.1262 27.7712 77.9006 27.6345C78.6751 27.4675 79.4495 27.4067 80.2391 27.2853L81.4084 27.1334C81.6058 27.103 81.8032 27.0878 82.0006 27.0727L82.5928 27.0271C83.2306 26.936 83.8532 26.8449 84.4606 26.7386C84.7643 26.6778 85.068 26.6627 85.3717 26.6171C85.6754 26.5715 85.9639 26.5412 86.2525 26.4956C86.8447 26.4197 87.4065 26.3134 87.9684 26.2375C88.5302 26.1767 89.0769 26.1008 89.6084 26.0249C90.0336 26.116 90.5043 26.1919 91.0054 26.2678C91.5065 26.3741 92.0228 26.4653 92.5695 26.5564C92.8428 26.6019 93.1314 26.6475 93.4199 26.693C93.7084 26.7386 94.0121 26.769 94.3006 26.8297C94.908 26.936 95.5306 27.0575 96.1684 27.1638C96.4873 27.2245 96.8214 27.2701 97.1554 27.3308C97.4439 27.3915 97.7477 27.4523 98.0514 27.513C98.1425 28.1053 98.1728 28.743 98.1425 29.4264L98.1425 29.396ZM44.144 34.6804C43.9466 34.7108 43.734 34.7564 43.5366 34.8019C43.5973 34.7108 43.658 34.6045 43.7188 34.4982C44.3414 33.9667 44.9791 33.4504 45.6321 32.9341C45.8295 32.9645 46.0269 32.9949 46.2243 33.0404C45.5258 33.5719 44.8273 34.1186 44.144 34.6653L44.144 34.6804ZM25.9977 55.3778C26.1495 55.1653 26.3014 54.9678 26.4684 54.7704C26.7266 54.4819 27.0303 54.239 27.3643 54.0112C26.848 54.983 26.3317 55.9549 25.861 56.9571C25.5877 57.276 25.3295 57.6101 25.1321 57.9441C24.874 58.3845 24.6462 58.8097 24.4488 59.2501C24.3425 59.4627 24.2514 59.6904 24.1451 59.903C24.054 60.1308 23.978 60.3434 23.8869 60.5712C23.7199 60.9812 23.5832 61.4215 23.4314 61.8315C23.3554 62.0441 23.2643 62.2415 23.1884 62.4541C23.1125 62.6515 23.0062 62.849 22.8999 63.0312C22.8999 63.0312 22.8999 63.0312 22.8999 63.0464C22.991 62.7427 23.0973 62.439 23.1884 62.1352C24.0084 59.8119 24.9043 57.519 26.0128 55.3627L25.9977 55.3778ZM20.5917 102.558C20.4703 103.697 20.5462 104.335 20.6828 104.73C20.4247 104.942 20.1514 105.231 19.7262 105.626C20.7132 105.762 21.2751 105.869 21.5484 105.899C21.594 106.036 21.6091 106.203 21.594 106.446C21.5484 106.765 21.5029 107.068 21.4725 107.387C21.3662 107.387 21.2447 107.387 21.1384 107.387C21.0928 107.342 21.0625 107.296 21.0169 107.266C20.9714 107.038 20.9258 106.81 20.8954 106.597C20.8954 106.795 20.8954 106.962 20.8954 107.144C20.3488 106.552 19.9236 106.066 19.6351 105.656C19.468 105.428 19.3466 105.216 19.2706 105.003C19.1947 104.806 19.1643 104.623 19.1643 104.441C19.1795 103.864 19.6503 103.333 20.5766 102.573L20.5917 102.558ZM62.6851 23.5497C62.6547 23.5497 62.6243 23.5649 62.6091 23.5801C62.1991 23.7319 61.7588 23.9293 61.3184 24.066C61.1058 24.1419 60.878 24.1875 60.6654 24.233C60.4528 24.2786 60.2403 24.2938 60.0277 24.2786C59.9821 24.2786 59.9366 24.2786 59.891 24.2786C60.301 24.0964 60.7262 23.9141 61.1514 23.7319C61.6221 23.5345 62.0928 23.3523 62.5636 23.1701C62.594 23.3067 62.6395 23.4282 62.6851 23.5497ZM53.3917 24.7341C53.7562 24.5215 54.1206 24.3393 54.4851 24.1571C54.8495 23.9749 55.2291 23.7775 55.5936 23.5952C55.958 23.413 56.3377 23.2156 56.7021 23.0334C57.0666 22.8512 57.4462 22.6841 57.8258 22.5171C58.5699 22.183 59.314 21.8338 60.058 21.4997C59.3747 21.8186 58.7065 22.1223 58.0232 22.4412L57.0058 22.9119C56.6717 23.079 56.3377 23.2612 56.0188 23.4282C55.3658 23.7775 54.6977 24.1115 54.0447 24.4608C53.3917 24.8253 52.7691 25.2049 52.1162 25.5693C52.0403 25.6149 51.9643 25.6604 51.9036 25.6908C52.0554 25.5541 52.2225 25.4175 52.3743 25.2808C52.7084 25.0834 53.0577 24.9012 53.3917 24.7038L53.3917 24.7341ZM22.5354 114.251C22.8543 115.299 23.2643 116.194 23.6895 117.242C23.6895 117.273 23.7199 117.303 23.7351 117.333L23.5377 116.954C23.2188 116.301 22.9303 115.648 22.6266 114.98C22.2317 114.175 21.8977 113.355 21.5636 112.52C21.8825 113.097 22.2166 113.674 22.5506 114.236L22.5354 114.251ZM15.0795 101.45C15.1554 101.662 15.2466 101.875 15.3225 102.087C15.5806 102.71 15.8236 103.287 16.0666 103.849C16.188 104.122 16.3095 104.38 16.431 104.639C16.5525 104.897 16.6891 105.14 16.8106 105.367C16.9321 105.61 17.0688 105.838 17.1903 106.051L17.5699 107.296C17.6306 107.493 17.6762 107.676 17.7521 107.873L17.9495 108.435L18.3595 109.574C19.7869 113.643 21.6243 117.561 23.7503 121.312C23.6895 121.54 23.568 121.661 23.3251 121.509L24.1603 122.208C24.8588 123.726 25.5117 124.804 25.9977 125.746C26.4836 126.687 26.9391 127.401 27.3491 128.16C27.6073 128.631 27.8654 129.132 28.154 129.664C26.8328 127.978 25.6028 126.262 24.464 124.486C22.2469 121.023 20.3336 117.364 18.7391 113.324L19.2403 114.57C19.4073 114.98 19.6047 115.39 19.7717 115.8C20.1362 116.604 20.5006 117.424 20.8803 118.229L22.0951 120.613L22.3988 121.206C22.5051 121.403 22.6266 121.6 22.7328 121.783L23.401 122.937L23.9628 123.909C22.8088 121.995 21.7154 120.006 20.7132 117.941C18.6784 113.75 17.0232 109.27 15.8236 104.639C15.5503 103.591 15.3073 102.528 15.0795 101.45Z" fill="#041E42"/>
<path d="M97.4581 6.10229C97.6099 6.02636 97.7466 5.96562 97.8984 5.90488C97.8225 5.84414 97.7466 5.7834 97.6707 5.72266C97.5795 5.75303 97.4429 5.76821 97.3973 5.84414C97.367 5.90488 97.4277 6.01117 97.4581 6.11747L97.4581 6.10229Z" fill="#041E42"/>
<path d="M81.8003 4.16078C82.0433 4.16078 82.2863 4.17596 82.5292 4.19115C83.0152 4.20633 83.4859 4.2367 83.9718 4.25189C84.0022 4.00892 84.0326 3.76596 84.0781 3.523C83.577 3.523 83.0759 3.523 82.5748 3.50781L81.8155 3.50781L81.0715 3.523C81.0715 3.73559 81.0715 3.94818 81.0715 4.16078C81.3144 4.16078 81.5574 4.16078 81.8003 4.16078Z" fill="#041E42"/>
<path d="M66.4488 5.19141C65.811 5.35844 65.1733 5.5103 64.5355 5.67733C64.581 5.85955 64.6418 6.04178 64.6873 6.224C65.3099 6.07215 65.9477 5.90511 66.5703 5.75326C66.5248 5.57104 66.4792 5.37363 66.4336 5.19141L66.4488 5.19141Z" fill="#041E42"/>
<path d="M73.6016 3.97612C73.2523 4.00649 72.903 4.00649 72.5842 4.11279C72.4779 4.14316 72.4627 4.46205 72.3867 4.7202C72.7512 4.7202 73.1156 4.78094 73.389 4.65946C73.5256 4.59872 73.5408 4.2039 73.6016 3.96094L73.6016 3.97612Z" fill="#041E42"/>
<path d="M24.3682 37.233C24.4442 37.2786 24.5201 37.3241 24.6112 37.3697L25.826 35.5323L26.4486 34.6212C26.6612 34.3175 26.889 34.0289 27.1016 33.7252C26.9953 33.7101 26.9042 33.6949 26.7979 33.6797C26.5853 33.9682 26.3727 34.2567 26.1753 34.5452L25.5679 35.4412C25.173 36.0334 24.7782 36.6408 24.3682 37.233Z" fill="#041E42"/>
<path d="M154.482 45.3588C154.634 45.298 154.786 45.2525 154.937 45.1917C154.649 44.6906 154.345 44.2047 154.057 43.7187C153.95 43.7795 153.829 43.8402 153.723 43.901C153.981 44.3869 154.239 44.8728 154.482 45.3588Z" fill="#041E42"/>
<path d="M157.396 54.3916L157.563 54.8623L157.699 55.333L157.988 56.2745C158.109 56.2441 158.246 56.1986 158.383 56.1682L158.185 55.1812L158.079 54.6953L157.958 54.2093C157.791 53.5564 157.624 52.9186 157.441 52.2656C157.214 52.3567 156.986 52.4478 156.758 52.539C156.971 53.1615 157.198 53.7841 157.411 54.3916L157.396 54.3916Z" fill="#041E42"/>
<path d="M138.198 24.2176L138.562 24.5668L138.911 24.9313L139.61 25.645C139.701 25.5539 139.807 25.4628 139.898 25.3717L139.245 24.582L138.927 24.1872L138.593 23.8076C138.137 23.3065 137.681 22.8054 137.211 22.2891C137.044 22.4713 136.892 22.6535 136.74 22.8357C137.226 23.2913 137.712 23.7468 138.198 24.2024L138.198 24.2176Z" fill="#041E42"/>
<path d="M145.198 34.0318C145.501 34.5936 145.82 35.1707 146.154 35.7781C146.473 36.3855 146.792 37.0081 147.126 37.6459C147.293 37.9647 147.46 38.2836 147.627 38.6025C147.718 38.7696 147.794 38.9214 147.885 39.0884C147.961 39.2555 148.052 39.4225 148.128 39.5896C148.447 40.2577 148.781 40.9107 149.115 41.5788L149.358 42.0799C149.434 42.247 149.51 42.414 149.586 42.581C149.738 42.9151 149.89 43.2492 150.042 43.5833C150.194 43.9173 150.345 44.2514 150.512 44.5855C150.664 44.9196 150.831 45.2384 150.968 45.5725C151.241 46.2407 151.53 46.8784 151.803 47.5162C151.94 47.8351 152.076 48.1388 152.213 48.4425C152.335 48.7462 152.456 49.0499 152.578 49.3536C152.821 49.9459 153.064 50.5229 153.291 51.0544C154.172 53.2259 154.916 54.9114 155.463 55.6707C156.025 55.124 156.495 54.6229 156.647 54.0459C156.784 53.484 156.586 52.8462 155.842 52.087C155.569 51.7984 155.326 51.4796 155.098 51.1455C154.871 50.8114 154.643 50.4622 154.461 50.0977C154.066 49.3688 153.747 48.5944 153.458 47.8503C153.139 47.1214 152.836 46.3925 152.547 45.6636C152.395 45.2992 152.259 44.9196 152.107 44.5551L151.636 43.4618C151.317 42.7329 151.014 42.004 150.664 41.2903C150.315 40.5766 149.951 39.8781 149.571 39.1796C147.703 35.8388 145.456 32.7107 143.011 29.7344C143.345 30.5088 143.785 31.4351 144.347 32.4373C144.636 32.9384 144.909 33.4851 145.198 34.047L145.198 34.0318Z" fill="#041E42"/>
<path d="M131.338 17.4474C131.444 17.3259 131.566 17.2197 131.672 17.0982C131.186 16.7793 130.685 16.4756 130.184 16.1719C130.108 16.2782 130.047 16.3845 129.971 16.4908C130.427 16.8097 130.897 17.1285 131.338 17.4626L131.338 17.4474Z" fill="#041E42"/>
<path d="M33.8782 19.8164C33.3771 20.2416 32.8912 20.6516 32.4052 21.0768C32.5419 21.2134 32.6786 21.3653 32.8 21.502C33.286 21.092 33.7719 20.6668 34.2578 20.2568C34.1363 20.1049 33.9997 19.9683 33.8782 19.8164Z" fill="#041E42"/>
<path d="M11.6881 64.5378C11.6122 65.2363 11.5363 65.95 11.4755 66.6485C11.5667 66.6485 11.6578 66.6485 11.7489 66.6637L11.9767 64.4922L12.0981 63.4141C12.1437 63.0496 12.2044 62.7004 12.25 62.3359C12.1437 62.3663 12.0526 62.3967 11.9615 62.427C11.9159 62.7763 11.84 63.1256 11.8096 63.4748L11.6881 64.5226L11.6881 64.5378Z" fill="#041E42"/>
<path d="M84.0009 29.6746C84.0009 29.462 84.0161 29.2646 84.0312 29.052C83.6668 28.9761 83.2872 28.9001 82.9227 28.8242C82.9227 29.0216 82.9227 29.2342 82.9227 29.4316C83.2872 29.5076 83.6516 29.5987 84.0161 29.6746L84.0009 29.6746Z" fill="#041E42"/>
<path d="M61.9537 6.75781C61.8929 6.83374 61.7714 6.89448 61.7714 6.97041C61.7714 7.03115 61.8929 7.10707 61.9537 7.183C62.06 7.06152 62.1511 6.94003 62.2422 6.81855C62.1511 6.80337 62.0448 6.773 61.9537 6.75781Z" fill="#041E42"/>
</svg>
