<svg width="667" height="520" viewBox="0 0 667 520" fill="none" xmlns="http://www.w3.org/2000/svg">
<g style="mix-blend-mode:multiply" opacity="0.05">
<path d="M340.62 507.482C403.509 507.482 454.491 493.794 454.491 476.908C454.491 460.022 403.509 446.334 340.62 446.334C277.731 446.334 226.75 460.022 226.75 476.908C226.75 493.794 277.731 507.482 340.62 507.482Z" fill="#041E42"/>
</g>
<path d="M353.723 222.445H327.578V234.964H353.723V222.445Z" fill="#FAB78D"/>
<path d="M353.723 226.153V222.445H327.578V230.053C337.834 230.871 346.597 229.138 353.723 226.153Z" fill="#E59C81"/>
<path d="M327.19 464.822H308.845L304.656 392.07H331.378L327.19 464.822Z" fill="#F1B092"/>
<path d="M327.19 464.822H308.845L304.656 392.07H331.378L327.19 464.822Z" fill="#F7B68D"/>
<g style="mix-blend-mode:multiply" opacity="0.5">
<path d="M304.656 392.07V397.415H324.204L320.016 464.822H327.19L331.378 392.07H304.656Z" fill="#F1B092"/>
</g>
<path d="M327.962 466.17L328.877 439.93H307.451V466.17C307.451 466.17 303.936 476.233 314.769 477.293C314.769 477.293 328.395 479.893 327.914 466.17H327.962Z" fill="white"/>
<path d="M319.63 456.877H315.393C310.915 456.781 309.278 460.199 309.278 460.199C306.919 460.633 306.1 462.944 306.1 462.944L299.504 477.34C299.504 477.34 295.219 490.918 318.185 489.762C318.185 489.762 330.271 489.81 329.837 476.377L328.682 462.944C328.489 461.307 328.682 461.066 326.322 460.44C325.215 456.877 319.678 456.877 319.678 456.877H319.63Z" fill="#0F4767"/>
<path d="M318.287 485.573C305.239 486.247 300.713 482.299 299.269 478.591C298.884 481.962 299.606 490.677 318.191 489.762C318.191 489.762 329.891 489.762 329.843 476.906C327.484 485.573 318.335 485.573 318.335 485.573H318.287Z" fill="white"/>
<g style="mix-blend-mode:multiply">
<path d="M306.157 472.813C304.376 477.628 314.006 477.965 314.006 477.965C322.817 478.447 323.346 474.595 323.346 474.595L326.283 460.487C325.176 456.924 319.639 456.924 319.639 456.924H315.402C310.924 456.78 309.287 460.247 309.287 460.247L306.157 472.861V472.813Z" fill="#BBBDBF"/>
</g>
<path d="M318.287 485.573C305.239 486.247 300.713 482.299 299.269 478.591C298.884 481.962 299.606 490.677 318.191 489.762C318.191 489.762 329.891 489.762 329.843 476.906C327.484 485.621 318.335 485.573 318.335 485.573H318.287Z" fill="white"/>
<g style="mix-blend-mode:multiply">
<path d="M309.712 463.811C309.712 464.389 309.231 464.87 308.653 464.87C308.075 464.87 307.594 464.389 307.594 463.811C307.594 463.233 308.075 462.752 308.653 462.752C309.231 462.752 309.712 463.233 309.712 463.811Z" fill="#BBBDBF"/>
</g>
<g style="mix-blend-mode:multiply">
<path d="M308.65 467.421C308.65 467.998 308.168 468.48 307.591 468.48C307.013 468.48 306.531 467.998 306.531 467.421C306.531 466.843 307.013 466.361 307.591 466.361C308.168 466.361 308.65 466.843 308.65 467.421Z" fill="#BBBDBF"/>
</g>
<g style="mix-blend-mode:multiply">
<path d="M307.689 471.561C307.689 472.139 307.207 472.62 306.63 472.62C306.052 472.62 305.57 472.139 305.57 471.561C305.57 470.983 306.052 470.502 306.63 470.502C307.207 470.502 307.689 470.983 307.689 471.561Z" fill="#BBBDBF"/>
</g>
<g style="mix-blend-mode:multiply">
<path d="M326.517 463.811C326.517 464.389 326.035 464.87 325.458 464.87C324.88 464.87 324.398 464.389 324.398 463.811C324.398 463.233 324.88 462.752 325.458 462.752C326.035 462.752 326.517 463.233 326.517 463.811Z" fill="#BBBDBF"/>
</g>
<g style="mix-blend-mode:multiply">
<path d="M325.986 467.421C325.986 467.998 325.504 468.48 324.926 468.48C324.349 468.48 323.867 467.998 323.867 467.421C323.867 466.843 324.349 466.361 324.926 466.361C325.504 466.361 325.986 466.843 325.986 467.421Z" fill="#BBBDBF"/>
</g>
<g style="mix-blend-mode:multiply">
<path d="M324.931 472.188C324.931 472.766 324.45 473.247 323.872 473.247C323.294 473.247 322.812 472.766 322.812 472.188C322.812 471.61 323.294 471.129 323.872 471.129C324.45 471.129 324.931 471.61 324.931 472.188Z" fill="#BBBDBF"/>
</g>
<path d="M307.692 468.095C307.5 468.095 307.307 467.999 307.163 467.806C306.97 467.518 307.066 467.132 307.355 466.94C312.507 463.473 324.4 463.088 324.929 463.088C325.266 463.088 325.555 463.377 325.555 463.714C325.555 464.051 325.315 464.34 324.929 464.34C324.833 464.34 312.892 464.725 308.029 467.999C307.933 468.047 307.789 468.095 307.692 468.095Z" fill="#BDBFC1"/>
<path d="M306.63 472.188C306.437 472.188 306.245 472.091 306.1 471.899C305.908 471.61 306.004 471.225 306.293 471.032C311.445 467.565 323.722 466.843 324.252 466.795C324.589 466.795 324.878 467.036 324.926 467.421C324.926 467.758 324.685 468.047 324.348 468.095C324.204 468.095 311.878 468.865 307.015 472.091C306.919 472.139 306.774 472.188 306.678 472.188H306.63Z" fill="#BDBFC1"/>
<path d="M308.651 464.436C308.362 464.436 308.121 464.243 308.025 464.002C307.928 463.665 308.121 463.328 308.458 463.232C316.884 460.68 325.262 463.136 325.599 463.232C325.936 463.328 326.128 463.665 326.032 464.002C325.936 464.339 325.599 464.532 325.262 464.436C325.166 464.436 316.884 462.028 308.843 464.436C308.795 464.436 308.699 464.436 308.651 464.436Z" fill="white"/>
<path d="M324.248 468.096C324.104 468.096 324.008 468.096 323.911 468C319.048 464.726 309.082 464.34 308.985 464.34C308.648 464.34 308.359 464.052 308.359 463.715C308.359 463.377 308.648 463.04 309.033 463.089C309.467 463.089 319.482 463.474 324.633 466.94C324.922 467.133 325.019 467.518 324.826 467.807C324.73 468 324.489 468.096 324.296 468.096H324.248Z" fill="#DDDFE0"/>
<path d="M323.143 472.188C322.998 472.188 322.902 472.188 322.806 472.091C317.943 468.817 307.976 468.095 307.88 468.095C307.543 468.095 307.254 467.758 307.302 467.421C307.35 467.084 307.591 466.795 307.976 466.843C308.41 466.843 318.376 467.614 323.528 471.08C323.817 471.273 323.913 471.658 323.721 471.947C323.624 472.139 323.384 472.236 323.191 472.236L323.143 472.188Z" fill="#DDDFE0"/>
<path d="M307.69 468.143C307.401 468.143 307.16 467.95 307.064 467.709C306.968 467.372 307.16 467.035 307.497 466.939C315.923 464.387 324.301 466.843 324.638 466.939C324.975 467.035 325.168 467.372 325.071 467.709C324.975 468.046 324.638 468.239 324.301 468.143C324.205 468.143 315.923 465.735 307.882 468.143C307.834 468.143 307.738 468.143 307.69 468.143Z" fill="white"/>
<path d="M323.391 472.477C323.342 472.477 323.246 472.477 323.198 472.477C323.102 472.477 314.868 469.877 306.78 472.188C306.442 472.284 306.105 472.092 306.009 471.755C305.913 471.417 306.105 471.08 306.443 470.984C314.917 468.625 323.246 471.177 323.583 471.273C323.92 471.369 324.113 471.755 324.017 472.043C323.92 472.332 323.68 472.477 323.391 472.477Z" fill="white"/>
<path d="M316.55 463.281C316.406 463.281 316.213 463.233 316.117 463.088L315.924 462.847C314.384 461.21 313.035 459.525 313.372 458.273C313.469 457.936 313.758 457.503 314.48 457.31C315.25 457.118 315.78 457.31 316.261 457.84C316.647 458.273 316.935 458.851 317.08 459.477C317.802 458.177 318.91 457.021 319.921 457.021C320.932 457.021 320.739 457.118 321.124 457.647C321.269 457.744 321.51 458.177 321.461 458.755C321.365 460.055 319.872 461.499 316.887 463.184C316.791 463.233 316.695 463.281 316.598 463.281H316.55ZM319.872 458.225C319.15 458.225 317.85 460.103 317.417 461.451C319.728 459.959 320.113 459.092 320.209 458.755C320.209 458.562 320.209 458.514 320.209 458.514C320.017 458.273 319.921 458.273 319.921 458.273L319.872 458.225ZM314.913 458.418C314.865 458.418 314.817 458.418 314.721 458.418C314.624 458.418 314.528 458.514 314.48 458.562C314.432 458.755 314.48 459.381 316.069 461.21C316.021 460.247 315.78 459.092 315.298 458.562C315.106 458.37 314.961 458.37 314.865 458.37L314.913 458.418Z" fill="white"/>
<g style="mix-blend-mode:soft-light">
<path d="M304.656 470.744C304.656 470.744 304.463 472.429 303.837 474.933C303.741 475.222 303.693 475.559 303.597 475.896C303.5 476.233 303.404 476.618 303.404 476.811C303.404 477.389 303.5 477.966 303.837 478.448C303.934 478.737 304.223 478.881 304.415 479.122L305.234 479.652C305.908 479.989 306.63 480.277 307.4 480.566C308.171 480.807 308.941 481.096 309.711 481.289C310.482 481.433 311.252 481.722 311.974 481.818C312.745 481.915 313.467 482.107 314.141 482.203C314.863 482.252 315.489 482.348 316.115 482.396C317.367 482.589 318.378 482.492 319.148 482.54C319.919 482.54 320.304 482.637 320.304 482.637C320.304 482.637 319.919 482.781 319.197 482.974C318.86 483.07 318.378 483.214 317.897 483.311C317.367 483.455 316.789 483.552 316.163 483.6C315.537 483.648 314.815 483.744 314.045 483.792C313.274 483.792 312.504 483.744 311.686 483.648C310.048 483.503 308.363 483.07 306.678 482.54C305.86 482.203 305.041 481.866 304.271 481.433C303.837 481.192 303.452 480.855 303.067 480.566C302.778 480.133 302.345 479.844 302.2 479.315C301.719 478.4 301.671 477.389 301.863 476.522C301.96 475.992 302.152 475.752 302.297 475.415C302.441 475.126 302.586 474.789 302.73 474.5C303.789 472.189 304.656 470.744 304.656 470.744Z" fill="white"/>
</g>
<path d="M354.298 464.822H372.643L376.832 392.07H350.109L354.298 464.822Z" fill="#F1B092"/>
<path d="M354.298 464.822H372.643L376.832 392.07H350.109L354.298 464.822Z" fill="#F7B68D"/>
<g style="mix-blend-mode:multiply" opacity="0.5">
<path d="M376.832 392.07V397.415H357.283L361.472 464.822H354.298L350.109 392.07H376.832Z" fill="#F1B092"/>
</g>
<path d="M353.626 466.17L352.711 439.93H374.137V466.17C374.137 466.17 377.652 476.233 366.77 477.293C366.77 477.293 353.144 479.893 353.578 466.17H353.626Z" fill="white"/>
<path d="M355.745 460.489C353.386 461.115 353.578 461.355 353.386 462.992L352.23 476.426C351.797 489.859 363.882 489.811 363.882 489.811C386.801 490.967 382.563 477.389 382.563 477.389L375.967 462.992C375.967 462.992 375.149 460.73 372.789 460.248C372.789 460.248 371.201 456.83 366.675 456.926H362.438C362.438 456.926 356.901 456.926 355.793 460.489H355.745Z" fill="#0F4767"/>
<path d="M363.735 485.575C376.784 486.249 381.309 482.301 382.754 478.593C383.139 481.964 382.417 490.679 363.832 489.764C363.832 489.764 352.132 489.764 352.18 476.908C354.539 485.575 363.687 485.575 363.687 485.575H363.735Z" fill="white"/>
<g style="mix-blend-mode:multiply">
<path d="M372.739 460.199C372.739 460.199 371.15 456.781 366.624 456.877H362.387C362.387 456.877 356.85 456.877 355.742 460.44L358.679 474.547C358.679 474.547 359.209 478.351 368.02 477.918C368.02 477.918 377.65 477.581 375.868 472.766L372.739 460.151V460.199Z" fill="#BBBDBF"/>
</g>
<path d="M363.735 485.573C376.784 486.247 381.309 482.299 382.754 478.591C383.139 481.962 382.417 490.677 363.832 489.762C363.832 489.762 352.132 489.762 352.18 476.906C354.539 485.621 363.687 485.573 363.687 485.573H363.735Z" fill="white"/>
<g style="mix-blend-mode:multiply">
<path d="M373.364 464.87C373.949 464.87 374.423 464.396 374.423 463.811C374.423 463.226 373.949 462.752 373.364 462.752C372.779 462.752 372.305 463.226 372.305 463.811C372.305 464.396 372.779 464.87 373.364 464.87Z" fill="#BBBDBF"/>
</g>
<g style="mix-blend-mode:multiply">
<path d="M373.359 467.421C373.359 467.998 373.841 468.48 374.419 468.48C374.996 468.48 375.478 467.998 375.478 467.421C375.478 466.843 374.996 466.361 374.419 466.361C373.841 466.361 373.359 466.843 373.359 467.421Z" fill="#BBBDBF"/>
</g>
<g style="mix-blend-mode:multiply">
<path d="M374.328 471.561C374.328 472.139 374.81 472.62 375.387 472.62C375.965 472.62 376.447 472.139 376.447 471.561C376.447 470.983 375.965 470.502 375.387 470.502C374.81 470.502 374.328 470.983 374.328 471.561Z" fill="#BBBDBF"/>
</g>
<g style="mix-blend-mode:multiply">
<path d="M355.5 463.811C355.5 464.389 355.981 464.87 356.559 464.87C357.137 464.87 357.619 464.389 357.619 463.811C357.619 463.233 357.137 462.752 356.559 462.752C355.981 462.752 355.5 463.233 355.5 463.811Z" fill="#BBBDBF"/>
</g>
<g style="mix-blend-mode:multiply">
<path d="M356.031 467.421C356.031 467.998 356.513 468.48 357.091 468.48C357.668 468.48 358.15 467.998 358.15 467.421C358.15 466.843 357.668 466.361 357.091 466.361C356.513 466.361 356.031 466.843 356.031 467.421Z" fill="#BBBDBF"/>
</g>
<g style="mix-blend-mode:multiply">
<path d="M357.094 472.188C357.094 472.766 357.575 473.247 358.153 473.247C358.731 473.247 359.212 472.766 359.212 472.188C359.212 471.61 358.731 471.129 358.153 471.129C357.575 471.129 357.094 471.61 357.094 472.188Z" fill="#BBBDBF"/>
</g>
<path d="M374.332 468.095C374.524 468.095 374.717 467.999 374.861 467.806C375.054 467.518 374.958 467.132 374.669 466.94C369.517 463.473 357.624 463.088 357.095 463.088C356.758 463.088 356.469 463.377 356.469 463.714C356.469 464.051 356.758 464.34 357.095 464.34C357.239 464.34 369.132 464.725 373.995 467.999C374.091 468.047 374.235 468.095 374.332 468.095Z" fill="#BDBFC1"/>
<path d="M375.39 472.188C375.583 472.188 375.775 472.091 375.92 471.899C376.112 471.61 376.016 471.225 375.727 471.032C370.575 467.565 358.297 466.843 357.768 466.795C357.431 466.795 357.142 467.036 357.094 467.421C357.094 467.758 357.334 468.047 357.672 468.095C357.816 468.095 370.142 468.865 375.005 472.091C375.101 472.139 375.246 472.188 375.342 472.188H375.39Z" fill="#BDBFC1"/>
<path d="M373.359 464.436C373.648 464.436 373.889 464.243 373.985 464.002C374.082 463.665 373.889 463.328 373.552 463.232C365.126 460.68 356.748 463.136 356.411 463.232C356.074 463.328 355.882 463.665 355.978 464.002C356.074 464.339 356.411 464.532 356.748 464.436C356.845 464.436 365.126 462.028 373.167 464.436C373.215 464.436 373.263 464.436 373.359 464.436Z" fill="white"/>
<path d="M357.764 468.096C357.908 468.096 358.005 468.096 358.101 468C362.964 464.726 372.931 464.34 373.027 464.34C373.364 464.34 373.653 464.052 373.653 463.715C373.653 463.377 373.364 463.04 372.979 463.089C372.545 463.089 362.531 463.474 357.379 466.94C357.09 467.133 356.994 467.518 357.186 467.807C357.331 468 357.523 468.096 357.716 468.096H357.764Z" fill="#DDDFE0"/>
<path d="M358.819 472.188C358.963 472.188 359.059 472.188 359.156 472.091C364.019 468.817 373.985 468.095 374.082 468.095C374.419 468.095 374.708 467.758 374.659 467.421C374.659 467.084 374.37 466.795 373.985 466.843C373.552 466.843 363.585 467.614 358.433 471.08C358.145 471.273 358.048 471.658 358.241 471.947C358.385 472.139 358.578 472.236 358.77 472.236L358.819 472.188Z" fill="#DDDFE0"/>
<path d="M374.328 468.143C374.617 468.143 374.858 467.95 374.954 467.709C375.05 467.372 374.858 467.035 374.521 466.939C366.095 464.387 357.717 466.843 357.38 466.939C357.043 467.035 356.85 467.372 356.947 467.709C357.043 468.046 357.38 468.239 357.717 468.143C357.813 468.143 366.095 465.735 374.136 468.143C374.184 468.143 374.28 468.143 374.328 468.143Z" fill="white"/>
<path d="M358.588 472.477C358.636 472.477 358.733 472.477 358.781 472.477C358.877 472.477 367.11 469.877 375.199 472.188C375.536 472.284 375.873 472.092 375.97 471.755C376.066 471.417 375.873 471.08 375.536 470.984C367.062 468.625 358.733 471.177 358.396 471.273C358.059 471.369 357.866 471.755 357.962 472.043C358.059 472.332 358.299 472.477 358.588 472.477Z" fill="white"/>
<path d="M365.174 463.184C362.189 461.499 360.696 460.055 360.6 458.755C360.552 458.177 360.793 457.744 360.937 457.647C361.322 457.118 361.804 457.021 362.141 457.021C363.152 457.021 364.259 458.177 364.981 459.477C365.126 458.851 365.415 458.273 365.8 457.84C366.281 457.359 366.811 457.118 367.581 457.31C368.304 457.503 368.593 457.936 368.689 458.273C369.026 459.525 367.678 461.21 366.137 462.847L365.944 463.088C365.848 463.233 365.656 463.281 365.511 463.281C365.367 463.281 365.319 463.281 365.222 463.184H365.174ZM361.852 458.466C361.852 458.466 361.804 458.562 361.852 458.707C361.9 459.044 362.333 459.959 364.644 461.403C364.211 460.103 362.911 458.177 362.189 458.177C361.467 458.177 362.093 458.177 361.9 458.418L361.852 458.466ZM366.667 458.659C366.185 459.14 365.944 460.344 365.896 461.307C367.485 459.477 367.533 458.851 367.485 458.659C367.485 458.562 367.341 458.514 367.244 458.514C367.196 458.514 367.1 458.514 367.052 458.514C366.956 458.514 366.811 458.514 366.619 458.707L366.667 458.659Z" fill="white"/>
<g style="mix-blend-mode:soft-light">
<path d="M377.319 470.744C377.319 470.744 377.511 472.429 378.137 474.933C378.234 475.222 378.282 475.559 378.378 475.896C378.474 476.233 378.571 476.618 378.571 476.811C378.571 477.389 378.474 477.966 378.137 478.448C378.041 478.737 377.752 478.881 377.56 479.122L376.741 479.652C376.067 479.989 375.345 480.277 374.574 480.566C373.804 480.807 373.082 481.096 372.311 481.289C371.541 481.433 370.771 481.722 370.048 481.818C369.278 481.915 368.556 482.107 367.882 482.203C367.159 482.252 366.534 482.348 365.908 482.396C364.656 482.589 363.645 482.492 362.874 482.54C362.104 482.54 361.719 482.637 361.719 482.637C361.719 482.637 362.104 482.781 362.826 482.974C363.211 483.07 363.645 483.214 364.126 483.311C364.656 483.455 365.234 483.552 365.859 483.6C366.485 483.648 367.208 483.744 367.93 483.792C368.7 483.792 369.471 483.744 370.289 483.648C371.926 483.503 373.611 483.07 375.297 482.54C376.115 482.203 376.934 481.866 377.704 481.433C378.137 481.192 378.522 480.855 378.908 480.566C379.197 480.133 379.63 479.844 379.774 479.315C380.256 478.4 380.304 477.389 380.111 476.522C380.015 475.992 379.822 475.752 379.678 475.415C379.534 475.126 379.389 474.789 379.245 474.5C378.185 472.189 377.319 470.744 377.319 470.744Z" fill="white"/>
</g>
<path d="M344.618 379.263V404.108C362.385 412.533 383.088 404.108 383.088 404.108V332.752H298.203V404.108C298.203 404.108 318.907 412.533 336.673 404.108V379.263H344.618Z" fill="#5BC2E7"/>
<g style="mix-blend-mode:multiply">
<path d="M360.123 371.271C353.094 380.805 347.509 381.623 348.183 405.601C346.401 405.072 346.401 404.975 344.668 404.157V379.312H336.723V404.157C335.52 404.734 334.316 405.216 333.112 405.649C334.22 393.66 331.427 378.157 322.664 371.32C322.664 371.32 338.986 379.216 360.171 371.32" fill="#7CD4F3"/>
</g>
<g style="mix-blend-mode:multiply">
<path d="M371.195 332.801C375.962 349.171 378.369 364.386 377.936 381.864C377.743 389.519 379.188 398.908 374.181 405.408C373.747 405.938 373.314 406.419 372.88 406.949C378.995 405.842 383.088 404.204 383.088 404.204V332.849H371.195V332.801Z" fill="#7CD4F3"/>
</g>
<g style="mix-blend-mode:multiply">
<path d="M306.581 404.012C301.959 399.63 303.885 387.064 303.885 381.671C303.74 365.349 303.066 346.571 313.081 332.801H298.203V404.156C298.203 404.156 303.548 406.323 311.107 407.334C309.422 406.371 307.881 405.264 306.581 404.012Z" fill="#7CD4F3"/>
</g>
<path d="M289.92 346.522C289.92 346.522 280.531 306.703 306.916 265.296C306.916 265.296 304.124 258.459 298.202 260.144C298.202 260.144 262.524 300.829 280.194 348.737C280.194 348.737 286.068 356.681 289.872 346.522H289.92Z" fill="#F7B68D"/>
<path d="M281.158 368.669C276.633 362.217 276.151 355.862 276.151 355.862C276.151 355.862 275.236 349.121 278.462 345.943C278.462 345.943 283.277 339.732 289.777 343.632C291.414 344.643 292.184 346.714 293.099 348.303C293.147 348.399 293.244 348.543 293.292 348.64C294.351 350.469 295.555 352.251 297.144 353.647C299.888 356.006 298.01 358.028 298.01 358.028C297.144 359.04 295.651 358.943 294.736 358.028C293.581 356.969 292.521 355.814 291.366 354.754C289.392 353.454 289.392 355.236 289.392 355.236C291.029 359.954 294.158 365.347 294.158 365.347C294.881 367.465 293.292 368.284 293.292 368.284C293.292 368.284 291.992 369.68 288.958 365.154C288.958 365.154 286.31 360.966 285.203 356.488C285.444 359.425 288.814 365.925 288.814 365.925C291.029 368.573 288.525 369.68 288.525 369.68C285.492 370.451 283.421 364.432 283.421 364.432C281.447 359.184 280.436 357.065 280.436 357.065L283.614 365.588C283.614 365.588 285.203 368.38 283.758 369.199C283.758 369.199 282.651 370.162 281.158 368.621V368.669Z" fill="#F7B68D"/>
<path d="M390.215 346.523C390.215 346.523 399.604 306.705 373.219 265.297C373.219 265.297 376.011 258.46 381.934 260.194C381.934 260.194 417.611 300.831 399.941 348.786C399.941 348.786 394.019 356.731 390.263 346.571L390.215 346.523Z" fill="#F7B68D"/>
<path d="M398.974 368.671C403.5 362.219 403.981 355.864 403.981 355.864C403.981 355.864 404.896 349.123 401.67 345.945C401.67 345.945 396.855 339.734 390.355 343.634C388.718 344.645 387.948 346.716 387.033 348.304C386.985 348.401 386.937 348.497 386.841 348.642C385.781 350.471 384.578 352.253 382.989 353.649C380.293 356.008 382.122 358.03 382.122 358.03C382.989 359.042 384.481 358.945 385.444 358.03C386.552 356.971 387.659 355.816 388.767 354.708C390.741 353.408 390.741 355.19 390.741 355.19C389.104 359.908 385.974 365.301 385.974 365.301C385.252 367.419 386.841 368.238 386.841 368.238C386.841 368.238 388.141 369.634 391.174 365.108C391.174 365.108 393.822 360.919 394.93 356.442C394.689 359.379 391.318 365.879 391.318 365.879C389.104 368.527 391.607 369.634 391.607 369.634C394.641 370.404 396.711 364.386 396.711 364.386C398.685 359.138 399.648 357.019 399.648 357.019L396.47 365.542C396.47 365.542 394.881 368.334 396.326 369.153C396.326 369.153 397.433 370.116 398.926 368.575L398.974 368.671Z" fill="#F7B68D"/>
<path d="M276.679 36.8821C276.679 36.8821 266.472 44.2488 283.324 52.2895L274.898 59.3192C274.898 59.3192 268.302 46.1747 258.672 51.2784C258.672 51.2784 260.502 43.9599 268.302 46.1747C268.302 46.1747 265.557 36.9784 276.679 36.834V36.8821Z" fill="#212121"/>
<path d="M427.432 149.405C427.432 191.92 388.48 226.394 340.38 226.394C292.28 226.394 253.328 191.92 253.328 149.405C253.328 106.89 292.28 72.416 340.38 72.416C388.48 72.416 427.432 106.89 427.432 149.405Z" fill="#F7B68D"/>
<path d="M242.453 164.811C242.886 171.792 247.749 177.136 253.335 176.799C258.92 176.462 263.109 170.54 262.675 163.559C262.242 156.577 257.379 151.233 251.794 151.57C246.209 151.907 242.068 157.829 242.501 164.811H242.453Z" fill="#F7B68D"/>
<path d="M247.407 155.471C247.985 155.086 249.141 154.893 249.863 154.845C253.57 154.749 256.218 161.056 252.511 161.971C251.067 163.367 252.415 165.149 252.415 165.149C253.618 166.689 255.207 168.904 254.726 170.974C254.437 172.226 253.137 172.852 251.981 173.093C251.067 173.286 250.922 172.515 251.644 172.178C252.222 171.937 252.704 171.504 253.089 171.023C253.089 170.926 253.185 170.878 253.233 170.83C253.233 170.782 253.281 170.734 253.33 170.686C253.474 170.397 253.474 170.06 253.426 169.771C252.559 170.349 251.163 170.445 250.585 169.578C249.959 168.663 250.537 167.219 250.344 166.208C250.2 165.486 249.911 164.763 249.574 164.089C248.033 160.96 251.115 160.574 251.115 160.574C251.596 160.574 251.933 160.671 252.222 160.719C253.811 159.9 252.222 157.349 251.259 156.915C250.2 156.386 248.852 156.482 248.033 157.349C247.215 158.215 246.83 159.66 246.83 160.815C246.83 162.26 247.118 163.752 247.648 165.1C247.937 165.871 248.322 166.786 248.611 167.556C248.948 168.423 248.033 168.76 247.648 167.893C246.926 166.063 245.578 163.319 245.385 160.815C245.241 158.745 245.674 156.771 247.455 155.519L247.407 155.471Z" fill="#E59C81"/>
<path d="M438.364 164.811C437.931 171.792 433.068 177.136 427.483 176.799C421.898 176.462 417.757 170.54 418.142 163.559C418.575 156.577 423.438 151.233 429.023 151.57C434.609 151.907 438.749 157.829 438.364 164.811Z" fill="#F7B68D"/>
<path d="M433.407 155.471C432.829 155.086 431.673 154.893 430.951 154.845C427.244 154.749 424.596 161.056 428.303 161.971C429.748 163.367 428.399 165.149 428.399 165.149C427.196 166.689 425.607 168.904 426.088 170.974C426.377 172.226 427.677 172.852 428.833 173.093C429.748 173.286 429.892 172.515 429.17 172.178C428.592 171.937 428.111 171.504 427.725 171.023C427.725 170.926 427.629 170.878 427.629 170.83C427.629 170.782 427.581 170.734 427.533 170.686C427.388 170.397 427.388 170.06 427.436 169.771C428.303 170.349 429.699 170.445 430.277 169.578C430.951 168.663 430.325 167.219 430.518 166.208C430.662 165.486 430.951 164.763 431.288 164.089C432.829 160.96 429.748 160.574 429.748 160.574C429.266 160.574 428.929 160.671 428.64 160.719C427.051 159.9 428.64 157.349 429.555 156.915C430.614 156.386 431.962 156.482 432.781 157.349C433.599 158.215 433.985 159.66 433.985 160.815C433.985 162.26 433.696 163.752 433.166 165.1C432.877 165.871 432.492 166.786 432.203 167.556C431.866 168.423 432.781 168.76 433.166 167.893C433.888 166.063 435.236 163.319 435.429 160.815C435.573 158.745 435.14 156.771 433.359 155.519L433.407 155.471Z" fill="#E59C81"/>
<path d="M346.635 176.992C345.816 176.992 345.19 176.318 345.19 175.547C345.19 172.899 343.024 170.733 340.376 170.733C337.727 170.733 335.561 172.899 335.561 175.547C335.561 178.196 334.887 176.992 334.116 176.992C333.346 176.992 332.672 176.318 332.672 175.547C332.672 171.31 336.139 167.844 340.376 167.844C344.613 167.844 348.079 171.31 348.079 175.547C348.079 179.784 347.405 176.992 346.635 176.992Z" fill="#E89C80"/>
<path opacity="0.3" d="M280.578 174.971C280.578 179.305 286.163 182.819 293.048 182.819C299.934 182.819 305.519 179.305 305.519 174.971C305.519 170.638 299.934 167.123 293.048 167.123C286.163 167.123 280.578 170.638 280.578 174.971Z" fill="#F17382"/>
<path opacity="0.3" d="M375.234 174.971C375.234 179.305 380.82 182.819 387.705 182.819C394.59 182.819 400.175 179.305 400.175 174.971C400.175 170.638 394.59 167.123 387.705 167.123C380.82 167.123 375.234 170.638 375.234 174.971Z" fill="#F17382"/>
<path d="M434.27 153.834C430.37 151.041 427.433 151.571 427.433 151.571C426.855 151.667 421.655 140.208 420.885 138.908C412.651 125.571 402.54 113.004 389.829 103.615C375.144 92.7817 356.077 91.6262 338.503 91.0003C328.633 90.6632 316.74 93.0706 305.618 90.4225C303.403 89.8929 296.807 85.4632 296.374 83.0558C296.374 83.0558 305.618 91.241 280.677 108.815C280.677 108.815 260.84 117.674 256.507 141.122C256.411 141.748 253.377 151.667 253.522 151.667C247.888 151.763 247.166 153.4 247.166 153.4C240.185 126.534 240.329 117.626 242.496 94.178C242.496 94.178 245.288 54.504 275.814 48.4854C275.814 48.4854 280.677 11.0743 337.781 14.2521C337.781 14.2521 323.962 17.0447 323.577 27.6854C323.577 27.6854 364.84 2.88914 423.87 40.0595C423.87 40.0595 410.148 36.8817 410.148 45.0669C410.148 45.0669 456.418 76.0262 434.366 153.785L434.27 153.834Z" fill="#2A2A2A"/>
<path d="M295.023 155.279C295.023 160.864 298.201 165.342 302.005 165.342C305.857 165.342 308.89 160.768 308.89 155.182C308.89 149.597 305.712 145.071 301.909 145.12C298.105 145.12 295.023 149.694 295.023 155.279Z" fill="#2F1806"/>
<path d="M299.213 152.054C299.213 153.739 297.864 155.039 296.227 155.039C294.59 155.039 293.242 153.691 293.242 152.054C293.242 150.416 294.59 149.068 296.227 149.068C297.864 149.068 299.213 150.416 299.213 152.054Z" fill="white"/>
<path d="M385.789 155.279C385.789 160.864 382.611 165.342 378.807 165.342C375.003 165.342 371.922 160.768 371.922 155.182C371.922 149.597 375.1 145.071 378.903 145.12C382.707 145.12 385.789 149.694 385.789 155.279Z" fill="#2F1806"/>
<path d="M381.602 152.054C381.602 153.739 382.95 155.039 384.587 155.039C386.224 155.039 387.62 153.691 387.62 152.054C387.62 150.416 386.272 149.068 384.587 149.068C382.902 149.068 381.602 150.416 381.602 152.054Z" fill="white"/>
<path d="M293.003 140.785C295.652 138.282 298.926 137.126 302.44 136.645C304.029 136.404 304.848 134.43 304.511 133.034C304.029 131.348 302.489 130.771 300.9 130.963C296.374 131.589 292.185 133.419 288.863 136.597C286.118 139.197 290.259 143.337 293.003 140.737V140.785Z" fill="#2A2A2A"/>
<path d="M387.757 140.785C385.109 138.282 381.834 137.126 378.32 136.645C376.731 136.404 375.912 134.43 376.297 133.034C376.779 131.348 378.32 130.771 379.909 130.963C384.434 131.589 388.623 133.419 391.946 136.597C394.69 139.197 390.549 143.337 387.805 140.737L387.757 140.785Z" fill="#2A2A2A"/>
<path d="M302.391 168.277C300.995 168.277 300.995 170.444 302.391 170.444C303.787 170.444 303.787 168.277 302.391 168.277Z" fill="#C88973"/>
<path d="M292.235 169.24C290.838 169.24 290.838 171.407 292.235 171.407C293.631 171.407 293.631 169.24 292.235 169.24Z" fill="#C88973"/>
<path d="M298.539 173.863C297.143 173.863 297.143 176.03 298.539 176.03C299.936 176.03 299.936 173.863 298.539 173.863Z" fill="#C88973"/>
<path d="M307.977 172.658C306.581 172.658 306.581 174.825 307.977 174.825C309.373 174.825 309.373 172.658 307.977 172.658Z" fill="#C88973"/>
<path d="M290.258 175.307C288.862 175.307 288.862 177.473 290.258 177.473C291.654 177.473 291.654 175.307 290.258 175.307Z" fill="#C88973"/>
<path d="M301.188 179.93C299.792 179.93 299.792 182.096 301.188 182.096C302.584 182.096 302.584 179.93 301.188 179.93Z" fill="#C88973"/>
<path d="M384.922 168.277C383.526 168.277 383.526 170.444 384.922 170.444C386.319 170.444 386.319 168.277 384.922 168.277Z" fill="#C88973"/>
<path d="M374.758 169.24C373.362 169.24 373.362 171.407 374.758 171.407C376.154 171.407 376.154 169.24 374.758 169.24Z" fill="#C88973"/>
<path d="M381.063 173.863C379.667 173.863 379.667 176.03 381.063 176.03C382.459 176.03 382.459 173.863 381.063 173.863Z" fill="#C88973"/>
<path d="M390.5 172.658C389.104 172.658 389.104 174.825 390.5 174.825C391.897 174.825 391.897 172.658 390.5 172.658Z" fill="#C88973"/>
<path d="M372.782 175.307C371.385 175.307 371.385 177.473 372.782 177.473C374.178 177.473 374.178 175.307 372.782 175.307Z" fill="#C88973"/>
<path d="M383.719 179.93C382.323 179.93 382.323 182.096 383.719 182.096C385.115 182.096 385.115 179.93 383.719 179.93Z" fill="#C88973"/>
<path d="M340.38 201.116C332.676 200.586 326.706 195.194 326.61 195.146C326.225 194.857 326.08 194.231 326.321 193.749C326.562 193.268 327.091 193.123 327.476 193.412C327.621 193.509 340.38 191.101 353.236 193.412C353.717 193.509 354.15 193.268 354.391 193.749C354.632 194.231 354.536 194.857 354.102 195.146C349.528 198.564 344.425 201.116 340.332 201.116H340.38Z" fill="#F2907E"/>
<path d="M339.952 207.711C336.534 207.711 334.608 206.604 334.512 206.508C333.838 206.074 333.597 205.208 334.03 204.486C334.464 203.812 335.33 203.571 336.004 203.956C336.149 204.052 339.327 205.737 345.056 203.811C345.827 203.571 346.645 203.956 346.934 204.726C347.175 205.497 346.789 206.315 346.019 206.604C343.66 207.374 341.638 207.663 339.952 207.663V207.711Z" fill="#F4A485"/>
<path d="M382.218 245.411C379.762 237.515 373.551 236.215 373.551 236.215L350.488 231.641H330.795L307.732 236.215C307.732 236.215 301.569 237.515 299.066 245.411C297.525 289.996 296.225 314.841 293.625 350.663C293.625 350.663 312.884 358.463 340.618 357.741C368.399 358.463 387.658 350.663 387.658 350.663C386.599 331.933 384.432 291.055 382.218 245.411Z" fill="#FAB78D"/>
<path d="M355.351 232.604L373.551 236.215C373.551 236.215 379.714 237.515 382.218 245.411C383.951 280.752 384.818 302.129 387.658 350.663C387.658 350.663 368.399 358.463 340.618 357.741C312.836 358.463 293.625 350.663 293.625 350.663C295.792 312.626 297.092 291.296 299.066 245.411C301.521 237.515 307.732 236.215 307.732 236.215L325.162 232.796C325.162 232.796 325.403 244.015 339.944 243.726C339.944 243.726 353.762 245.459 355.399 232.652L355.351 232.604Z" fill="#041E42"/>
<g style="mix-blend-mode:multiply">
<path d="M387.177 342.189C373.984 348.208 363.247 349.941 350.247 350.76C333.01 351.867 305.71 352.156 303.592 332.56C301.906 316.912 302.099 297.46 303.399 280.367H297.477C296.273 305.163 295.166 323.749 293.625 350.663C293.625 350.663 312.884 358.463 340.618 357.741C368.399 358.463 387.658 350.663 387.658 350.663C387.418 346.282 387.369 346.186 387.177 342.238V342.189Z" fill="#BBBDBF"/>
</g>
<path d="M307.304 236.311C307.304 236.311 290.981 236.936 284.385 257.736L279.57 270.207C279.57 270.207 286.793 283.544 302.633 283.111C302.633 283.111 312.504 253.211 307.304 236.359V236.311Z" fill="white"/>
<path d="M307.304 236.311C307.304 236.311 290.981 236.936 284.385 257.736L279.57 270.207C279.57 270.207 286.793 283.544 302.633 283.111C302.633 283.111 312.504 253.211 307.304 236.359V236.311Z" fill="#041E42"/>
<g style="mix-blend-mode:multiply">
<path d="M291.609 272.134C288.19 266.116 290.742 257.256 293.005 251.382C295.605 244.593 300.949 239.923 307.305 236.745C307.305 236.745 307.305 236.745 307.353 236.745C307.353 236.649 307.305 236.504 307.257 236.408C307.257 236.408 290.935 237.034 284.338 257.834L279.523 270.305C279.523 270.305 286.746 283.642 302.586 283.208C302.586 283.208 303.02 281.956 303.598 279.838C298.638 279.067 294.209 276.901 291.56 272.23L291.609 272.134Z" fill="#BBBDBF"/>
</g>
<path d="M373.123 236.311C373.123 236.311 389.445 236.936 396.041 257.736L400.856 270.207C400.856 270.207 393.634 283.544 377.793 283.111C377.793 283.111 367.923 253.211 373.123 236.359V236.311Z" fill="#041E42"/>
<g style="mix-blend-mode:multiply">
<path d="M388.823 272.134C392.241 266.116 389.689 257.256 387.426 251.382C384.826 244.593 379.482 239.923 373.126 236.745C373.126 236.745 373.126 236.745 373.078 236.745C373.078 236.649 373.126 236.504 373.174 236.408C373.174 236.408 389.497 237.034 396.093 257.834L400.908 270.305C400.908 270.305 393.686 283.642 377.845 283.208C377.845 283.208 377.411 281.956 376.834 279.838C381.793 279.067 386.223 276.901 388.871 272.23L388.823 272.134Z" fill="#BBBDBF"/>
</g>
<path d="M367.53 256.932H354.109V273.245H367.53V256.932Z" fill="#54C0E8"/>
<path d="M353.234 276.708H368.39V256.053H353.234V276.708ZM367.308 272.613H354.316V257.135H367.308V272.613Z" fill="#041E42"/>
<path d="M363.531 264.621C363.455 264.579 363.358 264.543 363.378 264.429L363.391 264.273C363.556 264.262 363.711 264.385 363.806 264.529C363.861 264.615 363.887 264.732 363.959 264.785C364.023 264.543 363.909 264.195 364.154 264.051C364.218 264.07 364.281 264.104 364.318 264.17C364.318 264.17 364.332 264.279 364.298 264.343C364.234 264.351 364.065 264.187 364.037 264.368C364.012 264.579 364.042 264.821 363.962 265.016C363.831 264.866 363.803 264.621 363.561 264.582C363.561 264.582 363.528 264.582 363.531 264.618" fill="#041E42"/>
<path d="M366.044 263.461C366.036 263.522 366.008 263.639 365.936 263.625C365.897 263.561 365.816 263.528 365.758 263.578C365.708 263.611 365.644 263.645 365.627 263.709C365.73 263.792 365.869 263.82 366.008 263.792C366.091 263.731 366.161 263.642 366.255 263.603C366.23 263.912 365.894 264.015 365.694 264.207C365.688 264.165 365.699 264.076 365.727 264.023C365.655 263.984 365.543 263.97 365.516 263.867C365.524 263.645 365.649 263.419 365.872 263.336C365.947 263.336 366.05 263.364 366.041 263.461" fill="#041E42"/>
<path d="M365.791 264.681C365.88 265.062 366.008 265.435 366.139 265.796V265.935C366.031 265.902 365.972 265.743 365.861 265.671V265.835L366.172 268.288C366.242 268.917 366.431 269.651 366.136 270.23C366.122 270.038 366.111 269.81 366.103 269.601C365.85 268.08 365.705 266.519 365.469 264.992C365.519 264.823 365.597 264.639 365.722 264.52L365.791 264.678V264.681Z" fill="#041E42"/>
<path d="M364.735 265.783C364.746 265.686 364.818 265.444 364.701 265.319C364.657 265.28 364.626 265.28 364.568 265.294C364.365 265.38 364.309 265.588 364.306 265.783C364.345 265.933 364.523 265.9 364.618 265.995C364.284 266.551 363.678 266.868 363.219 267.319C363.369 267.338 363.477 267.243 363.614 267.154C363.995 266.851 364.518 266.484 364.676 266.014C364.746 266.028 364.796 266.081 364.854 266.111C364.876 266.075 364.91 265.986 364.904 265.914C364.871 265.842 364.796 265.822 364.735 265.783ZM364.673 265.75L364.398 265.625C364.443 265.505 364.657 265.474 364.673 265.633V265.75Z" fill="#041E42"/>
<path d="M364.617 267.639C364.693 267.636 364.712 267.561 364.745 267.522C364.765 267.642 364.734 267.778 364.617 267.845C364.509 267.87 364.423 267.786 364.389 267.695C364.3 267.433 364.428 267.122 364.528 266.877C364.548 267.138 364.331 267.578 364.617 267.636" fill="#041E42"/>
<path d="M365.39 269.059C365.173 268.711 364.795 268.389 364.397 268.277C364.219 268.291 364.141 268.358 364.041 268.606C363.922 268.881 363.986 269.229 364.178 269.454C363.304 269.782 362.45 270.166 361.822 270.967C361.571 271.256 361.271 271.648 360.887 271.696C360.704 271.662 360.592 271.284 360.589 271.014C360.589 271.014 360.589 270.973 360.573 270.975C360.542 270.981 360.517 271.059 360.517 271.059C360.473 271.304 360.517 271.534 360.623 271.746C360.737 271.918 360.915 272.035 361.115 272.049C361.251 272.049 361.352 272.021 361.449 271.927L362.228 271.034C362.79 270.358 363.588 270.199 364.297 269.846C364.353 269.824 364.397 269.804 364.425 269.815C364.461 269.902 364.481 269.899 364.52 269.943C364.589 269.893 364.65 269.777 364.631 269.732C364.798 269.665 364.892 269.671 365.132 269.582C365.285 269.443 365.374 269.259 365.393 269.062M364.456 269.343C364.436 269.332 364.389 269.293 364.353 269.234C364.275 269.103 364.136 268.959 364.136 268.814C364.219 268.767 364.317 268.825 364.397 268.873C364.556 268.95 364.714 269.084 364.82 269.212C364.706 269.265 364.497 269.348 364.456 269.345" fill="#041E42"/>
<path d="M364.326 271.08C364.379 271.142 364.334 271.247 364.301 271.303C364.27 271.356 364.195 271.395 364.131 271.361C364.075 271.347 364.023 271.289 364.011 271.231C363.953 270.944 364.131 270.641 364.251 270.371C364.234 270.608 364.062 270.858 364.106 271.114C364.128 271.178 364.189 271.192 364.251 271.164C364.251 271.164 364.295 271.147 364.326 271.08Z" fill="#041E42"/>
<path d="M356.412 260.923C356.334 260.934 356.261 260.831 356.172 260.884C356.1 261.103 356.217 261.376 356.109 261.61C355.969 261.498 355.905 261.318 355.766 261.19C355.766 261.293 355.675 261.229 355.644 261.215C355.58 261.167 355.477 261.156 355.469 261.012C355.469 260.939 355.466 260.878 355.511 260.82C355.769 260.87 355.944 261.156 356.075 261.382C356.075 261.154 356.072 260.895 356.147 260.681C356.225 260.578 356.356 260.661 356.409 260.739C356.409 260.739 356.44 260.817 356.409 260.925" fill="#041E42"/>
<path d="M357.096 258.441C357.129 258.385 357.143 258.26 357.085 258.216C357.021 258.191 356.993 258.177 356.974 258.16C356.974 258.141 357.054 257.974 356.985 257.776C356.946 257.679 356.871 257.659 356.796 257.665C356.593 257.746 356.573 257.935 356.548 258.118C356.534 258.282 356.737 258.274 356.832 258.349C356.826 258.405 356.823 258.452 356.787 258.491C356.351 258.95 355.78 259.236 355.344 259.679C355.772 259.629 356.598 258.989 356.926 258.38C356.935 258.38 357.063 258.441 357.099 258.441M356.643 258.004C356.673 257.882 356.86 257.843 356.89 257.993C356.901 258.035 356.901 258.065 356.896 258.11C356.801 258.09 356.718 258.057 356.643 258.004Z" fill="#041E42"/>
<path d="M366.006 272.024C366.159 271.782 366.048 271.507 366.043 271.207C366.076 271.09 366.19 271.226 366.271 271.182L366.29 271.031C366.287 270.998 366.273 270.976 366.232 270.948C366.168 270.923 366.098 270.889 366.054 270.962C365.929 271.207 366.023 271.521 366.004 271.788C365.873 271.565 365.692 271.248 365.4 271.204L365.375 271.451C365.375 271.615 365.575 271.61 365.698 271.635C365.831 271.741 365.865 271.88 365.951 272.008C365.951 272.008 365.965 272.027 366.009 272.022" fill="#041E42"/>
<path d="M360.81 257.851C360.456 258.043 360.064 258.134 359.711 258.321C359.002 258.693 358.201 258.858 357.553 259.389C357.603 259.492 357.772 259.453 357.817 259.553C357.82 259.617 357.811 259.673 357.781 259.728C357.678 259.72 357.516 259.675 357.45 259.578C357.369 259.191 357.706 259.002 358.036 258.855L360.367 257.853C360.568 257.767 360.701 257.737 360.86 257.67C360.896 257.728 360.851 257.801 360.81 257.853" fill="#041E42"/>
<path d="M365.086 257.711C365.136 257.933 365.006 258.228 364.93 258.359C364.736 258.812 364.313 259.165 364.085 259.605C364.129 259.113 364.51 258.679 364.839 258.256C364.858 258.192 364.819 258.134 364.755 258.125C364.196 258.125 363.673 258.362 363.167 258.556C362.472 258.885 361.712 259.06 361.053 259.466C361.084 259.563 361.187 259.577 361.265 259.605C361.604 259.691 361.904 259.9 362.283 259.861C362.13 259.666 361.776 259.75 361.718 259.466C361.901 259.324 362.18 259.238 362.402 259.366C362.416 259.444 362.333 259.463 362.232 259.491C362.174 259.413 362.054 259.427 361.96 259.407C361.999 259.63 362.296 259.611 362.463 259.722C362.494 259.755 362.502 259.794 362.497 259.839C362.194 260.147 361.732 259.911 361.409 259.814L361.395 259.827C362.135 260.442 362.933 261.062 363.501 261.836C363.851 262.222 364.121 262.734 364.627 262.932C365.139 262.99 365.451 262.492 365.857 262.256C365.979 262.181 366.107 262.097 366.249 262.175C366.343 262.247 366.299 262.328 366.274 262.456C366.249 262.548 366.221 262.665 366.129 262.701C366.09 262.623 365.971 262.648 365.915 262.676C365.353 262.845 364.967 263.805 364.288 263.363C363.846 263.009 363.534 262.556 363.175 262.13C363.225 262.445 363.323 262.937 362.997 263.165C362.783 263.321 362.55 263.468 362.266 263.421C362.024 263.354 361.81 263.118 361.774 262.876V262.745H361.654C360.552 263.204 359.215 264.136 358.007 263.34C357.802 263.165 357.738 262.915 357.59 262.712C356.887 262.818 356.681 263.577 356.369 264.058C356.272 264.203 356.11 264.25 355.938 264.256C355.382 264.158 355.315 263.485 355.307 262.99C355.307 262.831 355.287 262.603 355.371 262.453C355.36 262.907 355.365 263.39 355.579 263.766C355.679 263.899 355.802 263.95 355.935 263.93C356.272 263.733 356.447 263.365 356.639 263.057C356.823 262.684 357.209 262.186 357.682 262.211C357.802 262.309 357.79 262.459 357.871 262.567C358.213 263.057 358.775 263.235 359.368 263.129C360.291 262.993 361.084 262.55 361.918 262.211C361.968 262.356 361.857 262.567 362.018 262.698C362.138 262.829 362.28 262.909 362.461 262.907C362.686 262.859 362.892 262.762 363.081 262.617C362.872 261.986 362.271 261.507 361.815 260.973C361.459 260.617 361.106 260.225 360.797 259.85C360.75 259.444 360.861 259.177 361.12 258.965C362.132 258.448 363.206 258.05 364.299 257.727C364.513 257.663 364.7 257.591 364.944 257.611C364.944 257.611 365.064 257.638 365.083 257.708" fill="#041E42"/>
<path d="M363.512 259.131C363.551 259.242 363.506 259.392 363.412 259.411C363.328 259.423 363.284 259.364 363.25 259.295C363.145 259.019 363.328 258.797 363.437 258.574C363.476 258.772 363.145 259.067 363.451 259.203C363.498 259.197 363.509 259.131 363.509 259.131" fill="#041E42"/>
<path d="M357.608 260.323C357.577 260.496 357.432 260.646 357.293 260.757L356.859 260.418C356.879 260.27 357.007 260.145 357.107 260.014L357.154 259.953C357.313 260.05 357.469 260.203 357.61 260.323" fill="#041E42"/>
<path d="M360.072 260.082C360.017 260.135 359.914 260.16 359.844 260.116L359.725 260.01C359.661 260.093 359.605 260.207 359.485 260.233C359.355 260.252 359.257 260.171 359.221 260.057C359.154 259.857 359.082 259.707 359.216 259.529C359.252 259.693 359.257 259.882 359.399 260.01C359.51 260.041 359.594 259.982 359.652 259.91C359.647 259.737 359.552 259.596 359.636 259.431C359.764 259.465 359.697 259.949 360.019 259.918C360.039 259.74 359.83 259.562 359.975 259.373C360.039 259.584 360.253 259.846 360.07 260.082" fill="#041E42"/>
<path d="M357.71 261.278C357.66 261.429 357.523 261.573 357.404 261.709L356.953 261.315C357.037 261.17 357.092 261.014 357.24 260.895C357.415 260.978 357.562 261.145 357.707 261.281" fill="#041E42"/>
<path d="M363.838 259.911L363.813 260.087C363.741 260.098 363.694 260.028 363.619 260.073C363.516 260.304 363.616 260.623 363.549 260.879C363.449 260.838 363.413 260.715 363.354 260.618L363.143 260.401C363.087 260.429 362.993 260.401 362.929 260.376C362.845 260.317 362.862 260.176 362.89 260.087C362.965 260.048 363.057 260.1 363.132 260.145C363.324 260.276 363.424 260.468 363.513 260.657C363.546 260.42 363.477 260.117 363.571 259.889C363.646 259.822 363.769 259.811 363.833 259.914" fill="#041E42"/>
<path d="M365.886 260.854C365.867 261.023 365.689 261.182 365.575 261.307C365.41 261.185 365.271 261.079 365.141 260.912C365.235 260.768 365.319 260.606 365.452 260.492L365.883 260.854H365.886Z" fill="#041E42"/>
<path d="M365.06 260.935C365.029 261.105 364.901 261.25 364.77 261.375C364.623 261.258 364.473 261.113 364.328 260.994C364.409 260.838 364.492 260.688 364.631 260.562C364.784 260.66 364.923 260.793 365.06 260.935Z" fill="#041E42"/>
<path d="M361.065 261.223C361.113 261.262 361.065 261.387 361.029 261.454C360.973 261.56 360.834 261.579 360.765 261.502C360.581 261.226 360.812 260.912 360.873 260.65C360.859 260.845 360.751 261.051 360.801 261.265C360.846 261.36 360.915 261.337 360.979 261.326C360.979 261.326 361.068 261.293 361.065 261.221" fill="#041E42"/>
<path d="M359.399 262.037C359.265 261.884 359.115 261.53 358.848 261.597C358.815 261.586 358.784 261.567 358.753 261.539C358.728 261.447 358.712 261.302 358.812 261.25C359.076 261.313 359.276 261.547 359.377 261.781C359.407 261.519 359.36 261.211 359.532 261.019C359.621 260.999 359.71 261.038 359.746 261.11L359.71 261.294C359.646 261.269 359.585 261.236 359.507 261.25C359.393 261.461 359.477 261.775 359.432 262.003C359.432 262.003 359.432 262.031 359.399 262.037Z" fill="#041E42"/>
<path d="M365.07 262.167C365.056 262.273 365.011 262.379 364.911 262.448C364.792 262.479 364.753 262.376 364.733 262.295C364.672 262 364.814 261.731 364.97 261.494C364.945 261.711 364.616 262.07 364.961 262.253C365.02 262.253 365.07 262.173 365.07 262.173" fill="#041E42"/>
<path d="M365.506 259.81C365.57 259.83 365.601 259.76 365.626 259.727C365.62 259.819 365.573 260.011 365.473 260.016C365.367 259.997 365.331 259.93 365.328 259.819C365.348 259.646 365.367 259.457 365.498 259.332C365.481 259.474 365.309 259.685 365.509 259.81" fill="#041E42"/>
<path d="M357.682 264.572C357.763 264.591 357.835 264.472 357.871 264.416C357.871 264.541 357.838 264.647 357.766 264.744C357.696 264.792 357.618 264.792 357.549 264.744C357.257 264.463 357.504 263.949 357.682 263.629C357.649 263.899 357.271 264.338 357.682 264.572Z" fill="#041E42"/>
<path d="M359.563 263.838C359.602 264.06 359.274 264.277 359.502 264.475C359.591 264.519 359.616 264.403 359.647 264.369C359.672 264.48 359.633 264.592 359.589 264.683C359.508 264.75 359.299 264.664 359.305 264.522C359.31 264.258 359.394 264.035 359.563 263.838Z" fill="#041E42"/>
<path d="M362.889 264.496C362.925 264.574 362.883 264.655 362.83 264.713C362.091 264.988 361.376 265.317 360.664 265.67C360.53 265.742 360.397 265.84 360.297 265.97C360.366 266.095 360.664 266.048 360.586 266.24L360.544 266.323C360.43 266.296 360.291 266.298 360.221 266.184C360.21 266.02 360.23 265.845 360.341 265.717C360.858 265.311 361.459 265.105 362.029 264.833C362.319 264.721 362.602 264.607 362.889 264.499" fill="#041E42"/>
<path d="M356.904 264.959C356.845 264.934 356.776 264.906 356.715 264.934C356.706 264.945 356.704 264.951 356.704 264.967C356.729 265.201 356.776 265.407 356.745 265.66C356.731 265.69 356.69 265.674 356.651 265.635C356.512 265.537 356.434 265.245 356.233 265.34C356.147 265.348 356.047 265.32 356.03 265.226C356.003 265.079 356.067 264.984 356.067 264.984C356.317 264.995 356.523 265.245 356.687 265.448C356.706 265.223 356.537 264.898 356.737 264.714C356.801 264.689 356.94 264.703 356.923 264.795C356.923 264.795 356.921 264.9 356.904 264.959Z" fill="#041E42"/>
<path d="M362.633 265.654L362.589 265.852C362.527 265.838 362.475 265.785 362.411 265.818C362.288 265.996 362.416 266.266 362.383 266.469L362.352 266.678C362.224 266.567 362.169 266.35 362.005 266.216C361.966 266.316 361.849 266.252 361.785 266.205C361.707 266.122 361.735 265.971 361.765 265.877C361.993 265.885 362.171 266.138 362.266 266.33C362.286 266.06 362.241 265.752 362.444 265.562C362.519 265.562 362.591 265.596 362.633 265.654Z" fill="#041E42"/>
<path d="M356.036 266.182C355.981 266.463 355.836 266.711 355.736 266.975C355.622 267.376 355.438 267.849 355.63 268.274C355.686 268.358 355.78 268.405 355.878 268.413C356.036 268.405 356.078 268.307 356.156 268.216C356.203 268.555 356.136 268.947 355.733 268.958C355.613 268.958 355.508 268.861 355.449 268.761C355.296 268.458 355.374 268.079 355.424 267.751C355.549 267.2 355.725 266.658 356.033 266.18" fill="#041E42"/>
<path d="M357.701 266.753C357.389 266.792 357.486 266.417 357.364 266.253C357.225 266.456 357.498 266.692 357.27 266.856C356.922 266.92 357.097 266.495 356.983 266.319C356.83 266.503 356.944 266.809 356.997 266.948C357.047 267.026 357.105 267.126 357.219 267.104C357.3 267.079 357.353 267.02 357.389 266.948C357.428 266.856 357.495 266.934 357.534 266.973C357.603 267.029 357.731 267.006 357.787 266.906C357.873 266.65 357.742 266.386 357.645 266.172C357.531 266.375 357.698 266.545 357.728 266.731C357.728 266.731 357.723 266.753 357.703 266.756" fill="#041E42"/>
<path d="M358.453 267.45C358.489 267.536 358.534 267.556 358.606 267.522C358.642 267.497 358.645 267.469 358.667 267.441C358.698 267.528 358.656 267.692 358.562 267.745C358.467 267.781 358.378 267.7 358.367 267.606C358.336 267.336 358.4 267.069 358.495 266.838C358.515 267.03 358.412 267.244 358.451 267.45" fill="#041E42"/>
<path d="M357.494 267.87L357.471 268.046C357.421 268.007 357.363 267.948 357.293 267.987C357.165 268.171 357.257 268.44 357.199 268.655C357.299 268.735 357.446 268.774 357.505 268.911C357.513 268.994 357.535 269.102 357.352 269.102C357.146 269.122 356.979 269.127 356.848 269.267C356.887 269.842 357.163 270.413 357.076 270.991C357.096 270.315 356.687 269.842 356.815 269.094C356.912 268.983 357.038 268.936 357.171 268.911C357.132 268.877 357.107 268.847 357.038 268.847C357.018 268.86 357.018 268.891 357.004 268.911C356.923 268.721 357.179 268.671 356.985 268.427C356.779 268.112 356.665 268.435 356.612 268.201C356.595 268.135 356.562 267.979 356.67 267.931C356.912 268.032 357.032 268.282 357.138 268.491C357.207 268.354 357.157 268.182 357.174 268.001C357.177 267.918 357.174 267.84 357.274 267.762C357.363 267.701 357.477 267.795 357.496 267.873" fill="#041E42"/>
<path d="M359.069 268.355C358.96 268.806 358.496 269.179 358.065 269.312C357.881 269.398 357.914 269.682 357.934 269.857C358.396 270.016 359.049 269.871 359.419 270.23C359.205 270.439 358.966 270.636 358.713 270.767C357.842 271.162 356.816 271.955 355.817 271.279C355.356 270.931 355.369 270.347 355.428 269.835C355.483 269.618 355.545 269.451 355.617 269.198C355.464 269.437 355.422 269.632 355.353 269.86C355.219 270.55 355.214 271.401 355.867 271.86C356.229 272.11 356.777 272.077 357.183 271.977C357.789 271.782 358.359 271.504 358.893 271.14L359.013 271.059C359.486 270.778 359.728 270.28 359.633 269.779C359.458 269.426 359.002 269.543 358.688 269.418C358.983 269.142 359.083 268.775 359.25 268.458C359.286 268.519 359.286 268.597 359.3 268.664C359.38 268.992 359.661 269.393 360.039 269.443C360.943 269.54 361.644 268.995 362.276 268.408C362.329 268.302 362.354 268.138 362.342 268.002C361.867 268.397 361.363 268.842 360.688 268.77C360.231 268.633 360.053 268.161 359.956 267.768C360.031 267.699 360.12 267.629 360.209 267.579C360.571 267.404 361.185 267.065 361.644 267.393C361.386 267.093 361.074 266.953 360.662 266.995C360.323 267.004 360.02 267.268 359.861 267.554C359.622 267.935 359.772 268.483 359.945 268.834C359.492 268.603 359.416 268.161 359.369 267.635C359.339 266.723 359.252 265.813 359.122 264.915C359.105 264.823 359.097 264.695 359.027 264.67C358.977 264.815 358.919 264.951 358.919 265.115L359.108 267.66C359.108 267.66 359.122 268.158 359.072 268.355" fill="#041E42"/>
<path d="M361.222 270.326C361.213 270.437 361.197 270.649 361.033 270.674C360.938 270.674 360.868 270.593 360.849 270.515C360.81 270.207 360.996 270.029 361.149 269.814C361.166 270.017 360.754 270.337 361.124 270.468C361.172 270.468 361.219 270.329 361.219 270.329" fill="#041E42"/>
<path d="M361.604 264.023C361.574 264.192 361.404 264.32 361.309 264.459C361.126 264.334 360.967 264.259 360.828 264.103C360.903 263.945 360.998 263.783 361.137 263.658L361.604 264.02V264.023Z" fill="#041E42"/>
<path d="M360.751 264.135C360.698 264.327 360.573 264.444 360.459 264.58C360.286 264.497 360.111 264.358 359.961 264.227C360.05 264.083 360.111 263.907 360.27 263.799C360.442 263.885 360.587 264.027 360.751 264.135Z" fill="#041E42"/>
<path d="M358.276 274.871C358.312 274.771 358.328 274.693 358.328 274.629C358.328 274.526 358.289 274.426 358.212 274.334L358.078 274.515C358.142 274.601 358.173 274.693 358.173 274.785H355.425V274.526C355.425 274.462 355.413 274.42 355.394 274.398C355.374 274.376 355.333 274.365 355.272 274.365C355.21 274.365 355.124 274.376 355.027 274.398C354.802 274.454 354.643 274.506 354.56 274.565C354.482 274.615 354.42 274.696 354.376 274.807C354.337 274.901 354.32 274.963 354.32 274.993L354.387 275.683L354.423 275.622L354.476 275.516L354.501 275.46C354.512 275.396 354.518 275.363 354.518 275.358L354.479 274.849L354.573 274.776C354.604 274.751 354.643 274.729 354.693 274.707L354.679 274.862L355.299 275.213L355.383 275.029H358.212C358.234 274.985 358.245 274.957 358.245 274.954C358.256 274.921 358.264 274.893 358.273 274.874L358.276 274.871ZM355.283 274.926L354.815 274.662C354.935 274.604 355.057 274.576 355.183 274.576C355.308 274.576 355.249 274.582 355.263 274.595C355.277 274.609 355.283 274.634 355.283 274.673V274.926Z" fill="white"/>
<path d="M357.791 275.321L357.693 275.232L357.562 275.344L357.724 275.491L357.827 275.405L357.924 275.491L358.052 275.38L357.896 275.232L357.791 275.321Z" fill="white"/>
<path d="M359.512 274.121L359.5 274.149C359.489 274.171 359.484 274.19 359.484 274.201C359.484 274.213 359.492 274.238 359.509 274.251L359.537 274.277L359.626 274.366L359.665 274.324L360.082 274.788H358.894C358.872 274.691 358.827 274.602 358.763 274.513L358.627 274.671C358.666 274.724 358.699 274.772 358.727 274.819C358.755 274.866 358.775 274.916 358.794 274.972C358.755 275.066 358.702 275.144 358.644 275.206C358.569 275.283 358.485 275.32 358.399 275.32C358.313 275.32 358.282 275.308 358.227 275.281L358.243 275.306L358.288 275.361C358.374 275.473 358.449 275.528 358.513 275.528C358.577 275.528 358.683 275.464 358.766 275.336C358.83 275.233 358.875 275.13 358.897 275.028H360.19L360.271 274.875L360.296 274.824C360.307 274.802 360.313 274.783 360.313 274.772C360.313 274.747 360.29 274.71 360.243 274.658L359.712 274.076L360.385 273.879L360.488 273.656L359.612 273.901L359.514 274.118L359.512 274.121Z" fill="white"/>
<path d="M362.362 273.764L362.203 273.611L362.078 273.728L362.237 273.873L362.362 273.764Z" fill="white"/>
<path d="M362.277 274.078L362.374 274.164L362.5 274.056L362.341 273.908L362.238 273.994L362.141 273.908L362.016 274.019L362.171 274.167L362.277 274.078Z" fill="white"/>
<path d="M364.981 275.321L364.884 275.232L364.75 275.344L364.911 275.491L365.017 275.405L365.114 275.491L365.24 275.38L365.084 275.232L364.981 275.321Z" fill="white"/>
<path d="M367.313 273.84L367.158 273.77C367.122 273.756 367.099 273.742 367.091 273.731C367.071 273.712 367.063 273.684 367.063 273.65L366.971 273.803L366.952 273.831C366.941 273.851 366.935 273.865 366.935 273.878C366.935 273.906 366.957 273.926 366.999 273.94L367.066 274.791H366.193L366.215 274.76C366.273 274.682 366.307 274.638 366.312 274.624C366.362 274.552 366.387 274.482 366.387 274.41C366.387 274.271 366.301 274.204 366.123 274.204C365.945 274.204 365.917 274.221 365.789 274.257L365.675 274.504C365.825 274.504 365.92 274.599 365.964 274.791H365.127L365.035 274.471L364.888 274.618L364.938 274.794H362.88C362.897 274.73 362.905 274.677 362.905 274.638C362.905 274.532 362.866 274.432 362.785 274.34L362.652 274.521C362.702 274.593 362.73 274.66 362.738 274.724L362.746 274.782V274.791H362.518L362.31 274.346L362.187 274.504L362.315 274.791H361.968C361.959 274.752 361.951 274.721 361.945 274.702C361.906 274.599 361.87 274.518 361.828 274.46L361.692 274.618C361.748 274.713 361.787 274.788 361.806 274.846C361.834 274.93 361.848 275.016 361.848 275.108C361.798 275.158 361.731 275.2 361.648 275.233C361.567 275.269 361.489 275.286 361.42 275.286C361.242 275.286 361.15 275.175 361.15 274.952C361.15 274.73 361.164 274.766 361.189 274.663L361.2 274.621C361.175 274.671 361.147 274.73 361.122 274.802C361.072 274.944 361.047 275.063 361.047 275.152C361.047 275.241 361.08 275.347 361.147 275.417C361.214 275.486 361.3 275.522 361.403 275.522C361.506 275.522 361.706 275.467 361.87 275.353L361.887 275.319L361.976 275.033H362.315L362.388 274.941L362.426 275.033H362.777L362.819 274.941L362.874 275.033H364.916L364.983 274.955L365.008 275.033H365.962L366.031 274.952L366.07 275.033H367.119L367.133 274.994L367.172 274.883V274.874C367.208 274.771 367.227 274.696 367.227 274.643L367.183 274.012L367.23 274.031L367.313 273.84ZM366.042 274.449L366.129 274.438C366.181 274.438 366.206 274.454 366.206 274.49C366.206 274.527 366.19 274.546 366.154 274.591C366.137 274.529 366.101 274.482 366.042 274.449Z" fill="white"/>
<path d="M362.153 275.961C362.103 275.989 362.037 276.028 361.953 276.075C362.045 276.064 362.128 276.05 362.201 276.03C362.379 275.983 362.504 275.883 362.579 275.727L362.61 275.666C362.49 275.749 362.379 275.825 362.273 275.889L362.153 275.961Z" fill="white"/>
<path d="M361.953 275.842C362.02 275.834 362.07 275.829 362.101 275.823C362.209 275.801 362.301 275.767 362.368 275.726C362.462 275.667 362.532 275.589 362.579 275.495L362.61 275.434C362.54 275.484 362.484 275.523 362.443 275.55C362.226 275.681 362.064 275.778 361.953 275.842Z" fill="white"/>
<path d="M350.21 280.323H349.759C349.704 280.323 349.656 280.278 349.656 280.22V278.646H349.103C349.047 278.646 349 278.601 349 278.543V278.167C349 278.112 349.045 278.064 349.103 278.064H350.864C350.919 278.064 350.966 278.109 350.966 278.167V278.543C350.966 278.598 350.922 278.646 350.864 278.646H350.31V280.22C350.31 280.276 350.266 280.323 350.207 280.323H350.21ZM349.859 280.12H350.107V278.546C350.107 278.49 350.152 278.443 350.21 278.443H350.763V278.27H349.206V278.443H349.759C349.815 278.443 349.862 278.487 349.862 278.546V280.12H349.859Z" fill="white"/>
<path d="M353.133 280.323H352.568C352.535 280.323 352.507 280.309 352.487 280.281L351.953 279.566V280.22C351.953 280.276 351.909 280.323 351.85 280.323H351.4C351.344 280.323 351.297 280.278 351.297 280.22V278.167C351.297 278.112 351.341 278.064 351.4 278.064H351.85C351.906 278.064 351.953 278.109 351.953 278.167V278.746L352.34 278.115C352.359 278.084 352.39 278.067 352.426 278.067H352.921C352.957 278.067 352.991 278.087 353.01 278.12C353.03 278.151 353.027 278.192 353.01 278.223L352.457 279.127L353.213 280.162C353.236 280.192 353.238 280.234 353.222 280.267C353.205 280.301 353.169 280.323 353.13 280.323H353.133ZM352.618 280.12H352.93L352.251 279.194C352.226 279.16 352.226 279.116 352.245 279.08L352.738 278.27H352.482L351.942 279.152C351.937 279.163 351.925 279.174 351.917 279.18C351.923 279.185 351.928 279.191 351.931 279.196L352.618 280.117V280.12ZM351.503 280.12H351.747V279.258C351.747 279.224 351.761 279.196 351.786 279.177C351.761 279.158 351.747 279.13 351.747 279.099V278.27H351.503V280.12Z" fill="white"/>
<path d="M354.038 280.323H353.587C353.532 280.323 353.484 280.278 353.484 280.22V278.167C353.484 278.112 353.529 278.064 353.587 278.064H354.038C354.094 278.064 354.141 278.109 354.141 278.167V280.22C354.141 280.276 354.096 280.323 354.038 280.323ZM353.687 280.12H353.935V278.27H353.687V280.12Z" fill="white"/>
<path d="M355.69 280.323H355.239C355.184 280.323 355.137 280.278 355.137 280.22V279.291L354.438 278.223C354.419 278.192 354.416 278.151 354.433 278.117C354.45 278.084 354.486 278.064 354.522 278.064H355.07C355.106 278.064 355.139 278.084 355.156 278.115L355.462 278.615L355.771 278.115C355.79 278.084 355.821 278.067 355.857 278.067H356.402C356.438 278.067 356.474 278.087 356.491 278.12C356.508 278.153 356.508 278.192 356.486 278.226L355.787 279.294V280.223C355.787 280.278 355.743 280.326 355.684 280.326L355.69 280.323ZM355.342 280.12H355.587V279.26C355.587 279.241 355.593 279.222 355.604 279.205L356.216 278.27H355.918L355.554 278.866C355.534 278.896 355.504 278.913 355.468 278.913C355.431 278.913 355.398 278.893 355.381 278.863L355.02 278.267H354.719L355.331 279.202C355.342 279.219 355.348 279.238 355.348 279.258V280.117L355.342 280.12Z" fill="white"/>
<path d="M358.204 280.323H356.869C356.813 280.323 356.766 280.278 356.766 280.22V278.167C356.766 278.112 356.81 278.064 356.869 278.064H358.184C358.24 278.064 358.287 278.109 358.287 278.167V278.543C358.287 278.598 358.243 278.646 358.184 278.646H357.422V278.871H358.145C358.201 278.871 358.248 278.916 358.248 278.974V279.352C358.248 279.408 358.204 279.455 358.145 279.455H357.422V279.744H358.204C358.259 279.744 358.307 279.789 358.307 279.847V280.223C358.307 280.278 358.262 280.326 358.204 280.326V280.323ZM356.971 280.12H358.101V279.947H357.319C357.264 279.947 357.216 279.903 357.216 279.845V279.349C357.216 279.294 357.261 279.247 357.319 279.247H358.042V279.074H357.319C357.264 279.074 357.216 279.03 357.216 278.971V278.54C357.216 278.484 357.261 278.437 357.319 278.437H358.081V278.265H356.969V280.114L356.971 280.12Z" fill="white"/>
<path d="M359.799 280.323H359.348C359.292 280.323 359.245 280.278 359.245 280.22V278.646H358.689C358.633 278.646 358.586 278.601 358.586 278.543V278.167C358.586 278.112 358.63 278.064 358.689 278.064H360.452C360.508 278.064 360.555 278.109 360.555 278.167V278.543C360.555 278.598 360.511 278.646 360.452 278.646H359.899V280.22C359.899 280.276 359.854 280.323 359.796 280.323H359.799ZM359.448 280.12H359.696V278.546C359.696 278.49 359.74 278.443 359.799 278.443H360.352V278.27H358.792V278.443H359.348C359.404 278.443 359.451 278.487 359.451 278.546V280.12H359.448Z" fill="white"/>
<path d="M362.882 280.351C362.242 280.351 361.875 279.981 361.875 279.336V278.167C361.875 278.112 361.92 278.064 361.978 278.064H362.429C362.484 278.064 362.531 278.109 362.531 278.167V279.347C362.531 279.575 362.665 279.719 362.879 279.719C363.093 279.719 363.235 279.667 363.235 279.313V278.167C363.235 278.112 363.28 278.064 363.338 278.064H363.789C363.844 278.064 363.892 278.109 363.892 278.167V279.333C363.892 279.978 363.524 280.351 362.887 280.351H362.882ZM362.078 278.27V279.336C362.078 280.006 362.515 280.145 362.882 280.145C363.413 280.145 363.683 279.872 363.683 279.333V278.27H363.438V279.313C363.438 279.764 363.138 279.925 362.879 279.925C362.62 279.925 362.328 279.689 362.328 279.349V278.27H362.081H362.078Z" fill="white"/>
<path d="M366.386 280.324H365.935C365.88 280.324 365.832 280.28 365.832 280.221V279.242L365.526 279.645C365.507 279.67 365.476 279.684 365.446 279.684H365.376C365.346 279.684 365.315 279.67 365.296 279.645L364.992 279.245V280.224C364.992 280.28 364.948 280.327 364.889 280.327H364.439C364.383 280.327 364.336 280.282 364.336 280.224V278.171C364.336 278.116 364.38 278.068 364.439 278.068H364.831C364.862 278.068 364.892 278.082 364.912 278.107L365.41 278.761L365.907 278.107C365.927 278.082 365.958 278.068 365.988 278.068H366.38C366.436 278.068 366.483 278.113 366.483 278.171V280.224C366.483 280.28 366.439 280.327 366.38 280.327L366.386 280.324ZM366.038 280.121H366.286V278.271H366.047L365.499 278.992C365.46 279.042 365.376 279.042 365.337 278.992L364.787 278.271H364.545V280.121H364.792V278.942C364.792 278.897 364.82 278.858 364.862 278.844C364.903 278.83 364.951 278.844 364.976 278.881L365.415 279.462L365.857 278.881C365.885 278.847 365.93 278.83 365.971 278.844C366.013 278.858 366.041 278.897 366.041 278.942V280.121H366.038Z" fill="white"/>
<path d="M369.651 280.324H369.167C369.125 280.324 369.086 280.296 369.072 280.257L368.947 279.918H368.282L368.171 280.255C368.157 280.296 368.118 280.324 368.074 280.324H367.595C367.562 280.324 367.531 280.307 367.512 280.282C367.492 280.255 367.487 280.221 367.498 280.188L368.227 278.135C368.241 278.093 368.279 278.068 368.324 278.068H368.844C368.886 278.068 368.925 278.093 368.939 278.132L369.742 280.185C369.754 280.216 369.751 280.252 369.731 280.28C369.712 280.307 369.681 280.324 369.648 280.324H369.651ZM369.236 280.121H369.5L368.777 278.271H368.399L367.743 280.121H368.001L368.113 279.785C368.126 279.743 368.165 279.715 368.21 279.715H369.019C369.061 279.715 369.1 279.743 369.114 279.782L369.239 280.121H369.236ZM368.883 279.559H368.327C368.293 279.559 368.263 279.543 368.243 279.517C368.224 279.49 368.218 279.456 368.229 279.426L368.494 278.627C368.508 278.586 368.546 278.558 368.588 278.558C368.63 278.558 368.669 278.586 368.686 278.625L368.978 279.423C368.989 279.454 368.983 279.49 368.966 279.517C368.947 279.545 368.916 279.562 368.883 279.562V279.559ZM368.469 279.356H368.738L368.597 278.97L368.469 279.356Z" fill="white"/>
<path d="M371.506 280.323H370.126C370.071 280.323 370.023 280.278 370.023 280.22V278.167C370.023 278.112 370.068 278.064 370.126 278.064H370.577C370.633 278.064 370.68 278.109 370.68 278.167V279.744H371.506C371.562 279.744 371.609 279.789 371.609 279.847V280.223C371.609 280.278 371.564 280.326 371.506 280.326V280.323ZM370.229 280.12H371.403V279.947H370.577C370.521 279.947 370.474 279.903 370.474 279.845V278.267H370.226V280.117L370.229 280.12Z" fill="white"/>
<path d="M372.491 280.323H372.04C371.985 280.323 371.938 280.278 371.938 280.22V278.167C371.938 278.112 371.982 278.064 372.04 278.064H372.491C372.547 278.064 372.594 278.109 372.594 278.167V280.22C372.594 280.276 372.549 280.323 372.491 280.323ZM372.143 280.12H372.391V278.27H372.143V280.12Z" fill="white"/>
<path d="M353.9 282.984H353.728C353.672 282.984 353.625 282.94 353.625 282.881V281.677C353.625 281.622 353.67 281.574 353.728 281.574H354.37C354.426 281.574 354.473 281.619 354.473 281.677V281.833C354.473 281.889 354.429 281.936 354.37 281.936H354.003V282.067H354.37C354.426 282.067 354.473 282.111 354.473 282.169V282.325C354.473 282.381 354.429 282.428 354.37 282.428H354.003V282.887C354.003 282.943 353.959 282.99 353.9 282.99V282.984ZM353.828 282.239V282.25C353.828 282.25 353.831 282.247 353.834 282.245C353.834 282.245 353.831 282.242 353.828 282.239Z" fill="white"/>
<path d="M355.324 283.001C354.898 283.001 354.578 282.693 354.578 282.281C354.578 281.869 354.901 281.561 355.326 281.561C355.752 281.561 356.077 281.869 356.077 282.281C356.077 282.693 355.813 283.001 355.324 283.001ZM355.326 281.922C355.115 281.922 354.959 282.072 354.959 282.281C354.959 282.49 355.112 282.637 355.326 282.637C355.541 282.637 355.696 282.487 355.696 282.281C355.696 282.075 355.541 281.922 355.326 281.922Z" fill="white"/>
<path d="M356.949 283.001C356.523 283.001 356.203 282.693 356.203 282.281C356.203 281.869 356.526 281.561 356.951 281.561C357.377 281.561 357.702 281.864 357.702 282.281C357.702 282.698 357.438 283.001 356.949 283.001ZM356.951 281.922C356.74 281.922 356.584 282.072 356.584 282.281C356.584 282.49 356.737 282.637 356.951 282.637C357.166 282.637 357.318 282.487 357.318 282.281C357.318 282.075 357.163 281.922 356.951 281.922Z" fill="white"/>
<path d="M358.464 282.984H357.994C357.938 282.984 357.891 282.94 357.891 282.881V281.677C357.891 281.622 357.935 281.574 357.994 281.574H358.464C358.95 281.574 359.206 281.927 359.206 282.281C359.206 282.634 358.945 282.984 358.464 282.984ZM358.269 282.626H358.441C358.811 282.626 358.822 282.317 358.822 282.281C358.822 282.061 358.681 281.936 358.433 281.936H358.269V282.626Z" fill="white"/>
<path d="M360.338 282.984H360.165C360.11 282.984 360.062 282.94 360.062 282.881V281.677C360.062 281.622 360.107 281.574 360.165 281.574H360.811C360.866 281.574 360.914 281.619 360.914 281.677V281.833C360.914 281.889 360.869 281.936 360.811 281.936H360.441V282.067H360.811C360.866 282.067 360.914 282.111 360.914 282.169V282.325C360.914 282.381 360.869 282.428 360.811 282.428H360.441V282.887C360.441 282.943 360.396 282.99 360.338 282.99V282.984ZM360.266 282.239V282.25C360.266 282.25 360.268 282.247 360.271 282.245C360.271 282.245 360.268 282.242 360.266 282.239Z" fill="white"/>
<path d="M361.761 283.001C361.335 283.001 361.016 282.693 361.016 282.281C361.016 281.869 361.338 281.561 361.767 281.561C362.195 281.561 362.518 281.864 362.518 282.281C362.518 282.698 362.253 283.001 361.764 283.001H361.761ZM361.764 281.922C361.55 281.922 361.397 282.072 361.397 282.281C361.397 282.49 361.552 282.637 361.764 282.637C361.975 282.637 362.131 282.487 362.131 282.281C362.131 282.075 361.978 281.922 361.764 281.922Z" fill="white"/>
<path d="M363.735 282.984H363.529C363.496 282.984 363.462 282.968 363.443 282.937L363.284 282.69C363.173 282.514 363.118 282.473 363.081 282.464V282.881C363.081 282.937 363.037 282.984 362.978 282.984H362.806C362.75 282.984 362.703 282.94 362.703 282.881V281.677C362.703 281.622 362.748 281.574 362.806 281.574H363.109C363.412 281.574 363.607 281.747 363.607 282.014C363.607 282.281 363.56 282.247 363.474 282.322C363.54 282.398 363.596 282.487 363.66 282.589C363.707 282.665 363.735 282.703 363.805 282.801C363.827 282.831 363.838 282.884 363.818 282.918C363.802 282.951 363.774 282.982 363.735 282.982V282.984ZM362.906 282.275V282.283C362.906 282.283 362.909 282.281 362.912 282.278C362.912 282.278 362.909 282.275 362.906 282.272V282.275ZM363.079 282.103H363.087C363.143 282.103 363.184 282.092 363.204 282.072C363.218 282.058 363.223 282.039 363.223 282.008C363.223 281.972 363.223 281.927 363.087 281.927H363.079V282.103Z" fill="white"/>
<path d="M365.43 282.984H364.712C364.657 282.984 364.609 282.94 364.609 282.881V281.677C364.609 281.622 364.654 281.574 364.712 281.574H364.885C364.94 281.574 364.988 281.619 364.988 281.677V282.626H365.43C365.486 282.626 365.533 282.67 365.533 282.729V282.884C365.533 282.94 365.488 282.987 365.43 282.987V282.984Z" fill="white"/>
<path d="M365.929 281.574H365.759C365.702 281.574 365.656 281.62 365.656 281.677V282.881C365.656 282.938 365.702 282.984 365.759 282.984H365.929C365.986 282.984 366.032 282.938 366.032 282.881V281.677C366.032 281.62 365.986 281.574 365.929 281.574Z" fill="white"/>
<path d="M366.557 282.984H366.384C366.329 282.984 366.281 282.94 366.281 282.881V281.677C366.281 281.622 366.326 281.574 366.384 281.574H367.029C367.085 281.574 367.132 281.619 367.132 281.677V281.833C367.132 281.889 367.088 281.936 367.029 281.936H366.66V282.067H367.029C367.085 282.067 367.132 282.111 367.132 282.169V282.325C367.132 282.381 367.088 282.428 367.029 282.428H366.66V282.887C366.66 282.943 366.615 282.99 366.557 282.99V282.984ZM366.487 282.239V282.25C366.487 282.25 366.49 282.247 366.493 282.245C366.493 282.245 366.49 282.242 366.487 282.239Z" fill="white"/>
<path d="M368.085 282.984H367.384C367.329 282.984 367.281 282.94 367.281 282.881V281.677C367.281 281.622 367.326 281.574 367.384 281.574H368.068C368.124 281.574 368.171 281.619 368.171 281.677V281.833C368.171 281.889 368.127 281.936 368.068 281.936H367.66V282.097H368.049C368.105 282.097 368.152 282.142 368.152 282.2V282.356C368.152 282.411 368.107 282.459 368.049 282.459H367.66V282.628H368.085C368.141 282.628 368.188 282.673 368.188 282.731V282.887C368.188 282.943 368.143 282.99 368.085 282.99V282.984ZM367.487 282.27V282.281C367.487 282.281 367.49 282.278 367.493 282.275C367.493 282.275 367.49 282.272 367.487 282.27Z" fill="white"/>
<path d="M350.862 278.543H350.209V280.221H349.758V278.543H349.102V278.168H350.862V278.543Z" fill="#FAFAFA"/>
<path d="M352.333 279.133L353.131 280.221H352.567L351.849 279.258V280.221H351.398V278.168H351.849V279.1H351.855L352.425 278.168H352.92L352.333 279.133Z" fill="#FAFAFA"/>
<path d="M354.044 278.168H353.594V280.221H354.044V278.168Z" fill="#FAFAFA"/>
<path d="M355.23 279.261L354.516 278.168H355.064L355.456 278.813L355.851 278.168H356.396L355.681 279.261V280.221H355.23V279.261Z" fill="#FAFAFA"/>
<path d="M358.202 280.221H356.867V278.168H358.183V278.543H357.318V278.975H358.144V279.353H357.318V279.845H358.202V280.221Z" fill="#FAFAFA"/>
<path d="M360.454 278.543H359.797V280.221H359.347V278.543H358.688V278.168H360.454V278.543Z" fill="#FAFAFA"/>
<path d="M363.784 278.168V279.333C363.784 280.012 363.376 280.248 362.881 280.248C362.385 280.248 361.977 279.97 361.977 279.336V278.168H362.427V279.347C362.427 279.642 362.616 279.82 362.875 279.82C363.134 279.82 363.334 279.678 363.334 279.311V278.168H363.784Z" fill="#FAFAFA"/>
<path d="M365.992 278.168H366.385V280.221H365.934V278.938L365.447 279.584H365.378L364.891 278.938V280.221H364.438V278.168H364.832L365.414 278.93L365.992 278.168Z" fill="#FAFAFA"/>
<path d="M369.646 280.221H369.162L369.015 279.815H368.206L368.072 280.221H367.594L368.322 278.168H368.843L369.646 280.221ZM368.59 278.66L368.325 279.459H368.882L368.59 278.66Z" fill="#FAFAFA"/>
<path d="M371.505 280.221H370.125V278.168H370.576V279.845H371.505V280.221Z" fill="#FAFAFA"/>
<path d="M372.49 278.168H372.039V280.221H372.49V278.168Z" fill="#FAFAFA"/>
<path d="M354.369 281.833H353.899V282.167H354.369V282.323H353.899V282.882H353.727V281.678H354.369V281.833Z" fill="#FAFAFA"/>
<path d="M355.32 281.66C355.718 281.66 355.968 281.941 355.968 282.278C355.968 282.614 355.723 282.898 355.314 282.898C354.906 282.898 354.672 282.606 354.672 282.278C354.672 281.949 354.928 281.66 355.317 281.66M355.32 282.739C355.59 282.739 355.79 282.545 355.79 282.28C355.79 282.016 355.59 281.821 355.32 281.821C355.05 281.821 354.853 282.016 354.853 282.28C354.853 282.545 355.053 282.739 355.32 282.739Z" fill="#FAFAFA"/>
<path d="M356.961 281.66C357.358 281.66 357.609 281.941 357.609 282.278C357.609 282.614 357.364 282.898 356.958 282.898C356.552 282.898 356.312 282.606 356.312 282.278C356.312 281.949 356.568 281.66 356.961 281.66ZM356.961 282.739C357.23 282.739 357.431 282.545 357.431 282.28C357.431 282.016 357.23 281.821 356.961 281.821C356.691 281.821 356.491 282.016 356.491 282.28C356.491 282.545 356.691 282.739 356.961 282.739Z" fill="#FAFAFA"/>
<path d="M357.992 281.678H358.462C358.907 281.678 359.105 281.995 359.105 282.281C359.105 282.568 358.863 282.885 358.465 282.885H357.995V281.681L357.992 281.678ZM358.167 282.726H358.443C358.835 282.726 358.927 282.426 358.927 282.279C358.927 282.037 358.774 281.831 358.434 281.831H358.167V282.726Z" fill="#FAFAFA"/>
<path d="M360.817 281.833H360.344V282.167H360.817V282.323H360.344V282.882H360.172V281.678H360.817V281.833Z" fill="#FAFAFA"/>
<path d="M361.765 281.66C362.163 281.66 362.413 281.941 362.413 282.278C362.413 282.614 362.169 282.898 361.762 282.898C361.356 282.898 361.117 282.606 361.117 282.278C361.117 281.949 361.376 281.66 361.765 281.66ZM361.765 282.739C362.035 282.739 362.235 282.545 362.235 282.28C362.235 282.016 362.035 281.821 361.765 281.821C361.495 281.821 361.295 282.016 361.295 282.28C361.295 282.545 361.495 282.739 361.765 282.739Z" fill="#FAFAFA"/>
<path d="M363.113 281.678C363.358 281.678 363.508 281.808 363.508 282.014C363.508 282.22 363.436 282.259 363.308 282.309C363.416 282.381 363.486 282.493 363.577 282.643C363.627 282.726 363.658 282.768 363.742 282.882H363.536L363.377 282.635C363.219 282.387 363.146 282.359 363.057 282.359H362.985V282.882H362.812V281.678H363.116H363.113ZM362.985 282.203H363.096C363.283 282.203 363.335 282.109 363.333 282.006C363.333 281.892 363.263 281.825 363.096 281.825H362.985V282.203Z" fill="#FAFAFA"/>
<path d="M364.894 282.726H365.436V282.882H364.719V281.678H364.894V282.726Z" fill="#FAFAFA"/>
<path d="M365.938 281.678H365.766V282.882H365.938V281.678Z" fill="#FAFAFA"/>
<path d="M367.02 281.833H366.547V282.167H367.02V282.323H366.547V282.882H366.375V281.678H367.02V281.833Z" fill="#FAFAFA"/>
<path d="M368.067 281.833H367.555V282.198H368.048V282.354H367.555V282.726H368.084V282.882H367.383V281.678H368.067V281.833Z" fill="#FAFAFA"/>
<path d="M368.449 276.758H353.188V256H368.446V276.758H368.449ZM353.29 276.655H368.346V256.1H353.29V276.655Z" fill="white"/>
<path d="M215.5 280.604C214.12 285.731 211.152 285.561 208.518 285.561C196.604 285.731 50.2306 285.815 38.3158 285.858C33.6335 285.858 28.9094 285.858 23.7673 285.858C24.7288 288.781 27.488 288.993 29.3693 290.264C31.4178 291.663 33.7171 292.722 35.5984 294.29C36.2673 294.841 36.6018 296.747 36.1837 297.51C35.7239 298.358 34.2188 299.078 33.1737 298.993C31.7523 298.908 30.3308 298.188 28.993 297.595C20.6318 293.824 12.2706 289.968 3.90931 286.154C1.77719 285.18 -0.52214 284.036 0.104953 281.366C0.481209 279.671 1.94443 277.849 3.44945 276.875C5.49796 275.519 7.96452 274.883 10.2639 273.951C16.493 271.536 22.7639 269.163 28.993 266.705C31.7104 265.646 35.0549 263.4 36.9362 266.833C39.0683 270.731 35.1804 272.426 32.5466 274.163C31.3342 274.968 30.0382 275.731 27.5716 277.256C45.8409 280.095 197.774 278.231 215.5 280.561L215.5 280.604Z" fill="#041E42"/>
<path d="M451 283.396C452.38 278.269 455.348 278.439 457.982 278.439C469.896 278.269 616.269 278.185 628.184 278.142C632.866 278.142 637.591 278.142 642.733 278.142C641.771 275.219 639.012 275.007 637.131 273.736C635.082 272.337 632.783 271.278 630.902 269.71C630.233 269.159 629.898 267.253 630.316 266.49C630.776 265.642 632.281 264.922 633.326 265.007C634.748 265.092 636.169 265.812 637.507 266.405C645.868 270.176 654.229 274.032 662.591 277.846C664.723 278.82 667.022 279.964 666.395 282.634C666.019 284.329 664.556 286.151 663.051 287.125C661.002 288.481 658.535 289.117 656.236 290.049C650.007 292.464 643.736 294.837 637.507 297.295C634.79 298.354 631.445 300.6 629.564 297.167C627.432 293.269 631.32 291.574 633.953 289.837C635.166 289.032 636.462 288.269 638.928 286.744C620.659 283.905 468.726 285.769 451 283.439L451 283.396Z" fill="#041E42"/>
<path d="M595.864 442.509C593.577 416.92 574.418 395.086 553.792 393.792C553.663 394.482 553.318 395.259 553.49 395.906C556.209 406.823 551.29 414.806 543.652 421.667C537.697 427.018 531.052 431.333 523.156 433.318C520.955 433.879 518.625 434.267 516.338 434.31C507.621 434.396 503.177 429.348 504.126 420.588C504.773 414.72 507.664 409.93 511.375 405.615C518.064 397.934 526.306 392.454 535.885 388.959C537.784 388.269 539.682 387.665 542.487 386.715C533.943 375.971 463.021 367.376 451.5 362.5C453.571 362.5 455.729 362.112 457.671 362.543C457.671 361.5 523.156 368 544.86 382.616C547.061 384.903 549.218 386.413 552.714 386.5C566.306 386.715 577.309 392.799 586.198 402.767C592.93 410.318 597.892 418.905 601.085 428.528C601.862 430.901 602.725 433.274 604.063 437.201C608.895 430.124 613.038 424.127 617.137 418.129C617.612 418.344 618.087 418.56 618.604 418.776C618.691 420.114 619.295 421.667 618.82 422.789C616.663 428.226 614.376 433.663 611.83 438.927C609.5 443.76 606.695 448.334 604.235 453.124C601.862 457.827 599.316 458.863 596.252 455.109C590.945 448.55 586.328 441.473 581.624 434.483C580.977 433.533 581.668 431.678 581.754 430.254C583.307 430.599 585.422 430.426 586.328 431.376C589.478 434.612 592.239 438.28 595.691 442.465L595.864 442.509ZM547.277 393.447C531.57 396.165 519.445 403.458 511.677 417.309C510.038 420.286 508.873 424.213 511.677 426.543C513.619 428.183 517.417 428.528 520.178 428.096C530.491 426.5 538.517 420.718 545.205 412.994C549.909 407.514 551.333 401.386 547.32 393.447H547.277Z" fill="#041E42"/>
<path d="M595.864 130.88C593.577 156.468 574.418 178.302 553.792 179.597C553.663 178.906 553.318 178.13 553.49 177.482C556.209 166.565 551.29 158.583 543.652 151.722C537.697 146.371 531.052 142.056 523.156 140.071C520.955 139.51 518.625 139.122 516.338 139.079C507.621 138.992 503.177 144.041 504.126 152.8C504.773 158.669 507.664 163.459 511.375 167.774C518.064 175.454 526.306 180.934 535.885 184.43C537.784 185.12 539.682 185.724 542.487 186.673C533.943 197.418 463.021 206.012 451.5 210.888C453.571 210.888 455.729 211.277 457.671 210.845C457.671 211.888 523.156 205.389 544.86 190.773C547.061 188.486 549.218 186.975 552.714 186.889C566.306 186.673 577.309 180.589 586.198 170.622C592.93 163.07 597.892 154.483 601.085 144.861C601.862 142.488 602.725 140.114 604.063 136.188C608.895 143.264 613.038 149.262 617.137 155.26C617.612 155.044 618.087 154.829 618.604 154.613C618.691 153.275 619.295 151.722 618.82 150.6C616.663 145.163 614.376 139.726 611.83 134.462C609.5 129.629 606.695 125.055 604.235 120.265C601.862 115.562 599.316 114.526 596.252 118.28C590.945 124.839 586.328 131.916 581.624 138.906C580.977 139.855 581.668 141.711 581.754 143.135C583.307 142.79 585.422 142.962 586.328 142.013C589.478 138.777 592.239 135.109 595.691 130.923L595.864 130.88ZM547.277 179.942C531.57 177.223 519.445 169.931 511.677 156.08C510.038 153.103 508.873 149.176 511.677 146.846C513.619 145.206 517.417 144.861 520.178 145.292C530.491 146.889 538.517 152.671 545.205 160.395C549.909 165.875 551.333 172.002 547.32 179.942H547.277Z" fill="#041E42"/>
<path d="M71.136 442.509C73.4229 416.92 92.5817 395.086 113.208 393.792C113.337 394.482 113.682 395.259 113.51 395.906C110.791 406.823 115.71 414.806 123.348 421.667C129.303 427.018 135.948 431.333 143.844 433.318C146.045 433.879 148.375 434.267 150.662 434.31C159.379 434.396 163.823 429.348 162.874 420.588C162.227 414.72 159.336 409.93 155.625 405.615C148.936 397.934 140.694 392.454 131.115 388.959C129.216 388.269 127.318 387.665 124.513 386.715C133.057 375.971 203.979 367.376 215.5 362.5C213.429 362.5 211.271 362.112 209.329 362.543C209.329 361.5 143.844 368 122.14 382.616C119.939 384.903 117.782 386.413 114.286 386.5C100.694 386.715 89.6906 392.799 80.8017 402.767C74.0702 410.318 69.1079 418.905 65.9147 428.528C65.138 430.901 64.275 433.274 62.9374 437.201C58.1045 430.124 53.9621 424.127 49.8628 418.129C49.3881 418.344 48.9135 418.56 48.3957 418.776C48.3094 420.114 47.7053 421.667 48.1799 422.789C50.3374 428.226 52.6244 433.663 55.1703 438.927C57.5004 443.76 60.3052 448.334 62.7648 453.124C65.138 457.827 67.6839 458.863 70.7476 455.109C76.0551 448.55 80.6722 441.473 85.3756 434.483C86.0229 433.533 85.3324 431.678 85.2461 430.254C83.6927 430.599 81.5784 430.426 80.6722 431.376C77.5222 434.612 74.7606 438.28 71.3085 442.465L71.136 442.509ZM119.723 393.447C135.43 396.165 147.555 403.458 155.323 417.309C156.962 420.286 158.127 424.213 155.323 426.543C153.381 428.183 149.583 428.528 146.822 428.096C136.509 426.5 128.483 420.718 121.795 412.994C117.091 407.514 115.667 401.386 119.68 393.447H119.723Z" fill="#041E42"/>
<path d="M71.136 130.88C73.4229 156.468 92.5817 178.302 113.208 179.597C113.337 178.906 113.682 178.13 113.51 177.482C110.791 166.565 115.71 158.583 123.348 151.722C129.303 146.371 135.948 142.056 143.844 140.071C146.045 139.51 148.375 139.122 150.662 139.079C159.379 138.992 163.823 144.041 162.874 152.8C162.227 158.669 159.336 163.459 155.625 167.774C148.936 175.454 140.694 180.934 131.115 184.43C129.216 185.12 127.318 185.724 124.513 186.673C133.057 197.418 203.979 206.012 215.5 210.888C213.429 210.888 211.271 211.277 209.329 210.845C209.329 211.888 143.844 205.389 122.14 190.773C119.939 188.486 117.782 186.975 114.286 186.889C100.694 186.673 89.6906 180.589 80.8017 170.622C74.0702 163.07 69.1079 154.483 65.9147 144.861C65.138 142.488 64.275 140.114 62.9374 136.188C58.1045 143.264 53.9621 149.262 49.8628 155.26C49.3881 155.044 48.9135 154.829 48.3957 154.613C48.3094 153.275 47.7053 151.722 48.1799 150.6C50.3374 145.163 52.6244 139.726 55.1703 134.462C57.5004 129.629 60.3052 125.055 62.7648 120.265C65.138 115.562 67.6839 114.526 70.7476 118.28C76.0551 124.839 80.6722 131.916 85.3756 138.906C86.0229 139.855 85.3324 141.711 85.2461 143.135C83.6927 142.79 81.5784 142.962 80.6722 142.013C77.5222 138.777 74.7606 135.109 71.3085 130.923L71.136 130.88ZM119.723 179.942C135.43 177.223 147.555 169.931 155.323 156.08C156.962 153.103 158.127 149.176 155.323 146.846C153.381 145.206 149.583 144.861 146.822 145.292C136.509 146.889 128.483 152.671 121.795 160.395C117.091 165.875 115.667 172.002 119.68 179.942H119.723Z" fill="#041E42"/>
</svg>
