<svg width="181" height="180" viewBox="0 0 181 180" fill="none" xmlns="http://www.w3.org/2000/svg">
<path d="M44.5949 83.7492C44.5949 83.7492 28.1282 83.7492 28.3115 78.7659C28.7282 67.3992 36.5949 28.6159 36.5949 28.6159L35.8949 28.1992C35.0615 28.6326 34.2615 29.1159 33.4949 29.6659C27.5949 33.8826 24.3949 42.9659 21.8282 49.2659C19.9949 53.7492 18.3949 58.2992 16.7282 62.8492C16.0115 64.8159 15.4615 66.8492 14.7615 68.8326C14.0115 70.9826 12.1115 72.4325 11.3115 74.5492C10.1949 77.5159 13.8949 79.5825 17.7282 80.7992C19.7282 81.7325 21.9115 82.3992 24.0615 82.8659C27.3115 83.5826 30.5115 84.2659 33.8115 84.6659C34.8115 84.7826 44.2282 84.8826 44.1615 84.6826C44.2282 84.8826 44.4115 84.8992 44.5782 84.8326L44.6115 83.7326L44.5949 83.7492Z" fill="#5BC2E7"/>
<path d="M169.393 74.5648C168.593 72.4482 166.693 70.9982 165.943 68.8482C165.243 66.8648 164.693 64.8315 163.976 62.8648C162.309 58.3148 160.709 53.7648 158.876 49.2815C156.309 42.9815 153.109 33.9148 147.209 29.6815C146.443 29.1315 145.626 28.6482 144.809 28.2148L144.109 28.6148C144.109 28.6148 151.976 67.3982 152.393 78.7648C152.576 83.7482 136.109 83.7482 136.109 83.7482L136.143 84.8482C136.326 84.9148 136.493 84.8982 136.559 84.6982C136.493 84.8982 145.893 84.7982 146.909 84.6815C150.209 84.2815 153.409 83.5982 156.659 82.8815C158.809 82.4148 160.993 81.7482 162.993 80.8148C166.826 79.5982 170.526 77.5315 169.409 74.5648H169.393Z" fill="#5BC2E7"/>
<path d="M152.38 78.7816C151.963 67.415 144.096 28.6316 144.096 28.6316L144.796 28.2316C142.496 27.0316 139.996 26.2483 137.396 25.7816C135.746 25.4983 134.063 25.465 132.43 25.0816C130.846 24.6983 129.33 24.065 127.78 23.565C125.63 22.865 123.413 22.415 121.313 21.5816C119.73 20.965 118.046 20.615 116.43 20.0816C115.53 19.7816 114.596 19.4816 113.78 18.9816C113.163 18.5983 112.613 18.0483 111.913 17.8316C110.23 17.2983 108.596 18.315 107.213 19.1483C105.63 20.0983 103.98 20.7983 102.213 21.3316C97.9963 22.5816 93.5463 22.865 89.163 22.815C85.3796 22.765 81.3796 22.7483 77.6463 22.0983C75.863 21.7983 74.3463 20.865 72.8296 19.9316C71.313 18.9983 69.6296 17.8816 67.763 18.2816C66.7963 18.4816 66.1463 19.3983 65.1963 19.7483C63.2963 20.465 61.2796 20.8316 59.3963 21.5816C57.2963 22.415 55.0796 22.865 52.9296 23.565C51.3796 24.065 49.863 24.6983 48.263 25.0816C46.6296 25.4816 44.9463 25.4983 43.2963 25.7816C40.6963 26.2316 38.1963 27.0316 35.913 28.2316L36.613 28.6483C36.613 28.6483 28.7463 67.4316 28.3296 78.7983C28.1463 83.7816 44.613 83.7816 44.613 83.7816L44.5796 84.8816C44.4463 90.965 44.1796 97.065 44.3463 103.132C44.413 105.665 44.6463 108.132 44.963 110.582C45.2963 112.982 44.5796 115.532 43.1963 117.498C42.8463 117.982 42.6463 118.465 42.5963 118.948C42.5796 118.982 42.5463 119.015 42.5296 119.048C42.3463 120.498 43.0296 121.565 43.2796 123.032C43.5296 124.548 43.0296 125.882 42.3963 127.265C42.213 127.648 42.0463 128.048 41.863 128.432C40.163 135.615 39.113 142.798 38.213 150.115C38.0796 151.232 37.3963 154.265 38.313 155.265C40.1463 157.298 42.813 158.348 45.1963 159.648C51.763 163.248 59.2796 165.565 66.663 167.048C74.4796 168.615 82.2796 169.382 90.0963 169.465C90.1796 169.465 90.2796 169.465 90.3796 169.465C90.4796 169.465 90.563 169.465 90.6463 169.465C98.463 169.382 106.263 168.632 114.08 167.048C121.463 165.565 128.98 163.248 135.546 159.648C137.93 158.348 140.596 157.298 142.43 155.265C143.346 154.248 142.663 151.232 142.53 150.115C141.613 142.798 140.563 135.615 138.88 128.432C138.713 128.032 138.53 127.648 138.346 127.265C137.696 125.882 137.213 124.548 137.463 123.032C137.713 121.565 138.396 120.498 138.213 119.048C138.196 119.015 138.163 118.982 138.146 118.948C138.08 118.465 137.88 117.982 137.546 117.498C136.163 115.532 135.446 112.998 135.78 110.582C136.096 108.132 136.313 105.665 136.396 103.132C136.563 97.065 136.296 90.965 136.163 84.8816L136.13 83.7816C136.13 83.7816 152.596 83.7816 152.413 78.7983L152.38 78.7816Z" fill="#B2B2B2"/>
<path d="M36.5939 28.6299C35.2939 29.2966 34.0606 30.1299 32.9439 31.2299C27.6939 36.3799 24.8272 44.1466 22.1439 50.7633C19.5772 57.0799 18.0939 64.0633 15.1272 70.1966C13.6772 73.1966 11.0606 75.6133 14.6606 78.1466C18.4106 80.4133 23.3772 81.4299 27.4439 82.1799C33.2272 83.2466 38.7439 83.6299 44.6106 83.7633C44.6106 82.8133 44.6439 81.8799 44.6439 80.9299C44.7106 72.5299 44.1939 63.7633 45.3439 55.4133C45.4939 54.3633 45.6106 53.1966 45.6606 51.9633C45.0939 50.2799 44.4272 48.7299 43.5606 47.1633C42.7439 45.6799 42.1606 43.8966 41.1939 42.5299C41.1772 42.4966 41.2272 42.4466 41.2606 42.4633C42.3606 43.7633 43.0272 45.4466 44.0439 46.8299C44.7939 47.8633 45.4106 48.9133 45.7439 50.0799C45.8439 45.0133 45.1272 39.2799 42.8439 35.5633C40.5939 31.2799 38.3606 29.3966 36.5939 28.6133V28.6299Z" fill="#041E42"/>
<path d="M165.563 70.1995C162.597 64.0661 161.113 57.0828 158.547 50.7661C155.863 44.1495 152.997 36.3828 147.747 31.2328C146.63 30.1328 145.397 29.2995 144.097 28.6328C142.33 29.4161 140.097 31.2995 137.847 35.5828C135.563 39.2828 134.847 45.0328 134.947 50.0995C135.297 48.9328 135.897 47.8828 136.647 46.8495C137.647 45.4661 138.313 43.7828 139.43 42.4828C139.463 42.4495 139.513 42.5161 139.497 42.5495C138.53 43.9161 137.947 45.6995 137.13 47.1828C136.263 48.7495 135.597 50.2828 135.013 51.9828C135.08 53.2161 135.197 54.3661 135.347 55.4161C136.497 63.7661 135.98 72.5161 136.047 80.9328C136.047 81.8661 136.063 82.8161 136.08 83.7661C141.947 83.6328 147.463 83.2495 153.247 82.1828C157.297 81.4328 162.28 80.4161 166.03 78.1495C169.613 75.6161 167.013 73.2161 165.563 70.1995Z" fill="#041E42"/>
<path d="M144.109 28.6314C138.909 25.9814 132.526 26.2148 126.793 24.8481C126.759 24.8481 126.726 24.7648 126.793 24.7648C128.026 24.8648 129.226 24.9481 130.426 25.0314C126.493 23.7814 122.659 22.7314 118.759 21.2814C117.326 20.7481 115.209 20.5648 114.009 19.5814C113.193 18.8981 112.676 17.8148 111.226 18.1481C110.576 18.2981 110.009 18.6148 109.476 18.9981C109.476 19.0814 112.093 40.8148 90.376 40.8148C68.6594 40.8148 70.826 20.0314 70.826 20.0314C70.2927 19.5814 69.7594 19.1481 69.1594 18.8314C67.976 18.1981 66.8927 19.5981 65.8427 19.9981C64.5594 20.4814 63.2427 20.8148 61.9594 21.2981C58.0594 22.7481 54.226 23.7981 50.2927 25.0481C51.476 24.9648 52.6927 24.8814 53.926 24.7814C53.976 24.7814 53.9594 24.8481 53.926 24.8648C48.1927 26.2314 41.8094 25.9814 36.6094 28.6481C38.376 29.4314 40.6094 31.3148 42.8594 35.5981C42.8427 35.5648 42.9094 35.5148 42.926 35.5481C46.4594 39.4648 46.8927 46.7481 46.676 51.7648C46.3427 59.7148 45.726 67.6314 45.7094 75.5981C45.6927 84.5648 44.8094 93.7481 45.376 102.681C45.7927 109.048 46.9594 115.248 47.8927 121.481C47.9094 122.815 47.876 124.131 47.7927 125.465C47.0594 122.165 46.3427 118.915 45.7594 115.631C45.7594 115.665 45.7594 115.715 45.726 115.765C43.7594 118.531 43.7094 120.431 44.626 123.515C45.1094 125.115 43.076 128.065 42.6427 129.815C41.0594 136.448 40.026 143.131 39.3427 149.881C39.2427 150.931 38.676 154.165 39.726 154.898C41.1927 155.915 42.676 156.815 44.226 157.681C47.1594 159.281 50.126 160.581 53.226 161.865C59.8927 164.598 67.2427 166.315 74.4094 167.248C79.526 167.915 84.7094 168.331 90.376 168.465C96.0427 168.331 101.226 167.915 106.343 167.248C113.509 166.315 120.859 164.598 127.526 161.865C130.609 160.598 133.593 159.298 136.526 157.681C138.093 156.831 139.576 155.915 141.026 154.898C142.059 154.165 141.509 150.931 141.409 149.881C140.726 143.115 139.693 136.431 138.109 129.815C137.693 128.065 135.659 125.115 136.126 123.515C137.043 120.431 136.993 118.531 135.026 115.765C134.993 115.715 134.993 115.681 134.993 115.631C134.409 118.898 133.693 122.165 132.959 125.465C132.876 124.131 132.843 122.815 132.859 121.481C133.793 115.231 134.959 109.048 135.376 102.681C135.943 93.7481 135.059 84.5481 135.043 75.5981C135.043 67.6148 134.409 59.7148 134.076 51.7648C133.876 46.7648 134.293 39.4648 137.826 35.5481C137.859 35.5148 137.909 35.5814 137.893 35.5981C140.143 31.3148 142.376 29.4314 144.143 28.6481L144.109 28.6314Z" fill="white"/>
<path d="M90.3633 40.7971C112.08 40.7971 109.48 19.0638 109.463 18.9805C108.463 19.6805 107.563 20.6305 106.53 21.2305C103.43 23.0305 99.8467 23.0805 96.38 23.4971C92.1133 24.0305 87.7967 24.0805 83.5133 23.7638C79.7633 23.4805 75.83 23.2471 72.4967 21.2805C71.8967 20.9305 71.3467 20.4638 70.7967 19.9971C70.7967 19.9971 68.5967 40.7805 90.3467 40.7805L90.3633 40.7971Z" fill="#EDEDED"/>
<g style="mix-blend-mode:multiply">
<path d="M109.463 18.9971C108.463 19.6971 107.563 20.6471 106.53 21.2471C103.43 23.0471 99.8467 23.0971 96.38 23.5138C92.1133 24.0471 87.7967 24.0971 83.5133 23.7805C79.7633 23.4971 75.83 23.2638 72.4967 21.2971C71.8967 20.9471 71.3467 20.4805 70.7967 20.0138C70.7967 20.0138 68.5967 40.7971 90.3467 40.7971C112.097 40.7971 109.463 19.0638 109.447 18.9805L109.463 18.9971ZM90.3467 37.6638C71.0633 37.6638 73.0133 22.3638 73.0133 22.3638C73.4967 22.6971 73.98 23.0471 74.5133 23.2971C77.4633 24.7305 80.9467 24.9138 84.28 25.1138C88.08 25.3471 91.8967 25.3138 95.68 24.9138C98.7467 24.5971 101.93 24.5638 104.68 23.2471C105.597 22.8138 106.38 22.1138 107.28 21.5971C107.28 21.6471 109.597 37.6638 90.3467 37.6638Z" fill="#EFEFEF"/>
</g>
<g style="mix-blend-mode:multiply">
<path d="M53.9458 56.2333C53.9458 56.0667 53.9125 55.9167 53.9125 55.75C53.8625 57.3833 53.8292 59.0167 53.8125 60.65C53.9292 59.1667 53.9958 57.7 53.9458 56.2333Z" fill="#E0F1F3"/>
</g>
<g style="mix-blend-mode:multiply">
<path d="M60.683 24.2667C61.3163 23.9 61.9496 23.5333 62.5996 23.1833C62.8996 23.0167 63.1996 22.8667 63.4996 22.7C63.5496 22.6667 63.7163 22.5833 63.733 22.5667C63.883 22.4833 64.0163 22.4 64.1663 22.3C64.7496 21.9333 65.3163 21.5333 65.8496 21.1C66.233 20.7833 66.533 20.5 66.983 19.95C67.3163 19.5333 67.4663 19.3333 67.6496 19C66.0996 20.2 63.383 20.7667 61.983 21.3C58.083 22.75 54.2496 23.8 50.3163 25.05C51.4996 24.9667 52.7163 24.8833 53.9496 24.7833C53.9996 24.7833 53.983 24.85 53.9496 24.8667C46.783 26.5667 38.583 25.75 32.983 31.25C27.733 36.4 24.8663 44.1667 22.183 50.7833C19.6163 57.1 18.133 64.0833 15.1663 70.2167C13.7163 73.2167 11.0996 75.6333 14.6996 78.1667C18.4496 80.4333 23.4163 81.45 27.483 82.2C33.2663 83.2667 38.783 83.65 44.6496 83.7833C44.6496 82.8333 44.683 81.9 44.683 80.95C44.7496 72.55 44.233 63.7833 45.383 55.4333C45.533 54.3833 45.6496 53.2167 45.7163 52C45.1496 50.3167 44.483 48.7667 43.6163 47.2C42.7996 45.7167 42.2163 43.9333 41.2496 42.5667C41.233 42.5333 41.283 42.4833 41.3163 42.5C42.4163 43.8 43.083 45.4833 44.0996 46.8667C44.8496 47.9 45.4663 48.95 45.7996 50.1167C45.883 45.6167 45.3163 40.5833 43.583 36.9167C43.8663 38.6167 43.8163 40.4333 43.8996 42.05C43.9163 42.4833 43.333 42.7333 43.033 42.4167C41.683 40.95 39.883 39.8167 38.4163 38.4167C40.0996 42.8667 41.633 47.45 41.7996 52.2333C41.883 54.8833 41.683 57.5167 41.3996 60.1333C41.3996 60.75 41.333 61.4 41.2496 62.0667C40.8663 65.2 40.733 68.25 40.583 71.4C40.4996 73.2833 40.633 76.35 39.3163 77.9C38.2496 79.1667 36.6996 79.1833 35.1496 79.1667C32.483 79.1667 29.833 79.0833 27.1996 78.75C24.783 78.4333 16.9163 76.9167 17.283 73.1667C17.4996 71 19.0663 68.9667 19.933 67.0167C21.433 63.6333 22.7663 60.2 23.9996 56.7333C26.0996 50.8667 27.933 44.9 29.9663 39.0167C30.5996 37.1667 31.3996 35.0833 33.0663 33.9C33.3496 33.7 33.633 33.5167 33.933 33.35C35.7663 31.3 38.0996 29.75 41.0996 29.2167C42.7496 28.9167 44.4163 28.7833 46.083 28.8833C48.6163 29.05 51.483 29.6 53.7663 28.1333C55.5496 26.9833 57.1163 25.75 59.083 24.9C59.6163 24.6667 60.1663 24.4833 60.7163 24.3L60.683 24.2667Z" fill="#EFEFEF"/>
</g>
<g style="mix-blend-mode:multiply">
<path d="M165.564 70.199C162.597 64.0656 161.114 57.0823 158.547 50.7656C155.864 44.149 152.997 36.3823 147.747 31.2323C142.147 25.749 133.947 26.5656 126.78 24.849C126.747 24.849 126.714 24.7656 126.78 24.7656C128.014 24.8656 129.214 24.949 130.414 25.0323C126.48 23.7823 122.647 22.7323 118.747 21.2823C117.814 20.9323 116.314 20.5656 114.947 20.0156C115.264 20.3156 115.597 20.6156 115.93 20.899C116.03 20.9823 116.13 21.0656 116.23 21.149C115.93 20.899 116.23 21.149 116.28 21.1823C116.48 21.3323 116.68 21.499 116.897 21.649C117.28 21.9323 117.68 22.2156 118.08 22.499C118.914 23.0823 119.73 23.6656 120.614 24.1656C121.13 24.449 121.647 24.7156 122.164 24.9823C122.38 25.0823 122.597 25.199 122.83 25.299C122.864 25.299 122.914 25.3323 122.964 25.349C123.08 25.399 123.18 25.449 123.297 25.4823C123.38 25.5156 123.447 25.5656 123.53 25.6156C124.847 25.899 126.197 26.099 127.464 26.599C127.63 26.6656 127.764 26.749 127.897 26.8323C129.68 27.1323 131.464 27.4323 133.214 27.8323C134.614 28.149 136.014 28.5323 137.397 28.999C137.53 29.0156 137.664 29.049 137.78 29.0823C139.814 29.449 143.164 30.549 144.414 32.649C144.847 32.999 145.247 33.349 145.647 33.749C149.897 37.9656 151.797 43.949 153.68 49.499C154.864 52.9823 155.947 56.4823 156.947 60.0323C157.88 63.349 159.23 66.849 159.697 70.249C159.78 70.8823 159.797 71.4323 159.73 71.949C159.78 72.1156 159.83 72.2823 159.88 72.449C159.98 72.799 159.714 73.0323 159.43 73.0656C158.364 75.599 154.997 76.2156 152.097 77.1323C149.297 78.0156 143.764 79.4823 142.747 75.4323C141.93 72.1656 141.664 68.699 141.13 65.3823C140.564 61.7823 139.864 58.149 139.447 54.5156C138.847 49.1323 140.614 44.4156 143.43 40.0823C143.214 39.949 143.014 39.7823 142.864 39.5823C141.297 40.349 139.814 41.2823 138.347 42.2823C137.98 42.5323 137.464 42.1156 137.597 41.7156C138.397 39.2656 139.047 36.799 139.214 34.2323C132.497 37.4656 128.08 44.2823 126.747 51.5323C126.68 53.3323 126.747 55.149 126.864 56.9656C127.664 71.9323 128.43 87.2156 126.48 102.116C125.597 108.816 124.264 115.532 121.747 121.832C119.397 127.716 115.314 132.132 110.097 135.649C104.147 139.666 97.0636 142.166 90.3302 142.466C86.6302 142.532 83.3802 142.049 80.1636 140.966C80.0802 141.066 79.9636 141.116 79.7969 141.099C74.4469 140.649 69.3969 136.032 65.8969 131.799C60.5802 126.549 56.5969 119.916 54.5136 112.749C54.4636 112.582 54.5136 112.432 54.5969 112.316C53.9302 110.649 53.3136 108.966 52.7802 107.299C51.0969 101.966 50.5302 96.549 50.5636 91.0823C50.4136 89.7156 50.2802 88.349 50.2136 86.9823C49.8302 80.0156 50.6469 73.1823 50.8969 66.249C51.2469 56.799 50.3969 46.0156 44.6302 38.2656C46.5469 42.299 46.7969 47.7656 46.6302 51.7823C46.2969 59.7323 45.6802 67.649 45.6636 75.6156C45.6469 84.5823 44.7636 93.7656 45.3302 102.699C45.7469 109.066 46.9136 115.266 47.8469 121.499C47.8636 122.832 47.8302 124.149 47.7469 125.482C47.0136 122.182 46.2969 118.932 45.7136 115.649C45.7136 115.682 45.7136 115.732 45.6802 115.782C43.7136 118.549 43.6636 120.449 44.5802 123.532C45.0469 125.132 43.0302 128.082 42.5969 129.832C41.0136 136.466 39.9802 143.149 39.2969 149.899C39.1969 150.949 38.6302 154.182 39.6802 154.916C41.1469 155.932 42.6302 156.832 44.1802 157.699C47.1136 159.299 50.0802 160.599 53.1802 161.882C59.8469 164.616 67.1969 166.332 74.3636 167.266C79.4802 167.932 84.6636 168.349 90.3302 168.482C95.5136 168.349 101.18 167.932 106.297 167.266C113.464 166.332 120.814 164.616 127.48 161.882C130.564 160.616 133.547 159.316 136.48 157.699C138.047 156.849 139.514 155.932 140.98 154.916C142.014 154.182 141.464 150.949 141.364 149.899C140.68 143.132 139.647 136.449 138.064 129.832C137.647 128.082 135.614 125.132 136.08 123.532C136.997 120.449 136.947 118.549 134.98 115.782C134.947 115.732 134.947 115.699 134.947 115.649C134.364 118.916 133.647 122.182 132.914 125.482C132.83 124.149 132.797 122.832 132.814 121.499C133.747 115.249 134.914 109.066 135.33 102.699C135.897 93.7656 135.014 84.5656 134.997 75.6156C134.997 67.6323 134.364 59.7323 134.03 51.7823C133.83 46.7823 134.247 39.4823 137.78 35.5656C137.814 35.5323 137.864 35.599 137.847 35.6156C135.564 39.3156 134.847 45.0656 134.947 50.1323C135.297 48.9656 135.897 47.9156 136.647 46.8823C137.647 45.499 138.314 43.8156 139.43 42.5156C139.464 42.4823 139.514 42.549 139.497 42.5823C138.53 43.949 137.947 45.7323 137.13 47.2156C136.264 48.7823 135.597 50.3156 135.03 52.0156C135.097 53.249 135.214 54.399 135.364 55.449C136.514 63.799 135.997 72.549 136.064 80.9656C136.064 81.899 136.08 82.849 136.097 83.799C141.964 83.6656 147.48 83.2823 153.264 82.2156C157.314 81.4656 162.297 80.449 166.047 78.1823C169.63 75.649 167.03 73.249 165.58 70.2323L165.564 70.199Z" fill="#EFEFEF"/>
</g>
<g style="mix-blend-mode:multiply">
<path d="M45.246 50.8164C44.9793 55.9997 44.146 61.2164 43.4793 66.3164C43.196 68.4664 42.9127 70.6331 42.496 72.7664C42.1627 74.5497 41.9793 76.7331 41.096 78.3497C39.996 80.3664 37.9793 81.0164 35.7127 81.1997C26.4293 81.9831 17.0293 78.1497 15.646 77.0831C14.2793 76.0331 13.696 74.6164 13.546 73.0664C12.6127 74.8497 12.2627 76.4664 14.646 78.1664C18.396 80.4331 23.3627 81.4497 27.4293 82.1997C33.2127 83.2664 38.7293 83.6497 44.596 83.7831C44.6127 82.8331 44.6293 81.8997 44.6293 80.9497C44.696 72.5497 44.1793 63.7831 45.3293 55.4331C45.4793 54.3831 45.596 53.2164 45.6627 51.9997C45.5293 51.6164 45.396 51.2331 45.246 50.8497V50.8164Z" fill="#EFEFEF"/>
</g>
<g style="mix-blend-mode:multiply">
<path d="M45.313 48.9818C45.4797 49.3484 45.6297 49.7151 45.7464 50.0984C45.813 46.8151 45.513 43.2484 44.6797 40.1484C45.213 43.0651 45.3797 46.0318 45.313 48.9984V48.9818Z" fill="#E0F1F3"/>
</g>
<g style="mix-blend-mode:multiply">
<path d="M141.378 149.864C140.695 143.097 139.661 136.414 138.078 129.797C137.661 128.047 135.628 125.097 136.095 123.497C137.011 120.414 136.961 118.514 134.995 115.747C134.961 115.697 134.961 115.664 134.961 115.614C134.378 118.88 133.661 122.147 132.928 125.447C132.845 124.114 132.811 122.797 132.828 121.464C133.761 115.214 134.928 109.03 135.345 102.664C135.911 93.7302 135.028 84.5302 135.011 75.5802C135.011 67.5969 134.378 59.6969 134.045 51.7469C133.911 48.6469 134.045 44.6635 134.995 41.1469C134.995 41.0302 135.011 40.9135 135.028 40.7969C130.728 48.7969 131.895 58.9802 132.261 67.8469C132.811 80.9469 131.645 94.3802 129.328 107.264C127.245 118.847 123.011 130.33 115.245 139.38C111.845 143.33 107.911 146.864 103.145 149.08C103.011 149.147 102.861 149.197 102.728 149.264C114.278 147.28 125.445 141.064 132.878 132.147C133.245 131.714 133.778 132.197 133.728 132.647C132.611 140.947 129.945 149.247 123.278 154.764C115.261 161.397 104.211 164.547 93.9115 164.847C92.8948 164.88 91.3948 164.88 90.3615 164.847C81.1448 164.564 71.3115 162.447 63.4115 157.614C56.2281 153.214 46.8948 145.164 48.4781 135.747C48.5281 135.497 48.8615 135.297 49.0948 135.397C54.7948 137.547 58.8281 142.397 63.5281 146.047C65.4781 147.564 67.5115 148.964 69.5948 150.264C64.3781 144.964 59.4281 139.48 56.1448 132.664C51.2948 122.58 49.5948 111.93 49.0448 100.83C48.4615 89.0969 49.1281 77.3969 49.0448 65.6635C49.0115 59.7969 48.8115 53.8635 47.6281 48.0969C47.2781 46.3802 46.7615 44.7302 46.1448 43.1469C46.6781 46.1135 46.7615 49.2135 46.6615 51.7302C46.3281 59.6802 45.7115 67.5969 45.6948 75.5635C45.6781 84.5302 44.7948 93.7135 45.3615 102.647C45.7781 109.014 46.9448 115.214 47.8781 121.447C47.8948 122.78 47.8615 124.097 47.7781 125.43C47.0448 122.13 46.3281 118.88 45.7448 115.597C45.7448 115.63 45.7448 115.68 45.7115 115.73C43.7448 118.497 43.6948 120.397 44.6115 123.48C45.0781 125.08 43.0615 128.03 42.6281 129.78C41.0448 136.414 40.0115 143.097 39.3281 149.847C39.2281 150.897 38.6615 154.13 39.7115 154.864C41.1781 155.88 42.6448 156.78 44.2115 157.647C47.1448 159.247 50.1115 160.547 53.2115 161.83C59.8781 164.564 67.2281 166.28 74.3948 167.214C79.5115 167.88 85.1615 168.297 90.3615 168.43C95.5448 168.297 101.211 167.88 106.328 167.214C113.495 166.28 120.845 164.564 127.511 161.83C130.595 160.564 133.578 159.264 136.511 157.647C138.078 156.797 139.561 155.88 141.011 154.864C142.045 154.13 141.495 150.897 141.395 149.847L141.378 149.864Z" fill="#EFEFEF"/>
</g>
<g style="mix-blend-mode:multiply">
<path d="M165.564 70.1982C162.597 64.0648 161.114 57.0815 158.547 50.7648C157.697 48.6648 156.814 46.4315 155.864 44.2148C156.764 46.8482 157.514 49.5815 158.18 52.3315C158.947 55.4648 159.564 58.5982 160.114 61.7815C160.764 65.5148 161.847 68.6482 163.397 72.0982C165.214 76.1815 161.93 77.5648 158.514 78.7815C154.064 80.3648 148.947 82.1482 144.164 81.6982C142.197 81.5148 140.447 81.0648 139.097 79.5482C137.73 78.0315 138.13 74.9482 137.93 73.0982C137.164 65.8648 136.014 58.6648 135.23 51.4315C135.164 51.5982 135.114 51.7648 135.047 51.9482C135.114 53.1648 135.23 54.3315 135.38 55.3815C136.53 63.7315 136.014 72.4815 136.08 80.8982C136.08 81.8315 136.097 82.7815 136.114 83.7315C141.98 83.5982 147.497 83.2148 153.28 82.1482C157.33 81.3982 162.314 80.3815 166.064 78.1148C169.647 75.5815 167.047 73.1815 165.597 70.1648L165.564 70.1982Z" fill="#EFEFEF"/>
</g>
<g style="mix-blend-mode:screen" opacity="0.5">
<path d="M32.146 39.6142C28.1127 48.1476 25.9627 57.8642 22.846 66.7976C22.696 67.2309 23.246 67.1142 23.3793 66.8309C27.5627 58.0476 28.8127 48.5642 32.3127 39.6309C32.3627 39.4976 32.1793 39.5309 32.146 39.6309V39.6142Z" fill="#E0F1F3"/>
</g>
<g style="mix-blend-mode:screen" opacity="0.5">
<path d="M67.4636 128.881C62.3303 121.781 58.0636 113.964 55.597 105.648C52.8803 96.4643 52.9803 88.0643 53.2303 78.5977C53.4303 70.8977 53.4636 63.1477 53.947 55.4643C54.3636 48.631 52.347 43.6643 48.9303 37.731C48.8636 37.631 48.7136 37.7643 48.747 37.8477C50.497 41.5643 52.2803 45.431 52.8803 49.481C53.497 53.631 52.6303 58.2143 52.6303 62.4143C52.6303 70.2477 52.0636 78.081 51.847 85.8977C51.397 101.998 57.1803 116.181 67.247 129.064C67.3136 129.148 67.5136 128.981 67.447 128.881H67.4636Z" fill="#E0F1F3"/>
</g>
<g style="mix-blend-mode:screen" opacity="0.5">
<path d="M142.929 45.3473C142.946 45.2307 142.779 45.2807 142.746 45.3473C140.246 54.114 142.062 63.514 143.562 72.3307C143.629 72.7307 144.129 72.3307 144.129 72.0807C143.929 63.264 141.479 54.114 142.929 45.3307V45.3473Z" fill="#E0F1F3"/>
</g>
<path d="M91.9629 39.983H91.8796C89.0796 39.933 85.9462 38.283 83.0296 35.2997C78.4129 30.5664 75.4962 23.7997 75.5962 18.0997L75.6296 17.9164L78.2796 11.783L78.5296 11.733C78.5962 11.733 84.8796 10.533 91.3796 10.4664C95.9129 10.433 99.5129 10.9497 102.046 12.0164L102.163 12.0664L102.246 12.1664C102.28 12.2164 103.18 13.433 103.33 14.8997C103.43 15.933 100.846 32.3164 95.7129 37.983C94.5296 39.2997 93.2629 39.983 91.9462 39.983H91.9629Z" fill="#B2B2B2"/>
<path d="M76.5793 18.198C76.5126 23.5646 79.3959 30.148 83.7293 34.6146C86.4459 37.4146 89.3459 38.9646 91.8793 38.998L91.9459 39.498V38.998C92.9459 38.998 93.9626 38.4313 94.9459 37.348C99.8626 31.948 102.429 15.998 102.329 14.9813C102.229 14.0146 101.713 13.148 101.513 12.848C99.1126 11.8813 95.6959 11.398 91.3793 11.4313C85.7126 11.4813 80.2126 12.398 78.9793 12.6313L76.5793 18.198Z" fill="#EDEDED"/>
<g style="mix-blend-mode:multiply">
<path d="M100.96 22.7809C93.0599 21.8476 84.9099 21.4642 77.2266 23.0976C78.3099 27.2142 80.6432 31.4476 83.7266 34.6142C86.4432 37.4142 89.3432 38.9642 91.8766 38.9976L91.9432 39.4976V38.9976C92.9432 38.9976 93.9599 38.4309 94.9432 37.3476C97.7099 34.3142 99.7266 27.9476 100.943 22.7809H100.96Z" fill="#EFEFEF"/>
</g>
<g style="mix-blend-mode:multiply">
<g style="mix-blend-mode:multiply">
<path d="M65.9457 30.9322C66.479 32.8155 67.1123 34.6655 67.729 36.5155C68.779 39.6322 69.5957 42.8489 71.0457 45.8155C72.3623 48.4655 74.1457 51.6155 76.479 53.5655C76.9457 53.9655 77.4957 54.3155 78.1123 54.3989C80.3957 54.7322 81.2623 52.5822 82.0123 50.9322C82.8123 49.1322 84.129 47.8489 85.529 46.4822C86.729 45.3155 87.8957 44.1322 89.0457 42.9155C90.4123 41.4655 90.2123 41.9655 91.3957 43.0322C93.0457 44.5322 94.7957 45.9322 96.3123 47.5655C97.9623 49.3322 99.2623 51.4155 100.662 53.3489C101.296 54.2155 101.912 54.5155 102.979 54.1155C104.912 53.3989 105.962 51.6322 106.962 49.9989C108.479 47.4989 109.496 44.7822 110.779 42.1822C112.246 39.1989 113.262 36.0655 114.296 32.9322C115.129 30.3989 115.812 27.7822 115.879 25.1155C115.929 23.1322 115.879 20.8322 114.246 19.3989C112.179 17.5822 109.529 16.2822 107.029 15.1322C106.896 15.0489 106.779 14.9489 106.662 14.8822C105.846 14.3822 104.896 14.0655 104.079 13.5489C103.729 13.3322 103.396 13.2489 103.079 13.2822C101.896 14.5989 101.562 18.1322 101.246 19.0989C100.412 21.7655 99.3457 24.3822 98.329 26.9989C97.3623 29.4822 96.1623 31.8322 94.6957 34.1155C93.3957 36.1489 91.4457 37.9822 90.1957 40.0655C88.9457 37.9822 86.9957 36.1489 85.6957 34.1155C84.229 31.8322 83.0457 29.4989 82.0623 26.9989C81.0457 24.3822 79.9957 21.7655 79.1457 19.0989C78.8457 18.1489 78.4957 14.6155 77.3123 13.2822C76.9957 13.2322 76.6623 13.3322 76.3123 13.5489C75.4957 14.0655 74.5457 14.3822 73.729 14.8822C73.6123 14.9489 73.4957 15.0322 73.3623 15.1322C71.0957 16.1655 68.8457 17.3155 66.8957 18.8322C64.4957 20.6989 64.5623 23.4655 64.8957 26.1655C65.0957 27.7655 65.4457 29.3489 65.8957 30.9155L65.9457 30.9322Z" fill="#E2E2E2"/>
</g>
</g>
<path d="M67.0951 29.2657C67.5951 31.1157 68.2118 32.949 68.7951 34.7657C69.7951 37.849 70.5618 40.999 71.9618 43.9324C73.2118 46.549 74.9118 49.649 77.1284 51.5657C77.5784 51.949 78.0951 52.299 78.6784 52.3823C80.8618 52.699 81.6784 50.599 82.3951 48.949C83.1618 47.1824 84.4118 45.9157 85.7618 44.5657C86.9118 43.4157 88.0284 42.249 89.1118 41.049C90.4118 39.6324 90.2284 40.1157 91.3618 41.1657C92.9451 42.6324 94.6118 44.0324 96.0451 45.6324C97.6118 47.3824 98.8451 49.4157 100.195 51.3324C100.795 52.199 101.395 52.4824 102.412 52.099C104.262 51.3824 105.262 49.6657 106.212 48.0324C107.662 45.5657 108.628 42.899 109.845 40.3324C111.245 37.399 112.212 34.299 113.212 31.199C114.012 28.699 114.662 26.1157 114.712 23.4824C114.762 21.5324 114.712 19.2657 113.145 17.849C111.178 16.0657 108.662 14.7657 106.262 13.649C106.145 13.5657 106.028 13.4824 105.912 13.399C105.128 12.899 104.228 12.599 103.445 12.0824C103.112 11.8657 102.795 11.7824 102.495 11.8157C101.378 13.1157 101.045 16.599 100.762 17.549C99.9618 20.1824 98.9618 22.7657 97.9784 25.3324C97.0451 27.7824 95.9118 30.099 94.5118 32.349C93.2618 34.349 91.4118 36.149 90.2284 38.2157C89.0451 36.149 87.1784 34.349 85.9451 32.349C84.5451 30.099 83.4118 27.7824 82.4951 25.3324C81.5284 22.7657 80.5118 20.1657 79.7118 17.549C79.4284 16.599 79.0951 13.1157 77.9784 11.8157C77.6784 11.7824 77.3618 11.8657 77.0284 12.0824C76.2451 12.599 75.3451 12.899 74.5618 13.399C74.4451 13.4657 74.3284 13.549 74.2118 13.649C72.0618 14.6657 69.9118 15.799 68.0451 17.299C65.7618 19.1324 65.8118 21.8657 66.1451 24.5324C66.3284 26.1157 66.6784 27.6657 67.0951 29.2157V29.2657Z" fill="#5BC2E7"/>
<path d="M92.062 37.2816C95.5286 33.5649 97.8953 28.5649 99.3953 23.9149C99.862 22.4649 101.945 16.7649 102.295 15.2982C102.545 14.1982 102.445 13.0816 103.912 13.3649C107.079 13.9816 109.745 16.4982 112.295 18.3149C112.495 18.4482 112.645 18.6316 112.779 18.8316C115.329 20.9482 113.379 26.8982 112.662 29.3149C111.395 33.6649 109.729 37.9482 107.962 42.1316C106.612 45.3149 105.229 48.9482 102.412 51.2149C102.262 51.3316 102.062 51.3649 101.895 51.3316C100.629 51.6316 99.412 48.4649 98.6953 47.4816C96.6286 44.6316 93.9953 42.3316 91.5787 39.7982C91.3787 39.5149 91.162 39.2149 90.9453 38.9482C91.3286 38.3982 91.6953 37.8482 92.062 37.2982V37.2816Z" fill="#041E42"/>
<path d="M67.6981 18.816C67.8315 18.616 67.9815 18.4326 68.1815 18.2993C70.7315 16.4993 73.3981 13.9826 76.5648 13.3493C78.0315 13.066 77.9148 14.1826 78.1815 15.2826C78.5315 16.7493 80.6148 22.4493 81.0815 23.8993C82.5981 28.5493 84.9481 33.5493 88.4148 37.266C88.7815 37.816 89.1481 38.366 89.5315 38.916C89.3148 39.1826 89.0981 39.4826 88.8981 39.766C86.4815 42.2993 83.8481 44.5993 81.7815 47.4493C81.0648 48.4326 79.8481 51.5993 78.5815 51.2993C78.4148 51.3326 78.2148 51.2993 78.0648 51.1826C75.2315 48.916 73.8481 45.2826 72.5148 42.0993C70.7315 37.916 69.0815 33.6326 67.8148 29.2826C67.1148 26.8826 65.1481 20.9326 67.6981 18.7993V18.816Z" fill="#041E42"/>
<g style="mix-blend-mode:multiply">
<path d="M112.779 18.816C112.645 18.616 112.495 18.4326 112.295 18.2993C109.745 16.4993 107.079 13.9826 103.912 13.3493C102.445 13.066 102.562 14.1826 102.295 15.2826C101.945 16.7493 99.862 22.4493 99.3953 23.8993C97.8786 28.5493 95.5286 33.5493 92.062 37.266C91.6953 37.816 91.3286 38.366 90.9453 38.916C91.162 39.1826 91.3787 39.4826 91.5787 39.766C93.9953 42.2993 96.6286 44.5993 98.6953 47.4493C99.412 48.4326 100.629 51.5993 101.895 51.2993C102.062 51.3326 102.262 51.2993 102.412 51.1826C105.229 48.916 106.629 45.2826 107.962 42.0993C109.745 37.916 111.395 33.6326 112.662 29.2826C113.362 26.8826 115.329 20.9326 112.779 18.7993V18.816ZM109.029 29.0826C108.379 32.8326 107.045 36.4993 105.595 39.9993C104.845 41.816 103.995 44.4826 101.929 45.1826C100.295 45.7326 98.0286 43.1493 97.112 42.1493C96.0786 41.016 94.0953 39.0493 94.762 37.2993C96.1453 33.716 98.312 30.5326 100.245 27.2326C101.129 23.6826 101.995 20.0826 104.012 17.016C104.179 16.766 104.495 16.666 104.762 16.816C109.145 19.316 109.812 24.466 109.012 29.0826H109.029Z" fill="#EFEFEF"/>
</g>
<g style="mix-blend-mode:multiply">
<path d="M88.4347 37.2816C84.9681 33.5649 82.6014 28.5649 81.1014 23.9149C80.6347 22.4649 78.5514 16.7649 78.2014 15.2982C77.9347 14.1982 78.0514 13.0816 76.5847 13.3649C73.4181 13.9816 70.7514 16.4982 68.2014 18.3149C68.0014 18.4482 67.8514 18.6316 67.7181 18.8316C65.1681 20.9482 67.1181 26.8982 67.8347 29.3149C69.1014 33.6649 70.7681 37.9482 72.5347 42.1316C73.8847 45.3149 75.2681 48.9482 78.0847 51.2149C78.2347 51.3316 78.4347 51.3649 78.6014 51.3316C79.8681 51.6316 81.0847 48.4649 81.8014 47.4816C83.8681 44.6316 86.5014 42.3316 88.9181 39.7982C89.1181 39.5149 89.3347 39.2149 89.5514 38.9482C89.1681 38.3982 88.8014 37.8482 88.4347 37.2982V37.2816ZM78.4681 44.9982C75.0014 47.8316 72.7347 38.5316 72.0681 36.7149C70.6181 32.7316 68.1181 27.9316 68.3181 23.5816C68.4347 21.1482 69.5847 19.4982 71.2847 17.9816C72.2681 16.9482 73.4347 16.1316 74.4014 16.8149C76.7347 18.4482 77.6014 22.7149 78.5847 25.1982C80.9014 31.1816 84.6681 39.9149 78.4681 44.9816V44.9982Z" fill="#EFEFEF"/>
</g>
<g style="mix-blend-mode:multiply">
<path d="M98.1797 58.4492H129.93V86.5992C129.93 86.5992 115.563 93.7826 114.963 93.7826C114.363 93.7826 98.8797 88.4992 98.8797 88.4992L98.1964 58.4492H98.1797Z" fill="#EFEFEF"/>
</g>
<path d="M98.5781 58.8984H129.528V86.3484C129.528 86.3484 115.511 93.3484 114.928 93.3484C114.345 93.3484 99.2448 88.1984 99.2448 88.1984L98.5781 58.8984Z" fill="#5BC2E7"/>
<path d="M99.4453 60.0977H128.662V85.9977C128.662 85.9977 115.445 92.6143 114.879 92.6143C114.312 92.6143 100.079 87.7477 100.079 87.7477L99.4453 60.0977Z" fill="#041E42"/>
<g style="mix-blend-mode:multiply">
<path d="M99.4453 60.0977L100.079 87.7477C100.079 87.7477 114.329 92.6143 114.879 92.6143C115.429 92.6143 128.662 85.9977 128.662 85.9977V60.0977H99.4453ZM122.579 73.7977C122.245 77.531 121.479 81.081 118.312 83.4477C115.362 85.6643 111.162 87.331 107.412 86.981C104.029 86.6643 101.145 85.231 100.912 81.581C100.645 77.2477 99.9953 63.1977 100.562 62.231C101.129 61.2643 103.195 61.431 104.079 61.4977C106.379 61.6977 116.245 61.881 118.912 61.7643C120.329 61.7143 121.795 61.7143 122.745 62.881C123.529 63.8477 122.745 71.5143 122.562 73.781L122.579 73.7977Z" fill="#C6D6E0"/>
</g>
</svg>
