<svg width="207" height="207" viewBox="0 0 207 207" fill="none" xmlns="http://www.w3.org/2000/svg">
<path d="M133.669 190.61L16.6953 161.151V60.4688L133.669 89.9279V190.61Z" fill="#D2A47C"/>
<g style="mix-blend-mode:multiply">
<path d="M134.455 89.3145L16.9636 60.2578L16.6953 60.4686V60.9478L133.669 91.212V89.9278L134.455 89.3145Z" fill="#D2A47C"/>
</g>
<path d="M133.672 190.612L190.137 146.413V45.75L133.672 89.9292V190.612Z" fill="#C49571"/>
<path d="M125.373 147.371L110.672 143.883V142.023L125.373 145.531V147.371Z" fill="#572700"/>
<path d="M125.373 148.635L110.672 145.128V144.438L125.373 147.945V148.635Z" fill="#572700"/>
<path d="M125.373 150.151L110.672 146.643V145.953L125.373 149.461V150.151Z" fill="#572700"/>
<path d="M125.373 151.721L110.672 148.213V147.523L125.373 151.031V151.721Z" fill="#572700"/>
<path d="M125.373 153.408L110.672 149.901V149.211L125.373 152.718V153.408Z" fill="#572700"/>
<path d="M125.373 154.979L110.672 151.471V150.781L125.373 154.289V154.979Z" fill="#572700"/>
<path d="M125.373 158.064L110.672 154.556V152.984L125.373 156.473V158.064Z" fill="#572700"/>
<path d="M125.373 162.131L110.672 158.624V157.934L125.373 161.441V162.131Z" fill="#572700"/>
<path d="M125.373 160.311L110.672 156.823V156.133L125.373 159.621V160.311Z" fill="#572700"/>
<path d="M125.373 163.643L110.672 160.135V159.445L125.373 162.953V163.643Z" fill="#572700"/>
<path d="M125.373 165.198L110.672 161.71V161.02L125.373 164.527V165.198Z" fill="#572700"/>
<path d="M125.373 166.901L110.672 163.393V162.703L125.373 166.211V166.901Z" fill="#572700"/>
<path d="M125.373 168.471L110.672 164.963V164.273L125.373 167.781V168.471Z" fill="#572700"/>
<path d="M125.373 170.524L110.672 167.017V165.445L125.373 168.953V170.524Z" fill="#572700"/>
<path d="M125.373 172.821L110.672 169.314V167.742L125.373 171.25V172.821Z" fill="#572700"/>
<path d="M125.373 175.968L110.672 172.46V170.371L125.373 173.879V175.968Z" fill="#572700"/>
<path d="M190.135 45.7482L73.1603 16.2891L16.6953 60.4682L133.67 89.9274L190.135 45.7482Z" fill="#E4C09D"/>
<g style="mix-blend-mode:multiply">
<path d="M125.276 29.4395L124.164 29.1328L68.9453 73.7528L70.3253 74.1361L125.276 29.4395Z" fill="#D2A47C"/>
</g>
<path d="M59.8359 101.867L78.5234 106.256L78.9834 134.201L60.2959 129.812L59.8359 101.867Z" fill="#54C0E8"/>
<path d="M59.1645 135.468L80.267 140.413L79.6728 105.031L58.5703 100.086L59.1645 135.468ZM78.6378 133.033L60.5636 128.798L60.1228 102.271L78.197 106.507L78.6378 133.033Z" fill="#002169"/>
<path d="M73.155 118.122C73.04 118.026 72.9058 117.93 72.9442 117.738V117.47C73.1933 117.508 73.4042 117.758 73.5383 118.045C73.615 118.218 73.6533 118.428 73.7492 118.524C73.8258 118.122 73.6533 117.489 73.9983 117.336C74.0942 117.393 74.1708 117.47 74.2283 117.585C74.2283 117.585 74.2475 117.777 74.2092 117.873C74.1133 117.873 73.8833 117.528 73.845 117.834C73.8067 118.179 73.8642 118.62 73.7683 118.927C73.5767 118.62 73.5383 118.198 73.1933 118.045C73.1933 118.045 73.155 118.045 73.155 118.103" fill="#002169"/>
<path d="M76.6346 116.952C76.6346 117.047 76.5962 117.239 76.4812 117.201C76.4237 117.086 76.3088 116.99 76.2321 117.067C76.1554 117.105 76.0787 117.143 76.0596 117.239C76.2129 117.412 76.4046 117.507 76.5963 117.507C76.7113 117.431 76.8071 117.297 76.9412 117.258C76.9221 117.776 76.4429 117.852 76.1746 118.102C76.1746 118.025 76.1746 117.872 76.2129 117.795C76.1171 117.699 75.9638 117.642 75.9062 117.45C75.9062 117.067 76.0787 116.722 76.3854 116.664C76.4812 116.683 76.6346 116.779 76.6346 116.932" fill="#002169"/>
<path d="M76.3002 118.967C76.4344 119.657 76.626 120.328 76.8177 120.999V121.229C76.6644 121.133 76.5877 120.846 76.4344 120.692V120.98L76.9327 125.292C77.0477 126.385 77.3352 127.707 76.9327 128.608C76.9135 128.282 76.8944 127.88 76.8752 127.516C76.4727 124.832 76.2427 122.111 75.8594 119.408C75.9169 119.14 76.0319 118.852 76.2044 118.68L76.3002 118.967Z" fill="#002169"/>
<path d="M74.8669 120.498C74.8669 120.326 74.9819 119.943 74.8094 119.693C74.7519 119.617 74.6944 119.598 74.6177 119.598C74.3302 119.674 74.2727 120.019 74.2727 120.345C74.3302 120.613 74.5794 120.613 74.7135 120.805C74.2727 121.648 73.4294 121.993 72.7969 122.626C73.0077 122.703 73.161 122.588 73.3335 122.473C73.851 122.07 74.5794 121.61 74.771 120.863C74.8669 120.901 74.9435 121.016 75.0202 121.093C75.0585 121.035 75.0969 120.901 75.0777 120.767C75.0202 120.633 74.9244 120.575 74.8285 120.479M74.7902 120.422L74.4069 120.115C74.4644 119.923 74.771 119.943 74.7902 120.211V120.403V120.422Z" fill="#002169"/>
<path d="M74.7494 123.643C74.8452 123.662 74.8835 123.547 74.9219 123.489C74.9602 123.7 74.9219 123.93 74.7494 124.007C74.596 124.007 74.481 123.834 74.4235 123.681C74.2894 123.202 74.4619 122.704 74.596 122.32C74.6344 122.78 74.3469 123.451 74.7494 123.643Z" fill="#002169"/>
<path d="M75.8584 126.324C75.5518 125.653 75.0151 124.982 74.4593 124.656C74.2101 124.618 74.1143 124.714 73.9801 125.097C73.8268 125.538 73.9226 126.151 74.1909 126.592C72.9834 126.86 71.8143 127.244 70.9518 128.413C70.6068 128.835 70.2043 129.41 69.6676 129.352C69.4184 129.237 69.2459 128.547 69.2268 128.087C69.2268 128.087 69.2268 128.01 69.2076 128.01C69.1693 128.01 69.1309 128.145 69.1309 128.145C69.0734 128.547 69.1309 128.969 69.3034 129.352C69.4759 129.678 69.7251 129.946 69.9934 130.023C70.1851 130.061 70.3193 130.061 70.4534 129.927L71.5076 128.643C72.2743 127.665 73.3859 127.665 74.3634 127.282C74.4401 127.263 74.4976 127.244 74.5359 127.282C74.5934 127.435 74.6126 127.435 74.6701 127.531C74.7659 127.474 74.8426 127.282 74.8234 127.205C75.0534 127.148 75.1876 127.186 75.5134 127.11C75.7243 126.918 75.8393 126.63 75.8584 126.305M74.5743 126.496C74.5551 126.477 74.4784 126.381 74.4209 126.285C74.3059 126.036 74.1143 125.749 74.1143 125.5C74.2293 125.442 74.3634 125.576 74.4784 125.691C74.7084 125.883 74.9193 126.151 75.0726 126.42C74.9193 126.477 74.6318 126.554 74.5743 126.535" fill="#002169"/>
<path d="M74.443 129.453C74.5197 129.568 74.443 129.74 74.4238 129.817C74.3855 129.893 74.2705 129.932 74.1938 129.855C74.1172 129.817 74.0405 129.702 74.0213 129.587C73.9255 129.069 74.1747 128.609 74.328 128.188C74.328 128.59 74.0788 128.954 74.1555 129.414C74.1938 129.529 74.2705 129.568 74.3663 129.548C74.3663 129.548 74.4238 129.548 74.4622 129.433" fill="#002169"/>
<path d="M63.1315 109.457C63.0165 109.457 62.9206 109.247 62.8056 109.304C62.7098 109.649 62.8823 110.167 62.729 110.531C62.5373 110.301 62.4415 109.956 62.2498 109.707C62.2498 109.879 62.1156 109.745 62.0773 109.707C61.9815 109.611 61.8473 109.553 61.8281 109.304C61.8281 109.189 61.8281 109.074 61.8856 108.997C62.2498 109.17 62.499 109.707 62.6906 110.147C62.6906 109.764 62.6906 109.304 62.7673 108.978C62.8823 108.825 63.0548 109.017 63.1315 109.17C63.1315 109.17 63.1698 109.304 63.1315 109.496" fill="#002169"/>
<path d="M64.0365 105.434C64.0748 105.357 64.094 105.146 64.0173 105.051C63.9215 104.993 63.8831 104.955 63.864 104.916C63.864 104.878 63.979 104.629 63.864 104.265C63.8065 104.092 63.7106 104.035 63.5956 104.016C63.3081 104.092 63.289 104.399 63.2698 104.706C63.2698 104.974 63.5381 105.031 63.6723 105.185C63.6723 105.281 63.6723 105.357 63.6148 105.415C63.0206 106.066 62.2348 106.354 61.6406 106.986C62.2348 107.044 63.3656 106.22 63.8065 105.281C63.8065 105.281 63.9981 105.434 64.0556 105.434M63.3848 104.533C63.4231 104.341 63.6915 104.322 63.7298 104.591C63.7298 104.667 63.7298 104.725 63.7298 104.801C63.5956 104.744 63.4806 104.648 63.3656 104.533" fill="#002169"/>
<path d="M76.801 131.594C77.0118 131.229 76.8393 130.712 76.8201 130.214C76.8585 130.022 77.031 130.29 77.146 130.252V130.003C77.146 129.945 77.146 129.907 77.0885 129.849C76.9926 129.792 76.8968 129.715 76.8393 129.811C76.6668 130.194 76.8201 130.75 76.801 131.21C76.6093 130.789 76.3601 130.175 75.9385 130.022V130.444C75.9193 130.731 76.1876 130.789 76.3601 130.865C76.5518 131.095 76.5901 131.344 76.7243 131.594C76.7243 131.594 76.7435 131.632 76.801 131.632" fill="#002169"/>
<path d="M69.1917 105.627C68.7126 105.838 68.1567 105.876 67.6776 106.068C66.7001 106.47 65.5884 106.489 64.7067 107.199C64.7834 107.39 65.0134 107.371 65.0709 107.563C65.0709 107.678 65.0709 107.774 65.0326 107.85C64.8984 107.812 64.6684 107.678 64.5726 107.486C64.4576 106.796 64.9176 106.585 65.3776 106.432L68.5976 105.474C68.8659 105.397 69.0576 105.378 69.2684 105.32C69.3259 105.435 69.2684 105.55 69.2109 105.627" fill="#002169"/>
<path d="M75.1365 106.797C75.2132 107.2 75.0407 107.66 74.9449 107.852C74.6957 108.561 74.1015 109.04 73.7949 109.711C73.8524 108.887 74.3699 108.254 74.8107 107.641C74.8299 107.545 74.7724 107.43 74.6957 107.392C73.9099 107.2 73.2007 107.449 72.4916 107.602C71.5332 107.928 70.479 107.986 69.5782 108.465C69.6165 108.637 69.7699 108.695 69.8849 108.772C70.364 109.021 70.7857 109.481 71.3032 109.538C71.0924 109.155 70.594 109.174 70.4982 108.676C70.7474 108.484 71.1307 108.427 71.4565 108.733C71.4757 108.867 71.3607 108.887 71.2265 108.887C71.1499 108.733 70.9774 108.714 70.8432 108.657C70.9007 109.059 71.3224 109.117 71.5524 109.366C71.5907 109.442 71.6099 109.5 71.6099 109.577C71.1882 109.998 70.5557 109.442 70.0957 109.174C71.1499 110.497 72.2807 111.819 73.0857 113.314C73.584 114.1 73.9674 115.058 74.6766 115.557C75.3857 115.825 75.8074 115.077 76.3632 114.809C76.5357 114.713 76.7082 114.617 76.8999 114.809C77.0341 114.962 76.9765 115.097 76.9382 115.307C76.8999 115.461 76.8615 115.652 76.7465 115.672C76.689 115.518 76.5165 115.537 76.4399 115.557C75.654 115.672 75.1557 117.186 74.1974 116.208C73.5649 115.461 73.124 114.579 72.6065 113.736C72.6832 114.292 72.8366 115.173 72.3957 115.442C72.1082 115.633 71.7824 115.806 71.3799 115.633C71.0349 115.442 70.7282 114.962 70.6707 114.541V114.311L70.4982 114.272C68.984 114.694 67.144 115.863 65.4382 114.1C65.1507 113.736 65.0549 113.276 64.844 112.892C63.8665 112.835 63.5982 114.081 63.1765 114.809C63.0424 115.02 62.8315 115.058 62.5824 115.001C61.7965 114.656 61.7007 113.487 61.6624 112.624C61.6624 112.356 61.624 111.953 61.739 111.723C61.739 112.49 61.739 113.333 62.0649 114.042C62.199 114.311 62.3715 114.426 62.5632 114.445C63.0232 114.215 63.2532 113.64 63.5215 113.18C63.7707 112.605 64.2882 111.877 64.9399 112.068C65.1124 112.279 65.0932 112.528 65.2082 112.739C65.7066 113.697 66.4924 114.177 67.2974 114.196C68.5815 114.272 69.674 113.774 70.824 113.448C70.9007 113.717 70.7474 114.042 70.9774 114.311C71.1499 114.579 71.3415 114.752 71.5907 114.809C71.8974 114.809 72.1849 114.694 72.4532 114.522C72.1465 113.372 71.3032 112.356 70.6515 111.302C70.1532 110.573 69.6357 109.787 69.1949 109.04C69.1182 108.331 69.2716 107.909 69.6166 107.622C71.0157 107.066 72.4916 106.74 74.0057 106.529C74.2932 106.491 74.5615 106.433 74.9065 106.529C74.9065 106.529 75.079 106.625 75.0982 106.74" fill="#002169"/>
<path d="M72.9906 108.692C73.0481 108.903 72.9906 109.133 72.8564 109.133C72.7414 109.133 72.6839 109.018 72.6264 108.884C72.4731 108.386 72.7222 108.06 72.8564 107.715C72.9139 108.06 72.4731 108.462 72.8947 108.788C72.9522 108.788 72.9714 108.692 72.9714 108.692" fill="#002169"/>
<path d="M64.785 108.828C64.7467 109.116 64.555 109.327 64.3633 109.461L63.75 108.733C63.7692 108.483 63.9417 108.311 64.0758 108.119L64.1333 108.023C64.3633 108.234 64.5742 108.56 64.785 108.809" fill="#002169"/>
<path d="M68.2174 109.211C68.1407 109.288 68.0066 109.288 67.8916 109.211L67.7191 109C67.6232 109.115 67.5657 109.307 67.3932 109.307C67.2207 109.307 67.0674 109.134 67.0291 108.924C66.9332 108.559 66.8182 108.272 67.0099 108.023C67.0674 108.31 67.0866 108.636 67.2782 108.904C67.4316 109 67.5466 108.904 67.6232 108.809C67.6232 108.502 67.4699 108.234 67.5849 107.984C67.7574 108.08 67.6807 108.885 68.1407 108.943C68.1599 108.636 67.8724 108.272 68.0641 108.004C68.1599 108.387 68.4666 108.904 68.2174 109.249" fill="#002169"/>
<path d="M64.9526 110.492C64.8951 110.741 64.7034 110.933 64.5309 111.125L63.8984 110.3C64.0134 110.07 64.0901 109.84 64.2818 109.668C64.5309 109.86 64.7418 110.205 64.9526 110.492Z" fill="#002169"/>
<path d="M73.4495 110.15L73.4111 110.437C73.3153 110.437 73.2386 110.303 73.1428 110.341C73.0086 110.705 73.1428 111.28 73.0661 111.702C72.932 111.606 72.8745 111.376 72.7786 111.185L72.472 110.744C72.3953 110.782 72.2611 110.686 72.1653 110.629C72.0503 110.495 72.0695 110.265 72.1078 110.111C72.2036 110.073 72.3378 110.188 72.4528 110.284C72.7211 110.571 72.8745 110.935 72.9895 111.28C73.0278 110.878 72.932 110.341 73.047 109.977C73.1428 109.881 73.3153 109.9 73.4111 110.111" fill="#002169"/>
<path d="M76.3397 112.431C76.3205 112.718 76.0714 112.929 75.918 113.102C75.688 112.833 75.4964 112.603 75.3047 112.277C75.4389 112.067 75.5347 111.817 75.7264 111.664L76.3397 112.431Z" fill="#002169"/>
<path d="M75.1721 112.298C75.1338 112.585 74.9613 112.777 74.7888 112.949C74.5779 112.7 74.3671 112.413 74.1562 112.144C74.2713 111.895 74.3671 111.665 74.5588 111.512C74.7696 111.723 74.9804 112.01 75.1721 112.298Z" fill="#002169"/>
<path d="M69.6317 111.488C69.6892 111.565 69.6317 111.776 69.5933 111.871C69.5167 112.044 69.325 112.025 69.2292 111.871C68.9608 111.335 69.2867 110.875 69.3633 110.453C69.3633 110.779 69.21 111.105 69.2867 111.488C69.3442 111.661 69.44 111.641 69.5358 111.661C69.5358 111.661 69.6508 111.641 69.6508 111.507" fill="#002169"/>
<path d="M67.3389 112.335C67.1472 112.028 66.9364 111.376 66.553 111.396C66.5147 111.357 66.4572 111.319 66.4189 111.261C66.3805 111.089 66.3614 110.84 66.4955 110.782C66.8597 110.974 67.1472 111.453 67.3005 111.875C67.3389 111.434 67.2622 110.897 67.4922 110.629C67.6072 110.629 67.7414 110.725 67.7989 110.859L67.7605 111.166C67.6647 111.108 67.588 111.031 67.473 111.031C67.3197 111.357 67.4539 111.913 67.3964 112.296C67.3964 112.296 67.3964 112.335 67.358 112.335" fill="#002169"/>
<path d="M75.2354 114.422C75.2354 114.595 75.1587 114.767 75.0245 114.844C74.852 114.844 74.7945 114.672 74.7754 114.518C74.6795 114.001 74.8712 113.579 75.082 113.215C75.0629 113.579 74.6029 114.077 75.082 114.518C75.1587 114.518 75.2354 114.422 75.2354 114.422Z" fill="#002169"/>
<path d="M75.7648 110.512C75.8606 110.569 75.899 110.454 75.9373 110.416C75.9373 110.569 75.8798 110.876 75.7265 110.857C75.5731 110.78 75.5348 110.665 75.5156 110.473C75.5348 110.186 75.554 109.86 75.7456 109.688C75.7265 109.918 75.4965 110.224 75.784 110.512" fill="#002169"/>
<path d="M65.012 116.13C65.127 116.187 65.2228 116.015 65.2803 115.919C65.2803 116.13 65.242 116.302 65.1462 116.455C65.0503 116.513 64.9353 116.494 64.8395 116.379C64.4178 115.804 64.7628 114.999 64.9928 114.52C64.9545 114.98 64.437 115.593 65.012 116.13Z" fill="#002169"/>
<path d="M67.622 115.477C67.6795 115.879 67.2386 116.128 67.5453 116.55C67.6795 116.646 67.6986 116.454 67.737 116.416C67.7753 116.607 67.737 116.799 67.6603 116.933C67.5453 117.029 67.2578 116.799 67.2578 116.569C67.2578 116.109 67.3728 115.764 67.6028 115.477" fill="#002169"/>
<path d="M72.2643 117.703C72.3218 117.856 72.2643 117.971 72.1876 118.048C71.1718 118.278 70.1751 118.604 69.1976 118.987C69.0059 119.064 68.8334 119.198 68.6993 119.39C68.7951 119.62 69.2168 119.639 69.1018 119.946L69.0443 120.08C68.8909 120.003 68.6993 119.946 68.5843 119.735C68.5651 119.447 68.5843 119.16 68.7376 118.968C69.4468 118.451 70.2709 118.278 71.0568 118.01C71.4593 117.914 71.8426 117.818 72.2451 117.722" fill="#002169"/>
<path d="M63.937 116.534C63.8603 116.476 63.7645 116.4 63.6687 116.438C63.6687 116.438 63.6687 116.457 63.6687 116.496C63.707 116.898 63.7837 117.281 63.7453 117.703C63.7453 117.741 63.6687 117.703 63.6112 117.626C63.4195 117.416 63.3045 116.879 63.017 116.994C62.902 116.994 62.7486 116.898 62.7295 116.726C62.6911 116.457 62.7678 116.323 62.7678 116.323C63.1128 116.419 63.4195 116.917 63.6495 117.32C63.6687 116.936 63.4195 116.323 63.707 116.074C63.8028 116.055 63.9945 116.112 63.9753 116.266C63.9753 116.266 63.9753 116.438 63.9562 116.534" fill="#002169"/>
<path d="M71.9333 119.597L71.8758 119.923C71.7992 119.885 71.7225 119.77 71.6267 119.808C71.4542 120.076 71.6458 120.575 71.6075 120.92L71.5692 121.265C71.3967 121.035 71.3008 120.651 71.0708 120.364C71.0133 120.517 70.86 120.364 70.7642 120.268C70.6492 120.096 70.6875 119.846 70.7258 119.693C71.0517 119.789 71.3008 120.268 71.435 120.632C71.4542 120.172 71.3775 119.636 71.665 119.367C71.7608 119.386 71.8758 119.463 71.9333 119.578" fill="#002169"/>
<path d="M62.7714 118.352C62.6948 118.812 62.5031 119.195 62.3689 119.617C62.2156 120.268 61.9856 121.016 62.2539 121.802C62.3306 121.955 62.4648 122.07 62.5989 122.127C62.8289 122.166 62.8673 122.012 62.9823 121.878C63.0589 122.472 62.9823 123.124 62.4073 123.009C62.2348 122.971 62.0814 122.76 62.0048 122.587C61.7748 122.012 61.8898 121.399 61.9473 120.843C62.1006 119.942 62.3306 119.061 62.7523 118.352" fill="#002169"/>
<path d="M65.0856 119.867C64.6448 119.829 64.779 119.216 64.6065 118.909C64.4148 119.216 64.7981 119.714 64.4915 119.906C64.0123 119.906 64.2423 119.235 64.0698 118.89C63.859 119.158 64.0315 119.714 64.1081 119.963C64.1848 120.117 64.2615 120.308 64.4148 120.308C64.5298 120.308 64.6065 120.212 64.6448 120.097C64.7023 119.944 64.7981 120.097 64.8556 120.193C64.9515 120.308 65.124 120.308 65.2006 120.155C65.3156 119.752 65.124 119.254 64.9898 118.852C64.8365 119.158 65.0665 119.503 65.124 119.829C65.124 119.829 65.124 119.867 65.0856 119.867Z" fill="#002169"/>
<path d="M66.1791 121.305C66.2366 121.458 66.2941 121.515 66.3899 121.477C66.4474 121.439 66.4474 121.4 66.4666 121.362C66.5049 121.515 66.4666 121.784 66.3324 121.841C66.1982 121.88 66.0832 121.707 66.0641 121.535C66.0066 121.055 66.1024 120.634 66.2174 120.27C66.2557 120.595 66.1216 120.94 66.1791 121.305Z" fill="#002169"/>
<path d="M64.8399 121.704V121.992C64.7441 121.915 64.6674 121.781 64.5716 121.838C64.3991 122.107 64.5332 122.605 64.4566 122.95C64.5907 123.122 64.8016 123.237 64.8974 123.487C64.8974 123.64 64.9549 123.832 64.6866 123.774C64.3991 123.736 64.1691 123.697 63.9966 123.889C64.0732 124.886 64.4757 125.959 64.3607 126.917C64.3607 125.767 63.7857 124.828 63.9391 123.582C64.0732 123.429 64.2457 123.391 64.4374 123.391C64.3799 123.314 64.3416 123.257 64.2457 123.237C64.2266 123.237 64.2266 123.314 64.2074 123.333C64.0924 122.988 64.4374 122.988 64.1691 122.49C63.8816 121.877 63.7282 122.394 63.6516 121.992C63.6324 121.877 63.5749 121.589 63.7282 121.551C64.0732 121.8 64.2457 122.26 64.3991 122.662C64.4949 122.452 64.3991 122.145 64.4374 121.838C64.4374 121.704 64.4374 121.57 64.5716 121.455C64.6866 121.378 64.8591 121.57 64.8782 121.723" fill="#002169"/>
<path d="M67.0457 123.068C66.9115 123.796 66.279 124.294 65.6848 124.371C65.4357 124.467 65.4932 124.965 65.5123 125.272C66.164 125.693 67.0648 125.655 67.5823 126.403C67.2948 126.69 66.969 126.958 66.6048 127.093C65.3973 127.476 63.9982 128.511 62.599 127.016C61.9473 126.268 61.9473 125.272 62.024 124.409C62.1007 124.064 62.1773 123.796 62.2732 123.374C62.0623 123.738 62.024 124.045 61.9282 124.428C61.7557 125.559 61.7748 127.016 62.6948 128.032C63.2123 128.588 63.9598 128.703 64.5348 128.664C65.3782 128.53 66.164 128.243 66.8923 127.783L67.0648 127.687C67.7165 127.361 68.0423 126.594 67.889 125.693C67.6398 125.023 67.0073 125.08 66.5665 124.773C66.969 124.39 67.1032 123.796 67.314 123.317C67.3715 123.432 67.3715 123.566 67.3907 123.681C67.5057 124.275 67.9082 125.042 68.4448 125.253C69.7098 125.713 70.6682 125.003 71.5307 124.218C71.6073 124.045 71.6265 123.777 71.6073 123.547C70.9557 124.064 70.2657 124.658 69.3265 124.313C68.694 123.93 68.4257 123.068 68.2723 122.358C68.3682 122.263 68.5023 122.167 68.6173 122.109C69.1157 121.918 69.959 121.553 70.6107 122.263C70.2465 121.668 69.8057 121.323 69.2307 121.266C68.7515 121.17 68.349 121.515 68.1382 121.956C67.8123 122.531 68.0423 123.528 68.2915 124.179C67.659 123.643 67.544 122.857 67.4482 121.937C67.3715 120.365 67.2373 118.774 67.0265 117.203C67.0073 117.049 66.9882 116.819 66.8923 116.762C66.8348 116.992 66.7582 117.203 66.7582 117.49L67.084 121.918C67.084 121.918 67.1223 122.78 67.0457 123.106" fill="#002169"/>
<path d="M70.1118 127.131C70.1118 127.323 70.0927 127.668 69.8627 127.668C69.7285 127.63 69.6327 127.476 69.5943 127.342C69.5368 126.805 69.786 126.556 69.9968 126.23C70.0352 126.575 69.4602 126.997 69.9968 127.342C70.0543 127.342 70.131 127.131 70.131 127.131" fill="#002169"/>
<path d="M70.4561 116.458C70.4178 116.745 70.1878 116.899 70.0536 117.109C69.7853 116.841 69.5745 116.649 69.3828 116.343C69.4786 116.094 69.6128 115.844 69.8045 115.672L70.4561 116.439V116.458Z" fill="#002169"/>
<path d="M69.2679 116.377C69.1912 116.683 69.0379 116.856 68.8654 117.048C68.6162 116.856 68.3671 116.549 68.1562 116.281C68.2713 116.07 68.3479 115.783 68.5779 115.648C68.8271 115.859 69.0187 116.147 69.2487 116.377" fill="#002169"/>
<path d="M66.1407 133.973C66.1791 133.819 66.2174 133.685 66.1982 133.57C66.1982 133.398 66.1407 133.206 66.0257 133.033L65.8532 133.302C65.9491 133.474 65.9874 133.647 65.9874 133.8L62.1541 132.899V132.458C62.1541 132.343 62.1349 132.267 62.0966 132.228C62.0774 132.19 62.0199 132.152 61.9241 132.133C61.8282 132.113 61.7132 132.094 61.5791 132.113C61.2724 132.133 61.0424 132.171 60.9274 132.248C60.8124 132.305 60.7357 132.42 60.6782 132.612C60.6207 132.765 60.6016 132.861 60.6016 132.918L60.7166 134.126L60.7741 134.03L60.8507 133.858L60.8891 133.762C60.8891 133.647 60.9082 133.608 60.9082 133.589L60.8316 132.708L60.9657 132.612C61.0041 132.573 61.0616 132.554 61.1382 132.535V132.803L62.0007 133.608L62.1157 133.321L66.0449 134.241C66.0832 134.164 66.0832 134.126 66.0832 134.126C66.0832 134.068 66.1024 134.03 66.1216 133.992L66.1407 133.973ZM61.9624 133.091L61.3107 132.478C61.4832 132.42 61.6366 132.401 61.8282 132.458C62.0199 132.516 61.9241 132.497 61.9432 132.516C61.9624 132.535 61.9624 132.593 61.9816 132.65V133.091H61.9624Z" fill="white"/>
<path d="M65.4665 134.586L65.3131 134.395L65.1406 134.548L65.3706 134.855L65.524 134.72L65.6581 134.912L65.8306 134.759L65.6006 134.452L65.4665 134.586Z" fill="white"/>
<path d="M67.8294 133.07V133.108C67.791 133.147 67.791 133.166 67.791 133.185C67.791 133.204 67.791 133.243 67.8294 133.281L67.8677 133.338L68.0019 133.511L68.0594 133.453L68.6535 134.393L67.0052 134.009C66.9669 133.837 66.9094 133.664 66.8135 133.492L66.6219 133.722C66.6794 133.818 66.7177 133.913 66.756 134.009C66.7944 134.105 66.8327 134.201 66.8519 134.297C66.7944 134.45 66.7369 134.565 66.641 134.642C66.5452 134.757 66.4302 134.776 66.296 134.757C66.1619 134.738 66.1427 134.699 66.0469 134.642V134.699C66.066 134.699 66.1427 134.814 66.1427 134.814C66.2577 135.025 66.3727 135.159 66.4685 135.178C66.5644 135.198 66.6985 135.121 66.8135 134.929C66.8902 134.776 66.9669 134.603 66.986 134.45L68.7877 134.872L68.9027 134.642L68.941 134.565C68.941 134.527 68.9602 134.508 68.9602 134.488C68.9602 134.45 68.9219 134.373 68.8644 134.278L68.1169 133.108L69.056 132.993L69.1902 132.648L67.9827 132.783L67.8485 133.128L67.8294 133.07Z" fill="white"/>
<path d="M71.7931 133.4L71.5631 133.094L71.3906 133.247L71.6206 133.554L71.7931 133.4Z" fill="white"/>
<path d="M71.6767 133.915L71.8108 134.088L71.9833 133.934L71.7725 133.647L71.6192 133.762L71.485 133.57L71.3125 133.724L71.5425 134.03L71.6767 133.915Z" fill="white"/>
<path d="M75.4743 136.926L75.3401 136.734L75.1484 136.888L75.3976 137.194L75.5318 137.079L75.6659 137.252L75.8384 137.118L75.6276 136.811L75.4743 136.926Z" fill="white"/>
<path d="M78.6754 135.142L78.4646 134.97C78.4071 134.931 78.3879 134.912 78.3688 134.874C78.3496 134.835 78.3304 134.778 78.3304 134.72L78.2154 134.95V134.989C78.1771 135.027 78.1579 135.046 78.1579 135.065C78.1579 135.104 78.1962 135.161 78.2537 135.2L78.3688 136.675L77.1613 136.388L77.1996 136.35C77.2762 136.235 77.3146 136.177 77.3338 136.139C77.4104 136.024 77.4296 135.928 77.4296 135.794C77.4296 135.564 77.2954 135.41 77.0654 135.353C76.8354 135.295 76.7779 135.315 76.6054 135.353L76.4521 135.736C76.6629 135.794 76.7971 135.985 76.8546 136.33L75.6854 136.062L75.5513 135.487L75.3596 135.698L75.4363 136.024L72.5804 135.353C72.5996 135.257 72.6188 135.161 72.6188 135.104C72.6188 134.931 72.5613 134.74 72.4463 134.548L72.2738 134.816C72.3504 134.95 72.3887 135.085 72.4079 135.2V135.295L72.0821 135.219L71.7754 134.395L71.6029 134.625L71.7946 135.161L71.3154 135.046C71.3154 134.97 71.2963 134.931 71.2771 134.893C71.2196 134.701 71.1621 134.548 71.1046 134.433L70.9129 134.663C70.9896 134.835 71.0471 134.989 71.0854 135.085C71.1238 135.238 71.1429 135.391 71.1429 135.545C71.0663 135.621 70.9896 135.66 70.8746 135.698C70.7596 135.736 70.6638 135.736 70.5679 135.698C70.3188 135.64 70.1846 135.41 70.1846 135.046C70.1846 134.682 70.1846 134.74 70.2229 134.567V134.49C70.2229 134.567 70.1654 134.663 70.1271 134.778C70.0696 135.008 70.0312 135.2 70.0312 135.353C70.0312 135.506 70.0888 135.698 70.1846 135.832C70.2804 135.966 70.3954 136.062 70.5488 136.1C70.7021 136.139 70.9704 136.1 71.2004 135.966V135.909C71.2196 135.909 71.3346 135.449 71.3346 135.449L71.8138 135.564L71.9096 135.43L71.9671 135.602L72.4463 135.717L72.5037 135.583L72.5804 135.755L75.4171 136.426L75.5129 136.311L75.5513 136.445L76.8738 136.752L76.9696 136.637L77.0271 136.79L78.4838 137.135V137.078L78.5604 136.905C78.5988 136.733 78.6371 136.599 78.6371 136.522L78.5604 135.43L78.6179 135.487L78.7329 135.18L78.6754 135.142ZM76.9313 135.775H77.0463C77.1229 135.794 77.1613 135.832 77.1613 135.909C77.1613 135.985 77.1421 136.005 77.0846 136.062C77.0654 135.947 77.0079 135.851 76.9313 135.775Z" fill="white"/>
<path d="M71.5652 137.099C71.4885 137.137 71.4119 137.175 71.2969 137.233C71.431 137.233 71.546 137.233 71.6419 137.233C71.891 137.214 72.0635 137.079 72.1594 136.83L72.1977 136.734C72.0252 136.83 71.8719 136.926 71.7377 137.003L71.5652 137.079V137.099Z" fill="white"/>
<path d="M71.2969 136.826C71.3927 136.826 71.4502 136.826 71.5077 136.826C71.661 136.826 71.776 136.788 71.8719 136.75C72.006 136.673 72.1019 136.577 72.1594 136.424L72.1977 136.328C72.1019 136.386 72.0252 136.443 71.9677 136.481C71.661 136.635 71.4502 136.75 71.2969 136.826Z" fill="white"/>
<path d="M55.9256 137.844L55.0056 137.614L55.0631 140.489L54.4306 140.355L54.3731 137.48L53.4723 137.269L53.4531 136.617L55.9065 137.192L55.9256 137.844Z" fill="#002169"/>
<path d="M57.9787 139.322L59.1287 141.45L58.3429 141.258L57.3271 139.38L57.3463 141.028L56.7137 140.894L56.6562 137.367L57.2887 137.521L57.3079 139.111H57.3271L58.0938 137.712L58.7838 137.866L57.9787 139.322Z" fill="#002169"/>
<path d="M59.7031 138.074L60.3356 138.228L60.3931 141.754L59.7606 141.601L59.7031 138.074Z" fill="#002169"/>
<path d="M62.0158 140.491L61 138.383L61.7475 138.574L62.3225 139.801L62.8592 138.824L63.6067 138.996L62.6483 140.644L62.6675 142.293L62.0542 142.139L62.0158 140.491Z" fill="#002169"/>
<path d="M66.1823 143.097L64.3231 142.675L64.2656 139.148L66.1056 139.589L66.1248 140.222L64.9173 139.953V140.682L66.0673 140.95L66.0865 141.602L64.9365 141.333L64.9556 142.177L66.1823 142.464V143.097Z" fill="#002169"/>
<path d="M69.2694 140.969L68.3494 140.758L68.4069 143.633L67.7744 143.48L67.736 140.605L66.816 140.394L66.7969 139.742L69.2502 140.317L69.2694 140.969Z" fill="#002169"/>
<path d="M73.8858 141.407L73.9242 143.4C73.9433 144.569 73.3875 144.837 72.6975 144.665C72.0075 144.492 71.4325 143.898 71.4133 142.806L71.375 140.812L72.0075 140.966L72.0458 142.978C72.0458 143.477 72.3142 143.841 72.6783 143.937C73.0425 144.032 73.3108 143.841 73.3108 143.208L73.2725 141.253L73.905 141.407H73.8858Z" fill="#002169"/>
<path d="M76.9705 142.135L77.5072 142.25L77.5647 145.776L76.9514 145.623L76.913 143.419L76.2422 144.377L76.1464 144.339L75.4564 143.093L75.4947 145.278L74.8622 145.144L74.8047 141.617L75.3414 141.751L76.1847 143.246L76.9705 142.135Z" fill="#002169"/>
<path d="M82.1058 146.831L81.435 146.678L81.2242 145.93L80.0933 145.662L79.9208 146.314L79.25 146.16L80.2083 142.883L80.9367 143.055L82.1058 146.831ZM80.5917 143.822L80.2467 145.106L81.0133 145.279L80.5917 143.822Z" fill="#002169"/>
<path d="M84.6929 147.444L82.7762 146.984L82.7188 143.477L83.3512 143.63L83.3896 146.505L84.6929 146.792V147.444Z" fill="#002169"/>
<path d="M85.3906 144.109L86.0231 144.244L86.0806 147.77L85.4481 147.617L85.3906 144.109Z" fill="#002169"/>
<path d="M60.8852 144.612L60.2335 144.459V145.034L60.9044 145.187V145.455L60.2527 145.302L60.2719 146.26L60.0227 146.203L59.9844 144.133L60.8852 144.344V144.612Z" fill="#002169"/>
<path d="M62.2062 144.631C62.7621 144.765 63.1071 145.321 63.1262 145.896C63.1262 146.471 62.8004 146.873 62.2254 146.739C61.6504 146.605 61.3246 146.03 61.3054 145.474C61.2862 144.918 61.6504 144.496 62.1871 144.631M62.2446 146.471C62.6279 146.566 62.8962 146.298 62.8771 145.838C62.8579 145.378 62.5896 144.995 62.2062 144.899C61.8229 144.803 61.5546 145.071 61.5737 145.531C61.5929 145.991 61.8612 146.375 62.2446 146.471Z" fill="#002169"/>
<path d="M64.4918 145.166C65.0476 145.3 65.3926 145.856 65.4118 146.431C65.4309 147.006 65.0859 147.408 64.5301 147.274C63.9743 147.14 63.6293 146.565 63.6101 146.009C63.5909 145.453 63.9551 145.032 64.4918 145.166ZM64.5109 147.006C64.8943 147.102 65.1626 146.833 65.1434 146.373C65.1243 145.913 64.8559 145.53 64.4726 145.434C64.0893 145.338 63.8209 145.607 63.8401 146.067C63.8593 146.527 64.1276 146.91 64.5109 147.006Z" fill="#002169"/>
<path d="M65.9219 145.531L66.5735 145.685C67.1869 145.838 67.4744 146.432 67.4935 146.93C67.5127 147.429 67.1677 147.889 66.6119 147.755L65.9602 147.601L65.9219 145.531ZM66.1902 147.39L66.5735 147.486C67.1102 147.62 67.2444 147.122 67.2252 146.873C67.2252 146.451 66.9952 146.049 66.5352 145.953L66.171 145.857V147.39C66.1838 147.39 66.1902 147.39 66.1902 147.39Z" fill="#002169"/>
<path d="M69.854 146.721L69.2023 146.568V147.143L69.8731 147.296V147.565L69.2023 147.411L69.2215 148.37L68.9915 148.312L68.9531 146.242L69.854 146.453V146.721Z" fill="#002169"/>
<path d="M71.1793 146.74C71.7351 146.874 72.0801 147.43 72.0993 148.005C72.1184 148.58 71.7734 148.982 71.2176 148.848C70.6618 148.714 70.3168 148.139 70.2976 147.583C70.2784 147.027 70.6426 146.606 71.1793 146.74ZM71.2176 148.58C71.6009 148.676 71.8693 148.407 71.8501 147.947C71.8309 147.487 71.5626 147.104 71.1793 147.008C70.7959 146.912 70.5276 147.181 70.5468 147.641C70.5659 148.101 70.8343 148.484 71.2176 148.58Z" fill="#002169"/>
<path d="M73.0538 147.201C73.3988 147.278 73.6096 147.546 73.6096 147.91C73.6096 148.274 73.5138 148.313 73.3413 148.351C73.4946 148.504 73.5904 148.715 73.7246 149.003C73.8013 149.156 73.8396 149.252 73.9546 149.463L73.6671 149.386L73.4371 148.907C73.2071 148.428 73.1113 148.351 72.9771 148.332H72.8813C72.8813 148.313 72.8813 149.213 72.8813 149.213L72.6321 149.156L72.5938 147.086L73.0154 147.182L73.0538 147.201ZM72.8813 148.063L73.0346 148.102C73.3029 148.159 73.3604 148.025 73.3604 147.833C73.3604 147.642 73.2646 147.508 73.0346 147.45L72.8813 147.412V148.063Z" fill="#002169"/>
<path d="M75.5496 149.578L76.3163 149.77V150.019L75.3196 149.789L75.2812 147.719L75.5304 147.776L75.5496 149.578Z" fill="#002169"/>
<path d="M76.7344 148.062L76.9835 148.12L77.0027 150.19L76.7727 150.132L76.7344 148.062Z" fill="#002169"/>
<path d="M78.4946 148.753L77.8429 148.599V149.155L78.5138 149.308V149.596L77.8621 149.443V150.401L77.6321 150.343L77.5938 148.273L78.4946 148.484V148.753Z" fill="#002169"/>
<path d="M79.9583 149.1L79.2492 148.927V149.541L79.9392 149.713V149.982L79.2683 149.809V150.461L79.9967 150.633L80.0158 150.902L79.0383 150.672L79 148.602L79.9583 148.812V149.1Z" fill="#002169"/>
</svg>
