<svg width="198" height="198" viewBox="0 0 198 198" fill="none" xmlns="http://www.w3.org/2000/svg">
<path d="M87.9259 48.4224C87.9259 82.2804 47.1739 102.179 47.1739 102.179C47.1739 102.179 6.42188 82.2804 6.42188 48.4224C6.42188 37.1724 15.8359 27.3984 27.4459 27.3984C39.0559 27.3984 44.2309 33.1314 47.1829 41.1684C50.1349 33.1314 57.8569 27.3984 66.9199 27.3984C75.9829 27.3984 87.9439 36.8124 87.9439 48.4224H87.9259Z" fill="#041E42"/>
<path d="M47.0094 83.5187C55.5836 83.5187 62.5344 76.568 62.5344 67.9937C62.5344 59.4195 55.5836 52.4688 47.0094 52.4688C38.4352 52.4688 31.4844 59.4195 31.4844 67.9937C31.4844 76.568 38.4352 83.5187 47.0094 83.5187Z" fill="#5BC2E7"/>
<path d="M47.0172 79.7298C53.4989 79.7298 58.7533 74.4754 58.7533 67.9938C58.7533 61.5122 53.4989 56.2578 47.0172 56.2578C40.5356 56.2578 35.2812 61.5122 35.2812 67.9938C35.2812 74.4754 40.5356 79.7298 47.0172 79.7298Z" fill="#5BC2E7"/>
<path d="M48.9178 69.3828H45.2188V91.5588H48.9178V69.3828Z" fill="#D0DADD"/>
<path d="M77.0412 175.859C72.6222 175.859 68.3292 174.995 64.2882 173.285C60.3912 171.638 56.8812 169.271 53.8752 166.265C50.8692 163.259 48.5112 159.758 46.8552 155.852C45.1452 151.811 44.2812 147.518 44.2812 143.099V89.0625H49.8252V143.099C49.8252 150.371 52.6512 157.202 57.7902 162.341C62.9292 167.48 69.7603 170.306 77.0323 170.306C84.3043 170.306 91.1352 167.48 96.2742 162.341C96.4812 162.134 96.6882 161.918 96.8952 161.702C94.8072 161.207 92.7642 160.541 90.7752 159.695C86.1762 157.751 82.0452 154.961 78.4992 151.415C74.9532 147.869 72.1632 143.738 70.2192 139.139C68.2033 134.378 67.1862 129.32 67.1862 124.1V119.249C67.1862 113.561 69.4002 108.206 73.4232 104.183C77.4462 100.16 82.7922 97.9455 88.4892 97.9455C94.1862 97.9455 99.5322 100.16 103.555 104.183C107.578 108.206 109.792 113.552 109.792 119.249V143.099C109.792 147.518 108.928 151.811 107.218 155.852C107.029 156.302 106.831 156.743 106.624 157.175C115.156 156.977 123.157 153.557 129.214 147.491C135.46 141.245 138.907 132.938 138.907 124.1V106.081H144.451V124.1C144.451 129.311 143.425 134.369 141.418 139.139C139.474 143.738 136.684 147.869 133.138 151.415C129.592 154.961 125.461 157.751 120.862 159.695C116.101 161.711 111.043 162.728 105.823 162.728C100.603 162.728 104.158 162.701 103.33 162.647C102.385 163.916 101.341 165.122 100.207 166.256C97.2012 169.262 93.7002 171.62 89.7942 173.276C85.7532 174.986 81.4602 175.85 77.0412 175.85V175.859ZM88.4982 103.499C79.8132 103.499 72.7392 110.564 72.7392 119.258V124.109C72.7392 132.947 76.1773 141.254 82.4323 147.5C87.4273 152.495 93.7362 155.699 100.585 156.779C102.979 152.675 104.257 147.986 104.257 143.099V119.249C104.257 110.564 97.1922 103.49 88.4982 103.49V103.499Z" fill="#041E42"/>
<path d="M131.602 97.0469H152.23V104.877C152.23 107.181 150.358 109.053 148.054 109.053H135.778C133.474 109.053 131.602 107.181 131.602 104.877V97.0469Z" fill="#041E42"/>
<path d="M120.037 93.0606C119.749 92.8806 112.99 88.4796 106.15 80.4516C102.127 75.7266 98.9136 70.7136 96.6006 65.5566C93.7026 59.0676 92.2266 52.3446 92.2266 45.5586C92.2266 38.7726 94.6656 33.4266 99.0846 28.9986C103.504 24.5796 109.39 22.1406 115.645 22.1406C121.9 22.1406 126.436 24.0666 130.63 27.5586L128.263 30.3936C124.735 27.4506 120.253 25.8306 115.645 25.8306C111.037 25.8306 105.43 27.8826 101.704 31.6086C97.9776 35.3346 95.9256 40.2846 95.9256 45.5496C95.9256 50.8146 97.2756 57.9876 99.9486 63.9726C102.1 68.7966 105.106 73.5036 108.895 77.9586C115.384 85.5996 121.972 89.9016 122.044 89.9376L120.037 93.0426V93.0606Z" fill="#D0DADD"/>
<path d="M163.79 93.0582L161.782 89.9532C161.899 89.8812 168.46 85.5882 174.922 77.9742C178.702 73.5192 181.708 68.8122 183.868 63.9882C186.541 58.0032 187.892 51.8022 187.892 45.5652C187.892 39.3282 185.839 35.3502 182.113 31.6242C178.387 27.8982 173.437 25.8463 168.172 25.8463C162.907 25.8463 159.083 27.4662 155.555 30.4092L153.188 27.5742C157.381 24.0822 162.7 22.1562 168.172 22.1562C173.644 22.1562 180.304 24.5952 184.732 29.0142C189.151 33.4332 191.59 39.3193 191.59 45.5743C191.59 51.8292 190.124 59.0832 187.217 65.5722C184.913 70.7292 181.699 75.7422 177.667 80.4672C170.827 88.4952 164.068 92.8962 163.78 93.0762L163.79 93.0582Z" fill="#D0DADD"/>
<path d="M134.597 33.9104C133.193 35.6024 130.673 35.8364 128.981 34.4324C128.153 33.7484 127.676 32.7944 127.568 31.8044L126.065 30.5624C124.85 29.5544 124.679 27.7364 125.696 26.5214C126.2 25.9094 126.911 25.5674 127.64 25.4954C128.369 25.4324 129.125 25.6394 129.737 26.1434L131.24 27.3854C132.239 27.3134 133.256 27.6104 134.084 28.2944C135.776 29.6984 136.01 32.2184 134.606 33.9104H134.597Z" fill="#5BC2E7"/>
<path d="M157.757 30.5571L156.254 31.7991C156.146 32.7891 155.669 33.7431 154.841 34.4271C153.149 35.8401 150.629 35.6061 149.225 33.9051C147.821 32.2131 148.046 29.6931 149.747 28.2891C150.575 27.6051 151.592 27.3081 152.591 27.3801L154.094 26.1381C154.706 25.6341 155.462 25.4181 156.191 25.4901C156.92 25.5531 157.631 25.9041 158.135 26.5161C159.152 27.7311 158.981 29.5491 157.766 30.5571H157.757Z" fill="#5BC2E7"/>
<path d="M141.918 101.133C137.049 101.133 132.243 100.296 127.626 98.6403C123.954 97.3263 120.408 95.4993 117.078 93.2043C111.399 89.2893 108.267 85.3293 108.141 85.1673L113.964 80.6133C113.991 80.6403 116.664 83.9793 121.488 87.2643C124.278 89.1543 127.23 90.6663 130.272 91.7373C134.034 93.0693 137.958 93.7443 141.918 93.7443C145.878 93.7443 149.802 93.0693 153.564 91.7373C156.606 90.6663 159.567 89.1543 162.348 87.2643C167.172 83.9883 169.845 80.6403 169.872 80.6133L175.695 85.1763C175.569 85.3473 172.437 89.2983 166.758 93.2133C163.428 95.5083 159.882 97.3353 156.21 98.6493C151.602 100.296 146.787 101.142 141.918 101.142V101.133Z" fill="#041E42"/>
<path d="M47.0126 74.369C50.5318 74.369 53.3846 71.5162 53.3846 67.997C53.3846 64.4778 50.5318 61.625 47.0126 61.625C43.4935 61.625 40.6406 64.4778 40.6406 67.997C40.6406 71.5162 43.4935 74.369 47.0126 74.369Z" fill="white"/>
</svg>
