<svg width="212" height="212" viewBox="0 0 212 212" fill="none" xmlns="http://www.w3.org/2000/svg">
<path d="M145.725 173.969L147.336 174.181L147.039 174.435H146.743L142.884 173.884L127.408 171.807L61.8577 163.03L28.8281 158.578L31.6689 157.179L84.0753 131.188L164.084 137.039L147.039 151.37C141.655 156.331 141.273 169.517 144.962 173.375C145.174 173.63 145.428 173.842 145.725 174.011V173.969Z" fill="#CE5A9D"/>
<path d="M146.914 173.507C140.639 169.776 143.014 157.183 147.084 152.773L165.698 137.085L167.818 135.305L186.558 136.661C187.237 136.704 187.618 137.255 187.618 137.849C187.618 138.442 187.406 138.739 187.067 139.036C187.067 139.036 149.882 172.065 146.914 173.507Z" fill="#CE5A9D"/>
<path d="M80.5584 109.821L28.8304 135.473C23.5304 138.822 24.972 157.097 28.8304 158.538L147.084 174.396C141.318 173.929 140.851 157.097 147.084 151.33L186.855 117.877C187.788 117.113 187.279 115.587 186.092 115.502L88.0632 108.337C85.4768 108.167 82.8904 108.676 80.5584 109.821Z" fill="#CE5A9D"/>
<path style="mix-blend-mode:multiply" opacity="0.4" d="M142.593 165.789L25.7812 151.84C26.3324 155.274 27.3925 158.03 28.7917 158.539L147.045 174.397C144.332 174.185 142.805 170.369 142.551 165.747L142.593 165.789Z" fill="url(#paint0_linear_2589_34009)"/>
<path style="mix-blend-mode:screen" opacity="0.4" d="M31.4205 134.199L28.8341 135.471C27.2229 136.488 26.2477 138.863 25.7812 141.703L144.374 155.356C145.052 153.745 145.985 152.346 147.088 151.328L151.285 147.809L31.4628 134.156L31.4205 134.199Z" fill="url(#paint1_linear_2589_34009)"/>
<path d="M187.621 139.63C187.621 140.054 187.494 140.436 187.197 140.648L147.808 173.762L147.087 174.356C141.278 173.805 140.896 157.014 147.087 151.29L164.132 136.959L166.252 135.178L186.095 118.515L186.858 117.837C186.985 117.752 187.07 117.625 187.112 117.54C187.197 117.37 187.282 117.201 187.282 117.031V118.473C187.24 118.77 187.07 119.024 186.816 119.236L167.778 135.263L165.658 137.044L147.044 152.732C143.016 157.142 142.72 170.031 146.536 172.702C147.553 172.914 186.137 139.588 186.137 139.588C187.24 138.655 187.621 138.486 187.621 137.85V139.588V139.63Z" fill="#CE5A9D"/>
<g style="mix-blend-mode:screen" opacity="0.3">
<path d="M187.621 139.63C187.621 140.054 187.494 140.436 187.197 140.648L147.808 173.762L147.087 174.356C141.278 173.805 140.896 157.014 147.087 151.29L164.132 136.959L166.252 135.178L186.095 118.515L186.858 117.837C186.985 117.752 187.07 117.625 187.112 117.54C187.197 117.37 187.282 117.201 187.282 117.031V118.473C187.24 118.77 187.07 119.024 186.816 119.236L167.778 135.263L165.658 137.044L147.044 152.732C143.016 157.142 142.72 170.031 146.536 172.702C147.553 172.914 186.137 139.588 186.137 139.588C187.24 138.655 187.621 138.486 187.621 137.85V139.588V139.63Z" fill="#CE5A9D"/>
</g>
<path style="mix-blend-mode:screen" opacity="0.3" d="M187.622 137.893V139.631C187.622 140.055 187.495 140.437 187.198 140.691L147.809 173.805L147.088 174.399C145.858 174.272 144.925 173.466 144.289 172.406C143.526 171.177 143.017 169.438 142.763 167.488C142.593 166.258 142.551 164.901 142.593 163.545C142.763 158.923 144.247 154.005 147.088 151.376L164.133 137.045L166.253 135.264L185.884 118.728L186.096 118.558L186.859 117.88C186.986 117.795 187.071 117.668 187.113 117.583C187.198 117.413 187.283 117.244 187.283 117.074V118.516C187.241 118.813 187.071 119.067 186.817 119.279L185.587 120.297L167.737 135.306L165.617 137.087L147.003 152.775C143.441 156.676 142.805 167.233 145.349 171.473C145.689 172.025 146.07 172.449 146.494 172.745C147.512 172.957 186.096 139.631 186.096 139.631C187.198 138.698 187.58 138.529 187.58 137.893H187.622Z" fill="url(#paint2_linear_2589_34009)"/>
<path style="mix-blend-mode:screen" opacity="0.3" d="M187.622 137.893V139.631C187.622 140.055 187.495 140.437 187.198 140.691L147.809 173.805L147.088 174.399C145.858 174.272 144.925 173.466 144.289 172.406C143.526 171.177 143.017 169.438 142.763 167.488C142.593 166.258 142.551 164.901 142.593 163.545C142.593 163.163 142.593 162.781 142.678 162.4C143.06 158.117 144.459 153.793 147.088 151.376L164.133 137.045L166.253 135.264L185.884 118.728L186.096 118.558L186.859 117.88C186.986 117.795 187.071 117.668 187.113 117.583C187.198 117.413 187.283 117.244 187.283 117.074V118.516C187.241 118.813 187.071 119.067 186.817 119.279L185.587 120.297L167.737 135.306L165.617 137.087L147.003 152.775C147.003 152.775 146.918 152.86 146.918 152.902C146.918 152.902 146.833 152.987 146.833 153.029C146.833 153.029 146.749 153.114 146.749 153.157C143.441 157.312 142.89 167.403 145.392 171.516C145.689 172.025 146.07 172.491 146.537 172.788C147.554 173 186.138 139.673 186.138 139.673C187.241 138.741 187.622 138.571 187.622 137.935V137.893Z" fill="url(#paint3_linear_2589_34009)"/>
<path d="M186.215 138.1L145.893 172.148C145.723 171.936 145.554 171.724 145.384 171.469C142.925 167.356 143.434 157.265 146.741 153.11C146.741 153.11 146.826 153.025 146.826 152.983C146.826 152.983 146.911 152.898 146.911 152.856C146.911 152.856 146.995 152.771 146.995 152.728L165.609 137.04L167.729 135.26L185.579 120.25C184.731 126.652 184.731 132.631 186.173 137.973L186.215 138.1Z" fill="url(#paint4_linear_2589_34009)"/>
<path style="mix-blend-mode:multiply" opacity="0.9" d="M153.82 156.119C150.768 167.651 123.42 170.407 92.7644 162.267C62.1092 154.126 39.722 138.183 42.8172 126.651C45.87 115.118 73.218 112.362 103.873 120.503C134.528 128.643 156.916 144.586 153.82 156.119Z" fill="url(#paint5_radial_2589_34009)"/>
<path style="mix-blend-mode:multiply" opacity="0.9" d="M146.914 148.06C143.861 159.593 116.513 162.349 85.8581 154.208C55.2029 146.067 32.8157 130.125 35.9109 118.592C38.9637 107.059 66.3117 104.303 96.9669 112.444C127.622 120.585 150.009 136.527 146.914 148.06Z" fill="url(#paint6_radial_2589_34009)"/>
<path style="mix-blend-mode:multiply" opacity="0.9" d="M183.802 133.901C181.258 149.208 149.882 156.67 113.757 150.607C77.6326 144.544 50.4118 127.244 52.9982 111.938C55.5422 96.6317 86.9182 89.1693 123.043 95.2325C159.168 101.296 186.389 118.595 183.802 133.901Z" fill="url(#paint7_radial_2589_34009)"/>
<path style="mix-blend-mode:multiply" opacity="0.9" d="M183.162 138.014C180.237 155.525 148.564 164.768 112.439 158.705C76.3145 152.642 49.4329 133.562 52.3585 116.051C55.2841 98.5821 86.9569 89.2965 123.082 95.3597C159.206 101.423 186.13 120.503 183.162 138.014Z" fill="url(#paint8_radial_2589_34009)"/>
<path style="mix-blend-mode:multiply" opacity="0.9" d="M184.992 123.256C184.398 126.818 179.268 128.895 173.501 127.92C167.777 126.945 163.58 123.299 164.173 119.779C164.767 116.218 169.897 114.14 175.664 115.115C181.388 116.091 185.585 119.737 184.992 123.256Z" fill="url(#paint9_radial_2589_34009)"/>
<path style="mix-blend-mode:multiply" opacity="0.9" d="M183.335 125.209C182.742 128.771 177.611 130.849 171.845 129.873C166.121 128.898 161.923 125.252 162.517 121.733C163.11 118.171 168.241 116.093 174.007 117.069C179.731 118.044 183.929 121.69 183.335 125.209Z" fill="url(#paint10_radial_2589_34009)"/>
<path d="M125.709 154.675L125.157 154.336C121.257 148.569 121.002 138.266 124.521 130.889C125.369 129.15 126.726 127.709 128.38 126.776L149.029 115.243L150.47 114.438L182.016 122.281C182.313 122.366 182.482 122.621 182.482 122.917C182.482 123.129 182.482 123.638 182.228 123.765L125.666 154.633L125.709 154.675Z" fill="#5BC2E7"/>
<path d="M176.25 100.406C174.469 109.395 174.596 117.748 176.25 125.634L124.904 153.873C121.257 147.894 121.172 137.633 124.692 130.51C125.497 128.899 126.769 127.542 128.338 126.694L149.114 115.331L150.556 114.525L176.292 100.406H176.25Z" fill="url(#paint11_linear_2589_34009)"/>
<path style="mix-blend-mode:multiply" d="M131.484 135.851C131.484 135.851 143.78 129.322 146.452 127.923C149.123 126.523 153.236 124.488 153.236 124.488C153.236 124.488 144.035 129.873 141.448 131.145C138.904 132.417 131.484 135.894 131.484 135.894V135.851Z" fill="url(#paint12_linear_2589_34009)"/>
<path d="M88.5293 71.7852L34.8933 99.5996C30.6533 104.645 30.3989 123.047 34.8933 128.05L125.672 155.652C119.439 150.183 119.948 135.343 125.672 127.202L182.191 96.25C182.7 95.9532 182.615 95.2324 182.021 95.0628L88.5293 71.7852Z" fill="#041E42"/>
<path d="M182.528 95.6562V96.589L179.688 96.9706L180.875 95.6562H182.528Z" fill="#041E42"/>
<path d="M182.531 95.6992V96.632C182.531 96.844 182.403 97.056 182.191 97.1832L150.519 114.525L149.077 115.33L128.301 126.694C126.732 127.542 125.46 128.898 124.655 130.51C121.178 137.675 121.22 147.978 124.909 153.914C125.079 154.211 125.375 154.423 125.672 154.508L180.623 124.404L182.149 123.598C182.361 123.471 182.488 123.259 182.488 123.047V124.192C182.488 124.404 182.361 124.616 182.149 124.701L126.011 155.483L125.672 155.695C125.121 155.229 124.655 154.678 124.231 154.084C119.567 147.724 120.457 134.665 125.672 127.245L147.932 115.034L149.374 114.228L181.216 96.7592L182.191 96.2504C182.234 96.2504 182.276 96.1656 182.319 96.1232C182.446 95.996 182.488 95.8264 182.488 95.6992H182.531Z" fill="#5BC2E7"/>
<g style="mix-blend-mode:screen" opacity="0.2">
<path d="M182.531 95.6992V96.632C182.531 96.844 182.403 97.056 182.191 97.1832L150.519 114.525L149.077 115.33L128.301 126.694C126.732 127.542 125.46 128.898 124.655 130.51C121.178 137.675 121.22 147.978 124.909 153.914C125.079 154.211 125.375 154.423 125.672 154.508L180.623 124.404L182.149 123.598C182.361 123.471 182.488 123.259 182.488 123.047V124.192C182.488 124.404 182.361 124.616 182.149 124.701L126.011 155.483L125.672 155.695C125.121 155.229 124.655 154.678 124.231 154.084C119.567 147.724 120.457 134.665 125.672 127.245L147.932 115.034L149.374 114.228L181.216 96.7592L182.191 96.2504C182.234 96.2504 182.276 96.1656 182.319 96.1232C182.446 95.996 182.488 95.8264 182.488 95.6992H182.531Z" fill="#5BC2E7"/>
</g>
<path d="M182.535 95.6569C182.535 95.8265 182.451 95.9961 182.366 96.1233C182.366 96.1233 182.281 96.2081 182.239 96.2505L181.263 96.7593L149.421 114.228L147.979 115.034L125.719 127.245C120.504 134.665 119.614 147.724 124.278 154.084C124.702 154.678 125.211 155.229 125.719 155.695L34.9411 128.093C32.8211 125.719 31.7611 120.291 31.6763 114.695C31.5915 108.547 32.7363 102.271 34.9411 99.6425L88.5771 71.8281L182.069 95.1057C182.366 95.1905 182.535 95.4449 182.535 95.6993V95.6569Z" fill="#5BC2E7"/>
<path style="mix-blend-mode:screen" opacity="0.3" d="M40.7813 96.5033L34.8877 99.5561C33.5309 101.21 32.5557 104.22 32.0469 107.782L122.656 133.307C123.376 131.059 124.394 128.939 125.624 127.159L131.856 123.724L40.7389 96.4609L40.7813 96.5033Z" fill="url(#paint13_linear_2589_34009)"/>
<path style="mix-blend-mode:multiply" opacity="0.3" d="M34.8932 128.007L125.672 155.61C125.12 155.143 124.654 154.592 124.23 153.998C122.534 151.666 121.559 148.444 121.262 144.925L31.8828 118.934C32.3068 122.834 33.3244 126.269 34.8932 128.007Z" fill="url(#paint14_linear_2589_34009)"/>
<g style="mix-blend-mode:multiply" opacity="0.8">
<mask id="mask0_2589_34009" style="mask-type:luminance" maskUnits="userSpaceOnUse" x="137" y="128" width="14" height="14">
<path d="M150.731 134.282C150.646 131.568 149.12 129.279 147 128.219C147 128.346 146.873 128.516 146.745 128.558C145.77 128.982 144.88 129.533 143.947 130.042C144.159 130.339 144.074 130.805 143.65 130.89C143.099 130.975 142.548 131.06 141.997 131.144C141.657 131.314 141.361 131.484 141.021 131.653C140.004 132.162 138.944 132.586 137.884 132.84C137.757 133.434 137.672 134.07 137.714 134.706C137.841 138.564 140.852 141.575 144.456 141.448C148.06 141.32 150.901 138.14 150.773 134.282H150.731Z" fill="white"/>
</mask>
<g mask="url(#mask0_2589_34009)">
<path d="M150.854 128.176H137.625V141.532H150.854V128.176Z" fill="white"/>
<path d="M150.934 134.705C150.934 138.309 148.009 141.235 144.405 141.235C140.801 141.235 137.875 138.309 137.875 134.705C137.875 131.101 140.801 128.176 144.405 128.176C148.009 128.176 150.934 131.101 150.934 134.705Z" fill="white"/>
<path d="M150.758 134.639C150.777 131.057 147.888 128.137 144.305 128.118C140.722 128.1 137.803 130.989 137.784 134.571C137.765 138.154 140.654 141.074 144.237 141.093C147.82 141.111 150.739 138.222 150.758 134.639Z" fill="white"/>
<path d="M150.858 134.703C150.858 138.264 147.975 141.147 144.414 141.147C140.852 141.147 137.969 138.264 137.969 134.703C137.969 131.141 140.852 128.258 144.414 128.258C147.975 128.258 150.858 131.141 150.858 134.703Z" fill="white"/>
<path d="M150.842 134.846C150.867 131.334 148.039 128.466 144.527 128.442C141.014 128.417 138.147 131.245 138.123 134.757C138.098 138.27 140.926 141.137 144.438 141.162C147.95 141.186 150.818 138.359 150.842 134.846Z" fill="white"/>
<path d="M150.729 134.704C150.729 138.181 147.888 141.022 144.411 141.022C140.935 141.022 138.094 138.181 138.094 134.704C138.094 131.228 140.935 128.387 144.411 128.387C147.888 128.387 150.729 131.228 150.729 134.704Z" fill="#FEFEFE"/>
<path d="M150.758 134.887C150.782 131.421 147.992 128.592 144.527 128.568C141.061 128.544 138.232 131.334 138.208 134.799C138.184 138.265 140.974 141.094 144.439 141.118C147.905 141.142 150.734 138.352 150.758 134.887Z" fill="#FEFEFE"/>
<path d="M150.646 134.706C150.646 138.14 147.848 140.896 144.456 140.896C141.064 140.896 138.266 138.098 138.266 134.706C138.266 131.314 141.064 128.516 144.456 128.516C147.848 128.516 150.646 131.314 150.646 134.706Z" fill="#FEFEFE"/>
<path d="M150.601 134.703C150.601 138.095 147.845 140.851 144.453 140.851C141.061 140.851 138.305 138.095 138.305 134.703C138.305 131.311 141.061 128.555 144.453 128.555C147.845 128.555 150.601 131.311 150.601 134.703Z" fill="#FEFDFD"/>
<path d="M150.582 134.843C150.605 131.471 147.891 128.719 144.519 128.695C141.147 128.671 138.394 131.386 138.371 134.758C138.347 138.13 141.062 140.882 144.434 140.906C147.806 140.929 150.558 138.215 150.582 134.843Z" fill="#FDFDFD"/>
<path d="M150.47 134.704C150.47 138.053 147.757 140.767 144.407 140.767C141.057 140.767 138.344 138.053 138.344 134.704C138.344 131.354 141.057 128.641 144.407 128.641C147.757 128.641 150.47 131.354 150.47 134.704Z" fill="#FDFDFD"/>
<path d="M150.498 134.883C150.521 131.581 147.863 128.886 144.562 128.863C141.26 128.84 138.565 131.497 138.542 134.799C138.519 138.101 141.177 140.796 144.478 140.819C147.78 140.842 150.475 138.184 150.498 134.883Z" fill="#FDFCFC"/>
<path d="M150.388 134.706C150.388 137.97 147.716 140.642 144.452 140.642C141.187 140.642 138.516 137.97 138.516 134.706C138.516 131.441 141.187 128.77 144.452 128.77C147.716 128.77 150.388 131.441 150.388 134.706Z" fill="#FCFCFC"/>
<path d="M150.162 134.68C150.179 131.425 147.554 128.773 144.299 128.756C141.044 128.739 138.392 131.363 138.375 134.618C138.358 137.873 140.982 140.526 144.237 140.543C147.492 140.56 150.145 137.935 150.162 134.68Z" fill="#FCFBFB"/>
<path d="M150.265 134.703C150.265 137.925 147.636 140.554 144.414 140.554C141.191 140.554 138.562 137.925 138.562 134.703C138.562 131.48 141.191 128.852 144.414 128.852C147.636 128.852 150.265 131.48 150.265 134.703Z" fill="#FBFBFB"/>
<path d="M150.22 134.704C150.22 137.884 147.634 140.47 144.454 140.47C141.274 140.47 138.688 137.884 138.688 134.704C138.688 131.524 141.274 128.938 144.454 128.938C147.634 128.938 150.22 131.524 150.22 134.704Z" fill="#FBFAFB"/>
<path d="M150.135 134.704C150.135 137.884 147.591 140.428 144.411 140.428C141.231 140.428 138.688 137.884 138.688 134.704C138.688 131.524 141.231 128.98 144.411 128.98C147.591 128.98 150.135 131.524 150.135 134.704Z" fill="#FBFAFA"/>
<path d="M150.09 134.705C150.09 137.843 147.546 140.387 144.408 140.387C141.271 140.387 138.727 137.843 138.727 134.705C138.727 131.567 141.271 129.023 144.408 129.023C147.546 129.023 150.09 131.567 150.09 134.705Z" fill="#FAF9F9"/>
<path d="M149.917 134.635C149.933 131.52 147.422 128.982 144.308 128.966C141.193 128.95 138.655 131.461 138.639 134.576C138.623 137.69 141.134 140.228 144.249 140.244C147.363 140.261 149.901 137.749 149.917 134.635Z" fill="#FAF9F9"/>
<path d="M150.007 134.703C150.007 137.798 147.506 140.257 144.453 140.257C141.4 140.257 138.898 137.756 138.898 134.703C138.898 131.65 141.4 129.148 144.453 129.148C147.506 129.148 150.007 131.65 150.007 134.703Z" fill="#F9F8F8"/>
<path d="M149.992 134.839C150.013 131.794 147.563 129.309 144.519 129.288C141.474 129.267 138.989 131.717 138.968 134.762C138.947 137.806 141.397 140.291 144.442 140.312C147.486 140.333 149.971 137.883 149.992 134.839Z" fill="#F9F7F8"/>
<path d="M149.877 134.704C149.877 137.714 147.417 140.174 144.407 140.174C141.397 140.174 138.938 137.714 138.938 134.704C138.938 131.694 141.397 129.234 144.407 129.234C147.417 129.234 149.877 131.694 149.877 134.704Z" fill="#F8F7F7"/>
<path d="M149.832 134.705C149.832 137.673 147.415 140.132 144.447 140.132C141.479 140.132 139.062 137.715 139.062 134.705C139.062 131.694 141.479 129.277 144.447 129.277C147.415 129.277 149.832 131.694 149.832 134.705Z" fill="#F8F6F7"/>
<path d="M149.794 134.706C149.794 137.674 147.377 140.048 144.452 140.048C141.526 140.048 139.109 137.631 139.109 134.706C139.109 131.78 141.526 129.363 144.452 129.363C147.377 129.363 149.794 131.78 149.794 134.706Z" fill="#F7F5F6"/>
<path d="M149.709 134.706C149.709 137.632 147.335 140.006 144.409 140.006C141.484 140.006 139.109 137.632 139.109 134.706C139.109 131.781 141.484 129.406 144.409 129.406C147.335 129.406 149.709 131.781 149.709 134.706Z" fill="#F7F5F5"/>
<path d="M149.671 134.703C149.671 137.586 147.339 139.961 144.414 139.961C141.488 139.961 139.156 137.629 139.156 134.703C139.156 131.777 141.488 129.445 144.414 129.445C147.339 129.445 149.671 131.777 149.671 134.703Z" fill="#F6F4F5"/>
<path d="M149.627 134.704C149.627 137.587 147.295 139.877 144.454 139.877C141.613 139.877 139.281 137.545 139.281 134.704C139.281 131.863 141.613 129.531 144.454 129.531C147.295 129.531 149.627 131.863 149.627 134.704Z" fill="#F6F3F4"/>
<path d="M149.581 134.705C149.581 137.545 147.292 139.835 144.451 139.835C141.61 139.835 139.32 137.545 139.32 134.705C139.32 131.864 141.61 129.574 144.451 129.574C147.292 129.574 149.581 131.864 149.581 134.705Z" fill="#F5F3F4"/>
<path d="M149.496 134.705C149.496 137.504 147.207 139.793 144.408 139.793C141.61 139.793 139.32 137.504 139.32 134.705C139.32 131.907 141.61 129.617 144.408 129.617C147.207 129.617 149.496 131.907 149.496 134.705Z" fill="#F4F2F3"/>
<path d="M149.451 134.706C149.451 137.504 147.203 139.751 144.405 139.751C141.607 139.751 139.359 137.504 139.359 134.706C139.359 131.907 141.607 129.66 144.405 129.66C147.203 129.66 149.451 131.907 149.451 134.706Z" fill="#F4F1F2"/>
<path d="M149.414 134.703C149.414 137.459 147.167 139.664 144.453 139.664C141.739 139.664 139.492 137.417 139.492 134.703C139.492 131.989 141.739 129.742 144.453 129.742C147.167 129.742 149.414 131.989 149.414 134.703Z" fill="#F3F0F1"/>
<path d="M149.368 134.704C149.368 137.417 147.163 139.622 144.45 139.622C141.736 139.622 139.531 137.417 139.531 134.704C139.531 131.99 141.736 129.785 144.45 129.785C147.163 129.785 149.368 131.99 149.368 134.704Z" fill="#F2F0F1"/>
<path d="M149.283 134.704C149.283 137.375 147.121 139.58 144.407 139.58C141.694 139.58 139.531 137.418 139.531 134.704C139.531 131.991 141.694 129.828 144.407 129.828C147.121 129.828 149.283 131.991 149.283 134.704Z" fill="#F2EFF0"/>
<path d="M149.245 134.705C149.245 137.376 147.083 139.538 144.412 139.538C141.741 139.538 139.578 137.376 139.578 134.705C139.578 132.034 141.741 129.871 144.412 129.871C147.083 129.871 149.245 132.034 149.245 134.705Z" fill="#F1EEEF"/>
<path d="M149.201 134.706C149.201 137.335 147.081 139.455 144.452 139.455C141.823 139.455 139.703 137.335 139.703 134.706C139.703 132.077 141.823 129.957 144.452 129.957C147.081 129.957 149.201 132.077 149.201 134.706Z" fill="#F1EDEF"/>
<path d="M149.116 134.702C149.116 137.289 146.996 139.409 144.41 139.409C141.823 139.409 139.703 137.289 139.703 134.702C139.703 132.116 141.823 129.996 144.41 129.996C146.996 129.996 149.116 132.116 149.116 134.702Z" fill="#F0ECEE"/>
<path d="M149.078 134.703C149.078 137.289 147 139.367 144.414 139.367C141.828 139.367 139.75 137.289 139.75 134.703C139.75 132.117 141.828 130.039 144.414 130.039C147 130.039 149.078 132.117 149.078 134.703Z" fill="#EFECED"/>
<path d="M149.088 134.847C149.119 132.295 147.076 130.201 144.523 130.169C141.971 130.138 139.877 132.182 139.846 134.734C139.814 137.286 141.858 139.381 144.41 139.412C146.963 139.443 149.057 137.399 149.088 134.847Z" fill="#EFEBEC"/>
<path d="M148.988 134.705C148.988 137.206 146.952 139.242 144.451 139.242C141.949 139.242 139.914 137.206 139.914 134.705C139.914 132.203 141.949 130.168 144.451 130.168C146.952 130.168 148.988 132.203 148.988 134.705Z" fill="#EEEAEB"/>
<path d="M148.84 134.76C148.87 132.278 146.883 130.242 144.401 130.211C141.919 130.181 139.882 132.168 139.852 134.65C139.821 137.132 141.809 139.169 144.291 139.199C146.773 139.23 148.81 137.242 148.84 134.76Z" fill="#EDE9EB"/>
<path d="M148.857 134.706C148.857 137.165 146.864 139.158 144.405 139.158C141.946 139.158 139.953 137.165 139.953 134.706C139.953 132.247 141.946 130.254 144.405 130.254C146.864 130.254 148.857 132.247 148.857 134.706Z" fill="#ECE8EA"/>
<path d="M148.82 134.703C148.82 137.12 146.87 139.07 144.453 139.07C142.036 139.07 140.086 137.12 140.086 134.703C140.086 132.286 142.036 130.336 144.453 130.336C146.87 130.336 148.82 132.286 148.82 134.703Z" fill="#ECE7E9"/>
<path d="M148.775 134.704C148.775 137.078 146.824 139.029 144.45 139.029C142.075 139.029 140.125 137.078 140.125 134.704C140.125 132.329 142.075 130.379 144.45 130.379C146.824 130.379 148.775 132.329 148.775 134.704Z" fill="#EBE6E8"/>
<path d="M148.69 134.704C148.69 137.079 146.782 138.987 144.407 138.987C142.033 138.987 140.125 137.079 140.125 134.704C140.125 132.33 142.033 130.422 144.407 130.422C146.782 130.422 148.69 132.33 148.69 134.704Z" fill="#EAE5E7"/>
<path d="M148.652 134.705C148.652 137.037 146.744 138.945 144.412 138.945C142.08 138.945 140.172 137.037 140.172 134.705C140.172 132.373 142.08 130.465 144.412 130.465C146.744 130.465 148.652 132.373 148.652 134.705Z" fill="#E9E5E6"/>
<path d="M148.607 134.706C148.607 136.996 146.742 138.861 144.452 138.861C142.162 138.861 140.297 136.996 140.297 134.706C140.297 132.416 142.162 130.551 144.452 130.551C146.742 130.551 148.607 132.416 148.607 134.706Z" fill="#E9E4E6"/>
<path d="M148.58 134.843C148.608 132.572 146.789 130.708 144.518 130.681C142.246 130.653 140.383 132.472 140.355 134.743C140.327 137.014 142.146 138.878 144.417 138.906C146.688 138.933 148.552 137.115 148.58 134.843Z" fill="#E8E3E5"/>
<path d="M148.485 134.703C148.485 136.95 146.661 138.774 144.414 138.774C142.167 138.774 140.344 136.95 140.344 134.703C140.344 132.456 142.167 130.633 144.414 130.633C146.661 130.633 148.485 132.456 148.485 134.703Z" fill="#E7E2E4"/>
<path d="M148.495 134.84C148.522 132.616 146.741 130.791 144.517 130.763C142.292 130.736 140.467 132.517 140.44 134.742C140.413 136.966 142.194 138.792 144.418 138.819C146.643 138.846 148.468 137.065 148.495 134.84Z" fill="#E6E1E3"/>
<path d="M148.394 134.705C148.394 136.91 146.613 138.648 144.451 138.648C142.289 138.648 140.508 136.867 140.508 134.705C140.508 132.543 142.289 130.762 144.451 130.762C146.613 130.762 148.394 132.543 148.394 134.705Z" fill="#E6E0E2"/>
<path d="M148.239 134.714C148.266 132.56 146.541 130.792 144.386 130.766C142.232 130.74 140.465 132.465 140.438 134.619C140.412 136.773 142.137 138.541 144.291 138.567C146.445 138.594 148.213 136.869 148.239 134.714Z" fill="#E5DFE1"/>
<path d="M148.264 134.706C148.264 136.826 146.525 138.564 144.405 138.564C142.285 138.564 140.547 136.826 140.547 134.706C140.547 132.586 142.285 130.848 144.405 130.848C146.525 130.848 148.264 132.586 148.264 134.706Z" fill="#E4DEE0"/>
<path d="M148.226 134.703C148.226 136.78 146.53 138.519 144.41 138.519C142.29 138.519 140.594 136.823 140.594 134.703C140.594 132.583 142.29 130.887 144.41 130.887C146.53 130.887 148.226 132.583 148.226 134.703Z" fill="#E3DDDF"/>
<path d="M148.181 134.704C148.181 136.781 146.485 138.435 144.45 138.435C142.415 138.435 140.719 136.739 140.719 134.704C140.719 132.669 142.415 130.973 144.45 130.973C146.485 130.973 148.181 132.669 148.181 134.704Z" fill="#E2DCDE"/>
<path d="M148.096 134.704C148.096 136.74 146.443 138.393 144.408 138.393C142.372 138.393 140.719 136.74 140.719 134.704C140.719 132.669 142.372 131.016 144.408 131.016C146.443 131.016 148.096 132.669 148.096 134.704Z" fill="#E1DBDD"/>
<path d="M147.985 134.709C148.01 132.695 146.397 131.043 144.384 131.018C142.37 130.993 140.718 132.606 140.693 134.619C140.668 136.633 142.281 138.286 144.295 138.31C146.308 138.335 147.961 136.722 147.985 134.709Z" fill="#E1DADC"/>
<path d="M148.014 134.706C148.014 136.698 146.403 138.267 144.452 138.267C142.502 138.267 140.891 136.656 140.891 134.706C140.891 132.755 142.502 131.102 144.452 131.102C146.403 131.102 148.014 132.713 148.014 134.706Z" fill="#E0D9DB"/>
<path d="M147.987 134.837C148.011 132.893 146.455 131.298 144.511 131.275C142.568 131.251 140.973 132.807 140.949 134.751C140.925 136.694 142.482 138.289 144.425 138.313C146.369 138.336 147.963 136.78 147.987 134.837Z" fill="#DFD7DA"/>
<path d="M147.891 134.703C147.891 136.611 146.322 138.18 144.414 138.18C142.506 138.18 140.938 136.611 140.938 134.703C140.938 132.795 142.506 131.227 144.414 131.227C146.322 131.227 147.891 132.795 147.891 134.703Z" fill="#DED6D9"/>
<path d="M147.838 134.704C147.838 136.612 146.311 138.138 144.403 138.138C142.495 138.138 140.969 136.612 140.969 134.704C140.969 132.796 142.495 131.27 144.403 131.27C146.311 131.27 147.838 132.796 147.838 134.704Z" fill="#DDD5D8"/>
<path d="M147.801 134.705C147.801 136.571 146.274 138.055 144.451 138.055C142.628 138.055 141.102 136.528 141.102 134.705C141.102 132.882 142.628 131.355 144.451 131.355C146.274 131.355 147.801 132.882 147.801 134.705Z" fill="#DCD4D7"/>
<path d="M147.755 134.706C147.755 136.529 146.271 138.013 144.448 138.013C142.625 138.013 141.141 136.529 141.141 134.706C141.141 132.882 142.625 131.398 144.448 131.398C146.271 131.398 147.755 132.882 147.755 134.706Z" fill="#DBD3D6"/>
<path d="M147.733 134.831C147.755 133.028 146.311 131.548 144.508 131.526C142.705 131.504 141.226 132.948 141.204 134.751C141.182 136.554 142.626 138.033 144.429 138.056C146.232 138.078 147.711 136.634 147.733 134.831Z" fill="#DAD2D5"/>
<path d="M147.632 134.703C147.632 136.484 146.191 137.925 144.41 137.925C142.629 137.925 141.188 136.484 141.188 134.703C141.188 132.922 142.629 131.48 144.41 131.48C146.191 131.48 147.632 132.922 147.632 134.703Z" fill="#D9D1D4"/>
<path d="M144.403 137.842C146.136 137.842 147.541 136.437 147.541 134.704C147.541 132.971 146.136 131.566 144.403 131.566C142.67 131.566 141.266 132.971 141.266 134.704C141.266 136.437 142.67 137.842 144.403 137.842Z" fill="#D9D0D3"/>
<path d="M147.55 134.705C147.55 136.401 146.151 137.8 144.455 137.8C142.759 137.8 141.359 136.401 141.359 134.705C141.359 133.009 142.759 131.609 144.455 131.609C146.151 131.609 147.55 133.009 147.55 134.705Z" fill="#D8CFD2"/>
<path d="M147.465 134.705C147.465 136.401 146.108 137.758 144.412 137.758C142.716 137.758 141.359 136.401 141.359 134.705C141.359 133.009 142.716 131.652 144.412 131.652C146.108 131.652 147.465 133.009 147.465 134.705Z" fill="#D7CDD1"/>
<path d="M147.419 134.706C147.419 136.359 146.062 137.716 144.409 137.716C142.755 137.716 141.398 136.359 141.398 134.706C141.398 133.052 142.755 131.695 144.409 131.695C146.062 131.695 147.419 133.052 147.419 134.706Z" fill="#D6CCD0"/>
<path d="M147.382 134.703C147.382 136.314 146.068 137.629 144.457 137.629C142.846 137.629 141.531 136.314 141.531 134.703C141.531 133.092 142.846 131.777 144.457 131.777C146.068 131.777 147.382 133.092 147.382 134.703Z" fill="#D5CBCF"/>
<path d="M147.298 134.704C147.298 136.315 146.026 137.587 144.414 137.587C142.803 137.587 141.531 136.315 141.531 134.704C141.531 133.092 142.803 131.82 144.414 131.82C146.026 131.82 147.298 133.092 147.298 134.704Z" fill="#D4CACE"/>
<path d="M147.244 134.704C147.244 136.273 145.972 137.545 144.403 137.545C142.835 137.545 141.562 136.273 141.562 134.704C141.562 133.135 142.835 131.863 144.403 131.863C145.972 131.863 147.244 133.135 147.244 134.704Z" fill="#D3C9CD"/>
<path d="M147.206 134.705C147.206 136.231 145.977 137.503 144.408 137.503C142.839 137.503 141.609 136.273 141.609 134.705C141.609 133.136 142.839 131.906 144.408 131.906C145.977 131.906 147.206 133.136 147.206 134.705Z" fill="#D2C8CB"/>
<path d="M147.162 134.706C147.162 136.19 145.932 137.419 144.448 137.419C142.964 137.419 141.734 136.19 141.734 134.706C141.734 133.222 142.964 131.992 144.448 131.992C145.932 131.992 147.162 133.222 147.162 134.706Z" fill="#D1C6CA"/>
<path d="M147.077 134.702C147.077 136.186 145.89 137.374 144.406 137.374C142.922 137.374 141.734 136.186 141.734 134.702C141.734 133.218 142.922 132.031 144.406 132.031C145.89 132.031 147.077 133.218 147.077 134.702Z" fill="#D0C5C9"/>
<path d="M147.039 134.703C147.039 136.145 145.852 137.332 144.41 137.332C142.968 137.332 141.781 136.145 141.781 134.703C141.781 133.261 142.968 132.074 144.41 132.074C145.852 132.074 147.039 133.261 147.039 134.703Z" fill="#CFC4C8"/>
<path d="M146.994 134.704C146.994 136.103 145.849 137.248 144.45 137.248C143.051 137.248 141.906 136.103 141.906 134.704C141.906 133.305 143.051 132.16 144.45 132.16C145.849 132.16 146.994 133.305 146.994 134.704Z" fill="#CEC3C7"/>
<path d="M146.956 134.705C146.956 136.104 145.854 137.206 144.455 137.206C143.056 137.206 141.953 136.062 141.953 134.705C141.953 133.348 143.098 132.203 144.455 132.203C145.812 132.203 146.956 133.306 146.956 134.705Z" fill="#CDC1C6"/>
<path d="M146.872 134.705C146.872 136.062 145.769 137.164 144.412 137.164C143.056 137.164 141.953 136.062 141.953 134.705C141.953 133.349 143.056 132.246 144.412 132.246C145.769 132.246 146.872 133.349 146.872 134.705Z" fill="#CCC0C5"/>
<path d="M146.826 134.706C146.826 136.02 145.766 137.123 144.409 137.123C143.052 137.123 141.992 136.063 141.992 134.706C141.992 133.349 143.052 132.289 144.409 132.289C145.766 132.289 146.826 133.349 146.826 134.706Z" fill="#CBBFC3"/>
<path d="M146.789 134.703C146.789 136.017 145.729 137.035 144.457 137.035C143.185 137.035 142.125 135.975 142.125 134.703C142.125 133.431 143.185 132.371 144.457 132.371C145.729 132.371 146.789 133.431 146.789 134.703Z" fill="#CABEC2"/>
<path d="M146.735 134.704C146.735 135.976 145.718 136.993 144.446 136.993C143.174 136.993 142.156 135.976 142.156 134.704C142.156 133.432 143.174 132.414 144.446 132.414C145.718 132.414 146.735 133.432 146.735 134.704Z" fill="#C9BCC1"/>
<path d="M146.651 134.704C146.651 135.934 145.633 136.951 144.403 136.951C143.174 136.951 142.156 135.934 142.156 134.704C142.156 133.475 143.174 132.457 144.403 132.457C145.633 132.457 146.651 133.475 146.651 134.704Z" fill="#C8BBC0"/>
<path d="M146.613 134.705C146.613 135.892 145.638 136.91 144.408 136.91C143.178 136.91 142.203 135.934 142.203 134.705C142.203 133.475 143.178 132.5 144.408 132.5C145.638 132.5 146.613 133.475 146.613 134.705Z" fill="#C7BABF"/>
<path d="M146.568 134.706C146.568 135.893 145.593 136.826 144.448 136.826C143.303 136.826 142.328 135.851 142.328 134.706C142.328 133.561 143.303 132.586 144.448 132.586C145.593 132.586 146.568 133.561 146.568 134.706Z" fill="#C6B9BE"/>
<path d="M146.483 134.703C146.483 135.847 145.551 136.78 144.406 136.78C143.261 136.78 142.328 135.847 142.328 134.703C142.328 133.558 143.261 132.625 144.406 132.625C145.551 132.625 146.483 133.558 146.483 134.703Z" fill="#C5B7BC"/>
<path d="M146.445 134.703C146.445 135.806 145.555 136.738 144.41 136.738C143.265 136.738 142.375 135.848 142.375 134.703C142.375 133.558 143.265 132.668 144.41 132.668C145.555 132.668 146.445 133.558 146.445 134.703Z" fill="#C4B6BB"/>
<path d="M146.407 134.704C146.407 135.806 145.517 136.697 144.415 136.697C143.312 136.697 142.422 135.806 142.422 134.704C142.422 133.601 143.312 132.711 144.415 132.711C145.517 132.711 146.407 133.601 146.407 134.704Z" fill="#C2B5BA"/>
<path d="M146.363 134.705C146.363 135.765 145.515 136.613 144.455 136.613C143.395 136.613 142.547 135.765 142.547 134.705C142.547 133.645 143.395 132.797 144.455 132.797C145.515 132.797 146.363 133.645 146.363 134.705Z" fill="#C1B3B9"/>
<path d="M146.278 134.705C146.278 135.723 145.43 136.571 144.412 136.571C143.395 136.571 142.547 135.723 142.547 134.705C142.547 133.688 143.395 132.84 144.412 132.84C145.43 132.84 146.278 133.688 146.278 134.705Z" fill="#C0B2B7"/>
<path d="M146.232 134.706C146.232 135.724 145.427 136.529 144.409 136.529C143.392 136.529 142.586 135.724 142.586 134.706C142.586 133.688 143.392 132.883 144.409 132.883C145.427 132.883 146.232 133.688 146.232 134.706Z" fill="#BFB1B6"/>
<path d="M146.196 134.703C146.196 135.678 145.39 136.442 144.457 136.442C143.524 136.442 142.719 135.636 142.719 134.703C142.719 133.77 143.524 132.965 144.457 132.965C145.39 132.965 146.196 133.77 146.196 134.703Z" fill="#BEAFB5"/>
<path d="M146.142 134.704C146.142 135.637 145.379 136.4 144.446 136.4C143.513 136.4 142.75 135.637 142.75 134.704C142.75 133.771 143.513 133.008 144.446 133.008C145.379 133.008 146.142 133.771 146.142 134.704Z" fill="#BDAEB4"/>
<path d="M146.057 134.704C146.057 135.637 145.336 136.358 144.404 136.358C143.471 136.358 142.75 135.637 142.75 134.704C142.75 133.772 143.471 133.051 144.404 133.051C145.336 133.051 146.057 133.772 146.057 134.704Z" fill="#BCACB2"/>
<path d="M146.019 134.705C146.019 135.595 145.298 136.316 144.408 136.316C143.518 136.316 142.797 135.595 142.797 134.705C142.797 133.815 143.518 133.094 144.408 133.094C145.298 133.094 146.019 133.815 146.019 134.705Z" fill="#BBABB1"/>
<path d="M145.975 134.706C145.975 135.554 145.296 136.232 144.448 136.232C143.6 136.232 142.922 135.554 142.922 134.706C142.922 133.858 143.6 133.18 144.448 133.18C145.296 133.18 145.975 133.858 145.975 134.706Z" fill="#BAAAB0"/>
<path d="M145.937 134.703C145.937 135.508 145.258 136.187 144.453 136.187C143.647 136.187 142.969 135.508 142.969 134.703C142.969 133.897 143.647 133.219 144.453 133.219C145.258 133.219 145.937 133.897 145.937 134.703Z" fill="#B8A8AE"/>
<path d="M145.852 134.703C145.852 135.509 145.216 136.145 144.41 136.145C143.605 136.145 142.969 135.509 142.969 134.703C142.969 133.898 143.605 133.262 144.41 133.262C145.216 133.262 145.852 133.898 145.852 134.703Z" fill="#B7A7AD"/>
<path d="M145.814 134.704C145.814 135.467 145.178 136.103 144.415 136.103C143.652 136.103 143.016 135.467 143.016 134.704C143.016 133.941 143.652 133.305 144.415 133.305C145.178 133.305 145.814 133.941 145.814 134.704Z" fill="#B6A6AC"/>
<path d="M145.769 134.705C145.769 135.426 145.176 136.019 144.455 136.019C143.734 136.019 143.141 135.426 143.141 134.705C143.141 133.984 143.734 133.391 144.455 133.391C145.176 133.391 145.769 133.984 145.769 134.705Z" fill="#B5A4AB"/>
<path d="M145.685 134.706C145.685 135.426 145.133 135.978 144.413 135.978C143.692 135.978 143.141 135.426 143.141 134.706C143.141 133.985 143.692 133.434 144.413 133.434C145.133 133.434 145.685 133.985 145.685 134.706Z" fill="#B4A3A9"/>
<path d="M145.639 134.706C145.639 135.385 145.088 135.936 144.409 135.936C143.731 135.936 143.18 135.385 143.18 134.706C143.18 134.028 143.731 133.477 144.409 133.477C145.088 133.477 145.639 134.028 145.639 134.706Z" fill="#B3A1A8"/>
<path d="M145.593 134.703C145.593 135.339 145.084 135.89 144.406 135.89C143.728 135.89 143.219 135.381 143.219 134.703C143.219 134.024 143.728 133.516 144.406 133.516C145.084 133.516 145.593 134.024 145.593 134.703Z" fill="#B2A0A7"/>
<path d="M145.549 134.704C145.549 135.34 145.04 135.806 144.446 135.806C143.853 135.806 143.344 135.298 143.344 134.704C143.344 134.11 143.853 133.602 144.446 133.602C145.04 133.602 145.549 134.11 145.549 134.704Z" fill="#B09EA5"/>
<path d="M145.464 134.705C145.464 135.298 144.997 135.765 144.404 135.765C143.81 135.765 143.344 135.298 143.344 134.705C143.344 134.111 143.81 133.645 144.404 133.645C144.997 133.645 145.464 134.111 145.464 134.705Z" fill="#AF9DA4"/>
<path d="M145.426 134.705C145.426 135.256 144.959 135.723 144.408 135.723C143.857 135.723 143.391 135.256 143.391 134.705C143.391 134.154 143.857 133.688 144.408 133.688C144.959 133.688 145.426 134.154 145.426 134.705Z" fill="#AE9BA3"/>
<path d="M145.381 134.706C145.381 135.215 144.957 135.639 144.448 135.639C143.94 135.639 143.516 135.215 143.516 134.706C143.516 134.197 143.94 133.773 144.448 133.773C144.957 133.773 145.381 134.197 145.381 134.706Z" fill="#AD9AA1"/>
<path d="M145.343 134.703C145.343 135.212 144.919 135.593 144.453 135.593C143.987 135.593 143.562 135.169 143.562 134.703C143.562 134.237 143.987 133.812 144.453 133.812C144.919 133.812 145.343 134.237 145.343 134.703Z" fill="#AC99A0"/>
<path d="M145.259 134.703C145.259 135.17 144.877 135.551 144.411 135.551C143.944 135.551 143.562 135.17 143.562 134.703C143.562 134.237 143.944 133.855 144.411 133.855C144.877 133.855 145.259 134.237 145.259 134.703Z" fill="#AA979E"/>
<path d="M145.213 134.704C145.213 135.128 144.874 135.51 144.407 135.51C143.941 135.51 143.602 135.17 143.602 134.704C143.602 134.238 143.941 133.898 144.407 133.898C144.874 133.898 145.213 134.238 145.213 134.704Z" fill="#A9969D"/>
<path d="M145.176 134.705C145.176 135.129 144.837 135.426 144.455 135.426C144.074 135.426 143.734 135.087 143.734 134.705C143.734 134.324 144.074 133.984 144.455 133.984C144.837 133.984 145.176 134.324 145.176 134.705Z" fill="#A8949C"/>
<path d="M145.13 134.706C145.13 135.087 144.833 135.384 144.452 135.384C144.07 135.384 143.773 135.087 143.773 134.706C143.773 134.324 144.07 134.027 144.452 134.027C144.833 134.027 145.13 134.324 145.13 134.706Z" fill="#A7939A"/>
<path d="M145.045 134.702C145.045 135.042 144.749 135.338 144.409 135.338C144.07 135.338 143.773 135.042 143.773 134.702C143.773 134.363 144.07 134.066 144.409 134.066C144.749 134.066 145.045 134.363 145.045 134.702Z" fill="#A59199"/>
<path d="M145 134.703C145 135.042 144.745 135.297 144.406 135.297C144.067 135.297 143.812 135.042 143.812 134.703C143.812 134.364 144.067 134.109 144.406 134.109C144.745 134.109 145 134.364 145 134.703Z" fill="#A49097"/>
<path d="M144.955 134.704C144.955 135.001 144.701 135.213 144.446 135.213C144.192 135.213 143.938 134.959 143.938 134.704C143.938 134.45 144.192 134.195 144.446 134.195C144.701 134.195 144.955 134.45 144.955 134.704Z" fill="#A38E96"/>
</g>
</g>
<path d="M137.125 132.967L146.495 127.922C146.495 127.922 150.099 129.024 150.947 132.967C151.795 136.953 150.947 140.642 150.947 140.642L147.471 137.292L143.951 143.779C143.951 143.779 142.807 136.359 141.238 134.875C139.669 133.434 137.125 132.925 137.125 132.925V132.967Z" fill="url(#paint15_linear_2589_34009)"/>
<path style="mix-blend-mode:multiply" opacity="0.9" d="M179.691 84.0378C183.168 97.5634 158.364 115.711 124.232 124.487C90.1 133.264 59.6144 129.406 56.1376 115.88C52.6608 102.355 77.4648 84.2074 111.597 75.4306C145.729 66.6538 176.214 70.4698 179.691 84.0378Z" fill="url(#paint16_radial_2589_34009)"/>
<path style="mix-blend-mode:multiply" opacity="0.9" d="M166.968 71.4455C172.353 80.4767 152.764 102.101 123.169 119.739C93.6161 137.378 65.2505 144.416 59.8657 135.385C54.4809 126.354 74.1121 104.73 103.665 87.0911C133.26 69.4103 161.583 62.4143 166.968 71.4455Z" fill="url(#paint17_radial_2589_34009)"/>
<path style="mix-blend-mode:multiply" opacity="0.9" d="M124.145 90.7796C126.731 109.52 110.322 127.244 87.5111 130.381C64.6999 133.519 44.1359 120.884 41.5495 102.185C38.9631 83.4444 55.3719 65.7212 78.1831 62.5836C100.994 59.446 121.601 72.0812 124.145 90.7796Z" fill="url(#paint18_radial_2589_34009)"/>
<path d="M40.5258 99.5556L129.905 76.6172L183.371 94.1708L81.3994 127.54L40.3138 101.633C39.5082 101.124 39.6354 99.81 40.5682 99.598L40.5258 99.5556Z" fill="#041E42"/>
<path d="M39.469 99.0053C39.5538 99.5141 39.5538 99.8533 41.0802 100.786L78.8586 124.657C79.0282 124.7 81.4026 125.929 81.5722 125.887C85.7698 121.901 82.1234 110.538 77.7986 106.977L58.7186 94.9349L56.5562 93.5781L40.2322 97.7757C39.6386 97.9453 39.3842 98.4965 39.469 99.0477V99.0053Z" fill="#041E42"/>
<path d="M40.7398 99.0069L82.0798 125.21C82.207 124.998 82.2918 124.744 82.419 124.489C83.9454 120.207 81.783 110.667 78.1366 107.232L78.0518 107.148C78.0518 107.148 77.967 107.105 77.967 107.063C77.967 107.063 77.8822 107.02 77.8822 106.978L57.1062 93.1557L40.2734 82.0469C42.0966 87.9829 41.2062 93.7069 40.8246 99.0069H40.7398Z" fill="url(#paint19_linear_2589_34009)"/>
<path d="M39.763 100.7C39.8054 101.124 40.0174 101.463 40.3142 101.633L80.679 127.073L81.3998 127.539C81.8238 127.412 82.2054 127.2 82.5022 126.903C82.7142 126.691 82.8838 126.479 83.0534 126.182C85.6822 121.942 83.1382 109.477 77.5414 105.576L39.4662 80.3903L38.6606 79.8815C38.5334 79.7967 38.4486 79.7119 38.3638 79.6271C38.2366 79.4999 38.1518 79.3303 38.1094 79.2031L38.3638 80.6023C38.4486 80.8567 38.6182 81.1111 38.915 81.2807L77.7958 106.975C82.0782 110.537 84.495 122.79 81.5694 125.886C80.7214 126.225 41.035 100.488 41.035 100.488L40.0598 99.8519H39.975C39.6782 99.5975 39.5086 99.3431 39.4662 99.0039L39.763 100.658V100.7Z" fill="#041E42"/>
<g style="mix-blend-mode:screen" opacity="0.3">
<path d="M39.763 100.7C39.8054 101.124 40.0174 101.463 40.3142 101.633L80.679 127.073L81.3998 127.539C81.8238 127.412 82.2054 127.2 82.5022 126.903C82.7142 126.691 82.8838 126.479 83.0534 126.182C85.6822 121.942 83.1382 109.477 77.5414 105.576L39.4662 80.3903L38.6606 79.8815C38.5334 79.7967 38.4486 79.7119 38.3638 79.6271C38.2366 79.4999 38.1518 79.3303 38.1094 79.2031L38.3638 80.6023C38.4486 80.8567 38.6182 81.1111 38.915 81.2807L77.7958 106.975C82.0782 110.537 84.495 122.79 81.5694 125.886C80.7214 126.225 41.035 100.488 41.035 100.488L40.0598 99.8519H39.975C39.6782 99.5975 39.5086 99.3431 39.4662 99.0039L39.763 100.658V100.7Z" fill="#041E42"/>
</g>
<g style="mix-blend-mode:screen" opacity="0.3">
<path d="M39.4706 99.0067L39.7675 100.66C39.8099 101.084 40.0218 101.423 40.3186 101.593L80.6835 127.033L81.4043 127.499C81.8283 127.372 82.2099 127.16 82.5067 126.863C82.7187 126.651 82.8883 126.439 83.0579 126.143C83.2275 125.846 83.3971 125.507 83.5243 125.125C83.9907 123.811 84.1603 122.115 84.0755 120.207C83.9907 118.977 83.8211 117.705 83.5667 116.391C82.6339 112.023 80.5139 107.571 77.5883 105.494L39.725 80.4355L39.513 80.3083L38.7075 79.7995C38.5803 79.7147 38.4954 79.6299 38.4106 79.5451C38.2834 79.4179 38.1987 79.2483 38.1562 79.1211L38.4106 80.5203C38.4954 80.7747 38.6651 81.0291 38.9619 81.1987L40.2339 82.0467L77.8427 106.893C81.6587 110.031 83.9907 119.995 82.4219 124.404C82.2098 124.955 81.9555 125.464 81.6163 125.803C80.7683 126.143 41.0819 100.406 41.0819 100.406L40.1066 99.7699H40.0219C39.7251 99.5155 39.5554 99.2611 39.513 98.9219L39.4706 99.0067Z" fill="#041E42"/>
</g>
<g style="mix-blend-mode:screen" opacity="0.3">
<path d="M39.4718 99.0039L39.7686 100.658C39.811 101.082 40.023 101.421 40.3198 101.59L80.6846 127.03L81.4478 127.497C82.5502 127.2 83.1862 126.225 83.6102 125.165C84.0766 123.85 84.2462 122.112 84.1614 120.246C84.0766 119.017 83.907 117.745 83.6526 116.43C83.5678 116.091 83.483 115.71 83.3982 115.37C82.3806 111.342 80.3454 107.442 77.6742 105.576L39.811 80.5175L39.599 80.3903L38.7934 79.8815C38.6662 79.7967 38.5814 79.7119 38.4966 79.6271C38.3694 79.4999 38.327 79.3303 38.2422 79.2031L38.4966 80.5599C38.5814 80.8143 38.751 81.0687 39.0478 81.2383L40.3198 82.0863L77.9286 106.933C77.9286 106.933 78.0134 106.975 78.0134 107.018C78.0134 107.018 78.0982 107.06 78.0982 107.102C78.0982 107.102 78.183 107.145 78.183 107.187C81.787 110.622 83.9494 120.162 82.4654 124.444C82.3806 124.698 82.2534 124.953 82.1262 125.165C81.999 125.419 81.8294 125.631 81.6598 125.843C80.8118 126.182 41.083 100.446 41.1254 100.446L40.1502 99.8095H40.0654C39.7686 99.5551 39.599 99.3007 39.5566 99.0039H39.4718Z" fill="#041E42"/>
</g>
<path d="M129.526 55.8002L179.558 72.209C184.815 74.5834 186.554 92.1794 183.374 94.1722L81.4015 127.541C86.4047 126.184 84.0727 110.115 77.5855 105.578L38.7047 79.8834C37.7719 79.2898 37.9839 77.8058 39.0015 77.509L122.657 55.5458C124.904 54.9522 127.321 55.037 129.568 55.8002H129.526Z" fill="#041E42"/>
<path style="mix-blend-mode:multiply" opacity="0.4" d="M83.9034 118.596L184.9 87.3047C184.985 90.6543 184.476 93.4527 183.331 94.1735L81.3594 127.542C83.7338 126.906 84.4546 123.048 83.9034 118.638V118.596Z" fill="url(#paint20_linear_2589_34009)"/>
<path style="mix-blend-mode:screen" opacity="0.4" d="M177.014 71.4051L179.516 72.2107C181.084 72.9315 182.356 75.0515 183.247 77.6803L80.5964 108.972C79.706 107.572 78.6884 106.385 77.5012 105.537L73.2188 102.824L176.972 71.3203L177.014 71.4051Z" fill="url(#paint21_linear_2589_34009)"/>
<defs>
<linearGradient id="paint0_linear_2589_34009" x1="85.9468" y1="167.146" x2="86.8796" y2="159.599" gradientUnits="userSpaceOnUse">
<stop/>
<stop offset="1" stop-color="white"/>
</linearGradient>
<linearGradient id="paint1_linear_2589_34009" x1="89.0421" y1="140.007" x2="88.0669" y2="148.657" gradientUnits="userSpaceOnUse">
<stop/>
<stop offset="0.5" stop-color="white"/>
<stop offset="1"/>
</linearGradient>
<linearGradient id="paint2_linear_2589_34009" x1="121.393" y1="118.982" x2="175.708" y2="150.952" gradientUnits="userSpaceOnUse">
<stop stop-color="#829EDD"/>
<stop offset="1" stop-color="#4F7BDD"/>
</linearGradient>
<linearGradient id="paint3_linear_2589_34009" x1="121.393" y1="118.982" x2="175.708" y2="150.952" gradientUnits="userSpaceOnUse">
<stop stop-color="#829EDD"/>
<stop offset="1" stop-color="#4F7BDD"/>
</linearGradient>
<linearGradient id="paint4_linear_2589_34009" x1="169.934" y1="151.16" x2="161.496" y2="141.196" gradientUnits="userSpaceOnUse">
<stop offset="0.3" stop-color="#F7E7D0"/>
<stop offset="0.4" stop-color="#F5E2C8"/>
<stop offset="0.6" stop-color="#F0D6B5"/>
<stop offset="0.8" stop-color="#E8C295"/>
<stop offset="1" stop-color="#DDA86A"/>
</linearGradient>
<radialGradient id="paint5_radial_2589_34009" cx="0" cy="0" r="1" gradientUnits="userSpaceOnUse" gradientTransform="translate(63.5599 -217.843) rotate(14.9) scale(53.9879 23.1377)">
<stop stop-color="#A38E96"/>
<stop offset="0.3" stop-color="#B8A8AE"/>
<stop offset="0.9" stop-color="#F0EDEE"/>
<stop offset="1" stop-color="white"/>
</radialGradient>
<radialGradient id="paint6_radial_2589_34009" cx="0" cy="0" r="1" gradientUnits="userSpaceOnUse" gradientTransform="translate(57.2749 -226.179) rotate(14.9) scale(53.9879 23.1377)">
<stop stop-color="#A38E96"/>
<stop offset="0.3" stop-color="#B8A8AE"/>
<stop offset="0.9" stop-color="#F0EDEE"/>
<stop offset="1" stop-color="white"/>
</radialGradient>
<radialGradient id="paint7_radial_2589_34009" cx="0" cy="0" r="1" gradientUnits="userSpaceOnUse" gradientTransform="translate(336.412 -473.308) rotate(9.5) scale(69.413 30.8502)">
<stop stop-color="#A38E96"/>
<stop offset="0.3" stop-color="#B8A8AE"/>
<stop offset="0.9" stop-color="#F0EDEE"/>
<stop offset="1" stop-color="white"/>
</radialGradient>
<radialGradient id="paint8_radial_2589_34009" cx="0" cy="0" r="1" gradientUnits="userSpaceOnUse" gradientTransform="translate(183.785 433.881) rotate(9.5) scale(69.413 30.8502)">
<stop stop-color="#A38E96"/>
<stop offset="0.3" stop-color="#B8A8AE"/>
<stop offset="0.9" stop-color="#F0EDEE"/>
<stop offset="1" stop-color="white"/>
</radialGradient>
<radialGradient id="paint9_radial_2589_34009" cx="0" cy="0" r="1" gradientUnits="userSpaceOnUse" gradientTransform="translate(118.183 -77.4965) rotate(9.50001) scale(10.0234 6.68224)">
<stop stop-color="#A38E96"/>
<stop offset="0.3" stop-color="#B8A8AE"/>
<stop offset="0.9" stop-color="#F0EDEE"/>
<stop offset="1" stop-color="white"/>
</radialGradient>
<radialGradient id="paint10_radial_2589_34009" cx="0" cy="0" r="1" gradientUnits="userSpaceOnUse" gradientTransform="translate(116.559 -75.5123) rotate(9.49999) scale(10.0234 6.68224)">
<stop stop-color="#A38E96"/>
<stop offset="0.3" stop-color="#B8A8AE"/>
<stop offset="0.9" stop-color="#F0EDEE"/>
<stop offset="1" stop-color="white"/>
</radialGradient>
<linearGradient id="paint11_linear_2589_34009" x1="154.838" y1="136.361" x2="145.68" y2="116.773" gradientUnits="userSpaceOnUse">
<stop offset="0.3" stop-color="#F7E7D0"/>
<stop offset="0.4" stop-color="#F3E1C8"/>
<stop offset="0.5" stop-color="#EBD3B5"/>
<stop offset="0.7" stop-color="#DCBC95"/>
<stop offset="0.9" stop-color="#C99D69"/>
<stop offset="1" stop-color="#C4955E"/>
</linearGradient>
<linearGradient id="paint12_linear_2589_34009" x1="142.508" y1="130.551" x2="142.084" y2="129.576" gradientUnits="userSpaceOnUse">
<stop offset="0.3" stop-color="#F7E7D0"/>
<stop offset="0.4" stop-color="#F5E2C8"/>
<stop offset="0.6" stop-color="#F0D6B5"/>
<stop offset="0.8" stop-color="#E8C295"/>
<stop offset="1" stop-color="#DDA86A"/>
</linearGradient>
<linearGradient id="paint13_linear_2589_34009" x1="83.4357" y1="110.241" x2="80.0861" y2="121.774" gradientUnits="userSpaceOnUse">
<stop/>
<stop offset="0.5" stop-color="white"/>
<stop offset="1"/>
</linearGradient>
<linearGradient id="paint14_linear_2589_34009" x1="77.8868" y1="140.261" x2="79.922" y2="133.604" gradientUnits="userSpaceOnUse">
<stop/>
<stop offset="1" stop-color="white"/>
</linearGradient>
<linearGradient id="paint15_linear_2589_34009" x1="147.598" y1="140.43" x2="142.128" y2="128.727" gradientUnits="userSpaceOnUse">
<stop stop-color="#E90D00"/>
<stop offset="0.5" stop-color="#FF5952"/>
<stop offset="0.6" stop-color="#F74037"/>
<stop offset="0.7" stop-color="#EF2317"/>
<stop offset="0.8" stop-color="#E90D00"/>
<stop offset="1" stop-color="#B30900"/>
</linearGradient>
<radialGradient id="paint16_radial_2589_34009" cx="0" cy="0" r="1" gradientUnits="userSpaceOnUse" gradientTransform="translate(161.847 608.354) rotate(-14.5) scale(61.7005 23.1377)">
<stop stop-color="#A38E96"/>
<stop offset="0.3" stop-color="#B8A8AE"/>
<stop offset="0.9" stop-color="#F0EDEE"/>
<stop offset="1" stop-color="white"/>
</radialGradient>
<radialGradient id="paint17_radial_2589_34009" cx="0" cy="0" r="1" gradientUnits="userSpaceOnUse" gradientTransform="translate(519.384 824.101) rotate(-30.8) scale(61.7005 15.4251)">
<stop stop-color="#A38E96"/>
<stop offset="0.3" stop-color="#B8A8AE"/>
<stop offset="0.9" stop-color="#F0EDEE"/>
<stop offset="1" stop-color="white"/>
</radialGradient>
<radialGradient id="paint18_radial_2589_34009" cx="0" cy="0" r="1" gradientUnits="userSpaceOnUse" gradientTransform="translate(106.037 -686.388) rotate(-7.9) scale(45.0288 37.524)">
<stop stop-color="#A38E96"/>
<stop offset="0.3" stop-color="#B8A8AE"/>
<stop offset="0.9" stop-color="#F0EDEE"/>
<stop offset="1" stop-color="white"/>
</radialGradient>
<linearGradient id="paint19_linear_2589_34009" x1="57.8208" y1="110.982" x2="66.578" y2="99.1981" gradientUnits="userSpaceOnUse">
<stop offset="0.3" stop-color="#F7E7D0"/>
<stop offset="0.4" stop-color="#F5E2C8"/>
<stop offset="0.6" stop-color="#F0D6B5"/>
<stop offset="0.8" stop-color="#E8C295"/>
<stop offset="1" stop-color="#DDA86A"/>
</linearGradient>
<linearGradient id="paint20_linear_2589_34009" x1="134.529" y1="111.769" x2="132.579" y2="105.621" gradientUnits="userSpaceOnUse">
<stop/>
<stop offset="1" stop-color="white"/>
</linearGradient>
<linearGradient id="paint21_linear_2589_34009" x1="126.86" y1="84.9454" x2="129.88" y2="94.2913" gradientUnits="userSpaceOnUse">
<stop/>
<stop offset="0.5" stop-color="white"/>
<stop offset="1"/>
</linearGradient>
</defs>
</svg>
