<svg width="204" height="203" viewBox="0 0 204 203" fill="none" xmlns="http://www.w3.org/2000/svg">
<path d="M65.6478 104.262C65.6478 104.262 52.1708 109.337 50.4416 111.555C48.7123 113.773 50.8175 123.302 54.5204 124.299C58.2233 125.295 69.6514 116.385 71.9446 114.9C74.2565 113.416 65.6478 104.262 65.6478 104.262Z" fill="#F09066"/>
<path d="M68.4892 114.32C65.7637 116.219 60.8015 122.29 54.6739 119.508C51.5162 118.061 50.6515 114.508 50.5575 111.426L50.426 111.576C48.6967 113.794 50.8019 123.324 54.5048 124.32C57.8505 125.203 67.4366 118.08 70.9891 115.58C70.3876 114.377 69.5606 113.606 68.4704 114.358L68.4892 114.32Z" fill="#E2805C"/>
<path d="M82.6987 95.8438C82.6987 95.8438 65.5377 102.516 61.0078 105.862C61.0078 105.862 65.3498 119.245 68.9586 121.952C68.9586 121.952 79.2214 114.96 84.0333 109.734C88.8639 104.509 82.6799 95.8438 82.6799 95.8438H82.6987Z" fill="#041E42"/>
<path d="M84.9697 95.8438C84.9697 95.8438 72.7709 129.978 71.286 138.135C71.286 138.135 60.8917 147.402 59.7827 155.936C58.6737 164.469 60.8917 183.754 76.1167 186.348C91.3229 188.942 138.088 191.179 144.479 179.299C150.888 167.42 147.167 153.323 137.825 143.192C137.825 143.192 135.062 122.177 116.134 95.8438H84.9697Z" fill="#F09066"/>
<path d="M83.7734 99.2442C83.7734 99.2442 106.141 105.992 114.618 104.263C123.095 102.534 116.592 92.7031 116.592 92.7031L83.7734 93.4362V99.2254V99.2442Z" fill="#C67152"/>
<path d="M144.478 179.318C150.887 167.438 147.165 153.341 137.824 143.21C137.824 143.21 136.677 134.526 130.831 121.331C117.674 120.673 95.4004 119.94 76.8109 119.508C74.217 127.327 71.8674 134.864 71.266 138.154C71.266 138.154 66.3225 142.571 62.8828 148.116C79.01 148.341 129.365 149.525 132.673 155.841C136.602 163.378 128.82 179.336 116.584 181.178C106.603 182.682 79.1416 183.96 65.1008 179.543C67.6195 182.945 71.1908 185.52 76.0966 186.366C91.3028 188.96 138.068 191.197 144.459 179.318H144.478Z" fill="#E2805C"/>
<path d="M74.9122 142.138C74.9122 142.138 64.8938 155.577 70.7018 164.844C76.5099 174.129 111.527 176.723 119.61 169.298C127.692 161.874 123.256 145.935 120.832 140.183C118.426 134.431 74.8934 142.138 74.8934 142.138H74.9122Z" fill="#FDC77F"/>
<path d="M71.3828 148.265C86.589 148.623 110.987 149.6 123.994 152.25C123.392 147.307 121.926 142.739 120.855 140.183C118.449 134.431 74.9165 142.138 74.9165 142.138C74.9165 142.138 73.0369 144.657 71.3828 148.265Z" fill="#E1A568"/>
<path d="M65.4389 144.489C65.4389 144.489 78.6715 144.526 96.2084 144.827C118.557 145.203 134.59 150.597 140.624 146.594C140.624 146.594 144.233 142.966 138.199 138.135C138.199 138.135 127.11 105.11 119.629 95.8438H114.61C114.61 95.8438 105.513 110.317 96.2084 108.456C86.9042 106.595 84.6487 97.9113 84.6487 97.9113L81.6601 97.4038C81.6601 97.4038 73.5401 121.35 70.7206 131.463C70.7206 131.463 64.7998 138.098 65.4389 144.489Z" fill="#041E42"/>
<path d="M96.2122 144.827C118.561 145.203 134.594 150.597 140.628 146.594C140.628 146.594 144.237 142.966 138.203 138.135C138.203 138.135 127.113 105.11 119.632 95.8438H116.982L116.7 96.6332C116.7 96.6332 133.335 137.026 126.455 138.135C119.576 139.244 90.9116 132.196 76.6828 135.166C76.6828 135.166 126.192 139.075 126.418 142.139C126.625 145.184 106.099 142.064 101.532 142.139C97.6031 142.214 79.1075 137.496 65.687 141.011C65.4426 142.139 65.3486 143.323 65.4614 144.489C65.4614 144.489 78.694 144.526 96.2309 144.827H96.2122Z" fill="#041E42"/>
<path d="M135.438 130.317C133.935 126.2 131.942 120.918 129.762 115.637H116.68C116.68 115.637 123.991 134.865 135.438 130.317Z" fill="#041E42"/>
<path d="M82.7189 30.9203C82.7189 30.9203 86.9293 17.8193 82.7189 14.0976C78.5086 10.3947 64.4113 12.951 61.949 22.0108C60.201 28.4392 72.5877 34.8863 77.0237 34.9991L82.7189 30.9203Z" fill="#D8744D"/>
<path d="M80.4581 30.8059C80.4581 30.8059 81.8303 22.1408 79.8567 19.4153C77.8831 16.6899 67 18.6259 67 23.7197C67 28.8135 77.1312 33.1554 77.1312 33.1554L80.4581 30.8059Z" fill="#E1A256"/>
<path d="M122.888 25.4331C122.888 25.4331 96.9303 19.4371 78.3783 30.9404C78.3783 30.9404 71.3297 37.256 68.3599 51.3344C65.3901 65.4316 68.0216 68.7962 64.3187 75.1117C60.6158 81.4273 60.2023 90.2991 67.608 94.3779C75.0326 98.4567 111.761 104.02 130.67 91.784C148.526 80.2243 139.541 26.0722 122.869 25.4519L122.888 25.4331Z" fill="#F09066"/>
<path d="M122.882 25.4308C122.882 25.4308 115.025 23.6264 104.875 23.8895C113.672 25.9007 131.19 32.3102 133.84 51.6892C136.622 72.196 128.276 84.5263 112.957 89.9021C106.247 92.2516 105.42 95.7289 106.604 98.8679C115.457 98.0973 124.122 95.9921 130.664 91.7629C148.52 80.2032 139.535 26.0511 122.863 25.4308H122.882Z" fill="#E2805C"/>
<path d="M96.6055 29.6774C97.3761 28.4556 98.2032 27.2526 99.1054 26.0685C99.2933 25.8241 99.2557 25.467 99.0114 25.279C98.767 25.0911 98.4099 25.1287 98.2408 25.373C97.3009 26.5948 96.4551 27.8165 95.6657 29.0759C95.4965 29.339 95.5905 29.6774 95.8348 29.8465C96.098 30.0157 96.4363 29.9217 96.6055 29.6586V29.6774ZM92.677 37.5342C93.2033 36.1997 93.786 34.8463 94.4627 33.5118C94.5943 33.2299 94.4815 32.9103 94.2183 32.76C93.9364 32.6284 93.5981 32.7412 93.4665 33.0043C92.7898 34.3764 92.1883 35.7486 91.6433 37.1207C91.5305 37.4026 91.6808 37.7222 91.9628 37.835C92.2447 37.9477 92.5643 37.7974 92.677 37.5154V37.5342ZM90.1771 45.9925C90.4779 44.5828 90.835 43.1543 91.2485 41.7258C91.3425 41.425 91.1733 41.1243 90.8726 41.0303C90.5719 40.9363 90.2711 41.1055 90.1771 41.4063C89.7448 42.8724 89.3877 44.3197 89.087 45.767C89.0306 46.0677 89.2185 46.3685 89.5193 46.4249C89.82 46.4813 90.1207 46.2933 90.1771 45.9925ZM89.0118 54.714C89.1058 53.3043 89.2373 51.8194 89.4441 50.3157C89.4817 50.015 89.2749 49.733 88.9742 49.6954C88.6734 49.6578 88.3915 49.8646 88.3539 50.1841C88.1471 51.7066 88.0156 53.2103 87.9216 54.6576C87.9028 54.9584 88.1283 55.2215 88.4479 55.2403C88.7486 55.2403 89.0118 55.0336 89.0494 54.714H89.0118ZM89.0494 63.5483C88.9554 62.195 88.899 60.71 88.899 59.1312C88.899 58.8304 88.6546 58.5673 88.3351 58.5673C88.0344 58.5673 87.7712 58.8116 87.79 59.1312C87.79 60.7288 87.8652 62.2325 87.9404 63.6235C87.9592 63.9242 88.2223 64.1686 88.5419 64.131C88.8426 64.1122 89.087 63.849 89.0494 63.5295V63.5483ZM90.2335 72.2698C90.2335 72.2698 90.1395 71.875 89.9892 71.142C89.8388 70.3901 89.6508 69.3187 89.4629 67.9466C89.4253 67.6459 89.1433 67.4203 88.8426 67.4767C88.5419 67.5143 88.3351 67.7962 88.3727 68.097C88.7486 70.8788 89.1433 72.5329 89.1621 72.5517C89.2373 72.8525 89.5381 73.0404 89.8388 72.9652C90.1395 72.89 90.3275 72.5893 90.2523 72.2886L90.2335 72.2698Z" fill="#924D37"/>
<path d="M126.61 74.8286C114.561 69.1145 75.7092 73.1745 64.6758 74.4715C64.563 74.6783 64.4503 74.885 64.3187 75.1106C60.6158 81.4261 60.2023 90.298 67.608 94.3768C75.0326 98.4556 111.761 104.019 130.67 91.7829C131.177 91.4445 131.666 91.0874 132.136 90.6927C135.049 85.2794 134.861 78.7758 126.591 74.8474L126.61 74.8286Z" fill="#FDC77F"/>
<path d="M81.1924 85.0738C81.2487 85.0926 85.6471 87.9873 91.3799 87.9873C94.143 87.9873 97.2068 87.3106 100.195 85.3182C100.459 85.149 100.515 84.8107 100.346 84.5475C100.177 84.2844 99.8383 84.228 99.5751 84.3972C96.7933 86.258 93.955 86.8783 91.3799 86.8783C88.6921 86.8783 86.2861 86.2016 84.5569 85.5062C83.6923 85.1678 82.9968 84.8107 82.5081 84.5663C82.2637 84.4348 82.0946 84.3408 81.963 84.2656L81.775 84.1528C81.5119 83.9837 81.1736 84.0588 81.0044 84.322C80.8352 84.5851 80.9104 84.9235 81.1736 85.0926L81.1924 85.0738Z" fill="#924D37"/>
<path d="M90.1769 77.6303C90.1769 77.6679 89.4062 79.8859 89.4062 82.8369C89.4062 85.7879 89.5942 85.9571 90.1769 87.6111C90.2709 87.8931 90.5904 88.0623 90.8912 87.9495C91.1731 87.8555 91.3235 87.536 91.2295 87.2352C90.7032 85.7315 90.534 84.209 90.534 82.8181C90.534 81.4272 90.722 80.2242 90.8912 79.3408C90.9851 78.9085 91.0791 78.5513 91.1355 78.307C91.1919 78.0626 91.2483 77.9498 91.2483 77.9498C91.3423 77.6679 91.1919 77.3484 90.8912 77.2544C90.5904 77.1604 90.2897 77.3108 90.1957 77.6115L90.1769 77.6303Z" fill="#924D37"/>
<path d="M101.096 71.3712C101.096 71.3712 90.1569 67.0105 81.755 72.2923C81.755 72.2923 79.2927 76.465 89.4427 80.1867C94.4049 82.0099 105.307 72.2547 101.078 71.3524L101.096 71.3712Z" fill="#3F0D0C"/>
<path d="M86.9062 72.4029C86.9062 73.0608 88.1656 73.5871 89.7069 73.5871C91.2482 73.5871 92.5075 73.0608 92.5075 72.4029C92.5075 71.745 91.2482 71.2188 89.7069 71.2188C88.1656 71.2188 86.9062 71.745 86.9062 72.4029Z" fill="#F0D1CD"/>
<path d="M73.1875 66.8219C73.1875 68.4008 74.0709 69.6789 75.1611 69.6789C76.2513 69.6789 77.1347 68.4008 77.1347 66.8219C77.1347 65.243 76.2513 63.9648 75.1611 63.9648C74.0709 63.9648 73.1875 65.243 73.1875 66.8219Z" fill="#3F0D0C"/>
<path d="M110.891 66.8219C110.891 68.4008 111.774 69.6789 112.864 69.6789C113.954 69.6789 114.838 68.4008 114.838 66.8219C114.838 65.243 113.954 63.9648 112.864 63.9648C111.774 63.9648 110.891 65.243 110.891 66.8219Z" fill="#3F0D0C"/>
<path d="M79.3568 57.5568C79.3568 57.538 79.0185 56.9553 78.4546 56.3726C77.8907 55.7899 77.0637 55.1321 75.9735 55.1133C75.3908 55.1133 74.7705 55.32 74.1879 55.7899C73.6052 56.2411 73.0413 56.9365 72.4774 57.9515C72.327 58.2147 72.421 58.553 72.7029 58.7034C72.9661 58.8537 73.3044 58.7598 73.4548 58.4778C73.9623 57.5568 74.451 56.9929 74.8645 56.6546C75.2968 56.3162 75.6352 56.2223 75.9735 56.2223C76.575 56.2223 77.1953 56.6358 77.6652 57.1245C77.8907 57.3688 78.0787 57.6132 78.2103 57.8011L78.3606 58.0267L78.3982 58.1019C78.5486 58.365 78.8869 58.459 79.1501 58.3087C79.4132 58.1583 79.5072 57.8199 79.3568 57.5568Z" fill="#924D37"/>
<path d="M110.499 59.4913L110.536 59.4349C110.649 59.2658 110.988 58.8334 111.439 58.4575C111.89 58.0816 112.435 57.7809 112.942 57.7809C113.281 57.7809 113.638 57.8936 114.051 58.232C114.465 58.5891 114.935 59.1906 115.405 60.1868C115.536 60.4687 115.875 60.5815 116.138 60.4499C116.42 60.3184 116.532 59.98 116.401 59.7169C115.893 58.6267 115.348 57.8748 114.766 57.3861C114.183 56.8974 113.544 56.6719 112.942 56.6719C111.89 56.6719 111.063 57.2734 110.499 57.7997C109.916 58.3447 109.578 58.871 109.559 58.8898C109.39 59.153 109.465 59.4913 109.728 59.6605C109.991 59.8297 110.33 59.7545 110.499 59.4913Z" fill="#924D37"/>
<path d="M78.9355 30.9027C78.9355 30.9027 78.6911 26.3916 78.0521 23.6098C77.9769 23.309 77.6762 23.1211 77.3754 23.1963C77.0747 23.2715 76.8867 23.5722 76.9619 23.8729C77.2626 25.1699 77.4694 26.9555 77.6198 28.4028C77.7513 29.8502 77.8265 30.9591 77.8265 30.9779C77.8265 31.2787 78.1085 31.523 78.4092 31.5042C78.7099 31.5042 78.9543 31.2223 78.9355 30.9215V30.9027Z" fill="#924D37"/>
<path d="M77.8304 31.3713C77.8304 31.3713 77.5485 31.1833 77.0974 30.8262C75.7441 29.8112 72.8682 27.424 71.6653 25.394C71.5149 25.1309 71.1766 25.0369 70.8946 25.2061C70.6127 25.3752 70.5375 25.7136 70.7066 25.9767C71.6277 27.5368 73.2441 29.0781 74.6163 30.2811C75.9884 31.4652 77.1538 32.2923 77.1538 32.2923C77.3981 32.4615 77.7553 32.4051 77.9244 32.1607C78.0936 31.9164 78.0372 31.5592 77.7928 31.3901L77.8304 31.3713Z" fill="#924D37"/>
<path d="M123.142 27.3857C123.142 27.3857 121.15 13.3825 125.887 10.5067C130.605 7.64961 146.506 14.6982 144.833 25.0362C143.818 31.2954 139.213 33.0998 134.251 34.5095C129.27 35.9192 123.142 27.3857 123.142 27.3857Z" fill="#F09066"/>
<path d="M130.951 30.2618C130.951 30.2618 138.789 28.2694 138.357 24.6981C137.943 21.1268 132.417 14.9616 129.015 15.9202C125.594 16.8789 126.008 26.7093 126.008 26.7093L130.951 30.2618Z" fill="#FDC77F"/>
<path d="M128.282 27.9667C128.282 27.9667 128.376 26.8202 128.564 25.3728C128.752 23.9255 129.034 22.1775 129.391 21.0497C129.485 20.7489 129.316 20.4482 129.034 20.3542C128.733 20.2602 128.432 20.4294 128.338 20.7114C127.568 23.2113 127.173 27.8352 127.173 27.8539C127.154 28.1547 127.38 28.4366 127.68 28.4554C127.981 28.4742 128.263 28.2487 128.282 27.9479V27.9667Z" fill="#924D37"/>
<path d="M134.202 24.9436C134.202 24.9436 130.18 27.2367 128.639 28.4021C128.394 28.5901 128.338 28.9284 128.526 29.1728C128.714 29.4171 129.052 29.4735 129.297 29.2855C129.992 28.7592 131.383 27.8946 132.567 27.1991C133.751 26.4849 134.748 25.921 134.766 25.921C135.029 25.7706 135.123 25.4323 134.973 25.1691C134.823 24.906 134.484 24.812 134.221 24.9624L134.202 24.9436Z" fill="#924D37"/>
<path d="M129.955 76.875C129.936 76.9126 120.707 92.6827 91.7606 93.0586C72.9268 93.303 65.0887 86.5551 62.0061 81.1794C61.0475 86.2356 62.382 91.4797 67.6074 94.3556C75.0319 98.4344 111.76 103.998 130.669 91.7617C131.176 91.4233 131.665 91.0662 132.135 90.6715C134.579 86.104 134.842 80.7846 129.955 76.875Z" fill="#E1A568"/>
<path d="M144.844 25.0546C146.085 17.3857 137.645 11.5213 131.273 10.168C136.047 13.4573 143.566 19.8481 140.465 25.6749C136.047 33.9829 128.867 33.0994 128.867 33.0994C130.596 34.2648 132.495 35.0167 134.262 34.528C139.243 33.1182 143.829 31.3138 144.844 25.0546Z" fill="#E2805C"/>
<path d="M88.7917 180.22C89.1864 181.611 89.6187 183.039 90.1262 184.505C90.2202 184.787 90.5397 184.956 90.8405 184.844C91.1224 184.75 91.2916 184.43 91.1788 184.129C90.6901 182.701 90.239 181.291 89.8631 179.919C89.7879 179.618 89.4683 179.449 89.1864 179.524C88.8857 179.6 88.7165 179.919 88.7917 180.201V180.22ZM86.9872 171.423C87.1752 172.852 87.4195 174.337 87.7391 175.84C87.7955 176.141 88.0962 176.329 88.397 176.273C88.6977 176.216 88.8857 175.915 88.8293 175.615C88.5285 174.111 88.2654 172.664 88.0774 171.273C88.0398 170.972 87.7579 170.765 87.4571 170.803C87.1564 170.84 86.9308 171.122 86.9872 171.423ZM86.4609 162.457C86.4609 162.814 86.4609 163.19 86.4609 163.566C86.4609 164.656 86.4985 165.784 86.5549 166.95C86.5737 167.25 86.8369 167.495 87.1376 167.476C87.4383 167.476 87.6827 167.194 87.6639 166.893C87.5887 165.747 87.5699 164.638 87.5699 163.566C87.5699 162.495 87.5699 162.833 87.5699 162.476C87.5699 162.175 87.3256 161.912 87.0248 161.912C86.7241 161.912 86.4609 162.157 86.4609 162.457ZM87.4008 153.529C87.1376 154.864 86.912 156.367 86.7241 157.984C86.6865 158.285 86.912 158.566 87.2128 158.604C87.5135 158.642 87.7955 158.416 87.8331 158.115C88.0022 156.536 88.2278 155.07 88.4909 153.755C88.5473 153.454 88.3594 153.153 88.0586 153.097C87.7579 153.04 87.4571 153.228 87.4008 153.529ZM90.1262 144.902C90.1262 144.92 89.3368 146.405 88.4909 149.15C88.397 149.45 88.5661 149.751 88.8669 149.845C89.1676 149.939 89.4683 149.77 89.5623 149.469C89.9758 148.135 90.3706 147.12 90.6525 146.424C90.8029 146.086 90.9157 145.823 90.9908 145.653C91.066 145.484 91.1224 145.409 91.1224 145.409C91.2728 145.146 91.16 144.808 90.8969 144.657C90.6337 144.507 90.2954 144.62 90.145 144.883L90.1262 144.902Z" fill="#924D37"/>
<path d="M117.754 98.9414C117.754 98.9414 111.758 106.855 114.615 114.298C116.589 119.486 139.257 127.944 139.257 127.944C139.257 127.944 148.712 112.888 146.193 108.471C143.336 103.471 117.773 98.9414 117.773 98.9414H117.754Z" fill="#041E42"/>
<path d="M144.707 107.928C144.707 107.928 144.463 121.104 137.903 125.54C131.343 129.995 142.753 105.466 144.707 107.928Z" fill="#041E42"/>
<path d="M142.262 109.754C142.262 109.754 160.175 116.972 160.551 119.096C160.927 121.238 159.63 131.05 155.551 133.099C151.473 135.148 135.984 124.039 135.984 124.039C135.984 124.039 137.187 116.934 142.281 109.754H142.262Z" fill="#F09066"/>
<path d="M155.531 133.096C159.61 131.047 160.907 121.216 160.531 119.092C160.456 118.698 159.798 118.134 158.783 117.495C157.787 117.57 156.659 118.115 155.531 119.506C151.828 124.055 154.742 127.927 150.682 127.964C146.622 128.002 140.381 124.731 140.287 121.555C140.212 118.829 142.355 114.187 145.607 111.16C143.614 110.315 142.242 109.77 142.242 109.77C137.148 116.95 135.945 124.055 135.945 124.055C135.945 124.055 151.433 135.163 155.512 133.115L155.531 133.096Z" fill="#E2805C"/>
<path d="M55.2364 152.778C55.2364 152.778 43.7142 156.123 43.7894 166.123C43.8458 173.078 58.0182 193.208 70.123 188.002C76.9085 185.088 76.7017 165.747 72.1155 159.807C67.5292 153.868 64.3526 150.766 55.2364 152.759V152.778Z" fill="#F09066"/>
<path d="M64.1487 188.713C66.1411 189.032 68.1523 188.863 70.1071 188.017C76.8926 185.104 76.6858 165.763 72.0996 159.823C67.5133 153.883 64.3367 150.782 55.2205 152.774C55.2205 152.774 49.638 154.391 46.2734 158.77C53.0025 157.06 63.2277 155.444 65.4269 160.575C68.3779 167.436 73.4529 182.661 64.1487 188.713Z" fill="#E2805C"/>
<path d="M57.0977 170.519C57.0977 170.519 62.0975 169.278 63.9584 171.684C65.8192 174.09 66.6087 185.706 62.9434 186.345C59.2781 186.985 50.4062 178.564 50.4062 175.594C50.4062 172.624 57.0789 170.519 57.0789 170.519H57.0977Z" fill="#FDC77F"/>
<path d="M59.6935 164.09C59.0356 166.364 59.6935 168.526 61.122 168.939C62.5693 169.353 64.261 167.849 64.9 165.594C65.5391 163.319 64.9 161.158 63.4715 160.744C62.0242 160.331 60.3325 161.834 59.6935 164.09Z" fill="#FDC77F"/>
<path d="M43.7891 165.988V166.12C43.7891 167.436 44.3154 169.202 45.2176 171.195C46.8905 172.605 48.9205 172.943 49.8979 171.909C50.9317 170.819 50.3678 168.62 48.6573 167.003C46.9844 165.424 44.8417 164.973 43.7891 165.97V165.988Z" fill="#FDC77F"/>
<path d="M50.0139 164.899C50.9537 167.662 53.1341 169.41 54.901 168.827C56.6678 168.226 57.3257 165.5 56.3859 162.737C55.446 159.974 53.2657 158.207 51.4988 158.809C49.732 159.41 49.0741 162.136 50.0139 164.899Z" fill="#FDC77F"/>
<path d="M142.564 155.879C142.564 155.879 154.086 159.225 154.011 169.225C153.955 176.179 139.764 196.31 127.678 191.103C120.892 188.19 121.099 168.849 125.685 162.909C130.272 156.969 133.448 153.868 142.564 155.86V155.879Z" fill="#F09066"/>
<path d="M133.636 191.799C131.644 192.118 129.632 191.949 127.678 191.103C120.892 188.19 121.099 168.849 125.685 162.909C130.272 156.969 133.448 153.868 142.564 155.86C142.564 155.86 148.147 157.477 151.511 161.856C144.782 160.146 134.557 158.529 132.358 163.661C129.407 170.521 124.332 185.746 133.636 191.799Z" fill="#E2805C"/>
<path d="M140.708 173.622C140.708 173.622 135.708 172.381 133.847 174.806C131.986 177.212 131.197 188.828 134.862 189.467C138.527 190.106 147.399 181.686 147.399 178.716C147.399 175.746 140.726 173.641 140.726 173.641L140.708 173.622Z" fill="#FDC77F"/>
<path d="M138.111 167.172C138.769 169.446 138.111 171.608 136.682 172.021C135.235 172.435 133.543 170.931 132.904 168.676C132.247 166.401 132.904 164.24 134.333 163.826C135.78 163.413 137.472 164.916 138.111 167.172Z" fill="#FDC77F"/>
<path d="M154.01 169.091V169.222C154.01 170.538 153.502 172.324 152.581 174.297C150.908 175.707 148.878 176.045 147.901 175.03C146.867 173.94 147.431 171.741 149.141 170.124C150.814 168.546 152.957 168.094 154.01 169.091Z" fill="#FDC77F"/>
<path d="M147.792 167.981C146.852 170.744 144.672 172.511 142.905 171.909C141.138 171.308 140.48 168.582 141.42 165.819C142.36 163.056 144.54 161.29 146.307 161.891C148.074 162.492 148.732 165.218 147.792 167.981Z" fill="#FDC77F"/>
</svg>
