<svg width="16" height="20" viewBox="0 0 16 20" fill="none" xmlns="http://www.w3.org/2000/svg">
<path d="M14.0477 0.620865C14.0477 -0.0767467 15.1076 -0.0767467 15.1076 0.620865V19.3796C15.1076 20.0772 14.0477 20.0772 14.0477 19.3796V0.620865ZM12.0756 0.620865C12.0756 -0.0767467 13.1355 -0.0767467 13.1355 0.620865V19.3796C13.1355 20.0772 12.0756 20.0772 12.0756 19.3796V0.620865ZM1.95441 19.3796C1.95441 20.0772 0.894531 20.0772 0.894531 19.3796V0.620865C0.894531 -0.0767467 1.95441 -0.0767467 1.95441 0.620865V19.3796ZM7.57159 17.8531C7.57159 17.1555 8.63119 17.1555 8.63119 17.8531V19.3796C8.63119 20.0772 7.57159 20.0772 7.57159 19.3796V17.8531ZM7.57159 4.06725C7.57159 3.36964 8.63119 3.36964 8.63119 4.06725V5.59401C8.63119 6.29162 7.57159 6.29162 7.57159 5.59401V4.06725ZM7.57159 7.51393C7.57159 6.81603 8.63119 6.81603 8.63119 7.51393V9.0404C8.63119 9.73801 7.57159 9.73801 7.57159 9.0404V7.51393ZM7.57159 10.96C7.57159 10.2624 8.63119 10.2624 8.63119 10.96V12.4868C8.63119 13.1844 7.57159 13.1844 7.57159 12.4868V10.96ZM7.57159 14.4067C7.57159 13.7091 8.63119 13.7091 8.63119 14.4067V15.9332C8.63119 16.6308 7.57159 16.6308 7.57159 15.9332V14.4067ZM7.57159 0.620865C7.57159 -0.0767467 8.63119 -0.0767467 8.63119 0.620865V2.14762C8.63119 2.84523 7.57159 2.84523 7.57159 2.14762V0.620865ZM3.92649 19.3796C3.92649 20.0772 2.86661 20.0772 2.86661 19.3796V0.620865C2.86661 -0.0767467 3.92649 -0.0767467 3.92649 0.620865V19.3796Z" fill="#041E42" stroke="#041E42" stroke-width="0.2"/>
</svg>
