<svg width="11" height="18" viewBox="0 0 11 18" fill="none" xmlns="http://www.w3.org/2000/svg">
<path d="M1.20427 2.2959C0.992924 2.08456 0.874192 1.79791 0.874192 1.49903C0.874192 1.20014 0.992924 0.913495 1.20427 0.702151C1.41561 0.490807 1.70226 0.372073 2.00114 0.372073C2.30003 0.372073 2.58667 0.490807 2.79802 0.702151L10.298 8.20215C10.4029 8.30667 10.4861 8.43086 10.5429 8.5676C10.5997 8.70435 10.6289 8.85096 10.6289 8.99903C10.6289 9.14709 10.5997 9.2937 10.5429 9.43045C10.4861 9.56719 10.4029 9.69138 10.298 9.7959L2.79802 17.2959C2.58668 17.5072 2.30003 17.626 2.00114 17.626C1.70226 17.626 1.41561 17.5072 1.20427 17.2959C0.992926 17.0846 0.874193 16.7979 0.874193 16.499C0.874193 16.2001 0.992925 15.9135 1.20427 15.7022L7.90646 8.99996L1.20427 2.2959Z" fill="#FAFAFA"/>
</svg>
