<svg width="50" height="50" viewBox="0 0 50 50" fill="none" xmlns="http://www.w3.org/2000/svg">
<g clip-path="url(#clip0_1521_4611)">
<path d="M0 26.6113V31.6113C0 32.992 1.11934 34.1113 2.5 34.1113H3.3333V24.1113H2.5C1.11934 24.1113 0 25.2307 0 26.6113Z" fill="#5BC2E7"/>
<path d="M47.5 24.1113H46.6667V34.1113H47.5C48.8807 34.1113 50 32.992 50 31.6113V26.6113C50 25.2307 48.8808 24.1113 47.5 24.1113Z" fill="#5BC2E7"/>
<path d="M29.1667 4.94425C29.1617 6.92257 27.7707 8.62657 25.8334 9.02755V13.2775H24.1667V9.02755C22.0184 8.58907 20.5776 6.56055 20.8708 4.3877C21.1641 2.21485 23.0913 0.641023 25.279 0.7878C27.4666 0.934577 29.1663 2.75167 29.1667 4.94425Z" fill="#5BC2E7"/>
<path d="M35 29.1113C36.3807 29.1113 37.5 27.992 37.5 26.6113C37.5 25.2306 36.3807 24.1113 35 24.1113C33.6193 24.1113 32.5 25.2306 32.5 26.6113C32.5 27.992 33.6193 29.1113 35 29.1113Z" fill="#041E42"/>
<path d="M15 29.1113C16.3807 29.1113 17.5 27.992 17.5 26.6113C17.5 25.2306 16.3807 24.1113 15 24.1113C13.6193 24.1113 12.5 25.2306 12.5 26.6113C12.5 27.992 13.6193 29.1113 15 29.1113Z" fill="#041E42"/>
<path d="M40 14.9443H10C7.23857 14.9443 5 17.1829 5 19.9443V38.2776C5 41.0322 7.22793 43.268 9.98252 43.2776C10.2061 43.2747 10.4215 43.361 10.5812 43.5175C10.7408 43.6739 10.8316 43.8875 10.8334 44.111V48.3869C10.833 48.6944 11.0021 48.9772 11.2732 49.1225C11.5443 49.2677 11.8734 49.2518 12.1292 49.0811L20.4167 43.5577C20.6895 43.3759 21.0098 43.2784 21.3375 43.2777H40C42.7614 43.2777 45 41.0392 45 38.2777V19.9442C45 17.1829 42.7614 14.9443 40 14.9443ZM15 30.7776C12.6988 30.7776 10.8333 28.9121 10.8333 26.6109C10.8333 24.3098 12.6988 22.4442 15 22.4442C17.3012 22.4442 19.1667 24.3098 19.1667 26.6109C19.1639 28.911 17.3 30.7749 15 30.7776ZM29.8733 33.7192C29.8208 33.8034 28.5458 35.7775 25 35.7775C21.4542 35.7775 20.1792 33.8034 20.1267 33.7192C19.8906 33.3313 20.0086 32.826 20.3918 32.5826C20.775 32.3393 21.2826 32.4474 21.5333 32.8259C21.5833 32.8976 22.455 34.1108 25 34.1108C27.5675 34.1108 28.4325 32.8767 28.4675 32.8242C28.7224 32.4461 29.2321 32.3399 29.6166 32.5851C29.9982 32.8292 30.1126 33.3347 29.8733 33.7192ZM35 30.7776C32.6988 30.7776 30.8333 28.9121 30.8333 26.6109C30.8333 24.3098 32.6988 22.4442 35 22.4442C37.3012 22.4442 39.1667 24.3098 39.1667 26.6109C39.1639 28.911 37.3 30.7749 35 30.7776Z" fill="#041E42"/>
</g>
<defs>
<clipPath id="clip0_1521_4611">
<rect width="50" height="50" fill="white"/>
</clipPath>
</defs>
</svg>
