<svg width="24" height="18" viewBox="0 0 24 18" fill="none" xmlns="http://www.w3.org/2000/svg">
<path d="M21.75 0.875H2.25C1.81902 0.875 1.4057 1.0462 1.10095 1.35095C0.796205 1.6557 0.625 2.06902 0.625 2.5V15.5C0.625 15.931 0.796205 16.3443 1.10095 16.649C1.4057 16.9538 1.81902 17.125 2.25 17.125H21.75C22.181 17.125 22.5943 16.9538 22.899 16.649C23.2038 16.3443 23.375 15.931 23.375 15.5V2.5C23.375 2.06902 23.2038 1.6557 22.899 1.35095C22.5943 1.0462 22.181 0.875 21.75 0.875ZM12.8125 13.875H11.1875C10.972 13.875 10.7653 13.7894 10.613 13.637C10.4606 13.4847 10.375 13.278 10.375 13.0625C10.375 12.847 10.4606 12.6403 10.613 12.488C10.7653 12.3356 10.972 12.25 11.1875 12.25H12.8125C13.028 12.25 13.2347 12.3356 13.387 12.488C13.5394 12.6403 13.625 12.847 13.625 13.0625C13.625 13.278 13.5394 13.4847 13.387 13.637C13.2347 13.7894 13.028 13.875 12.8125 13.875ZM19.3125 13.875H16.0625C15.847 13.875 15.6403 13.7894 15.488 13.637C15.3356 13.4847 15.25 13.278 15.25 13.0625C15.25 12.847 15.3356 12.6403 15.488 12.488C15.6403 12.3356 15.847 12.25 16.0625 12.25H19.3125C19.528 12.25 19.7347 12.3356 19.887 12.488C20.0394 12.6403 20.125 12.847 20.125 13.0625C20.125 13.278 20.0394 13.4847 19.887 13.637C19.7347 13.7894 19.528 13.875 19.3125 13.875ZM2.25 4.9375V2.5H21.75V4.9375H2.25Z" fill="#041E42"/>
</svg>
