<svg width="28" height="28" viewBox="0 0 28 28" fill="none" xmlns="http://www.w3.org/2000/svg">
<path d="M22.75 3.5H20.125V2.625C20.125 2.39294 20.0328 2.17038 19.8687 2.00628C19.7046 1.84219 19.4821 1.75 19.25 1.75C19.0179 1.75 18.7954 1.84219 18.6313 2.00628C18.4672 2.17038 18.375 2.39294 18.375 2.625V3.5H9.625V2.625C9.625 2.39294 9.53281 2.17038 9.36872 2.00628C9.20462 1.84219 8.98206 1.75 8.75 1.75C8.51794 1.75 8.29538 1.84219 8.13128 2.00628C7.96719 2.17038 7.875 2.39294 7.875 2.625V3.5H5.25C4.78587 3.5 4.34075 3.68437 4.01256 4.01256C3.68437 4.34075 3.5 4.78587 3.5 5.25V22.75C3.5 23.2141 3.68437 23.6592 4.01256 23.9874C4.34075 24.3156 4.78587 24.5 5.25 24.5H22.75C23.2141 24.5 23.6592 24.3156 23.9874 23.9874C24.3156 23.6592 24.5 23.2141 24.5 22.75V5.25C24.5 4.78587 24.3156 4.34075 23.9874 4.01256C23.6592 3.68437 23.2141 3.5 22.75 3.5ZM7.875 5.25V6.125C7.875 6.35706 7.96719 6.57962 8.13128 6.74372C8.29538 6.90781 8.51794 7 8.75 7C8.98206 7 9.20462 6.90781 9.36872 6.74372C9.53281 6.57962 9.625 6.35706 9.625 6.125V5.25H18.375V6.125C18.375 6.35706 18.4672 6.57962 18.6313 6.74372C18.7954 6.90781 19.0179 7 19.25 7C19.4821 7 19.7046 6.90781 19.8687 6.74372C20.0328 6.57962 20.125 6.35706 20.125 6.125V5.25H22.75V8.75H5.25V5.25H7.875ZM22.75 22.75H5.25V10.5H22.75V22.75ZM15.75 16.625C15.75 16.9711 15.6474 17.3095 15.4551 17.5972C15.2628 17.885 14.9895 18.1093 14.6697 18.2418C14.3499 18.3742 13.9981 18.4089 13.6586 18.3414C13.3191 18.2738 13.0073 18.1072 12.7626 17.8624C12.5178 17.6177 12.3511 17.3059 12.2836 16.9664C12.2161 16.6269 12.2508 16.2751 12.3832 15.9553C12.5157 15.6355 12.74 15.3622 13.0278 15.1699C13.3155 14.9776 13.6539 14.875 14 14.875C14.4641 14.875 14.9092 15.0594 15.2374 15.3876C15.5656 15.7158 15.75 16.1609 15.75 16.625Z" fill="#5BC2E7"/>
</svg>
