<svg width="34" height="34" viewBox="0 0 34 34" fill="none" xmlns="http://www.w3.org/2000/svg">
<path d="M23.6291 23.6296C23.4181 23.8405 23.132 23.9591 22.8336 23.9591C22.5353 23.9591 22.2491 23.8405 22.0381 23.6296L17 18.5914L11.9619 23.6296C11.7509 23.8405 11.4647 23.9591 11.1664 23.9591C10.868 23.9591 10.5819 23.8405 10.3709 23.6296C10.1599 23.4186 10.0414 23.1324 10.0414 22.8341C10.0414 22.5357 10.1599 22.2496 10.3709 22.0386L15.409 17.0004L10.3709 11.9623C10.1599 11.7513 10.0414 11.4652 10.0414 11.1668C10.0414 10.8684 10.1599 10.5823 10.3709 10.3713C10.5819 10.1603 10.868 10.0418 11.1664 10.0418C11.4647 10.0418 11.7509 10.1603 11.9619 10.3713L17 15.4094L22.0381 10.3713C22.2491 10.1603 22.5353 10.0418 22.8336 10.0418C23.132 10.0418 23.4181 10.1603 23.6291 10.3713C23.8401 10.5823 23.9586 10.8684 23.9586 11.1668C23.9586 11.4652 23.8401 11.7513 23.6291 11.9623L18.591 17.0004L23.6291 22.0386C23.8401 22.2496 23.9586 22.5357 23.9586 22.8341C23.9586 23.1324 23.8401 23.4186 23.6291 23.6296Z" fill="#FAFAFA"/>
</svg>
