<svg width="51" height="43" viewBox="0 0 51 43" fill="none" xmlns="http://www.w3.org/2000/svg">
<path d="M23.2218 41.9295C23.8042 42.5081 24.5934 42.833 25.4163 42.833C26.2391 42.833 27.0284 42.5081 27.6108 41.9295L46.9863 22.6482C49.4491 20.1973 50.8329 16.873 50.8333 13.4065C50.8337 9.94003 49.4507 6.61538 46.9884 4.16393C44.5261 1.71248 41.1864 0.335051 37.7038 0.334654C34.2212 0.334258 30.8812 1.71093 28.4183 4.16182L26.1103 6.45979C25.9256 6.64162 25.6763 6.7436 25.4166 6.7436C25.1568 6.7436 24.9075 6.64162 24.7229 6.45979L22.4185 4.16151C19.9556 1.71011 16.6153 0.332951 13.1323 0.333008C9.64935 0.333064 6.30906 1.71033 3.84628 4.16182C1.38349 6.6133 -5.6921e-05 9.9382 1.75639e-09 13.4051C5.69245e-05 16.8719 1.38371 20.1968 3.84658 22.6482L23.2218 41.9295ZM13.5714 22.0193C13.016 22.0197 12.473 21.8562 12.0111 21.5493C11.5492 21.2425 11.1891 20.8062 10.9764 20.2955C10.7637 19.7849 10.7079 19.223 10.8162 18.6808C10.9244 18.1386 11.1918 17.6406 11.5845 17.2498C11.9772 16.8589 12.4776 16.5928 13.0222 16.4851C13.5669 16.3773 14.1315 16.4329 14.6445 16.6446C15.1574 16.8564 15.5958 17.2148 15.904 17.6746C16.2123 18.1344 16.3766 18.6749 16.3761 19.2277C16.3755 19.968 16.0798 20.6778 15.554 21.2013C15.0281 21.7249 14.3151 22.0193 13.5714 22.0201V22.0193ZM11.8893 24.1342H15.2491C15.9585 24.1339 16.6586 24.2951 17.2958 24.6054C16.828 25.4776 16.5831 26.451 16.5825 27.4398V32.3303L9.19993 24.9835C9.98386 24.4251 10.9254 24.1282 11.8893 24.1356V24.1342ZM26.1083 40.434C25.9247 40.6165 25.6758 40.719 25.4164 40.719C25.1569 40.719 24.908 40.6165 24.7244 40.434L18.7077 34.4466V27.4411C18.7109 26.5665 19.0023 25.717 19.5372 25.0231C19.5591 25.0004 19.5803 24.9778 19.6005 24.9522C19.6239 24.9232 19.6458 24.8929 19.6661 24.8616C20.1473 24.3045 20.7454 23.8592 21.4182 23.557C22.091 23.2548 22.8221 23.1031 23.5602 23.1126H27.2725C28.0105 23.1031 28.7415 23.2548 29.4142 23.5569C30.0869 23.859 30.685 24.3042 31.1662 24.8611C31.1862 24.8921 31.2077 24.922 31.2308 24.9507C31.2515 24.9765 31.2735 25.0006 31.2961 25.024C31.8305 25.7178 32.1216 26.5668 32.125 27.441V34.4461L26.1083 40.434ZM25.4183 20.9968C24.7825 20.9976 24.1608 20.8108 23.6318 20.4598C23.1027 20.1089 22.6902 19.6097 22.4463 19.0253C22.2024 18.4409 22.1381 17.7976 22.2616 17.1768C22.3851 16.5561 22.6908 15.9857 23.14 15.538C23.5893 15.0902 24.1618 14.7851 24.7853 14.6613C25.4088 14.5376 26.0551 14.6006 26.6426 14.8426C27.23 15.0846 27.7321 15.4945 28.0854 16.0206C28.4387 16.5468 28.6273 17.1653 28.6273 17.7982C28.6263 18.6454 28.288 19.4577 27.6865 20.0572C27.0851 20.6567 26.2694 20.9946 25.4183 20.9968ZM37.2611 22.0201C36.7059 22.0196 36.1634 21.8553 35.702 21.548C35.2407 21.2406 34.8813 20.8039 34.6692 20.2933C34.4572 19.7826 34.4021 19.2208 34.5108 18.6789C34.6196 18.137 34.8873 17.6394 35.2802 17.249C35.673 16.8585 36.1734 16.5929 36.718 16.4855C37.2625 16.3781 37.8269 16.4339 38.3396 16.6458C38.8523 16.8577 39.2904 17.2161 39.5984 17.6758C39.9065 18.1355 40.0707 18.6758 40.0702 19.2284C40.0694 19.9693 39.7731 20.6796 39.2464 21.203C38.7197 21.7265 38.0057 22.0204 37.2614 22.0201H37.2611ZM35.5834 24.135H38.9431C39.9071 24.128 40.8486 24.4253 41.6323 24.9842L34.2497 32.3309V27.4411C34.2493 26.4528 34.0046 25.4797 33.5374 24.6076C34.1745 24.2972 34.8744 24.1357 35.5838 24.1356L35.5834 24.135ZM5.34875 5.65795C7.41543 3.60789 10.2141 2.45669 13.1319 2.45649C16.0496 2.45629 18.8484 3.60711 20.9154 5.65689L23.221 7.95623L23.2237 7.9588C23.8076 8.53419 24.5961 8.85682 25.4177 8.85648C26.2393 8.85614 27.0276 8.53286 27.611 7.95698L29.9211 5.65765C31.9854 3.60346 34.7849 2.44964 37.7038 2.45002C40.6228 2.45041 43.422 3.60496 45.4857 5.65969C47.5494 7.71441 48.7086 10.501 48.7082 13.4065C48.7078 16.3119 47.5479 19.0982 45.4837 21.1524L43.1465 23.4777C42.5273 22.9785 41.821 22.597 41.0631 22.3523C41.6598 21.6342 42.039 20.762 42.1561 19.8374C42.2733 18.9128 42.1237 17.9742 41.7249 17.1311C41.326 16.288 40.6943 15.5753 39.9036 15.0764C39.1129 14.5774 38.1958 14.3127 37.2596 14.3133C36.3234 14.3138 35.4067 14.5796 34.6166 15.0795C33.8265 15.5794 33.1957 16.2929 32.7978 17.1364C32.3999 17.98 32.2515 18.9188 32.3698 19.8432C32.4881 20.7677 32.8683 21.6395 33.4659 22.3568C33.034 22.4972 32.6177 22.6812 32.2234 22.9058C31.4239 22.1658 30.4636 21.6194 29.4172 21.3093C30.0972 20.5428 30.5405 19.5972 30.6938 18.5861C30.8472 17.5749 30.704 16.5413 30.2816 15.6091C29.8593 14.6769 29.1755 13.886 28.3126 13.3311C27.4496 12.7762 26.4441 12.4811 25.4168 12.4811C24.3895 12.4811 23.384 12.7762 22.521 13.3311C21.6581 13.886 20.9744 14.6769 20.552 15.6091C20.1296 16.5413 19.9865 17.5749 20.1398 18.5861C20.2931 19.5972 20.7364 20.5428 21.4164 21.3093C20.3699 21.6192 19.4095 22.1652 18.6096 22.9049C18.2154 22.6801 17.7991 22.4962 17.3671 22.356C17.9641 21.639 18.3438 20.7677 18.4618 19.8438C18.5797 18.92 18.4312 17.9818 18.0334 17.1389C17.6357 16.296 17.0052 15.5832 16.2156 15.0836C15.426 14.5841 14.5099 14.3186 13.5743 14.318C12.6387 14.3175 11.7223 14.5819 10.9321 15.0805C10.1419 15.5791 9.51051 16.2912 9.11175 17.1336C8.713 17.976 8.56331 18.914 8.68019 19.838C8.79706 20.762 9.17567 21.6338 9.77178 22.3515C9.01279 22.5962 8.3056 22.9779 7.68562 23.4777L5.34844 21.1524C3.28826 19.0955 2.1314 16.3095 2.13146 13.4051C2.13151 10.5006 3.28848 7.71471 5.34875 5.65795Z" fill="#FAFAFA"/>
</svg>
