<svg width="26" height="26" viewBox="0 0 26 26" fill="none" xmlns="http://www.w3.org/2000/svg">
<g clip-path="url(#clip0_2502_7529)">
<path d="M5.95965 7.58337H17.8763C18.1757 7.58337 18.418 7.34109 18.418 7.04168C18.418 6.74228 18.1757 6.5 17.8763 6.5H5.95965C5.66025 6.5 5.41797 6.74228 5.41797 7.04168C5.41802 7.34114 5.6603 7.58337 5.95965 7.58337Z" fill="#FAFAFA" stroke="#FAFAFA" stroke-width="0.3"/>
<path d="M12.4597 13H5.95965C5.66025 13 5.41797 13.2423 5.41797 13.5417C5.41797 13.8411 5.66025 14.0834 5.95965 14.0834H12.4597C12.7591 14.0834 13.0013 13.8411 13.0013 13.5417C13.0013 13.2423 12.7591 13 12.4597 13Z" fill="#FAFAFA" stroke="#FAFAFA" stroke-width="0.3"/>
<path d="M23.9264 3.24969C23.8951 3.24969 23.8646 3.25756 23.8334 3.25904V3.24969C23.8334 2.05476 22.8611 1.08301 21.6667 1.08301H2.16668C0.972258 1.08301 0 2.05476 0 3.24969V24.3747C0 24.5937 0.132234 24.7915 0.334293 24.8751C0.400969 24.9031 0.471809 24.9164 0.541633 24.9164C0.682348 24.9164 0.82093 24.8614 0.924625 24.7577L6.18262 19.4997H21.6667C22.8611 19.4997 23.8334 18.528 23.8334 17.333V8.34869L25.3928 6.78955C25.3928 6.78955 25.3928 6.78955 25.3928 6.78904C25.7789 6.4029 26 5.86863 26 5.32324C26 4.17965 25.0701 3.24969 23.9264 3.24969ZM22.75 17.333C22.75 17.9302 22.2644 18.4163 21.6667 18.4163H5.95832C5.81445 18.4163 5.67689 18.4735 5.57532 18.575L1.08332 23.0671V3.24969C1.08332 2.6525 1.56894 2.16637 2.16663 2.16637H21.6666C22.2644 2.16637 22.75 2.6525 22.75 3.24969V3.61968C22.6472 3.69037 22.5488 3.76812 22.4601 3.85693L16.5665 9.74969H5.95832C5.65891 9.74969 5.41663 9.99197 5.41663 10.2914C5.41663 10.5908 5.65891 10.8331 5.95832 10.8331H15.6974L15.1772 13.4351C15.1413 13.6128 15.1974 13.7964 15.3254 13.9244C15.428 14.027 15.5666 14.0831 15.7084 14.0831C15.7433 14.0831 15.7793 14.0794 15.8141 14.0725L18.5214 13.5308C18.6272 13.5096 18.7235 13.4583 18.7986 13.3827L22.75 9.4319V17.333ZM18.149 12.5009L16.3992 12.8511L16.7494 11.0991L21.6664 6.18205L23.0673 7.58296L18.149 12.5009ZM24.6268 6.02362L23.8333 6.81707L22.4323 5.41607L23.226 4.62236C23.4101 4.43879 23.6651 4.33301 23.9264 4.33301C24.4723 4.33301 24.9166 4.77734 24.9166 5.32324C24.9167 5.5835 24.8109 5.83903 24.6268 6.02362Z" fill="#FAFAFA" stroke="#FAFAFA" stroke-width="0.3"/>
</g>
<defs>
<clipPath id="clip0_2502_7529">
<rect width="26" height="26" fill="white"/>
</clipPath>
</defs>
</svg>
