<svg width="48" height="47" viewBox="0 0 48 47" fill="none" xmlns="http://www.w3.org/2000/svg">
<g clip-path="url(#clip0_1352_18082)">
<path d="M17.625 40.6357H30.3854" stroke="#FAFAFA" stroke-width="2" stroke-miterlimit="10" stroke-linecap="round"/>
<path d="M17.4453 37.9014H30.5703" stroke="#FAFAFA" stroke-width="2" stroke-miterlimit="10" stroke-linecap="round"/>
<path d="M16.7109 35.167H31.2943" stroke="#FAFAFA" stroke-width="2" stroke-miterlimit="10" stroke-linecap="round"/>
<path d="M28.1094 43.3701V44.2816C28.1094 45.2884 27.2933 46.1045 26.2865 46.1045H21.7292C20.7224 46.1045 19.9062 45.2884 19.9062 44.2816V43.3701" stroke="#FAFAFA" stroke-width="2" stroke-miterlimit="10" stroke-linecap="round"/>
<path d="M6.6875 18.2142C6.6875 8.64989 14.4409 0.896484 24.0052 0.896484C33.5695 0.896484 41.3229 8.64989 41.3229 18.2142C41.3229 24.2233 38.2622 29.5173 33.6148 32.6229C31.5942 33.9731 30.3854 36.2469 30.3854 38.6773V41.5475C30.3854 42.5543 29.5693 43.3704 28.5625 43.3704H19.4479C18.4411 43.3704 17.625 42.5543 17.625 41.5475V38.6773C17.625 36.247 16.4162 33.9732 14.3956 32.6229C9.74818 29.5173 6.6875 24.2233 6.6875 18.2142Z" stroke="#FAFAFA" stroke-width="2" stroke-miterlimit="10" stroke-linecap="round"/>
<path d="M0.671875 18.4873H4.13542" stroke="#FAFAFA" stroke-width="2" stroke-miterlimit="10" stroke-linecap="round"/>
<path d="M43.875 18.4873H47.3385" stroke="#FAFAFA" stroke-width="2" stroke-miterlimit="10" stroke-linecap="round"/>
<path d="M2.07812 26.4678L5.33276 25.2832" stroke="#FAFAFA" stroke-width="2" stroke-miterlimit="10" stroke-linecap="round"/>
<path d="M42.6797 11.6915L45.9343 10.5068" stroke="#FAFAFA" stroke-width="2" stroke-miterlimit="10" stroke-linecap="round"/>
<path d="M6.13281 33.4861L8.78598 31.2598" stroke="#FAFAFA" stroke-width="2" stroke-miterlimit="10" stroke-linecap="round"/>
<path d="M39.2266 5.71559L41.8797 3.48926" stroke="#FAFAFA" stroke-width="2" stroke-miterlimit="10" stroke-linecap="round"/>
<path d="M45.9343 26.4678L42.6797 25.2832" stroke="#FAFAFA" stroke-width="2" stroke-miterlimit="10" stroke-linecap="round"/>
<path d="M5.33276 11.6915L2.07812 10.5068" stroke="#FAFAFA" stroke-width="2" stroke-miterlimit="10" stroke-linecap="round"/>
<path d="M41.8797 33.4861L39.2266 31.2598" stroke="#FAFAFA" stroke-width="2" stroke-miterlimit="10" stroke-linecap="round"/>
<path d="M8.78598 5.71559L6.13281 3.48926" stroke="#FAFAFA" stroke-width="2" stroke-miterlimit="10" stroke-linecap="round"/>
<path d="M33.2859 18.5559C34.2797 17.9509 34.9453 16.8625 34.9453 15.6162C34.9453 13.8772 33.6524 12.4432 31.974 12.2084C32.0285 12.0124 32.067 11.81 32.067 11.5967C32.067 10.3281 31.0361 9.2998 29.7644 9.2998C29.698 9.2998 29.6357 9.31375 29.5708 9.31922C29.1018 7.97181 27.821 7.00293 26.3104 7.00293C25.4246 7.00293 24.6192 7.33844 24.0078 7.8854C23.3964 7.33853 22.591 7.00293 21.7052 7.00293C20.1946 7.00293 18.9139 7.97181 18.4448 9.31922C18.3799 9.31375 18.3176 9.2998 18.2512 9.2998C16.9795 9.2998 15.9486 10.3281 15.9486 11.5967C15.9486 11.81 15.9872 12.0124 16.0417 12.2084C14.3632 12.4431 13.0703 13.8771 13.0703 15.6162C13.0703 16.8625 13.7359 17.9509 14.7297 18.5559C14.074 19.0822 13.646 19.8794 13.646 20.7842C13.646 21.898 14.2886 22.8528 15.2179 23.3289C14.9566 23.7612 14.7973 24.2621 14.7973 24.8037C14.7973 26.3237 15.9852 27.5552 17.4836 27.6555C18.1268 29.0227 19.5153 29.9717 21.1295 29.9717C22.2577 29.9717 23.2764 29.5079 24.0078 28.7626C24.7393 29.5079 25.7579 29.9717 26.8861 29.9717C28.5003 29.9717 29.8888 29.0227 30.532 27.6555C32.0304 27.5552 33.2184 26.3237 33.2184 24.8037C33.2184 24.2621 33.0591 23.7612 32.7977 23.3289C33.7271 22.8528 34.3696 21.898 34.3696 20.7842C34.3696 19.8794 33.9416 19.0821 33.2859 18.5559Z" stroke="#FAFAFA" stroke-width="2" stroke-miterlimit="10" stroke-linecap="round"/>
<path d="M24.0078 7.88574V28.763" stroke="#FAFAFA" stroke-width="2" stroke-miterlimit="10" stroke-linecap="round"/>
<path d="M16.0391 12.2082C16.0391 12.2082 17.8529 11.9246 18.9466 13.8387" stroke="#FAFAFA" stroke-width="2" stroke-miterlimit="10" stroke-linecap="round"/>
<path d="M31.9701 12.2082C31.9701 12.2082 30.1562 11.9246 29.0625 13.8387" stroke="#FAFAFA" stroke-width="2" stroke-miterlimit="10" stroke-linecap="round"/>
<path d="M17.4844 27.6555C17.4844 27.6555 20.0438 27.7842 19.7703 24.9131" stroke="#FAFAFA" stroke-width="2" stroke-miterlimit="10" stroke-linecap="round"/>
<path d="M14.7266 18.5563C14.7266 18.5563 17.032 16.9837 18.6726 20.1283" stroke="#FAFAFA" stroke-width="2" stroke-miterlimit="10" stroke-linecap="round"/>
<path d="M30.5251 27.6555C30.5251 27.6555 27.9658 27.7842 28.2392 24.9131" stroke="#FAFAFA" stroke-width="2" stroke-miterlimit="10" stroke-linecap="round"/>
<path d="M33.282 18.5563C33.282 18.5563 30.9766 16.9837 29.3359 20.1283" stroke="#FAFAFA" stroke-width="2" stroke-miterlimit="10" stroke-linecap="round"/>
<path d="M38.5859 20.584V19.2168" stroke="#FAFAFA" stroke-width="2" stroke-miterlimit="10" stroke-linecap="round"/>
<path d="M38.5859 17.7588V16.3916" stroke="#FAFAFA" stroke-width="2" stroke-miterlimit="10" stroke-linecap="round"/>
</g>
<defs>
<clipPath id="clip0_1352_18082">
<rect width="46.6667" height="46.6667" fill="white" transform="translate(0.671875 0.166992)"/>
</clipPath>
</defs>
</svg>
