<svg width="50" height="50" viewBox="0 0 50 50" fill="none" xmlns="http://www.w3.org/2000/svg">
<g clip-path="url(#clip0_1352_18523)">
<path d="M31.2502 21.9276C31.2498 21.5134 31.085 21.1162 30.7921 20.8233C30.4991 20.5304 30.102 20.3656 29.6877 20.3651H29.2269L25.5488 16.7366C25.4026 16.5925 25.2055 16.5117 25.0003 16.5117C24.795 16.5117 24.5979 16.5925 24.4517 16.7366L20.7736 20.3651H20.3127C19.8985 20.3656 19.5013 20.5304 19.2084 20.8233C18.9155 21.1162 18.7507 21.5134 18.7502 21.9276V27.4988L12.3309 28.9253C12.1573 28.9638 12.0021 29.0603 11.8908 29.199C11.7795 29.3376 11.7189 29.5101 11.719 29.6879V39.6348C7.72144 41.7318 4.28637 44.7588 1.70312 48.4608L2.98486 49.3549C3.55046 48.5481 4.16045 47.7734 4.81201 47.0343L8.32391 48.8232C8.45305 48.8889 8.59794 48.9175 8.74237 48.9056C8.8868 48.8938 9.02509 48.842 9.14178 48.756L12.3469 46.3959L13.4432 47.8218C13.5639 47.9789 13.7399 48.0843 13.9353 48.1166C14.1308 48.1489 14.3313 48.1057 14.4961 47.9958L16.643 46.5645H19.3178C19.4455 46.5645 19.5713 46.5332 19.684 46.4733C19.7968 46.4135 19.8932 46.3269 19.9648 46.2212C20.0364 46.1154 20.081 45.9938 20.0947 45.8668C20.1084 45.7399 20.0908 45.6115 20.0434 45.493L18.7502 42.26L20.6561 41.3273C20.7583 41.2772 20.8483 41.2054 20.9198 41.1169C20.9914 41.0284 21.0428 40.9254 21.0703 40.815L21.7362 38.1515C24.6435 37.8069 27.5881 37.9557 30.4458 38.5915L27.7758 39.9265C27.6543 39.9875 27.5507 40.079 27.4752 40.192L25.9127 42.5358C25.8062 42.6952 25.7622 42.8883 25.7889 43.0782C25.8156 43.2681 25.9113 43.4415 26.0577 43.5654L29.7503 46.6904C29.9086 46.8221 30.1117 46.8876 30.3171 46.8731L33.9289 46.5855L36.8181 48.7519C36.9531 48.8535 37.1176 48.9084 37.2866 48.9083C37.3706 48.9082 37.454 48.8947 37.5338 48.8682L44.3604 46.5927C45.2462 47.5531 46.0602 48.5774 46.7958 49.6571L48.0898 48.7812C45.5765 45.0708 42.2139 42.0138 38.2815 39.8644V29.6879C38.2816 29.5101 38.2209 29.3376 38.1097 29.199C37.9984 29.0603 37.8432 28.9638 37.6696 28.9253L31.2502 27.4988V21.9276ZM25.0002 18.3903L27.0022 20.3651H22.9983L25.0002 18.3903ZM13.2815 30.3146L18.7502 29.0992V37.0776C16.8707 37.4876 15.0382 38.0892 13.2815 38.873V30.3146ZM19.6429 40.0833L17.412 41.1751C17.2349 41.2617 17.097 41.4121 17.0261 41.5961C16.9552 41.7801 16.9566 41.9842 17.0298 42.1673L18.1643 45.002H16.4065C16.2523 45.002 16.1015 45.0477 15.9731 45.1332L14.2375 46.2906L13.1198 44.8368C12.9952 44.6747 12.8121 44.5679 12.6097 44.5393C12.4073 44.5108 12.2018 44.5626 12.0372 44.6838L8.60391 47.2118L5.9207 45.8452C8.04894 43.7022 10.5264 41.937 13.247 40.6254H13.2815V40.6086C15.4328 39.5698 17.7144 38.826 20.0646 38.3972L19.6429 40.0833ZM26.5627 36.4651C25.9737 36.428 25.3816 36.409 24.7866 36.4082C24.3351 36.4082 23.8862 36.4279 23.4377 36.4495V34.3231H26.5627V36.4651ZM29.6877 36.8443C29.1701 36.7528 28.6498 36.6725 28.1252 36.61V33.5419C28.1253 33.4393 28.1051 33.3377 28.0658 33.2429C28.0266 33.1481 27.969 33.0619 27.8965 32.9894C27.8239 32.9168 27.7378 32.8593 27.643 32.82C27.5482 32.7808 27.4466 32.7606 27.344 32.7606H22.6565C22.5539 32.7606 22.4523 32.7808 22.3575 32.82C22.2627 32.8593 22.1766 32.9168 22.104 32.9894C22.0315 33.0619 21.9739 33.1481 21.9347 33.2429C21.8954 33.3377 21.8752 33.4393 21.8752 33.5419V36.5704C21.3511 36.6251 20.8303 36.6946 20.3127 36.7791V21.9276H29.6877V36.8443ZM43.1446 45.3507L37.4278 47.2565L34.6301 45.1584C34.4776 45.045 34.2893 44.9903 34.0998 45.0043L30.514 45.2896L27.5996 42.8226L28.6601 41.2315L32.7431 39.1901C36.638 40.4162 40.1974 42.5244 43.1446 45.3507ZM36.719 30.3146V39.0706C34.9665 38.2498 33.1338 37.6124 31.2502 37.1686V29.0992L36.719 30.3146Z" fill="#FAFAFA"/>
<path d="M21.875 23.4375H28.125V25H21.875V23.4375Z" fill="#FAFAFA"/>
<path d="M21.875 26.5625H28.125V28.125H21.875V26.5625Z" fill="#FAFAFA"/>
<path d="M21.875 29.6875H28.125V31.25H21.875V29.6875Z" fill="#FAFAFA"/>
<path d="M14.0625 31.25H17.9688V32.8125H14.0625V31.25Z" fill="#FAFAFA"/>
<path d="M32.0312 31.25H35.9375V32.8125H32.0312V31.25Z" fill="#FAFAFA"/>
<path d="M14.0625 34.375H17.9688V35.9375H14.0625V34.375Z" fill="#FAFAFA"/>
<path d="M32.0312 34.375H35.9375V35.9375H32.0312V34.375Z" fill="#FAFAFA"/>
<path d="M19.5328 8.42184C19.5328 11.2356 23.066 13.7659 24.585 14.7233C24.7098 14.8018 24.8542 14.8435 25.0016 14.8435C25.149 14.8435 25.2934 14.8018 25.4182 14.7233C26.9372 13.7659 30.4703 11.2356 30.4703 8.42184C30.4928 7.7558 30.2788 7.10331 29.8663 6.57988C29.4538 6.05646 28.8694 5.69587 28.2166 5.56196C27.6541 5.43245 27.0687 5.43942 26.5094 5.5823C25.9501 5.72518 25.4331 5.99981 25.0016 6.38327C24.57 5.99989 24.0531 5.7253 23.4938 5.58243C22.9345 5.43955 22.3491 5.43254 21.7866 5.56196C21.1337 5.69587 20.5494 6.05646 20.1369 6.57988C19.7244 7.10331 19.5104 7.7558 19.5328 8.42184ZM22.1467 7.0825C22.292 7.04866 22.4407 7.03176 22.59 7.03214C22.9384 7.02205 23.2829 7.10849 23.5853 7.28191C23.8877 7.45533 24.1362 7.70897 24.3035 8.01482C24.3757 8.13555 24.478 8.2355 24.6003 8.3049C24.7227 8.3743 24.8609 8.41078 25.0016 8.41078C25.1423 8.41078 25.2805 8.3743 25.4029 8.3049C25.5252 8.2355 25.6275 8.13555 25.6997 8.01482C25.908 7.64515 26.2316 7.35388 26.6211 7.18552C27.0106 7.01715 27.4445 6.98097 27.8565 7.0825C28.1654 7.13812 28.4432 7.30526 28.637 7.55216C28.8308 7.79907 28.9272 8.10855 28.9078 8.42184C28.9078 9.97175 26.8891 11.8627 25.0016 13.1303C23.1141 11.8627 21.0953 9.97173 21.0953 8.42184C21.076 8.10855 21.1724 7.79907 21.3662 7.55216C21.56 7.30526 21.8378 7.13812 22.1467 7.0825Z" fill="#FAFAFA"/>
<path d="M32.0312 7.8125H34.375V9.375H32.0312V7.8125Z" fill="#FAFAFA"/>
<path d="M15.625 7.8125H17.9688V9.375H15.625V7.8125Z" fill="#FAFAFA"/>
<path d="M17.8125 3.29785L18.9174 2.193L20.5746 3.85028L19.4698 4.95513L17.8125 3.29785Z" fill="#FAFAFA"/>
<path d="M29.4141 3.85352L31.0713 2.19623L32.1762 3.30109L30.5189 4.95837L29.4141 3.85352Z" fill="#FAFAFA"/>
<path d="M24.2188 0.78125H25.7812V3.125H24.2188V0.78125Z" fill="#FAFAFA"/>
<path d="M7.03125 26.5625C8.26738 26.5625 9.47576 26.1959 10.5036 25.5092C11.5314 24.8224 12.3324 23.8463 12.8055 22.7043C13.2785 21.5622 13.4023 20.3056 13.1612 19.0932C12.92 17.8808 12.3247 16.7672 11.4507 15.8931C10.5766 15.019 9.46295 14.4238 8.25056 14.1826C7.03818 13.9414 5.78152 14.0652 4.63948 14.5383C3.49744 15.0113 2.52132 15.8124 1.83456 16.8402C1.14781 17.868 0.78125 19.0764 0.78125 20.3125C0.783146 21.9695 1.44224 23.5581 2.61393 24.7298C3.78562 25.9015 5.37423 26.5606 7.03125 26.5625ZM8.59375 24.7266C7.58399 25.0912 6.47851 25.0912 5.46875 24.7266V22.6563C5.46896 22.4491 5.55133 22.2505 5.6978 22.1041C5.84427 21.9576 6.04286 21.8752 6.25 21.875H7.8125C8.01964 21.8752 8.21823 21.9576 8.3647 22.1041C8.51117 22.2505 8.59354 22.4491 8.59375 22.6563V24.7266ZM6.25 19.5313C6.25 19.3767 6.29582 19.2257 6.38166 19.0972C6.46751 18.9687 6.58952 18.8686 6.73228 18.8095C6.87503 18.7503 7.03212 18.7349 7.18366 18.765C7.33521 18.7952 7.47442 18.8696 7.58368 18.9788C7.69294 19.0881 7.76734 19.2273 7.79749 19.3788C7.82763 19.5304 7.81216 19.6875 7.75303 19.8302C7.6939 19.973 7.59377 20.095 7.46529 20.1808C7.33681 20.2667 7.18577 20.3125 7.03125 20.3125C6.82411 20.3123 6.62552 20.2299 6.47905 20.0835C6.33258 19.937 6.25021 19.7384 6.25 19.5313ZM7.03125 15.625C7.98005 15.6236 8.90686 15.9106 9.68885 16.4479C10.4708 16.9853 11.0711 17.7476 11.41 18.6338C11.7489 19.52 11.8105 20.4882 11.5866 21.4102C11.3627 22.3322 10.8639 23.1644 10.1562 23.7965V22.6563C10.1555 22.2612 10.0547 21.8729 9.86324 21.5273C9.67179 21.1818 9.39594 20.8904 9.06143 20.6803C9.26438 20.3312 9.37248 19.9351 9.375 19.5313C9.375 18.9097 9.12807 18.3135 8.68853 17.874C8.24899 17.4344 7.65285 17.1875 7.03125 17.1875C6.40965 17.1875 5.81351 17.4344 5.37397 17.874C4.93443 18.3135 4.6875 18.9097 4.6875 19.5313C4.69004 19.9351 4.79815 20.3312 5.00112 20.6803C4.66659 20.8904 4.39073 21.1818 4.19928 21.5273C4.00782 21.8728 3.90701 22.2612 3.90625 22.6563V23.7965C3.19864 23.1644 2.69983 22.3322 2.47594 21.4102C2.25204 20.4882 2.31363 19.52 2.65253 18.6338C2.99144 17.7476 3.59167 16.9853 4.37365 16.4479C5.15564 15.9106 6.08245 15.6236 7.03125 15.625Z" fill="#FAFAFA"/>
<path d="M41.2222 26.5623C41.248 26.5624 41.2737 26.5611 41.2993 26.5585C41.5053 26.5383 46.3675 26.0233 48.3183 22.9315C50.2867 19.8115 48.4236 15.4924 48.3435 15.3101C48.2786 15.1582 48.1666 15.0312 48.024 14.9479C47.8814 14.8646 47.7158 14.8293 47.5516 14.8474C47.3456 14.8676 42.4834 15.3826 40.5325 18.4744C38.5641 21.5944 40.4273 25.9135 40.5074 26.0958C40.5685 26.2345 40.6686 26.3524 40.7955 26.4353C40.9224 26.5181 41.0707 26.5622 41.2222 26.5623ZM46.9969 22.0976C46.072 23.5641 44.1718 24.3109 42.7853 24.6784C43.6074 23.0523 44.5288 21.4784 45.5443 19.9656C45.7549 19.6508 46.645 18.3888 47.3696 17.3683C47.6945 18.6771 47.9272 20.6234 46.9969 22.0976ZM41.854 19.3083C42.7355 17.9106 44.5065 17.1655 45.8714 16.7802C45.1951 17.7339 44.4487 18.7932 44.2458 19.0962C43.2154 20.6321 42.2786 22.2287 41.4403 23.8773C41.1382 22.5732 40.9626 20.7208 41.854 19.3083Z" fill="#FAFAFA"/>
</g>
<defs>
<clipPath id="clip0_1352_18523">
<rect width="50" height="50" fill="white"/>
</clipPath>
</defs>
</svg>
