<svg width="24" height="25" viewBox="0 0 24 25" fill="none" xmlns="http://www.w3.org/2000/svg">
<g clip-path="url(#clip0_2559_1896)">
<path d="M21.5934 13.7245C21.3482 13.5354 21.067 13.3983 20.7671 13.3215C20.4671 13.2446 20.1547 13.2295 19.8488 13.2773C21.6094 11.4998 22.5 9.73259 22.5 8.00009C22.5 5.51853 20.5041 3.50009 18.0506 3.50009C17.3996 3.496 16.7556 3.63445 16.1638 3.90573C15.5721 4.17701 15.0468 4.57454 14.625 5.0704C14.2032 4.57454 13.6779 4.17701 13.0862 3.90573C12.4944 3.63445 11.8504 3.496 11.1994 3.50009C8.74594 3.50009 6.75 5.51853 6.75 8.00009C6.75 9.03134 7.05375 10.0335 7.69312 11.0938C7.16947 11.2265 6.69158 11.4987 6.31031 11.8813L4.18969 14.0001H1.5C1.10218 14.0001 0.720644 14.1581 0.43934 14.4394C0.158035 14.7207 0 15.1023 0 15.5001L0 19.2501C0 19.6479 0.158035 20.0294 0.43934 20.3107C0.720644 20.5921 1.10218 20.7501 1.5 20.7501H11.25C11.3113 20.7501 11.3724 20.7426 11.4319 20.7276L17.4319 19.2276C17.4701 19.2185 17.5075 19.2059 17.5434 19.1901L21.1875 17.6395L21.2288 17.6207C21.579 17.4457 21.8789 17.1844 22.1002 16.8615C22.3215 16.5385 22.457 16.1646 22.4939 15.7748C22.5307 15.385 22.4678 14.9923 22.3109 14.6336C22.154 14.2749 21.9084 13.962 21.5972 13.7245H21.5934ZM11.1994 5.00009C11.7803 4.99159 12.3505 5.15653 12.8371 5.47384C13.3238 5.79114 13.7047 6.24638 13.9313 6.78134C13.9878 6.9189 14.0839 7.03655 14.2074 7.11935C14.3309 7.20215 14.4763 7.24636 14.625 7.24636C14.7737 7.24636 14.9191 7.20215 15.0426 7.11935C15.1661 7.03655 15.2622 6.9189 15.3187 6.78134C15.5453 6.24638 15.9262 5.79114 16.4129 5.47384C16.8995 5.15653 17.4697 4.99159 18.0506 5.00009C19.6491 5.00009 21 6.37353 21 8.00009C21 9.82915 19.5197 11.8982 16.7194 13.9907L15.6797 14.2298C15.7709 13.8443 15.7738 13.4431 15.6879 13.0564C15.6021 12.6696 15.4298 12.3073 15.1841 11.9966C14.9383 11.6859 14.6254 11.4348 14.2688 11.2622C13.9122 11.0897 13.5212 11 13.125 11.0001H9.43875C8.62969 9.90884 8.25 8.94884 8.25 8.00009C8.25 6.37353 9.60094 5.00009 11.1994 5.00009ZM1.5 15.5001H3.75V19.2501H1.5V15.5001ZM20.5716 16.2698L17.0091 17.7866L11.1562 19.2501H5.25V15.0604L7.37156 12.9398C7.51035 12.7999 7.67555 12.689 7.85758 12.6135C8.03961 12.538 8.23482 12.4995 8.43188 12.5001H13.125C13.4234 12.5001 13.7095 12.6186 13.9205 12.8296C14.1315 13.0406 14.25 13.3267 14.25 13.6251C14.25 13.9235 14.1315 14.2096 13.9205 14.4206C13.7095 14.6316 13.4234 14.7501 13.125 14.7501H10.5C10.3011 14.7501 10.1103 14.8291 9.96967 14.9698C9.82902 15.1104 9.75 15.3012 9.75 15.5001C9.75 15.699 9.82902 15.8898 9.96967 16.0304C10.1103 16.1711 10.3011 16.2501 10.5 16.2501H13.5C13.5565 16.2499 13.6127 16.2436 13.6678 16.2313L19.9491 14.7866L19.9781 14.7791C20.1699 14.7259 20.3745 14.7455 20.5527 14.8341C20.7309 14.9227 20.87 15.074 20.9433 15.259C21.0167 15.444 21.0189 15.6496 20.9498 15.8362C20.8806 16.0228 20.7449 16.1772 20.5687 16.2698H20.5716Z" fill="#FAFAFA"/>
</g>
<defs>
<clipPath id="clip0_2559_1896">
<rect width="24" height="24" fill="white" transform="translate(0 0.5)"/>
</clipPath>
</defs>
</svg>
