<svg width="24" height="24" viewBox="0 0 24 24" fill="none" xmlns="http://www.w3.org/2000/svg">
<path d="M20.296 9.79586L12.796 17.2959C12.6914 17.4007 12.5673 17.484 12.4305 17.5407C12.2938 17.5975 12.1471 17.6267 11.9991 17.6267C11.851 17.6267 11.7044 17.5975 11.5677 17.5407C11.4309 17.484 11.3067 17.4007 11.2022 17.2959L3.70221 9.79586C3.49086 9.58451 3.37213 9.29787 3.37213 8.99898C3.37213 8.7001 3.49086 8.41345 3.70221 8.20211C3.91355 7.99076 4.2002 7.87203 4.49908 7.87203C4.79797 7.87203 5.08461 7.99076 5.29596 8.20211L12 14.9062L18.7041 8.20117C18.9154 7.98983 19.2021 7.87109 19.501 7.87109C19.7998 7.87109 20.0865 7.98983 20.2978 8.20117C20.5092 8.41252 20.6279 8.69916 20.6279 8.99805C20.6279 9.29693 20.5092 9.58358 20.2978 9.79492L20.296 9.79586Z" fill="#041E42"/>
</svg>
