<svg width="34" height="30" viewBox="0 0 34 30" fill="none" xmlns="http://www.w3.org/2000/svg">
<path d="M33.625 10.1406C33.625 20.5313 18.2187 28.9417 17.5626 29.2891C17.3897 29.3821 17.1964 29.4308 17 29.4308C16.8036 29.4308 16.6103 29.3821 16.4374 29.2891C15.7813 28.9417 0.375 20.5313 0.375 10.1406C0.37775 7.70065 1.34825 5.3614 3.07357 3.63607C4.7989 1.91075 7.13815 0.94025 9.57812 0.9375C12.6434 0.9375 15.3271 2.25563 17 4.48367C18.6729 2.25563 21.3566 0.9375 24.4219 0.9375C26.8619 0.94025 29.2011 1.91075 30.9264 3.63607C32.6518 5.3614 33.6222 7.70065 33.625 10.1406Z" fill="#FAFAFA"/>
</svg>
