<svg width="46" height="46" viewBox="0 0 46 46" fill="none" xmlns="http://www.w3.org/2000/svg">
<path d="M35.5798 5.8396C34.9688 5.64194 34.3219 5.51616 33.6571 5.44428C25.1758 4.58178 23.0016 12.6677 23.0016 12.6677C23.0016 12.6677 20.8274 4.58178 12.3641 5.44428C4.49382 6.23491 0.361003 16.1537 5.51803 24.4912C6.99147 26.881 9.29147 29.4505 11.7532 31.8404C16.6946 36.638 22.2649 40.6271 23.0016 40.6271C24.1157 40.6271 36.029 31.6966 40.4852 24.5091C45.211 16.8724 42.1563 7.906 35.5798 5.8396Z" fill="#D75050"/>
<path opacity="0.15" d="M40.482 24.4914C45.2078 16.8727 42.1531 7.90625 35.5766 5.83984C35.5766 5.83984 42.1352 12.1648 38.3617 18.6695C34.5883 25.1742 21.9742 33.2602 20.1953 33.5477C18.7219 33.7812 14.9844 33.4398 11.75 31.8586C16.6914 36.6562 22.2617 40.6453 22.9984 40.6453C24.1125 40.6273 36.0258 31.6969 40.482 24.4914Z" fill="black"/>
<path opacity="0.3" d="M10.8219 13.2289C12.4157 11.341 12.9334 9.15679 11.978 8.35028C11.0227 7.54376 8.95626 8.42038 7.36243 10.3083C5.76861 12.1961 5.25099 14.3804 6.20631 15.1869C7.16162 15.9934 9.2281 15.1168 10.8219 13.2289Z" fill="white"/>
</svg>
