<svg width="52" height="52" viewBox="0 0 52 52" fill="none" xmlns="http://www.w3.org/2000/svg">
<g clip-path="url(#clip0_1352_18515)">
<path d="M24.8026 15.8516C26.1689 15.7714 27.527 15.5867 28.8651 15.2991C29.7521 14.6516 30.4687 13.7984 30.9532 12.8128C31.5139 14.9335 33.0251 16.2497 34.9426 16.2497C38.4607 16.2497 42.2551 14.4703 42.2551 10.5622C42.3591 8.43167 42.6308 6.31261 43.0676 4.22472C43.1078 4.03036 43.0754 3.82802 42.9766 3.65588C42.8778 3.48374 42.7194 3.35372 42.5314 3.29035C42.247 3.20097 39.6226 2.47785 34.5932 4.9641C33.2228 5.63313 32.1199 6.74744 31.4651 8.12472C30.6526 5.05347 27.5326 2.43722 24.3801 2.43722C22.3976 2.43722 17.4657 0.714722 15.7351 0.0565971C15.6208 0.011094 15.4976 -0.00783705 15.3748 0.00123302C15.2521 0.0103031 15.133 0.0471372 15.0266 0.108955C14.9202 0.170773 14.8292 0.255958 14.7605 0.358082C14.6918 0.460205 14.6472 0.576597 14.6301 0.698472C14.5814 1.03972 13.4764 9.19722 17.9939 13.4303C19.8603 15.0954 22.304 15.9643 24.8026 15.8516ZM35.3082 6.41035C37.09 5.43383 39.0716 4.87797 41.1014 4.78535H41.2964C40.9217 6.6903 40.6989 8.62199 40.6301 10.5622C40.6301 13.3572 37.6807 14.6247 34.9426 14.6247C34.7479 14.6265 34.5538 14.6019 34.3657 14.5516L38.0382 9.40847C38.1418 9.23354 38.1761 9.02613 38.1342 8.82717C38.0924 8.62822 37.9775 8.45219 37.8122 8.33383C37.6469 8.21546 37.4432 8.16337 37.2414 8.18784C37.0395 8.2123 36.8542 8.31154 36.722 8.46597L33.0657 13.5766C32.8059 13.1991 32.6161 12.7781 32.5051 12.3335C32.2446 11.175 32.379 9.96262 32.8869 8.88931C33.3949 7.81601 34.2472 6.9434 35.3082 6.41035ZM16.1576 1.9416C18.0914 2.64035 22.3082 4.06222 24.3801 4.06222C25.8524 4.17116 27.2366 4.80536 28.2805 5.84929C29.3245 6.89322 29.9587 8.27741 30.0676 9.74972C30.0702 10.4458 29.9344 11.1354 29.6679 11.7784C29.4015 12.4215 29.0098 13.0051 28.5157 13.4953L21.7314 5.95535C21.662 5.869 21.5758 5.79773 21.4779 5.74594C21.38 5.69414 21.2725 5.6629 21.1621 5.65414C21.0517 5.64537 20.9407 5.65927 20.8359 5.69498C20.731 5.73069 20.6346 5.78745 20.5525 5.86178C20.4704 5.93611 20.4044 6.02644 20.3585 6.12722C20.3126 6.22801 20.2877 6.33711 20.2855 6.44783C20.2833 6.55856 20.3037 6.66857 20.3456 6.77111C20.3874 6.87364 20.4498 6.96654 20.5289 7.0441L26.8176 14.0722C23.4701 14.5272 20.8701 13.9178 19.0826 12.2441C16.0682 9.40035 16.0276 4.14347 16.1576 1.9416Z" fill="#FAFAFA"/>
<path d="M31.6875 24.375V16.25C31.6875 16.0345 31.6019 15.8278 31.4495 15.6755C31.2972 15.5231 31.0905 15.4375 30.875 15.4375C30.6595 15.4375 30.4528 15.5231 30.3005 15.6755C30.1481 15.8278 30.0625 16.0345 30.0625 16.25V24.375C30.0625 24.5905 30.1481 24.7972 30.3005 24.9495C30.4528 25.1019 30.6595 25.1875 30.875 25.1875C31.0905 25.1875 31.2972 25.1019 31.4495 24.9495C31.6019 24.7972 31.6875 24.5905 31.6875 24.375Z" fill="#FAFAFA"/>
<path d="M51.1908 32.5H50.1021C50.2607 31.9718 50.3535 31.426 50.3783 30.875C50.3783 30.6595 50.2927 30.4528 50.1404 30.3005C49.988 30.1481 49.7813 30.0625 49.5658 30.0625H48.2008C48.5189 29.2863 48.7056 28.4625 48.7533 27.625C48.7533 27.4095 48.6677 27.2028 48.5154 27.0505C48.363 26.8981 48.1563 26.8125 47.9408 26.8125H44.6908C44.545 26.8125 44.4019 26.8518 44.2765 26.9262L40.214 29.3637C40.0513 29.4821 39.9383 29.6565 39.8968 29.8533C39.8553 30.0501 39.8883 30.2553 39.9894 30.4292C40.0905 30.6031 40.2525 30.7333 40.4441 30.7947C40.6357 30.856 40.8432 30.8441 41.0265 30.7613L44.9183 28.4375H47.0065C46.9333 28.7869 46.519 30.0625 46.519 30.0625H46.3158C46.17 30.0625 46.0269 30.1018 45.9015 30.1762L41.839 32.6137C41.6763 32.7321 41.5633 32.9065 41.5218 33.1033C41.4803 33.3001 41.5133 33.5053 41.6144 33.6792C41.7155 33.8531 41.8775 33.9833 42.0691 34.0447C42.2607 34.106 42.4682 34.0941 42.6515 34.0113L46.5433 31.6875H48.6315L48.3958 32.5H47.9408C47.795 32.5 47.6519 32.5393 47.5265 32.6137L33.9821 40.5762L19.5033 37.6756C19.2729 37.6245 19.0689 37.4915 18.9291 37.3014C18.7893 37.1113 18.7232 36.8769 18.743 36.6418C18.7629 36.4066 18.8673 36.1867 19.037 36.0227C19.2067 35.8587 19.4301 35.7618 19.6658 35.75H31.6908C32.5528 35.75 33.3794 35.4076 33.9889 34.7981C34.5984 34.1886 34.9408 33.362 34.9408 32.5C34.9408 31.638 34.5984 30.8114 33.9889 30.2019C33.3794 29.5924 32.5528 29.25 31.6908 29.25H13.4014C11.8988 29.2391 10.4529 29.8233 9.37957 30.875L0.238949 40.0481C0.0859527 40.2011 -5.58442e-09 40.4086 0 40.625C5.58442e-09 40.8414 0.0859527 41.0489 0.238949 41.2019C0.391946 41.3549 0.599454 41.4408 0.815824 41.4408C1.03219 41.4408 1.2397 41.3549 1.3927 41.2019L10.5658 32.0612C11.3192 31.3097 12.3374 30.8838 13.4014 30.875H31.6908C32.1218 30.875 32.5351 31.0462 32.8399 31.351C33.1446 31.6557 33.3158 32.069 33.3158 32.5C33.3158 32.931 33.1446 33.3443 32.8399 33.649C32.5351 33.9538 32.1218 34.125 31.6908 34.125H19.6658C19.0257 34.132 18.4107 34.3748 17.9386 34.807C17.4664 35.2392 17.1702 35.8304 17.1069 36.4674C17.0435 37.1043 17.2173 37.7423 17.595 38.2591C17.9727 38.7759 18.5278 39.1351 19.1539 39.2681L33.9658 42.25C34.1636 42.2903 34.3692 42.2555 34.5427 42.1525L48.1602 34.125H50.2646C49.9965 35.3681 49.0621 37.8138 45.8771 39.9425L33.6489 47.8887C32.4997 48.6318 31.1958 49.1022 29.8369 49.2642C28.478 49.4261 27.1 49.2752 25.8083 48.8231L16.5215 45.5731C16.3818 45.528 16.2325 45.5215 16.0894 45.5544C15.9463 45.5873 15.8149 45.6584 15.7089 45.76L10.8339 50.635C10.7578 50.7105 10.6973 50.8004 10.6561 50.8994C10.6149 50.9984 10.5936 51.1046 10.5936 51.2119C10.5936 51.3191 10.6149 51.4253 10.6561 51.5243C10.6973 51.6234 10.7578 51.7132 10.8339 51.7888C10.9095 51.8649 10.9993 51.9254 11.0984 51.9666C11.1974 52.0079 11.3036 52.0291 11.4108 52.0291C11.5181 52.0291 11.6243 52.0079 11.7233 51.9666C11.8223 51.9254 11.9122 51.8649 11.9877 51.7888L16.4971 47.2712L25.2639 50.375C26.7929 50.9045 28.4224 51.0787 30.0287 50.8844C31.635 50.6901 33.176 50.1325 34.5346 49.2537L46.7221 41.2994C51.9464 37.8463 52.0033 33.4994 52.0033 33.3125C52.0033 33.097 51.9177 32.8903 51.7654 32.738C51.613 32.5856 51.4063 32.5 51.1908 32.5Z" fill="#FAFAFA"/>
<path d="M25.193 24.375C24.1126 24.3721 23.0467 24.6244 22.0824 25.1116C21.118 25.5987 20.2824 26.3068 19.6436 27.1782C19.5252 27.3563 19.4819 27.5739 19.5229 27.7838C19.564 27.9938 19.6862 28.179 19.863 28.2994C19.9515 28.3593 20.051 28.4011 20.1557 28.4225C20.2604 28.4439 20.3683 28.4444 20.4732 28.424C20.5781 28.4036 20.6779 28.3628 20.767 28.3037C20.8561 28.2447 20.9327 28.1687 20.9924 28.08C21.4861 27.4348 22.1219 26.9119 22.8504 26.5521C23.5789 26.1922 24.3805 26.005 25.193 26.005C26.0055 26.005 26.8071 26.1922 27.5356 26.5521C28.264 26.9119 28.8998 27.4348 29.3936 28.08C29.4681 28.1903 29.5686 28.2806 29.6862 28.3429C29.8038 28.4052 29.9349 28.4377 30.068 28.4375C30.2277 28.4394 30.384 28.391 30.5149 28.2994C30.693 28.1803 30.8168 27.9956 30.8594 27.7856C30.902 27.5756 30.8599 27.3573 30.7424 27.1782C30.1036 26.3068 29.268 25.5987 28.3036 25.1116C27.3392 24.6244 26.2734 24.3721 25.193 24.375Z" fill="#FAFAFA"/>
<path d="M32.5 27.625C35.1975 27.625 36.6356 30.4038 36.6519 30.4281C36.7194 30.5621 36.8227 30.6748 36.9503 30.7537C37.078 30.8326 37.225 30.8745 37.375 30.875C37.5025 30.8765 37.6282 30.8458 37.7406 30.7856C37.932 30.6882 38.077 30.519 38.144 30.315C38.211 30.111 38.1945 29.8888 38.0981 29.6969C38.025 29.5506 36.2131 26 32.5 26C32.2845 26 32.0778 26.0856 31.9255 26.238C31.7731 26.3903 31.6875 26.597 31.6875 26.8125C31.6875 27.028 31.7731 27.2347 31.9255 27.387C32.0778 27.5394 32.2845 27.625 32.5 27.625Z" fill="#FAFAFA"/>
<path d="M36.9688 32.9062C37.3997 32.9062 37.8131 33.0775 38.1178 33.3822C38.4225 33.6869 38.5938 34.1003 38.5938 34.5312C38.5938 34.7467 38.6794 34.9534 38.8317 35.1058C38.9841 35.2581 39.1908 35.3438 39.4062 35.3438C39.6217 35.3438 39.8284 35.2581 39.9808 35.1058C40.1331 34.9534 40.2188 34.7467 40.2188 34.5312C40.2188 33.6693 39.8763 32.8426 39.2668 32.2332C38.6574 31.6237 37.8307 31.2812 36.9688 31.2812C36.7533 31.2812 36.5466 31.3669 36.3942 31.5192C36.2419 31.6716 36.1562 31.8783 36.1562 32.0938C36.1562 32.3092 36.2419 32.5159 36.3942 32.6683C36.5466 32.8206 36.7533 32.9062 36.9688 32.9062Z" fill="#FAFAFA"/>
</g>
<defs>
<clipPath id="clip0_1352_18515">
<rect width="52" height="52" fill="white"/>
</clipPath>
</defs>
</svg>
