<svg width="40" height="40" viewBox="0 0 40 40" fill="none" xmlns="http://www.w3.org/2000/svg">
<path d="M26.5311 20.4956C26.4781 20.3402 26.3661 20.2119 26.2194 20.1384C26.0726 20.0649 25.9028 20.0521 25.7466 20.1028C25.5905 20.1534 25.4605 20.2635 25.3848 20.4092C25.3092 20.5549 25.2938 20.7245 25.3422 20.8813L27.2693 26.8173C27.3222 26.9728 27.4342 27.1012 27.581 27.1748C27.7279 27.2484 27.8978 27.2612 28.054 27.2105C28.2102 27.1598 28.3402 27.0497 28.4158 26.9039C28.4915 26.7581 28.5068 26.5884 28.4583 26.4315L26.5311 20.4956Z" fill="#041E42" stroke="#041E42" stroke-width="0.6"/>
<path d="M37.4655 30.8333C37.7314 29.3661 36.851 27.357 36.4658 25.9716C36.4167 25.8133 36.3067 25.6809 36.16 25.6037C36.0133 25.5265 35.842 25.5107 35.6836 25.5599C35.5253 25.609 35.393 25.719 35.3158 25.8657C35.2386 26.0124 35.2228 26.1837 35.2719 26.3421L36.0346 28.7993C36.2721 29.668 36.3105 30.5791 36.1469 31.4647L33.1281 32.6504L30.8689 27.574V18.8567C30.8623 18 30.7795 17.1456 30.6214 16.3036C30.3869 14.9071 30.4658 13.476 30.8525 12.1138L34.4968 23.8424C34.548 23.9983 34.6584 24.1278 34.8043 24.203C34.9501 24.2782 35.1197 24.293 35.2763 24.2443C35.433 24.1956 35.5643 24.0872 35.6418 23.9426C35.7193 23.798 35.7368 23.6287 35.6906 23.4713L31.5094 10.0149C29.9418 7.51863 25.7458 6.63416 24.7898 6.46262L22.8922 4.39107C22.8162 4.31999 22.7265 4.26507 22.6286 4.22964C22.5672 4.20005 22.4995 4.18581 22.4314 4.18815C22.4032 4.19952 17.5622 4.1726 17.5394 4.19431C17.3766 4.20601 17.2234 4.27584 17.1079 4.39107L15.2103 6.46261C14.2279 6.63595 10.3803 7.45107 8.58891 9.82381C8.54529 9.8814 8.51204 9.94615 8.49064 10.0152L2.77226 28.4264C2.35651 29.569 2.53752 30.8967 2.65237 32.0757C2.61984 34.9852 2.39815 34.5977 5.09987 35.7216C5.3528 35.8271 5.63358 35.8456 5.89818 35.7743C6.16278 35.703 6.39623 35.5459 6.56193 35.3277L7.70085 33.8256C7.71851 33.782 7.74929 33.7473 7.77104 33.7047L9.42758 29.9825L10.2698 30.9942C10.3478 31.0807 10.4461 31.1465 10.5558 31.1858C10.6654 31.2251 10.7831 31.2366 10.8983 31.2194L11.2705 33.5491C11.2939 33.6959 11.3689 33.8296 11.482 33.926C11.5951 34.0225 11.7389 34.0755 11.8875 34.0755H28.1125C28.2612 34.0755 28.405 34.0225 28.5181 33.926C28.6312 33.8296 28.7062 33.6959 28.7296 33.5491L29.1018 31.2194H29.2499C29.3416 31.2194 29.4322 31.1992 29.5152 31.1603C29.5982 31.1214 29.6716 31.0646 29.7303 30.9941L30.5725 29.9825L32.2291 33.7047C32.2509 33.7474 32.2815 33.7819 32.2993 33.8256L33.4382 35.3277C33.6038 35.5459 33.8372 35.703 34.1018 35.7743C34.3663 35.8456 34.6471 35.827 34.8999 35.7216L36.5992 35.0118C36.8259 34.9177 37.0194 34.7581 37.1548 34.5534C37.2902 34.3487 37.3615 34.1083 37.3594 33.8628L37.3478 32.0757C37.3477 32.0601 37.3511 31.9904 37.3533 31.9683L37.4655 30.8333ZM20 9.17711C19.222 8.04281 18.6584 6.77556 18.3372 5.43813H21.6628C21.3416 6.77558 20.7781 8.04283 20 9.17711ZM18.689 9.46706C18.0959 9.39184 17.5399 9.13698 17.0958 8.73668C16.6517 8.33639 16.3406 7.80982 16.2044 7.22765L17.2213 6.1176C17.5435 7.30006 18.038 8.42865 18.689 9.46706ZM22.7789 6.11764L23.7955 7.22753C23.6576 7.80766 23.3464 8.33209 22.9033 8.73113C22.4601 9.13017 21.9061 9.38493 21.3147 9.46157C21.9639 8.42465 22.4572 7.29797 22.7789 6.11764ZM3.89073 33.8708L3.89754 32.825L6.20837 33.7325L5.5817 34.5681L3.89073 33.8708ZM10.3812 29.1744C10.3809 28.3513 10.3815 21.3896 10.3812 20.3817C10.3789 20.2175 10.312 20.0607 10.195 19.9454C10.0781 19.8301 9.92043 19.7655 9.75619 19.7655C9.59194 19.7655 9.4343 19.8301 9.31734 19.9455C9.20039 20.0608 9.13352 20.2175 9.13121 20.3817V27.574L6.87199 32.6504L3.85316 31.4647L3.77778 30.7052C3.06483 30.5112 9.03493 12.9013 9.14757 12.1141C9.5342 13.4758 9.61314 14.9064 9.37868 16.3024C9.34196 17.0484 8.74333 18.3214 9.75274 18.5049C10.7376 18.4829 10.3622 17.2356 10.6092 16.5222C10.9617 14.415 10.6908 12.2507 9.82996 10.2953C11.2448 8.72951 13.8818 8.01746 15.0406 7.77168C15.6525 9.99558 17.8341 10.7199 19.3753 10.8215V29.9694H11.0432L10.3812 29.1744ZM28.9569 29.9694H22.5C22.3359 29.9719 22.1793 30.0388 22.0641 30.1557C21.9488 30.2727 21.8843 30.4303 21.8843 30.5944C21.8843 30.7586 21.9489 30.9162 22.0641 31.0331C22.1793 31.1501 22.3359 31.217 22.5001 31.2194H27.836L27.5794 32.8255H12.4207L12.164 31.2194C12.1677 31.2226 19.9967 31.2152 20.0003 31.2209C20.166 31.2209 20.325 31.1551 20.4422 31.0378C20.5595 30.9206 20.6253 30.7617 20.6253 30.5959V10.8214C22.1665 10.7194 24.3475 9.99494 24.9593 7.77162C26.1182 8.01728 28.7552 8.72926 30.1701 10.2953C29.3091 12.2509 29.0383 14.4153 29.3909 16.5227C29.855 18.8941 29.5256 26.9178 29.619 29.1744L28.9569 29.9694ZM34.4343 34.5727L33.796 33.7309L36.106 32.8236L36.1176 33.8583L34.4343 34.5727Z" fill="#041E42" stroke="#041E42" stroke-width="0.6"/>
<path d="M11.9438 27.2201C12.1015 27.2711 12.2729 27.2574 12.4205 27.1821C12.5681 27.1068 12.6798 26.9761 12.7312 26.8185L14.6584 20.8825C14.7083 20.7252 14.694 20.5545 14.6185 20.4076C14.5431 20.2608 14.4126 20.1498 14.2555 20.0989C14.0985 20.0479 13.9277 20.0612 13.7804 20.1357C13.6331 20.2103 13.5213 20.3401 13.4694 20.4968L11.5422 26.4328C11.4911 26.5904 11.5047 26.762 11.58 26.9096C11.6553 27.0573 11.7862 27.169 11.9438 27.2201Z" fill="#041E42" stroke="#041E42" stroke-width="0.6"/>
</svg>
