<svg width="38" height="14" viewBox="0 0 38 14" fill="none" xmlns="http://www.w3.org/2000/svg">
<path opacity="0.4" d="M8.596 9.13C8.596 10.39 8.242 11.368 7.534 12.064C6.838 12.748 5.884 13.09 4.672 13.09C3.916 13.09 3.226 12.934 2.602 12.622C1.978 12.298 1.432 11.854 0.964 11.29L1.972 9.742C2.392 10.186 2.836 10.528 3.304 10.768C3.772 11.008 4.222 11.128 4.654 11.128C5.218 11.128 5.656 10.954 5.968 10.606C6.292 10.246 6.454 9.736 6.454 9.076V2.218H2.098V0.399999H8.596V9.13ZM17.2724 0.274C18.2084 0.274 19.0784 0.436 19.8824 0.76C20.6984 1.084 21.4064 1.54 22.0064 2.128C22.6184 2.716 23.0924 3.4 23.4284 4.18C23.7764 4.948 23.9504 5.782 23.9504 6.682C23.9504 7.582 23.7764 8.428 23.4284 9.22C23.0924 10 22.6184 10.684 22.0064 11.272C21.4064 11.86 20.6984 12.322 19.8824 12.658C19.0784 12.982 18.2084 13.144 17.2724 13.144C16.3364 13.144 15.4604 12.982 14.6444 12.658C13.8404 12.322 13.1324 11.86 12.5204 11.272C11.9204 10.684 11.4464 10 11.0984 9.22C10.7624 8.428 10.5944 7.582 10.5944 6.682C10.5944 5.782 10.7624 4.942 11.0984 4.162C11.4464 3.382 11.9204 2.704 12.5204 2.128C13.1324 1.54 13.8404 1.084 14.6444 0.76C15.4604 0.436 16.3364 0.274 17.2724 0.274ZM17.2904 2.074C16.6664 2.074 16.0784 2.194 15.5264 2.434C14.9864 2.662 14.5064 2.986 14.0864 3.406C13.6664 3.826 13.3364 4.318 13.0964 4.882C12.8684 5.434 12.7544 6.034 12.7544 6.682C12.7544 7.33 12.8744 7.936 13.1144 8.5C13.3544 9.064 13.6844 9.562 14.1044 9.994C14.5244 10.414 15.0044 10.744 15.5444 10.984C16.0964 11.224 16.6784 11.344 17.2904 11.344C17.9024 11.344 18.4784 11.224 19.0184 10.984C19.5704 10.744 20.0504 10.414 20.4584 9.994C20.8664 9.562 21.1844 9.064 21.4124 8.5C21.6524 7.936 21.7724 7.33 21.7724 6.682C21.7724 6.034 21.6524 5.434 21.4124 4.882C21.1844 4.318 20.8664 3.826 20.4584 3.406C20.0504 2.986 19.5704 2.662 19.0184 2.434C18.4784 2.194 17.9024 2.074 17.2904 2.074ZM31.3767 0.399999C32.3247 0.399999 33.1947 0.555999 33.9867 0.868C34.7787 1.18 35.4627 1.618 36.0387 2.182C36.6267 2.746 37.0827 3.412 37.4067 4.18C37.7307 4.948 37.8927 5.788 37.8927 6.7C37.8927 7.612 37.7307 8.452 37.4067 9.22C37.0827 9.976 36.6267 10.642 36.0387 11.218C35.4507 11.782 34.7547 12.22 33.9507 12.532C33.1467 12.844 32.2707 13 31.3227 13H26.2107V0.399999H31.3767ZM31.4307 11.182C32.0427 11.182 32.6067 11.074 33.1227 10.858C33.6507 10.642 34.1067 10.336 34.4907 9.94C34.8867 9.532 35.1927 9.058 35.4087 8.518C35.6367 7.966 35.7507 7.366 35.7507 6.718C35.7507 6.058 35.6367 5.458 35.4087 4.918C35.1807 4.366 34.8687 3.886 34.4727 3.478C34.0767 3.07 33.6087 2.758 33.0687 2.542C32.5407 2.326 31.9647 2.218 31.3407 2.218H28.3347V11.182H31.4307Z" fill="#041E42"/>
</svg>
