<svg width="18" height="19" viewBox="0 0 18 19" fill="none" xmlns="http://www.w3.org/2000/svg">
<path d="M15.7116 3.3175C15.7035 3.17989 15.6452 3.05002 15.5478 2.95255C15.4503 2.85508 15.3204 2.79679 15.1828 2.78875C9.82993 2.47446 5.54227 4.08602 3.71415 7.10946C3.08047 8.14369 2.76821 9.34282 2.81696 10.5548C2.84879 11.3298 3.00647 12.0945 3.28384 12.8188C3.30014 12.8634 3.32745 12.9031 3.36324 12.9343C3.39903 12.9655 3.44213 12.9871 3.48852 12.9972C3.53491 13.0072 3.58309 13.0053 3.62857 12.9917C3.67404 12.9781 3.71534 12.9532 3.7486 12.9194L9.72516 6.85141C9.77743 6.79915 9.83947 6.75769 9.90775 6.72941C9.97604 6.70112 10.0492 6.68657 10.1231 6.68657C10.197 6.68657 10.2702 6.70112 10.3385 6.72941C10.4068 6.75769 10.4688 6.79915 10.5211 6.85141C10.5734 6.90367 10.6148 6.96571 10.6431 7.034C10.6714 7.10228 10.6859 7.17547 10.6859 7.24938C10.6859 7.32329 10.6714 7.39647 10.6431 7.46476C10.6148 7.53304 10.5734 7.59508 10.5211 7.64735L3.98977 14.2771L2.99204 15.2748C2.88828 15.3759 2.82633 15.5122 2.81851 15.6568C2.8107 15.8014 2.85758 15.9437 2.94985 16.0553C3.00038 16.1138 3.06244 16.1613 3.13214 16.1948C3.20183 16.2282 3.27768 16.247 3.35495 16.2498C3.43221 16.2526 3.50923 16.2395 3.58119 16.2113C3.65316 16.183 3.71853 16.1402 3.77321 16.0855L4.95376 14.905C5.94798 15.3859 6.95134 15.6482 7.94626 15.6834C8.02454 15.6862 8.10259 15.6876 8.1804 15.6876C9.31342 15.6905 10.4249 15.3784 11.3909 14.7862C14.4143 12.958 16.0266 8.6711 15.7116 3.3175Z" fill="#FAFAFA"/>
</svg>
