<svg width="31" height="31" viewBox="0 0 31 31" fill="none" xmlns="http://www.w3.org/2000/svg">
<path d="M27.902 27.8994V18.8164C27.902 14.3524 26.941 10.9424 21.733 10.9424C19.222 10.9424 17.548 12.3064 16.866 13.6084H16.804V11.3454H11.875V27.8994H17.021V19.6844C17.021 17.5144 17.424 15.4374 20.09 15.4374C22.725 15.4374 22.756 17.8864 22.756 19.8084V27.8684H27.902V27.8994Z" fill="white"/>
<path d="M3.5 11.3457H8.646V27.8997H3.5V11.3457Z" fill="white"/>
<path d="M6.07756 3.09961C4.43456 3.09961 3.10156 4.43261 3.10156 6.07561C3.10156 7.71861 4.43456 9.08261 6.07756 9.08261C7.72056 9.08261 9.05356 7.71861 9.05356 6.07561C9.05356 4.43261 7.72056 3.09961 6.07756 3.09961Z" fill="white"/>
</svg>
