<svg width="34" height="34" viewBox="0 0 34 34" fill="none" xmlns="http://www.w3.org/2000/svg">
<g clip-path="url(#clip0_2367_37866)">
<path d="M32.3 6.8H30.6C29.7012 6.80365 28.9606 7.50631 28.9096 8.40367C28.3914 8.09843 27.8014 7.93614 27.2 7.93333H26.0667V7.36667C26.0667 6.42778 25.3055 5.66667 24.3667 5.66667V4.53333C24.3639 2.03081 22.3359 0.0028106 19.8333 0H10.7667C8.26414 0.0028106 6.23614 2.03081 6.23333 4.53333V5.66667C5.29445 5.66667 4.53333 6.42778 4.53333 7.36667V7.93333H3.4C1.52301 7.93521 0.00187418 9.45634 0 11.3333V27.2C0.00187418 29.077 1.52301 30.5981 3.4 30.6H10.2181C10.2113 30.6941 10.2 30.7859 10.2 30.8833C10.2 32.2643 10.8624 33.3104 11.7589 33.4135C11.7629 33.4135 11.7651 33.4169 11.7691 33.418C13.487 33.78 15.2387 33.9575 16.9943 33.9473C17.2306 33.9473 17.4726 33.9439 17.7185 33.9371C22.1629 33.8119 25.9261 32.5057 28.5985 30.1603C32.6955 26.5682 34.3661 20.6051 33.575 12.4423C33.8466 12.1365 33.9976 11.7423 34 11.3333V8.5C34 7.56112 33.2389 6.8 32.3 6.8ZM30.0333 8.5C30.0333 8.18704 30.287 7.93333 30.6 7.93333H32.3C32.613 7.93333 32.8667 8.18704 32.8667 8.5V11.3333C32.8667 11.6463 32.613 11.9 32.3 11.9H30.6C30.287 11.9 30.0333 11.6463 30.0333 11.3333V8.5ZM24.9333 7.36667V7.93333H19.2667V7.36667C19.2667 7.05371 19.5204 6.8 19.8333 6.8H24.3667C24.6796 6.8 24.9333 7.05371 24.9333 7.36667ZM12.4667 7.93333V7.36667C12.4667 6.42778 11.7056 5.66667 10.7667 5.66667V4.53333H19.8333V5.66667C18.8944 5.66667 18.1333 6.42778 18.1333 7.36667V7.93333H12.4667ZM7.36667 4.53333C7.36854 2.65634 8.88968 1.13521 10.7667 1.13333H19.8333C21.7103 1.13521 23.2315 2.65634 23.2333 4.53333V5.66667H20.9667V4.53333C20.9667 3.90741 20.4593 3.4 19.8333 3.4H10.7667C10.1407 3.4 9.63333 3.90741 9.63333 4.53333V5.66667H7.36667V4.53333ZM5.66667 7.36667C5.66667 7.05371 5.92037 6.8 6.23333 6.8H10.7667C11.0796 6.8 11.3333 7.05371 11.3333 7.36667V7.93333H5.66667V7.36667ZM3.4 29.4667C2.14815 29.4667 1.13333 28.4518 1.13333 27.2V11.3333C1.13333 10.0815 2.14815 9.06667 3.4 9.06667H27.2C27.8536 9.07273 28.473 9.35992 28.9 9.8549V11.3333C28.9018 11.8337 29.1253 12.3075 29.5103 12.627C29.008 13.8662 28.4255 15.0714 27.7667 16.235V11.9C27.7667 11.2741 27.2593 10.7667 26.6333 10.7667H3.96667C3.34074 10.7667 2.83333 11.2741 2.83333 11.9V26.6333C2.83333 27.2593 3.34074 27.7667 3.96667 27.7667H12.2332C12.295 27.8749 12.3545 27.9837 12.4191 28.0908L11.7328 28.3571C11.1453 28.4768 10.6654 28.8992 10.472 29.4667H3.4ZM25.3606 19.7846C24.7455 17.9394 22.9899 16.7187 21.046 16.7847C20.2513 16.7835 19.4683 16.9771 18.7657 17.3485C18.9153 16.2293 19.4134 14.2726 21.0777 13.9394C21.3806 13.8744 21.5751 13.5781 21.5144 13.2743C21.4537 12.9705 21.1602 12.7718 20.8556 12.8282C18.3538 13.3286 17.7565 16.0814 17.6137 17.4131C17.531 17.3661 17.4505 17.3168 17.3638 17.2737C15.5439 16.3432 13.3296 16.7112 11.9085 18.1804C10.816 19.4389 10.4352 21.3667 10.8075 23.7552C10.9661 24.7478 11.254 25.7154 11.6637 26.6333H3.96667V11.9H26.6333V18.0568C26.2291 18.6552 25.8049 19.2312 25.3606 19.7846ZM23.0939 22.2706C20.3462 24.8818 17.0306 26.2939 13.4991 27.672C12.7031 26.4299 12.1692 25.0382 11.93 23.5824C11.7079 22.1538 11.6722 20.1858 12.7681 18.9233C13.7728 17.7588 15.64 17.6862 16.8629 18.2886C17.1852 18.4468 17.4798 18.6559 17.7355 18.908C17.9567 19.1284 18.3145 19.1284 18.5357 18.908C19.2115 18.2615 20.1137 17.9055 21.0488 17.9163C22.8797 17.9163 24.3695 19.1873 24.3695 20.7496C24.3695 20.8159 24.3655 20.8873 24.3644 20.9559C23.9507 21.4109 23.5308 21.8529 23.0911 22.27L23.0939 22.2706ZM11.9 29.4667C12.0649 29.4667 12.4667 29.9642 12.4667 30.8833C12.4667 31.8025 12.0643 32.3 11.9 32.3C11.7357 32.3 11.3333 31.8036 11.3333 30.8833C11.3333 29.9631 11.7345 29.4667 11.9 29.4667ZM27.859 29.304C23.099 33.4821 15.9925 32.9398 13.2107 32.5267C13.4762 32.0202 13.6101 31.4551 13.6 30.8833C13.6184 30.2338 13.4435 29.5934 13.0974 29.0434C17.0357 27.5179 20.7536 26.0553 23.8714 23.0934C24.3616 22.6276 24.8279 22.1334 25.2835 21.6263C25.296 21.6161 25.3039 21.6013 25.3158 21.59C27.5462 19.0612 29.3235 16.1665 30.5694 13.0333H30.6H32.3C32.3636 13.0307 32.427 13.0242 32.4898 13.0141C33.1381 20.5502 31.5866 26.0327 27.859 29.304Z" fill="#041E42" stroke="#041E42" stroke-width="0.2"/>
<path d="M15.2999 19.0517C14.6934 19.0338 14.1064 19.2669 13.6774 19.6959C13.2483 20.1249 13.0153 20.7119 13.0332 21.3184C13.0332 21.6314 13.2869 21.8851 13.5999 21.8851C13.9128 21.8851 14.1665 21.6314 14.1665 21.3184C14.1469 21.0116 14.2605 20.7113 14.4782 20.4943C14.6959 20.2772 14.9965 20.1645 15.3033 20.1851C15.6162 20.1841 15.8692 19.9297 15.8682 19.6167C15.8673 19.3037 15.6128 19.0508 15.2999 19.0517Z" fill="#041E42" stroke="#041E42" stroke-width="0.2"/>
<path d="M5.66628 13.0332C5.35331 13.0332 5.09961 13.2869 5.09961 13.5999V14.7332C5.09961 15.0462 5.35331 15.2999 5.66628 15.2999C5.97924 15.2999 6.23294 15.0462 6.23294 14.7332V13.5999C6.23294 13.2869 5.97924 13.0332 5.66628 13.0332Z" fill="#041E42" stroke="#041E42" stroke-width="0.2"/>
<path d="M5.66628 16.4336C5.35331 16.4336 5.09961 16.6873 5.09961 17.0003V24.9336C5.09961 25.2466 5.35331 25.5003 5.66628 25.5003C5.97924 25.5003 6.23294 25.2466 6.23294 24.9336V17.0003C6.23294 16.6873 5.97924 16.4336 5.66628 16.4336Z" fill="#041E42" stroke="#041E42" stroke-width="0.2"/>
<path d="M30.713 20.4114C30.4063 20.3503 30.1081 20.5491 30.0466 20.8557C30.0301 20.9367 28.3222 28.9987 19.7332 30.6097C19.4463 30.6633 19.2469 30.9261 19.2728 31.2169C19.2986 31.5077 19.5411 31.7313 19.833 31.7334C19.8681 31.7336 19.9033 31.7304 19.9378 31.7238C29.2731 29.9734 31.138 21.1668 31.1578 21.0778C31.2189 20.771 31.0198 20.4727 30.713 20.4114Z" fill="#041E42" stroke="#041E42" stroke-width="0.2"/>
</g>
<defs>
<clipPath id="clip0_2367_37866">
<rect width="34" height="34" fill="white"/>
</clipPath>
</defs>
</svg>
