<svg width="40" height="40" viewBox="0 0 40 40" fill="none" xmlns="http://www.w3.org/2000/svg">
<path d="M38.1625 9.37348C37.9825 9.26117 37.777 9.19651 37.5651 9.18557C37.3533 9.17464 37.1421 9.2178 36.9516 9.31098C30.2438 12.5922 25.4531 11.0547 20.3891 9.43286C15.0766 7.7313 9.56875 5.97348 1.95938 9.68911C1.74677 9.79109 1.56734 9.95114 1.44182 10.1508C1.3163 10.3504 1.2498 10.5814 1.25 10.8172V29.5563C1.24997 29.7684 1.3039 29.977 1.40673 30.1625C1.50955 30.348 1.65788 30.5043 1.83775 30.6166C2.01763 30.729 2.22313 30.7937 2.43493 30.8048C2.64673 30.8158 2.85786 30.7728 3.04844 30.6797C9.75625 27.3985 14.5469 28.936 19.6187 30.5579C22.625 31.5188 25.6875 32.4985 29.15 32.4985C31.8203 32.4985 34.7328 31.9172 38.0422 30.3016C38.2524 30.199 38.4296 30.0394 38.5536 29.8411C38.6776 29.6428 38.7435 29.4136 38.7438 29.1797V10.4407C38.7456 10.228 38.6932 10.0184 38.5915 9.83169C38.4898 9.64495 38.3422 9.48724 38.1625 9.37348ZM36.25 28.3844C29.9062 31.2235 25.2734 29.7422 20.3813 28.1782C17.375 27.2172 14.3125 26.2375 10.85 26.2375C8.41735 26.2494 6.00944 26.7267 3.75625 27.6438V11.6125C10.1 8.77348 14.7328 10.2547 19.625 11.8188C24.5172 13.3829 29.5531 14.9985 36.25 12.3563V28.3844ZM20 14.9985C19.0111 14.9985 18.0444 15.2917 17.2221 15.8411C16.3999 16.3905 15.759 17.1714 15.3806 18.0851C15.0022 18.9987 14.9031 20.004 15.0961 20.9739C15.289 21.9438 15.7652 22.8348 16.4645 23.534C17.1637 24.2333 18.0546 24.7095 19.0245 24.9024C19.9945 25.0953 20.9998 24.9963 21.9134 24.6179C22.827 24.2394 23.6079 23.5986 24.1573 22.7763C24.7068 21.9541 25 20.9874 25 19.9985C25 18.6724 24.4732 17.4006 23.5355 16.463C22.5979 15.5253 21.3261 14.9985 20 14.9985ZM20 22.4985C19.5055 22.4985 19.0222 22.3519 18.6111 22.0772C18.2 21.8025 17.8795 21.412 17.6903 20.9552C17.5011 20.4984 17.4516 19.9957 17.548 19.5108C17.6445 19.0258 17.8826 18.5803 18.2322 18.2307C18.5819 17.8811 19.0273 17.643 19.5123 17.5465C19.9972 17.4501 20.4999 17.4996 20.9567 17.6888C21.4135 17.878 21.804 18.1984 22.0787 18.6096C22.3534 19.0207 22.5 19.504 22.5 19.9985C22.5 20.6615 22.2366 21.2974 21.7678 21.7663C21.2989 22.2351 20.663 22.4985 20 22.4985ZM8.75 14.9985V22.4985C8.75 22.83 8.6183 23.1479 8.38388 23.3824C8.14946 23.6168 7.83152 23.7485 7.5 23.7485C7.16848 23.7485 6.85054 23.6168 6.61612 23.3824C6.3817 23.1479 6.25 22.83 6.25 22.4985V14.9985C6.25 14.667 6.3817 14.349 6.61612 14.1146C6.85054 13.8802 7.16848 13.7485 7.5 13.7485C7.83152 13.7485 8.14946 13.8802 8.38388 14.1146C8.6183 14.349 8.75 14.667 8.75 14.9985ZM31.25 24.9985V17.4985C31.25 17.167 31.3817 16.849 31.6161 16.6146C31.8505 16.3802 32.1685 16.2485 32.5 16.2485C32.8315 16.2485 33.1495 16.3802 33.3839 16.6146C33.6183 16.849 33.75 17.167 33.75 17.4985V24.9985C33.75 25.33 33.6183 25.6479 33.3839 25.8824C33.1495 26.1168 32.8315 26.2485 32.5 26.2485C32.1685 26.2485 31.8505 26.1168 31.6161 25.8824C31.3817 25.6479 31.25 25.33 31.25 24.9985Z" fill="#FAFAFA"/>
</svg>
