<svg width="70" height="70" viewBox="0 0 70 70" fill="none" xmlns="http://www.w3.org/2000/svg">
<path d="M32.0607 43.1811C34.9925 41.2292 37.2183 38.3857 38.4091 35.0711C39.5998 31.7564 39.6922 28.1465 38.6727 24.7752C37.6531 21.4039 35.5757 18.4502 32.7476 16.3509C29.9195 14.2516 26.4909 13.1182 22.9689 13.1182C19.4468 13.1182 16.0182 14.2516 13.1901 16.3509C10.362 18.4502 8.2846 21.4039 7.26504 24.7752C6.24548 28.1465 6.3379 31.7564 7.52865 35.0711C8.7194 38.3857 10.9453 41.2292 13.8771 43.1811C8.57372 45.1357 4.04453 48.7527 0.96534 53.4924C0.803508 53.7329 0.691099 54.0032 0.634648 54.2876C0.578196 54.5719 0.578828 54.8646 0.636507 55.1488C0.694186 55.4329 0.80776 55.7027 0.970629 55.9425C1.1335 56.1823 1.34241 56.3874 1.58523 56.5457C1.82805 56.7041 2.09992 56.8127 2.38505 56.865C2.67018 56.9174 2.96288 56.9126 3.24613 56.8509C3.52938 56.7891 3.79753 56.6717 4.035 56.5054C4.27247 56.3391 4.47452 56.1273 4.6294 55.8822C6.61562 52.8274 9.3335 50.317 12.5362 48.5792C15.7389 46.8414 19.325 45.9312 22.9689 45.9312C26.6127 45.9312 30.1988 46.8414 33.4015 48.5792C36.6042 50.317 39.3221 52.8274 41.3083 55.8822C41.6292 56.3591 42.1248 56.6905 42.688 56.8049C43.2513 56.9192 43.8369 56.8073 44.3183 56.4933C44.7997 56.1793 45.1382 55.6885 45.2606 55.127C45.383 54.5654 45.2794 53.9782 44.9724 53.4924C41.8932 48.7527 37.364 45.1357 32.0607 43.1811ZM10.9376 29.5311C10.9376 27.1515 11.6432 24.8254 12.9652 22.8469C14.2872 20.8683 16.1663 19.3263 18.3647 18.4156C20.5631 17.505 22.9822 17.2668 25.316 17.731C27.6499 18.1952 29.7936 19.3411 31.4762 21.0237C33.1588 22.7063 34.3047 24.8501 34.7689 27.1839C35.2332 29.5177 34.9949 31.9368 34.0843 34.1352C33.1737 36.3337 31.6316 38.2127 29.6531 39.5347C27.6745 40.8567 25.3484 41.5623 22.9689 41.5623C19.7791 41.5587 16.721 40.29 14.4655 38.0345C12.21 35.7789 10.9412 32.7208 10.9376 29.5311ZM68.3978 56.5193C67.9119 56.8362 67.32 56.9471 66.7524 56.8276C66.1847 56.7081 65.6878 56.3681 65.3708 55.8822C63.387 52.8255 60.6694 50.3141 57.4661 48.577C54.2627 46.8399 50.6754 45.9324 47.0314 45.9373C46.4512 45.9373 45.8948 45.7069 45.4846 45.2966C45.0743 44.8864 44.8439 44.33 44.8439 43.7498C44.8439 43.1697 45.0743 42.6133 45.4846 42.203C45.8948 41.7928 46.4512 41.5623 47.0314 41.5623C48.8031 41.5606 50.5527 41.1677 52.155 40.4115C53.7573 39.6552 55.1728 38.5545 56.3004 37.1878C57.428 35.8211 58.2398 34.2222 58.6778 32.5055C59.1158 30.7887 59.1693 28.9963 58.8343 27.2565C58.4993 25.5166 57.7842 23.8723 56.7401 22.4408C55.6959 21.0094 54.3485 19.8262 52.7941 18.9759C51.2397 18.1256 49.5166 17.6291 47.7481 17.5219C45.9795 17.4147 44.2091 17.6994 42.5634 18.3557C42.2951 18.4717 42.0062 18.5327 41.7139 18.5352C41.4215 18.5377 41.1317 18.4815 40.8614 18.3701C40.5912 18.2586 40.346 18.0941 40.1404 17.8863C39.9348 17.6785 39.7729 17.4316 39.6643 17.1602C39.5558 16.8888 39.5027 16.5983 39.5083 16.306C39.5139 16.0138 39.578 15.7256 39.6968 15.4585C39.8156 15.1914 39.9868 14.9508 40.2002 14.751C40.4136 14.5512 40.6649 14.3962 40.9392 14.2951C44.7057 12.793 48.895 12.739 52.699 14.1434C56.503 15.5478 59.6521 18.3113 61.5389 21.9006C63.4256 25.4899 63.9162 29.6507 62.9162 33.5805C61.9161 37.5102 59.4961 40.9303 56.1232 43.1811C61.4265 45.1357 65.9557 48.7527 69.0349 53.4924C69.3517 53.9783 69.4626 54.5702 69.3431 55.1378C69.2236 55.7055 68.8836 56.2024 68.3978 56.5193Z" fill="#041E42"/>
</svg>
