<svg width="21" height="21" viewBox="0 0 21 21" fill="none" xmlns="http://www.w3.org/2000/svg">
<path d="M19.0206 9.35116L5.23932 1.48518C5.00686 1.35432 4.74005 1.2974 4.47443 1.322C4.2088 1.3466 3.95698 1.45156 3.75251 1.62288C3.54804 1.79421 3.40063 2.02378 3.32992 2.28099C3.25921 2.53821 3.26855 2.81087 3.3567 3.06264L5.86932 10.4996L3.3567 17.9374C3.28678 18.1353 3.26534 18.3471 3.2942 18.555C3.32305 18.7629 3.40135 18.9609 3.52253 19.1323C3.6437 19.3037 3.80422 19.4435 3.99061 19.5401C4.177 19.6366 4.38383 19.687 4.59374 19.6871C4.82178 19.6866 5.04585 19.6273 5.24424 19.5148L19.0189 11.6357C19.2221 11.5219 19.3913 11.3561 19.5093 11.1553C19.6272 10.9545 19.6896 10.7259 19.69 10.493C19.6904 10.2601 19.6289 10.0313 19.5116 9.83009C19.3944 9.62885 19.2258 9.46242 19.023 9.34788L19.0206 9.35116ZM4.59374 18.3746C4.59409 18.3713 4.59409 18.368 4.59374 18.3648L7.03335 11.1558H11.8125C11.9865 11.1558 12.1535 11.0867 12.2765 10.9636C12.3996 10.8406 12.4687 10.6736 12.4687 10.4996C12.4687 10.3255 12.3996 10.1586 12.2765 10.0356C12.1535 9.91249 11.9865 9.84335 11.8125 9.84335H7.03335L4.59866 2.63772C4.59785 2.63308 4.59618 2.62863 4.59374 2.6246L18.375 10.4857L4.59374 18.3746Z" fill="#FAFAFA"/>
</svg>
