<svg width="28" height="28" viewBox="0 0 28 28" fill="none" xmlns="http://www.w3.org/2000/svg">
<path d="M25.1305 7.73554L20.2587 2.86491C19.8499 2.45617 19.2954 2.22656 18.7173 2.22656C18.1392 2.22656 17.5847 2.45617 17.1759 2.86491L3.73257 16.3071C3.52942 16.509 3.36835 16.7492 3.2587 17.0138C3.14905 17.2784 3.09298 17.5621 3.09376 17.8486V22.7203C3.09376 23.2985 3.32346 23.8531 3.73233 24.2619C4.14121 24.6708 4.69576 24.9005 5.27399 24.9005H23.5879C23.9349 24.9005 24.2676 24.7627 24.5129 24.5174C24.7583 24.272 24.8961 23.9393 24.8961 23.5924C24.8961 23.2454 24.7583 22.9127 24.5129 22.6674C24.2676 22.4221 23.9349 22.2842 23.5879 22.2842H13.6679L25.1305 10.8195C25.333 10.617 25.4937 10.3766 25.6033 10.1121C25.7129 9.84748 25.7693 9.5639 25.7693 9.27751C25.7693 8.99113 25.7129 8.70755 25.6033 8.44297C25.4937 8.1784 25.333 7.93801 25.1305 7.73554ZM9.96149 22.2842H5.71004V18.0328L14.867 8.87581L19.1185 13.1273L9.96149 22.2842ZM20.9717 11.2741L16.7202 7.02261L18.7195 5.02334L22.9709 9.27479L20.9717 11.2741Z" fill="#FAFAFA"/>
</svg>
