<svg width="21" height="21" viewBox="0 0 21 21" fill="none" xmlns="http://www.w3.org/2000/svg">
<g clip-path="url(#clip0_914_26320)">
<path d="M10.2658 19.2663C9.96818 19.2663 9.68275 19.1501 9.47231 18.9435C9.26186 18.7368 9.14363 18.4564 9.14363 18.1641L9.14363 11.184L2.03657 11.184C1.73896 11.184 1.45353 11.0679 1.24308 10.8612C1.03264 10.6545 0.914407 10.3742 0.914407 10.0819C0.914407 9.78956 1.03264 9.50923 1.24308 9.30254C1.45353 9.09585 1.73896 8.97973 2.03657 8.97973L9.14363 8.97973L9.14363 1.99959C9.14363 1.70729 9.26186 1.42696 9.47231 1.22027C9.68275 1.01358 9.96818 0.897461 10.2658 0.897461C10.5634 0.897461 10.8488 1.01358 11.0593 1.22027C11.2697 1.42696 11.388 1.70729 11.388 1.99959L11.388 8.97973L18.495 8.97973C18.7926 8.97973 19.0781 9.09585 19.2885 9.30254C19.499 9.50923 19.6172 9.78956 19.6172 10.0819C19.6172 10.3742 19.499 10.6545 19.2885 10.8612C19.0781 11.0679 18.7926 11.184 18.495 11.184L11.388 11.184L11.388 18.1641C11.388 18.4564 11.2697 18.7368 11.0593 18.9435C10.8488 19.1501 10.5634 19.2663 10.2658 19.2663Z" fill="#041E42"/>
</g>
<defs>
<clipPath id="clip0_914_26320">
<rect width="20.625" height="21" fill="white" transform="translate(21) rotate(90)"/>
</clipPath>
</defs>
</svg>
