<svg width="52" height="52" viewBox="0 0 52 52" fill="none" xmlns="http://www.w3.org/2000/svg">
<g clip-path="url(#clip0_1352_12514)">
<path d="M46.8136 27.269C47.2731 26.5877 47.5416 25.7675 47.5416 24.8857V24.0711C47.5416 21.7146 45.6243 19.7973 43.2678 19.7973C42.092 19.7973 41.0256 20.2747 40.2521 21.0458C38.2507 15.0935 32.6181 10.7939 26 10.7939C19.3819 10.7939 13.7493 15.0934 11.7479 21.0458C10.9744 20.2747 9.90813 19.7973 8.73224 19.7973C6.37569 19.7973 4.45839 21.7146 4.45839 24.0711V24.8857C4.45839 25.7675 4.72692 26.5877 5.18639 27.269C2.22798 27.8924 0 30.5224 0 33.6635V35.7083C0 36.2692 0.454797 36.724 1.01562 36.724H6.29688C6.8577 36.724 7.3125 36.2692 7.3125 35.7083C7.3125 35.1475 6.8577 34.6927 6.29688 34.6927H2.03125V33.6635C2.03125 31.18 4.05173 29.1595 6.53524 29.1595H11.3421C11.7319 30.874 12.4151 32.4783 13.3369 33.9158L1.7487 45.5039C0.264875 46.9879 0.264875 49.4025 1.7488 50.8866C2.49082 51.6286 3.46531 51.9995 4.44001 51.9995C5.4147 51.9995 6.3894 51.6285 7.13141 50.8866L13.52 44.4979C13.9166 44.1013 13.9166 43.4582 13.52 43.0615C13.1233 42.665 12.4804 42.665 12.0836 43.0615L5.69512 49.4502C5.00297 50.1422 3.87705 50.1421 3.185 49.4503C2.49305 48.7582 2.49305 47.6322 3.185 46.9401L14.5607 35.5645C17.3199 38.8005 21.4241 40.8564 26 40.8564C33.1427 40.8564 39.1371 35.8484 40.6579 29.1595H45.4648C47.9483 29.1595 49.9688 31.18 49.9688 33.6635V34.6927H40.4219C39.861 34.6927 39.4062 35.1475 39.4062 35.7083C39.4062 36.2692 39.861 36.724 40.4219 36.724H50.9844C51.5452 36.724 52 36.2692 52 35.7083V33.6635C52 30.5224 49.772 27.8924 46.8136 27.269ZM10.9748 24.8858C10.9748 26.1224 9.96887 27.1283 8.73224 27.1283C7.49562 27.1283 6.48964 26.1224 6.48964 24.8858V24.0712C6.48964 22.8346 7.49562 21.8286 8.73224 21.8286C9.96887 21.8286 10.9748 22.8346 10.9748 24.0712V24.8858ZM26 38.8252C18.8318 38.8252 13 32.9934 13 25.8252C13 18.657 18.8318 12.8252 26 12.8252C33.1682 12.8252 39 18.657 39 25.8252C39 32.9934 33.1682 38.8252 26 38.8252ZM45.5103 24.8858C45.5103 26.1224 44.5043 27.1283 43.2677 27.1283C42.031 27.1283 41.0251 26.1224 41.0251 24.8858V24.0712C41.0251 22.8346 42.031 21.8286 43.2677 21.8286C44.5043 21.8286 45.5103 22.8346 45.5103 24.0712V24.8858Z" fill="#FAFAFA"/>
<path d="M26 14.8564C19.9518 14.8564 15.0312 19.7769 15.0312 25.8252C15.0312 28.9645 16.3573 31.7996 18.4781 33.8009C18.5143 33.8401 18.5532 33.8771 18.5959 33.9106C20.5485 35.7002 23.1488 36.7939 26 36.7939C28.8512 36.7939 31.4515 35.7001 33.4041 33.9106C33.4468 33.8772 33.4857 33.8401 33.5219 33.8009C35.6428 31.7996 36.9688 28.9645 36.9688 25.8252C36.9688 19.777 32.0483 14.8564 26 14.8564ZM26 34.7627C23.9116 34.7627 21.9884 34.0425 20.4651 32.8377C21.5443 30.7959 23.6472 29.5112 26 29.5112C28.3528 29.5112 30.4558 30.7959 31.5349 32.8377C30.0116 34.0425 28.0884 34.7627 26 34.7627ZM23.8598 25.3397V24.5507C23.8598 23.3705 24.8198 22.4105 26 22.4105C27.1802 22.4105 28.1402 23.3705 28.1402 24.5507V25.3397C28.1402 26.5199 27.1802 27.48 26 27.48C24.8198 27.48 23.8598 26.5199 23.8598 25.3397ZM33.0205 31.3501C32.0901 29.8656 30.7282 28.7334 29.1343 28.0879C29.7791 27.3533 30.1715 26.3918 30.1715 25.3398V24.5508C30.1715 22.2507 28.3001 20.3793 26 20.3793C23.6999 20.3793 21.8285 22.2507 21.8285 24.5508V25.3398C21.8285 26.3918 22.2208 27.3533 22.8657 28.0879C21.2718 28.7335 19.91 29.8656 18.9795 31.3501C17.7794 29.8285 17.0625 27.9091 17.0625 25.8252C17.0625 20.8971 21.0719 16.8877 26 16.8877C30.9281 16.8877 34.9375 20.8971 34.9375 25.8252C34.9375 27.9091 34.2206 29.8285 33.0205 31.3501Z" fill="#FAFAFA"/>
<path d="M16.2337 40.3445C16.0448 40.1555 15.7827 40.0469 15.5156 40.0469C15.2485 40.0469 14.9865 40.1555 14.7976 40.3445C14.6088 40.5334 14.5 40.7954 14.5 41.0625C14.5 41.3296 14.6087 41.5916 14.7976 41.7805C14.9865 41.9694 15.2485 42.0781 15.5156 42.0781C15.7827 42.0781 16.0448 41.9695 16.2337 41.7805C16.4225 41.5916 16.5312 41.3296 16.5312 41.0625C16.5312 40.7954 16.4226 40.5334 16.2337 40.3445Z" fill="#FAFAFA"/>
<path d="M26.0234 0.000976562C25.4626 0.000976562 25.0078 0.455773 25.0078 1.0166V4.47216C25.0078 5.03309 25.4626 5.48779 26.0234 5.48779C26.5843 5.48779 27.0391 5.03299 27.0391 4.47216V1.0166C27.0391 0.455773 26.5843 0.000976562 26.0234 0.000976562Z" fill="#FAFAFA"/>
<path d="M26.7414 7.10324C26.5526 6.91434 26.2915 6.80566 26.0234 6.80566C25.7562 6.80566 25.4943 6.91423 25.3054 7.10324C25.1165 7.29225 25.0078 7.55418 25.0078 7.82129C25.0078 8.0884 25.1164 8.35043 25.3054 8.53923C25.4943 8.72814 25.7562 8.83691 26.0234 8.83691C26.2916 8.83691 26.5526 8.72824 26.7414 8.53923C26.9303 8.35043 27.0391 8.0884 27.0391 7.82129C27.0391 7.55418 26.9304 7.29215 26.7414 7.10324Z" fill="#FAFAFA"/>
<path d="M34.6283 3.98487C34.2316 3.58837 33.5887 3.58837 33.1919 3.98487L31.4068 5.76994C31.0102 6.16654 31.0102 6.80963 31.4068 7.20634C31.6053 7.40459 31.8651 7.50381 32.1251 7.50381C32.3851 7.50381 32.6449 7.40459 32.8432 7.20634L34.6283 5.42127C35.0249 5.02467 35.0249 4.38158 34.6283 3.98487Z" fill="#FAFAFA"/>
<path d="M20.6064 5.78222L18.8042 3.97999C18.4075 3.58349 17.7646 3.58349 17.3678 3.97999C16.9712 4.37659 16.9712 5.01969 17.3678 5.41639L19.1701 7.21862C19.3684 7.41687 19.6283 7.51609 19.8882 7.51609C20.1481 7.51609 20.408 7.41687 20.6064 7.21862C21.003 6.82202 21.003 6.17892 20.6064 5.78222Z" fill="#FAFAFA"/>
</g>
<defs>
<clipPath id="clip0_1352_12514">
<rect width="52" height="52" fill="white"/>
</clipPath>
</defs>
</svg>
