<svg width="48" height="48" viewBox="0 0 48 48" fill="none" xmlns="http://www.w3.org/2000/svg">
<path d="M41.4495 31.708C42.3556 31.0966 43.0415 30.2105 43.4063 29.1801C43.7711 28.1497 43.7955 27.0294 43.4758 25.9842C43.1562 24.9389 42.5094 24.0238 41.6308 23.3736C40.7521 22.7235 39.6879 22.3726 38.5948 22.3726C37.5017 22.3726 36.4375 22.7235 35.5588 23.3736C34.6801 24.0238 34.0334 24.9389 33.7137 25.9842C33.3941 27.0294 33.4185 28.1497 33.7833 29.1801C34.148 30.2105 34.834 31.0966 35.7401 31.708C35.3155 31.8929 34.908 32.115 34.5224 32.3715C34.2125 31.7855 33.7486 31.295 33.1807 30.9529C32.6128 30.6108 31.9624 30.4301 31.2995 30.4301C30.6365 30.4301 29.9861 30.6108 29.4182 30.9529C28.8503 31.295 28.3865 31.7855 28.0766 32.3715C27.6909 32.115 27.2835 31.8929 26.8589 31.708C27.7658 31.0972 28.4527 30.2113 28.8183 29.1808C29.1838 28.1503 29.2088 27.0296 28.8895 25.9838C28.5702 24.938 27.9235 24.0224 27.0447 23.3718C26.1658 22.7213 25.1013 22.3701 24.0078 22.3701C22.9144 22.3701 21.8498 22.7213 20.971 23.3718C20.0921 24.0224 19.4454 24.938 19.1261 25.9838C18.8068 27.0296 18.8318 28.1503 19.1974 29.1808C19.563 30.2113 20.2498 31.0972 21.1568 31.708C20.7322 31.8929 20.3247 32.115 19.9391 32.3715C19.6291 31.7855 19.1653 31.295 18.5974 30.9529C18.0295 30.6108 17.3791 30.4301 16.7161 30.4301C16.0532 30.4301 15.4028 30.6108 14.8349 30.9529C14.267 31.295 13.8032 31.7855 13.4932 32.3715C13.1076 32.115 12.7001 31.8929 12.2755 31.708C13.1816 31.0966 13.8676 30.2105 14.2324 29.1801C14.5972 28.1497 14.6215 27.0294 14.3019 25.9842C13.9822 24.9389 13.3355 24.0238 12.4568 23.3736C11.5781 22.7235 10.5139 22.3726 9.42083 22.3726C8.32776 22.3726 7.26356 22.7235 6.38487 23.3736C5.50618 24.0238 4.85942 24.9389 4.53978 25.9842C4.22014 27.0294 4.2445 28.1497 4.60929 29.1801C4.97408 30.2105 5.66002 31.0966 6.56615 31.708C5.25092 32.2684 4.12945 33.2031 3.34122 34.3958C2.55298 35.5885 2.13276 36.9867 2.13281 38.4163V44.9788C2.13281 45.1722 2.20964 45.3577 2.34638 45.4944C2.48313 45.6311 2.66859 45.708 2.86198 45.708H45.1536C45.347 45.708 45.5325 45.6311 45.6692 45.4944C45.806 45.3577 45.8828 45.1722 45.8828 44.9788V38.4163C45.8782 36.9877 45.4561 35.5916 44.6684 34.3998C43.8807 33.2079 42.7619 32.2723 41.4495 31.708ZM34.9453 27.4788C34.9453 26.7577 35.1591 26.0528 35.5597 25.4533C35.9604 24.8537 36.5298 24.3864 37.1959 24.1105C37.8621 23.8345 38.5952 23.7623 39.3024 23.903C40.0096 24.0437 40.6593 24.3909 41.1691 24.9008C41.679 25.4107 42.0263 26.0603 42.1669 26.7675C42.3076 27.4748 42.2354 28.2078 41.9595 28.874C41.6835 29.5402 41.2162 30.1096 40.6167 30.5102C40.0171 30.9108 39.3122 31.1246 38.5911 31.1246C37.6242 31.1246 36.6969 30.7405 36.0132 30.0568C35.3294 29.3731 34.9453 28.4457 34.9453 27.4788ZM31.2995 31.8538C31.7321 31.8538 32.1551 31.9821 32.5148 32.2225C32.8745 32.4628 33.1549 32.8045 33.3205 33.2042C33.486 33.6039 33.5294 34.0437 33.4449 34.4681C33.3605 34.8924 33.1522 35.2822 32.8463 35.5881C32.5403 35.894 32.1506 36.1024 31.7262 36.1868C31.3019 36.2712 30.8621 36.2279 30.4624 36.0623C30.0626 35.8967 29.721 35.6163 29.4806 35.2566C29.2403 34.8969 29.112 34.4739 29.112 34.0413C29.112 33.4611 29.3424 32.9047 29.7527 32.4945C30.1629 32.0843 30.7193 31.8538 31.2995 31.8538ZM34.9453 44.2496H27.6536V41.333C27.6535 40.4925 27.9437 39.6778 28.4752 39.0267C29.0067 38.3756 29.7468 37.9281 30.5703 37.76C31.0518 37.6653 31.5472 37.6653 32.0286 37.76C32.8521 37.9281 33.5923 38.3756 34.1238 39.0267C34.6553 39.6778 34.9455 40.4925 34.9453 41.333V44.2496ZM20.362 27.4788C20.362 26.7577 20.5758 26.0528 20.9764 25.4533C21.377 24.8537 21.9464 24.3864 22.6126 24.1105C23.2788 23.8345 24.0119 23.7623 24.7191 23.903C25.4263 24.0437 26.0759 24.3909 26.5858 24.9008C27.0957 25.4107 27.4429 26.0603 27.5836 26.7675C27.7243 27.4748 27.6521 28.2078 27.3761 28.874C27.1002 29.5402 26.6329 30.1096 26.0333 30.5102C25.4338 30.9108 24.7289 31.1246 24.0078 31.1246C23.0409 31.1246 22.1135 30.7405 21.4298 30.0568C20.7461 29.3731 20.362 28.4457 20.362 27.4788ZM24.0078 32.583C25.3363 32.5828 26.6241 33.0413 27.6536 33.8809V34.0413C27.657 34.572 27.7762 35.0955 28.0029 35.5754C28.2296 36.0552 28.5584 36.4798 28.9661 36.8194C28.1356 37.2463 27.4381 37.8929 26.9495 38.6887C26.461 39.4845 26.2001 40.3991 26.1953 41.333V44.2496H21.8203V41.333C21.8286 40.6658 21.7039 40.0037 21.4535 39.3852C21.2031 38.7668 20.8321 38.2044 20.362 37.7309C19.9938 37.3566 19.5679 37.044 19.1005 36.8048C19.4971 36.462 19.8151 36.0376 20.0328 35.5607C20.2505 35.0838 20.3628 34.5655 20.362 34.0413C20.362 33.9903 20.362 33.9392 20.362 33.8809C21.3915 33.0413 22.6793 32.5828 24.0078 32.583ZM17.4453 37.76C18.2688 37.9281 19.0089 38.3756 19.5404 39.0267C20.0719 39.6778 20.3622 40.4925 20.362 41.333V44.2496H13.0703V41.333C13.0701 40.4925 13.3604 39.6778 13.8919 39.0267C14.4234 38.3756 15.1635 37.9281 15.987 37.76C16.4685 37.6653 16.9638 37.6653 17.4453 37.76ZM16.7161 31.8538C17.1488 31.8538 17.5717 31.9821 17.9315 32.2225C18.2912 32.4628 18.5716 32.8045 18.7371 33.2042C18.9027 33.6039 18.946 34.0437 18.8616 34.4681C18.7772 34.8924 18.5689 35.2822 18.2629 35.5881C17.957 35.894 17.5672 36.1024 17.1429 36.1868C16.7186 36.2712 16.2787 36.2279 15.879 36.0623C15.4793 35.8967 15.1377 35.6163 14.8973 35.2566C14.6569 34.8969 14.5286 34.4739 14.5286 34.0413C14.5286 33.4611 14.7591 32.9047 15.1693 32.4945C15.5796 32.0843 16.136 31.8538 16.7161 31.8538ZM5.77865 27.4788C5.77865 26.7577 5.99247 26.0528 6.39308 25.4533C6.79369 24.8537 7.36309 24.3864 8.02928 24.1105C8.69547 23.8345 9.42852 23.7623 10.1357 23.903C10.843 24.0437 11.4926 24.3909 12.0025 24.9008C12.5124 25.4107 12.8596 26.0603 13.0003 26.7675C13.1409 27.4748 13.0687 28.2078 12.7928 28.874C12.5168 29.5402 12.0496 30.1096 11.45 30.5102C10.8504 30.9108 10.1456 31.1246 9.42448 31.1246C8.45754 31.1246 7.53021 30.7405 6.84649 30.0568C6.16276 29.3731 5.77865 28.4457 5.77865 27.4788ZM3.59115 38.4163C3.59115 36.8692 4.20573 35.3855 5.29969 34.2915C6.39365 33.1975 7.87738 32.583 9.42448 32.583C10.753 32.5828 12.0408 33.0413 13.0703 33.8809V34.0413C13.0737 34.572 13.1929 35.0955 13.4196 35.5754C13.6463 36.0552 13.975 36.4798 14.3828 36.8194C13.5523 37.2463 12.8547 37.8929 12.3662 38.6887C11.8776 39.4845 11.6168 40.3991 11.612 41.333V44.2496H3.59115V38.4163ZM44.4245 44.2496H36.4036V41.333C36.4119 40.6658 36.2873 40.0037 36.0369 39.3852C35.7865 38.7668 35.4154 38.2044 34.9453 37.7309C34.5772 37.3566 34.1512 37.044 33.6839 36.8048C34.0804 36.462 34.3984 36.0376 34.6161 35.5607C34.8338 35.0838 34.9461 34.5655 34.9453 34.0413C34.9453 33.9903 34.9453 33.9392 34.9453 33.8809C35.802 33.195 36.8348 32.7646 37.9251 32.6393C39.0154 32.514 40.1189 32.6988 41.1089 33.1725C42.0988 33.6461 42.9351 34.3895 43.5216 35.317C44.1081 36.2446 44.4211 37.3189 44.4245 38.4163V44.2496Z" fill="#FAFAFA"/>
<path d="M45.5478 2.07449C45.4457 2.00904 45.3288 1.9701 45.2079 1.96118C45.0869 1.95227 44.9657 1.97367 44.8551 2.02344L34.2165 6.85782V2.68699C34.2165 2.4936 34.1397 2.30813 34.003 2.17139C33.8662 2.03464 33.6807 1.95782 33.4874 1.95782H14.529C14.3356 1.95782 14.1502 2.03464 14.0134 2.17139C13.8767 2.30813 13.7999 2.4936 13.7999 2.68699V6.85782L3.16132 2.02344C3.04604 1.96703 2.91791 1.94204 2.78988 1.951C2.66184 1.95996 2.53845 2.00256 2.43215 2.07449C2.3362 2.14451 2.25881 2.23691 2.2067 2.34366C2.1546 2.4504 2.12936 2.56826 2.13319 2.68699V24.562H3.59152V3.81719L13.7999 8.45469V23.1036H15.2582V3.41615H32.7582V23.1036H34.2165V8.45469L44.4249 3.81719V24.562H45.8832V2.68699C45.883 2.56498 45.8522 2.44498 45.7936 2.33797C45.735 2.23096 45.6505 2.14037 45.5478 2.07449Z" fill="#FAFAFA"/>
<path d="M16.7109 4.875H19.6276V6.33333H16.7109V4.875Z" fill="#FAFAFA"/>
<path d="M22.5469 4.875H25.4635V6.33333H22.5469V4.875Z" fill="#FAFAFA"/>
<path d="M28.3828 4.875H31.2995V6.33333H28.3828V4.875Z" fill="#FAFAFA"/>
<path d="M16.7109 7.79199H19.6276V9.25033H16.7109V7.79199Z" fill="#FAFAFA"/>
<path d="M22.5469 7.79199H25.4635V9.25033H22.5469V7.79199Z" fill="#FAFAFA"/>
<path d="M28.3828 7.79199H31.2995V9.25033H28.3828V7.79199Z" fill="#FAFAFA"/>
<path d="M16.7109 10.708H19.6276V12.1663H16.7109V10.708Z" fill="#FAFAFA"/>
<path d="M22.5469 10.708H25.4635V12.1663H22.5469V10.708Z" fill="#FAFAFA"/>
<path d="M28.3828 10.708H31.2995V12.1663H28.3828V10.708Z" fill="#FAFAFA"/>
<path d="M16.7109 13.625H19.6276V15.0833H16.7109V13.625Z" fill="#FAFAFA"/>
<path d="M22.5469 13.625H25.4635V15.0833H22.5469V13.625Z" fill="#FAFAFA"/>
<path d="M28.3828 13.625H31.2995V15.0833H28.3828V13.625Z" fill="#FAFAFA"/>
<path d="M16.7109 16.542H19.6276V18.0003H16.7109V16.542Z" fill="#FAFAFA"/>
<path d="M22.5469 16.542H25.4635V18.0003H22.5469V16.542Z" fill="#FAFAFA"/>
<path d="M28.3828 16.542H31.2995V18.0003H28.3828V16.542Z" fill="#FAFAFA"/>
<path d="M16.7109 19.458H19.6276V20.9163H16.7109V19.458Z" fill="#FAFAFA"/>
<path d="M22.5469 19.458H25.4635V20.9163H22.5469V19.458Z" fill="#FAFAFA"/>
<path d="M28.3828 19.458H31.2995V20.9163H28.3828V19.458Z" fill="#FAFAFA"/>
<path d="M5.04688 7.79199H6.50521V9.25033H5.04688V7.79199Z" fill="#FAFAFA"/>
<path d="M7.96094 7.79199H9.41927V9.25033H7.96094V7.79199Z" fill="#FAFAFA"/>
<path d="M5.04688 10.708H6.50521V12.1663H5.04688V10.708Z" fill="#FAFAFA"/>
<path d="M7.96094 10.708H9.41927V12.1663H7.96094V10.708Z" fill="#FAFAFA"/>
<path d="M10.8828 10.708H12.3411V12.1663H10.8828V10.708Z" fill="#FAFAFA"/>
<path d="M5.04688 13.625H6.50521V15.0833H5.04688V13.625Z" fill="#FAFAFA"/>
<path d="M7.96094 13.625H9.41927V15.0833H7.96094V13.625Z" fill="#FAFAFA"/>
<path d="M10.8828 13.625H12.3411V15.0833H10.8828V13.625Z" fill="#FAFAFA"/>
<path d="M5.04688 16.542H6.50521V18.0003H5.04688V16.542Z" fill="#FAFAFA"/>
<path d="M7.96094 16.542H9.41927V18.0003H7.96094V16.542Z" fill="#FAFAFA"/>
<path d="M10.8828 16.542H12.3411V18.0003H10.8828V16.542Z" fill="#FAFAFA"/>
<path d="M5.04688 19.458H6.50521V20.9163H5.04688V19.458Z" fill="#FAFAFA"/>
<path d="M7.96094 19.458H9.41927V20.9163H7.96094V19.458Z" fill="#FAFAFA"/>
<path d="M10.8828 19.458H12.3411V20.9163H10.8828V19.458Z" fill="#FAFAFA"/>
<path d="M41.5078 7.79199H42.9661V9.25033H41.5078V7.79199Z" fill="#FAFAFA"/>
<path d="M38.5859 7.79199H40.0443V9.25033H38.5859V7.79199Z" fill="#FAFAFA"/>
<path d="M41.5078 10.708H42.9661V12.1663H41.5078V10.708Z" fill="#FAFAFA"/>
<path d="M38.5859 10.708H40.0443V12.1663H38.5859V10.708Z" fill="#FAFAFA"/>
<path d="M35.6719 10.708H37.1302V12.1663H35.6719V10.708Z" fill="#FAFAFA"/>
<path d="M41.5078 13.625H42.9661V15.0833H41.5078V13.625Z" fill="#FAFAFA"/>
<path d="M38.5859 13.625H40.0443V15.0833H38.5859V13.625Z" fill="#FAFAFA"/>
<path d="M35.6719 13.625H37.1302V15.0833H35.6719V13.625Z" fill="#FAFAFA"/>
<path d="M41.5078 16.542H42.9661V18.0003H41.5078V16.542Z" fill="#FAFAFA"/>
<path d="M38.5859 16.542H40.0443V18.0003H38.5859V16.542Z" fill="#FAFAFA"/>
<path d="M35.6719 16.542H37.1302V18.0003H35.6719V16.542Z" fill="#FAFAFA"/>
<path d="M41.5078 19.458H42.9661V20.9163H41.5078V19.458Z" fill="#FAFAFA"/>
<path d="M38.5859 19.458H40.0443V20.9163H38.5859V19.458Z" fill="#FAFAFA"/>
<path d="M35.6719 19.458H37.1302V20.9163H35.6719V19.458Z" fill="#FAFAFA"/>
</svg>
