<svg width="24" height="24" viewBox="0 0 24 24" fill="none" xmlns="http://www.w3.org/2000/svg">
<g opacity="0.4">
<path d="M18.0477 2.62087C18.0477 1.92325 19.1076 1.92325 19.1076 2.62087V21.3796C19.1076 22.0772 18.0477 22.0772 18.0477 21.3796V2.62087ZM16.0756 2.62087C16.0756 1.92325 17.1355 1.92325 17.1355 2.62087V21.3796C17.1355 22.0772 16.0756 22.0772 16.0756 21.3796V2.62087ZM5.95441 21.3796C5.95441 22.0772 4.89453 22.0772 4.89453 21.3796V2.62087C4.89453 1.92325 5.95441 1.92325 5.95441 2.62087V21.3796ZM11.5716 19.8531C11.5716 19.1555 12.6312 19.1555 12.6312 19.8531V21.3796C12.6312 22.0772 11.5716 22.0772 11.5716 21.3796V19.8531ZM11.5716 6.06725C11.5716 5.36964 12.6312 5.36964 12.6312 6.06725V7.59401C12.6312 8.29162 11.5716 8.29162 11.5716 7.59401V6.06725ZM11.5716 9.51393C11.5716 8.81603 12.6312 8.81603 12.6312 9.51393V11.0404C12.6312 11.738 11.5716 11.738 11.5716 11.0404V9.51393ZM11.5716 12.96C11.5716 12.2624 12.6312 12.2624 12.6312 12.96V14.4868C12.6312 15.1844 11.5716 15.1844 11.5716 14.4868V12.96ZM11.5716 16.4067C11.5716 15.7091 12.6312 15.7091 12.6312 16.4067V17.9332C12.6312 18.6308 11.5716 18.6308 11.5716 17.9332V16.4067ZM11.5716 2.62087C11.5716 1.92325 12.6312 1.92325 12.6312 2.62087V4.14762C12.6312 4.84523 11.5716 4.84523 11.5716 4.14762V2.62087ZM7.92649 21.3796C7.92649 22.0772 6.86661 22.0772 6.86661 21.3796V2.62087C6.86661 1.92325 7.92649 1.92325 7.92649 2.62087V21.3796Z" fill="#041E42" stroke="#041E42" stroke-width="0.2"/>
</g>
</svg>
