<svg width="38" height="38" viewBox="0 0 38 38" fill="none" xmlns="http://www.w3.org/2000/svg">
<path d="M33.3615 23.4983H32.6854V12.3777C32.6854 8.05243 29.1703 4.54301 24.8507 4.54301H24.616C23.7665 2.17919 21.4977 0.558594 18.9607 0.558594C16.418 0.558594 14.1492 2.17919 13.3054 4.54301H13.1489C8.8292 4.54301 5.31417 8.05243 5.31417 12.3777V23.4983H4.63802C3.25211 23.4983 2.12891 24.6215 2.12891 26.0018V31.5789C2.12891 32.9592 3.25211 34.0824 4.63802 34.0824H5.31417V34.3451C5.31417 36.0551 6.70567 37.4409 8.41008 37.4409H29.5895C31.2995 37.4409 32.6854 36.0551 32.6854 34.3451V34.0824H33.3615C34.7474 34.0824 35.8707 32.9592 35.8707 31.5789V26.0018C35.8707 24.6215 34.7474 23.4983 33.3615 23.4983ZM5.31417 32.9648H4.63802C3.87243 32.9648 3.24655 32.3445 3.24655 31.5789V26.0018C3.24655 25.2363 3.87244 24.6159 4.63802 24.6159H5.31417V32.9648ZM18.9607 1.67624C20.8886 1.67624 22.6265 2.82742 23.4145 4.54301H14.5068C15.2892 2.82742 17.0271 1.67624 18.9607 1.67624ZM31.5677 34.3451C31.5677 35.4403 30.6848 36.3233 29.5895 36.3233H8.41008C7.32037 36.3233 6.43182 35.4403 6.43182 34.3451V17.6027C6.99064 18.0945 7.7283 18.3851 8.52741 18.3851H10.5895V19.1786C10.5895 19.7877 11.0868 20.2795 11.696 20.2795H13.3501C13.9592 20.2795 14.4565 19.7877 14.4565 19.1786V18.3851H23.5486V19.1786C23.5486 19.7877 24.0459 20.2795 24.6551 20.2795H26.3036C26.9127 20.2795 27.4101 19.7877 27.4101 19.1786V18.3851H29.4833C30.2824 18.3851 31.0089 18.0945 31.5677 17.6083L31.5677 34.3451ZM11.7071 19.1786V16.1554L13.3389 16.1442L13.3501 19.1618L11.7071 19.1786ZM24.6662 19.1786V16.1554L26.2924 16.1442L26.3036 19.1619L24.6662 19.1786ZM31.5677 15.1774C31.5677 16.3286 30.6289 17.2674 29.4833 17.2674H27.4101V16.1442C27.4101 15.5295 26.9127 15.0377 26.3036 15.0377H24.6551C24.0459 15.0377 23.5486 15.5295 23.5486 16.1442V17.2674H14.4566V16.1442C14.4566 15.5295 13.9592 15.0377 13.3501 15.0377H11.696C11.0868 15.0377 10.5895 15.5295 10.5895 16.1442V17.2674H8.52741C7.37068 17.2674 6.43183 16.3286 6.43183 15.1774V12.3777C6.43183 8.67272 9.44389 5.66065 13.1489 5.66065H24.8507C28.5557 5.66065 31.5677 8.67272 31.5677 12.3777L31.5677 15.1774ZM34.753 31.5789C34.753 32.3445 34.1271 32.9648 33.3615 32.9648H32.6854V24.6159H33.3615C34.1271 24.6159 34.753 25.2363 34.753 26.0018V31.5789Z" fill="#041E42" stroke="#041E42" stroke-width="0.6"/>
<path d="M25.0973 24.252H12.9052C11.6828 24.252 10.6885 25.2463 10.6885 26.4687V32.3101C10.6885 33.6297 11.7625 34.7037 13.0826 34.7037H24.9199C26.24 34.7037 27.314 33.6297 27.314 32.3101V26.4687C27.314 25.2463 26.3197 24.252 25.0973 24.252ZM12.9052 25.3696H25.0973C25.7036 25.3696 26.1964 25.8624 26.1964 26.4687V26.86H11.8061V26.4687C11.8061 25.8624 12.2989 25.3696 12.9052 25.3696ZM24.9199 33.5861H13.0826C12.3786 33.5861 11.8061 33.0136 11.8061 32.3101V27.9776H12.98V29.1881C12.98 29.4969 13.2299 29.7469 13.5388 29.7469C13.8477 29.7469 14.0976 29.4969 14.0976 29.1881V27.9776H26.1964V32.3101C26.1964 33.0136 25.6239 33.5861 24.9199 33.5861Z" fill="#041E42" stroke="#041E42" stroke-width="0.6"/>
<path d="M29.8185 28.9199C29.5096 28.9199 29.2597 29.1699 29.2597 29.4787V31.8483C29.2597 32.5364 28.9049 33.1646 28.3106 33.5275C28.047 33.6885 27.9641 34.0328 28.1251 34.2959C28.2304 34.4683 28.4143 34.5633 28.6026 34.5633C28.7019 34.5633 28.8023 34.5371 28.8935 34.4814C29.8228 33.9133 30.3773 32.9288 30.3773 31.8483V29.4787C30.3773 29.1699 30.1273 28.9199 29.8185 28.9199Z" fill="#041E42" stroke="#041E42" stroke-width="0.6"/>
<path d="M29.8186 26.6914C29.5097 26.6914 29.2598 26.9414 29.2598 27.2502V27.5531C29.2598 27.862 29.5097 28.1119 29.8186 28.1119C30.1275 28.1119 30.3774 27.862 30.3774 27.5531V27.2502C30.3774 26.9413 30.1275 26.6914 29.8186 26.6914Z" fill="#041E42" stroke="#041E42" stroke-width="0.6"/>
</svg>
