<svg width="30" height="30" viewBox="0 0 30 30" fill="none" xmlns="http://www.w3.org/2000/svg">
<path d="M27.1875 7.03125V22.9688C27.1875 23.5904 26.9406 24.1865 26.501 24.626C26.0615 25.0656 25.4654 25.3125 24.8438 25.3125H20.1562C19.7833 25.3125 19.4256 25.1643 19.1619 24.9006C18.8982 24.6369 18.75 24.2792 18.75 23.9062C18.75 23.5333 18.8982 23.1756 19.1619 22.9119C19.4256 22.6482 19.7833 22.5 20.1562 22.5H24.375V7.5H5.625V7.96875C5.625 8.34171 5.47684 8.6994 5.21312 8.96312C4.9494 9.22684 4.59171 9.375 4.21875 9.375C3.84579 9.375 3.4881 9.22684 3.22438 8.96312C2.96066 8.6994 2.8125 8.34171 2.8125 7.96875V7.03125C2.8125 6.40965 3.05943 5.81351 3.49897 5.37397C3.93851 4.93443 4.53465 4.6875 5.15625 4.6875H24.8438C25.4654 4.6875 26.0615 4.93443 26.501 5.37397C26.9406 5.81351 27.1875 6.40965 27.1875 7.03125ZM4.21875 20.625C3.84579 20.625 3.4881 20.7732 3.22438 21.0369C2.96066 21.3006 2.8125 21.6583 2.8125 22.0312C2.8125 22.4042 2.96066 22.7619 3.22438 23.0256C3.4881 23.2893 3.84579 23.4375 4.21875 23.4375C4.34307 23.4375 4.4623 23.4869 4.55021 23.5748C4.63811 23.6627 4.6875 23.7819 4.6875 23.9062C4.6875 24.2792 4.83566 24.6369 5.09938 24.9006C5.3631 25.1643 5.72079 25.3125 6.09375 25.3125C6.46671 25.3125 6.8244 25.1643 7.08812 24.9006C7.35184 24.6369 7.5 24.2792 7.5 23.9062C7.5 23.036 7.1543 22.2014 6.53894 21.5861C5.92359 20.9707 5.08899 20.625 4.21875 20.625ZM4.21875 15.9375C3.84579 15.9375 3.4881 16.0857 3.22438 16.3494C2.96066 16.6131 2.8125 16.9708 2.8125 17.3438C2.8125 17.7167 2.96066 18.0744 3.22438 18.3381C3.4881 18.6018 3.84579 18.75 4.21875 18.75C5.5858 18.7516 6.89641 19.2953 7.86306 20.2619C8.82971 21.2286 9.37345 22.5392 9.375 23.9062C9.375 24.2792 9.52316 24.6369 9.78688 24.9006C10.0506 25.1643 10.4083 25.3125 10.7812 25.3125C11.1542 25.3125 11.5119 25.1643 11.7756 24.9006C12.0393 24.6369 12.1875 24.2792 12.1875 23.9062C12.1853 21.7935 11.3451 19.7679 9.85111 18.2739C8.35715 16.7799 6.33153 15.9397 4.21875 15.9375ZM4.21875 11.25C3.84579 11.25 3.4881 11.3982 3.22438 11.6619C2.96066 11.9256 2.8125 12.2833 2.8125 12.6562C2.8125 13.0292 2.96066 13.3869 3.22438 13.6506C3.4881 13.9143 3.84579 14.0625 4.21875 14.0625C6.82862 14.0653 9.33079 15.1033 11.1762 16.9488C13.0217 18.7942 14.0597 21.2964 14.0625 23.9062C14.0625 24.2792 14.2107 24.6369 14.4744 24.9006C14.7381 25.1643 15.0958 25.3125 15.4688 25.3125C15.8417 25.3125 16.1994 25.1643 16.4631 24.9006C16.7268 24.6369 16.875 24.2792 16.875 23.9062C16.8713 20.5507 15.5367 17.3337 13.164 14.961C10.7913 12.5883 7.57425 11.2537 4.21875 11.25Z" fill="#F9F9F9"/>
</svg>
