<svg width="65" height="65" viewBox="0 0 65 65" fill="none" xmlns="http://www.w3.org/2000/svg">
<mask id="mask0_921_29416" style="mask-type:luminance" maskUnits="userSpaceOnUse" x="0" y="0" width="65" height="65">
<path d="M0 7.62939e-06H65V65H0V7.62939e-06Z" fill="white"/>
</mask>
<g mask="url(#mask0_921_29416)">
<path d="M25.5633 25.0821C25.3665 24.9552 25.1328 24.8828 24.8828 24.8828C24.182 24.8828 23.6133 25.4516 23.6133 26.1523C23.6133 26.485 23.7414 26.7884 23.951 27.0144C24.1833 27.2657 24.5145 27.4219 24.8828 27.4219C25.5835 27.4219 26.1523 26.8531 26.1523 26.1523C26.1523 25.7017 25.9175 25.3068 25.5633 25.0821Z" fill="#041E42"/>
<path d="M32.5 1.26953V9.64844" stroke="#041E42" stroke-width="4" stroke-linecap="round" stroke-linejoin="round"/>
<path d="M32.5 55.3516V63.7305" stroke="#041E42" stroke-width="4" stroke-linecap="round" stroke-linejoin="round"/>
<path d="M8.41602 10.9552L13.8026 16.3418" stroke="#041E42" stroke-width="4" stroke-linecap="round" stroke-linejoin="round"/>
<path d="M51.1973 49.9278L56.5839 55.3145" stroke="#041E42" stroke-width="4" stroke-linecap="round" stroke-linejoin="round"/>
<path d="M56.5839 10.9552L51.1973 16.3418" stroke="#041E42" stroke-width="4" stroke-linecap="round" stroke-linejoin="round"/>
<path d="M13.8026 49.9278L8.41602 55.3145" stroke="#041E42" stroke-width="4" stroke-linecap="round" stroke-linejoin="round"/>
<path d="M60.4297 32.5C60.4297 32.5 49.3276 49.0039 32.5 49.0039C15.6724 49.0039 4.57031 32.5 4.57031 32.5C4.57031 32.5 15.6724 15.9961 32.5 15.9961C49.3276 15.9961 60.4297 32.5 60.4297 32.5Z" stroke="#041E42" stroke-width="4" stroke-linecap="round" stroke-linejoin="round"/>
<path d="M28.8704 23.0115C28.916 22.9937 28.9618 22.9772 29.0075 22.9607C29.0582 22.9417 29.1091 22.9239 29.1599 22.9062C29.2056 22.8896 29.2513 22.8744 29.2982 22.8592C29.3579 22.8389 29.4201 22.8186 29.4811 22.7995C29.5598 22.7754 29.6385 22.7513 29.7185 22.7297C29.7959 22.7068 29.8746 22.6853 29.9546 22.6649C30.0384 22.6434 30.122 22.623 30.206 22.604C30.2847 22.5862 30.3621 22.5685 30.4408 22.5532C30.5043 22.5393 30.5678 22.5266 30.6325 22.5151C30.6884 22.505 30.7442 22.4948 30.8001 22.4859C30.8304 22.4796 30.8622 22.4745 30.8939 22.4707C30.9512 22.4605 31.0083 22.4529 31.0654 22.4453C31.0807 22.4428 31.0946 22.4402 31.1099 22.439C31.1581 22.4313 31.2076 22.425 31.2571 22.4187C31.3104 22.4123 31.3638 22.406 31.4171 22.4009L31.4933 22.3933C31.5479 22.3869 31.6037 22.3818 31.6583 22.378C31.6874 22.3755 31.7167 22.3729 31.7458 22.3717C31.7826 22.3679 31.8208 22.3653 31.8576 22.3641C31.9122 22.3603 31.9679 22.3577 32.0227 22.3552C32.0937 22.3514 32.1648 22.3488 32.2372 22.3476C32.3235 22.345 32.4123 22.3438 32.5 22.3438C38.1088 22.3438 42.6562 26.8912 42.6562 32.5C42.6562 34.2532 42.2119 35.9023 41.4299 37.3407C41.3524 37.4829 41.2723 37.6238 41.1887 37.7609C41.1454 37.8333 41.1011 37.9031 41.0552 37.9742C40.9741 38.1012 40.8903 38.2256 40.804 38.3487C40.7951 38.3614 40.7861 38.3729 40.7773 38.3855C40.592 38.6471 40.3939 38.8997 40.1831 39.1409C40.0244 39.325 39.8582 39.504 39.6854 39.6767C39.5294 39.8328 39.368 39.9852 39.2019 40.1299C38.5049 40.7431 37.7241 41.2623 36.8773 41.666C36.7377 41.7333 36.5967 41.7968 36.4532 41.8577C36.1499 41.9859 35.8376 42.1002 35.5202 42.1992C35.2016 42.2982 34.8778 42.382 34.5465 42.4493C33.8851 42.5852 33.2007 42.6562 32.5 42.6562C26.8912 42.6562 22.3438 38.1088 22.3438 32.5C22.3438 32.4124 22.345 32.3248 22.3476 32.2385C22.3488 32.1674 22.3512 32.0976 22.3552 32.0265C22.3577 31.9604 22.3614 31.8944 22.3653 31.8297C22.3666 31.8106 22.3679 31.7916 22.3691 31.7726C22.3742 31.7116 22.3779 31.6507 22.3844 31.5897C22.3856 31.5745 22.3869 31.5605 22.3881 31.5453C22.3945 31.4729 22.4021 31.4006 22.411 31.3295V31.327C22.4198 31.2508 22.4288 31.1746 22.4402 31.0984C22.4479 31.0413 22.4555 30.9842 22.4656 30.927C22.4758 30.8509 22.4883 30.7772 22.5024 30.7023C22.5049 30.682 22.5088 30.663 22.5126 30.6427" stroke="#041E42" stroke-width="4" stroke-linecap="round" stroke-linejoin="round"/>
<path d="M32.5 36.3086C30.4002 36.3086 28.6914 34.5998 28.6914 32.5C28.6914 30.4002 30.4002 28.6914 32.5 28.6914C34.5998 28.6914 36.3086 30.4002 36.3086 32.5C36.3086 34.5998 34.5998 36.3086 32.5 36.3086Z" stroke="#041E42" stroke-width="4" stroke-linecap="round" stroke-linejoin="round"/>
</g>
</svg>
