<svg width="25" height="25" viewBox="0 0 25 25" fill="none" xmlns="http://www.w3.org/2000/svg">
<path d="M20.2749 19.1491C20.2749 19.6417 20.1671 20.1283 19.9591 20.5749C19.7511 21.0214 19.4478 21.417 19.0706 21.7338C18.6934 22.0506 18.2515 22.2811 17.7757 22.4089C17.3 22.5367 16.8021 22.5589 16.3169 22.4738C15.8317 22.3887 15.371 22.1984 14.9671 21.9163C14.5633 21.6342 14.2261 21.2672 13.9792 20.8409C13.7324 20.4146 13.5818 19.9395 13.5381 19.4488C13.4945 18.9581 13.5587 18.4638 13.7264 18.0007L8.75766 14.8085C8.28311 15.274 7.68166 15.5889 7.02877 15.7139C6.37588 15.8389 5.70063 15.7683 5.08772 15.5109C4.47481 15.2536 3.95155 14.821 3.58357 14.2674C3.21559 13.7138 3.01929 13.0638 3.01929 12.3991C3.01929 11.7344 3.21559 11.0844 3.58357 10.5308C3.95155 9.97721 4.47481 9.5446 5.08772 9.28726C5.70063 9.02992 6.37588 8.9593 7.02877 9.08427C7.68166 9.20924 8.28311 9.52423 8.75766 9.98972L13.7264 6.80222C13.4419 6.02039 13.4554 5.16113 13.7644 4.38864C14.0734 3.61614 14.6562 2.98458 15.4014 2.61462C16.1466 2.24467 17.002 2.16226 17.8041 2.38314C18.6063 2.60403 19.2989 3.11272 19.7497 3.81202C20.2004 4.51131 20.3778 5.35218 20.2477 6.17396C20.1177 6.99573 19.6894 7.74078 19.0448 8.26674C18.4001 8.7927 17.5843 9.06271 16.7531 9.02515C15.922 8.98759 15.1338 8.64512 14.5392 8.06316L9.57048 11.2553C9.83901 11.9974 9.83901 12.8101 9.57048 13.5522L14.5392 16.7444C15.0136 16.2801 15.6144 15.966 16.2664 15.8415C16.9184 15.7169 17.5926 15.7873 18.2048 16.044C18.817 16.3006 19.3398 16.7321 19.708 17.2844C20.0762 17.8367 20.2734 18.4853 20.2749 19.1491Z" fill="#FAFAFA"/>
</svg>
