<svg width="15" height="15" viewBox="0 0 15 15" fill="none" xmlns="http://www.w3.org/2000/svg">
<g clip-path="url(#clip0_938_64121)">
<path d="M0.569531 9.40625C0.212988 9.85771 0 10.4275 0 11.0463V13.2289C0 13.4715 0.196875 13.6684 0.439453 13.6684H3.10547V12.4965C3.10547 11.5637 3.45615 10.7105 4.03301 10.0634C2.89421 10.7549 1.39875 10.4926 0.569531 9.40625Z" fill="#FAFAFA"/>
<path d="M14.4303 9.40625C13.6011 10.4925 12.1056 10.7549 10.9668 10.0634C11.5437 10.7105 11.8943 11.5637 11.8943 12.4965V13.6684H14.5604C14.8029 13.6684 14.9998 13.4715 14.9998 13.2289V11.0463C14.9998 10.4275 14.7868 9.85771 14.4303 9.40625Z" fill="#FAFAFA"/>
<path d="M9.85163 10.2344C9.33583 10.9811 8.47415 11.4713 7.5 11.4713C6.52585 11.4713 5.66417 10.981 5.14837 10.2344C4.44407 10.7399 3.98438 11.5656 3.98438 12.4967V14.1081C3.98438 14.3508 4.18113 14.5475 4.42383 14.5475H10.5762C10.8189 14.5475 11.0156 14.3508 11.0156 14.1081V12.4967C11.0156 11.5656 10.5559 10.7399 9.85163 10.2344Z" fill="#FAFAFA"/>
<path d="M7.5 10.5918C8.59216 10.5918 9.47754 9.70642 9.47754 8.61426C9.47754 7.52209 8.59216 6.63672 7.5 6.63672C6.40784 6.63672 5.52246 7.52209 5.52246 8.61426C5.52246 9.70642 6.40784 10.5918 7.5 10.5918Z" fill="#FAFAFA"/>
<path d="M2.66602 9.56641C3.63683 9.56641 4.42383 8.77941 4.42383 7.80859C4.42383 6.83778 3.63683 6.05078 2.66602 6.05078C1.6952 6.05078 0.908203 6.83778 0.908203 7.80859C0.908203 8.77941 1.6952 9.56641 2.66602 9.56641Z" fill="#FAFAFA"/>
<path d="M12.334 9.56641C13.3048 9.56641 14.0918 8.77941 14.0918 7.80859C14.0918 6.83778 13.3048 6.05078 12.334 6.05078C11.3632 6.05078 10.5762 6.83778 10.5762 7.80859C10.5762 8.77941 11.3632 9.56641 12.334 9.56641Z" fill="#FAFAFA"/>
<path d="M6.10717 4.34933C6.68147 4.86683 7.24992 5.20999 7.27383 5.22434C7.41302 5.3079 7.58692 5.3079 7.72611 5.22434C7.75002 5.20999 8.3185 4.86681 8.89277 4.34933C9.71821 3.60557 10.1367 2.88458 10.1367 2.20641C10.1367 0.668944 8.56222 -0.0537516 7.5 0.847889C6.43796 -0.0535759 4.86328 0.66868 4.86328 2.20641C4.86328 2.88458 5.28179 3.60557 6.10717 4.34933Z" fill="#FAFAFA"/>
</g>
<defs>
<clipPath id="clip0_938_64121">
<rect width="15" height="15" fill="white"/>
</clipPath>
</defs>
</svg>
