<svg width="50" height="50" viewBox="0 0 50 50" fill="none" xmlns="http://www.w3.org/2000/svg">
<g clip-path="url(#clip0_1352_17980)">
<path d="M31.1797 39.541V49.2669" stroke="#FAFAFA" stroke-width="2" stroke-miterlimit="10" stroke-linecap="round" stroke-linejoin="round"/>
<path d="M32.4041 2.42702C31.9958 2.02089 31.4359 1.7793 30.8349 1.7793H30.5387C29.1937 1.7793 28.2035 2.94447 28.3221 4.20593" stroke="#FAFAFA" stroke-width="2" stroke-miterlimit="10" stroke-linecap="round" stroke-linejoin="round"/>
<path d="M37.4102 4.20607L36.6543 2.17942C36.3297 1.30935 35.4988 0.732422 34.5701 0.732422C33.0188 0.732422 31.944 2.28029 32.4859 3.73383L33.3226 5.92132" stroke="#FAFAFA" stroke-width="2" stroke-miterlimit="10" stroke-linecap="round" stroke-linejoin="round"/>
<path d="M44.5253 14.839V12.7058C44.5253 12.486 44.4855 12.2683 44.408 12.0627L41.5172 4.40374C41.1904 3.53786 40.3616 2.96484 39.4362 2.96484H39.3982C37.8557 2.96484 36.7814 4.4966 37.3068 5.94682L38.8726 10.2764" stroke="#FAFAFA" stroke-width="2" stroke-miterlimit="10" stroke-linecap="round" stroke-linejoin="round"/>
<path d="M43.2188 19.7189V16.9419C43.2188 15.7232 44.2067 14.7354 45.4253 14.7354C46.6425 14.7378 47.6314 15.7239 47.6318 16.9419V25.7874C47.6318 28.112 46.7943 30.3974 45.1987 32.088L45.0863 32.2073C44.4954 32.8334 44.1285 33.5983 44.1285 34.4592V49.2675" stroke="#FAFAFA" stroke-width="2" stroke-miterlimit="10" stroke-linecap="round" stroke-linejoin="round"/>
<path d="M18.8281 39.541V49.2669" stroke="#FAFAFA" stroke-width="2" stroke-miterlimit="10" stroke-linecap="round" stroke-linejoin="round"/>
<path d="M17.6016 2.42702C18.0098 2.02089 18.5697 1.7793 19.1707 1.7793H19.4669C20.8122 1.7793 21.8026 2.94506 21.6835 4.20681" stroke="#FAFAFA" stroke-width="2" stroke-miterlimit="10" stroke-linecap="round" stroke-linejoin="round"/>
<path d="M12.6016 4.20607L13.3575 2.17942C13.6821 1.30935 14.513 0.732422 15.4416 0.732422C16.9928 0.732422 18.0677 2.28029 17.5258 3.73383L16.688 5.92405" stroke="#FAFAFA" stroke-width="2" stroke-miterlimit="10" stroke-linecap="round" stroke-linejoin="round"/>
<path d="M5.47656 14.839V12.7058C5.47656 12.486 5.51631 12.2683 5.59384 12.0627L8.48461 4.40374C8.81145 3.53786 9.64022 2.96484 10.5657 2.96484H10.6036C12.1461 2.96484 13.2204 4.4966 12.695 5.94682L11.1244 10.2827" stroke="#FAFAFA" stroke-width="2" stroke-miterlimit="10" stroke-linecap="round" stroke-linejoin="round"/>
<path d="M2.39062 26.2461C2.49345 28.4103 3.32241 30.5085 4.81277 32.0876L4.92516 32.2069C5.51605 32.833 5.88303 33.5979 5.88303 34.4588V49.2671" stroke="#FAFAFA" stroke-width="2" stroke-miterlimit="10" stroke-linecap="round" stroke-linejoin="round"/>
<path d="M6.78806 20.3124V16.9419C6.78806 15.7232 5.80012 14.7354 4.58153 14.7354C3.36431 14.7378 2.37539 15.7239 2.375 16.9419V22.8282" stroke="#FAFAFA" stroke-width="2" stroke-miterlimit="10" stroke-linecap="round" stroke-linejoin="round"/>
<path d="M26.9112 40.4918C36.1836 39.5301 43.4026 31.6549 43.3242 22.11C43.2414 12.0195 35.0892 3.9374 24.9983 3.9375C14.8769 3.9375 6.67188 12.1426 6.67188 22.264C6.67188 30.7258 12.4067 37.8482 20.2018 39.9564C20.3173 39.9876 20.4394 39.9351 20.4975 39.8305L21.0903 38.764C21.153 38.6512 21.2888 38.6012 21.4097 38.6465L23.9251 39.5887C23.9932 39.6142 24.0687 39.6101 24.1337 39.5775L26.7876 38.2431C26.9946 38.139 27.2243 38.3363 27.1528 38.5566L26.6341 40.1518C26.5755 40.3319 26.7226 40.5113 26.9112 40.4918Z" stroke="#FAFAFA" stroke-width="2" stroke-miterlimit="10" stroke-linecap="round" stroke-linejoin="round"/>
<path d="M36.6536 14.6785C38.0592 16.8489 38.8753 19.4366 38.8753 22.215C38.8753 29.8824 32.6597 36.098 24.9924 36.098C17.325 36.098 11.1094 29.8824 11.1094 22.215C11.1094 14.5476 17.325 8.33203 24.9924 8.33203C28.6356 8.33203 31.9512 9.73548 34.4278 12.0312" stroke="#FAFAFA" stroke-width="2" stroke-miterlimit="10" stroke-linecap="round" stroke-linejoin="round"/>
<path d="M33.3547 32.9926L31.4288 30.5087C31.2744 30.3096 31.2252 30.0484 31.2965 29.8067L32.2486 26.5814C32.3203 26.3386 32.2703 26.0762 32.1144 25.8768L30.5726 23.9051C30.4303 23.7232 30.3755 23.4877 30.423 23.2616L30.8926 21.0234" stroke="#FAFAFA" stroke-width="2" stroke-miterlimit="10" stroke-linecap="round" stroke-linejoin="round"/>
<path d="M31.7521 28.2571L28.3972 26.5726C28.1972 26.4721 27.9636 26.462 27.7555 26.5449L26.0469 27.2261" stroke="#FAFAFA" stroke-width="2" stroke-miterlimit="10" stroke-linecap="round" stroke-linejoin="round"/>
<path d="M21.5859 9.18066V11.0151C21.5859 11.2917 21.7317 11.5477 21.9694 11.6888L23.5821 12.6464C23.8886 12.8283 24.0336 13.1941 23.9351 13.5366L22.8441 17.3316" stroke="#FAFAFA" stroke-width="2" stroke-miterlimit="10" stroke-linecap="round" stroke-linejoin="round"/>
<path d="M23.6094 14.6787L25.3047 16.0112C25.4376 16.1156 25.6007 16.1742 25.7696 16.1784L27.9572 16.2321" stroke="#FAFAFA" stroke-width="2" stroke-miterlimit="10" stroke-linecap="round" stroke-linejoin="round"/>
</g>
<defs>
<clipPath id="clip0_1352_17980">
<rect width="50" height="50" fill="white"/>
</clipPath>
</defs>
</svg>
