<svg width="47" height="47" viewBox="0 0 47 47" fill="none" xmlns="http://www.w3.org/2000/svg">
<g clip-path="url(#clip0_1352_12550)">
<mask id="mask0_1352_12550" style="mask-type:luminance" maskUnits="userSpaceOnUse" x="0" y="0" width="47" height="47">
<path d="M0 3.8147e-06H47V47H0V3.8147e-06Z" fill="white"/>
</mask>
<g mask="url(#mask0_1352_12550)">
<path d="M40.9831 46.3115H46.311V44.0864C46.311 42.2422 44.8165 40.7477 42.9723 40.7477H38.1512C36.307 40.7477 34.8125 42.2422 34.8125 44.0864V46.3115H37.7702" stroke="#FAFAFA" stroke-width="2" stroke-miterlimit="10" stroke-linecap="round" stroke-linejoin="round"/>
<path d="M44.2699 37.0389C44.2699 39.0874 42.6092 40.748 40.5608 40.748C38.5122 40.748 36.8516 39.0874 36.8516 37.0389C36.8516 34.9904 38.5122 33.3297 40.5608 33.3297C42.6092 33.3297 44.2699 34.9904 44.2699 37.0389Z" stroke="#FAFAFA" stroke-width="2" stroke-miterlimit="10" stroke-linecap="round" stroke-linejoin="round"/>
<path d="M17.75 44.086V46.3115H29.2485V44.086C29.2485 42.2424 27.7539 40.7477 25.9103 40.7477H21.0882C19.2445 40.7477 17.75 42.2424 17.75 44.086Z" stroke="#FAFAFA" stroke-width="2" stroke-miterlimit="10" stroke-linecap="round" stroke-linejoin="round"/>
<path d="M27.2074 37.0389C27.2074 39.0874 25.5467 40.748 23.4983 40.748C21.4498 40.748 19.7891 39.0874 19.7891 37.0389C19.7891 34.9904 21.4498 33.3297 23.4983 33.3297C25.5467 33.3297 27.2074 34.9904 27.2074 37.0389Z" stroke="#FAFAFA" stroke-width="2" stroke-miterlimit="10" stroke-linecap="round" stroke-linejoin="round"/>
<path d="M0.6875 44.086V46.3115H12.186V44.086C12.186 42.2424 10.6914 40.7477 8.84778 40.7477H4.02578C2.18204 40.7477 0.6875 42.2424 0.6875 44.086Z" stroke="#FAFAFA" stroke-width="2" stroke-miterlimit="10" stroke-linecap="round" stroke-linejoin="round"/>
<path d="M10.1449 37.0389C10.1449 39.0874 8.48434 40.748 6.4358 40.748C4.38726 40.748 2.72656 39.0874 2.72656 37.0389C2.72656 34.9904 4.38726 33.3297 6.4358 33.3297C8.48434 33.3297 10.1449 34.9904 10.1449 37.0389Z" stroke="#FAFAFA" stroke-width="2" stroke-miterlimit="10" stroke-linecap="round" stroke-linejoin="round"/>
<path d="M16.4521 6.62305H14.9685C14.5587 6.62305 14.2266 6.29093 14.2266 5.88124V4.39752C14.2266 3.98783 14.5587 3.65571 14.9685 3.65571H16.4521C16.8618 3.65571 17.1939 3.98783 17.1939 4.39752V5.88124C17.1939 6.29093 16.8618 6.62305 16.4521 6.62305Z" stroke="#FAFAFA" stroke-width="2" stroke-miterlimit="10" stroke-linecap="round" stroke-linejoin="round"/>
<path d="M32.0335 6.62305H20.906C20.4962 6.62305 20.1641 6.29093 20.1641 5.88124V4.39752C20.1641 3.98783 20.4962 3.65571 20.906 3.65571H32.0335C32.4433 3.65571 32.7754 3.98783 32.7754 4.39752V5.88124C32.7754 6.29093 32.4433 6.62305 32.0335 6.62305Z" stroke="#FAFAFA" stroke-width="2" stroke-miterlimit="10" stroke-linecap="round" stroke-linejoin="round"/>
<path d="M18.4712 0.688359H34.8111C35.3233 0.688359 35.7382 1.10328 35.7382 1.61551V8.66275C35.7382 9.17498 35.3233 9.59082 34.8111 9.59082H12.185C11.6726 9.59082 11.2578 9.17498 11.2578 8.66275V1.61551C11.2578 1.10328 11.6726 0.688359 12.185 0.688359H15.2583" stroke="#FAFAFA" stroke-width="2" stroke-miterlimit="10" stroke-linecap="round" stroke-linejoin="round"/>
<path d="M16.4521 15.5254H14.9685C14.5587 15.5254 14.2266 15.1933 14.2266 14.7836V13.2999C14.2266 12.8902 14.5587 12.5581 14.9685 12.5581H16.4521C16.8618 12.5581 17.1939 12.8902 17.1939 13.2999V14.7836C17.1939 15.1933 16.8618 15.5254 16.4521 15.5254Z" stroke="#FAFAFA" stroke-width="2" stroke-miterlimit="10" stroke-linecap="round" stroke-linejoin="round"/>
<path d="M32.0335 15.5254H20.906C20.4962 15.5254 20.1641 15.1933 20.1641 14.7836V13.2999C20.1641 12.8902 20.4962 12.5581 20.906 12.5581H32.0335C32.4433 12.5581 32.7754 12.8902 32.7754 13.2999V14.7836C32.7754 15.1933 32.4433 15.5254 32.0335 15.5254Z" stroke="#FAFAFA" stroke-width="2" stroke-miterlimit="10" stroke-linecap="round" stroke-linejoin="round"/>
<path d="M32.1737 18.4922H34.8111C35.3234 18.4922 35.7382 18.0773 35.7382 17.565V10.5178C35.7382 10.0056 35.3234 9.59065 34.8111 9.59065H12.185C11.6727 9.59065 11.2578 10.0056 11.2578 10.5178V17.565C11.2578 18.0773 11.6727 18.4922 12.185 18.4922H28.9608" stroke="#FAFAFA" stroke-width="2" stroke-miterlimit="10" stroke-linecap="round" stroke-linejoin="round"/>
<path d="M40.5625 33.3291V27.3944" stroke="#FAFAFA" stroke-width="2" stroke-miterlimit="10" stroke-linecap="round" stroke-linejoin="round"/>
<path d="M42.0455 25.9108C42.0455 26.7302 41.3812 27.3945 40.5618 27.3945C39.7424 27.3945 39.0781 26.7302 39.0781 25.9108C39.0781 25.0914 39.7424 24.4271 40.5618 24.4271C41.3812 24.4271 42.0455 25.0914 42.0455 25.9108Z" stroke="#FAFAFA" stroke-width="2" stroke-miterlimit="10" stroke-linecap="round" stroke-linejoin="round"/>
<path d="M23.5 33.3291V27.3944" stroke="#FAFAFA" stroke-width="2" stroke-miterlimit="10" stroke-linecap="round" stroke-linejoin="round"/>
<path d="M24.9831 25.9108C24.9831 26.7302 24.3188 27.3945 23.4993 27.3945C22.6799 27.3945 22.0156 26.7302 22.0156 25.9108C22.0156 25.0914 22.6799 24.4271 23.4993 24.4271C24.3188 24.4271 24.9831 25.0914 24.9831 25.9108Z" stroke="#FAFAFA" stroke-width="2" stroke-miterlimit="10" stroke-linecap="round" stroke-linejoin="round"/>
<path d="M6.4375 33.3291V27.3944" stroke="#FAFAFA" stroke-width="2" stroke-miterlimit="10" stroke-linecap="round" stroke-linejoin="round"/>
<path d="M7.92046 25.9108C7.92046 26.7302 7.25622 27.3945 6.43675 27.3945C5.61737 27.3945 4.95312 26.7302 4.95312 25.9108C4.95312 25.0914 5.61737 24.4271 6.43675 24.4271C7.25622 24.4271 7.92046 25.0914 7.92046 25.9108Z" stroke="#FAFAFA" stroke-width="2" stroke-miterlimit="10" stroke-linecap="round" stroke-linejoin="round"/>
<path d="M7.92188 25.9111H22.0167" stroke="#FAFAFA" stroke-width="2" stroke-miterlimit="10" stroke-linecap="round" stroke-linejoin="round"/>
<path d="M24.9844 25.9111H39.0792" stroke="#FAFAFA" stroke-width="2" stroke-miterlimit="10" stroke-linecap="round" stroke-linejoin="round"/>
<path d="M23.5 24.4277V18.4931" stroke="#FAFAFA" stroke-width="2" stroke-miterlimit="10" stroke-linecap="round" stroke-linejoin="round"/>
</g>
</g>
<defs>
<clipPath id="clip0_1352_12550">
<rect width="47" height="47" fill="white"/>
</clipPath>
</defs>
</svg>
