<svg width="21" height="18" viewBox="0 0 21 18" fill="none" xmlns="http://www.w3.org/2000/svg">
<path d="M0.178891 9.44758C0.178891 9.12628 0.3087 8.81815 0.539762 8.59096C0.770822 8.36378 1.08421 8.23614 1.41098 8.23614L16.504 8.23614L11.2143 3.03606C10.9828 2.80847 10.8528 2.49981 10.8528 2.17796C10.8528 1.85611 10.9828 1.54744 11.2143 1.31986C11.4457 1.09227 11.7596 0.964419 12.087 0.964419C12.4143 0.964419 12.7282 1.09227 12.9597 1.31986L20.3522 8.58847C20.4671 8.70101 20.5582 8.83475 20.6204 8.982C20.6826 9.12925 20.7146 9.28712 20.7146 9.44657C20.7146 9.60601 20.6826 9.76388 20.6204 9.91113C20.5582 10.0584 20.4671 10.1921 20.3522 10.3047L12.9597 17.5733C12.8451 17.686 12.709 17.7754 12.5593 17.8363C12.4096 17.8973 12.2491 17.9287 12.087 17.9287C11.9249 17.9287 11.7644 17.8973 11.6147 17.8363C11.4649 17.7754 11.3289 17.686 11.2143 17.5733C11.0997 17.4606 11.0087 17.3268 10.9467 17.1796C10.8847 17.0323 10.8528 16.8745 10.8528 16.7152C10.8528 16.5558 10.8847 16.398 10.9467 16.2508C11.0087 16.1035 11.0997 15.9698 11.2143 15.8571L16.504 10.659L1.41098 10.659C1.08421 10.659 0.770822 10.5314 0.539762 10.3042C0.3087 10.077 0.178891 9.76887 0.178891 9.44758Z" fill="#FAFAFA"/>
</svg>
