<svg width="24" height="24" viewBox="0 0 24 24" fill="none" xmlns="http://www.w3.org/2000/svg">
<path fill-rule="evenodd" clip-rule="evenodd" d="M21.5857 12.4126C19.649 15.8904 15.9763 18.0508 12.0027 18.0508C8.02644 18.0508 4.35373 15.8904 2.41705 12.4126C2.26789 12.1426 2.26789 11.8571 2.41705 11.5873C4.35373 8.10954 8.02644 5.94935 12.0027 5.94935C15.9763 5.94935 19.649 8.10954 21.5857 11.5873C21.7375 11.8571 21.7375 12.1426 21.5857 12.4126ZM22.8228 10.8978C20.6367 6.97118 16.4907 4.53223 12.0027 4.53223C7.51203 4.53223 3.36608 6.97118 1.17992 10.8978C0.788984 11.5984 0.788984 12.4016 1.17992 13.1016C3.36608 17.0282 7.51203 19.4677 12.0027 19.4677C16.4907 19.4677 20.6367 17.0282 22.8228 13.1016C23.2138 12.4016 23.2138 11.5984 22.8228 10.8978ZM12.0027 14.9069C13.605 14.9069 14.909 13.6029 14.909 11.9998C14.909 10.3968 13.605 9.09279 12.0027 9.09279C10.3978 9.09279 9.09378 10.3968 9.09378 11.9998C9.09378 13.6029 10.3978 14.9069 12.0027 14.9069ZM12.0027 7.67566C9.61588 7.67566 7.67666 9.61568 7.67666 11.9999C7.67666 14.3846 9.61592 16.3238 12.0027 16.3238C14.3869 16.3238 16.3261 14.3846 16.3261 11.9999C16.3261 9.61568 14.3869 7.67566 12.0027 7.67566Z" fill="#20005E"/>
</svg>
