<svg width="51" height="51" viewBox="0 0 51 51" fill="none" xmlns="http://www.w3.org/2000/svg">
<mask id="mask0_1352_18425" style="mask-type:luminance" maskUnits="userSpaceOnUse" x="0" y="0" width="51" height="51">
<path d="M0 3.8147e-06H51V51H0V3.8147e-06Z" fill="white"/>
</mask>
<g mask="url(#mask0_1352_18425)">
<path d="M20.0612 19.6798C19.9069 19.5802 19.7235 19.5234 19.5273 19.5234C18.9775 19.5234 18.5312 19.9697 18.5312 20.5195C18.5312 20.7805 18.6318 21.0186 18.7962 21.1959C18.9785 21.3931 19.2384 21.5156 19.5273 21.5156C20.0771 21.5156 20.5234 21.0694 20.5234 20.5195C20.5234 20.1659 20.3392 19.8561 20.0612 19.6798Z" fill="#FAFAFA"/>
<path d="M25.5 0.996094V7.57031" stroke="#FAFAFA" stroke-width="2" stroke-linecap="round" stroke-linejoin="round"/>
<path d="M25.5 43.4297V50.0039" stroke="#FAFAFA" stroke-width="2" stroke-linecap="round" stroke-linejoin="round"/>
<path d="M6.60156 8.59584L10.828 12.8223" stroke="#FAFAFA" stroke-width="2" stroke-linecap="round" stroke-linejoin="round"/>
<path d="M40.1719 39.174L44.3983 43.4004" stroke="#FAFAFA" stroke-width="2" stroke-linecap="round" stroke-linejoin="round"/>
<path d="M44.3983 8.59584L40.1719 12.8223" stroke="#FAFAFA" stroke-width="2" stroke-linecap="round" stroke-linejoin="round"/>
<path d="M10.828 39.174L6.60156 43.4004" stroke="#FAFAFA" stroke-width="2" stroke-linecap="round" stroke-linejoin="round"/>
<path d="M47.4141 25.5C47.4141 25.5 38.7032 38.4492 25.5 38.4492C12.2968 38.4492 3.58594 25.5 3.58594 25.5C3.58594 25.5 12.2968 12.5508 25.5 12.5508C38.7032 12.5508 47.4141 25.5 47.4141 25.5Z" stroke="#FAFAFA" stroke-width="2" stroke-linecap="round" stroke-linejoin="round"/>
<path d="M22.6522 18.0552C22.6879 18.0413 22.7239 18.0283 22.7597 18.0154C22.7995 18.0004 22.8394 17.9865 22.8793 17.9725C22.9151 17.9596 22.951 17.9476 22.9879 17.9357C23.0347 17.9197 23.0835 17.9038 23.1313 17.8888C23.193 17.8699 23.2548 17.851 23.3176 17.8341C23.3783 17.8161 23.4401 17.7992 23.5028 17.7833C23.5686 17.7663 23.6342 17.7504 23.7001 17.7354C23.7618 17.7215 23.8226 17.7076 23.8843 17.6956C23.9341 17.6846 23.9839 17.6747 24.0347 17.6657C24.0786 17.6578 24.1224 17.6498 24.1662 17.6428C24.19 17.6378 24.2149 17.6338 24.2398 17.6309C24.2848 17.6229 24.3296 17.6169 24.3744 17.6109C24.3864 17.6089 24.3973 17.607 24.4093 17.606C24.4471 17.6 24.486 17.595 24.5248 17.59C24.5667 17.585 24.6085 17.5801 24.6503 17.5761L24.7101 17.5701C24.7529 17.5651 24.7968 17.5611 24.8396 17.5581C24.8624 17.5562 24.8854 17.5542 24.9082 17.5532C24.9371 17.5502 24.9671 17.5482 24.996 17.5472C25.0388 17.5442 25.0825 17.5422 25.1255 17.5402C25.1812 17.5372 25.237 17.5352 25.2938 17.5342C25.3615 17.5322 25.4312 17.5313 25.5 17.5313C29.9007 17.5313 33.4687 21.0993 33.4687 25.5C33.4687 26.8756 33.1201 28.1695 32.5065 29.2981C32.4458 29.4097 32.3829 29.5202 32.3173 29.6278C32.2833 29.6846 32.2485 29.7394 32.2126 29.7952C32.1489 29.8948 32.0832 29.9924 32.0154 30.089C32.0085 30.099 32.0014 30.1079 31.9945 30.1179C31.8491 30.3231 31.6937 30.5213 31.5283 30.7106C31.4037 30.855 31.2734 30.9954 31.1378 31.1309C31.0154 31.2534 30.8888 31.373 30.7584 31.4865C30.2115 31.9676 29.5989 32.375 28.9345 32.6918C28.825 32.7446 28.7143 32.7944 28.6017 32.8422C28.3638 32.9428 28.1187 33.0325 27.8697 33.1102C27.6197 33.1879 27.3657 33.2536 27.1057 33.3064C26.5867 33.413 26.0497 33.4688 25.5 33.4688C21.0993 33.4688 17.5312 29.9007 17.5312 25.5C17.5312 25.4313 17.5322 25.3625 17.5342 25.2948C17.5352 25.239 17.5371 25.1842 17.5402 25.1285C17.5422 25.0767 17.5451 25.0249 17.5482 24.9741C17.5492 24.9591 17.5502 24.9442 17.5512 24.9292C17.5552 24.8814 17.558 24.8336 17.5631 24.7858C17.5641 24.7738 17.5651 24.7629 17.566 24.7509C17.5711 24.6942 17.5771 24.6374 17.584 24.5816V24.5796C17.5909 24.5198 17.598 24.4601 17.607 24.4003C17.6129 24.3555 17.6189 24.3107 17.6269 24.2658C17.6348 24.2061 17.6447 24.1483 17.6558 24.0895C17.6577 24.0736 17.6607 24.0587 17.6637 24.0427" stroke="#FAFAFA" stroke-width="2" stroke-linecap="round" stroke-linejoin="round"/>
<path d="M25.4961 28.4883C23.8486 28.4883 22.5078 27.1475 22.5078 25.5C22.5078 23.8525 23.8486 22.5117 25.4961 22.5117C27.1436 22.5117 28.4844 23.8525 28.4844 25.5C28.4844 27.1475 27.1436 28.4883 25.4961 28.4883Z" stroke="#FAFAFA" stroke-width="2" stroke-linecap="round" stroke-linejoin="round"/>
</g>
</svg>
