<svg width="26" height="26" viewBox="0 0 26 26" fill="none" xmlns="http://www.w3.org/2000/svg">
<g clip-path="url(#clip0_3695_3060)">
<path d="M25.8265 12.5143C23.4634 9.63525 18.4604 6.27539 13 6.27539C7.52009 6.27539 2.51683 9.65809 0.173512 12.5143C-0.0578373 12.7963 -0.0578373 13.2024 0.173512 13.4844C2.59263 16.4331 7.60742 19.7234 13 19.7234C18.5843 19.7234 23.566 16.2385 25.8265 13.4844C26.0579 13.2024 26.0579 12.7963 25.8265 12.5143ZM18.1946 12.9993C18.1946 15.8636 15.8643 18.1939 13 18.1939C10.1356 18.1939 7.80538 15.8635 7.80538 12.9993C7.80538 10.1351 10.1356 7.80475 13 7.80475C15.8646 7.8048 18.1946 10.1354 18.1946 12.9993ZM1.7977 12.9996C2.6584 12.105 4.73371 10.1744 7.64698 8.93534C5.81872 11.3376 5.81801 14.6591 7.64612 17.0622C5.43107 16.1234 3.3734 14.6402 1.7977 12.9996ZM18.3531 17.0634C20.1813 14.661 20.182 11.3396 18.3539 8.93646C20.5689 9.87527 22.6266 11.3585 24.2024 12.9991C23.3417 13.8937 21.2663 15.8242 18.3531 17.0634Z" />
<path d="M10.3984 13.0004C10.3984 14.4341 11.5648 15.6004 12.9984 15.6004C14.4321 15.6004 15.5984 14.4341 15.5984 13.0004C15.5984 11.5667 14.4321 10.4004 12.9984 10.4004C11.5648 10.4004 10.3984 11.5667 10.3984 13.0004ZM14.069 13.0004C14.069 13.5907 13.5887 14.071 12.9984 14.071C12.4081 14.071 11.9278 13.5907 11.9278 13.0004C11.9278 12.41 12.4081 11.9298 12.9984 11.9298C13.5887 11.9298 14.069 12.41 14.069 13.0004Z" />
<path d="M12.9991 3.31373C13.4214 3.31373 13.7638 2.97134 13.7638 2.54902V0.764706C13.7638 0.342384 13.4214 0 12.9991 0C12.5768 0 12.2344 0.342384 12.2344 0.764706V2.54902C12.2344 2.97134 12.5768 3.31373 12.9991 3.31373Z" />
<path d="M17.5617 4.33649C17.9284 4.54561 18.3955 4.41811 18.6049 4.05105L19.6225 2.26674C19.8317 1.89988 19.704 1.4329 19.3371 1.22363C18.9702 1.01441 18.5033 1.14211 18.294 1.50907L17.2764 3.29338C17.0671 3.66019 17.1949 4.12722 17.5617 4.33649Z" />
<path d="M7.39559 4.05104C7.60481 4.4179 8.07179 4.54566 8.4387 4.33643C8.80555 4.12721 8.93331 3.66018 8.72409 3.29332L7.70641 1.50901C7.49719 1.14215 7.03011 1.0144 6.66331 1.22362C6.29645 1.43284 6.16869 1.89987 6.37792 2.26673L7.39559 4.05104Z" />
<path d="M12.9991 22.6855C12.5768 22.6855 12.2344 23.0279 12.2344 23.4503V25.2346C12.2344 25.6569 12.5768 25.9993 12.9991 25.9993C13.4214 25.9993 13.7638 25.6569 13.7638 25.2346V23.4503C13.7638 23.0279 13.4214 22.6855 12.9991 22.6855Z" />
<path d="M8.4387 21.6631C8.07184 21.4539 7.60486 21.5816 7.39559 21.9484L6.37792 23.7328C6.16869 24.0996 6.29645 24.5666 6.66331 24.7759C7.03021 24.9851 7.49719 24.8573 7.70641 24.4905L8.72409 22.7062C8.93336 22.3393 8.80555 21.8723 8.4387 21.6631Z" />
<path d="M18.6049 21.9485C18.3956 21.5816 17.9285 21.4539 17.5617 21.663C17.1949 21.8722 17.0671 22.3393 17.2764 22.7061L18.294 24.4904C18.5032 24.8573 18.9702 24.9851 19.3371 24.7759C19.704 24.5667 19.8317 24.0996 19.6225 23.7328L18.6049 21.9485Z" />
</g>
<defs>
<clipPath id="clip0_3695_3060">
<rect width="26" height="26" />
</clipPath>
</defs>
</svg>
