<svg width="28" height="28" viewBox="0 0 28 28" fill="none" xmlns="http://www.w3.org/2000/svg">
<g clip-path="url(#clip0_1812_46748)">
<path d="M9.74214 5.99867C9.76488 6.04837 9.79732 6.09302 9.83756 6.13C9.8778 6.16698 9.92502 6.19554 9.97646 6.21401C10.0279 6.23249 10.0825 6.24049 10.1371 6.23757C10.1916 6.23464 10.2451 6.22083 10.2942 6.19696C10.3434 6.17309 10.3873 6.13964 10.4234 6.09856C10.4594 6.05749 10.4869 6.00963 10.5042 5.95778C10.5215 5.90594 10.5282 5.85116 10.5241 5.79667C10.5199 5.74218 10.5049 5.68907 10.4799 5.64047L9.44628 3.51203C9.3987 3.4142 9.31421 3.33928 9.2114 3.30374C9.10858 3.2682 8.99586 3.27497 8.89803 3.32254C8.8002 3.37011 8.72528 3.4546 8.68974 3.55742C8.65421 3.66023 8.66097 3.77295 8.70854 3.87078L9.74214 5.99867ZM14.0001 5.40969C14.1089 5.40969 14.2132 5.36647 14.2901 5.28956C14.367 5.21264 14.4103 5.10831 14.4103 4.99953V2.87109C14.4103 2.76231 14.367 2.65799 14.2901 2.58107C14.2132 2.50415 14.1089 2.46094 14.0001 2.46094C13.8913 2.46094 13.787 2.50415 13.7101 2.58107C13.6332 2.65799 13.5899 2.76231 13.5899 2.87109V4.99953C13.5899 5.10831 13.6332 5.21264 13.7101 5.28956C13.787 5.36647 13.8913 5.40969 14.0001 5.40969ZM17.7101 6.18844C17.7585 6.21192 17.811 6.22564 17.8647 6.22881C17.9183 6.23198 17.9721 6.22454 18.0229 6.20692C18.0737 6.18929 18.1205 6.16183 18.1607 6.1261C18.2008 6.09036 18.2336 6.04706 18.257 5.99867L19.2906 3.87078C19.3141 3.82234 19.3279 3.76974 19.3311 3.71597C19.3344 3.6622 19.327 3.60832 19.3094 3.55742C19.2918 3.50651 19.2643 3.45956 19.2286 3.41926C19.1928 3.37896 19.1495 3.34609 19.1011 3.32254C19.0526 3.29898 19 3.2852 18.9463 3.28197C18.8925 3.27875 18.8386 3.28614 18.7877 3.30374C18.7368 3.32134 18.6899 3.34879 18.6496 3.38453C18.6093 3.42026 18.5764 3.46359 18.5528 3.51203L17.5192 5.64047C17.4957 5.68896 17.482 5.74163 17.4788 5.79545C17.4757 5.84926 17.4832 5.90317 17.5009 5.95408C17.5186 6.00498 17.5463 6.05189 17.5821 6.09211C17.618 6.13233 17.6615 6.16506 17.7101 6.18844ZM22.1485 7.58406C22.2041 7.61153 22.2654 7.62575 22.3274 7.62563C22.4044 7.62576 22.48 7.60411 22.5453 7.56319C22.6106 7.52226 22.663 7.46372 22.6965 7.3943L23.2691 6.21633C23.2926 6.16789 23.3064 6.11528 23.3097 6.06151C23.3129 6.00775 23.3055 5.95387 23.2879 5.90296C23.2703 5.85205 23.2428 5.80511 23.2071 5.76481C23.1714 5.72451 23.128 5.69164 23.0796 5.66809C23.0312 5.64453 22.9785 5.63075 22.9248 5.62752C22.871 5.62429 22.8171 5.63169 22.7662 5.64929C22.7153 5.66688 22.6684 5.69433 22.6281 5.73007C22.5878 5.76581 22.5549 5.80914 22.5314 5.85758L21.9588 7.03609C21.9352 7.08452 21.9214 7.13713 21.9182 7.1909C21.915 7.24466 21.9224 7.29854 21.94 7.34944C21.9576 7.40034 21.9851 7.44726 22.0209 7.48752C22.0567 7.52778 22.1001 7.56059 22.1485 7.58406ZM23.5267 23.3548L23.5185 23.345L22.3629 22.0325C21.9072 21.5134 21.3311 21.114 20.6852 20.8694C20.0392 20.6247 19.3431 20.5423 18.6578 20.6292L15.2087 21.0667C14.8385 21.1154 14.4496 20.8348 14.4141 20.4586C14.4008 20.3244 14.4281 20.1894 14.4925 20.0709C14.5568 19.9524 14.6552 19.856 14.775 19.7941L17.9671 18.1858C18.7048 17.8069 19.2767 17.1692 19.5732 16.3947C19.8697 15.6203 19.8699 14.7637 19.5739 13.9891L19.3595 13.4285C19.2159 13.0536 18.9946 12.7133 18.71 12.4301C18.4255 12.1469 18.0842 11.9271 17.7087 11.7853C17.3331 11.6434 16.9317 11.5827 16.531 11.6071C16.1303 11.6315 15.7393 11.7404 15.3837 11.9268C15.2391 12.003 15.0715 12.0232 14.9129 11.9835C14.7543 11.9437 14.6161 11.8468 14.5246 11.7113C14.4734 11.6365 14.4383 11.5519 14.4215 11.4629C14.4046 11.3739 14.4064 11.2823 14.4267 11.194C14.4994 10.8719 14.8292 10.7149 15.096 10.5585C15.9826 10.0384 17.0325 9.87102 18.0368 10.0898C19.0411 10.3086 19.9263 10.8974 20.5161 11.7392C20.5786 11.8283 20.6738 11.889 20.781 11.9079C20.8882 11.9268 20.9985 11.9023 21.0876 11.8398C21.1767 11.7774 21.2374 11.6821 21.2563 11.5749C21.2751 11.4678 21.2507 11.3575 21.1882 11.2684C20.7328 10.6203 20.128 10.0913 19.4251 9.72617C18.7858 9.39289 18.0806 9.20533 17.3602 9.17696C16.6398 9.14859 15.922 9.28013 15.2585 9.56211C15.2286 9.42542 15.2427 9.28279 15.2988 9.15461C15.3549 9.02643 15.4501 8.91926 15.5707 8.84844C16.8969 8.07625 18.5239 7.83289 19.8812 8.53508C20.4665 8.83904 20.9699 9.27948 21.349 9.81914L23.6295 13.0747C23.6604 13.1188 23.6996 13.1564 23.7451 13.1854C23.7905 13.2143 23.8411 13.2341 23.8942 13.2434C23.9472 13.2528 24.0016 13.2516 24.0542 13.24C24.1068 13.2284 24.1566 13.2065 24.2007 13.1756C24.2448 13.1447 24.2824 13.1054 24.3114 13.06C24.3403 13.0146 24.3601 12.9639 24.3694 12.9109C24.3788 12.8578 24.3776 12.8035 24.366 12.7509C24.3544 12.6983 24.3325 12.6485 24.3016 12.6044L22.0206 9.34883C21.5657 8.70043 20.961 8.1714 20.258 7.80664C18.601 6.94805 16.7503 7.20508 15.1562 8.14078C14.8539 8.31783 14.6241 8.59624 14.5076 8.92661C14.3911 9.25698 14.3953 9.61795 14.5196 9.94547C14.329 10.0433 14.154 10.1688 14.0001 10.3179C13.8472 10.1677 13.6719 10.0421 13.4806 9.94547C13.6049 9.61795 13.6091 9.25698 13.4926 8.92661C13.3761 8.59624 13.1463 8.31783 12.844 8.14078L12.4858 7.92969C11.4214 7.30465 10.1607 7.1035 8.95464 7.36629C7.74861 7.62908 6.68583 8.33653 5.97799 9.34773L0.0744791 17.7762C0.0163033 17.8653 -0.00493217 17.9736 0.0152603 18.0781C0.0354528 18.1826 0.0954913 18.2752 0.182688 18.3363C0.269884 18.3973 0.377407 18.4221 0.482533 18.4054C0.587658 18.3886 0.682151 18.3316 0.746042 18.2465L6.65229 9.81805C7.2424 8.97658 8.12754 8.38796 9.13175 8.16921C10.136 7.95045 11.1857 8.11757 12.0724 8.63734C12.3824 8.81891 12.8424 9.11695 12.7428 9.56102C12.0793 9.27903 11.3615 9.1475 10.6411 9.17587C9.92071 9.20423 9.21551 9.39179 8.5762 9.72508C7.87326 10.0902 7.26853 10.6192 6.81307 11.2673C6.78216 11.3114 6.76023 11.3612 6.74856 11.4138C6.73688 11.4664 6.73568 11.5208 6.74503 11.5738C6.75437 11.6269 6.77408 11.6776 6.80302 11.7231C6.83196 11.7685 6.86957 11.8078 6.9137 11.8387C6.95783 11.8697 7.00762 11.8916 7.06022 11.9033C7.11282 11.9149 7.16721 11.9161 7.22028 11.9068C7.27335 11.8975 7.32405 11.8777 7.36951 11.8488C7.41496 11.8199 7.45426 11.7823 7.48518 11.7381C8.07524 10.8962 8.96066 10.3074 9.96523 10.0888C10.9698 9.87024 12.0198 10.0379 12.9064 10.5585L13.264 10.768C13.4136 10.8557 13.5229 10.9984 13.5685 11.1657C13.6141 11.333 13.5924 11.5115 13.508 11.6629C13.4237 11.8144 13.2834 11.9268 13.1171 11.9762C12.9509 12.0255 12.772 12.0078 12.6187 11.9268C12.263 11.7401 11.8718 11.6308 11.4708 11.6062C11.0699 11.5816 10.6682 11.6422 10.2924 11.7841C9.91656 11.926 9.57505 12.1459 9.29036 12.4293C9.00567 12.7128 8.78427 13.0533 8.64073 13.4285L8.4269 13.9885C8.13073 14.7637 8.13127 15.621 8.42841 16.3958C8.72554 17.1707 9.29834 17.8085 10.0369 18.1869L13.2224 19.7925C13.343 19.854 13.4423 19.9504 13.5072 20.0691C13.5722 20.1878 13.5999 20.3234 13.5867 20.458C13.5517 20.8327 13.1601 21.1143 12.7921 21.0662L10.8282 20.8168C10.7748 20.81 10.7206 20.8138 10.6687 20.828C10.6168 20.8421 10.5681 20.8664 10.5256 20.8993C10.483 20.9323 10.4474 20.9733 10.4207 21.0201C10.394 21.0668 10.3767 21.1183 10.3699 21.1717C10.3632 21.2251 10.367 21.2793 10.3811 21.3313C10.3953 21.3832 10.4195 21.4318 10.4525 21.4744C10.4855 21.5169 10.5265 21.5526 10.5732 21.5793C10.6199 21.606 10.6715 21.6232 10.7249 21.63L12.6876 21.8799C12.9278 21.9082 13.1713 21.8806 13.399 21.799C13.6267 21.7176 13.8324 21.5844 14.0001 21.4102C14.1677 21.5846 14.3734 21.7178 14.6011 21.7993C14.8289 21.8808 15.0724 21.9084 15.3126 21.8799L18.7617 21.4424C19.3139 21.3726 19.8747 21.4392 20.3952 21.6364C20.9156 21.8335 21.3798 22.1553 21.7471 22.5734L22.8989 23.8859L26.1719 27.8545C26.2057 27.8975 26.2477 27.9333 26.2955 27.9598C26.3434 27.9863 26.396 28.003 26.4503 28.0089C26.5047 28.0147 26.5597 28.0097 26.612 27.994C26.6644 27.9783 26.7131 27.9523 26.7553 27.9175C26.7975 27.8828 26.8323 27.8399 26.8577 27.7915C26.8831 27.743 26.8985 27.69 26.9031 27.6356C26.9077 27.5811 26.9013 27.5262 26.8844 27.4742C26.8675 27.4223 26.8404 27.3742 26.8046 27.3328L23.5267 23.3548ZM14.0001 19.3648C13.8832 19.2417 13.7464 19.1391 13.5954 19.0613L10.4099 17.4557C9.85169 17.1691 9.4189 16.6867 9.19446 16.1007C8.97003 15.5148 8.96972 14.8667 9.19362 14.2805L9.40635 13.7211C9.50858 13.4544 9.66609 13.2124 9.86853 13.011C10.071 12.8096 10.3138 12.6533 10.5809 12.5524C10.8481 12.4515 11.1336 12.4083 11.4186 12.4257C11.7037 12.443 11.9818 12.5205 12.2348 12.653C12.5204 12.8032 12.8473 12.8562 13.1658 12.8039C13.4842 12.7516 13.777 12.5969 13.9996 12.3632C14.2222 12.5969 14.5149 12.7516 14.8334 12.8039C15.1518 12.8562 15.4787 12.8032 15.7643 12.653C16.0173 12.5203 16.2956 12.4427 16.5808 12.4252C16.8659 12.4078 17.1516 12.4509 17.4189 12.5518C17.6862 12.6527 17.9291 12.8091 18.1316 13.0106C18.3341 13.2122 18.4917 13.4543 18.5939 13.7211L18.8077 14.2805C19.031 14.8659 19.0308 15.513 18.807 16.0982C18.5832 16.6833 18.1516 17.1655 17.5947 17.4524L14.4026 19.0613C14.2523 19.1392 14.1163 19.2418 14.0001 19.3648ZM27.9263 17.7762L25.1881 13.8671C25.1256 13.778 25.0303 13.7173 24.9232 13.6984C24.816 13.6796 24.7057 13.704 24.6166 13.7665C24.5275 13.8289 24.4668 13.9242 24.4479 14.0314C24.429 14.1386 24.4535 14.2488 24.516 14.338L27.2547 18.2465C27.2848 18.2925 27.3238 18.3321 27.3694 18.3628C27.4151 18.3934 27.4664 18.4146 27.5204 18.425C27.5744 18.4355 27.6299 18.4349 27.6837 18.4235C27.7375 18.412 27.7884 18.3898 27.8335 18.3583C27.8785 18.3268 27.9168 18.2865 27.9459 18.2398C27.9751 18.1932 27.9946 18.1412 28.0032 18.0869C28.0119 18.0326 28.0096 17.9771 27.9963 17.9237C27.9831 17.8703 27.9593 17.8202 27.9263 17.7762ZM9.34237 20.627C8.65721 20.5402 7.96121 20.6227 7.31535 20.8673C6.66949 21.112 6.0935 21.5113 5.63784 22.0303L4.48448 23.345L4.47628 23.3548L1.19667 27.329C1.16091 27.3703 1.13378 27.4184 1.11687 27.4704C1.09996 27.5224 1.09362 27.5773 1.09822 27.6317C1.10281 27.6862 1.11825 27.7392 1.14363 27.7876C1.16901 27.8361 1.20381 27.8789 1.24599 27.9137C1.28817 27.9485 1.33688 27.9745 1.38925 27.9902C1.44163 28.0059 1.49661 28.0109 1.55096 28.005C1.60532 27.9992 1.65795 27.9825 1.70577 27.956C1.75358 27.9295 1.79562 27.8937 1.8294 27.8507L5.10245 23.882L6.25417 22.5695C6.62198 22.1514 7.08672 21.8299 7.60768 21.6331C8.12863 21.4363 8.68989 21.3703 9.24229 21.4408C9.29614 21.4484 9.35096 21.4453 9.40358 21.4315C9.45619 21.4177 9.50554 21.3937 9.54877 21.3607C9.59199 21.3277 9.62822 21.2864 9.65534 21.2392C9.68246 21.1921 9.69994 21.14 9.70676 21.0861C9.71357 21.0321 9.70959 20.9774 9.69505 20.925C9.6805 20.8726 9.65568 20.8236 9.62202 20.7809C9.58837 20.7381 9.54655 20.7025 9.49901 20.6761C9.45147 20.6497 9.39915 20.633 9.3451 20.627H9.34237ZM5.30479 7.3943C5.33828 7.46372 5.3907 7.52226 5.45601 7.56319C5.52132 7.60411 5.59686 7.62576 5.67393 7.62563C5.73595 7.62575 5.79716 7.61153 5.85276 7.58406C5.95039 7.53665 6.02521 7.45242 6.06079 7.34989C6.09637 7.24735 6.0898 7.13488 6.04253 7.03719L5.46885 5.85758C5.4453 5.80914 5.41243 5.76581 5.37213 5.73007C5.33183 5.69433 5.28489 5.66688 5.23398 5.64929C5.18307 5.63169 5.12919 5.62429 5.07543 5.62752C5.02166 5.63075 4.96905 5.64453 4.92061 5.66809C4.87217 5.69164 4.82885 5.72451 4.79311 5.76481C4.75737 5.80511 4.72992 5.85205 4.71232 5.90296C4.67678 6.00578 4.68355 6.1185 4.73112 6.21633L5.30479 7.3943Z" stroke-width="0.5"/>
</g>
<defs>
<clipPath id="clip0_1812_46748">
<rect width="28" height="28"/>
</clipPath>
</defs>
</svg>
