<svg width="28" height="28" viewBox="0 0 28 28" fill="none" xmlns="http://www.w3.org/2000/svg">
<path d="M10.1037 4.16178C10.0604 3.9948 10.0505 3.82093 10.0745 3.65012C10.0985 3.4793 10.1559 3.31488 10.2434 3.16627C10.331 3.01766 10.447 2.88776 10.5848 2.78401C10.7226 2.68026 10.8795 2.60469 11.0465 2.56162C12.9835 2.06149 15.0158 2.06149 16.9528 2.56162C17.1234 2.60113 17.2844 2.67438 17.4263 2.77708C17.5682 2.87978 17.6881 3.00983 17.7789 3.15958C17.8698 3.30933 17.9297 3.47575 17.9552 3.64903C17.9807 3.82231 17.9713 3.99894 17.9275 4.16853C17.8837 4.33811 17.8064 4.49721 17.7002 4.63646C17.5939 4.7757 17.4609 4.89227 17.3089 4.9793C17.1569 5.06633 16.989 5.12206 16.8152 5.1432C16.6413 5.16434 16.465 5.15047 16.2965 5.1024C14.79 4.71341 13.2093 4.71341 11.7028 5.1024C11.366 5.18953 11.0084 5.1394 10.7086 4.96302C10.4087 4.78665 10.1912 4.49846 10.1037 4.16178ZM3.53137 12.4546C3.64544 12.4857 3.76314 12.5015 3.88137 12.5016C4.16837 12.5015 4.44741 12.4073 4.67577 12.2335C4.90413 12.0596 5.06921 11.8157 5.14575 11.5391C5.56254 10.0408 6.35284 8.67284 7.44262 7.56334C7.57028 7.44199 7.67221 7.29618 7.74233 7.13461C7.81245 6.97304 7.84934 6.799 7.85079 6.62288C7.85224 6.44675 7.81822 6.27213 7.75077 6.10943C7.68332 5.94672 7.58381 5.79926 7.45817 5.67582C7.33252 5.55238 7.18332 5.45549 7.01945 5.39093C6.85558 5.32636 6.68039 5.29544 6.50431 5.30001C6.32824 5.30457 6.15488 5.34453 5.99458 5.4175C5.83427 5.49047 5.69029 5.59496 5.57122 5.72474C4.17007 7.15229 3.154 8.91197 2.61809 10.8391C2.52505 11.1744 2.569 11.533 2.74026 11.8359C2.91152 12.1389 3.19608 12.3614 3.53137 12.4546ZM16.2965 22.8977C14.79 23.2867 13.2093 23.2867 11.7028 22.8977C11.5344 22.8496 11.358 22.8358 11.1841 22.8569C11.0103 22.8781 10.8424 22.9338 10.6904 23.0208C10.5384 23.1078 10.4054 23.2244 10.2991 23.3637C10.1929 23.5029 10.1156 23.662 10.0718 23.8316C10.028 24.0012 10.0186 24.1778 10.0441 24.3511C10.0696 24.5244 10.1296 24.6908 10.2204 24.8405C10.3112 24.9903 10.4311 25.1203 10.573 25.223C10.7149 25.3257 10.8759 25.399 11.0465 25.4385C12.9835 25.9386 15.0158 25.9386 16.9528 25.4385C17.1234 25.399 17.2844 25.3257 17.4263 25.223C17.5682 25.1203 17.6881 24.9903 17.7789 24.8405C17.8698 24.6908 17.9297 24.5244 17.9552 24.3511C17.9807 24.1778 17.9713 24.0012 17.9275 23.8316C17.8837 23.662 17.8064 23.5029 17.7002 23.3637C17.5939 23.2244 17.4609 23.1078 17.3089 23.0208C17.1569 22.9338 16.989 22.8781 16.8152 22.8569C16.6413 22.8358 16.465 22.8496 16.2965 22.8977ZM22.8536 11.5413C22.9523 11.8702 23.176 12.1473 23.4766 12.3131C23.7773 12.479 24.1309 12.5204 24.4618 12.4286C24.7926 12.3367 25.0743 12.1188 25.2464 11.8217C25.4185 11.5245 25.4673 11.1718 25.3823 10.8391C24.8472 8.911 23.831 7.15042 22.4292 5.72256C22.3107 5.59006 22.1666 5.48301 22.0055 5.40789C21.8444 5.33278 21.6697 5.29117 21.492 5.28558C21.3144 5.27999 21.1375 5.31055 20.972 5.37539C20.8065 5.44023 20.6559 5.53802 20.5293 5.6628C20.4027 5.78759 20.3028 5.93679 20.2357 6.10135C20.1685 6.26591 20.1354 6.44239 20.1385 6.62011C20.1416 6.79783 20.1807 6.97306 20.2535 7.1352C20.3263 7.29734 20.4313 7.443 20.5622 7.56334C21.6499 8.67419 22.4379 10.0429 22.8525 11.5413H22.8536ZM25.3856 17.1621C24.7835 19.3292 23.5744 21.279 21.9009 22.7818C21.7512 22.9164 21.5726 23.0148 21.3788 23.0693C21.185 23.1239 20.9812 23.1331 20.7833 23.0963C20.5854 23.0595 20.3985 22.9777 20.2373 22.8572C20.0761 22.7366 19.9447 22.5806 19.8534 22.4011C19.3048 21.3205 18.4677 20.413 17.4348 19.779C16.402 19.145 15.2137 18.8094 14.0018 18.8094C12.7899 18.8094 11.6017 19.145 10.5689 19.779C9.53602 20.413 8.69889 21.3205 8.15028 22.4011C8.05905 22.5806 7.92775 22.7367 7.76654 22.8574C7.60533 22.978 7.41853 23.0599 7.22059 23.0968C7.14155 23.1111 7.06139 23.1184 6.98106 23.1186C6.65786 23.1179 6.3463 22.998 6.10606 22.7818C4.4299 21.2796 3.21849 19.3293 2.61481 17.161C2.54309 16.8332 2.59961 16.4904 2.77278 16.203C2.94594 15.9157 3.22259 15.7055 3.54589 15.6158C3.86918 15.526 4.21458 15.5635 4.5111 15.7205C4.80763 15.8775 5.03278 16.1421 5.14028 16.4599C5.46649 17.6344 6.0243 18.7318 6.7809 19.6876C7.63095 18.6035 8.71533 17.7259 9.95278 17.1205C9.16452 16.3223 8.62994 15.3088 8.41627 14.2075C8.2026 13.1062 8.31939 11.9663 8.75196 10.9312C9.18452 9.89611 9.91353 9.01207 10.8473 8.39028C11.781 7.76848 12.8778 7.43672 13.9997 7.43672C15.1215 7.43672 16.2183 7.76848 17.152 8.39028C18.0858 9.01207 18.8148 9.89611 19.2473 10.9312C19.6799 11.9663 19.7967 13.1062 19.583 14.2075C19.3694 15.3088 18.8348 16.3223 18.0465 17.1205C19.2837 17.7263 20.368 18.6038 21.2184 19.6876C21.9744 18.7322 22.5321 17.6357 22.859 16.4621C22.9521 16.1266 23.1747 15.8419 23.4778 15.6705C23.7808 15.4991 24.1396 15.4551 24.475 15.5483C24.8105 15.6414 25.0953 15.8639 25.2666 16.167C25.438 16.4701 25.482 16.8288 25.3889 17.1643L25.3856 17.1621ZM13.9997 16.1876C14.6054 16.1876 15.1975 16.0079 15.7011 15.6714C16.2047 15.3349 16.5972 14.8566 16.829 14.297C17.0608 13.7374 17.1215 13.1217 17.0033 12.5276C16.8851 11.9335 16.5935 11.3878 16.1652 10.9595C15.7369 10.5312 15.1912 10.2396 14.5971 10.1214C14.003 10.0032 13.3873 10.0639 12.8277 10.2957C12.2681 10.5275 11.7898 10.92 11.4533 11.4236C11.1168 11.9272 10.9372 12.5194 10.9372 13.1251C10.9372 13.9373 11.2598 14.7162 11.8341 15.2906C12.4085 15.8649 13.1874 16.1876 13.9997 16.1876Z" />
</svg>
