<svg width="30" height="30" viewBox="0 0 30 30" fill="none" xmlns="http://www.w3.org/2000/svg">
<g clip-path="url(#clip0_2370_85774)">
<path d="M23.0383 6.57305C21.5767 4.14844 19.5763 2.8125 17.4062 2.8125H11.5938C9.42375 2.8125 7.42328 4.14844 5.96168 6.57305C4.59574 8.83828 3.84375 11.8359 3.84375 15C3.84375 18.1641 4.59574 21.1617 5.96168 23.427C7.42328 25.8516 9.42375 27.1875 11.5938 27.1875H17.4062C19.5763 27.1875 21.5767 25.8516 23.0383 23.427C24.4043 21.1617 25.1562 18.1641 25.1562 15C25.1562 11.8359 24.4043 8.83828 23.0383 6.57305ZM23.1933 14.0625H19.3183C19.2426 12.1387 18.8468 10.2393 18.1461 8.4375H21.8504C22.5915 10.0055 23.0807 11.9531 23.1933 14.0625ZM20.6988 6.5625H17.2198C16.8151 5.88318 16.3272 5.25363 15.7666 4.6875H17.4062C18.6172 4.6875 19.7555 5.39062 20.6988 6.5625ZM5.78125 15C5.78125 9.41016 8.44531 4.6875 11.5938 4.6875C14.7422 4.6875 17.4062 9.41016 17.4062 15C17.4062 20.5898 14.7422 25.3125 11.5938 25.3125C8.44531 25.3125 5.78125 20.5898 5.78125 15ZM17.4062 25.3125H15.7703C16.3309 24.7464 16.8188 24.1168 17.2234 23.4375H20.7024C19.7555 24.6094 18.6172 25.3125 17.4062 25.3125ZM21.8504 21.5625H18.1473C18.848 19.7607 19.2438 17.8613 19.3195 15.9375H23.1945C23.0807 18.0469 22.5915 19.9945 21.8504 21.5625Z" fill="white"/>
</g>
<defs>
<clipPath id="clip0_2370_85774">
<rect width="30" height="30" fill="white"/>
</clipPath>
</defs>
</svg>
